<?xml version="1.0" standalone="no"?>
<!DOCTYPE svg PUBLIC "-//W3C//DTD SVG 1.1//EN" "http://www.w3.org/Graphics/SVG/1.1/DTD/svg11.dtd" >
<svg xmlns="http://www.w3.org/2000/svg">
<metadata></metadata>
<defs>
<font id="domdiagonal_btregular" horiz-adv-x="1024" >
<font-face units-per-em="2048" ascent="1556" descent="-492" />
<missing-glyph horiz-adv-x="487" />
<glyph horiz-adv-x="0" />
<glyph unicode="&#xd;" horiz-adv-x="487" />
<glyph unicode=" "  horiz-adv-x="487" />
<glyph unicode="&#x09;" horiz-adv-x="487" />
<glyph unicode="&#xa0;" horiz-adv-x="487" />
<glyph unicode="!" horiz-adv-x="612" d="M-2 70q0 66 66 139.5t114 73.5q31 0 78 -39.5t47 -57.5q0 -3 -1 -15t-1 -19q0 -5 1 -15t1 -14q0 -47 -56 -108.5t-89 -61.5q-6 0 -18.5 2t-18.5 2h-19q-35 0 -69.5 42t-34.5 71zM137 395q0 65 44 273.5t116 472.5q44 165 68 228t41 63q9 0 16.5 6t9.5 6q2 -1 3 -2.5 t3 -5.5q2 -2 4 -2t8.5 4t12.5 4q9 0 60 -12.5t79 -24.5q14 -6 22.5 -18t8.5 -27q0 -13 -14 -34t-21 -40q-10 -29 -27 -67t-20 -45q-22 -53 -65 -197.5t-66 -216.5l-11 -34q-93 -276 -108 -349q-5 -28 -23.5 -37.5t-62.5 -9.5q-2 0 -8.5 6.5t-19.5 7.5q-30 2 -40 13t-10 38z " />
<glyph unicode="&#x22;" horiz-adv-x="643" d="M86 879v557h164v-557h-164zM395 879v557h164v-557h-164z" />
<glyph unicode="#" horiz-adv-x="1575" d="M70 428l61 172h297l90 252h-315l61 172h316l155 436h191l-154 -436h250l156 436h190l-154 -436h291l-59 -172h-293l-90 -252h309l-61 -172h-307l-156 -434h-191l156 434h-252l-158 -434h-190l156 434h-299zM618 598h256l91 254h-256z" />
<glyph unicode="$" horiz-adv-x="854" d="M-55 250q0 16 9 39.5t9 29.5q0 3 -1 7t-1 6q0 18 15 28.5t40 10.5q45 0 96 -62l21 -24q60 -65 100 -89t84 -24q50 0 78.5 34t28.5 91q0 47 -31.5 107t-85.5 112l-1 1q-140 137 -140 253q0 119 69.5 227.5t184.5 167.5q40 21 82.5 39.5t42.5 24.5v14q0 4 14.5 48.5 t26.5 87.5q4 13 7.5 19.5t8.5 10.5q9 6 37 19.5t35 13.5q33 0 62.5 -15t29.5 -32q0 -8 -7 -16.5t-10 -17.5q-9 -43 -26.5 -100t-17.5 -69t92 -80l6 -4q20 -15 32.5 -52.5t12.5 -82.5q0 -7 -5 -21.5t-5 -23.5q0 -4 2 -13t2 -14q0 -53 -34.5 -104.5t-82.5 -51.5 q-76 0 -109.5 36.5t-33.5 125.5q0 51 5 94q1 7 1 9q0 10 -5 17t-12 7q-45 0 -106.5 -68.5t-61.5 -148.5q0 -49 86 -131q34 -32 52 -51q106 -113 136 -166.5t30 -108.5q0 -81 -46 -149t-151 -141q-41 -29 -79 -47.5l-38 -18.5q-1 -2 -5 -20q-18 -84 -48 -166 q-12 -31 -28 -47.5t-36 -16.5q-10 0 -24 6.5t-19 6.5q-3 0 -12.5 -1.5t-15.5 -1.5q-25 0 -39 12t-14 31q0 36 27.5 110.5t27.5 88.5q0 1 -38 11t-79 40q-63 49 -104 104t-41 89z" />
<glyph unicode="%" horiz-adv-x="1389" d="M86 780q0 93 46 193.5t136 202.5q36 40 77 72t48 32t21.5 -7t21.5 -9q9 -3 31 -6q66 -8 101 -40q11 -10 28.5 -20t19.5 -16q25 -64 32 -94t7 -56q0 -160 -123.5 -324.5t-226.5 -164.5q-102 0 -160.5 65.5t-58.5 171.5zM219 41q0 23 63 112q27 38 44 62q27 39 101 137 t112 150q50 68 160 220t165 224q40 51 101 133q150 201 227 201q43 0 66.5 -15.5t23.5 -41.5q0 -5 -46 -56q-212 -232 -437 -526q-164 -215 -318.5 -451.5t-163.5 -236.5q-2 0 -10 1t-12 1q-3 0 -9.5 -1t-11.5 -1q-25 0 -40 24.5t-15 63.5zM264 776q0 -32 12 -57t27 -25 q40 0 109 114.5t69 217.5q0 37 -12 61.5t-29 24.5q-50 0 -113 -106t-63 -230zM723 182q0 90 46.5 189t137.5 204q36 41 76 73t47 32t23 -7.5t23 -9.5q9 -2 33 -5q62 -7 98 -38q11 -10 27.5 -21t18.5 -17q21 -49 30 -85.5t9 -66.5q0 -89 -43.5 -187t-122.5 -186 q-49 -56 -95 -84t-87 -28q-102 0 -161.5 65.5t-59.5 171.5zM901 176q0 -37 11 -61.5t28 -24.5q38 0 107 114t69 212q0 42 -11.5 67t-29.5 25q-49 0 -111.5 -104t-62.5 -228z" />
<glyph unicode="&#x26;" horiz-adv-x="1042" d="M-106 150q0 66 48 159t132 185q50 55 116 103.5t66 59.5q0 9 -26.5 79.5t-26.5 129.5q0 101 44 203.5t130 200.5q66 75 133.5 114t130.5 39q56 0 107 -28.5t110 -94.5q54 -63 75 -101t21 -71q0 -73 -40.5 -161t-110.5 -164q-53 -58 -139 -116t-86 -75q0 -13 41 -83 l32 -56q3 -5 9 -16q32 -58 61 -58q13 0 104 30t125 30q7 0 24 -16t17 -27q0 -15 -34.5 -54.5t-85.5 -82.5q-14 -11 -43 -26q-42 -20 -42 -42q0 -12 40 -89.5t40 -123.5q0 -16 -5.5 -22.5t-25.5 -12.5q-28 -7 -46.5 -20t-22.5 -13q-53 0 -72 24q-5 6 -8 9q-29 34 -65 87 q-40 61 -64 61q-30 0 -109.5 -48.5t-130.5 -62.5q-55 -16 -109.5 -24.5t-98.5 -8.5q-88 0 -151.5 54.5t-63.5 128.5zM129 178q0 -9 8.5 -14.5t22.5 -5.5q9 0 66 17.5t114 41.5q52 22 90.5 42.5t38.5 25.5q0 7 -19 38.5t-63 96.5q-5 8 -13 20q-18 29 -26 29q-13 0 -42 -27 t-70 -77q-40 -48 -73.5 -108t-33.5 -79zM442 907q0 -45 12.5 -76.5t26.5 -31.5q9 0 53 32t99 80q53 47 76.5 92t23.5 99q0 50 -28 84.5t-68 34.5q-72 0 -133.5 -93.5t-61.5 -220.5z" />
<glyph unicode="'" horiz-adv-x="334" d="M86 879v557h164v-557h-164z" />
<glyph unicode="(" horiz-adv-x="688" d="M47 -104q0 244 89 580t251 687q24 51 58 130q64 147 96 147q28 0 69 -36.5t41 -72.5q0 -20 -72 -179t-124 -300q-118 -319 -156.5 -502t-38.5 -360q0 -71 10.5 -171.5t10.5 -127.5q0 -32 -34.5 -46t-117.5 -14q-37 0 -59.5 71t-22.5 194z" />
<glyph unicode=")" horiz-adv-x="688" d="M-133 -317q0 11 68 126t122 230q134 281 200.5 546t66.5 517q0 109 -34 213q-9 29 -9 39q0 41 29.5 57t95.5 16q54 0 77 -83.5t23 -284.5q0 -203 -63 -468t-181 -552q-90 -219 -142.5 -313.5t-84.5 -94.5q-10 0 -34 7.5t-38 7.5q-6 0 -19.5 -2t-19.5 -2q-22 0 -39.5 13 t-17.5 28z" />
<glyph unicode="*" d="M221 764q0 17 35 63t74 76q22 18 78.5 50.5t56.5 45.5t-18.5 19t-55.5 6q-15 0 -43.5 -7t-42.5 -7q-37 0 -60.5 32t-23.5 78q0 53 26.5 85t69.5 32q48 0 123 -62.5t78 -62.5q10 0 16.5 9t6.5 24q0 29 -14.5 97.5t-14.5 78.5q0 40 62.5 80.5t109.5 40.5q26 0 39.5 -15 t13.5 -43q0 -38 -48 -141t-48 -131q0 -1 2 -2.5t4 -1.5q27 0 94.5 78t110.5 78q39 0 86 -38t47 -73q0 -29 -49 -61t-116 -47q-31 -8 -80 -14q-68 -9 -68 -32q0 -30 66.5 -67t66.5 -72q0 -43 -49 -107.5t-86 -64.5q-30 0 -57.5 39t-37.5 95q-4 26 -9 64q-8 54 -17 54 q-26 0 -87 -146l-1 -3q-22 -52 -55 -72.5t-95 -20.5q-57 0 -73.5 12.5t-16.5 53.5z" />
<glyph unicode="+" horiz-adv-x="1706" d="M254 528v166h514v527h170v-527h514v-166h-514v-528h-170v528h-514z" />
<glyph unicode="," horiz-adv-x="479" d="M-133 -256q0 10 31 66t47 94q28 70 68.5 147.5t82.5 143.5q18 26 42 29q11 1 19 3q7 2 20 15.5t30 13.5q14 0 53 -28t39 -46q0 -10 -78.5 -120.5t-142.5 -206.5q-15 -23 -41 -64q-73 -117 -98 -117q-22 0 -47 30.5t-25 39.5z" />
<glyph unicode="-" horiz-adv-x="612" d="M20 457q0 13 5.5 26.5t5.5 14.5l-4 7t-4 13q0 18 37.5 24.5t156.5 6.5h96h68q9 0 22.5 -3t16.5 -3q7 0 15.5 2t10.5 2q1 0 5 -3t8 -3q3 0 7 2t7 2q10 0 16.5 -21t6.5 -53q0 -31 -15 -65.5t-32 -34.5h-3q-17 2 -32 2q-6 0 -18.5 -1t-18.5 -1q-16 0 -43.5 3t-40.5 3 q-17 0 -50.5 -3t-49.5 -3q-34 0 -72 6t-43 6q-4 0 -11.5 -3t-11.5 -3q-15 0 -25 22t-10 58z" />
<glyph unicode="." horiz-adv-x="479" d="M-37 43q0 72 61 132q6 6 9 10q15 15 28 35.5t17 23.5q39 22 63 35q5 0 27.5 -10.5t24.5 -10.5q8 0 14 2h2q13 0 43.5 -53t30.5 -74q0 -26 -25.5 -71.5t-40.5 -45.5q-2 0 -5 1t-5 1q-1 0 -2 -2q-13 -25 -85 -45q-18 -5 -36.5 -12.5t-22.5 -7.5q-21 0 -59.5 37t-38.5 55z " />
<glyph unicode="/" horiz-adv-x="711" d="M-266 -113q162 258 491 768q326 506 436 662t136 156q7 0 21 -3.5t20 -3.5q24 0 49.5 -23.5t25.5 -51.5q0 -14 -29 -44q-17 -18 -28 -30q-72 -80 -173 -222t-339 -507q-133 -204 -301 -489q-160 -271 -203 -271h-12q-7 0 -19 -5t-18 -5q-23 0 -37 10.5t-14 28.5v8 q0 8 -5 19z" />
<glyph unicode="0" horiz-adv-x="958" d="M23 348q0 158 65.5 341t179.5 339q76 104 161.5 175t115.5 71q23 0 46.5 -18.5t31.5 -22.5q12 -6 58.5 -14t78.5 -19q93 -32 134.5 -103.5t41.5 -201.5q0 -204 -90.5 -429.5t-237.5 -381.5q-64 -68 -125.5 -98.5t-130.5 -30.5q-138 0 -233.5 110t-95.5 283zM254 348 q0 -108 21 -167.5t59 -59.5q34 0 90.5 58t105.5 149q74 133 113 283.5t39 295.5q0 74 -24.5 122t-59.5 48q-20 0 -64 -44t-88 -111q-93 -142 -142.5 -290t-49.5 -284z" />
<glyph unicode="1" horiz-adv-x="573" d="M55 51q0 25 22 104q13 47 19 74q19 79 39.5 154.5t20.5 79.5v20q0 5 12 52.5t37 138.5q25 87 44 163.5t19 82.5q0 5 -2 8.5t-4 3.5q-5 0 -41 -22.5t-61 -22.5q-6 0 -22.5 20t-16.5 27q0 3 29 29t50 56q5 6 14 19q31 44 58 68q26 23 62 70.5t55 62.5q27 18 60 39 q36 -14 69 -31q9 -4 26 -6q34 -4 34 -29q0 -10 -72 -290t-137 -560q-11 -46 -32 -129q-41 -162 -44 -218q-2 -32 -22.5 -51t-51.5 -19q-34 0 -74.5 30t-51.5 35q-6 2 -14 4q-24 6 -24 37z" />
<glyph unicode="2" horiz-adv-x="883" d="M23 168q0 50 124 164.5t213 218.5q153 176 252 318t99 171q0 5 -6 10t-13 5q-32 0 -120.5 -48t-192.5 -126q-40 -30 -103 -99t-88 -69q-14 0 -42.5 69.5t-28.5 98.5q0 12 8 25.5t21 19.5q5 2 61.5 54t126.5 103q156 117 234 153t149 36q57 0 118.5 -88t61.5 -166 q0 -70 -48.5 -160.5t-176.5 -251.5q-112 -140 -222 -260.5t-110 -122.5q0 -4 8.5 -9t18.5 -5q13 0 52.5 6t63.5 6q153 0 206.5 -30.5t53.5 -116.5q0 -45 -54.5 -64.5t-176.5 -19.5q-14 0 -46 2t-50 2q-15 0 -37 -1t-29 -1q-16 0 -48.5 3t-47.5 3q-10 0 -69.5 -7t-108.5 -7 q-10 0 -30.5 31t-20.5 44q0 12 4 26t4 19q0 12 -5 33.5t-5 30.5z" />
<glyph unicode="3" horiz-adv-x="854" d="M-43 86q0 9 9.5 27.5t18.5 21.5q46 15 64 22l2 1q7 0 24.5 -5.5t28.5 -5.5q44 0 134 37.5t157 89.5q49 37 84 76.5t35 52.5q0 31 -45.5 54.5t-110.5 23.5q-124 0 -183 -39q-6 -4 -7 -4q-9 0 -38.5 26t-29.5 42q0 8 12.5 22.5t12.5 24.5q0 5 -3 14t-3 13q0 90 85 110 q37 9 56 19q155 81 282.5 188.5t127.5 130.5q0 6 -22.5 11t-53.5 5q-147 0 -288 -73q-16 -8 -19 -8q-9 0 -19 17.5t-10 37.5q0 4 1 12t1 10q0 13 -9 36.5t-9 37.5q0 34 9 52t32 26q93 35 184.5 57.5t136.5 22.5q68 0 110.5 -17.5t67.5 -56.5q42 -61 59 -95t17 -56 q0 -52 -28.5 -106.5t-92.5 -125.5q-58 -62 -120 -108.5t-62 -49.5q0 -10 45 -36.5t66 -51.5q18 -21 42.5 -77.5t24.5 -77.5q0 -91 -75 -192.5t-201 -172.5q-88 -50 -198 -84.5t-165 -34.5q-38 0 -71 19.5t-33 42.5q0 2 2 11.5t2 14.5q0 12 -18.5 35t-18.5 33z" />
<glyph unicode="4" horiz-adv-x="977" d="M4 465q0 19 105 157.5t282 354.5q70 84 138 164t69 82q2 3 7 15q16 40 40 40q89 0 183 -35.5t94 -58.5q0 -5 -10 -17.5t-15 -19.5q-7 -12 -27.5 -84.5t-35.5 -122.5q-37 -119 -64 -233.5t-27 -131.5q1 -8 45.5 -9.5t59.5 -8.5q16 -8 22.5 -32.5t6.5 -102.5q0 -25 -16 -37 t-48 -12q-3 0 -10 1t-10 1q-43 0 -71.5 -7t-33.5 -18q-8 -20 -43 -163l-4 -17q-10 -41 -28.5 -93t-18.5 -67v-20q0 -28 -16 -61t-33 -33q-35 0 -98.5 27.5t-63.5 51.5q0 14 6 29.5t6 20.5q0 9 -1 20t-1 12q0 25 17 97t24 120q5 36 19 63l2 3q0 6 -10.5 10t-26.5 4 q-20 0 -64.5 -4t-68.5 -4h-43q-7 0 -34.5 -2t-47.5 -2q-72 0 -80 19q-3 8 -6 11q-2 3 -12 12q-58 55 -58 81zM299 563q0 -3 7.5 -5.5t17.5 -2.5q12 0 33.5 3t31.5 3q11 0 40 -2t46 -2q41 0 72 102q10 33 16 54q4 12 15.5 64t25.5 89q33 86 49 133q0 8 -7.5 14.5t-16.5 6.5 q-6 0 -57 -72q-37 -52 -62 -86q-115 -158 -163 -225.5t-48 -73.5z" />
<glyph unicode="5" horiz-adv-x="834" d="M-49 90q0 32 28 62t56 30q6 0 21 -5t26 -5q21 0 101.5 35.5t144.5 83.5q63 47 99 92.5t36 77.5q0 52 -81 89.5t-200 37.5q-10 0 -26.5 -12.5t-24.5 -12.5q-9 0 -15.5 5.5t-6.5 15.5q0 2 1 5l1 3q0 9 -22.5 35.5t-22.5 42.5q0 39 63 127q28 39 43 61q45 67 109 156 q61 85 61 98q0 12 -17.5 29t-17.5 30q0 33 104.5 56.5t254.5 23.5q11 0 33 -1t32 -1q11 0 29.5 1t25.5 1q26 0 51 -20.5t25 -38.5q0 -1 -1 -6.5t-1 -9.5q0 -9 10.5 -34.5t10.5 -39.5q0 -64 -152 -73q-124 -6 -214 -19q-25 -3 -37 -10.5t-27 -28.5q-10 -14 -33.5 -58 t-42.5 -71q-9 -13 -23 -28t-14 -19q0 -15 41 -23q5 -1 8 -2q80 -13 174 -73q23 -14 35 -21q42 -25 83.5 -90t41.5 -97q0 -93 -73.5 -195.5t-205.5 -189.5q-100 -66 -221.5 -111.5t-159.5 -45.5q-15 0 -35 38q-8 15 -12 22q-9 14 -36 39.5t-27 43.5z" />
<glyph unicode="6" horiz-adv-x="977" d="M49 301q0 139 90 336t230 358q132 153 258 290q20 21 22 23q6 8 10 20q6 15 25 15h16q16 0 33 7l6 2q4 0 14.5 -3t18.5 -3h10q22 0 52 -21.5t30 -40.5q0 -11 -8 -19t-25 -14q-25 -9 -48 -43q-11 -15 -17 -22q-130 -162 -202 -257.5t-72 -105.5q0 -2 2 -2q4 0 22.5 2 t32.5 2q44 0 111.5 -27t134.5 -73q23 -17 50 -82.5t27 -112.5q0 -92 -59 -204t-164 -215q-72 -71 -153.5 -112.5t-143.5 -41.5q-31 0 -91.5 23.5t-113.5 56.5q-36 23 -67 102.5t-31 161.5zM264 256q0 -54 15 -86.5t38 -32.5q101 0 206.5 138t105.5 274q0 55 -29 86t-80 31 q-57 0 -96 -25.5t-72 -83.5q-43 -80 -65.5 -157.5t-22.5 -143.5z" />
<glyph unicode="7" horiz-adv-x="768" d="M47 41q0 63 63 197.5t216 394.5q139 239 213 373q0 3 -8.5 6.5t-18.5 3.5q-13 0 -45.5 -6t-54.5 -6q-36 0 -95.5 6t-83.5 6q-16 0 -35.5 -4t-23.5 -4q-21 0 -31 26.5t-10 83.5q0 4 4 13t4 16q0 3 -2 10.5t-2 11.5q0 22 16 46t33 24q7 0 30 -7t40 -7q15 0 35.5 2t25.5 2 q69 0 214 10t214 10q19 0 39 -28.5t21 -28.5q7 0 33 -25t26 -43q0 -14 -93 -156q-36 -54 -56 -85q-53 -81 -163 -277q-61 -107 -93 -164q-51 -86 -130 -225q-153 -268 -171 -268q-5 0 -24 11t-35 13q-25 4 -38.5 22t-13.5 46z" />
<glyph unicode="8" horiz-adv-x="901" d="M8 233q0 68 31 140.5t88 136.5q43 50 109.5 99t66.5 55q0 2 -14 23q-72 105 -72 187q0 141 126 275.5t273 134.5q100 0 185.5 -81.5t85.5 -184.5q0 -62 -38 -129.5t-120 -149.5q-26 -26 -59 -52.5t-33 -33.5q0 -5 22 -37q99 -144 99 -254q0 -145 -144 -279t-311 -134 q-132 0 -213.5 77.5t-81.5 206.5zM207 211q0 -35 29.5 -66.5t62.5 -31.5q73 0 145 83t72 187q0 33 -31 79t-43 46q-5 0 -26 -14t-49 -37q-85 -70 -122.5 -128.5t-37.5 -117.5zM432 901q0 -27 19 -66.5t43 -39.5q26 0 106 92t80 147q0 40 -15 62t-42 22q-58 0 -124.5 -69.5 t-66.5 -147.5z" />
<glyph unicode="9" horiz-adv-x="977" d="M129 756q0 79 43.5 168t130.5 186q72 78 143 124t107 46q13 0 39 -8t36 -10q14 -3 58 -6t70 -13q77 -28 126.5 -117t49.5 -202q0 -163 -81.5 -338t-238.5 -350q-115 -130 -252.5 -241.5t-154.5 -111.5q-8 0 -14.5 9.5t-12.5 30.5q-5 17 -19 38t-14 33q0 63 125 167 q36 30 49 44q103 104 187 213q-1 6 -3 8t-5 2q-4 0 -27 -7t-43 -7q-110 0 -204.5 102t-94.5 240zM342 680q0 -38 21.5 -54t74.5 -16q132 0 196 81.5t64 248.5q0 83 -25.5 125.5t-76.5 42.5q-30 0 -61.5 -28.5t-85.5 -106.5q-49 -72 -78 -153.5t-29 -139.5z" />
<glyph unicode=":" horiz-adv-x="479" d="M-45 41q0 68 73 153t107 85q5 0 26.5 -10.5t22.5 -10.5h19q13 0 43 -52t30 -73q0 -26 -26 -71.5t-41 -45.5q-2 0 -5 1t-5 1t-7 -6q-16 -22 -44 -30q-23 -6 -39 -10.5t-25 -8.5q-10 -4 -18.5 -6t-16.5 -2q-20 0 -38.5 18.5t-26.5 18.5q-2 0 -15.5 21.5t-13.5 27.5z M104 680q0 72 62 133l8 8q14 15 27 36.5t18 25.5q33 20 66 35q4 0 25.5 -10.5t23.5 -10.5h18q15 0 44.5 -52t29.5 -73q0 -27 -25.5 -72t-40.5 -45q-2 0 -6 1t-6 1q-1 0 -1 -1q-11 -26 -85 -46q-14 -3 -35 -10.5t-28 -7.5h-6q-24 6 -56.5 38.5t-32.5 49.5z" />
<glyph unicode=";" horiz-adv-x="479" d="M-150 -256q0 10 31 66t47 94q28 70 68.5 147.5t83.5 143.5q18 26 41 29q12 1 20 3q6 2 19.5 15.5t29.5 13.5q15 0 54 -28t39 -46q0 -10 -79 -120.5t-143 -206.5q-14 -23 -40 -64q-74 -117 -99 -117q-22 0 -47 30.5t-25 39.5zM102 680q0 72 62 133l8 8q14 15 27 36.5 t18 25.5q33 20 68 35q1 0 10 -5q31 -16 55 -16q15 0 43.5 -51t28.5 -74q0 -27 -25.5 -72t-40.5 -45q-2 0 -5 1t-5 1q-1 0 -1 -1q-11 -26 -85 -46q-14 -3 -35 -10.5t-28 -7.5h-7q-23 6 -55.5 38.5t-32.5 49.5z" />
<glyph unicode="&#x3c;" horiz-adv-x="1706" d="M264 530v160l1178 486v-185l-934 -381l934 -381v-182z" />
<glyph unicode="=" horiz-adv-x="1706" d="M254 322v165h1198v-165h-1198zM254 733v168h1198v-168h-1198z" />
<glyph unicode="&#x3e;" horiz-adv-x="1706" d="M264 47v182l934 381l-934 381v185l1178 -486v-160z" />
<glyph unicode="?" horiz-adv-x="797" d="M-18 43q0 19 15 61t32 56q27 22 67 69t62 47q14 0 34 -10t21 -10t7 1t9 1q34 0 56 -32.5t22 -65.5q0 -69 -63 -137t-119 -68q-16 0 -31.5 -4t-17.5 -4q-21 0 -57.5 34t-36.5 62zM106 1112q0 17 47.5 67t104.5 87q136 88 221 128t135 40q11 0 82 -33t97 -55q29 -26 53 -74 t24 -84q0 -73 -43.5 -161t-121.5 -173q-67 -72 -183 -188q-203 -203 -203 -260q0 -7 10.5 -22t10.5 -26q0 -12 -10 -20t-27 -8q-10 0 -44 5t-56 5q-33 0 -48 34l-6 12q-3 5 -21.5 21t-18.5 39q0 38 92.5 157.5t251.5 287.5q100 105 149 178.5t49 118.5q0 15 -8.5 20.5 t-32.5 5.5q-40 0 -116 -39.5t-177 -113.5q-46 -35 -89 -82t-60 -47q-13 0 -34 44t-21 62q0 5 1 11t1 8q0 7 -4.5 25.5t-4.5 29.5z" />
<glyph unicode="@" horiz-adv-x="2048" d="M98 522q0 165 52 313.5t153 272.5q147 179 353.5 272t459.5 93q166 0 315 -45.5t255 -127.5q132 -102 198 -235.5t66 -300.5q0 -162 -65 -302t-185 -237q-69 -55 -150 -83.5t-168 -28.5q-106 0 -157 40.5t-51 125.5v4q-55 -87 -128 -127.5t-176 -40.5q-152 0 -232.5 86.5 t-80.5 249.5q0 233 138 395t333 162q89 0 149 -34.5t99 -107.5l55 107h154l-148 -586q-1 -5 -2 -12q-6 -28 -6 -37q0 -38 26.5 -61t69.5 -23q51 0 107.5 30.5t105.5 84.5q72 76 110 177.5t38 215.5q0 253 -187 411t-489 158q-138 0 -256 -31t-215 -94q-181 -113 -279 -291 t-98 -395q0 -312 209.5 -499t558.5 -187q166 0 323.5 49t291.5 142l67 -99q-149 -113 -318.5 -170t-355.5 -57q-192 0 -351 48t-281 142q-155 118 -231.5 275.5t-76.5 357.5zM741 444q0 -98 45.5 -151t128.5 -53q90 0 163.5 66.5t99.5 172.5l55 228q-14 84 -61.5 130 t-122.5 46q-127 0 -217.5 -128.5t-90.5 -310.5z" />
<glyph unicode="A" horiz-adv-x="938" d="M-166 -70q0 32 105.5 290.5t248.5 537.5q83 160 196 403q129 279 169 279q92 0 185 -28.5t93 -47.5q0 -2 -1 -8q-17 -71 -17 -162q0 -13 1 -29.5t1 -21.5q0 -34 -9 -111.5t-9 -122.5q0 -14 1 -30.5t1 -18.5q0 -6 -9 -126.5t-16 -239.5q-12 -209 -31 -408q-4 -39 -4 -43 q0 -12 3 -25t3 -16q0 -10 -19.5 -23.5t-31.5 -13.5q-8 0 -21.5 4t-19.5 4q-10 0 -27 -8t-26 -8q-40 0 -56 35.5t-16 157.5q0 19 3.5 93t3.5 128q-108 -17 -188 -27t-97 -10q-47 -8 -75 -86q-12 -33 -19 -51q-5 -11 -23 -42q-60 -107 -92 -204q-10 -33 -33.5 -52.5 t-54.5 -19.5q-50 0 -84.5 16t-34.5 35zM330 580q0 -5 6.5 -9t15.5 -4q2 0 8 1q43 5 97 5h14q63 0 75.5 12t12.5 58q0 19 -1 42.5t-1 27.5q0 9 12.5 152.5t22.5 273.5q-110 -272 -238 -510q-24 -45 -24 -49z" />
<glyph unicode="B" horiz-adv-x="1006" d="M-37 41q0 2 9.5 25t9.5 45q0 12 53 204t92 385q42 211 80 389.5t47 214.5q7 31 17.5 44.5t31.5 23.5q36 16 126.5 32.5t172.5 16.5q124 0 164 -6t61 -22q73 -53 113.5 -131t40.5 -166q0 -96 -45.5 -175.5t-155.5 -170.5q-34 -28 -70 -46.5t-36 -23.5t18 -14q11 -5 17 -9 q52 -33 85 -104t33 -152q0 -101 -68 -182t-202 -139q-103 -45 -213.5 -72.5t-169.5 -27.5h-20q-37 0 -52 -17.5t-28 -17.5q-20 0 -65.5 39.5t-45.5 56.5zM225 223q0 -7 9.5 -10.5t31.5 -3.5q34 0 109.5 33t152.5 86q37 24 56.5 52.5t19.5 57.5q0 48 -45.5 86.5t-93.5 38.5 q-18 0 -52 1t-51 1q-46 0 -73 -75v-1q-16 -46 -26.5 -105t-10.5 -60q-7 -36 -12 -52zM369 799q0 -4 1.5 -5t12.5 -1q50 0 106.5 26t135.5 86q81 61 120 109.5t39 87.5q0 50 -45 83.5t-114 33.5q-84 0 -122.5 -14.5t-47.5 -59.5q-16 -78 -51 -197.5t-35 -148.5z" />
<glyph unicode="C" horiz-adv-x="891" d="M-25 264q0 105 27 231t78 259q52 138 107.5 252t111.5 196q86 127 164 184.5t164 57.5q72 0 155 -66q23 -17 36 -27q55 -40 72 -78.5t17 -96.5q0 -64 -21 -145.5t-46 -125.5q-13 -21 -50.5 -36t-78.5 -15q-46 0 -68 29t-22 90q0 36 6 94t6 80q0 32 -10 53t-25 21 q-27 0 -68 -55.5t-90 -157.5q-101 -216 -157 -418.5t-56 -343.5q0 -66 15 -99.5t45 -33.5q48 0 128 85.5t126 198.5q3 10 10 27q24 69 59 94l8 6q49 37 72 37q22 0 52 -27.5t30 -50.5q0 -45 -24 -117t-66 -151q-8 -17 -33.5 -47t-36.5 -49q-42 -72 -129.5 -123t-173.5 -51 q-172 0 -253 77t-81 242z" />
<glyph unicode="D" horiz-adv-x="977" d="M-41 53q0 4 41.5 178t81.5 351l72 318q104 457 104 460q0 11 -1 27.5t-1 21.5q0 29 52.5 42t172.5 13q57 0 136 -23t139 -59q92 -54 142 -155t50 -234q0 -184 -95.5 -395.5t-256.5 -380.5q-106 -112 -238.5 -193t-179.5 -81q-20 0 -75 30q-32 18 -52 27q-18 9 -47 21 q-45 17 -45 32zM238 217q0 -5 3.5 -8.5t8.5 -3.5q15 0 80.5 56t126.5 132q111 138 169 292.5t58 309.5q0 114 -41.5 177t-114.5 63q-27 0 -47.5 -9.5t-23.5 -22.5q-1 -4 -20 -91t-40 -174q-62 -267 -110.5 -489.5t-48.5 -231.5z" />
<glyph unicode="E" horiz-adv-x="834" d="M-16 55q0 69 153 703l33 139q84 350 118.5 425t80.5 75q10 0 25.5 -10.5t25.5 -10.5q6 0 41 8q164 37 301 36q25 0 52.5 -44.5t27.5 -72.5q0 -74 -41.5 -94.5t-206.5 -30.5l-33 -3q-94 -6 -100 -22q-1 -2 -2 -7q-12 -54 -31 -118q-21 -72 -34 -123t-13 -57t4.5 -8 t15.5 -2q2 0 83.5 10t160.5 10q42 0 60 -21.5t18 -86.5q0 -20 -11 -83q-1 -9 -1 -10q-14 -27 -227 -43q-16 -1 -25 -2q-6 0 -19 -1q-125 -9 -133 -44q-24 -114 -53 -222t-29 -112q0 -11 4 -15.5t15 -4.5q48 0 147.5 17.5t130.5 17.5q24 0 52 -32.5t28 -63.5q0 -23 -9 -51 t-9 -33q0 -4 4 -14t4 -15q0 -9 -4 -11.5t-17 -2.5h-12q-32 0 -128.5 -21t-162.5 -27q-83 -7 -154 -20q-14 -2 -16 -2q-15 0 -64.5 38t-49.5 62z" />
<glyph unicode="F" horiz-adv-x="768" d="M-37 23q0 4 64 284t145 625q65 277 86.5 357.5t30.5 86.5q6 7 149.5 21t290.5 14q47 0 80 -39.5t33 -87.5q0 -69 -33 -88.5t-180 -19.5q-11 0 -30 1t-28 1q-79 0 -104 -11t-33 -68q-8 -72 -37.5 -167t-29.5 -105q0 -2 1.5 -3.5t4.5 -2.5q8 0 75 8.5t123 8.5 q42 0 80.5 -35.5t38.5 -75.5q0 -18 -19.5 -58t-25.5 -46q-15 -14 -85 -20q-5 -1 -8 -1q-26 -3 -75 -9q-83 -11 -106 -11h-9q-41 0 -49 -41q-4 -20 -8 -36l-29 -116t-55 -221q-5 -21 -14 -59q-41 -175 -115 -175q-39 0 -84 31.5t-45 57.5z" />
<glyph unicode="G" horiz-adv-x="1006" d="M2 371q0 193 89.5 414.5t248.5 412.5q87 106 180.5 172t149.5 66q77 0 107 -25q9 -8 15 -12q11 -7 31 -20q158 -103 158 -197q0 -138 -57 -261.5t-115 -123.5q-8 0 -25 5t-26 5q-5 0 -15.5 -2t-15.5 -2q-28 0 -40.5 23t-12.5 77q0 80 38 185.5t38 123.5q-1 19 -8.5 30 t-18.5 11q-38 0 -128 -86.5t-167 -216.5q-83 -139 -134.5 -314.5t-51.5 -309.5q0 -93 22.5 -148t59.5 -55q25 0 83 37t99 86q48 56 77 101.5t29 62.5q0 10 -5 13t-23 3q-1 0 -23.5 -1t-44.5 -1q-78 0 -118 34.5t-40 100.5q0 23 19 34t92 17q82 9 175 29t118 20q30 1 56 4 q4 1 5 1q19 0 53.5 -39t34.5 -62q0 -32 -50 -146t-124 -216q-92 -127 -188 -192.5t-189 -65.5q-44 0 -104 23q-14 5 -20 7q-18 6 -48 14q-49 13 -65 25q-49 36 -85 139t-36 220z" />
<glyph unicode="H" horiz-adv-x="991" d="M-41 63q0 3 5 24q25 98 48 218q6 37 59 267.5t122 502.5q9 39 24 112q51 240 143 240q69 0 96 -13.5t27 -49.5q0 -45 -33 -179q-5 -21 -8 -32q-47 -186 -67 -291q0 -10 11.5 -14t39.5 -4q36 0 89 8t69 8q5 0 13.5 -1t10.5 -1q30 0 43 66q11 51 21 90q21 82 40 188 q5 27 7 37q3 13 19 49.5t16 63.5v24q0 14 12.5 60.5t21.5 66.5q11 23 32.5 34t53.5 11q52 0 100 -26t48 -54q0 -9 -14 -73t-33 -133q-32 -114 -79.5 -354t-76.5 -358q-11 -46 -30 -128q-102 -430 -144 -430q-9 0 -39 4t-53 4q-11 0 -39.5 31t-28.5 51q0 59 23 154t27 118 q9 64 27 152.5t18 105.5q-1 9 -4 14t-7 5q-13 0 -52.5 -8.5t-59.5 -8.5h-35q-29 0 -90 -11l-6 -1q-12 -8 -63 -217l-5 -20q-27 -111 -54 -219t-28 -111q0 -4 -1 -11q-6 -63 -52 -63q-70 0 -117 35t-47 67z" />
<glyph unicode="I" horiz-adv-x="514" d="M-23 49q0 20 78 353t181 726q14 55 32 140q36 166 111 166q64 0 103.5 -21.5t39.5 -54.5q0 -6 -22 -93.5t-49 -181.5q-10 -32 -25.5 -108t-28.5 -119q-24 -79 -38 -148q-2 -10 -3 -12q-60 -311 -130 -574q-8 -29 -9 -34q-2 -9 -5 -26q-26 -119 -75 -119q-42 0 -101 42 t-59 64z" />
<glyph unicode="J" horiz-adv-x="756" d="M-113 160q0 111 23.5 166t71.5 55q83 0 118 -37t35 -125q0 -17 -6 -42t-6 -34q0 -12 5.5 -21t12.5 -9q43 0 102 164t152 548q30 122 69 315q66 318 128 318q72 0 115 -20t43 -56q0 -16 -20.5 -87.5t-33.5 -127.5q-2 -11 -9 -49q-57 -297 -130 -602q-74 -310 -173 -441.5 t-251 -131.5q-95 0 -170.5 65t-75.5 152z" />
<glyph unicode="K" horiz-adv-x="938" d="M-47 29q0 18 78.5 314t140.5 568q60 265 98.5 390.5t59.5 125.5q16 0 42.5 -5t37.5 -5q39 0 66.5 -14.5t27.5 -34.5q0 -27 -128 -580l-11 -49q215 288 409 504.5t219 216.5q13 0 65 -41.5t52 -66.5q0 -12 -88.5 -113.5t-165.5 -198.5q-77 -96 -191 -231 q-110 -131 -110 -145q0 -27 77 -195l21 -45q56 -122 93.5 -220.5t37.5 -117.5q0 -17 -55 -65t-74 -48q-34 0 -140.5 187t-188.5 426q-37 -131 -88 -329q-79 -310 -129 -310q-55 0 -105.5 31t-50.5 51z" />
<glyph unicode="L" horiz-adv-x="725" d="M-37 63q0 27 74 340.5t186 755.5q41 162 64 246q2 4 36 11t60 7q40 0 70 -23.5t30 -53.5q0 -22 -39.5 -207.5t-97.5 -427.5q-33 -140 -71.5 -293t-38.5 -160q0 -5 5.5 -6.5t30.5 -1.5q3 0 20 1q84 5 167 5q69 0 97 -33.5t28 -116.5q-1 -61 -102 -70q-12 -1 -17 -1 q-159 -16 -351 -68q-53 -14 -63 -14q-5 0 -14.5 15t-26.5 28l-3 2q-44 34 -44 65z" />
<glyph unicode="M" horiz-adv-x="1219" d="M-33 45q0 22 71.5 327t168.5 670q22 84 47 183.5t29 108.5q4 8 34 20t37 12q2 0 42 -10t79 -10h27q53 0 69.5 -13t16.5 -63q0 -159 -12 -383t-11 -291q67 167 131.5 311.5t110.5 233.5q33 64 79 159q73 152 124 152q57 0 127.5 -27t70.5 -47l-12 -46q-11 -46 -21 -100 q-22 -134 -57.5 -309t-79.5 -366q-19 -85 -49 -222q-73 -337 -121 -337h-14h-25q-42 0 -86.5 25t-44.5 51q0 8 92.5 355.5t165.5 700.5q-65 -128 -150.5 -332.5t-119.5 -273.5q-87 -182 -114 -237.5t-31 -62.5q-5 -9 -15 -13t-24 -4q-17 0 -65 27t-48 45q0 1 1 8q5 26 5 51 v47q0 79 7.5 248t7.5 260q0 30 -0.5 67t-1.5 78q-84 -329 -160 -708t-103 -379q-41 0 -93.5 12.5t-59.5 24.5q-7 11 -9 32q-1 7 -1 9q-1 2 -8 6.5t-7 9.5z" />
<glyph unicode="N" horiz-adv-x="1038" d="M-43 -10q0 23 50 254t118 489q16 60 62 239.5t77 295.5q5 16 11 44q15 66 49 66q19 0 69.5 -13t79.5 -28q15 -8 24.5 -40.5t18.5 -108.5q24 -206 65 -480t44 -337q59 363 160 800q8 35 12 52q7 31 18 82q35 159 105 159q63 0 99 -12.5t36 -34.5q0 -36 -74.5 -344 t-126.5 -557q-72 -341 -104.5 -435.5t-65.5 -94.5q-11 0 -37.5 7t-44.5 7h-18q-63 0 -104 176q-9 41 -15 66q-30 126 -60 319.5t-51 407.5q-46 -371 -131 -770q-9 -42 -12 -58v-1q-43 -210 -121 -210q-23 0 -47.5 18.5t-35.5 20.5q-5 1 -13 2q-37 6 -37 19z" />
<glyph unicode="O" horiz-adv-x="1042" d="M18 406q0 179 65.5 387t182.5 397q72 116 160 187t160 71q32 0 104 -26t123 -40q70 -18 126 -130t56 -253q0 -190 -60 -384.5t-175 -372.5q-98 -151 -193 -227t-186 -76q-38 0 -77.5 14t-41.5 14q-88 0 -166 131t-78 308zM254 352q0 -88 24 -156.5t54 -68.5t86 46 t102 114q37 55 74.5 135t75.5 188q42 119 62 211.5t20 169.5q0 126 -21 200.5t-55 74.5q-23 0 -98.5 -80.5t-139.5 -188.5q-81 -139 -132.5 -322t-51.5 -323z" />
<glyph unicode="P" horiz-adv-x="872" d="M-35 6q0 60 104 485.5t173 748.5q3 14 8 40q27 139 299 139q71 0 122 -16.5t95 -52.5q56 -48 93.5 -123t37.5 -135q0 -95 -61 -211t-164 -215q-68 -65 -163.5 -118t-191.5 -79q-24 -8 -29 -37t-12 -53q-23 -89 -39 -191q-4 -23 -6 -31q-10 -49 -28.5 -92.5t-18.5 -44.5 q0 -4 3 -11.5t3 -10.5q0 -24 -23.5 -48t-51.5 -24q-46 0 -98 28.5t-52 51.5zM356 717q1 -4 4 -5t11 -1q89 0 176.5 123t87.5 274q0 49 -23 68.5t-80 19.5q-39 0 -50 -1.5t-13 -4.5q-5 -5 -21 -57.5t-24 -104.5q-9 -59 -38.5 -168.5t-29.5 -142.5z" />
<glyph unicode="Q" horiz-adv-x="1042" d="M12 389q0 191 83 423.5t218 420.5q74 103 148.5 154t150.5 51q34 0 101.5 -32.5t77.5 -35.5q4 -1 17 -3q75 -12 118 -87q33 -59 50 -140.5t17 -181.5q0 -198 -87.5 -422.5t-241.5 -416.5q62 -81 109.5 -163t47.5 -97q0 -21 -31 -47.5t-47 -26.5q-6 0 -30 6t-41 6 q-14 0 -28 -1t-15 -1q-35 0 -150 182l-2 2q-30 -17 -63.5 -26.5t-61.5 -9.5q-18 0 -46.5 12.5t-40.5 15.5q-7 2 -18 4q-68 13 -118 68q-59 63 -88 149t-29 197zM244 332q0 -93 17 -149t44 -56q12 0 30.5 7t39.5 20q-8 28 -17.5 56t-9.5 30q0 16 30.5 31.5t53.5 15.5 q16 0 30 -4.5t28 -13.5q127 203 189 379t62 335q0 118 -23 188t-61 70q-27 0 -90 -62.5t-116 -150.5q-98 -157 -152.5 -341.5t-54.5 -354.5z" />
<glyph unicode="R" horiz-adv-x="981" d="M-29 27q0 96 147 683l11 44q2 7 6 27q51 236 133 499q5 14 10 34q11 41 29 52q19 11 36 23t19 12q7 0 41.5 -19.5t49.5 -19.5q1 0 13 5q102 44 255 44q77 0 146 -34t100 -87q23 -41 44 -113t21 -104q0 -79 -67.5 -173.5t-208.5 -211.5q-52 -43 -117.5 -79t-65.5 -44 q0 -4 41.5 -94.5t77.5 -173.5q42 -98 64 -159t22 -77q0 -21 -23 -36q-2 -2 -4 -3q-18 -11 -36 -39t-29 -28q-51 0 -87 34t-116 173q-52 90 -110.5 225t-71.5 135q-5 0 -26.5 -81t-69.5 -287q-25 -109 -42.5 -152t-35.5 -43q-2 0 -38 12.5t-75 22.5q-23 5 -33 12.5t-10 20.5z M346 729q0 -3 4.5 -5.5t9.5 -2.5q27 0 93.5 37.5t173.5 111.5q84 59 136 137t52 136q0 24 -15 37.5t-42 13.5q-18 0 -39.5 -1t-24.5 -1q-8 0 -23 1t-22 1q-36 0 -109 -26q-24 -9 -36 -13q-6 -2 -16 -5q-34 -11 -39 -35q-28 -116 -65.5 -243.5t-37.5 -142.5z" />
<glyph unicode="S" horiz-adv-x="895" d="M-86 266q0 19 11.5 44.5t11.5 33.5v12q0 19 14.5 31t36.5 12q28 0 55 -17t51 -50q6 -9 19 -27q103 -147 182 -147q56 0 93.5 51t37.5 129q0 57 -27 115t-102 151q-74 94 -101.5 156t-27.5 125q0 108 54 212t161 201q67 61 139 100.5t105 39.5q8 0 37.5 -10t74.5 -27 q14 -5 34.5 -32t32.5 -37q5 -4 12 -9q77 -58 77 -188q0 -110 -41.5 -197.5t-99.5 -87.5q-63 0 -103.5 44t-40.5 112q0 48 7.5 106t7.5 68q-1 5 -2 7t-5 3q-49 0 -125.5 -83t-76.5 -159q0 -78 108 -210q28 -35 43 -54q72 -93 105 -175.5t33 -166.5q0 -68 -26 -120.5 t-112 -135.5q-76 -75 -141 -108t-133 -33q-175 0 -264 109q-15 18 -21 22q-39 25 -66.5 85.5t-27.5 104.5z" />
<glyph unicode="T" horiz-adv-x="782" d="M121 51q0 40 74.5 363t185.5 747q-65 -8 -120 -14t-64 -6q-3 0 -4.5 2.5t-2.5 7.5l2 5q1 6 1 9q0 6 -13.5 22.5t-13.5 31.5q0 3 1 8t1 6q0 7 -4 19.5t-4 19.5q0 24 7 48t19 38q11 11 99 26q63 11 104 19q39 8 94.5 11t68.5 5q38 5 96.5 19t78.5 14q9 0 23 -3t18 -3 q8 0 24.5 6t24.5 6t19 -3t14 -3t9 1t9 1q11 0 31.5 -31.5t20.5 -46.5q0 -27 -29 -83.5t-45 -61.5q-48 -13 -129 -16.5t-88 -14.5l-8 -28q-73 -276 -158 -621q-35 -145 -92 -406l-4 -18q-8 -39 -20.5 -75.5t-12.5 -37.5t3 -7t3 -11q0 -15 -17.5 -26t-41.5 -11 q-74 0 -117 24.5t-43 67.5z" />
<glyph unicode="U" horiz-adv-x="1006" d="M23 270q0 68 44 277.5t113 429.5q30 95 67 235q47 174 77 174q60 0 120 -24.5t60 -48.5q0 -7 -43.5 -166t-100.5 -348q-48 -165 -75 -298.5t-27 -203.5q0 -71 19 -106t57 -35q150 0 286 539q15 58 23 89q39 154 82 376q50 257 102 257q62 0 121.5 -19.5t59.5 -41.5 l-21 -76q-21 -77 -41 -166q-7 -32 -51.5 -242t-83.5 -372q-37 -149 -80.5 -254t-89.5 -158q-55 -63 -136.5 -105t-146.5 -42q-43 0 -93 25l-3 1q-58 26 -99.5 47.5t-53.5 32.5q-42 37 -64 94.5t-22 128.5z" />
<glyph unicode="V" horiz-adv-x="883" d="M137 29q0 5 4 27.5t4 39.5q0 10 -3 30.5t-3 31.5q0 7 2 25.5t2 29.5v94q0 6 2 43q9 230 9 475v224q0 26 3 79.5t3 81.5q0 19 -4 45.5t-4 32.5q0 23 41.5 52.5t68.5 29.5q67 0 92 -70.5t25 -285.5q0 -132 -12.5 -292t-36.5 -331q95 274 308 692q27 53 40 78 q121 238 162.5 302.5t64.5 64.5q10 0 32 -15t50 -28q13 -6 26 -32t13 -36q0 -7 -156.5 -327.5t-304.5 -636.5l-5 -12q-229 -486 -261 -486q-12 0 -84 22q-22 7 -35 11q-22 6 -32.5 16t-10.5 25z" />
<glyph unicode="W" horiz-adv-x="1313" d="M43 147q0 102 76 574q33 205 51 323q2 13 5 34q34 219 56 268q2 3 34.5 14.5t41.5 11.5q64 0 97.5 -11.5t33.5 -33.5q0 -7 -15 -89q-84 -458 -144 -947q125 336 215 568.5t118 295.5q13 29 27 70q20 59 70 59q80 0 124 -13t44 -36q0 -25 -41.5 -306t-67.5 -546l67 155 q412 963 494 963q44 0 98 -38.5t54 -53.5q0 -2 -8 -13q-45 -59 -99 -165q-51 -100 -131.5 -272.5t-171.5 -378.5l-40 -92q-212 -482 -240 -482q-19 0 -58.5 24t-65.5 34q-45 17 -56 38t-11 88q0 60 19 242t59 506q-192 -532 -278.5 -749.5t-104.5 -217.5q-43 0 -132 34 q-52 19 -81 28q-9 0 -24 34.5t-15 79.5z" />
<glyph unicode="X" horiz-adv-x="848" d="M-121 55q74 115 194 296q191 285 191 335q0 52 -34.5 260t-34.5 346q0 50 12.5 72t40.5 22q11 0 21 -3t28 -13q19 -11 47 -15.5t37 -11.5q38 -27 62 -132.5t24 -252.5q0 -12 -0.5 -25.5t-1.5 -29.5q145 253 267 420.5t155 167.5q35 0 84 -48.5t49 -82.5q0 -8 -86 -125 t-162 -225q-95 -138 -157 -237.5t-62 -113.5q0 -16 7.5 -73t23.5 -154q11 -73 30 -179t19 -126q0 -8 1 -26t1 -27v-17q0 -15 -16 -39t-37 -24q-96 0 -119 11t-43 58q-28 69 -49 189.5t-33 120.5q-4 0 -57 -77.5t-125 -191.5q-22 -33 -50 -85q-43 -80 -81 -80q-51 0 -112 75 q-21 26 -34 41z" />
<glyph unicode="Y" horiz-adv-x="860" d="M113 41q0 14 23 111.5t57 205.5q4 14 11 37q32 98 32 123q0 44 -41 314t-41 481q0 6 17 37.5t26 31.5q1 0 4.5 -1t5.5 -1q4 0 11 3t9 3q7 0 17.5 -10t21.5 -10q3 0 8 1t7 1q25 0 41 -22t34 -95q54 -204 75 -369q5 -34 7 -34q9 0 113.5 163t210.5 310q16 22 43 60 q105 147 133 147q29 0 75 -36.5t46 -59.5q0 -24 -199.5 -318.5t-363.5 -581.5q-14 -23 -98 -311l-37 -126q-6 -18 -13 -48q-20 -84 -65 -84q-35 0 -102.5 27.5t-67.5 50.5z" />
<glyph unicode="Z" horiz-adv-x="831" d="M-131 139q0 39 168 245q103 127 168 210q84 108 216 274q204 256 204 273q0 4 -6 6t-19 2q-137 0 -259 7q-18 1 -22 1q-8 0 -21 -4t-17 -4q-15 0 -21 13.5t-6 58.5v57q0 28 11 56t22 30q35 8 107 14t147 6q135 0 260 -8q21 -2 24 -2q20 0 43 11.5t25 11.5q3 0 28 -26 t27 -35q5 -19 6 -41.5t3 -27.5q1 -3 8.5 -9t7.5 -11q0 -2 -107 -139.5t-258 -329.5q-218 -274 -310.5 -394.5t-92.5 -129.5q0 -4 110.5 -12t207.5 -17h6q71 -3 71 -90q0 -33 -19.5 -84t-33.5 -51q-5 0 -17.5 1t-21.5 1q-10 0 -43 -2t-55 -2q-36 0 -119 2t-131 2 q-30 0 -81.5 -1t-72.5 -1q-49 0 -74 -19q-7 -6 -12 -6q-16 0 -33.5 56t-17.5 108z" />
<glyph unicode="[" horiz-adv-x="649" d="M-57 -123q0 8 47 191q48 186 82 317q26 104 78 300q117 445 149 644q14 81 66 97t227 16q91 0 125.5 -15t34.5 -55q0 -4 -1 -13.5t-1 -15.5q0 -9 4 -29.5t4 -29.5q0 -30 -45.5 -39.5t-192.5 -9.5q-33 0 -96 -261q-36 -148 -62 -245l-22 -87q-166 -639 -166 -720 q0 -9 10.5 -13.5t32.5 -4.5q7 0 47 2t74 2q28 0 36.5 -36t35.5 -36q15 0 21.5 -2.5t6.5 -7.5q0 -60 -33 -83.5t-131 -23.5q-48 0 -116.5 -10t-89.5 -10q-43 0 -70 63q-5 12 -8 19q-9 18 -28 50.5t-19 45.5z" />
<glyph unicode="\" horiz-adv-x="711" d="M74 1376q0 9 18 33.5t21 24.5l42 19.5t70 19.5q32 0 43 -59q4 -21 6 -31q1 -3 3 -10q54 -186 110 -501q66 -363 117 -666t51 -315t-29.5 -42.5t-60.5 -30.5q-8 0 -17.5 5t-15.5 5h-12q-45 0 -71 238q-24 219 -50 368q-55 311 -104 540t-72 292q-15 39 -32 74t-17 36z" />
<glyph unicode="]" horiz-adv-x="649" d="M-186 -131q0 8 26.5 26.5t32.5 18.5q2 0 12.5 -2t20.5 -2q16 0 56 5t65 5h24q8 0 12 3t9 14q8 21 39.5 125.5t70.5 242.5q89 315 155 589t66 296q0 12 -10.5 17t-38.5 5q-22 0 -54 4.5t-44 4.5h-27q-41 0 -55 12.5t-14 42.5q0 64 30 101.5t70 37.5q13 0 29 -1t18 -1 q12 0 88 8.5t142 8.5q30 0 69 -52.5t39 -87.5q0 -24 -45.5 -175.5t-75.5 -264.5q-83 -317 -164 -628q-16 -62 -18 -70q-32 -110 -62 -259q-34 -167 -94 -167q-4 0 -26.5 1t-38.5 1q-75 0 -155 -3.5t-85 -3.5q-41 0 -54 35t-13 113z" />
<glyph unicode="^" horiz-adv-x="2048" d="M418 899l497 561h218l495 -561h-207l-397 397l-399 -397h-207z" />
<glyph unicode="_" d="M0 -311h1024v-172h-1024v172z" />
<glyph unicode="`" d="M428 1157q0 29 62.5 78t89.5 49q15 0 83 -51q53 -39 89 -64q11 -7 39 -18q57 -23 57 -53q0 -19 -47 -56.5t-64 -37.5q-4 0 -68.5 26.5t-150.5 65.5q-9 4 -29 10q-61 19 -61 51z" />
<glyph unicode="a" horiz-adv-x="664" d="M-59 178q0 27 25.5 81.5t53.5 78.5q60 50 143 89.5t118 39.5q9 0 22.5 -1t18.5 -1q13 0 19.5 8t12.5 33q17 63 31 124.5t14 65.5q0 9 -4.5 17t-9.5 8q-14 0 -62 -56q-34 -39 -55 -61q-27 -27 -61 -67q-45 -52 -68 -52q-21 0 -59.5 21.5t-38.5 44.5q0 20 47.5 94 t108.5 139q65 71 107 102.5t71 31.5q18 0 47.5 -23t44.5 -31q8 -4 24 -11q97 -43 97 -134q0 -40 -30.5 -175.5t-96.5 -387.5q-10 -37 -21 -93q-22 -110 -86 -110q-42 0 -64 15t-37 52q-57 -20 -95.5 -29t-65.5 -9q-55 0 -100 46t-45 91v16q0 9 -3 23.5t-3 19.5zM90 186 q0 -15 8.5 -21.5t28.5 -6.5q103 0 137.5 25.5t34.5 95.5q0 9 -5 14.5t-13 5.5q-49 0 -120 -42t-71 -71z" />
<glyph unicode="b" horiz-adv-x="750" d="M-27 51q0 51 80.5 405.5t194.5 745.5q18 60 37 138q23 98 71 98q5 0 16.5 -1t16.5 -1h27q26 0 53 -19t27 -39q0 -7 -19.5 -85.5t-48.5 -182.5q-34 -124 -67 -231.5t-33 -108.5q0 -4 2 -7t4 -3t15 18q78 107 140 107q83 0 136 -48t53 -126q0 -136 -51.5 -303t-130.5 -283 q-56 -81 -119 -125.5t-121 -44.5q-55 0 -111.5 24.5t-74.5 24.5q-8 0 -25.5 -7t-28.5 -7q-22 0 -32.5 14.5t-10.5 46.5zM186 145q0 -19 9.5 -26.5t31.5 -7.5q31 0 65.5 46.5t76.5 145.5q52 126 85 247.5t33 158.5q0 5 -4.5 9.5t-9.5 4.5q-17 0 -73 -79.5t-128 -209.5 q-20 -36 -30 -83q-3 -12 -5 -18q-9 -35 -27 -91q-24 -77 -24 -97z" />
<glyph unicode="c" horiz-adv-x="664" d="M-27 170q0 116 51 267.5t136 283.5q59 95 108.5 149t75.5 54t81.5 -17.5t84.5 -23.5q40 -9 74 -34.5t34 -49.5q0 -37 -17.5 -120t-37.5 -130q-9 -24 -39.5 -44t-50.5 -20q-5 0 -18 7.5t-23 7.5h-8q-19 0 -30 19t-11 52q0 35 14.5 81.5t14.5 58.5q-1 11 -4 14.5t-11 3.5 q-25 0 -68 -94q-27 -60 -46 -98q-50 -98 -86.5 -222.5t-36.5 -160.5q0 -16 6 -27.5t14 -11.5q32 0 98 67q23 24 35 35q29 26 70.5 97t69.5 71q24 0 58 -36.5t34 -61.5q0 -14 -33.5 -78.5t-71.5 -108.5q-56 -66 -115.5 -105.5t-101.5 -39.5q-33 0 -64 13t-89 57 q-68 50 -82.5 75.5t-14.5 69.5z" />
<glyph unicode="d" horiz-adv-x="735" d="M-41 164q0 109 58 258.5t163 306.5q44 64 102.5 110t77.5 46q1 0 42.5 -10.5t80.5 -10.5q23 0 39 77q7 35 13 57q27 106 59 254q41 188 84 188q15 0 51 -12.5t55 -18.5q23 -6 31 -15t8 -26q0 -19 -82 -357q-57 -233 -94 -384q-102 -422 -149 -635q0 -4 1 -11.5t1 -11.5 q0 -22 -18 -38.5t-44 -16.5q-15 0 -35 8t-57 29q-23 13 -28 28t-5 52q0 7 5.5 22t5.5 21q-1 3 -5 4.5t-12 1.5q-3 0 -62 -54.5t-116 -54.5q-52 0 -111 60t-59 133zM135 158q1 -9 6 -13.5t15 -5.5q17 0 70.5 57.5t103.5 137.5l2 4q45 74 63 137q13 48 34 121q24 85 24 94 q0 13 -7 21t-18 8q-27 0 -61 -44t-82 -140q-66 -129 -108 -241.5t-42 -135.5z" />
<glyph unicode="e" horiz-adv-x="694" d="M-29 182q0 118 64 283.5t176 329.5q49 70 86 96.5t82 26.5q23 0 64.5 -11t97.5 -33q37 -13 56 -55t19 -108q0 -113 -40 -256q-6 -23 -9 -34q-7 -25 -51 -27q-36 -1 -61 -5q-114 -17 -174.5 -29.5t-75.5 -21.5q-18 -10 -34.5 -66t-16.5 -100q0 -15 11 -26t28 -11 q27 0 82.5 36t117.5 95q12 12 30 32q42 44 58 44q31 0 55.5 -22t24.5 -52q0 -7 -8 -16.5t-8 -18.5v-12q0 -12 -43 -69t-92 -99q-74 -64 -116 -84t-91 -20q-30 0 -63 18.5t-50 24.5q-20 7 -69 70q-7 9 -11 14q-3 4 -9 10q-30 31 -30 96zM266 522q0 -3 3.5 -5.5t6.5 -2.5 q5 0 60.5 13t67.5 18q6 2 17 58t11 104q0 26 -6.5 39.5t-19.5 13.5q-9 0 -23 -18.5t-37 -61.5l-10 -20q-70 -130 -70 -138z" />
<glyph unicode="f" horiz-adv-x="530" d="M12 -8q0 23 25 130.5t39 184.5q15 85 45.5 194t30.5 130q0 8 -47.5 10t-47.5 16q0 13 3 35t3 33q0 5 -2 15.5t-2 17.5q0 23 14 35t42 14q5 0 14 1q72 3 78 38q20 117 68 239t106 203q63 89 95 117.5t63 28.5q9 0 44.5 -9.5t73.5 -23.5q41 -14 69 -47.5t28 -69.5 q0 -35 -19.5 -107.5t-23.5 -97.5q-9 -51 -36.5 -70.5t-99.5 -19.5q-18 0 -29 18.5t-11 49.5q0 42 15 96t15 66q0 11 -3.5 15.5t-10.5 4.5q-14 0 -26.5 -19.5t-32.5 -78.5q-33 -96 -57.5 -186.5t-24.5 -100.5q0 -7 5 -11.5t13 -4.5q15 0 41.5 4t38.5 4q35 0 46 -5t11 -20 q0 -2 -10.5 -40t-20.5 -73q-6 -25 -13.5 -33.5t-20.5 -8.5q-4 0 -20 2t-27 2q-85 0 -92 -31q0 -1 -1 -3q-7 -30 -30 -129.5t-37 -152.5q-23 -91 -51 -221q-40 -184 -86 -184q-34 0 -89 15.5t-55 27.5z" />
<glyph unicode="g" horiz-adv-x="717" d="M-121 -276q0 35 14 61.5t33 26.5q2 -1 4 -1.5t4 -0.5q7 0 22 9t26 9q18 0 28 -21.5t16 -27.5q31 -28 65.5 -49t47.5 -21q64 0 92 86l2 6q27 82 45.5 172.5t18.5 110.5q0 2 -2 4t-4 2t-21 -17q-93 -87 -143 -87q-51 0 -107.5 57.5t-56.5 114.5q0 59 35.5 174t95.5 241 q84 174 159.5 256t152.5 82q51 0 88 -40t55 -40q4 0 13.5 1.5t15.5 1.5q28 0 62 -25t34 -57v-21q0 -1 -5 -11q-40 -75 -79 -214q-63 -222 -120 -560q-9 -51 -13 -75q-28 -164 -137 -273.5t-214 -109.5q-22 0 -53.5 19.5t-66.5 54.5q-52 50 -79.5 91.5t-27.5 70.5zM143 178 q0 -9 3.5 -15.5t9.5 -6.5q12 0 90 82.5t108 144.5q3 5 8.5 39t14.5 63q13 47 34 116q23 77 23 89q0 11 -2 13.5t-12 3.5q-21 0 -39.5 -19t-56.5 -88q-75 -130 -128 -262.5t-53 -159.5z" />
<glyph unicode="h" horiz-adv-x="743" d="M-23 70q0 51 137 635q57 244 91 389q6 26 16 73q63 279 121 279t91.5 -14t33.5 -37q0 -38 -31.5 -162.5t-46.5 -194.5q-19 -91 -44.5 -176t-25.5 -88q1 -4 3 -5t6 -1q5 0 24 24q67 82 125 82q21 0 53.5 -12.5t77.5 -38.5q27 -14 41.5 -45.5t14.5 -75.5q0 -72 -75 -355 q-27 -102 -42 -160q-7 -30 -29.5 -87t-27.5 -93q-5 -27 -33 -50t-49 -23q-52 0 -81.5 19.5t-29.5 52.5q0 19 66 271l30 118q24 93 41 171.5t17 88.5q-1 8 -2.5 10t-8.5 3q-25 0 -99.5 -114.5t-123.5 -268.5q-23 -73 -47 -175q-29 -122 -78 -122q-39 0 -77 25t-38 57z" />
<glyph unicode="i" horiz-adv-x="426" d="M-25 25q0 15 11.5 83t29.5 148q43 187 80.5 340.5t46.5 187.5q5 16 13 43q23 82 73 82q70 0 109 -19t39 -52q0 -7 -50.5 -201t-93.5 -361q-15 -62 -34 -157q-33 -162 -101 -162q-54 0 -88.5 18t-34.5 50zM219 1122q0 12 8.5 32t8.5 30q0 43 40 89t99 46q32 0 57 -28 t25 -44q0 -3 -1 -13.5t-1 -16.5q0 -8 3 -21.5t3 -17.5q0 -58 -41.5 -109t-73.5 -51q-69 0 -98 23.5t-29 80.5z" />
<glyph unicode="j" horiz-adv-x="426" d="M-279 -406q0 48 25.5 84.5t48.5 36.5q16 0 41.5 -18.5t30.5 -18.5q18 0 42 80.5t87 378.5q44 207 103 417.5t59 217.5q0 9 -1 18.5t-1 10.5q0 6 8 20.5t8 26.5v10q0 20 12.5 40t26.5 20q5 0 19 -5.5t24 -5.5q5 0 15.5 1t17.5 1q21 0 57.5 -20t36.5 -27q0 -3 -26.5 -92.5 t-47.5 -175.5q-54 -229 -98.5 -425.5t-54.5 -248.5q-45 -232 -100.5 -340t-127.5 -108q-9 0 -21 2t-14 2q-5 0 -15 -2t-15 -2t-15.5 3t-15.5 3q-2 0 -6 -1t-6 -1q-12 0 -54.5 42.5t-42.5 75.5zM207 1145q0 16 16.5 47t20.5 45q7 30 38.5 51t67.5 21q54 0 87.5 -31t33.5 -78 q0 -81 -46 -129.5t-120 -48.5q-18 0 -33 13.5t-26 39.5q-13 32 -26 50t-13 20z" />
<glyph unicode="k" horiz-adv-x="696" d="M-27 25q0 27 49 249.5t138 599.5q37 160 68 284t44 173q3 8 7 22q23 85 71 85q39 0 87 -25.5t48 -50.5q0 -8 -34.5 -132.5t-61.5 -234.5q-38 -153 -77.5 -298t-39.5 -148q1 -5 4 -8.5t7 -3.5q3 0 70 84q60 75 102 127q32 39 82 101q89 109 98 109q15 0 56.5 -34.5 t41.5 -40.5q0 -29 -46 -105t-142 -205q-21 -27 -59 -73q-54 -65 -54 -78q0 -3 7 -22q31 -83 53 -179q8 -36 29.5 -83.5t21.5 -67.5q0 -25 -9.5 -39t-28.5 -19q-13 -4 -35 -24.5t-38 -20.5q-20 0 -41 25t-74 121q-27 51 -50.5 125.5t-33.5 74.5t-26 -54t-27 -133 q-3 -19 -8 -54q-15 -111 -51 -111q-75 0 -111.5 15.5t-36.5 48.5z" />
<glyph unicode="l" horiz-adv-x="426" d="M-12 31q0 36 57.5 316t140.5 614q25 99 59 244q56 241 95 241q71 0 117.5 -21.5t46.5 -52.5q0 -3 -75 -273.5t-134 -547.5q-19 -89 -49 -230q-47 -222 -51 -247q-14 -76 -33 -97.5t-53 -21.5q-42 0 -81.5 22.5t-39.5 53.5z" />
<glyph unicode="m" horiz-adv-x="1081" d="M-43 41q0 14 46.5 199.5t84.5 359.5q14 65 31 160q28 164 112 164q35 0 60.5 -9.5t25.5 -21.5q0 -9 -16 -58.5t-16 -64.5q0 -3 2.5 -4.5t7.5 -1.5q2 0 18 18q101 113 170 113q79 0 134 -99q6 -11 8 -12q6 0 21 22q76 107 226 107q75 0 110.5 -29t35.5 -91 q0 -102 -143 -575l-1 -3q-11 -38 -28 -98q-41 -146 -117 -146h-4q-22 0 -57 21t-35 41q0 7 35.5 136t64.5 243q8 30 23 85q49 181 49 232q0 4 -3.5 6t-13.5 2t-47.5 -47.5t-68.5 -105.5q-44 -83 -92 -242q-14 -46 -21 -68q-20 -65 -44 -150q-31 -112 -79 -112 q-20 0 -41.5 10.5t-32.5 10.5q-21 0 -34 6.5t-13 17.5q0 37 12 92t48 179q36 125 59 222.5t23 121.5q0 12 -3.5 21t-9.5 9q-38 0 -114.5 -124.5t-116.5 -293.5q-12 -48 -29 -128q-41 -193 -84 -193q-40 0 -73 9.5t-33 23.5v8q0 11 -18.5 15.5t-18.5 21.5z" />
<glyph unicode="n" horiz-adv-x="768" d="M-29 41q0 20 30 177t71 319q15 64 36 158q37 169 89 169q51 0 77.5 -12.5t26.5 -36.5q0 -16 -8 -40t-8 -32q0 -1 2 -2.5t4 -1.5q10 0 72 92.5t141 92.5q89 0 141.5 -37t52.5 -101q0 -63 -26 -181.5t-117 -442.5q-6 -21 -13 -57q-20 -97 -61 -97q-69 0 -111 23t-42 55 q0 17 22 111.5t53 195.5q31 97 53.5 201t22.5 121q0 16 -1 19t-5 3q-9 0 -37.5 -27t-58.5 -67q-91 -124 -145 -349l-9 -36q-14 -59 -31 -147q-30 -148 -79 -148q-62 0 -102 21.5t-40 56.5z" />
<glyph unicode="o" horiz-adv-x="707" d="M-16 193q0 115 40 264t95 241q12 21 34 59q107 187 183 187q24 0 53 -13.5t32 -14.5q16 -6 49 -12.5t50 -14.5q55 -25 81 -86.5t26 -169.5q0 -158 -62 -317.5t-172 -280.5q-34 -39 -73 -60.5t-72 -21.5q-43 0 -136 51q-22 12 -34 19q-54 28 -74 65.5t-20 104.5zM186 219 q0 -55 6 -74.5t21 -19.5q42 0 117.5 180t75.5 354q0 35 -7 55.5t-18 20.5t-29.5 -31t-68.5 -139q-47 -102 -72 -192.5t-25 -153.5z" />
<glyph unicode="p" horiz-adv-x="735" d="M-137 -420q0 12 73 322t134 618q-18 22 -26.5 37t-8.5 27q0 18 53 80q17 21 27 33q7 31 20 88q57 255 105 255q56 0 96.5 -30.5t40.5 -61.5q0 -4 -6.5 -28t-9.5 -43l3 2q49 32 68 32q18 0 76 -15t90 -32q39 -19 64.5 -70t25.5 -110q0 -83 -51.5 -208t-138.5 -245 q-92 -126 -153.5 -190t-92.5 -64q-17 0 -36.5 9t-41.5 26q-28 -106 -64 -269q-56 -255 -108 -255q-36 0 -87.5 28.5t-51.5 63.5zM203 160q126 146 200 293.5t74 244.5q0 36 -10 55t-29 19q-22 0 -67.5 -33.5t-52.5 -53.5q-2 -5 -38.5 -178t-76.5 -347z" />
<glyph unicode="q" horiz-adv-x="725" d="M-31 162q0 120 56.5 274t154.5 293q58 82 111.5 131t83.5 49q45 0 99 -17.5l54 -17.5q1 0 21.5 9.5t36.5 9.5q23 0 67.5 -28.5t44.5 -39.5q0 -10 -41.5 -146t-74.5 -259q-69 -255 -98.5 -384t-45.5 -235q0 -3 -7 -26q-27 -90 -42 -171q-2 -11 -5 -30q-15 -84 -87 -84 q-67 0 -95 20.5t-28 75.5q12 62 35 152q41 174 61 266q0 3 -0.5 3.5t-1.5 0.5l-32.5 -18.5t-71.5 -18.5q-14 0 -51.5 14t-74.5 34q-25 12 -47 56t-22 87zM166 172q0 -25 4 -40t10 -15q22 0 80 60.5t86 141.5q17 51 38 142q9 36 13 53q20 75 34.5 138.5t14.5 68.5 q0 6 -6.5 10t-17.5 4q-17 0 -53.5 -52t-85.5 -148q-51 -101 -84 -208t-33 -155z" />
<glyph unicode="r" horiz-adv-x="530" d="M-33 63q0 9 39 170.5t92 362.5q16 60 34 144q25 118 65 118q84 0 106 -44q5 -9 8 -9t36.5 53t82.5 53q65 0 94 -20t29 -66q0 -81 -57.5 -177.5t-79.5 -96.5q-18 0 -39 24t-21 52l1 11q1 12 1 24q0 14 -3 20t-11 6q-14 0 -56 -143t-93 -368q-4 -17 -11 -48 q-38 -172 -100 -172q-75 0 -96 15.5t-21 90.5z" />
<glyph unicode="s" horiz-adv-x="618" d="M-80 121q0 22 16.5 44t16.5 30q0 16 16.5 24t50.5 8q26 0 83 -48t75 -48t43 24t25 42q0 21 -18 48.5t-59 68.5q-5 5 -15 14q-97 92 -97 217q0 74 32 138t104 130q52 48 115 81.5t83 33.5q66 0 129.5 -52t63.5 -96q0 -106 -33 -189t-76 -83q-8 0 -23 3t-22 3 q-5 0 -15.5 -1t-15.5 -1q-23 0 -31 6.5t-8 28.5q0 47 15.5 107.5t15.5 68.5t-4.5 14t-9.5 6q-26 0 -74.5 -57.5t-48.5 -110.5q0 -31 25.5 -72t80.5 -97q7 -7 19 -20q78 -78 78 -161q0 -100 -106 -189t-199 -89q-69 0 -150.5 62.5t-81.5 111.5z" />
<glyph unicode="t" horiz-adv-x="516" d="M18 25q0 13 18.5 95.5t47.5 203.5l32 127q42 169 42 176q-1 3 -6 5.5t-11 2.5h-14q-8 0 -17 3t-10 3q-2 0 -9.5 -2t-10.5 -2q-16 0 -26.5 16.5t-10.5 42.5q0 4 1 13t1 14q0 6 -2 17t-2 16q0 24 16 37.5t45 13.5q40 0 68 4t33 10q9 12 30.5 106t38.5 158q6 22 13 59 q16 81 67 81q77 0 115.5 -21.5t38.5 -64.5q0 -9 -14.5 -47.5t-22.5 -67.5q-2 -8 -5 -23q-8 -36 -15 -56q-13 -33 -21 -61t-8 -36q0 -5 2 -7.5t6 -2.5q9 0 22 1t17 1q1 0 6.5 -1t11.5 -1q2 0 15 1t22 1q10 0 17.5 -5t7.5 -12q0 -16 -11 -55.5t-12 -67.5q-1 -16 -13 -28 t-22 -13q-1 0 -8.5 3.5t-13.5 3.5q-28 0 -61.5 -7t-40.5 -14q-4 -4 -18.5 -58.5t-25.5 -118.5q-5 -36 -25 -105q-8 -28 -11 -41q-6 -26 -21.5 -101.5t-27.5 -119.5q-6 -21 -14 -55q-23 -95 -54 -95q-44 0 -97 22.5t-53 51.5z" />
<glyph unicode="u" horiz-adv-x="729" d="M-6 207q0 14 16 93.5t41 182.5q16 65 49.5 168t42.5 137q1 2 1 4q22 89 87 89q37 0 80 -21.5t43 -50.5q0 -12 -42.5 -149.5t-75.5 -258.5q-24 -83 -35 -138.5t-11 -94.5q1 -13 1.5 -15.5t3.5 -2.5q14 0 47.5 33.5t70.5 88.5q36 52 65 167q13 52 21 79q36 117 63 210.5 t28 99.5q2 12 5 35q8 63 56 63q46 0 93.5 -25t47.5 -51q0 -1 -52 -210.5t-103 -440.5q-40 -181 -56 -220.5t-37 -39.5q-39 0 -79.5 23t-40.5 54q0 12 7 28t7 19t-2.5 6.5t-5.5 4.5q-3 0 -24 -20q-87 -83 -136 -83q-32 0 -75.5 23.5t-67.5 54.5q-17 21 -25 60t-8 98z" />
<glyph unicode="v" horiz-adv-x="645" d="M35 158q0 40 6 92t6 61q0 6 1 19q5 221 28 414q3 28 8 75q9 92 45 92q63 0 106.5 -21.5t43.5 -51.5q0 -48 -17 -220.5t-45 -377.5q73 162 177 408q154 368 212 368q23 0 58.5 -33t35.5 -72q0 -47 -120.5 -280.5t-196.5 -397.5q-27 -57 -62 -144q-57 -142 -122 -142 q-20 0 -50 24q-9 7 -13 10q-6 4 -28 7t-34 8q-24 10 -31.5 41t-7.5 121z" />
<glyph unicode="w" horiz-adv-x="948" d="M23 74q0 41 6 117.5t16 148.5q1 5 9.5 113t23.5 211q4 27 9 79q17 164 56 164q3 0 8.5 -1t8.5 -1q6 0 17.5 4t15.5 4t37.5 -8t47.5 -14q13 -6 18 -14t5 -25q0 -22 -17.5 -132.5t-86.5 -514.5q109 308 184 481.5t98 173.5q4 0 12 -5t15 -5q4 0 12 4t12 4q8 0 38 -17 t30 -28q0 -5 -7 -57q-32 -257 -56 -527q69 208 142.5 391.5t108.5 249.5q22 42 46 94q24 54 49 54q44 0 88.5 -28t44.5 -58q0 -15 -106.5 -239t-192.5 -417q-22 -48 -56 -128q-81 -189 -129 -189q-6 0 -21.5 8t-25.5 8q-4 0 -11.5 -1t-8.5 -1q-36 0 -53 24t-17 75 q0 113 31 357q13 100 18 153q-36 -106 -91 -276q-112 -345 -158 -345q-12 0 -52.5 10t-68.5 23q-15 7 -32 37t-17 43z" />
<glyph unicode="x" horiz-adv-x="606" d="M-133 27q0 21 40 82q22 33 34 53q50 81 122 178t72 129q0 12 -17.5 79t-21.5 124q-4 74 -16 136q-2 11 -2 13q0 31 51 59.5t92 28.5q43 0 56 -89q1 -6 2 -9q15 -100 23 -130t20 -30q49 62 133 178q41 58 77 93.5t52 35.5q19 0 62.5 -41t43.5 -57q0 -11 -73 -98.5 t-125 -158.5q-18 -25 -48 -65q-73 -98 -73 -112q0 -2 3 -10t3 -15q0 -2 -1 -8t-1 -10q0 -1 44 -129.5t44 -228.5q0 -17 -17 -32.5t-36 -15.5q-4 0 -15 3.5t-16 3.5q-6 0 -16.5 -5.5t-16.5 -5.5q-32 0 -57 28t-49 95q-10 26 -22 63q-14 44 -23 44q-5 0 -44.5 -56t-109.5 -161 q-18 -29 -39.5 -56.5t-24.5 -27.5q-5 0 -13 1t-9 1q-2 0 -7 -1t-7 -1q-35 0 -54.5 33t-19.5 92z" />
<glyph unicode="y" horiz-adv-x="657" d="M-88 -430q0 11 25 82.5t57 138.5q78 164 115 248q0 11 -21.5 23.5t-30.5 25.5q-9 15 -14.5 61.5t-5.5 110.5q0 199 45 470q9 53 12 74q1 6 2 19q5 66 33 66q71 0 106 -22t35 -66q0 -6 -3 -32t-3 -44q0 -8 1 -20t1 -17q0 -53 -15 -143t-15 -111v-20q0 -22 -4.5 -53 t-4.5 -42q0 -10 2 -16t4 -6q9 0 57 121t101 231q34 70 79 184q57 142 85 142q21 0 86.5 -30t65.5 -54q0 -12 -36.5 -101.5t-86.5 -185.5q-65 -124 -134.5 -272.5t-121.5 -276.5q-60 -146 -150 -337q-27 -56 -37 -78q-17 -38 -38 -91q-30 -75 -56 -75q-29 0 -82 33.5 t-53 62.5z" />
<glyph unicode="z" horiz-adv-x="633" d="M-96 119q0 52 91 141q52 50 79 82q103 122 215 233t112 115t-7.5 8t-16.5 4q-19 0 -48.5 -4t-41.5 -4q-6 0 -18.5 1t-18.5 1q-43 0 -68 -19.5t-32 -19.5q-20 0 -27.5 22.5t-7.5 76.5q0 65 18 93t72 28h28q13 0 129 12t207 12q34 0 65.5 -54t31.5 -93q0 -8 -92.5 -115.5 t-213.5 -230.5q-46 -49 -115 -118q-77 -78 -77 -83q0 -6 11 -9t34 -3h29q20 0 48.5 -3.5t35.5 -3.5h22q9 0 37.5 -15.5t28.5 -27.5q0 -9 -2 -21.5t-2 -17.5q0 -9 5 -27t5 -26q0 -32 -11.5 -45.5t-50.5 -13.5q-8 0 -24.5 1t-24.5 1q-6 0 -37.5 -3t-56.5 -3q-15 0 -46.5 5 t-47.5 5q-8 0 -23.5 -1t-23.5 -1q-11 0 -38 4t-42 4q-7 0 -19.5 -6t-19.5 -6q-11 0 -21 11.5t-10 25.5q0 15 -10 42.5t-10 45.5z" />
<glyph unicode="{" d="M162 442v179q7 0 21.5 -1.5t21.5 -1.5q126 0 178.5 59t52.5 202v247q0 145 23 206.5t80 94.5q44 27 109 38.5t181 11.5h45v-179q-8 0 -24 1t-23 1q-109 0 -147.5 -41.5t-38.5 -173.5v-241q0 -155 -44 -220.5t-159 -93.5q114 -27 158.5 -92.5t44.5 -220.5v-240 q0 -132 39.5 -174.5t148.5 -42.5q7 0 22 1t23 1v-176h-63q-102 0 -165.5 12t-106.5 37q-57 34 -80 96t-23 203v248q0 144 -52.5 203t-178.5 59q-7 0 -21.5 -1t-21.5 -1z" />
<glyph unicode="|" d="M424 -483v2048h178v-2048h-178z" />
<glyph unicode="}" d="M152 -238q8 0 23 -1t22 -1q109 0 147.5 42t38.5 175v240q0 153 45 219t160 94q-115 28 -160 93.5t-45 220.5v241q0 132 -38 173.5t-146 41.5q-7 0 -23 -1t-24 -1v179h45q115 0 179.5 -11.5t108.5 -38.5q57 -33 80 -95t23 -206v-247q0 -144 52 -202.5t179 -58.5 q6 0 21 1.5t22 1.5v-179q-7 0 -21.5 1t-21.5 1q-126 0 -178.5 -59t-52.5 -203v-248q0 -143 -23 -204t-80 -95q-43 -26 -108 -37.5t-180 -11.5h-45v176z" />
<glyph unicode="~" horiz-adv-x="1706" d="M178 434v187q106 72 202 107.5t185 35.5q62 0 125.5 -12t168.5 -48q13 -4 42 -15q164 -58 250 -58q85 0 177 37t202 116v-184q-103 -71 -197.5 -106t-183.5 -35q-44 0 -92.5 8.5t-98.5 26.5q-25 8 -76 26q-212 74 -319 74q-82 0 -174 -38t-211 -122z" />
<glyph unicode="&#xa1;" horiz-adv-x="612" d="M-33 35q0 13 14 33.5t21 40.5q12 34 36 87q8 18 11 25q24 57 67 202t64 212q14 43 42 125q60 179 79 258q6 29 24 38t56 9q8 0 15 -6.5t19 -7.5q28 -2 37.5 -12.5t10.5 -39.5q0 -62 -44 -271.5t-116 -475.5q-43 -162 -67 -225.5t-41 -63.5q-10 0 -16.5 -5t-8.5 -5 q-4 0 -8 4l-4 4q-2 0 -8 -4t-11 -4q-51 0 -111.5 25.5t-60.5 56.5zM297 1208q0 2 1 13t1 20q0 4 -1 13.5t-1 15.5q0 47 57 109.5t90 62.5q7 0 18 -2t17 -2h19q36 0 71 -41.5t35 -71.5q0 -65 -66 -139t-114 -74q-31 0 -79 39t-48 57z" />
<glyph unicode="&#xa2;" horiz-adv-x="758" d="M35 346q0 124 78.5 311t197.5 334q97 120 157 132q11 2 17 3q15 4 24 46q8 39 17 69q13 47 44.5 67.5t86.5 20.5q19 0 28 -8.5t9 -26.5q0 -23 -26.5 -103.5t-26.5 -111.5q0 -4 46 -26t46 -58q0 -67 -23 -144q-6 -20 -7 -27q-15 -83 -44 -125t-71 -42q-8 0 -23.5 9.5 t-23.5 9.5q-2 0 -6.5 -1t-8.5 -1q-16 0 -28.5 22.5t-12.5 53.5q0 43 14.5 102t14.5 63q0 2 -1.5 3.5t-2.5 1.5q-14 0 -26 -21q-3 -5 -5 -8q-16 -30 -47 -73t-41 -62q-71 -141 -112 -259.5t-41 -179.5q0 -24 5.5 -37.5t16.5 -13.5q30 0 88 56q35 33 58 51q26 21 76 100.5 t79 79.5q30 0 65.5 -41t35.5 -66q0 -41 -89.5 -158.5t-185.5 -168.5q-10 -6 -19.5 -32.5t-25.5 -90.5q-4 -18 -10 -51q-12 -64 -35 -64q-28 0 -77.5 26.5t-49.5 55.5q0 15 9 49t11 55q6 36 14 44q1 1 1 2q0 13 -30 33q-24 15 -40 28q-4 3 -11 9q-89 70 -89 163z" />
<glyph unicode="&#xa3;" horiz-adv-x="977" d="M-41 80q0 96 128 128q33 8 48 13q42 14 70 37t49 61q16 31 29.5 95t13.5 88q0 2 -2 3t-10 1q-18 0 -52.5 -2t-52.5 -2q-2 0 -8 1q-30 5 -59 5q-3 0 -19 10t-16 12q0 3 1 6.5t1 4.5q0 6 -12.5 24.5t-12.5 34.5q0 24 26.5 43t41.5 19q31 0 78 10q13 3 19 4t13.5 1.5 t22.5 0.5h12q12 0 22 1.5t17 4.5q13 6 15 43q2 31 6 49q18 90 52 159t105 150q66 75 156.5 131t130.5 56q10 0 51 -19.5t80 -31.5q39 -13 57.5 -42.5t18.5 -78.5q0 -136 -33 -198t-106 -62q-49 0 -75 37.5t-26 107.5q0 19 5.5 42.5t5.5 29.5q-1 5 -2.5 7.5t-4.5 2.5 q-18 0 -51.5 -36.5t-81.5 -108.5q-32 -52 -56 -122t-24 -93q1 -7 2 -9.5t5 -3.5q3 0 13.5 2t16.5 2q172 0 224.5 -17t52.5 -81q0 -10 2 -25t2 -22q0 -34 -57.5 -46.5t-231.5 -12.5h-39q-35 -1 -48 -66q-8 -37 -13 -61q-28 -118 -111 -162q-20 -11 -20 -19q0 -1 1 -2.5 t3 -1.5q1 0 12 2q76 11 168 11q41 0 104 -6.5t84 -6.5q10 0 40 2t48 2q39 0 53.5 -16.5t14.5 -77.5v-14q0 -62 -115 -69q-27 -2 -41 -3q-130 -11 -276.5 -16.5t-278.5 -5.5q-112 0 -149 14.5t-37 81.5z" />
<glyph unicode="&#xa4;" horiz-adv-x="891" d="M18 477q1 9 9.5 24.5t9.5 20.5q7 21 13.5 30t15.5 9h4q28 -2 47 -2h30q6 18 13 38t22 60l-26 2h-66q-9 1 -14.5 4t-5.5 9q0 9 7.5 20.5t8.5 14.5q2 4 6 14q13 33 31 33q3 0 21.5 -1t31.5 -1h43q39 95 78.5 173.5t77.5 135.5q76 111 146.5 162t146.5 51q63 0 136 -58 q19 -15 32 -24l1 -1q78 -58 78 -153q0 -41 -9.5 -80t-31.5 -79q-8 -19 -41.5 -32t-70.5 -13q-43 0 -66.5 27t-23.5 77q0 32 1 43t1 31q0 31 -8.5 48t-22.5 17q-24 0 -60.5 -48.5t-78.5 -137.5q-25 -53 -38 -83.5t-24 -55.5h45q14 0 35 1t27 1q10 0 36.5 1t45.5 1q6 0 17 -1 t18 -1q4 0 8 -7t4 -14q0 -14 -8 -36q-2 -5 -2 -6q-5 -14 -16 -19.5t-36 -5.5q-27 -3 -55.5 -3.5t-60.5 -0.5l-91 -1q-3 -10 -15.5 -46.5t-18.5 -57.5q16 0 52.5 1t37.5 1h65q7 0 21 -1t22 -1q7 0 9.5 -3t3.5 -17q0 -16 -10 -34l-5 -10q-5 -13 -16.5 -19.5t-36.5 -6.5 q-28 0 -82 -2t-82 -2h-4q-14 -58 -23.5 -132t-9.5 -112q0 -50 16.5 -74t51.5 -24q48 0 93.5 38t74.5 103q5 13 11 34q14 45 42 66q21 15 36.5 21t33.5 6t45 -23.5t27 -43.5q0 -49 -16.5 -98.5t-51.5 -108.5q-40 -67 -125 -113.5t-170 -46.5q-151 0 -223 68.5t-72 212.5 q0 49 8 107t23 122h-58q-16 0 -30.5 3.5t-14.5 8.5z" />
<glyph unicode="&#xa5;" horiz-adv-x="977" d="M6 479q0 32 9 52t24 20h3q17 -2 36 -2h190q-2 33 -3 83q-2 74 -23 75q-2 0 -15.5 -1t-25.5 -1q-57 0 -97.5 3t-40.5 7t2.5 13.5t2.5 14.5v11q0 19 8 29t24 10q4 0 20.5 -1t29.5 -1l96 2q-18 90 -26.5 188t-8.5 215q0 7 16 38.5t25 31.5h10q4 0 11 2t10 2q6 0 17 -9.5 t22 -9.5q2 0 8 1t8 1q47 0 78 -111t67 -429h35q167 303 303.5 501.5t171.5 198.5q28 0 75.5 -37.5t47.5 -60.5q0 -24 -118.5 -197.5t-211.5 -326.5q15 0 35.5 1t26.5 1q10 0 38.5 -2.5t47.5 -2.5q6 0 17.5 2.5t17.5 2.5q5 -1 8.5 -7.5t3.5 -13.5q0 -6 -12.5 -31t-15.5 -26 q-16 -3 -59.5 -5.5t-94.5 -2.5h-29q-21 0 -33.5 -5.5t-21.5 -17.5q-5 -6 -18.5 -31t-24.5 -42q-10 -16 -24.5 -35t-14.5 -23q0 -2 1.5 -3t8.5 -1h16l203 -2q7 0 24 2t25 2q4 0 5.5 -2.5t1.5 -13.5q0 -39 -12 -55.5t-48 -16.5h-16l-209 2q-69 0 -103 -103q-12 -37 -20 -61 q-33 -94 -66 -221q-36 -137 -84 -137q-5 0 -36 8t-70 20q-33 11 -49.5 25t-16.5 33q0 24 29.5 109t44.5 147q8 33 20.5 80t12.5 55q0 21 -11.5 34t-31.5 13l-203 -2q-20 0 -31.5 4t-11.5 10z" />
<glyph unicode="&#xa6;" d="M424 -350v758h178v-758h-178zM424 674v758h178v-758h-178z" />
<glyph unicode="&#xa7;" d="M-94 35q0 17 62.5 48.5t92.5 31.5q27 0 44 -39q12 -26 22 -41q35 -54 78 -80.5t94 -26.5q98 0 169 51.5t71 124.5q0 87 -207 189q-41 20 -62 31q-124 63 -169.5 117.5t-45.5 133.5q0 65 27 133t68 107q88 84 138 106q7 4 7 5t-7 10q-48 58 -48 145q0 146 131.5 253.5 t324.5 107.5q99 0 190 -42t91 -77q0 -29 -42 -82t-87 -53q-2 0 -76.5 26.5t-136.5 26.5q-76 0 -121 -36t-45 -95q0 -77 231 -164q20 -8 31 -12q102 -40 150.5 -98t48.5 -140q0 -69 -32 -133.5t-93 -116.5q-31 -27 -74 -51t-43 -33l38 -63.5t38 -128.5q0 -176 -144 -306 t-350 -130q-93 0 -163.5 30t-120.5 91q-34 40 -57 95t-23 85zM281 637q0 -28 25 -54t75 -51q34 -16 82 -39q61 -30 65 -30q35 0 102.5 59.5t67.5 120.5q0 33 -24 60t-72 47q-39 15 -104.5 34t-71.5 19q-32 0 -88.5 -58t-56.5 -108z" />
<glyph unicode="&#xa8;" d="M297 1112q0 40 49.5 101t118.5 61q35 0 64.5 -47t29.5 -72q0 -34 -49.5 -80.5t-89.5 -46.5q-48 0 -85.5 25t-37.5 59zM637 1112q0 40 49.5 101t118.5 61q35 0 63.5 -46.5t28.5 -72.5q0 -34 -49 -80.5t-88 -46.5q-48 0 -85.5 25t-37.5 59z" />
<glyph unicode="&#xa9;" horiz-adv-x="1706" d="M113 731q0 145 57 280.5t164 243.5q105 107 235.5 161t282.5 54t286 -55t240 -162q105 -105 160 -238.5t55 -283.5q0 -153 -54.5 -286t-158.5 -234q-108 -107 -244.5 -164t-283.5 -57q-146 0 -280 56.5t-240 162.5q-107 106 -163 240.5t-56 281.5zM223 731 q0 -126 48 -240t139 -204q90 -91 204.5 -139t239.5 -48t240 48.5t209 140.5q89 88 135.5 200.5t46.5 241.5t-47 243.5t-135 203.5q-91 90 -205 137t-244 47t-243 -46.5t-201 -135.5q-90 -92 -138.5 -208t-48.5 -241zM457 725q0 208 109.5 331.5t291.5 123.5q147 0 243 -77 t105 -200h-166q-10 74 -60 114t-130 40q-99 0 -155 -86.5t-56 -239.5q0 -152 57.5 -234.5t163.5 -82.5q80 0 129 43.5t60 124.5h165q-7 -135 -106.5 -217t-253.5 -82q-183 0 -290 119t-107 323z" />
<glyph unicode="&#xaa;" horiz-adv-x="498" d="M-45 1001q0 19 20 57t41 56q44 35 106.5 62.5t88.5 27.5q7 0 17 -1t14 -1q9 0 14 5.5t10 22.5q13 46 23 88.5t10 45.5q0 6 -3.5 11t-6.5 5q-11 0 -49 -39q-24 -26 -39 -41q-21 -19 -47 -48q-32 -35 -50 -35q-15 0 -44 14.5t-29 30.5q0 14 35.5 65t80.5 98q48 49 80 72 t54 23q15 0 38 -17.5t31 -21.5q6 -3 18 -8q72 -29 72 -93q0 -30 -24 -130t-70 -265q-7 -26 -15 -64q-17 -77 -65 -77q-31 0 -48 10.5t-28 36.5q-43 -14 -72 -20.5t-48 -6.5q-42 0 -76.5 32.5t-34.5 64.5v10q0 6 -2 16.5t-2 13.5zM68 1008q0 -12 6.5 -16.5t21.5 -4.5 q77 0 103 18t26 66q0 6 -4 10t-10 4q-36 0 -89.5 -29t-53.5 -48z" />
<glyph unicode="&#xab;" horiz-adv-x="778" d="M-4 430q0 31 89 139q36 44 56 70q31 40 79 103q85 112 99 112q62 0 102 -14.5t40 -36.5q0 -7 -48 -65t-94 -120q-34 -46 -84 -111q-49 -63 -49 -71q0 -1 17 -59q15 -51 24 -86q18 -61 43 -131t25 -78q0 -12 -48.5 -39t-74.5 -27q-36 0 -59.5 32t-48.5 121l-4 13 q-64 226 -64 248zM328 430q0 31 89 139q36 44 56 70q31 40 79 103q85 112 99 112q62 0 102 -14.5t40 -36.5q0 -7 -48 -65t-94 -120q-34 -46 -84 -111q-49 -63 -49 -71q0 -1 17 -59q14 -51 24 -86q18 -61 43 -131t25 -78q0 -12 -48.5 -39t-74.5 -27q-36 0 -60 32t-49 122 l-3 11q-64 227 -64 249z" />
<glyph unicode="&#xac;" horiz-adv-x="1706" d="M254 696v166h1198v-502h-166v336h-1032z" />
<glyph unicode="&#xad;" horiz-adv-x="612" d="M20 457q0 13 5.5 26.5t5.5 14.5l-4 7t-4 13q0 18 37.5 24.5t156.5 6.5h96h68q9 0 22.5 -3t16.5 -3q7 0 15.5 2t10.5 2q1 0 5 -3t8 -3q3 0 7 2t7 2q10 0 16.5 -21t6.5 -53q0 -31 -15 -65.5t-32 -34.5h-3q-17 2 -32 2q-6 0 -18.5 -1t-18.5 -1q-16 0 -43.5 3t-40.5 3 q-17 0 -50.5 -3t-49.5 -3q-34 0 -72 6t-43 6q-4 0 -11.5 -3t-11.5 -3q-15 0 -25 22t-10 58z" />
<glyph unicode="&#xae;" horiz-adv-x="1706" d="M113 731q0 147 57.5 284t165.5 245q104 104 234.5 157t281.5 53q153 0 288.5 -56t241.5 -165q103 -104 157 -236.5t54 -281.5q0 -153 -55.5 -287t-161.5 -237q-108 -105 -243 -161t-281 -56q-147 0 -282.5 57.5t-241.5 165.5q-105 106 -160 239t-55 279zM223 731 q0 -125 47 -238.5t136 -203.5q90 -91 204 -140t234 -49q130 0 246.5 47t209.5 138q89 86 137 198.5t48 237.5q0 133 -45.5 247.5t-134.5 205.5q-93 92 -207.5 140t-243.5 48t-240 -45.5t-200 -134.5q-92 -94 -141.5 -210t-49.5 -241zM551 330v829h319q173 0 262 -57t89 -168 q0 -91 -48 -150.5t-137 -78.5l185 -375h-199l-164 346h-129v-346h-178zM729 786h117q100 0 146 30.5t46 96.5q0 69 -48 101.5t-152 32.5h-109v-261z" />
<glyph unicode="&#xaf;" d="M338 1145q0 25 19.5 59.5t37.5 34.5q1 0 9.5 -1t15.5 -1q26 0 55 2h8q11 0 39.5 -3t46.5 -3q17 0 55 3t58 3q38 0 80 -6t47 -6t14 3t13 3q15 0 24.5 -18t9.5 -48q0 -16 -7 -29t-7 -14t4 -7t4 -11q0 -15 -40.5 -21t-159.5 -6h-129q-64 0 -108 4h-7q-7 0 -17 -1t-12 -1h-29 q-10 0 -17 18t-7 46z" />
<glyph unicode="&#xb0;" horiz-adv-x="674" d="M43 1163q0 125 86 211t209 86q121 0 208 -87t87 -210q0 -121 -87 -208t-210 -87t-208 85.5t-85 209.5zM152 1165q0 -76 54.5 -131t131.5 -55t130.5 54.5t53.5 131.5t-53.5 131t-130.5 54t-131.5 -54t-54.5 -131z" />
<glyph unicode="&#xb1;" horiz-adv-x="1706" d="M254 14v168h1198v-168h-1198zM254 707v165h514v334h170v-334h514v-165h-514v-334h-170v334h-514z" />
<glyph unicode="&#xb2;" horiz-adv-x="582" d="M14 592q0 30 82.5 99t141.5 130q100 106 165.5 191.5t65.5 103.5q0 3 -3.5 5.5t-8.5 2.5q-21 0 -79 -28.5t-128 -75.5q-26 -18 -67.5 -59t-57.5 -41q-10 0 -28.5 41.5t-18.5 58.5q0 8 5 15.5t14 11.5q2 0 39 31.5t85 62.5q100 69 152.5 91.5t99.5 22.5q38 0 78.5 -53 t40.5 -100q0 -41 -32 -95t-118 -151q-73 -85 -145 -157.5t-72 -73.5q0 -2 5.5 -5.5t11.5 -3.5q9 0 35 4.5t42 4.5q100 0 136.5 -18.5t36.5 -69.5q0 -28 -36 -40t-118 -12q-9 0 -30.5 1t-33.5 1h-43q-11 0 -32 1t-31 1q-7 0 -46.5 -4t-72.5 -4q-6 0 -19.5 19.5t-13.5 25.5 q0 7 3.5 16t3.5 13q0 6 -4.5 19t-4.5 18z" />
<glyph unicode="&#xb3;" horiz-adv-x="563" d="M-29 543q0 5 7 16.5t11 13.5q44 13 46 13q3 0 15 -3t20 -3q27 0 86 22t104 53q33 22 56.5 46t23.5 32q0 19 -30 33t-72 14q-83 0 -121 -23q-5 -3 -6 -3q-7 0 -26 15.5t-19 25.5q0 5 8 14t8 14q0 3 -2 8.5t-2 8.5q0 52 55 65q26 6 39 13q101 47 185.5 111.5t84.5 78.5 q0 4 -15 7t-36 3q-96 0 -190 -44q-11 -5 -13 -5q-4 0 -11 11t-7 22q0 3 1 8t1 6q0 8 -6 21.5t-6 21.5q0 21 6 31.5t20 15.5q64 22 125 35.5t88 13.5q44 0 71.5 -10.5t45.5 -34.5q28 -37 39.5 -57.5t11.5 -32.5q0 -31 -18.5 -64t-61.5 -75q-38 -37 -79 -65t-41 -29 q0 -7 29.5 -23.5t43.5 -29.5q12 -16 27.5 -49t15.5 -46q0 -54 -49.5 -114.5t-132.5 -104.5q-57 -30 -129.5 -49.5t-110.5 -19.5q-24 0 -45.5 11.5t-21.5 24.5q0 1 1 6t1 9q0 7 -12.5 21t-12.5 20z" />
<glyph unicode="&#xb4;" d="M477 1090q0 32 82 59q24 8 35 12q62 28 143 75.5t94 47.5q28 0 64.5 -41.5t36.5 -66.5q0 -44 -101 -72q-14 -4 -22 -6q-72 -21 -162 -57.5t-98 -36.5q-17 0 -44.5 32t-27.5 54z" />
<glyph unicode="&#xb5;" horiz-adv-x="1208" d="M-92 -430l297 1511h229l-125 -635q-6 -29 -9 -55t-3 -49q0 -96 46.5 -146.5t135.5 -50.5q122 0 193.5 88.5t111.5 292.5l109 555h225l-145 -739q-10 -49 -14.5 -81.5t-4.5 -51.5q0 -36 15.5 -51t52.5 -15q13 0 20.5 0.5t13.5 1.5l-32 -159q-32 -9 -68.5 -13t-81.5 -4 q-74 0 -111.5 31.5t-37.5 93.5v15q-41 -67 -108 -104.5t-146 -37.5q-81 0 -137.5 26t-97.5 83l-99 -506h-229z" />
<glyph unicode="&#xb6;" d="M55 1130q0 158 107 253.5t284 95.5h523v-99h-117v-1380h-129v1380h-168v-1380h-131v784q-168 6 -268.5 101t-100.5 245z" />
<glyph unicode="&#xb7;" horiz-adv-x="479" d="M78 553q0 69 71.5 153.5t106.5 84.5q5 0 27.5 -10.5t23.5 -10.5h17q13 0 43 -51.5t30 -73.5q0 -27 -25.5 -72t-39.5 -45q-2 0 -5.5 1t-4.5 1t-2 -2q-11 -25 -83 -45q-20 -5 -39 -12.5t-22 -7.5q-21 0 -59.5 35.5t-38.5 54.5z" />
<glyph unicode="&#xb8;" d="M-16 -383q0 21 22 48.5t41 27.5q5 0 30 -12q94 -46 173 -46q48 0 79 22.5t31 55.5q0 28 -21.5 44t-59.5 16q-3 0 -17.5 -1t-25.5 -1q-14 0 -24.5 8.5t-10.5 19.5q0 15 21.5 70.5t58.5 130.5h73q-8 -26 -23.5 -64t-15.5 -49q0 -9 6.5 -16.5t14.5 -7.5q4 0 17.5 1t21.5 1 q67 0 106 -33.5t39 -91.5q0 -91 -73.5 -147t-196.5 -56q-91 0 -178.5 28.5t-87.5 51.5z" />
<glyph unicode="&#xb9;" horiz-adv-x="379" d="M37 522q0 18 18 78q6 19 8 28q12 45 25.5 92t13.5 50v12q0 3 10 36.5t23 76.5q29 92 41 147q0 5 -1 7t-3 2q-3 0 -27 -13.5t-41 -13.5q-3 0 -13.5 12t-10.5 17q0 2 19 17t34 34q2 2 7 8q21 27 40 43q17 14 40.5 42.5t35.5 37.5q18 10 41 22q22 -8 45 -18q6 -2 16 -3 q23 -2 23 -17q0 -7 -47 -175t-90 -335q-8 -29 -22 -79q-26 -95 -29 -130q0 -18 -14 -29.5t-34 -11.5q-23 0 -50 18t-34 21q-2 0 -7 1q-17 4 -17 23z" />
<glyph unicode="&#xba;" horiz-adv-x="530" d="M-12 1012q0 81 30.5 185.5t71.5 168.5q10 16 28 45q78 127 134 127q20 0 48 -13q11 -5 17 -7q11 -4 35.5 -8.5t38.5 -10.5q41 -17 60.5 -60.5t19.5 -119.5q0 -110 -46.5 -221t-129.5 -197q-26 -27 -54.5 -42t-54.5 -15q-34 0 -108 39q-13 7 -19 10q-41 19 -56 45t-15 74z M139 1030q0 -37 4.5 -51t16.5 -14q32 0 88.5 125.5t56.5 246.5q0 24 -5.5 39t-12.5 15q-10 0 -26 -26t-48 -93q-35 -70 -54.5 -134t-19.5 -108z" />
<glyph unicode="&#xbb;" horiz-adv-x="778" d="M-123 76q0 6 55 72.5t97 121.5l11 15q114 148 114 159q0 8 -15.5 56.5t-25.5 87.5q-33 121 -62 193q-4 10 -4 12q0 25 50 44t118 19q15 0 43 -98q14 -49 23 -78q11 -41 38 -117.5t27 -103.5q0 -34 -97 -158q-33 -42 -52 -68q-15 -18 -40 -52q-123 -163 -190 -163 q-23 0 -56.5 25.5t-33.5 32.5zM209 76q0 7 57 77q56 68 94 117l12 15q113 148 113 159q0 8 -15.5 56.5t-25.5 87.5q-32 121 -61 193q-4 10 -4 12q0 25 50 44t118 19q15 0 43 -98q13 -49 22 -78q12 -41 39 -117.5t27 -103.5q0 -34 -97 -158q-33 -42 -53 -68q-10 -14 -30 -40 q-133 -175 -195 -175q-27 0 -60.5 25t-33.5 33z" />
<glyph unicode="&#xbc;" horiz-adv-x="1319" d="M35 569q0 16 17 71q6 19 9 29q12 45 24.5 87.5t12.5 44.5v10q0 3 7 26.5t24 80.5q27 86 41 137q0 3 -1.5 5.5t-2.5 2.5q-3 0 -26.5 -13.5t-39.5 -13.5q-2 0 -13 12t-11 15q0 2 18.5 17t32.5 32q1 1 15 18t30 29q17 14 39.5 40.5t34.5 35.5q16 10 37 20q22 -6 43 -16 q5 -2 17 -3q21 -2 22 -15q0 -6 -46 -162.5t-88 -315.5q-7 -28 -21 -77q-24 -86 -26 -118q-1 -16 -14 -27t-33 -11q-22 0 -47.5 17t-32.5 20q-3 1 -8 2q-14 3 -14 20zM45 45q0 11 22.5 47.5t98.5 143.5q22 31 104.5 141.5t139.5 187.5l36 51q181 251 261 353q39 51 100 133 q132 178 209 178q43 0 67.5 -16t24.5 -41q0 -5 -46 -56q-212 -232 -437 -526q-165 -215 -319 -451.5t-163 -236.5q-2 0 -10 1t-12 1q-3 0 -9.5 -1t-11.5 -1q-25 0 -40 25.5t-15 66.5zM705 260q0 10 64.5 86.5t178.5 200.5q41 43 75.5 79.5t56.5 58.5q1 2 3 7q9 22 25 23 q56 0 116 -19.5t60 -31.5q0 -4 -7 -11t-9 -10q-5 -7 -17.5 -46.5t-23.5 -69.5q-23 -67 -39.5 -131t-16.5 -74q0 -5 28 -6t38 -5t14 -18.5t4 -56.5q0 -14 -10 -20.5t-31 -6.5h-12q-28 0 -45.5 -3.5t-19.5 -8.5q-5 -9 -20 -63q-7 -25 -11 -40q-6 -21 -17.5 -50t-11.5 -38v-12 q0 -15 -10 -34t-20 -19q-21 0 -62 15.5t-41 29.5q0 8 4 16.5t4 11.5q0 5 -1 11t-1 8q0 14 11 54.5t16 66.5q2 19 11 34l1 2q0 3 -7 6t-15 3q-13 0 -41.5 -2t-42.5 -2h-29q-4 0 -21 -1t-30 -1q-47 0 -50 9q-2 5 -3 6q-2 2 -8 7q-37 30 -37 45zM891 315q0 -1 5 -2.5t11 -1.5 q7 0 20.5 1t20.5 1t24.5 -1t28.5 -1q26 0 43 51q7 22 13 38q2 6 9.5 35t16.5 50q21 47 31 74q0 5 -5 8.5t-11 3.5q-2 0 -27.5 -31.5t-46.5 -56.5q-63 -76 -98 -120t-35 -48z" />
<glyph unicode="&#xbd;" horiz-adv-x="1260" d="M35 569q0 16 17 71q6 19 9 29q12 45 24.5 87.5t12.5 44.5v10q0 3 7 26.5t24 80.5q27 86 41 137q0 3 -1.5 5.5t-2.5 2.5q-3 0 -26.5 -13.5t-39.5 -13.5q-2 0 -13 12t-11 15q0 2 18.5 17t32.5 32q1 1 15 18t30 29q17 14 39.5 40.5t34.5 35.5q16 10 37 20q22 -6 43 -16 q5 -2 17 -3q21 -2 22 -15q0 -6 -46 -162.5t-88 -315.5q-7 -28 -21 -77q-24 -86 -26 -118q-1 -16 -14 -27t-33 -11q-22 0 -47.5 17t-32.5 20q-3 1 -8 2q-14 3 -14 20zM45 45q0 11 22.5 47.5t98.5 143.5q22 31 104.5 141.5t139.5 187.5l36 51q181 251 261 353q39 51 100 133 q132 178 209 178q43 0 67.5 -16t24.5 -41q0 -5 -46 -56q-212 -232 -437 -526q-165 -215 -319 -451.5t-163 -236.5q-2 0 -10 1t-12 1q-3 0 -9.5 -1t-11.5 -1q-25 0 -40 25.5t-15 66.5zM717 94q0 28 78 92.5t135 122.5q96 98 158.5 177.5t62.5 95.5q0 2 -4 5t-8 3 q-22 0 -77 -26.5t-120 -69.5q-25 -17 -65 -56t-56 -39q-9 0 -27 39t-18 56q0 7 5 14t13 10q1 0 36.5 29t82.5 59q95 65 145.5 86t96.5 21q35 0 74 -50t39 -94q0 -38 -30.5 -88t-111.5 -141q-70 -78 -139 -146t-69 -69q0 -2 5 -5t11 -3q8 0 33 3t41 3q97 0 130 -16.5 t33 -65.5q0 -25 -34.5 -36t-110.5 -11q-9 0 -29.5 1t-31.5 1h-41q-11 0 -31.5 1t-30.5 1q-6 0 -43 -3t-69 -3q-6 0 -18.5 17t-12.5 24q0 6 2 14.5t2 11.5q0 7 -3 18.5t-3 16.5z" />
<glyph unicode="&#xbe;" horiz-adv-x="1495" d="M-27 590q0 4 6.5 14.5t11.5 11.5q40 13 42 13q3 0 14.5 -3t18.5 -3q27 0 83.5 21t100.5 50q31 22 52.5 43t21.5 29q0 17 -29 31t-70 14q-80 0 -114 -22q-3 -2 -5 -3q-6 0 -24.5 14.5t-18.5 22.5q0 5 7.5 13.5t7.5 13.5q0 3 -1 7.5t-1 6.5q0 51 52 63q23 5 36 11 q97 46 177.5 106t80.5 72q0 4 -13.5 7t-33.5 3q-93 0 -181 -41q-13 -6 -14 -6q-5 0 -11.5 10t-6.5 21q0 4 1 8l1 4q0 8 -6 21.5t-6 21.5q0 19 5.5 28.5t20.5 14.5q60 20 117.5 32.5t85.5 12.5q43 0 69 -9.5t43 -30.5q27 -35 37.5 -54.5t10.5 -32.5q0 -29 -18.5 -60 t-57.5 -69q-37 -34 -76 -60t-39 -28q0 -6 28.5 -21t40.5 -27q13 -15 28.5 -46t15.5 -43q0 -49 -48 -106t-128 -99q-56 -27 -125 -46t-103 -19q-25 0 -45 10.5t-20 24.5l1 5t1 9q0 6 -11.5 19.5t-11.5 19.5zM223 45q0 11 22.5 47.5t98.5 143.5q22 31 104.5 141.5t139.5 187.5 l36 51q181 251 261 353q40 51 100 133q132 178 209 178q44 0 68 -16t24 -41q0 -5 -46 -56q-212 -232 -437 -526q-164 -215 -318.5 -451.5t-162.5 -236.5q-3 0 -11 1t-12 1q-3 0 -9.5 -1t-10.5 -1q-26 0 -41 25.5t-15 66.5zM883 260q0 10 64.5 86.5t178.5 200.5 q41 43 75.5 79.5t56.5 58.5q1 1 3 7q9 22 25 23q56 0 116 -19.5t60 -31.5q0 -4 -6.5 -10.5t-9.5 -10.5q-5 -7 -17.5 -46.5t-23.5 -70.5q-23 -66 -39 -130t-16 -74q0 -5 27.5 -6t37.5 -5q11 -4 15 -18.5t4 -56.5q0 -13 -10.5 -20t-30.5 -7h-13q-28 0 -45 -3t-20 -9 q-5 -9 -20 -63q-7 -25 -11 -40q-6 -22 -17.5 -50.5t-11.5 -37.5v-12q0 -15 -10 -34t-20 -19q-21 0 -62 15.5t-41 29.5q0 8 4 16.5t4 11.5q0 5 -1 11t-1 8q0 14 11 54.5t16 66.5q2 19 11 34l1 2q0 4 -7 6.5t-15 2.5q-13 0 -41.5 -2t-42.5 -2h-29q-3 0 -20.5 -1t-30.5 -1 q-47 0 -50 10q-1 3 -3 6q-1 1 -7 6q-38 30 -38 45zM1069 315q0 -1 5 -2.5t11 -1.5q8 0 21 1t20 1t25 -1t29 -1q25 0 42 51q8 23 13 37q2 7 9.5 36t17.5 50q20 47 30 74q0 5 -5 8.5t-11 3.5q-2 0 -27 -31.5t-47 -56.5q-63 -76 -98 -120t-35 -48z" />
<glyph unicode="&#xbf;" horiz-adv-x="797" d="M-102 193q0 73 43.5 161t121.5 172q68 73 183 190q200 203 200 259q0 7 -10 22t-10 25q0 13 9.5 20.5t27.5 8.5q37 0 81 -7t51 -13q6 -5 16 -25t24 -29q12 -8 18 -18.5t6 -24.5q0 -37 -94 -159.5t-250 -285.5q-101 -106 -150.5 -180t-49.5 -119q0 -14 7.5 -19t29.5 -5 q45 0 117.5 37.5t179.5 115.5q47 35 91 82.5t60 47.5q12 0 32.5 -44.5t20.5 -62.5q0 -2 -1 -8t-1 -10q0 -10 4 -28t4 -26q0 -18 -46.5 -68t-104.5 -87q-136 -88 -221 -128t-135 -40q-10 0 -79.5 32.5t-99.5 55.5q-28 22 -51.5 71t-23.5 87zM461 1221q0 68 62.5 136t117.5 68 q16 0 31.5 4.5t17.5 4.5q21 0 57.5 -34t36.5 -63q0 -34 -17 -69t-48 -64q-18 -16 -45 -49q-43 -51 -68 -51q-13 0 -32.5 10t-20.5 10q-3 0 -9.5 -1t-11.5 -1q-31 0 -51 32.5t-20 66.5z" />
<glyph unicode="&#xc0;" horiz-adv-x="938" d="M-166 -70q0 32 105.5 290.5t248.5 537.5q83 160 196 403q129 279 169 279q92 0 185 -28.5t93 -47.5q0 -2 -1 -8q-17 -71 -17 -162q0 -13 1 -29.5t1 -21.5q0 -34 -9 -111.5t-9 -122.5q0 -14 1 -30.5t1 -18.5q0 -6 -9 -126.5t-16 -239.5q-12 -209 -31 -408q-4 -39 -4 -43 q0 -12 3 -25t3 -16q0 -10 -19.5 -23.5t-31.5 -13.5q-8 0 -21.5 4t-19.5 4q-10 0 -27 -8t-26 -8q-40 0 -56 35.5t-16 157.5q0 19 3.5 93t3.5 128q-108 -17 -188 -27t-97 -10q-47 -8 -75 -86q-12 -33 -19 -51q-5 -11 -23 -42q-60 -107 -92 -204q-10 -33 -33.5 -52.5 t-54.5 -19.5q-50 0 -84.5 16t-34.5 35zM330 580q0 -5 6.5 -9t15.5 -4q2 0 8 1q43 5 97 5h14q63 0 75.5 12t12.5 58q0 19 -1 42.5t-1 27.5q0 9 12.5 152.5t22.5 273.5q-110 -272 -238 -510q-24 -45 -24 -49zM541 1663q0 29 62.5 78t89.5 49q15 0 83 -51q53 -39 89 -64 q11 -7 39 -18q57 -23 57 -53q0 -19 -47 -56.5t-64 -37.5q-4 0 -68.5 26.5t-150.5 65.5q-9 4 -29 10q-61 19 -61 51z" />
<glyph unicode="&#xc1;" horiz-adv-x="938" d="M-166 -70q0 32 105.5 290.5t248.5 537.5q83 160 196 403q129 279 169 279q92 0 185 -28.5t93 -47.5q0 -2 -1 -8q-17 -71 -17 -162q0 -13 1 -29.5t1 -21.5q0 -34 -9 -111.5t-9 -122.5q0 -14 1 -30.5t1 -18.5q0 -6 -9 -126.5t-16 -239.5q-12 -209 -31 -408q-4 -39 -4 -43 q0 -12 3 -25t3 -16q0 -10 -19.5 -23.5t-31.5 -13.5q-8 0 -21.5 4t-19.5 4q-10 0 -27 -8t-26 -8q-40 0 -56 35.5t-16 157.5q0 19 3.5 93t3.5 128q-108 -17 -188 -27t-97 -10q-47 -8 -75 -86q-12 -33 -19 -51q-5 -11 -23 -42q-60 -107 -92 -204q-10 -33 -33.5 -52.5 t-54.5 -19.5q-50 0 -84.5 16t-34.5 35zM330 580q0 -5 6.5 -9t15.5 -4q2 0 8 1q43 5 97 5h14q63 0 75.5 12t12.5 58q0 19 -1 42.5t-1 27.5q0 9 12.5 152.5t22.5 273.5q-110 -272 -238 -510q-24 -45 -24 -49zM590 1596q0 32 82 59q24 8 35 12q62 28 143 75.5t94 47.5 q28 0 64.5 -41.5t36.5 -66.5q0 -44 -101 -72q-14 -4 -22 -6q-72 -21 -162 -57.5t-98 -36.5q-17 0 -44.5 32t-27.5 54z" />
<glyph unicode="&#xc2;" horiz-adv-x="938" d="M-166 -70q0 32 105.5 290.5t248.5 537.5q83 160 196 403q129 279 169 279q92 0 185 -28.5t93 -47.5q0 -2 -1 -8q-17 -71 -17 -162q0 -13 1 -29.5t1 -21.5q0 -34 -9 -111.5t-9 -122.5q0 -14 1 -30.5t1 -18.5q0 -6 -9 -126.5t-16 -239.5q-12 -209 -31 -408q-4 -39 -4 -43 q0 -12 3 -25t3 -16q0 -10 -19.5 -23.5t-31.5 -13.5q-8 0 -21.5 4t-19.5 4q-10 0 -27 -8t-26 -8q-40 0 -56 35.5t-16 157.5q0 19 3.5 93t3.5 128q-108 -17 -188 -27t-97 -10q-47 -8 -75 -86q-12 -33 -19 -51q-5 -11 -23 -42q-60 -107 -92 -204q-10 -33 -33.5 -52.5 t-54.5 -19.5q-50 0 -84.5 16t-34.5 35zM330 580q0 -5 6.5 -9t15.5 -4q2 0 8 1q43 5 97 5h14q63 0 75.5 12t12.5 58q0 19 -1 42.5t-1 27.5q0 9 12.5 152.5t22.5 273.5q-110 -272 -238 -510q-24 -45 -24 -49zM392 1540q0 14 36 53.5t111 108.5q23 21 56 51q56 53 73 53 q3 0 8 -1t8 -1q10 0 32 3.5t34 3.5q8 0 26 -3.5t29 -3.5q3 0 12 1t15 1q15 0 22 -17q9 -21 23 -42q44 -65 75 -125t31 -72q0 -13 -14.5 -24.5t-32.5 -11.5q-95 0 -123.5 6t-33.5 26q-19 57 -37.5 93t-28.5 36t-43.5 -34.5t-67.5 -83.5q-20 -29 -51.5 -36t-128.5 -7 q-12 0 -21 8t-9 18z" />
<glyph unicode="&#xc3;" horiz-adv-x="938" d="M-166 -70q0 32 105.5 290.5t248.5 537.5q83 160 196 403q129 279 169 279q92 0 185 -28.5t93 -47.5q0 -2 -1 -8q-17 -71 -17 -162q0 -13 1 -29.5t1 -21.5q0 -34 -9 -111.5t-9 -122.5q0 -14 1 -30.5t1 -18.5q0 -6 -9 -126.5t-16 -239.5q-12 -209 -31 -408q-4 -39 -4 -43 q0 -12 3 -25t3 -16q0 -10 -19.5 -23.5t-31.5 -13.5q-8 0 -21.5 4t-19.5 4q-10 0 -27 -8t-26 -8q-40 0 -56 35.5t-16 157.5q0 19 3.5 93t3.5 128q-108 -17 -188 -27t-97 -10q-47 -8 -75 -86q-12 -33 -19 -51q-5 -11 -23 -42q-60 -107 -92 -204q-10 -33 -33.5 -52.5 t-54.5 -19.5q-50 0 -84.5 16t-34.5 35zM330 580q0 -5 6.5 -9t15.5 -4q2 0 8 1q43 5 97 5h14q63 0 75.5 12t12.5 58q0 19 -1 42.5t-1 27.5q0 9 12.5 152.5t22.5 273.5q-110 -272 -238 -510q-24 -45 -24 -49zM443 1606q0 31 69.5 96.5t124.5 65.5q31 0 91.5 -28t97.5 -28 q28 0 50 21.5t30 21.5q23 0 64.5 -21t41.5 -40t-66.5 -80t-117.5 -61q-27 0 -79 27.5t-79 27.5q-46 0 -84.5 -30t-40.5 -30q-16 0 -59 23t-43 35z" />
<glyph unicode="&#xc4;" horiz-adv-x="938" d="M-166 -70q0 32 105.5 290.5t248.5 537.5q83 160 196 403q129 279 169 279q92 0 185 -28.5t93 -47.5q0 -2 -1 -8q-17 -71 -17 -162q0 -13 1 -29.5t1 -21.5q0 -34 -9 -111.5t-9 -122.5q0 -14 1 -30.5t1 -18.5q0 -6 -9 -126.5t-16 -239.5q-12 -209 -31 -408q-4 -39 -4 -43 q0 -12 3 -25t3 -16q0 -10 -19.5 -23.5t-31.5 -13.5q-8 0 -21.5 4t-19.5 4q-10 0 -27 -8t-26 -8q-40 0 -56 35.5t-16 157.5q0 19 3.5 93t3.5 128q-108 -17 -188 -27t-97 -10q-47 -8 -75 -86q-12 -33 -19 -51q-5 -11 -23 -42q-60 -107 -92 -204q-10 -33 -33.5 -52.5 t-54.5 -19.5q-50 0 -84.5 16t-34.5 35zM330 580q0 -5 6.5 -9t15.5 -4q2 0 8 1q43 5 97 5h14q63 0 75.5 12t12.5 58q0 19 -1 42.5t-1 27.5q0 9 12.5 152.5t22.5 273.5q-110 -272 -238 -510q-24 -45 -24 -49zM410 1618q0 40 49.5 101t118.5 61q35 0 64.5 -47t29.5 -72 q0 -34 -49.5 -80.5t-89.5 -46.5q-48 0 -85.5 25t-37.5 59zM750 1618q0 40 49.5 101t118.5 61q35 0 63.5 -46.5t28.5 -72.5q0 -34 -49 -80.5t-88 -46.5q-48 0 -85.5 25t-37.5 59z" />
<glyph unicode="&#xc5;" horiz-adv-x="938" d="M-166 -70q0 32 105.5 290.5t248.5 537.5q83 160 196 403q129 279 169 279q92 0 185 -28.5t93 -47.5q0 -2 -1 -8q-17 -71 -17 -162q0 -13 1 -29.5t1 -21.5q0 -34 -9 -111.5t-9 -122.5q0 -14 1 -30.5t1 -18.5q0 -6 -9 -126.5t-16 -239.5q-12 -209 -31 -408q-4 -39 -4 -43 q0 -12 3 -25t3 -16q0 -10 -19.5 -23.5t-31.5 -13.5q-8 0 -21.5 4t-19.5 4q-10 0 -27 -8t-26 -8q-40 0 -56 35.5t-16 157.5q0 19 3.5 93t3.5 128q-146 -23 -271 -36q-12 -1 -14 -1q-47 -8 -75 -86q-12 -33 -19 -51q-5 -11 -23 -42q-60 -107 -92 -204q-10 -33 -33.5 -52.5 t-54.5 -19.5q-50 0 -84.5 16t-34.5 35zM330 580q0 -5 6.5 -9t15.5 -4q2 0 8 1q43 5 97 5h14q63 0 75.5 12t12.5 58q0 19 -1 42.5t-1 27.5q0 9 12.5 152.5t22.5 273.5q-110 -272 -238 -510q-24 -45 -24 -49zM496 1655q0 83 94.5 183.5t142.5 100.5q118 0 178 -39t60 -116 q0 -82 -95.5 -178.5t-175.5 -96.5q-96 0 -150 39.5t-54 106.5zM639 1669q0 -34 13.5 -55t33.5 -21q34 0 87.5 66.5t53.5 126.5q0 26 -14 43.5t-33 17.5q-37 0 -89 -59.5t-52 -118.5z" />
<glyph unicode="&#xc6;" horiz-adv-x="1290" d="M-184 -37q0 21 81.5 194t235.5 478q87 171 176.5 337.5t182.5 327.5q47 83 72.5 106.5t60.5 23.5q36 0 105.5 -19.5t78.5 -19.5q3 0 10 3t12 3q8 0 21 -8.5t20 -8.5q34 0 147.5 20.5t182.5 20.5q34 0 61 -43.5t27 -74.5q0 -75 -42.5 -95t-203.5 -30l-2 -1 q-125 -6 -131 -24q0 -1 -1 -6q-13 -55 -31 -119q-21 -72 -34.5 -123t-13.5 -57t4.5 -8t16.5 -2q1 0 81.5 10t160.5 10q42 0 61 -22.5t19 -85.5q0 -20 -13 -83q-2 -9 -2 -10q-13 -27 -226 -43q-16 -1 -24 -2q-6 0 -18 -1q-125 -9 -133 -44q-25 -114 -53.5 -222t-28.5 -112 q0 -11 4 -15.5t14 -4.5q48 0 147 17.5t130 17.5q23 0 52.5 -32.5t29.5 -63.5q0 -23 -9.5 -51t-9.5 -33q0 -4 4 -14t4 -15q0 -9 -3.5 -11.5t-16.5 -2.5h-12q-32 0 -128.5 -21t-163.5 -27q-82 -7 -154 -20q-13 -2 -15 -2q-16 0 -65.5 37.5t-49.5 64.5q0 74 31 174.5t31 118.5 q0 9 -6 15t-15 6q-2 0 -11 -2q-35 -8 -69 -11q-38 -3 -91.5 -5.5t-68.5 -4.5q-34 -5 -69 -88q-5 -13 -8 -20q-21 -48 -72.5 -131.5t-65.5 -131.5q-9 -32 -32.5 -52.5t-50.5 -20.5q-37 0 -79 20t-42 39zM336 590q0 -3 9 -7.5t17 -4.5q24 0 51.5 2t30.5 2q11 0 35.5 -2 t38.5 -2q26 0 34 45q6 31 11 50q17 63 33.5 128.5t36.5 150.5q16 72 32.5 133.5t16.5 63.5q0 5 -5.5 10.5t-10.5 5.5q-21 0 -72 -102q-42 -86 -74 -143q-123 -220 -184 -330z" />
<glyph unicode="&#xc7;" horiz-adv-x="891" d="M-36 -383q0 21 22 48.5t41 27.5q5 0 30 -12q94 -46 173 -46q48 0 79 22.5t31 55.5q0 28 -21.5 44t-59.5 16q-3 0 -17.5 -1t-25.5 -1q-14 0 -24.5 8.5t-10.5 19.5q0 15 21.5 70.5t58.5 130.5h73q-8 -26 -23.5 -64t-15.5 -49q0 -9 6.5 -16.5t14.5 -7.5q4 0 17.5 1t21.5 1 q67 0 106 -33.5t39 -91.5q0 -91 -73.5 -147t-196.5 -56q-91 0 -178.5 28.5t-87.5 51.5zM-25 264q0 105 27 231t78 259q52 138 107.5 252t111.5 196q86 127 164 184.5t164 57.5q72 0 155 -66q23 -17 36 -27q55 -40 72 -78.5t17 -96.5q0 -64 -21 -145.5t-46 -125.5 q-13 -21 -50.5 -36t-78.5 -15q-46 0 -68 29t-22 90q0 36 6 94t6 80q0 32 -10 53t-25 21q-27 0 -68 -55.5t-90 -157.5q-101 -216 -157 -418.5t-56 -343.5q0 -66 15 -99.5t45 -33.5q48 0 128 85.5t126 198.5q3 10 10 27q24 69 59 94l8 6q49 37 72 37q22 0 52 -27.5t30 -50.5 q0 -45 -24 -117t-66 -151q-8 -17 -33.5 -47t-36.5 -49q-42 -72 -129.5 -123t-173.5 -51q-172 0 -253 77t-81 242z" />
<glyph unicode="&#xc8;" horiz-adv-x="834" d="M-16 55q0 69 153 703l33 139q84 350 118.5 425t80.5 75q10 0 25.5 -10.5t25.5 -10.5q6 0 41 8q164 37 301 37q25 0 52.5 -45t27.5 -73q0 -74 -41.5 -94.5t-206.5 -30.5l-33 -3q-94 -6 -100 -22q-1 -2 -2 -7q-12 -54 -31 -118q-21 -72 -34 -123t-13 -57t4.5 -8t15.5 -2 q2 0 83.5 10t160.5 10q42 0 60 -21.5t18 -86.5q0 -20 -11 -83q-1 -9 -1 -10q-14 -27 -227 -43q-16 -1 -25 -2q-6 0 -19 -1q-125 -9 -133 -44q-24 -114 -53 -222t-29 -112q0 -11 4 -15.5t15 -4.5q48 0 147.5 17.5t130.5 17.5q24 0 52 -32.5t28 -63.5q0 -23 -9 -51t-9 -33 q0 -4 4 -14t4 -15q0 -9 -4 -11.5t-17 -2.5h-12q-32 0 -128.5 -21t-162.5 -27q-83 -7 -154 -20q-14 -2 -16 -2q-15 0 -64.5 38t-49.5 62zM440 1663q0 29 62.5 78t89.5 49q15 0 83 -51q53 -39 89 -64q11 -7 39 -18q57 -23 57 -53q0 -19 -47 -56.5t-64 -37.5q-4 0 -68.5 26.5 t-150.5 65.5q-9 4 -29 10q-61 19 -61 51z" />
<glyph unicode="&#xc9;" horiz-adv-x="834" d="M-16 55q0 69 153 703l33 139q84 350 118.5 425t80.5 75q10 0 25.5 -10.5t25.5 -10.5q6 0 41 8q164 37 301 37q25 0 52.5 -45t27.5 -73q0 -74 -41.5 -94.5t-206.5 -30.5l-33 -3q-94 -6 -100 -22q-1 -2 -2 -7q-12 -54 -31 -118q-21 -72 -34 -123t-13 -57t4.5 -8t15.5 -2 q2 0 83.5 10t160.5 10q42 0 60 -21.5t18 -86.5q0 -20 -11 -83q-1 -9 -1 -10q-14 -27 -227 -43q-16 -1 -25 -2q-6 0 -19 -1q-125 -9 -133 -44q-24 -114 -53 -222t-29 -112q0 -11 4 -15.5t15 -4.5q48 0 147.5 17.5t130.5 17.5q24 0 52 -32.5t28 -63.5q0 -23 -9 -51t-9 -33 q0 -4 4 -14t4 -15q0 -9 -4 -11.5t-17 -2.5h-12q-32 0 -128.5 -21t-162.5 -27q-83 -7 -154 -20q-14 -2 -16 -2q-15 0 -64.5 38t-49.5 62zM489 1596q0 32 82 59q24 8 35 12q62 28 143 75.5t94 47.5q28 0 64.5 -41.5t36.5 -66.5q0 -44 -101 -72q-14 -4 -22 -6 q-72 -21 -162 -57.5t-98 -36.5q-17 0 -44.5 32t-27.5 54z" />
<glyph unicode="&#xca;" horiz-adv-x="834" d="M-16 55q0 69 153 703l33 139q84 350 118.5 425t80.5 75q10 0 25.5 -10.5t25.5 -10.5q6 0 41 8q164 37 301 37q25 0 52.5 -45t27.5 -73q0 -74 -41.5 -94.5t-206.5 -30.5l-33 -3q-94 -6 -100 -22q-1 -2 -2 -7q-12 -54 -31 -118q-21 -72 -34 -123t-13 -57t4.5 -8t15.5 -2 q2 0 83.5 10t160.5 10q42 0 60 -21.5t18 -86.5q0 -20 -11 -83q-1 -9 -1 -10q-14 -27 -227 -43q-16 -1 -25 -2q-6 0 -19 -1q-125 -9 -133 -44q-24 -114 -53 -222t-29 -112q0 -11 4 -15.5t15 -4.5q48 0 147.5 17.5t130.5 17.5q24 0 52 -32.5t28 -63.5q0 -23 -9 -51t-9 -33 q0 -4 4 -14t4 -15q0 -9 -4 -11.5t-17 -2.5h-12q-32 0 -128.5 -21t-162.5 -27q-83 -7 -154 -20q-14 -2 -16 -2q-15 0 -64.5 38t-49.5 62zM291 1540q0 14 36 53.5t111 108.5q23 21 56 51q56 53 73 53q3 0 8 -1t8 -1q10 0 32 3.5t34 3.5q8 0 26 -3.5t29 -3.5q3 0 12 1t15 1 q15 0 22 -17q9 -21 23 -42q44 -65 75 -125t31 -72q0 -13 -14.5 -24.5t-32.5 -11.5q-95 0 -123.5 6t-33.5 26q-19 57 -37.5 93t-28.5 36t-43.5 -34.5t-67.5 -83.5q-20 -29 -51.5 -36t-128.5 -7q-12 0 -21 8t-9 18z" />
<glyph unicode="&#xcb;" horiz-adv-x="834" d="M-16 55q0 69 153 703l33 139q84 350 118.5 425t80.5 75q10 0 25.5 -10.5t25.5 -10.5q6 0 41 8q164 37 301 37q25 0 52.5 -45t27.5 -73q0 -74 -41.5 -94.5t-206.5 -30.5l-33 -3q-94 -6 -100 -22q-1 -2 -2 -7q-12 -54 -31 -118q-21 -72 -34 -123t-13 -57t4.5 -8t15.5 -2 q2 0 83.5 10t160.5 10q42 0 60 -21.5t18 -86.5q0 -20 -11 -83q-1 -9 -1 -10q-14 -27 -227 -43q-16 -1 -25 -2q-6 0 -19 -1q-125 -9 -133 -44q-24 -114 -53 -222t-29 -112q0 -11 4 -15.5t15 -4.5q48 0 147.5 17.5t130.5 17.5q24 0 52 -32.5t28 -63.5q0 -23 -9 -51t-9 -33 q0 -4 4 -14t4 -15q0 -9 -4 -11.5t-17 -2.5h-12q-32 0 -128.5 -21t-162.5 -27q-83 -7 -154 -20q-14 -2 -16 -2q-15 0 -64.5 38t-49.5 62zM309 1618q0 40 49.5 101t118.5 61q35 0 64.5 -47t29.5 -72q0 -34 -49.5 -80.5t-89.5 -46.5q-48 0 -85.5 25t-37.5 59zM649 1618 q0 40 49.5 101t118.5 61q35 0 63.5 -46.5t28.5 -72.5q0 -34 -49 -80.5t-88 -46.5q-48 0 -85.5 25t-37.5 59z" />
<glyph unicode="&#xcc;" horiz-adv-x="514" d="M-23 49q0 20 78 353t181 726q14 55 32 140q36 166 111 166q64 0 103.5 -21.5t39.5 -54.5q0 -6 -22 -93.5t-49 -181.5q-10 -32 -25.5 -108t-28.5 -119q-24 -79 -38 -148q-2 -10 -3 -12q-60 -311 -130 -574q-8 -29 -9 -34q-2 -9 -5 -26q-26 -119 -75 -119q-42 0 -101 42 t-59 64zM281 1663q0 29 62.5 78t89.5 49q15 0 83 -51q53 -39 89 -64q11 -7 39 -18q57 -23 57 -53q0 -19 -47 -56.5t-64 -37.5q-4 0 -68.5 26.5t-150.5 65.5q-9 4 -29 10q-61 19 -61 51z" />
<glyph unicode="&#xcd;" horiz-adv-x="514" d="M-23 49q0 20 78 353t181 726q14 55 32 140q36 166 111 166q64 0 103.5 -21.5t39.5 -54.5q0 -6 -22 -93.5t-49 -181.5q-10 -32 -25.5 -108t-28.5 -119q-24 -79 -38 -148q-2 -10 -3 -12q-60 -311 -130 -574q-8 -29 -9 -34q-2 -9 -5 -26q-26 -119 -75 -119q-42 0 -101 42 t-59 64zM330 1596q0 32 82 59q24 8 35 12q62 28 143 75.5t94 47.5q28 0 64.5 -41.5t36.5 -66.5q0 -44 -101 -72q-14 -4 -22 -6q-72 -21 -162 -57.5t-98 -36.5q-17 0 -44.5 32t-27.5 54z" />
<glyph unicode="&#xce;" horiz-adv-x="514" d="M-23 49q0 20 78 353t181 726q14 55 32 140q36 166 111 166q64 0 103.5 -21.5t39.5 -54.5q0 -6 -22 -93.5t-49 -181.5q-10 -32 -25.5 -108t-28.5 -119q-24 -79 -38 -148q-2 -10 -3 -12q-60 -311 -130 -574q-8 -29 -9 -34q-2 -9 -5 -26q-26 -119 -75 -119q-42 0 -101 42 t-59 64zM132 1540q0 14 36 53.5t111 108.5q23 21 56 51q56 53 73 53q3 0 8 -1t8 -1q10 0 32 3.5t34 3.5q8 0 26 -3.5t29 -3.5q3 0 12 1t15 1q15 0 22 -17q9 -21 23 -42q44 -65 75 -125t31 -72q0 -13 -14.5 -24.5t-32.5 -11.5q-95 0 -123.5 6t-33.5 26q-19 57 -37.5 93 t-28.5 36t-43.5 -34.5t-67.5 -83.5q-20 -29 -51.5 -36t-128.5 -7q-12 0 -21 8t-9 18z" />
<glyph unicode="&#xcf;" horiz-adv-x="514" d="M-23 49q0 20 78 353t181 726q14 55 32 140q36 166 111 166q64 0 103.5 -21.5t39.5 -54.5q0 -6 -22 -93.5t-49 -181.5q-10 -32 -25.5 -108t-28.5 -119q-24 -79 -38 -148q-2 -10 -3 -12q-60 -311 -130 -574q-8 -29 -9 -34q-2 -9 -5 -26q-26 -119 -75 -119q-42 0 -101 42 t-59 64zM150 1618q0 40 49.5 101t118.5 61q35 0 64.5 -47t29.5 -72q0 -34 -49.5 -80.5t-89.5 -46.5q-48 0 -85.5 25t-37.5 59zM490 1618q0 40 49.5 101t118.5 61q35 0 63.5 -46.5t28.5 -72.5q0 -34 -49 -80.5t-88 -46.5q-48 0 -85.5 25t-37.5 59z" />
<glyph unicode="&#xd0;" horiz-adv-x="1038" d="M23 53q0 5 23 95.5t42 170.5q49 203 74 306q0 8 -11.5 13t-29.5 5q-26 0 -43 8t-17 17q0 1 1 5t1 5q0 7 -12 25t-12 34q0 50 106 64q34 4 47 8q15 3 25 67q4 25 6 39q26 139 62.5 284.5t36.5 160.5q0 11 -1.5 27.5t-1.5 21.5q0 29 53 42t173 13q57 0 137 -23t139 -59 q92 -54 141.5 -154.5t49.5 -234.5q0 -184 -95.5 -395.5t-257.5 -380.5q-105 -112 -237 -193t-178 -81q-21 0 -79 31q-32 17 -50 26t-48 21q-44 17 -44 32zM301 217q0 -5 4 -8.5t8 -3.5q15 0 81 56t126 132q111 138 169.5 292.5t58.5 309.5q0 114 -41.5 177t-114.5 63 q-67 0 -78 -67q-1 -8 -2 -13q-30 -157 -68 -296q-8 -27 -8 -30q0 -1 57.5 -14.5t57.5 -79.5q0 -13 1 -30t1 -21q0 -25 -34.5 -41t-90.5 -16h-3q-8 2 -15 2q-23 0 -36 -69q-1 -6 -1 -9q-28 -157 -65 -302q-7 -29 -7 -32z" />
<glyph unicode="&#xd1;" horiz-adv-x="1038" d="M-43 -10q0 23 50 254t118 489q16 60 62 239.5t77 295.5q5 16 11 44q15 66 49 66q19 0 69.5 -13t79.5 -28q15 -8 24.5 -40.5t18.5 -108.5q24 -206 65 -480t44 -337q59 363 160 800q8 35 12 52q7 31 18 82q35 159 105 159q63 0 99 -12.5t36 -34.5q0 -36 -74.5 -344 t-126.5 -557q-72 -341 -104.5 -435.5t-65.5 -94.5q-11 0 -37.5 7t-44.5 7h-18q-63 0 -104 176q-9 41 -15 66q-30 126 -60 319.5t-51 407.5q-46 -371 -131 -770q-9 -42 -12 -58v-1q-43 -210 -121 -210q-23 0 -47.5 18.5t-35.5 20.5q-5 1 -13 2q-37 6 -37 19zM445 1606 q0 31 69.5 96.5t124.5 65.5q31 0 91.5 -28t97.5 -28q28 0 50 21.5t30 21.5q23 0 64.5 -21t41.5 -40t-66.5 -80t-117.5 -61q-27 0 -79 27.5t-79 27.5q-46 0 -84.5 -30t-40.5 -30q-16 0 -59 23t-43 35z" />
<glyph unicode="&#xd2;" horiz-adv-x="1042" d="M18 406q0 179 65.5 387t182.5 397q72 116 160 187t160 71q32 0 104 -26t123 -40q70 -18 126 -130t56 -253q0 -190 -60 -384.5t-175 -372.5q-98 -151 -193 -227t-186 -76q-38 0 -77.5 14t-41.5 14q-88 0 -166 131t-78 308zM254 352q0 -88 24 -156.5t54 -68.5t86 46 t102 114q37 55 74.5 135t75.5 188q42 119 62 211.5t20 169.5q0 126 -21 200.5t-55 74.5q-23 0 -98.5 -80.5t-139.5 -188.5q-81 -139 -132.5 -322t-51.5 -323zM545 1663q0 29 62.5 78t89.5 49q15 0 83 -51q53 -39 89 -64q11 -7 39 -18q57 -23 57 -53q0 -19 -47 -56.5 t-64 -37.5q-4 0 -68.5 26.5t-150.5 65.5q-9 4 -29 10q-61 19 -61 51z" />
<glyph unicode="&#xd3;" horiz-adv-x="1042" d="M18 406q0 179 65.5 387t182.5 397q72 116 160 187t160 71q32 0 104 -26t123 -40q70 -18 126 -130t56 -253q0 -190 -60 -384.5t-175 -372.5q-98 -151 -193 -227t-186 -76q-38 0 -77.5 14t-41.5 14q-88 0 -166 131t-78 308zM254 352q0 -88 24 -156.5t54 -68.5t86 46 t102 114q37 55 74.5 135t75.5 188q42 119 62 211.5t20 169.5q0 126 -21 200.5t-55 74.5q-23 0 -98.5 -80.5t-139.5 -188.5q-81 -139 -132.5 -322t-51.5 -323zM594 1596q0 32 82 59q24 8 35 12q62 28 143 75.5t94 47.5q28 0 64.5 -41.5t36.5 -66.5q0 -44 -101 -72 q-14 -4 -22 -6q-72 -21 -162 -57.5t-98 -36.5q-17 0 -44.5 32t-27.5 54z" />
<glyph unicode="&#xd4;" horiz-adv-x="1042" d="M18 406q0 179 65.5 387t182.5 397q72 116 160 187t160 71q32 0 104 -26t123 -40q70 -18 126 -130t56 -253q0 -190 -60 -384.5t-175 -372.5q-98 -151 -193 -227t-186 -76q-38 0 -77.5 14t-41.5 14q-88 0 -166 131t-78 308zM254 352q0 -88 24 -156.5t54 -68.5t86 46 t102 114q37 55 74.5 135t75.5 188q42 119 62 211.5t20 169.5q0 126 -21 200.5t-55 74.5q-23 0 -98.5 -80.5t-139.5 -188.5q-81 -139 -132.5 -322t-51.5 -323zM396 1540q0 14 36 53.5t111 108.5q23 21 56 51q56 53 73 53q3 0 8 -1t8 -1q10 0 32 3.5t34 3.5q8 0 26 -3.5 t29 -3.5q3 0 12 1t15 1q15 0 22 -17q9 -21 23 -42q44 -65 75 -125t31 -72q0 -13 -14.5 -24.5t-32.5 -11.5q-95 0 -123.5 6t-33.5 26q-19 57 -37.5 93t-28.5 36t-43.5 -34.5t-67.5 -83.5q-20 -29 -51.5 -36t-128.5 -7q-12 0 -21 8t-9 18z" />
<glyph unicode="&#xd5;" horiz-adv-x="1042" d="M18 406q0 179 65.5 387t182.5 397q72 116 160 187t160 71q32 0 104 -26t123 -40q70 -18 126 -130t56 -253q0 -190 -60 -384.5t-175 -372.5q-98 -151 -193 -227t-186 -76q-38 0 -77.5 14t-41.5 14q-88 0 -166 131t-78 308zM254 352q0 -88 24 -156.5t54 -68.5t86 46 t102 114q37 55 74.5 135t75.5 188q42 119 62 211.5t20 169.5q0 126 -21 200.5t-55 74.5q-23 0 -98.5 -80.5t-139.5 -188.5q-81 -139 -132.5 -322t-51.5 -323zM447 1606q0 31 69.5 96.5t124.5 65.5q31 0 91.5 -28t97.5 -28q28 0 50 21.5t30 21.5q23 0 64.5 -21t41.5 -40 t-66.5 -80t-117.5 -61q-27 0 -79 27.5t-79 27.5q-46 0 -84.5 -30t-40.5 -30q-16 0 -59 23t-43 35z" />
<glyph unicode="&#xd6;" horiz-adv-x="1042" d="M18 406q0 179 65.5 387t182.5 397q72 116 160 187t160 71q32 0 104 -26t123 -40q70 -18 126 -130t56 -253q0 -190 -60 -384.5t-175 -372.5q-98 -151 -193 -227t-186 -76q-38 0 -77.5 14t-41.5 14q-88 0 -166 131t-78 308zM254 352q0 -88 24 -156.5t54 -68.5t86 46 t102 114q37 55 74.5 135t75.5 188q42 119 62 211.5t20 169.5q0 126 -21 200.5t-55 74.5q-23 0 -98.5 -80.5t-139.5 -188.5q-81 -139 -132.5 -322t-51.5 -323zM414 1618q0 40 49.5 101t118.5 61q35 0 64.5 -47t29.5 -72q0 -34 -49.5 -80.5t-89.5 -46.5q-48 0 -85.5 25 t-37.5 59zM754 1618q0 40 49.5 101t118.5 61q35 0 63.5 -46.5t28.5 -72.5q0 -34 -49 -80.5t-88 -46.5q-48 0 -85.5 25t-37.5 59z" />
<glyph unicode="&#xd7;" horiz-adv-x="1706" d="M287 152l458 458l-458 461l116 117l459 -459l461 459l117 -117l-459 -461l459 -458l-117 -119l-461 461l-459 -461z" />
<glyph unicode="&#xd8;" horiz-adv-x="1042" d="M-211 -84q0 19 91 115.5t159 185.5q-11 33 -16 70.5t-5 87.5q0 199 63 394.5t193 404.5q84 133 168 198.5t170 65.5q16 0 60 -15.5t87 -39.5q11 -6 38 -12q78 -17 123 -83q11 14 32 38q155 183 234 183q45 0 70.5 -18.5t25.5 -48.5q0 -6 -105.5 -94t-201.5 -201 q10 -54 15 -99.5t5 -84.5q0 -178 -75 -388.5t-203 -388.5q-74 -101 -164.5 -170t-142.5 -69q-23 0 -48 -3q-8 -1 -10 -1q-6 0 -45 12t-71 20q-30 8 -86 62q-26 25 -42 38q-71 -76 -148.5 -166.5t-84.5 -90.5q-47 0 -65.5 13.5t-18.5 53.5q0 10 -1 20.5zM242 260 q9 -31 21 -79q18 -72 38 -72q53 0 126 66.5t140 180.5q86 147 136 285.5t54 242.5zM248 455l512 628v35q0 57 -29.5 98t-58.5 41q-24 0 -91 -70.5t-141 -174.5q-79 -112 -132 -265.5t-60 -291.5z" />
<glyph unicode="&#xd9;" horiz-adv-x="1006" d="M23 270q0 68 44 277.5t113 429.5q30 95 67 235q47 174 77 174q60 0 120 -24.5t60 -48.5q0 -7 -43.5 -166t-100.5 -348q-48 -165 -75 -298.5t-27 -203.5q0 -71 19 -106t57 -35q150 0 286 539q15 58 23 89q39 154 82 376q50 257 102 257q62 0 121.5 -19.5t59.5 -41.5 l-21 -76.5t-41 -165.5q-7 -32 -51.5 -242t-83.5 -372q-37 -149 -80.5 -254t-89.5 -158q-55 -63 -136.5 -105t-146.5 -42q-43 0 -93 25l-3 1q-58 26 -99.5 47.5t-53.5 32.5q-42 37 -64 94.5t-22 128.5zM526 1663q0 29 62.5 78t89.5 49q15 0 83 -51q53 -39 89 -64 q11 -7 39 -18q57 -23 57 -53q0 -19 -47 -56.5t-64 -37.5q-4 0 -68.5 26.5t-150.5 65.5q-9 4 -29 10q-61 19 -61 51z" />
<glyph unicode="&#xda;" horiz-adv-x="1006" d="M23 270q0 68 44 277.5t113 429.5q30 95 67 235q47 174 77 174q60 0 120 -24.5t60 -48.5q0 -7 -43.5 -166t-100.5 -348q-48 -165 -75 -298.5t-27 -203.5q0 -71 19 -106t57 -35q150 0 286 539q15 58 23 89q39 154 82 376q50 257 102 257q62 0 121.5 -19.5t59.5 -41.5 l-21 -76.5t-41 -165.5q-7 -32 -51.5 -242t-83.5 -372q-37 -149 -80.5 -254t-89.5 -158q-55 -63 -136.5 -105t-146.5 -42q-43 0 -93 25l-3 1q-58 26 -99.5 47.5t-53.5 32.5q-42 37 -64 94.5t-22 128.5zM575 1596q0 32 82 59q24 8 35 12q62 28 143 75.5t94 47.5 q28 0 64.5 -41.5t36.5 -66.5q0 -44 -101 -72q-14 -4 -22 -6q-72 -21 -162 -57.5t-98 -36.5q-17 0 -44.5 32t-27.5 54z" />
<glyph unicode="&#xdb;" horiz-adv-x="1006" d="M23 270q0 68 44 277.5t113 429.5q30 95 67 235q47 174 77 174q60 0 120 -24.5t60 -48.5q0 -7 -43.5 -166t-100.5 -348q-48 -165 -75 -298.5t-27 -203.5q0 -71 19 -106t57 -35q150 0 286 539q15 58 23 89q39 154 82 376q50 257 102 257q62 0 121.5 -19.5t59.5 -41.5 l-21 -76.5t-41 -165.5q-7 -32 -51.5 -242t-83.5 -372q-37 -149 -80.5 -254t-89.5 -158q-55 -63 -136.5 -105t-146.5 -42q-43 0 -93 25l-3 1q-58 26 -99.5 47.5t-53.5 32.5q-42 37 -64 94.5t-22 128.5zM377 1540q0 14 36 53.5t111 108.5q23 21 56 51q56 53 73 53q3 0 8 -1 t8 -1q10 0 32 3.5t34 3.5q8 0 26 -3.5t29 -3.5q3 0 12 1t15 1q15 0 22 -17q9 -21 23 -42q44 -65 75 -125t31 -72q0 -13 -14.5 -24.5t-32.5 -11.5q-95 0 -123.5 6t-33.5 26q-19 57 -37.5 93t-28.5 36t-43.5 -34.5t-67.5 -83.5q-20 -29 -51.5 -36t-128.5 -7q-12 0 -21 8t-9 18 z" />
<glyph unicode="&#xdc;" horiz-adv-x="1006" d="M23 270q0 68 44 277.5t113 429.5q30 95 67 235q47 174 77 174q60 0 120 -24.5t60 -48.5q0 -7 -43.5 -166t-100.5 -348q-48 -165 -75 -298.5t-27 -203.5q0 -71 19 -106t57 -35q150 0 286 539q15 58 23 89q39 154 82 376q50 257 102 257q62 0 121.5 -19.5t59.5 -41.5 l-21 -76.5t-41 -165.5q-7 -32 -51.5 -242t-83.5 -372q-37 -149 -80.5 -254t-89.5 -158q-55 -63 -136.5 -105t-146.5 -42q-43 0 -93 25l-3 1q-58 26 -99.5 47.5t-53.5 32.5q-42 37 -64 94.5t-22 128.5zM395 1618q0 40 49.5 101t118.5 61q35 0 64.5 -47t29.5 -72 q0 -34 -49.5 -80.5t-89.5 -46.5q-48 0 -85.5 25t-37.5 59zM735 1618q0 40 49.5 101t118.5 61q35 0 63.5 -46.5t28.5 -72.5q0 -34 -49 -80.5t-88 -46.5q-48 0 -85.5 25t-37.5 59z" />
<glyph unicode="&#xdd;" horiz-adv-x="860" d="M113 41q0 14 23 111.5t57 205.5q4 14 11 37q32 98 32 123q0 44 -41 314t-41 481q0 6 17 37.5t26 31.5q1 0 4.5 -1t5.5 -1q4 0 11 3t9 3q7 0 17.5 -10t21.5 -10q3 0 8 1t7 1q25 0 41 -22t34 -95q54 -204 75 -369q5 -34 7 -34q9 0 113.5 163t210.5 310q16 22 43 60 q105 147 133 147q29 0 75 -36.5t46 -59.5q0 -24 -199.5 -318.5t-363.5 -581.5q-14 -23 -98 -311l-37 -126q-6 -18 -13 -48q-20 -84 -65 -84q-35 0 -102.5 27.5t-67.5 50.5zM502 1596q0 32 82 59q24 8 35 12q62 28 143 75.5t94 47.5q28 0 64.5 -41.5t36.5 -66.5 q0 -44 -101 -72q-14 -4 -22 -6q-72 -21 -162 -57.5t-98 -36.5q-17 0 -44.5 32t-27.5 54z" />
<glyph unicode="&#xde;" horiz-adv-x="872" d="M-35 6q0 60 107 497t178 771q2 9 5 26q22 119 210 119q16 0 31.5 -20.5t15.5 -44.5q0 -1 -22.5 -72t-22.5 -102q0 -2 1.5 -3t10.5 -1h27q140 0 237 -102t97 -226q0 -84 -50.5 -189t-136.5 -198q-126 -136 -340 -214q-17 -7 -25 -10q-4 -1 -12 -4q-32 -12 -36 -34 q-13 -70 -46 -151q-10 -24 -10 -28t3 -11.5t3 -10.5q0 -24 -23.5 -48t-51.5 -24q-46 0 -98 28.5t-52 51.5zM299 471q0 -2 2.5 -3t11.5 -1q90 0 177.5 123t87.5 274q0 50 -22.5 69t-80.5 19q-31 0 -46 -2t-17 -5q-5 -6 -21 -57.5t-24 -102.5q-9 -61 -38.5 -171.5 t-29.5 -142.5z" />
<glyph unicode="&#xdf;" horiz-adv-x="891" d="M-23 16q0 6 23.5 104t52.5 210q28 106 58 210.5t30 108.5q0 18 -46 25.5t-46 42.5q0 12 31 55t43 51q16 13 42 17t32 27q29 145 66.5 260.5t64.5 152.5q21 29 108 83l10 7l7 4q92 62 139 62q27 0 87 -30.5t108 -74.5q5 -5 17 -15q64 -56 64 -130q0 -61 -37 -147.5 t-87 -140.5q-17 -19 -42.5 -40t-25.5 -33q0 -6 41.5 -38.5t60.5 -71.5q14 -27 21.5 -55.5t7.5 -49.5q0 -23 -11.5 -78t-31.5 -120q-2 -7 -6 -23q-35 -121 -66 -174q-67 -114 -168 -193t-147 -79q-33 0 -75 22t-42 39q0 3 3 10t3 13q0 2 -3 11t-3 13q0 18 27 60.5t41 42.5 q4 0 13.5 -2t14.5 -2q41 0 89 78q17 28 28 44q37 58 66.5 152t29.5 151t-18.5 86t-72.5 45q-24 8 -40 21.5t-16 24.5q0 37 63.5 83.5t83.5 69.5q46 54 76.5 137t30.5 144q0 31 -22.5 54.5t-51.5 23.5q-44 0 -79.5 -35.5t-55.5 -100.5q-15 -43 -38 -145t-38 -156 q-50 -178 -81 -323q-4 -18 -5 -21t-4 -14q-47 -160 -94 -383q-2 -7 -4 -20q-24 -115 -76 -115q-42 0 -96 20.5t-54 44.5z" />
<glyph unicode="&#xe0;" horiz-adv-x="664" d="M-59 178q0 27 25.5 81.5t53.5 78.5q60 50 143 89.5t118 39.5q9 0 22.5 -1t18.5 -1q13 0 19.5 8t12.5 33q17 63 31 124.5t14 65.5q0 9 -4.5 17t-9.5 8q-14 0 -62 -56q-34 -39 -55 -61q-27 -27 -61 -67q-45 -52 -68 -52q-21 0 -59.5 21.5t-38.5 44.5q0 20 47.5 94 t108.5 139q65 71 107 102.5t71 31.5q18 0 47.5 -23t44.5 -31q8 -4 24 -11q97 -43 97 -134q0 -40 -30.5 -175.5t-96.5 -387.5q-10 -37 -21 -93q-22 -110 -86 -110q-42 0 -64 15t-37 52q-57 -20 -95.5 -29t-65.5 -9q-55 0 -100 46t-45 91v16q0 9 -3 23.5t-3 19.5zM90 186 q0 -15 8.5 -21.5t28.5 -6.5q103 0 137.5 25.5t34.5 95.5q0 9 -5 14.5t-13 5.5q-49 0 -120 -42t-71 -71zM285 1157q0 29 62.5 78t89.5 49q15 0 83 -51q53 -39 89 -64q11 -7 39 -18q57 -23 57 -53q0 -19 -47 -56.5t-64 -37.5q-4 0 -68.5 26.5t-150.5 65.5q-9 4 -29 10 q-61 19 -61 51z" />
<glyph unicode="&#xe1;" horiz-adv-x="664" d="M-59 178q0 27 25.5 81.5t53.5 78.5q60 50 143 89.5t118 39.5q9 0 22.5 -1t18.5 -1q13 0 19.5 8t12.5 33q17 63 31 124.5t14 65.5q0 9 -4.5 17t-9.5 8q-14 0 -62 -56q-34 -39 -55 -61q-27 -27 -61 -67q-45 -52 -68 -52q-21 0 -59.5 21.5t-38.5 44.5q0 20 47.5 94 t108.5 139q65 71 107 102.5t71 31.5q18 0 47.5 -23t44.5 -31q8 -4 24 -11q97 -43 97 -134q0 -40 -30.5 -175.5t-96.5 -387.5q-10 -37 -21 -93q-22 -110 -86 -110q-42 0 -64 15t-37 52q-57 -20 -95.5 -29t-65.5 -9q-55 0 -100 46t-45 91v16q0 9 -3 23.5t-3 19.5zM90 186 q0 -15 8.5 -21.5t28.5 -6.5q103 0 137.5 25.5t34.5 95.5q0 9 -5 14.5t-13 5.5q-49 0 -120 -42t-71 -71zM334 1090q0 32 82 59q24 8 35 12q62 28 143 75.5t94 47.5q28 0 64.5 -41.5t36.5 -66.5q0 -44 -101 -72q-14 -4 -22 -6q-72 -21 -162 -57.5t-98 -36.5q-17 0 -44.5 32 t-27.5 54z" />
<glyph unicode="&#xe2;" horiz-adv-x="664" d="M-59 178q0 27 25.5 81.5t53.5 78.5q60 50 143 89.5t118 39.5q9 0 22.5 -1t18.5 -1q13 0 19.5 8t12.5 33q17 63 31 124.5t14 65.5q0 9 -4.5 17t-9.5 8q-14 0 -62 -56q-34 -39 -55 -61q-27 -27 -61 -67q-45 -52 -68 -52q-21 0 -59.5 21.5t-38.5 44.5q0 20 47.5 94 t108.5 139q65 71 107 102.5t71 31.5q18 0 47.5 -23t44.5 -31q8 -4 24 -11q97 -43 97 -134q0 -40 -30.5 -175.5t-96.5 -387.5q-10 -37 -21 -93q-22 -110 -86 -110q-42 0 -64 15t-37 52q-57 -20 -95.5 -29t-65.5 -9q-55 0 -100 46t-45 91v16q0 9 -3 23.5t-3 19.5zM90 186 q0 -15 8.5 -21.5t28.5 -6.5q103 0 137.5 25.5t34.5 95.5q0 9 -5 14.5t-13 5.5q-49 0 -120 -42t-71 -71zM136 1034q0 14 36 53.5t111 108.5q23 21 56 51q56 53 73 53q3 0 8 -1t8 -1q10 0 32 3.5t34 3.5q8 0 26 -3.5t29 -3.5q3 0 12 1t15 1q15 0 22 -17q9 -21 23 -42 q44 -65 75 -125t31 -72q0 -13 -14.5 -24.5t-32.5 -11.5q-95 0 -123.5 6t-33.5 26q-19 57 -37.5 93t-28.5 36t-43.5 -34.5t-67.5 -83.5q-20 -29 -51.5 -36t-128.5 -7q-12 0 -21 8t-9 18z" />
<glyph unicode="&#xe3;" horiz-adv-x="664" d="M-59 178q0 27 25.5 81.5t53.5 78.5q60 50 143 89.5t118 39.5q9 0 22.5 -1t18.5 -1q13 0 19.5 8t12.5 33q17 63 31 124.5t14 65.5q0 9 -4.5 17t-9.5 8q-14 0 -62 -56q-34 -39 -55 -61q-27 -27 -61 -67q-45 -52 -68 -52q-21 0 -59.5 21.5t-38.5 44.5q0 20 47.5 94 t108.5 139q65 71 107 102.5t71 31.5q18 0 47.5 -23t44.5 -31q8 -4 24 -11q97 -43 97 -134q0 -40 -30.5 -175.5t-96.5 -387.5q-10 -37 -21 -93q-22 -110 -86 -110q-42 0 -64 15t-37 52q-57 -20 -95.5 -29t-65.5 -9q-55 0 -100 46t-45 91v16q0 9 -3 23.5t-3 19.5zM90 186 q0 -15 8.5 -21.5t28.5 -6.5q103 0 137.5 25.5t34.5 95.5q0 9 -5 14.5t-13 5.5q-49 0 -120 -42t-71 -71zM187 1100q0 31 69.5 96.5t124.5 65.5q31 0 91.5 -28t97.5 -28q28 0 50 21.5t30 21.5q23 0 64.5 -21t41.5 -40t-66.5 -80t-117.5 -61q-27 0 -79 27.5t-79 27.5 q-46 0 -84.5 -30t-40.5 -30q-16 0 -59 23t-43 35z" />
<glyph unicode="&#xe4;" horiz-adv-x="664" d="M-59 178q0 27 25.5 81.5t53.5 78.5q60 50 143 89.5t118 39.5q9 0 22.5 -1t18.5 -1q13 0 19.5 8t12.5 33q17 63 31 124.5t14 65.5q0 9 -4.5 17t-9.5 8q-14 0 -62 -56q-34 -39 -55 -61q-27 -27 -61 -67q-45 -52 -68 -52q-21 0 -59.5 21.5t-38.5 44.5q0 20 47.5 94 t108.5 139q65 71 107 102.5t71 31.5q18 0 47.5 -23t44.5 -31q8 -4 24 -11q97 -43 97 -134q0 -40 -30.5 -175.5t-96.5 -387.5q-10 -37 -21 -93q-22 -110 -86 -110q-42 0 -64 15t-37 52q-57 -20 -95.5 -29t-65.5 -9q-55 0 -100 46t-45 91v16q0 9 -3 23.5t-3 19.5zM90 186 q0 -15 8.5 -21.5t28.5 -6.5q103 0 137.5 25.5t34.5 95.5q0 9 -5 14.5t-13 5.5q-49 0 -120 -42t-71 -71zM154 1112q0 40 49.5 101t118.5 61q35 0 64.5 -47t29.5 -72q0 -34 -49.5 -80.5t-89.5 -46.5q-48 0 -85.5 25t-37.5 59zM494 1112q0 40 49.5 101t118.5 61 q35 0 63.5 -46.5t28.5 -72.5q0 -34 -49 -80.5t-88 -46.5q-48 0 -85.5 25t-37.5 59z" />
<glyph unicode="&#xe5;" horiz-adv-x="664" d="M-59 178q0 27 25.5 81.5t53.5 78.5q59 50 143.5 89.5t119.5 39.5q9 0 21.5 -1t17.5 -1q14 0 21 8.5t13 32.5q17 62 30 123t13 67q0 9 -4.5 17t-9.5 8q-14 0 -62 -56q-34 -39 -55 -61q-28 -29 -63 -70q-41 -49 -64 -49q-22 0 -61 21.5t-39 44.5q0 19 48.5 93t109.5 140 q67 73 107.5 103.5t68.5 30.5q18 0 47.5 -23t44.5 -31q8 -4 24 -11q97 -43 97 -134q0 -57 -100 -453l-15 -59q-9 -37 -23 -100q-34 -154 -94 -154q-43 0 -66 15t-37 52q-57 -20 -95.5 -29t-65.5 -9q-55 0 -100 46t-45 91v16q0 9 -3 23.5t-3 19.5zM90 186q0 -15 8.5 -21.5 t28.5 -6.5q103 0 137.5 25.5t34.5 95.5q0 9 -5 14.5t-13 5.5q-49 0 -120 -42t-71 -71zM238 1110q0 75 86.5 165.5t124.5 90.5q111 0 166 -35.5t55 -107.5q0 -74 -87.5 -161t-162.5 -87q-85 0 -133.5 37t-48.5 98zM369 1124q0 -31 12 -51t31 -20q29 0 78 60.5t49 115.5 q0 22 -13 37.5t-30 15.5q-34 0 -80.5 -54t-46.5 -104z" />
<glyph unicode="&#xe6;" horiz-adv-x="981" d="M-59 178q0 27 25.5 81.5t53.5 78.5q60 50 143 89.5t118 39.5q9 0 22.5 -1t18.5 -1q13 0 19.5 8t12.5 33q17 63 31 124.5t14 65.5q0 9 -4.5 17t-9.5 8q-14 0 -62 -56q-34 -39 -55 -61q-27 -27 -61 -67q-45 -52 -68 -52q-21 0 -59.5 21.5t-38.5 44.5q0 20 48 94t110 139 q69 75 108 104.5t68 29.5q19 0 73 -41t72 -41q4 0 17 15q58 67 131 67q22 0 63 -11t98 -33q38 -13 57 -55t19 -108q0 -111 -41 -252q-7 -26 -10 -37q-7 -26 -50 -28q-35 -1 -61 -5q-113 -17 -173.5 -29.5t-75.5 -21.5q-18 -10 -35 -66t-17 -100q0 -15 11.5 -26t27.5 -11 q28 0 83 36t118 95q11 12 30 32q41 44 58 44q30 0 54 -22t24 -52q0 -7 -8.5 -16.5t-8.5 -18.5q0 -2 1.5 -6t1.5 -6q0 -12 -43 -69t-93 -99q-78 -66 -118.5 -85t-87.5 -19q-40 0 -107 42t-70 42q-4 0 -65 -34t-123 -34q-77 0 -128.5 50t-51.5 104v18q0 9 -3 22.5t-3 18.5z M84 180q0 -18 9 -25.5t34 -7.5q104 0 140 30t36 108q0 11 -4.5 16.5t-13.5 5.5q-51 0 -126 -46.5t-75 -80.5zM543 518q0 -4 3.5 -6t10.5 -2q8 0 69.5 12.5t74.5 18.5q6 2 17 59t11 113q0 27 -8 41t-23 14q-9 0 -24 -19t-41 -67q-19 -34 -49 -86q-41 -72 -41 -78z" />
<glyph unicode="&#xe7;" horiz-adv-x="664" d="M-139 -383q0 21 22 48.5t41 27.5q5 0 30 -12q94 -46 173 -46q48 0 79 22.5t31 55.5q0 28 -21.5 44t-59.5 16q-3 0 -17.5 -1t-25.5 -1q-14 0 -24.5 8.5t-10.5 19.5q0 15 21.5 70.5t58.5 130.5h73q-8 -26 -23.5 -64t-15.5 -49q0 -9 6.5 -16.5t14.5 -7.5q4 0 17.5 1t21.5 1 q67 0 106 -33.5t39 -91.5q0 -91 -73.5 -147t-196.5 -56q-91 0 -178.5 28.5t-87.5 51.5zM-27 170q0 116 51 267.5t136 283.5q59 95 108.5 149t75.5 54t81.5 -17.5t84.5 -23.5q40 -9 74 -34.5t34 -49.5q0 -37 -17.5 -120t-37.5 -130q-9 -24 -39.5 -44t-50.5 -20q-5 0 -18 7.5 t-23 7.5h-8q-19 0 -30 19t-11 52q0 35 14.5 81.5t14.5 58.5q-1 11 -4 14.5t-11 3.5q-25 0 -68 -94q-27 -60 -46 -98q-50 -98 -86.5 -222.5t-36.5 -160.5q0 -16 6 -27.5t14 -11.5q32 0 98 67q23 24 35 35q29 26 70.5 97t69.5 71q24 0 58 -36.5t34 -61.5q0 -14 -33.5 -78.5 t-71.5 -108.5q-56 -66 -115.5 -105.5t-101.5 -39.5q-33 0 -64 13t-89 57q-68 50 -82.5 75.5t-14.5 69.5z" />
<glyph unicode="&#xe8;" horiz-adv-x="694" d="M-29 182q0 118 64 283.5t176 329.5q49 70 86 96.5t82 26.5q23 0 64.5 -11t97.5 -33q37 -13 56 -55t19 -108q0 -113 -40 -256q-6 -23 -9 -34q-7 -25 -51 -27q-36 -1 -61 -5q-114 -17 -174.5 -29.5t-75.5 -21.5q-18 -10 -34.5 -66t-16.5 -100q0 -15 11 -26t28 -11 q27 0 82.5 36t117.5 95q12 12 30 32q42 44 58 44q31 0 55.5 -22t24.5 -52q0 -7 -8 -16.5t-8 -18.5v-12q0 -12 -43 -69t-92 -99q-74 -64 -116 -84t-91 -20q-30 0 -63 18.5t-50 24.5q-20 7 -69 70q-7 9 -11 14q-3 4 -9 10q-30 31 -30 96zM266 522q0 -3 3.5 -5.5t6.5 -2.5 q5 0 60.5 13t67.5 18q6 2 17 58t11 104q0 26 -6.5 39.5t-19.5 13.5q-9 0 -23 -18.5t-37 -61.5l-10 -20q-70 -130 -70 -138zM301 1157q0 29 62.5 78t89.5 49q15 0 83 -51q53 -39 89 -64q11 -7 39 -18q57 -23 57 -53q0 -19 -47 -56.5t-64 -37.5q-4 0 -68.5 26.5t-150.5 65.5 q-9 4 -29 10q-61 19 -61 51z" />
<glyph unicode="&#xe9;" horiz-adv-x="694" d="M-29 182q0 118 64 283.5t176 329.5q49 70 86 96.5t82 26.5q23 0 64.5 -11t97.5 -33q37 -13 56 -55t19 -108q0 -113 -40 -256q-6 -23 -9 -34q-7 -25 -51 -27q-36 -1 -61 -5q-114 -17 -174.5 -29.5t-75.5 -21.5q-18 -10 -34.5 -66t-16.5 -100q0 -15 11 -26t28 -11 q27 0 82.5 36t117.5 95q12 12 30 32q42 44 58 44q31 0 55.5 -22t24.5 -52q0 -7 -8 -16.5t-8 -18.5v-12q0 -12 -43 -69t-92 -99q-74 -64 -116 -84t-91 -20q-30 0 -63 18.5t-50 24.5q-20 7 -69 70q-7 9 -11 14q-3 4 -9 10q-30 31 -30 96zM266 522q0 -3 3.5 -5.5t6.5 -2.5 q5 0 60.5 13t67.5 18q6 2 17 58t11 104q0 26 -6.5 39.5t-19.5 13.5q-9 0 -23 -18.5t-37 -61.5l-10 -20q-70 -130 -70 -138zM350 1090q0 32 82 59q24 8 35 12q62 28 143 75.5t94 47.5q28 0 64.5 -41.5t36.5 -66.5q0 -44 -101 -72q-14 -4 -22 -6q-72 -21 -162 -57.5t-98 -36.5 q-17 0 -44.5 32t-27.5 54z" />
<glyph unicode="&#xea;" horiz-adv-x="694" d="M-29 182q0 118 64 283.5t176 329.5q49 70 86 96.5t82 26.5q23 0 64.5 -11t97.5 -33q37 -13 56 -55t19 -108q0 -113 -40 -256q-6 -23 -9 -34q-7 -25 -51 -27q-36 -1 -61 -5q-114 -17 -174.5 -29.5t-75.5 -21.5q-18 -10 -34.5 -66t-16.5 -100q0 -15 11 -26t28 -11 q27 0 82.5 36t117.5 95q12 12 30 32q42 44 58 44q31 0 55.5 -22t24.5 -52q0 -7 -8 -16.5t-8 -18.5v-12q0 -12 -43 -69t-92 -99q-74 -64 -116 -84t-91 -20q-30 0 -63 18.5t-50 24.5q-20 7 -69 70q-7 9 -11 14q-3 4 -9 10q-30 31 -30 96zM152 1034q0 14 36 53.5t111 108.5 q23 21 56 51q56 53 73 53q3 0 8 -1t8 -1q10 0 32 3.5t34 3.5q8 0 26 -3.5t29 -3.5q3 0 12 1t15 1q15 0 22 -17q9 -21 23 -42q44 -65 75 -125t31 -72q0 -13 -14.5 -24.5t-32.5 -11.5q-95 0 -123.5 6t-33.5 26q-19 57 -37.5 93t-28.5 36t-43.5 -34.5t-67.5 -83.5 q-20 -29 -51.5 -36t-128.5 -7q-12 0 -21 8t-9 18zM266 522q0 -3 3.5 -5.5t6.5 -2.5q5 0 60.5 13t67.5 18q6 2 17 58t11 104q0 26 -6.5 39.5t-19.5 13.5q-9 0 -23 -18.5t-37 -61.5l-10 -20q-70 -130 -70 -138z" />
<glyph unicode="&#xeb;" horiz-adv-x="694" d="M-29 182q0 118 64 283.5t176 329.5q49 70 86 96.5t82 26.5q23 0 64.5 -11t97.5 -33q37 -13 56 -55t19 -108q0 -113 -40 -256q-6 -23 -9 -34q-7 -25 -51 -27q-36 -1 -61 -5q-114 -17 -174.5 -29.5t-75.5 -21.5q-18 -10 -34.5 -66t-16.5 -100q0 -15 11 -26t28 -11 q27 0 82.5 36t117.5 95q12 12 30 32q42 44 58 44q31 0 55.5 -22t24.5 -52q0 -7 -8 -16.5t-8 -18.5v-12q0 -12 -43 -69t-92 -99q-74 -64 -116 -84t-91 -20q-30 0 -63 18.5t-50 24.5q-20 7 -69 70q-7 9 -11 14q-3 4 -9 10q-30 31 -30 96zM170 1112q0 40 49.5 101t118.5 61 q35 0 64.5 -47t29.5 -72q0 -34 -49.5 -80.5t-89.5 -46.5q-48 0 -85.5 25t-37.5 59zM266 522q0 -3 3.5 -5.5t6.5 -2.5q5 0 60.5 13t67.5 18q6 2 17 58t11 104q0 26 -6.5 39.5t-19.5 13.5q-9 0 -23 -18.5t-37 -61.5l-10 -20q-70 -130 -70 -138zM510 1112q0 40 49.5 101 t118.5 61q35 0 63.5 -46.5t28.5 -72.5q0 -34 -49 -80.5t-88 -46.5q-48 0 -85.5 25t-37.5 59z" />
<glyph unicode="&#xec;" horiz-adv-x="426" d="M-25 25q0 15 11.5 83t29.5 148q43 187 80.5 340.5t46.5 187.5q5 16 13 43q23 82 73 82q70 0 109 -19t39 -52q0 -7 -50.5 -201t-93.5 -361q-15 -62 -34 -157q-33 -162 -101 -162q-54 0 -88.5 18t-34.5 50zM154 1157q0 29 62.5 78t89.5 49q15 0 83 -51q53 -39 89 -64 q11 -7 39 -18q57 -23 57 -53q0 -19 -47 -56.5t-64 -37.5q-4 0 -68.5 26.5t-150.5 65.5q-9 4 -29 10q-61 19 -61 51z" />
<glyph unicode="&#xed;" horiz-adv-x="426" d="M-25 25q0 15 11.5 83t29.5 148q43 187 80.5 340.5t46.5 187.5q5 16 13 43q23 82 73 82q70 0 109 -19t39 -52q0 -7 -50.5 -201t-93.5 -361q-15 -62 -34 -157q-33 -162 -101 -162q-54 0 -88.5 18t-34.5 50zM203 1090q0 32 82 59q24 8 35 12q62 28 143 75.5t94 47.5 q28 0 64.5 -41.5t36.5 -66.5q0 -44 -101 -72q-14 -4 -22 -6q-72 -21 -162 -57.5t-98 -36.5q-17 0 -44.5 32t-27.5 54z" />
<glyph unicode="&#xee;" horiz-adv-x="426" d="M-25 25q0 15 11.5 83t29.5 148q43 187 80.5 340.5t46.5 187.5q5 16 13 43q23 82 73 82q70 0 109 -19t39 -52q0 -7 -50.5 -201t-93.5 -361q-15 -62 -34 -157q-33 -162 -101 -162q-54 0 -88.5 18t-34.5 50zM5 1034q0 14 36 53.5t111 108.5q23 21 56 51q56 53 73 53 q3 0 8 -1t8 -1q10 0 32 3.5t34 3.5q8 0 26 -3.5t29 -3.5q3 0 12 1t15 1q15 0 22 -17q9 -21 23 -42q44 -65 75 -125t31 -72q0 -13 -14.5 -24.5t-32.5 -11.5q-95 0 -123.5 6t-33.5 26q-19 57 -37.5 93t-28.5 36t-43.5 -34.5t-67.5 -83.5q-20 -29 -51.5 -36t-128.5 -7 q-12 0 -21 8t-9 18z" />
<glyph unicode="&#xef;" horiz-adv-x="426" d="M-25 25q0 15 11.5 83t29.5 148q43 187 80.5 340.5t46.5 187.5q5 16 13 43q23 82 73 82q70 0 109 -19t39 -52q0 -7 -50.5 -201t-93.5 -361q-15 -62 -34 -157q-33 -162 -101 -162q-54 0 -88.5 18t-34.5 50zM23 1112q0 40 49.5 101t118.5 61q35 0 64.5 -47t29.5 -72 q0 -34 -49.5 -80.5t-89.5 -46.5q-48 0 -85.5 25t-37.5 59zM363 1112q0 40 49.5 101t118.5 61q35 0 63.5 -46.5t28.5 -72.5q0 -34 -49 -80.5t-88 -46.5q-48 0 -85.5 25t-37.5 59z" />
<glyph unicode="&#xf0;" horiz-adv-x="707" d="M-37 176q0 112 37.5 233t128.5 293q58 110 103.5 156.5t95.5 46.5q18 0 42 -9t66 -32q-9 74 -36 148.5t-35 74.5q-52 -22 -129 -61q-35 -18 -60 -29q-3 0 -13.5 16.5t-10.5 26.5q0 64 85 102t85 44t-17.5 29t-17.5 38q0 28 52.5 82t115.5 54q10 0 20.5 -30.5t24.5 -54.5 q8 -14 18 -35q12 -26 19 -26q10 0 74 33t91 33q29 0 53.5 -18.5t24.5 -39.5q0 -12 -10.5 -31.5t-25.5 -23.5q-79 -17 -125 -33t-46 -26q0 -7 12 -41q58 -174 58 -338q0 -161 -44 -325.5t-118 -280.5q-54 -85 -127.5 -142t-122.5 -57q-38 0 -155 63q-34 19 -53 29 q-25 13 -42.5 49.5t-17.5 81.5zM172 178q0 -23 6.5 -37t16.5 -14q24 0 55 39t78 129q44 83 66 169t22 175q0 44 -5.5 64t-17.5 20q-15 0 -36 -28t-64 -107q-60 -112 -90.5 -215.5t-30.5 -194.5z" />
<glyph unicode="&#xf1;" horiz-adv-x="768" d="M-29 41q0 20 30 177t71 319q15 64 36 158q37 169 89 169q51 0 77.5 -12.5t26.5 -36.5q0 -16 -8 -40t-8 -32q0 -1 2 -2.5t4 -1.5q10 0 72 92.5t141 92.5q89 0 141.5 -37t52.5 -101q0 -63 -26 -181.5t-117 -442.5q-6 -21 -13 -57q-20 -97 -61 -97q-69 0 -111 23t-42 55 q0 17 22 111.5t53 195.5q31 97 53.5 201t22.5 121q0 16 -1 19t-5 3q-9 0 -37.5 -27t-58.5 -67q-91 -124 -145 -349l-9 -36q-14 -59 -31 -147q-30 -148 -79 -148q-62 0 -102 21.5t-40 56.5zM219 1100q0 31 69.5 96.5t124.5 65.5q31 0 91.5 -28t97.5 -28q28 0 50 21.5t30 21.5 q23 0 64.5 -21t41.5 -40t-66.5 -80t-117.5 -61q-27 0 -79 27.5t-79 27.5q-46 0 -84.5 -30t-40.5 -30q-16 0 -59 23t-43 35z" />
<glyph unicode="&#xf2;" horiz-adv-x="707" d="M-16 193q0 115 40 264t95 241q12 21 34 59q107 187 183 187q24 0 53 -13.5t32 -14.5q16 -6 49 -12.5t50 -14.5q55 -25 81 -86.5t26 -169.5q0 -158 -62 -317.5t-172 -280.5q-34 -39 -73 -60.5t-72 -21.5q-43 0 -136 51q-22 12 -34 19q-54 28 -74 65.5t-20 104.5zM186 219 q0 -55 6 -74.5t21 -19.5q42 0 117.5 180t75.5 354q0 35 -7 55.5t-18 20.5t-29.5 -31t-68.5 -139q-47 -102 -72 -192.5t-25 -153.5zM295 1157q0 29 62.5 78t89.5 49q15 0 83 -51q53 -39 89 -64q11 -7 39 -18q57 -23 57 -53q0 -19 -47 -56.5t-64 -37.5q-4 0 -68.5 26.5 t-150.5 65.5q-9 4 -29 10q-61 19 -61 51z" />
<glyph unicode="&#xf3;" horiz-adv-x="707" d="M-16 193q0 115 40 264t95 241q12 21 34 59q107 187 183 187q24 0 53 -13.5t32 -14.5q16 -6 49 -12.5t50 -14.5q55 -25 81 -86.5t26 -169.5q0 -158 -62 -317.5t-172 -280.5q-34 -39 -73 -60.5t-72 -21.5q-43 0 -136 51q-22 12 -34 19q-54 28 -74 65.5t-20 104.5zM186 219 q0 -55 6 -74.5t21 -19.5q42 0 117.5 180t75.5 354q0 35 -7 55.5t-18 20.5t-29.5 -31t-68.5 -139q-47 -102 -72 -192.5t-25 -153.5zM344 1090q0 32 82 59q24 8 35 12q62 28 143 75.5t94 47.5q28 0 64.5 -41.5t36.5 -66.5q0 -44 -101 -72q-14 -4 -22 -6q-72 -21 -162 -57.5 t-98 -36.5q-17 0 -44.5 32t-27.5 54z" />
<glyph unicode="&#xf4;" horiz-adv-x="707" d="M-16 193q0 115 40 264t95 241q12 21 34 59q107 187 183 187q24 0 53 -13.5t32 -14.5q16 -6 49 -12.5t50 -14.5q55 -25 81 -86.5t26 -169.5q0 -158 -62 -317.5t-172 -280.5q-34 -39 -73 -60.5t-72 -21.5q-43 0 -136 51q-22 12 -34 19q-54 28 -74 65.5t-20 104.5zM146 1034 q0 14 36 53.5t111 108.5q23 21 56 51q56 53 73 53q3 0 8 -1t8 -1q10 0 32 3.5t34 3.5q8 0 26 -3.5t29 -3.5q3 0 12 1t15 1q15 0 22 -17q9 -21 23 -42q44 -65 75 -125t31 -72q0 -13 -14.5 -24.5t-32.5 -11.5q-95 0 -123.5 6t-33.5 26q-19 57 -37.5 93t-28.5 36t-43.5 -34.5 t-67.5 -83.5q-20 -29 -51.5 -36t-128.5 -7q-12 0 -21 8t-9 18zM186 219q0 -55 6 -74.5t21 -19.5q42 0 117.5 180t75.5 354q0 35 -7 55.5t-18 20.5t-29.5 -31t-68.5 -139q-47 -102 -72 -192.5t-25 -153.5z" />
<glyph unicode="&#xf5;" horiz-adv-x="707" d="M-16 193q0 115 40 264t95 241q12 21 34 59q107 187 183 187q24 0 53 -13.5t32 -14.5q16 -6 49 -12.5t50 -14.5q55 -25 81 -86.5t26 -169.5q0 -158 -62 -317.5t-172 -280.5q-34 -39 -73 -60.5t-72 -21.5q-43 0 -136 51q-22 12 -34 19q-54 28 -74 65.5t-20 104.5zM186 219 q0 -55 6 -74.5t21 -19.5q42 0 117.5 180t75.5 354q0 35 -7 55.5t-18 20.5t-29.5 -31t-68.5 -139q-47 -102 -72 -192.5t-25 -153.5zM197 1100q0 31 69.5 96.5t124.5 65.5q31 0 91.5 -28t97.5 -28q28 0 50 21.5t30 21.5q23 0 64.5 -21t41.5 -40t-66.5 -80t-117.5 -61 q-27 0 -79 27.5t-79 27.5q-46 0 -84.5 -30t-40.5 -30q-16 0 -59 23t-43 35z" />
<glyph unicode="&#xf6;" horiz-adv-x="707" d="M-16 193q0 115 40 264t95 241q12 21 34 59q107 187 183 187q24 0 53 -13.5t32 -14.5q16 -6 49 -12.5t50 -14.5q55 -25 81 -86.5t26 -169.5q0 -158 -62 -317.5t-172 -280.5q-34 -39 -73 -60.5t-72 -21.5q-43 0 -136 51q-22 12 -34 19q-54 28 -74 65.5t-20 104.5zM164 1112 q0 40 49.5 101t118.5 61q35 0 64.5 -47t29.5 -72q0 -34 -49.5 -80.5t-89.5 -46.5q-48 0 -85.5 25t-37.5 59zM186 219q0 -55 6 -74.5t21 -19.5q42 0 117.5 180t75.5 354q0 35 -7 55.5t-18 20.5t-29.5 -31t-68.5 -139q-47 -102 -72 -192.5t-25 -153.5zM504 1112q0 40 49.5 101 t118.5 61q35 0 63.5 -46.5t28.5 -72.5q0 -34 -49 -80.5t-88 -46.5q-48 0 -85.5 25t-37.5 59z" />
<glyph unicode="&#xf7;" horiz-adv-x="1706" d="M254 528v166h1198v-166h-1198zM717 229q0 57 40.5 97.5t96.5 40.5q57 0 97 -40.5t40 -97.5q0 -56 -39.5 -95.5t-97.5 -39.5t-97.5 39t-39.5 96zM717 989q0 57 40.5 98t96.5 41q57 0 97 -41t40 -98q0 -56 -39.5 -95.5t-97.5 -39.5t-97.5 39t-39.5 96z" />
<glyph unicode="&#xf8;" horiz-adv-x="707" d="M-231 -88q0 14 60 87.5t144 151.5q2 124 26.5 231.5t88.5 242.5q85 180 139.5 247.5t110.5 67.5q10 0 44 -10.5t60 -16.5q3 0 10 -2q98 -23 126 -69q44 52 93 121t64 69q36 0 62 -18.5t26 -44.5q0 -12 -137 -160l-63 -68q6 -20 9 -40t3 -39q0 -124 -39 -257t-109 -245 q-53 -87 -126 -147t-121 -60q-37 0 -106 41.5t-105 56.5q-44 -43 -96.5 -116.5t-77.5 -73.5h-11q-4 0 -13.5 -4t-16.5 -4q-18 0 -28.5 8.5t-10.5 21.5v8q-1 10 -5 18q-1 2 -1 3zM145 188q0 -32 10 -52.5t25 -20.5q49 0 130 126t114 281l-277 -311q0 -4 -1 -12t-1 -11z M172 371l264 293q-2 53 -9.5 75.5t-23.5 22.5q-32 0 -100.5 -112.5t-130.5 -278.5z" />
<glyph unicode="&#xf9;" horiz-adv-x="729" d="M-6 207q0 14 16 93.5t41 182.5q16 65 49.5 168t42.5 137q1 2 1 4q22 89 87 89q37 0 80 -21.5t43 -50.5q0 -12 -42.5 -149.5t-75.5 -258.5q-24 -83 -35 -138.5t-11 -94.5q1 -13 1.5 -15.5t3.5 -2.5q14 0 47.5 33.5t70.5 88.5q36 52 65 167q13 52 21 79q36 117 63 210.5 t28 99.5q2 12 5 35q8 63 56 63q46 0 93.5 -25t47.5 -51q0 -1 -52 -210.5t-103 -440.5q-40 -181 -56 -220.5t-37 -39.5q-39 0 -79.5 23t-40.5 54q0 12 7 28t7 19t-2.5 6.5t-5.5 4.5q-3 0 -24 -20q-87 -83 -136 -83q-32 0 -75.5 23.5t-67.5 54.5q-17 21 -25 60t-8 98z M319 1157q0 29 62.5 78t89.5 49q15 0 83 -51q53 -39 89 -64q11 -7 39 -18q57 -23 57 -53q0 -19 -47 -56.5t-64 -37.5q-4 0 -68.5 26.5t-150.5 65.5q-9 4 -29 10q-61 19 -61 51z" />
<glyph unicode="&#xfa;" horiz-adv-x="729" d="M-6 207q0 14 16 93.5t41 182.5q16 65 49.5 168t42.5 137q1 2 1 4q22 89 87 89q37 0 80 -21.5t43 -50.5q0 -12 -42.5 -149.5t-75.5 -258.5q-24 -83 -35 -138.5t-11 -94.5q1 -13 1.5 -15.5t3.5 -2.5q14 0 47.5 33.5t70.5 88.5q36 52 65 167q13 52 21 79q36 117 63 210.5 t28 99.5q2 12 5 35q8 63 56 63q46 0 93.5 -25t47.5 -51q0 -1 -52 -210.5t-103 -440.5q-40 -181 -56 -220.5t-37 -39.5q-39 0 -79.5 23t-40.5 54q0 12 7 28t7 19t-2.5 6.5t-5.5 4.5q-3 0 -24 -20q-87 -83 -136 -83q-32 0 -75.5 23.5t-67.5 54.5q-17 21 -25 60t-8 98z M368 1090q0 32 82 59q24 8 35 12q62 28 143 75.5t94 47.5q28 0 64.5 -41.5t36.5 -66.5q0 -44 -101 -72q-14 -4 -22 -6q-72 -21 -162 -57.5t-98 -36.5q-17 0 -44.5 32t-27.5 54z" />
<glyph unicode="&#xfb;" horiz-adv-x="729" d="M-6 207q0 14 16 93.5t41 182.5q16 65 49.5 168t42.5 137q1 2 1 4q22 89 87 89q37 0 80 -21.5t43 -50.5q0 -12 -42.5 -149.5t-75.5 -258.5q-24 -83 -35 -138.5t-11 -94.5q1 -13 1.5 -15.5t3.5 -2.5q14 0 47.5 33.5t70.5 88.5q36 52 65 167q13 52 21 79q36 117 63 210.5 t28 99.5q2 12 5 35q8 63 56 63q46 0 93.5 -25t47.5 -51q0 -1 -52 -210.5t-103 -440.5q-40 -181 -56 -220.5t-37 -39.5q-39 0 -79.5 23t-40.5 54q0 12 7 28t7 19t-2.5 6.5t-5.5 4.5q-3 0 -24 -20q-87 -83 -136 -83q-32 0 -75.5 23.5t-67.5 54.5q-17 21 -25 60t-8 98z M170 1034q0 14 36 53.5t111 108.5q23 21 56 51q56 53 73 53q3 0 8 -1t8 -1q10 0 32 3.5t34 3.5q8 0 26 -3.5t29 -3.5q3 0 12 1t15 1q15 0 22 -17q9 -21 23 -42q44 -65 75 -125t31 -72q0 -13 -14.5 -24.5t-32.5 -11.5q-95 0 -123.5 6t-33.5 26q-19 57 -37.5 93t-28.5 36 t-43.5 -34.5t-67.5 -83.5q-20 -29 -51.5 -36t-128.5 -7q-12 0 -21 8t-9 18z" />
<glyph unicode="&#xfc;" horiz-adv-x="729" d="M-6 207q0 14 16 93.5t41 182.5q16 65 49.5 168t42.5 137q1 2 1 4q22 89 87 89q37 0 80 -21.5t43 -50.5q0 -12 -42.5 -149.5t-75.5 -258.5q-24 -83 -35 -138.5t-11 -94.5q1 -13 1.5 -15.5t3.5 -2.5q14 0 47.5 33.5t70.5 88.5q36 52 65 167q13 52 21 79q36 117 63 210.5 t28 99.5q2 12 5 35q8 63 56 63q46 0 93.5 -25t47.5 -51q0 -1 -52 -210.5t-103 -440.5q-40 -181 -56 -220.5t-37 -39.5q-39 0 -79.5 23t-40.5 54q0 12 7 28t7 19t-2.5 6.5t-5.5 4.5q-3 0 -24 -20q-87 -83 -136 -83q-32 0 -75.5 23.5t-67.5 54.5q-17 21 -25 60t-8 98z M188 1112q0 40 49.5 101t118.5 61q35 0 64.5 -47t29.5 -72q0 -34 -49.5 -80.5t-89.5 -46.5q-48 0 -85.5 25t-37.5 59zM528 1112q0 40 49.5 101t118.5 61q35 0 63.5 -46.5t28.5 -72.5q0 -34 -49 -80.5t-88 -46.5q-48 0 -85.5 25t-37.5 59z" />
<glyph unicode="&#xfd;" horiz-adv-x="657" d="M-88 -430q0 11 25 82.5t57 138.5q78 164 115 248q0 11 -21.5 23.5t-30.5 25.5q-9 15 -14.5 61.5t-5.5 110.5q0 199 45 470q9 53 12 74q1 6 2 19q5 66 33 66q71 0 106 -22t35 -66q0 -6 -3 -32t-3 -44q0 -8 1 -20t1 -17q0 -53 -15 -143t-15 -111v-20q0 -22 -4.5 -53 t-4.5 -42q0 -10 2 -16t4 -6q9 0 57 121t101 231q34 70 79 184q57 142 85 142q21 0 86.5 -30t65.5 -54q0 -12 -36.5 -101.5t-86.5 -185.5q-65 -124 -134.5 -272.5t-121.5 -276.5q-60 -146 -150 -337q-27 -56 -37 -78q-17 -38 -38 -91q-30 -75 -56 -75q-29 0 -82 33.5 t-53 62.5zM295 1090q0 32 82 59q24 8 35 12q62 28 143 75.5t94 47.5q28 0 64.5 -41.5t36.5 -66.5q0 -44 -101 -72q-14 -4 -22 -6q-72 -21 -162 -57.5t-98 -36.5q-17 0 -44.5 32t-27.5 54z" />
<glyph unicode="&#xfe;" horiz-adv-x="735" d="M-152 -422q39 158 113 473q29 122 69 283t40 174q0 10 -18.5 35.5t-18.5 38.5q0 14 37.5 54.5t52.5 74.5q3 2 18.5 56t32.5 124q16 62 42 168q94 381 128 381q65 0 111.5 -23t46.5 -53q0 -5 -29.5 -105t-54.5 -192l-9 -31q-34 -121 -34 -137q0 -1 1 -2.5t3 -1.5 q5 0 20.5 3t26.5 3q112 0 184 -63.5t72 -165.5q0 -72 -55 -201t-140 -250q-69 -100 -144 -170.5t-105 -70.5q-13 0 -31 4t-23 4q-37 0 -56 -104q-15 -81 -30 -138q-7 -29 -20 -80q-46 -186 -88 -186q-38 0 -90 30t-52 68zM203 186q0 -5 3 -9.5t5 -4.5q12 0 48 49.5t87 136.5 q64 108 94.5 188t30.5 142q0 21 -10.5 36t-24.5 15q-16 0 -45.5 -11t-50.5 -28q-20 -15 -26 -57q-3 -17 -5 -27q-31 -140 -68.5 -282.5t-37.5 -147.5z" />
<glyph unicode="&#xff;" horiz-adv-x="657" d="M-88 -430q0 11 25 82.5t57 138.5q78 164 115 248q0 11 -21.5 23.5t-30.5 25.5q-9 15 -14.5 61.5t-5.5 110.5q0 199 45 470q9 53 12 74q1 6 2 19q5 66 33 66q71 0 106 -22t35 -66q0 -6 -3 -32t-3 -44q0 -8 1 -20t1 -17q0 -53 -15 -143t-15 -111v-20q0 -22 -4.5 -53 t-4.5 -42q0 -10 2 -16t4 -6q9 0 57 121t101 231q34 70 79 184q57 142 85 142q21 0 86.5 -30t65.5 -54q0 -12 -36.5 -101.5t-86.5 -185.5q-65 -124 -134.5 -272.5t-121.5 -276.5q-60 -146 -150 -337q-27 -56 -37 -78q-17 -38 -38 -91q-30 -75 -56 -75q-29 0 -82 33.5 t-53 62.5zM115 1112q0 40 49.5 101t118.5 61q35 0 64.5 -47t29.5 -72q0 -34 -49.5 -80.5t-89.5 -46.5q-48 0 -85.5 25t-37.5 59zM455 1112q0 40 49.5 101t118.5 61q35 0 63.5 -46.5t28.5 -72.5q0 -34 -49 -80.5t-88 -46.5q-48 0 -85.5 25t-37.5 59z" />
<glyph unicode="&#x152;" horiz-adv-x="1397" d="M-4 356q0 182 84.5 424t212.5 422q77 109 153.5 166t145.5 57q34 0 121.5 -35.5t144.5 -52.5q17 32 37.5 48t42.5 16q1 0 7 -6q14 -16 36 -17q5 0 131 21.5t225 21.5q11 0 40.5 -45t29.5 -67q0 -37 -9.5 -64.5t-23.5 -34.5q-4 -4 -102.5 -19t-184.5 -20q-54 -3 -62 -40 q-2 -8 -3 -13q-12 -58 -41 -153t-29 -121q1 -6 2.5 -8t6.5 -2q2 0 15 2q115 20 243 20q22 0 46.5 -19t24.5 -38q0 -55 -8 -99t-18 -57q-7 -8 -141 -21q-91 -9 -150 -16q-72 -8 -80.5 -15t-20.5 -59q-21 -90 -49 -191t-28 -110q0 -11 4 -15.5t14 -4.5q54 0 143.5 19.5 t114.5 19.5q35 0 62.5 -29.5t27.5 -66.5q0 -21 -5 -56t-5 -47q0 -4 2 -10.5t2 -7.5q0 -6 -14.5 -10.5t-36.5 -4.5q-3 0 -9 1t-10 1q-37 0 -180.5 -28.5t-251.5 -28.5q-3 0 -27 16.5t-65 47.5q-55 -42 -99 -67.5t-61 -25.5q-3 0 -14 2.5t-16 2.5q-11 0 -25 -4.5t-18 -4.5 q-8 0 -45 17t-70 24q-42 11 -67.5 27.5t-49.5 46.5q-39 54 -69.5 144t-30.5 167zM231 309q0 -103 26.5 -157t76.5 -54q54 0 125 77.5t123 203.5q77 182 123.5 373t46.5 307q0 79 -23.5 124.5t-62.5 45.5q-38 0 -98.5 -64t-137.5 -184q-92 -143 -145.5 -325t-53.5 -347z" />
<glyph unicode="&#x153;" horiz-adv-x="1053" d="M-25 180q0 114 39 238.5t129 294.5q63 117 107.5 163t91.5 46q9 0 43.5 -10.5t58.5 -16.5q4 -1 13 -3q96 -23 129 -69l7 8q80 87 144 87q21 0 57.5 -9.5t104.5 -34.5q38 -14 58 -56t20 -107q0 -111 -41 -252q-8 -27 -10 -37q-8 -26 -51 -28q-35 -1 -60 -5 q-116 -18 -176.5 -30t-75.5 -21q-17 -10 -34 -66t-17 -100q0 -15 11.5 -26t27.5 -11q28 0 84.5 36t118.5 95q11 12 30 32q41 44 58 44q30 0 54 -22t24 -52q0 -7 -8.5 -16.5t-8.5 -18.5q0 -2 1 -6t1 -6q0 -12 -44 -69t-93 -99q-80 -67 -119 -85.5t-86 -18.5q-32 0 -86.5 29.5 t-75.5 62.5q-72 -57 -102 -72.5t-55 -15.5q-36 0 -132 53q-48 26 -77 41q-24 13 -42 51t-18 82zM184 170q0 -18 6.5 -30.5t14.5 -12.5q23 0 54 39.5t83 138.5q42 80 64 167t22 175q0 47 -5 65.5t-15 18.5q-17 0 -40.5 -32t-60.5 -103q-63 -121 -93 -225t-30 -201zM614 516 q1 -3 4.5 -4.5t10.5 -1.5q9 0 69.5 12.5t74.5 18.5q6 2 17 59.5t11 112.5q0 27 -8.5 42t-22.5 15q-10 0 -24.5 -18t-43.5 -70q-19 -36 -49 -91q-39 -68 -39 -75z" />
<glyph unicode="&#x178;" horiz-adv-x="860" d="M113 41q0 14 23 111.5t57 205.5q4 14 11 37q32 98 32 123q0 44 -41 314t-41 481q0 6 17 37.5t26 31.5q1 0 4.5 -1t5.5 -1q4 0 11 3t9 3q7 0 17.5 -10t21.5 -10q3 0 8 1t7 1q25 0 41 -22t34 -95q54 -204 75 -369q5 -34 7 -34q9 0 113.5 163t210.5 310q16 22 43 60 q105 147 133 147q29 0 75 -36.5t46 -59.5q0 -24 -199.5 -318.5t-363.5 -581.5q-14 -23 -98 -311l-37 -126q-6 -18 -13 -48q-20 -84 -65 -84q-35 0 -102.5 27.5t-67.5 50.5zM322 1618q0 40 49.5 101t118.5 61q35 0 64.5 -47t29.5 -72q0 -34 -49.5 -80.5t-89.5 -46.5 q-48 0 -85.5 25t-37.5 59zM662 1618q0 40 49.5 101t118.5 61q35 0 63.5 -46.5t28.5 -72.5q0 -34 -49 -80.5t-88 -46.5q-48 0 -85.5 25t-37.5 59z" />
<glyph unicode="&#x2c6;" d="M279 1034q0 14 36 53.5t111 108.5q23 21 56 51q56 53 73 53q3 0 8 -1t8 -1q10 0 32 3.5t34 3.5q8 0 26 -3.5t29 -3.5q3 0 12 1t15 1q15 0 22 -17q9 -21 23 -42q44 -65 75 -125t31 -72q0 -13 -14.5 -24.5t-32.5 -11.5q-95 0 -123.5 6t-33.5 26q-19 57 -37.5 93t-28.5 36 t-43.5 -34.5t-67.5 -83.5q-20 -29 -51.5 -36t-128.5 -7q-12 0 -21 8t-9 18z" />
<glyph unicode="&#x2dc;" d="M330 1100q0 31 69.5 96.5t124.5 65.5q31 0 91.5 -28t97.5 -28q28 0 50 21.5t30 21.5q23 0 64.5 -21t41.5 -40t-66.5 -80t-117.5 -61q-27 0 -79 27.5t-79 27.5q-46 0 -84.5 -30t-40.5 -30q-16 0 -59 23t-43 35z" />
<glyph unicode="&#x2000;" horiz-adv-x="969" />
<glyph unicode="&#x2001;" horiz-adv-x="1939" />
<glyph unicode="&#x2002;" horiz-adv-x="969" />
<glyph unicode="&#x2003;" horiz-adv-x="1939" />
<glyph unicode="&#x2004;" horiz-adv-x="646" />
<glyph unicode="&#x2005;" horiz-adv-x="484" />
<glyph unicode="&#x2006;" horiz-adv-x="323" />
<glyph unicode="&#x2007;" horiz-adv-x="323" />
<glyph unicode="&#x2008;" horiz-adv-x="242" />
<glyph unicode="&#x2009;" horiz-adv-x="387" />
<glyph unicode="&#x200a;" horiz-adv-x="107" />
<glyph unicode="&#x2010;" horiz-adv-x="612" d="M20 457q0 13 5.5 26.5t5.5 14.5l-4 7t-4 13q0 18 37.5 24.5t156.5 6.5h96h68q9 0 22.5 -3t16.5 -3q7 0 15.5 2t10.5 2q1 0 5 -3t8 -3q3 0 7 2t7 2q10 0 16.5 -21t6.5 -53q0 -31 -15 -65.5t-32 -34.5h-3q-17 2 -32 2q-6 0 -18.5 -1t-18.5 -1q-16 0 -43.5 3t-40.5 3 q-17 0 -50.5 -3t-49.5 -3q-34 0 -72 6t-43 6q-4 0 -11.5 -3t-11.5 -3q-15 0 -25 22t-10 58z" />
<glyph unicode="&#x2011;" horiz-adv-x="612" d="M20 457q0 13 5.5 26.5t5.5 14.5l-4 7t-4 13q0 18 37.5 24.5t156.5 6.5h96h68q9 0 22.5 -3t16.5 -3q7 0 15.5 2t10.5 2q1 0 5 -3t8 -3q3 0 7 2t7 2q10 0 16.5 -21t6.5 -53q0 -31 -15 -65.5t-32 -34.5h-3q-17 2 -32 2q-6 0 -18.5 -1t-18.5 -1q-16 0 -43.5 3t-40.5 3 q-17 0 -50.5 -3t-49.5 -3q-34 0 -72 6t-43 6q-4 0 -11.5 -3t-11.5 -3q-15 0 -25 22t-10 58z" />
<glyph unicode="&#x2012;" horiz-adv-x="612" d="M20 457q0 13 5.5 26.5t5.5 14.5l-4 7t-4 13q0 18 37.5 24.5t156.5 6.5h96h68q9 0 22.5 -3t16.5 -3q7 0 15.5 2t10.5 2q1 0 5 -3t8 -3q3 0 7 2t7 2q10 0 16.5 -21t6.5 -53q0 -31 -15 -65.5t-32 -34.5h-3q-17 2 -32 2q-6 0 -18.5 -1t-18.5 -1q-16 0 -43.5 3t-40.5 3 q-17 0 -50.5 -3t-49.5 -3q-34 0 -72 6t-43 6q-4 0 -11.5 -3t-11.5 -3q-15 0 -25 22t-10 58z" />
<glyph unicode="&#x2013;" d="M-51 403l31 134h1024l-31 -134h-1024z" />
<glyph unicode="&#x2014;" horiz-adv-x="2048" d="M-86 403l31 134h2048l-31 -134h-2048z" />
<glyph unicode="&#x2018;" horiz-adv-x="426" d="M111 954q0 8 53.5 105.5t122.5 206.5q13 21 37 58q65 103 86 103q9 0 37 -34t28 -39q0 -6 -25.5 -55t-46.5 -95q-75 -170 -112 -258q-6 -17 -43.5 -35t-48.5 -18q-20 0 -54 23.5t-34 37.5z" />
<glyph unicode="&#x2019;" horiz-adv-x="426" d="M139 948q17 56 51 135q49 114 85 196t43 94q5 10 42 29t43 19q25 0 57 -20.5t32 -38.5q0 -9 -42 -90t-98 -174q-21 -37 -56 -98q-65 -117 -87 -117q-18 0 -44 29.5t-26 35.5z" />
<glyph unicode="&#x201a;" horiz-adv-x="426" d="M-133 -240q20 54 55 138q46 106 83.5 192t41.5 94q6 11 42 30t42 19q25 0 57.5 -20.5t32.5 -38.5q0 -9 -42.5 -90.5t-98.5 -173.5q-24 -40 -60 -107q-59 -108 -81 -108q-18 0 -45 29.5t-27 35.5z" />
<glyph unicode="&#x201c;" horiz-adv-x="725" d="M129 954q0 10 52.5 107t121.5 205q12 17 32 50q71 111 93 111q10 0 37 -34t27 -39q0 -6 -26 -56.5t-46 -95.5q-76 -168 -113 -256q-5 -16 -42.5 -34.5t-47.5 -18.5q-20 0 -54 22.5t-34 38.5zM444 954q0 9 53.5 106.5t123.5 205.5q13 21 37 58q65 103 85 103 q11 0 38.5 -34t27.5 -39q0 -6 -26 -56.5t-46 -95.5q-75 -168 -112 -255q-5 -16 -43.5 -35t-49.5 -19q-19 0 -53.5 22.5t-34.5 38.5z" />
<glyph unicode="&#x201d;" horiz-adv-x="725" d="M139 948q19 56 54 137q58 137 88 207t37 81q5 10 42 29t43 19q25 0 57 -20t32 -39q0 -9 -45.5 -95.5t-106.5 -187.5q-20 -34 -53 -93q-57 -103 -78 -103q-16 0 -43 29.5t-27 35.5zM438 948q19 56 54 137q47 113 82.5 193t44.5 95q5 10 41.5 29t41.5 19q25 0 57 -20 t32 -39q0 -9 -45.5 -95.5t-106.5 -187.5q-20 -34 -53 -93q-57 -103 -78 -103q-16 0 -43 29.5t-27 35.5z" />
<glyph unicode="&#x201e;" horiz-adv-x="725" d="M-139 -240q18 54 53 138q46 106 83.5 192t41.5 94q6 11 43 30t43 19q24 0 56 -20.5t32 -38.5q0 -10 -42 -91.5t-97 -172.5q-23 -38 -58 -101q-63 -114 -86 -114q-17 0 -43 29.5t-26 35.5zM160 -240q18 54 53 138q39 93 74.5 173t52.5 113q6 11 42 30t42 19q24 0 56 -20.5 t32 -38.5q0 -10 -42 -91.5t-97 -172.5q-23 -38 -58 -101q-63 -114 -86 -114q-17 0 -43 29.5t-26 35.5z" />
<glyph unicode="&#x2022;" horiz-adv-x="1208" d="M307 762q0 123 87 209t210 86q122 0 208.5 -86.5t86.5 -208.5t-87.5 -209.5t-209.5 -87.5q-123 0 -209 87t-86 210z" />
<glyph unicode="&#x2026;" horiz-adv-x="2048" d="M65 43q0 72 61 132q6 6 9 10q15 15 28 35.5t17 23.5q39 22 63 35q5 0 27.5 -10.5t24.5 -10.5q8 0 14 2h2q13 0 43.5 -53t30.5 -74q0 -26 -25.5 -71.5t-40.5 -45.5q-2 0 -5 1t-5 1q-1 0 -2 -2q-13 -25 -85 -45q-18 -5 -36.5 -12.5t-22.5 -7.5q-21 0 -59.5 37t-38.5 55z M747 43q0 72 61 132q6 6 9 10q15 15 28 35.5t17 23.5q39 22 63 35q5 0 27.5 -10.5t24.5 -10.5q8 0 14 2h2q13 0 43.5 -53t30.5 -74q0 -26 -25.5 -71.5t-40.5 -45.5q-2 0 -5 1t-5 1q-1 0 -2 -2q-13 -25 -85 -45q-18 -5 -36.5 -12.5t-22.5 -7.5q-21 0 -59.5 37t-38.5 55z M1431 43q0 72 61 132q6 6 9 10q15 15 28 35.5t17 23.5q39 22 63 35q5 0 27.5 -10.5t24.5 -10.5q8 0 14 2h2q13 0 43.5 -53t30.5 -74q0 -26 -25.5 -71.5t-40.5 -45.5q-2 0 -5 1t-5 1q-1 0 -2 -2q-13 -25 -85 -45q-18 -5 -36.5 -12.5t-22.5 -7.5q-21 0 -59.5 37t-38.5 55z" />
<glyph unicode="&#x202f;" horiz-adv-x="387" />
<glyph unicode="&#x2039;" horiz-adv-x="508" d="M10 430q0 31 89 139q36 44 57 70q31 40 79 103q84 112 99 112q61 0 101 -14.5t40 -36.5q0 -7 -48 -65t-93 -120q-34 -46 -85 -111q-48 -63 -48 -71q0 -3 12 -46.5t29 -98.5q17 -61 42 -131t25 -78q0 -12 -47.5 -39t-73.5 -27q-35 0 -58.5 32t-47.5 118q-15 53 -39 135 q-33 111 -33 129z" />
<glyph unicode="&#x203a;" horiz-adv-x="508" d="M-66 76q0 6 58 77q56 69 94 117l11 15q114 148 114 159q0 12 -15.5 63t-23.5 81q-31 123 -63 193q-5 11 -5 12q0 23 54 43t116 20q15 0 40 -90q14 -51 24 -84q12 -40 38.5 -118t26.5 -105q0 -36 -102 -167q-29 -37 -45 -58q-8 -11 -25 -33q-139 -183 -202 -183 q-28 0 -61.5 25t-33.5 33z" />
<glyph unicode="&#x205f;" horiz-adv-x="484" />
<glyph unicode="&#x20ac;" horiz-adv-x="891" d="M18 477q1 9 9.5 24.5t9.5 20.5q7 21 13.5 30t15.5 9h4q28 -2 47 -2h30q6 18 13 38t22 60l-26 2h-66q-9 1 -14.5 4t-5.5 9q0 9 7.5 20.5t8.5 14.5q2 4 6 14q13 33 31 33q3 0 21.5 -1t31.5 -1h43q39 95 78.5 173.5t77.5 135.5q76 111 146.5 162t146.5 51q63 0 136 -58 q19 -15 32 -24l1 -1q78 -58 78 -153q0 -41 -9.5 -80t-31.5 -79q-8 -19 -41.5 -32t-70.5 -13q-43 0 -66.5 27t-23.5 77q0 32 1 43t1 31q0 31 -8.5 48t-22.5 17q-24 0 -60.5 -48.5t-78.5 -137.5q-25 -53 -38 -83.5t-24 -55.5h45q14 0 35 1t27 1q10 0 36.5 1t45.5 1q6 0 17 -1 t18 -1q4 0 8 -7t4 -14q0 -14 -8 -36q-2 -5 -2 -6q-5 -14 -16 -19.5t-36 -5.5q-27 -3 -55.5 -3.5t-60.5 -0.5l-91 -1q-3 -10 -15.5 -46.5t-18.5 -57.5q16 0 52.5 1t37.5 1h65q7 0 21 -1t22 -1q7 0 9.5 -3t3.5 -17q0 -16 -10 -34l-5 -10q-5 -13 -16.5 -19.5t-36.5 -6.5 q-28 0 -82 -2t-82 -2h-4q-14 -58 -23.5 -132t-9.5 -112q0 -50 16.5 -74t51.5 -24q48 0 93.5 38t74.5 103q5 13 11 34q14 45 42 66q21 15 36.5 21t33.5 6t45 -23.5t27 -43.5q0 -49 -16.5 -98.5t-51.5 -108.5q-40 -67 -125 -113.5t-170 -46.5q-151 0 -223 68.5t-72 212.5 q0 49 8 107t23 122h-58q-16 0 -30.5 3.5t-14.5 8.5z" />
<glyph unicode="&#x2122;" horiz-adv-x="1706" d="M225 1366v94h467v-94h-168v-448h-129v448h-170zM809 918v542h170l141 -360l133 360h170v-542h-114v428l-160 -428h-59l-166 428v-428h-115z" />
<glyph unicode="&#x25fc;" horiz-adv-x="960" d="M0 0v960h960v-960h-960z" />
</font>
</defs>
</svg>
