<?xml version="1.0" standalone="no"?>
<!DOCTYPE svg PUBLIC "-//W3C//DTD SVG 20010904//EN"
 "http://www.w3.org/TR/2001/REC-SVG-20010904/DTD/svg10.dtd">
<svg version="1.0" xmlns="http://www.w3.org/2000/svg"
 width="400.000000pt" height="400.000000pt" viewBox="0 0 400.000000 400.000000"
 preserveAspectRatio="xMidYMid meet">
<metadata>
Created by potrace 1.11, written by Peter Selinger 2001-2013
</metadata>
<g transform="translate(0.000000,400.000000) scale(0.100000,-0.100000)"
fill="#000000" stroke="none">
<path d="M1705 3845 c-46 -49 -78 -75 -92 -75 -12 0 -54 16 -94 35 -41 19 -86
35 -100 35 -31 0 -68 -38 -103 -109 -13 -25 -34 -55 -46 -66 -21 -19 -23 -19
-104 -2 -152 31 -156 29 -196 -98 -32 -102 -43 -109 -148 -113 -48 -1 -97 -5
-109 -7 -29 -7 -43 -52 -43 -141 0 -91 -13 -107 -97 -124 -32 -6 -70 -13 -84
-16 -58 -11 -69 -47 -54 -174 9 -80 -5 -102 -86 -131 -71 -26 -119 -62 -119
-89 0 -10 12 -55 26 -99 14 -44 24 -90 22 -102 -2 -15 -28 -41 -77 -75 -41
-29 -78 -59 -82 -66 -17 -27 -8 -66 30 -130 63 -103 63 -103 -13 -193 -86
-100 -86 -111 -1 -205 36 -40 65 -80 65 -89 0 -9 -19 -48 -41 -86 -71 -121
-70 -137 19 -196 70 -47 102 -80 102 -105 0 -12 -11 -52 -25 -88 -25 -67 -31
-111 -17 -133 4 -6 42 -27 84 -46 104 -48 113 -63 104 -177 -6 -86 -6 -91 17
-114 16 -16 45 -27 93 -36 125 -23 126 -24 139 -170 8 -94 21 -104 145 -111
123 -7 131 -13 165 -124 14 -45 32 -88 40 -95 17 -14 73 -10 168 11 72 16 80
12 132 -73 75 -124 88 -128 204 -73 40 19 82 35 94 35 13 0 48 -28 92 -75 40
-41 80 -75 89 -75 23 0 47 14 119 66 32 24 69 44 82 44 13 0 45 -16 71 -35 85
-61 108 -75 129 -75 11 0 48 31 90 75 46 49 78 75 92 75 12 0 54 -16 94 -35
41 -19 85 -35 99 -35 32 0 67 36 106 109 43 81 59 88 152 68 145 -32 154 -27
192 95 32 104 41 111 146 115 49 2 98 6 110 8 29 6 41 40 50 135 8 101 18 113
110 130 140 26 150 38 133 169 -15 111 -16 110 104 161 106 46 112 58 73 176
-16 50 -25 95 -22 109 4 14 27 38 54 56 76 51 112 90 112 119 0 15 -20 58 -45
96 -26 39 -45 80 -45 96 0 19 19 49 60 99 42 50 60 80 60 100 0 20 -18 49 -60
100 -37 43 -60 81 -60 95 0 13 20 62 44 108 30 56 43 92 39 106 -3 12 -40 46
-84 77 -48 33 -81 64 -85 78 -3 12 6 59 20 104 14 45 26 88 26 95 0 29 -43 66
-108 90 -103 40 -97 30 -97 163 0 137 5 130 -124 157 -101 21 -107 29 -116
137 -10 125 -15 130 -144 139 -73 5 -107 12 -120 24 -10 9 -28 49 -40 89 -32
109 -43 120 -105 114 -28 -3 -77 -11 -109 -18 -71 -16 -81 -11 -124 62 -48 83
-81 119 -110 119 -14 0 -60 -16 -103 -35 -43 -19 -86 -35 -95 -35 -10 0 -50
34 -90 75 -41 43 -80 75 -91 75 -11 0 -55 -25 -99 -55 -43 -30 -89 -55 -101
-55 -12 0 -49 20 -81 44 -72 53 -96 66 -119 66 -10 0 -50 -34 -89 -75z m420
-205 c4 -6 -14 -10 -47 -10 -132 0 -352 -41 -515 -95 -436 -146 -766 -447
-983 -897 -98 -205 -142 -360 -160 -579 -25 -280 38 -600 176 -898 41 -90 42
-94 15 -61 -45 53 -115 193 -155 309 -116 335 -118 736 -6 1083 38 116 132
310 196 405 254 374 689 661 1119 737 94 17 351 21 360 6z m-380 -992 c167
-49 233 -144 223 -322 -6 -116 -54 -193 -156 -254 l-33 -19 56 -32 c69 -39
127 -97 157 -159 20 -40 23 -62 22 -147 -1 -194 -78 -301 -259 -358 -66 -21
-88 -22 -380 -22 l-310 0 -3 662 -2 662 22 4 c13 3 156 4 318 2 223 -2 307 -6
345 -17z m825 -518 l0 -530 220 0 220 0 0 -38 c0 -22 -3 -80 -6 -130 l-7 -92
-373 0 -374 0 0 660 0 660 160 0 160 0 0 -530z"/>
<path d="M1380 2289 l0 -149 99 0 c85 0 102 3 125 21 40 31 56 71 56 139 0 54
-3 65 -28 90 -30 30 -53 35 -184 43 l-68 5 0 -149z"/>
<path d="M1380 1737 l0 -177 93 6 c121 8 162 19 186 51 44 55 51 156 16 223
-24 46 -64 61 -186 67 l-109 6 0 -176z"/>
</g>
</svg>
