<svg xmlns="http://www.w3.org/2000/svg" viewBox="0 0 25.66 34.05"><defs><style>.cls-1{fill:#2fb06d;}.cls-2{fill:#1f7448;}.cls-3{fill:#fff;}</style></defs><title>10</title><g id="Layer_2" data-name="Layer 2"><g id="Pestañas"><polygon class="cls-1" points="0.79 1.05 18.46 1.05 18.46 7.04 24.74 7.04 24.74 33.55 0.5 33.55 0.79 1.05"/><path class="cls-2" d="M25.24,34.05H0L.29.55H19v6h6.28ZM1,33.05H24.24V7.54H18v-6H1.29Z"/><polygon class="cls-1" points="18.04 0.5 25.16 7.3 18.04 7.3 18.04 0.5"/><path class="cls-2" d="M25.16,7.8H18a.5.5,0,0,1-.5-.5V.5a.51.51,0,0,1,.3-.46.49.49,0,0,1,.54.1l7.13,6.8a.51.51,0,0,1,.12.55A.5.5,0,0,1,25.16,7.8Zm-6.62-1h5.38L18.54,1.67Z"/><path class="cls-3" d="M5.74,20H7.8V14.51H6V13.15a6.77,6.77,0,0,0,2.36-.87H10V20h1.78v1.78h-6Z"/><path class="cls-3" d="M13.14,17c0-3.23,1.36-4.89,3.39-4.89s3.39,1.66,3.39,4.89-1.36,5-3.39,5S13.14,20.22,13.14,17Zm4.71,0c0-2.6-.57-3.18-1.32-3.18s-1.31.58-1.31,3.18.58,3.26,1.31,3.26S17.85,19.57,17.85,17Z"/></g></g></svg>