<svg xmlns="http://www.w3.org/2000/svg" viewBox="0 0 25.66 34.05"><defs><style>.cls-1,.cls-2{fill:#f27c38;stroke:#f45a2a;}.cls-1{stroke-miterlimit:10;}.cls-2{stroke-linejoin:round;}.cls-3{fill:#fff;}</style></defs><title>Asset 102</title><g id="Layer_2" data-name="Layer 2"><g id="Pestañas"><polygon class="cls-1" points="0.79 1.05 18.46 1.05 18.46 7.04 24.74 7.04 24.74 33.55 0.5 33.55 0.79 1.05"/><polygon class="cls-2" points="18.04 0.5 25.16 7.3 18.04 7.3 18.04 0.5"/><path class="cls-3" d="M9.13,20.71c2.46-2.26,4.36-4,4.36-5.4a1.21,1.21,0,0,0-1.28-1.38,2.54,2.54,0,0,0-1.7,1L9,13.41a4.5,4.5,0,0,1,3.61-1.67,3.3,3.3,0,0,1,3.56,3.4c0,1.67-1.57,3.51-3,4.95A15.71,15.71,0,0,1,14.93,20h1.74v2.35H9.13Z"/></g></g></svg>