<svg xmlns="http://www.w3.org/2000/svg" viewBox="0 0 25.66 34.05"><defs><style>.cls-1{fill:#2fb06d;}.cls-2{fill:#1f7448;}.cls-3{fill:#fff;}</style></defs><title>3</title><g id="Layer_2" data-name="Layer 2"><g id="Pestañas"><polygon class="cls-1" points="0.79 1.05 18.46 1.05 18.46 7.04 24.74 7.04 24.74 33.55 0.5 33.55 0.79 1.05"/><path class="cls-2" d="M25.24,34.05H0L.29.55H19v6h6.28ZM1,33.05H24.24V7.54H18v-6H1.29Z"/><polygon class="cls-1" points="18.04 0.5 25.16 7.3 18.04 7.3 18.04 0.5"/><path class="cls-2" d="M25.16,7.8H18a.5.5,0,0,1-.5-.5V.5a.51.51,0,0,1,.3-.46.49.49,0,0,1,.54.1l7.13,6.8a.51.51,0,0,1,.12.55A.5.5,0,0,1,25.16,7.8Zm-6.62-1h5.38L18.54,1.67Z"/><path class="cls-3" d="M9.2,20.7,10.4,19a3.1,3.1,0,0,0,2,.92c.86,0,1.42-.3,1.42-.92s-.39-1.17-2.43-1.17V16c1.63,0,2.12-.44,2.12-1.11s-.36-.89-1-.89a2.53,2.53,0,0,0-1.72.8l-1.32-1.6A4.8,4.8,0,0,1,12.62,12c2.15,0,3.53,1,3.53,2.75a2.26,2.26,0,0,1-1.56,2.11v.06a2.37,2.37,0,0,1,1.87,2.33c0,1.85-1.75,2.87-3.78,2.87A4.38,4.38,0,0,1,9.2,20.7Z"/></g></g></svg>