<svg xmlns="http://www.w3.org/2000/svg" viewBox="0 0 25.66 34.05"><defs><style>.cls-1,.cls-2{fill:#f27c38;stroke:#f45a2a;}.cls-1{stroke-miterlimit:10;}.cls-2{stroke-linejoin:round;}.cls-3{fill:#fff;}</style></defs><title>5</title><g id="Layer_2" data-name="Layer 2"><g id="Pestañas"><polygon class="cls-1" points="0.79 1.05 18.46 1.05 18.46 7.04 24.74 7.04 24.74 33.55 0.5 33.55 0.79 1.05"/><polygon class="cls-2" points="18.04 0.5 25.16 7.3 18.04 7.3 18.04 0.5"/><path class="cls-3" d="M8.85,21.12,10,19.49a3.52,3.52,0,0,0,2.39,1.1,1.65,1.65,0,0,0,1.87-1.72,1.6,1.6,0,0,0-1.75-1.71,2.67,2.67,0,0,0-1.64.55L9.72,17l.31-5.6h6.29v2.16H12.25l-.19,2.08a2.79,2.79,0,0,1,1.24-.26,3.24,3.24,0,0,1,3.52,3.44,3.82,3.82,0,0,1-4.06,3.87A5.26,5.26,0,0,1,8.85,21.12Z"/></g></g></svg>