<svg xmlns="http://www.w3.org/2000/svg" viewBox="0 0 25.66 34.05"><defs><style>.cls-1{fill:#2fb06d;}.cls-2{fill:#1f7448;}.cls-3{fill:#fff;}</style></defs><title>6</title><g id="Layer_2" data-name="Layer 2"><g id="Pestañas"><polygon class="cls-1" points="0.79 1.05 18.46 1.05 18.46 7.04 24.74 7.04 24.74 33.55 0.5 33.55 0.79 1.05"/><path class="cls-2" d="M25.24,34.05H0L.29.55H19v6h6.28ZM1,33.05H24.24V7.54H18v-6H1.29Z"/><polygon class="cls-1" points="18.04 0.5 25.16 7.3 18.04 7.3 18.04 0.5"/><path class="cls-2" d="M25.16,7.8H18a.5.5,0,0,1-.5-.5V.5a.51.51,0,0,1,.3-.46.49.49,0,0,1,.54.1l7.13,6.8a.51.51,0,0,1,.12.55A.5.5,0,0,1,25.16,7.8Zm-6.62-1h5.38L18.54,1.67Z"/><path class="cls-3" d="M9.41,17.25c0-3.59,1.87-5.22,3.9-5.22a3.82,3.82,0,0,1,2.81,1.16L15,14.52a2.22,2.22,0,0,0-1.5-.68c-1.07,0-1.92.76-2,3a2.72,2.72,0,0,1,1.93-1,2.66,2.66,0,0,1,2.86,3A3.09,3.09,0,0,1,13.05,22C11.19,22,9.41,20.64,9.41,17.25Zm4.81,1.55c0-1-.53-1.39-1.26-1.39a1.72,1.72,0,0,0-1.46.95c.2,1.52.84,2,1.51,2S14.22,19.89,14.22,18.8Z"/></g></g></svg>