<svg xmlns="http://www.w3.org/2000/svg" viewBox="0 0 25.66 34.05"><defs><style>.cls-1,.cls-2{fill:#f27c38;stroke:#f45a2a;}.cls-1{stroke-miterlimit:10;}.cls-2{stroke-linejoin:round;}.cls-3{fill:#fff;}</style></defs><title>8</title><g id="Layer_2" data-name="Layer 2"><g id="Pestañas"><polygon class="cls-1" points="0.79 1.05 18.46 1.05 18.46 7.04 24.74 7.04 24.74 33.55 0.5 33.55 0.79 1.05"/><polygon class="cls-2" points="18.04 0.5 25.16 7.3 18.04 7.3 18.04 0.5"/><path class="cls-3" d="M8.94,19.74A3,3,0,0,1,10.83,17V17a3.2,3.2,0,0,1-1.49-2.62c0-1.89,1.49-3.06,3.55-3.06s3.37,1.21,3.37,3a3,3,0,0,1-1.45,2.43v.07a3.17,3.17,0,0,1,1.92,2.89c0,1.75-1.57,3.08-3.93,3.08S8.94,21.54,8.94,19.74Zm5.4-.12c0-1-.95-1.35-2.34-1.94a2.46,2.46,0,0,0-.86,1.76A1.58,1.58,0,0,0,12.85,21,1.33,1.33,0,0,0,14.34,19.62Zm-.16-5.13a1.31,1.31,0,0,0-1.35-1.44,1.17,1.17,0,0,0-1.23,1.28c0,.91.76,1.34,1.9,1.78A2.53,2.53,0,0,0,14.18,14.49Z"/></g></g></svg>