<svg xmlns="http://www.w3.org/2000/svg" viewBox="0 0 25.66 34.05"><defs><style>.cls-1{fill:#2fb06d;}.cls-2{fill:#1f7448;}.cls-3{fill:#fff;}</style></defs><title>9</title><g id="Layer_2" data-name="Layer 2"><g id="Pestañas"><polygon class="cls-1" points="0.79 1.05 18.46 1.05 18.46 7.04 24.74 7.04 24.74 33.55 0.5 33.55 0.79 1.05"/><path class="cls-2" d="M25.24,34.05H0L.29.55H19v6h6.28ZM1,33.05H24.24V7.54H18v-6H1.29Z"/><polygon class="cls-1" points="18.04 0.5 25.16 7.3 18.04 7.3 18.04 0.5"/><path class="cls-2" d="M25.16,7.8H18a.5.5,0,0,1-.5-.5V.5a.51.51,0,0,1,.3-.46.49.49,0,0,1,.54.1l7.13,6.8a.51.51,0,0,1,.12.55A.5.5,0,0,1,25.16,7.8Zm-6.62-1h5.38L18.54,1.67Z"/><path class="cls-3" d="M9.54,20.87l1.18-1.33a2.17,2.17,0,0,0,1.49.68c1.08,0,1.91-.76,2-3a2.74,2.74,0,0,1-1.93,1,2.68,2.68,0,0,1-2.87-3A3.09,3.09,0,0,1,12.6,12c1.87,0,3.66,1.39,3.66,4.78,0,3.59-1.88,5.22-3.9,5.22A3.92,3.92,0,0,1,9.54,20.87Zm4.61-5.17c-.19-1.52-.82-2-1.5-2s-1.21.47-1.21,1.57.54,1.39,1.27,1.39A1.67,1.67,0,0,0,14.15,15.7Z"/></g></g></svg>