<svg xmlns="http://www.w3.org/2000/svg" viewBox="0 0 25.66 34.05"><defs><style>.cls-1{fill:#344694;stroke-miterlimit:10;}.cls-1,.cls-2{stroke:#263270;}.cls-2{fill:#3a4fa7;stroke-linejoin:round;}.cls-3{fill:#fff;}</style></defs><title>Asset 130</title><g id="Layer_2" data-name="Layer 2"><g id="Barra_iconos" data-name="Barra iconos"><polygon class="cls-1" points="0.79 1.05 18.46 1.05 18.46 7.04 24.74 7.04 24.74 33.55 0.5 33.55 0.79 1.05"/><polygon class="cls-2" points="18.04 0.5 25.16 7.3 18.04 7.3 18.04 0.5"/><path class="cls-3" d="M13.65,14.29a1,1,0,0,0-1.11-1A2.07,2.07,0,0,0,11,14L9.68,12.78a4.18,4.18,0,0,1,3.17-1.51c1.78,0,3.14.88,3.14,2.84s-2.49,2.67-2.29,4.64H11.56C11.23,16.48,13.65,15.53,13.65,14.29Zm-2.49,7a1.47,1.47,0,1,1,1.46,1.53A1.46,1.46,0,0,1,11.16,21.25Z"/></g></g></svg>