<?xml version="1.0" encoding="utf-8"?>
<!-- Generator: Adobe Illustrator 22.1.0, SVG Export Plug-In . SVG Version: 6.00 Build 0)  -->
<svg version="1.1" id="Layer_1" xmlns="http://www.w3.org/2000/svg" xmlns:xlink="http://www.w3.org/1999/xlink" x="0px" y="0px"
	 viewBox="0 0 63.4 40.9" style="enable-background:new 0 0 63.4 40.9;" xml:space="preserve">
<style type="text/css">
	.st0{fill:#FFFFFF;}
</style>
<title>mail</title>
<g id="Layer_2_1_">
	<g id="Layer_1-2">
		<path class="st0" d="M55.1,4.9l-23.4,18L8.3,4.9C9,4.4,9.9,4.1,10.8,4.1h41.8C53.5,4.1,54.4,4.4,55.1,4.9z"/>
		<path class="st0" d="M23.2,18.9L7.3,35c-0.6-0.7-0.9-1.7-0.9-2.6V8.5c0-0.7,0.2-1.4,0.5-2.1L23.2,18.9z"/>
		<path class="st0" d="M39.2,19.7l16.1,16.1c-0.8,0.6-1.7,0.9-2.7,0.9H10.8c-0.9,0-1.8-0.3-2.6-0.8l15.9-16.2l7.5,5.7L39.2,19.7z"/>
		<path class="st0" d="M57,8.5v23.8c0,0.9-0.3,1.7-0.8,2.5L40.3,18.9L56.4,6.5C56.8,7.1,57,7.8,57,8.5z"/>
	</g>
</g>
</svg>
