<svg xmlns="http://www.w3.org/2000/svg" viewBox="0 0 37.06 31.68"><defs><style>.cls-1{fill:#3a4fa7;}.cls-2{fill:#fff;}</style></defs><title>Asset 109</title><g id="Layer_2" data-name="Layer 2"><g id="Barra_iconos" data-name="Barra iconos"><path class="cls-1" d="M10,31.68V23.89H0V0H37.06V23.83H35.17c-6,0-5.4,0-11.34,0a5.55,5.55,0,0,0-2.67.77C17.53,26.84,14,29.16,10,31.68Z"/><path class="cls-2" d="M18.52,2.38c.91,1.63,1.8,3.17,2.65,4.74A1.5,1.5,0,0,0,22.35,8c1.83.31,3.65.67,5.51,1-.08.09-.13.17-.19.24-1.22,1.23-2.43,2.47-3.65,3.69A1.24,1.24,0,0,0,23.6,14c.24,1.77.45,3.55.67,5.33a3.75,3.75,0,0,1,0,.42l-.44-.2c-1.57-.76-3.14-1.5-4.7-2.27a1.32,1.32,0,0,0-1.32,0c-1.58.79-3.17,1.54-4.76,2.31l-.35.14c0-.11,0-.19,0-.27.23-1.87.45-3.74.69-5.62a1,1,0,0,0-.35-.84L9.38,9.26,9.13,9l1.66-.32c1.37-.26,2.74-.52,4.12-.76a1.08,1.08,0,0,0,.81-.59c.82-1.47,1.65-2.93,2.48-4.4Z"/></g></g></svg>