<?xml version="1.0" encoding="utf-8"?>
<!-- Generator: Adobe Illustrator 22.1.0, SVG Export Plug-In . SVG Version: 6.00 Build 0)  -->
<svg version="1.1" id="Layer_1" xmlns="http://www.w3.org/2000/svg" xmlns:xlink="http://www.w3.org/1999/xlink" x="0px" y="0px"
	 viewBox="0 0 33 32.8" style="enable-background:new 0 0 33 32.8;" xml:space="preserve">
<style type="text/css">
	.st0{fill:#FFFFFF;}
</style>
<title>budlight</title>
<path class="st0" d="M16.3,32.5c-8.9,0-16.1-7.2-16.1-16.1S7.4,0.3,16.3,0.3s16.1,7.2,16.1,16.1S25.2,32.5,16.3,32.5z M16.3,3.4
	c-7.2,0-13,5.8-13,13s5.8,13,13,13s13-5.8,13-13S23.5,3.4,16.3,3.4z"/>
<path class="st0" d="M18.7,16.4l2.2-2.2c0.9-0.9,0.9-2,0.4-2.5l-0.1-0.1c-0.6-0.6-1.8-0.4-2.5,0.4l-2.2,2.2l-2.2-2.2
	c-0.9-0.9-2-0.9-2.5-0.4l-0.1,0.1c-0.6,0.6-0.4,1.8,0.4,2.5l2.2,2.2l-2.2,2.2c-0.9,0.9-0.9,2-0.4,2.5l0.1,0.1
	c0.6,0.6,1.6,0.4,2.5-0.4l2.2-2.2l2.2,2.2c0.9,0.9,2,0.9,2.5,0.4l0.1-0.1c0.6-0.6,0.4-1.6-0.4-2.5L18.7,16.4z"/>
</svg>
