<?xml version="1.0" encoding="utf-8"?>
<!-- Generator: Adobe Illustrator 22.1.0, SVG Export Plug-In . SVG Version: 6.00 Build 0)  -->
<svg version="1.1" id="Layer_1" xmlns="http://www.w3.org/2000/svg" xmlns:xlink="http://www.w3.org/1999/xlink" x="0px" y="0px"
	 viewBox="0 0 33 32.8" style="enable-background:new 0 0 33 32.8;" xml:space="preserve">
<style type="text/css">
	.st0{fill:#FFFFFF;}
</style>
<title>Asset 129</title>
<g id="Layer_2_1_">
	<g id="Pestañas">
		<path class="st0" d="M13.3,17.1c-0.5-0.1-1-0.1-1.6-0.1v2.5c0.5,0,1,0,1.5-0.1c0.5-0.1,0.8-0.5,0.8-1.2S13.8,17.2,13.3,17.1z"/>
		<path class="st0" d="M12.9,15.4c0.5-0.1,0.8-0.5,0.8-1c0.1-0.6-0.1-1-0.6-1.1c-0.5-0.1-1-0.1-1.5-0.1v2.2
			C12.1,15.4,12.5,15.4,12.9,15.4z"/>
		<path class="st0" d="M30,17c0.5-0.5,0.5-0.7,0-1.2c-0.7-0.8-0.7-0.8-0.2-1.6c0.4-0.6,0.4-0.8-0.3-1.2c-0.8-0.6-0.8-0.6-0.5-1.5
			c0.2-0.7,0.1-0.9-0.5-1.1c-0.8-0.3-0.8-0.3-0.8-1.2c0.1-0.9,0-0.9-0.8-1.1c-1-0.2-1-0.2-1-1.1C26,6.1,25.8,6,25,5.9
			c-1,0-1,0-1.3-1c-0.2-0.7-0.3-0.8-1.1-0.6c-1,0.3-1,0.3-1.4-0.6C20.9,3.1,20.7,3,20,3.3c-0.9,0.5-0.9,0.5-1.6-0.3
			c-0.4-0.5-0.6-0.5-1.1-0.1c-0.8,0.7-0.8,0.7-1.7,0C15,2.5,14.9,2.5,14.5,3c-0.7,0.8-0.7,0.8-1.6,0.4C12.2,3,12.1,3,11.7,3.8
			c-0.5,0.8-0.5,0.8-1.4,0.6C9.5,4.2,9.3,4.3,9.1,5.1S8.8,6,7.9,6s-1,0-1,1c0,0.7-0.1,0.8-0.8,1c-1,0.2-1,0.2-0.9,1.2
			c0.1,0.8,0.1,0.8-0.7,1.1c-0.8,0.3-0.8,0.4-0.6,1.3c0.3,0.8,0.3,0.8-0.4,1.4c-0.8,0.5-0.8,0.6-0.3,1.3C3.7,14.9,3.7,15,3,15.7
			c-0.6,0.6-0.6,0.8,0,1.4s0.6,0.7,0.1,1.4c-0.5,0.7-0.5,0.8,0.3,1.4c0.8,0.5,0.8,0.5,0.4,1.3c-0.3,0.8-0.3,1,0.6,1.3
			C5,22.5,5.3,23,5.3,23.4c0,0.1,0,0.1-0.1,0.2c-0.2,0.9-0.1,1,0.8,1.2C7,25,6.9,25,7,25.9s0.1,0.9,1,0.9c1,0,1,0,1.2,0.9
			c0.2,0.8,0.3,0.8,1.1,0.6c1-0.3,1-0.3,1.4,0.6c0.4,0.7,0.5,0.7,1.2,0.4c0.9-0.5,0.9-0.5,1.6,0.3c0.5,0.5,0.6,0.6,1.2,0.1
			c0.8-0.7,0.8-0.7,1.7,0c0.5,0.4,0.7,0.4,1.2-0.1c0.6-0.8,0.6-0.8,1.6-0.3c0.7,0.3,0.8,0.3,1.2-0.4c0.5-0.9,0.5-0.9,1.4-0.7
			c0.8,0.2,0.9,0.1,1.1-0.6c0.3-0.9,0.3-0.9,1.2-0.9c0.8,0,0.9-0.1,1-0.9c0.1-1,0.1-1,1-1.1c0.8-0.1,0.8-0.3,0.7-1
			c-0.2-1-0.2-1,0.8-1.3c0.7-0.3,0.8-0.4,0.5-1.1c-0.3-1-0.3-1,0.5-1.5c0.6-0.4,0.6-0.6,0.2-1.2C29.3,17.7,29.3,17.7,30,17z
			 M16.2,19.3c-0.2,0.8-0.9,1.5-1.8,1.7c-0.3,0.1-0.6,0.1-0.9,0.1c-1.4,0-2.7,0-4.1,0v-9.5h0.4h3.4c0.3,0,0.6,0,0.8,0.1
			c1.2,0.2,1.8,0.7,1.9,1.7c0.3,1.1-0.3,2.2-1.3,2.6L14.6,16c1.3,0.4,2.1,1.8,1.7,3.1C16.2,19.2,16.2,19.3,16.2,19.3z M6.8,10.8
			C4.4,14.8,4.6,19,6.7,23.1c-2-2.5-3-7.9-0.4-12.5c2.2-4,7.1-6.7,11.2-6C12.8,4.7,9.2,6.7,6.8,10.8z M23.4,21.1H18v-9.5h2.3v7.7
			h3.2C23.4,19.9,23.4,20.5,23.4,21.1z"/>
	</g>
</g>
</svg>
