<?xml version="1.0" encoding="utf-8"?>
<!-- Generator: Adobe Illustrator 22.1.0, SVG Export Plug-In . SVG Version: 6.00 Build 0)  -->
<svg version="1.1" id="Layer_1" xmlns="http://www.w3.org/2000/svg" xmlns:xlink="http://www.w3.org/1999/xlink" x="0px" y="0px"
	 viewBox="0 0 33 32.8" style="enable-background:new 0 0 33 32.8;" xml:space="preserve">
<style type="text/css">
	.st0{fill:#FFFFFF;}
</style>
<title>budlight</title>
<path class="st0" d="M16.3,32.5c-8.9,0-16.1-7.2-16.1-16.1S7.4,0.3,16.3,0.3s16.1,7.2,16.1,16.1S25.2,32.5,16.3,32.5z M16.3,3.4
	c-7.2,0-13,5.8-13,13s5.8,13,13,13s13-5.8,13-13S23.5,3.4,16.3,3.4z"/>
<g>
	<path class="st0" d="M10.6,13.5v-0.2c0-0.9,0.7-1.7,1.7-1.7h7.8c0.9,0,1.7,0.7,1.7,1.7v0.2c0,0.9-0.7,1.7-1.7,1.7h-7.8
		C11.3,15.1,10.6,14.4,10.6,13.5z"/>
	<path class="st0" d="M10.6,19.4v-0.2c0-0.9,0.7-1.7,1.7-1.7h7.8c0.9,0,1.7,0.7,1.7,1.7v0.2c0,0.9-0.7,1.7-1.7,1.7h-7.8
		C11.3,21,10.6,20.3,10.6,19.4z"/>
</g>
</svg>
