<svg xmlns="http://www.w3.org/2000/svg" viewBox="0 0 76.79 52.6"><defs><style>.cls-1{fill:#fff;}.cls-2{fill:#ccc;}.cls-3{fill:gray;}.cls-4{fill:#3a4fa7;}.cls-5{fill:#f2f2f2;}</style></defs><title>box</title><g id="Layer_2" data-name="Layer 2"><g id="Layer_1-2" data-name="Layer 1"><path class="cls-1" d="M70.44,46.61c-3.25-.47-7.44-.79-10.6-1.27a5.53,5.53,0,0,1-1.27-.85c-1.83-1.29-4.57-3.28-6.35-4.66C58.29,40.26,65.79,42.48,70.44,46.61Z"/><path class="cls-2" d="M66.2,51.27c-5.13-1.12-11.1-2.73-16.1-3.82-2.8-.61-5.73-1.47-8.53-2.13a5.59,5.59,0,0,1-1.32-.74c2.73-1.69,5.67-3.64,8.14-5.22a1.22,1.22,0,0,1,1.63,0c2.39,1.73,5.28,3.36,7.64,5.14A5.92,5.92,0,0,0,61.49,46C64.3,45.83,65.5,48.85,66.2,51.27Z"/><path class="cls-1" d="M9.25,39.91c2.77-1.37,5.21-3.09,7.83-3.71,2.21-.52,4.64.21,7,.41l22.49,2,1,.09c-2.22,1.62-4.09,3.11-6.08,4.34-.58.37-1.5.06-2.26,0L9.9,40.11A6.43,6.43,0,0,1,9.25,39.91Z"/><path class="cls-3" d="M76.72,48.7l-11-1.59,2.63,5.49-6.79-1.46c-6.65-1.45-13.3-2.92-20-4.34-1-.21-1.78-.51-2.07-1.58s-1-1.3-2-1.38C26.57,43,15.61,42,4.65,41.08a4.59,4.59,0,0,1-.6-.2l4.07-1.8L0,36.92v-.2L8.33,36c2.41-.2,4.83-.4,7.24-.54.79-.05,1.11-.29,1.24-1.13Q19.32,18.65,21.91,3l.49-3C24.62,0,26.78,0,29,0c5.33.09,10.67.21,16,.32,3,.06,6,.08,9,.18A3,3,0,0,1,55.51,1c4.17,3,8.31,6,12.47,9a1.26,1.26,0,0,1,.58,1.43c-1.38,9.59-2.7,19.18-4.08,28.76a1.28,1.28,0,0,0,.76,1.54c3.52,2,7,4.08,10.53,6.12l1,.64ZM48.61,37.61C50.32,25.7,52,13.87,53.72,2L23.65,1.42C21.8,12.78,20,24,18.14,35.34Zm14.31,3.11c.36-2.52.7-4.87,1-7.21q1.51-10.65,3-21.3a1.38,1.38,0,0,0-.67-1.53c-1.69-1.16-3.32-2.4-5-3.6-2-1.47-4-2.93-6.21-4.51-1.7,11.86-3.37,23.52-5.06,35.25ZM9.9,40a5.88,5.88,0,0,0,.63.16l28.32,2.42c.74.06,1.62.31,2.19,0,1.91-1,3.72-2.26,5.87-3.59l-1-.07L24.19,37.24c-2.25-.17-4.59-.77-6.72-.34C14.93,37.41,12.58,38.83,9.9,40ZM65.53,50.48c-.69-2.41-1.65-4.23-4.47-4.08A5.8,5.8,0,0,1,57.24,45c-2.36-1.77-4.83-3.4-7.22-5.14a1.23,1.23,0,0,0-1.63,0c-2.47,1.58-5,3.11-7.71,4.8a5.4,5.4,0,0,0,1.32.74c2.79.66,5.6,1.26,8.4,1.87Zm3.78-4.36C64.66,42,59,41.31,53.35,40.24c1.78,1.39,3.61,2.68,5.45,4a2.51,2.51,0,0,0,1,.53C62.9,45.22,66.06,45.66,69.31,46.12ZM8.74,37.47c1.33.84,1.95.79,3.4-.3Z"/><path class="cls-2" d="M63.37,41.05l-13.62-3c1.78-12,3.56-24,5.36-36.16l6.58,4.63c1.76,1.23,3.5,2.5,5.29,3.69a1.39,1.39,0,0,1,.7,1.57q-1.62,10.92-3.21,21.84C64.12,36.06,63.75,38.46,63.37,41.05Z"/><path class="cls-1" d="M8.74,37.47l3.4-.3C10.69,38.26,10.07,38.31,8.74,37.47Z"/><path class="cls-4" d="M47.68,11.65a.3.3,0,0,0-.25.21c0,.12,0,.22.09.22a.34.34,0,0,0,.25-.22C47.81,11.74,47.77,11.65,47.68,11.65Zm0,.16a.08.08,0,0,1-.09.07V12h0v-.13h-.05l0,.13h0l.1-.29h.16A.06.06,0,0,1,47.72,11.81Z"/><path class="cls-4" d="M47.64,11.76h0l0,.08h.07a.05.05,0,0,0,0,0S47.67,11.76,47.64,11.76Z"/><path class="cls-5" d="M33.68,9.22h-.11l-.76,2.07h.12c.25,0,.59-.07,1-1.06S33.89,9.22,33.68,9.22Z"/><path class="cls-1" d="M23.54,1.18C21.68,12.63,19.83,24,18,35.38l30.81,2.29c1.73-12,3.44-23.94,5.17-35.94ZM48.43,12.85a.71.71,0,0,1-.6.52H24.32c-.25,0-.33-.2-.22-.52L26,7.7a.71.71,0,0,1,.6-.52H50.09c.25,0,.33.2.22.52Z"/><path class="cls-1" d="M50,7.49H26.47a.26.26,0,0,0-.23.2l-1.88,5.15c-.05.13,0,.2.08.2h23.5a.25.25,0,0,0,.23-.19l1.88-5.16C50.1,7.57,50.07,7.49,50,7.49ZM28.5,11a1.48,1.48,0,0,1-1.37,1.11H25.35l1.35-3.7h1.78c.54,0,.77.32.55.93a1.4,1.4,0,0,1-.7.77C28.54,10.25,28.68,10.54,28.5,11Zm1.19,1.17c-1,0-1.23-.48-.88-1.41l.85-2.36h1.11l-.91,2.5c-.1.27,0,.38.15.38s.33-.11.43-.38l.91-2.5h1.07l-.85,2.36A1.84,1.84,0,0,1,29.69,12.18Zm3.16-.06H31.4l1.36-3.71h1.5c.78,0,1.24.52.76,1.82A2.49,2.49,0,0,1,32.85,12.12Zm2.33,0,1.35-3.71h1.14l-1,2.79h.93l-.33.92Zm2.31,0,1.35-3.71H40l-1.35,3.71Zm3,.11c-1,0-1.43-.61-.94-2a2.66,2.66,0,0,1,2.36-2A1.05,1.05,0,0,1,43,8.87l-.77.74a.58.58,0,0,0-.55-.36c-.36,0-.7.31-1,1s-.27,1.12.16,1.12l.18,0,.23-.63H41l.27-.75h1.34l-.7,1.94A3.29,3.29,0,0,1,40.53,12.23Zm3.29-.12.53-1.43h-.61l-.52,1.44H42.11l1.35-3.71h1.11l-.49,1.35h.6l.5-1.35h1.11l-1.36,3.7Zm4-.25a.39.39,0,0,1-.31.27c-.11,0-.16-.12-.11-.27a.37.37,0,0,1,.31-.26C47.81,11.6,47.86,11.71,47.81,11.86Zm.94-2.58h-.7l-1,2.83H45.87l1-2.83h-.69l.32-.87h2.54Z"/><path class="cls-5" d="M27.36,10.55H27l-.29.8h.35c.15,0,.31-.08.43-.41S27.49,10.55,27.36,10.55Z"/><path class="cls-5" d="M27.82,9.18H27.5l-.27.75h.31c.16,0,.3-.1.41-.39S28,9.18,27.82,9.18Z"/></g></g></svg>