<?xml version="1.0" encoding="utf-8"?>
<!-- Generator: Adobe Illustrator 22.1.0, SVG Export Plug-In . SVG Version: 6.00 Build 0)  -->
<svg version="1.1" id="Layer_1" xmlns="http://www.w3.org/2000/svg" xmlns:xlink="http://www.w3.org/1999/xlink" x="0px" y="0px"
	 viewBox="0 0 33 32.8" style="enable-background:new 0 0 33 32.8;" xml:space="preserve">
<style type="text/css">
	.st0{fill:#FFFFFF;}
</style>
<title>budlight</title>
<path class="st0" d="M16.5,32.5c-8.9,0-16.1-7.2-16.1-16.1c0-8.9,7.2-16.1,16.1-16.1c8.9,0,16.1,7.2,16.1,16.1
	C32.6,25.3,25.4,32.5,16.5,32.5z M16.5,3.4c-7.2,0-13,5.8-13,13c0,7.2,5.8,13,13,13c7.2,0,13-5.8,13-13C29.5,9.2,23.7,3.4,16.5,3.4z
	"/>
<g>
	<path class="st0" d="M13.7,22h-0.2c-0.9,0-1.7-0.7-1.7-1.7v-7.8c0-0.9,0.7-1.7,1.7-1.7h0.2c0.9,0,1.7,0.7,1.7,1.7v7.8
		C15.3,21.3,14.6,22,13.7,22z"/>
	<path class="st0" d="M19.6,22h-0.2c-0.9,0-1.7-0.7-1.7-1.7v-7.8c0-0.9,0.7-1.7,1.7-1.7h0.2c0.9,0,1.7,0.7,1.7,1.7v7.8
		C21.2,21.3,20.5,22,19.6,22z"/>
</g>
</svg>
