<?xml version="1.0" encoding="utf-8"?>
<!-- Generator: Adobe Illustrator 22.1.0, SVG Export Plug-In . SVG Version: 6.00 Build 0)  -->
<svg version="1.1" id="Layer_1" xmlns="http://www.w3.org/2000/svg" xmlns:xlink="http://www.w3.org/1999/xlink" x="0px" y="0px"
	 viewBox="0 0 606.7 568.9" style="enable-background:new 0 0 606.7 568.9;" xml:space="preserve">
<style type="text/css">
	.st0{fill:url(#SVGID_1_);}
	.st1{fill:#FFB031;}
	.st2{fill:#131A35;}
	.st3{fill:#FFFFFF;}
	.st4{fill:url(#SVGID_2_);}
	.st5{fill:url(#SVGID_3_);}
	.st6{fill:url(#SVGID_4_);}
	.st7{fill:url(#SVGID_5_);}
	.st8{fill:url(#SVGID_6_);}
	.st9{fill:url(#SVGID_7_);}
	.st10{fill:url(#SVGID_8_);}
	.st11{fill:#231F20;}
	.st12{fill:url(#SVGID_9_);}
	.st13{fill:url(#SVGID_10_);}
	.st14{fill:url(#SVGID_11_);}
	.st15{fill:url(#SVGID_12_);}
	.st16{fill:url(#SVGID_13_);}
	.st17{fill:url(#SVGID_14_);}
	.st18{fill:url(#SVGID_15_);}
	.st19{fill:url(#SVGID_16_);}
	.st20{fill:url(#SVGID_17_);}
	.st21{fill:url(#SVGID_18_);}
	.st22{fill:url(#SVGID_19_);}
	.st23{fill:url(#SVGID_20_);}
	.st24{fill:url(#SVGID_21_);}
	.st25{fill:url(#SVGID_22_);}
	.st26{fill:url(#SVGID_23_);}
	.st27{fill:url(#SVGID_24_);}
	.st28{fill:url(#SVGID_25_);}
	.st29{fill:url(#SVGID_26_);}
	.st30{fill:url(#SVGID_27_);}
	.st31{fill:url(#SVGID_28_);}
	.st32{fill:url(#SVGID_29_);}
	.st33{fill:url(#SVGID_30_);}
	.st34{fill:url(#SVGID_31_);}
	.st35{fill:url(#SVGID_32_);}
	.st36{fill:url(#SVGID_33_);}
	.st37{fill:url(#SVGID_34_);}
	.st38{fill:url(#SVGID_35_);}
	.st39{fill:url(#SVGID_36_);}
	.st40{fill:url(#SVGID_37_);}
	.st41{fill:url(#SVGID_38_);}
	.st42{fill:url(#SVGID_39_);}
	.st43{fill:url(#SVGID_40_);}
	.st44{fill:url(#SVGID_41_);}
	.st45{fill:url(#SVGID_42_);}
	.st46{fill:url(#SVGID_43_);}
	.st47{fill:url(#SVGID_44_);}
	.st48{fill:url(#SVGID_45_);}
	.st49{fill:url(#SVGID_46_);}
	.st50{fill:url(#SVGID_47_);}
	.st51{fill:url(#SVGID_48_);}
	.st52{fill:url(#SVGID_49_);}
</style>
<title>infografia-ppt</title>
<linearGradient id="SVGID_1_" gradientUnits="userSpaceOnUse" x1="191.9" y1="311.8" x2="516.1" y2="311.8" gradientTransform="matrix(1 0 0 -1 0 570)">
	<stop  offset="0" style="stop-color:#F27C38"/>
	<stop  offset="1" style="stop-color:#F45A2A"/>
</linearGradient>
<path class="st0" d="M354,96.1c89.5,0,162.1,72.5,162.1,162.1c0,89.5-72.5,162.1-162.1,162.1c-89.5,0-162.1-72.5-162.1-162.1
	c0-47.9,21.1-93.3,57.7-124.1l104.3,124l0,0L354,96.1z"/>
<path class="st1" d="M249.8,134c26.2-22,58.7-35.1,92.8-37.5L354,258.2l0,0L249.8,134z"/>
<path class="st2" d="M342.8,96.4c3.7-0.3,7.3-0.4,11-0.4l0.2,162.1l0,0L342.8,96.4z"/>
<polygon class="st2" points="346.4,65.7 344.4,65.7 344.4,18.8 403,18.8 403,20.8 346.4,20.8 "/>
<path class="st3" d="M352.9,65.2c0,4.2-3.4,7.5-7.5,7.5c-4.2,0-7.5-3.4-7.5-7.5s3.4-7.5,7.5-7.5l0,0
	C349.5,57.7,352.9,61.1,352.9,65.2z"/>
<path class="st2" d="M353.9,65.2c0-4.7-3.8-8.5-8.5-8.5s-8.5,3.8-8.5,8.5s3.8,8.5,8.5,8.5l0,0C350.1,73.7,353.9,69.9,353.9,65.2z
	 M338.9,65.2c0-3.6,2.9-6.5,6.5-6.5s6.5,2.9,6.5,6.5s-2.9,6.5-6.5,6.5l0,0C341.8,71.8,338.9,68.8,338.9,65.2z"/>
<polygon class="st2" points="400.1,29.7 417.4,19.8 400.1,9.8 "/>
<path class="st2" d="M427.7,22.7h3v-7.2h-2.6v-2.3c1.3-0.2,2.5-0.7,3.6-1.4h2.8v10.9h2.5v3h-9.3V22.7z"/>
<path class="st2" d="M438.6,15.7c0-2.9,1.6-4.5,3.7-4.5s3.7,1.7,3.7,4.5s-1.6,4.6-3.7,4.6S438.6,18.6,438.6,15.7z M443.4,15.7
	c0-1.9-0.5-2.5-1.1-2.5s-1.1,0.5-1.1,2.5s0.5,2.5,1.1,2.5S443.4,17.7,443.4,15.7L443.4,15.7z M450.5,11.2h2.1L445,26h-2.1
	L450.5,11.2z M449.4,21.4c0-2.9,1.6-4.5,3.7-4.5s3.7,1.7,3.7,4.5s-1.6,4.6-3.7,4.6S449.4,24.3,449.4,21.4L449.4,21.4z M454.2,21.4
	c0-1.9-0.5-2.5-1.1-2.5s-1.1,0.5-1.1,2.5s0.5,2.5,1.1,2.5S454.2,23.4,454.2,21.4L454.2,21.4z"/>
<linearGradient id="SVGID_2_" gradientUnits="userSpaceOnUse" x1="416.27" y1="62.1986" x2="432.78" y2="62.1986" gradientTransform="matrix(1 0 0 -1 0 570)">
	<stop  offset="0" style="stop-color:#F27C38"/>
	<stop  offset="1" style="stop-color:#F45A2A"/>
</linearGradient>
<path class="st4" d="M416.3,513.4c0-2.7,1.6-4.2,3.7-5.4v-0.1c-1.8-1.2-3-3.2-3-5.4c0-4,3.2-6.5,7.6-6.5c4.2,0,7.1,2.5,7.1,6.3
	c-0.1,2-1.2,3.8-2.9,4.8v0.1c2.2,1.2,3.9,3,3.9,6c0,3.7-3.4,6.4-8.4,6.4C419.8,519.7,416.3,517.1,416.3,513.4z M427,513
	c0-1.6-1.6-2.3-4.3-3.5c-0.7,0.9-1.2,2-1.2,3.1c0,1.5,1.2,2.7,2.7,2.8c0.1,0,0.2,0,0.3,0c1.2,0.2,2.3-0.7,2.5-1.9
	C427,513.3,427,513.2,427,513z M426.8,502.7c0.2-1.2-0.7-2.3-1.9-2.5c-0.1,0-0.3,0-0.4,0c-1.1-0.1-2,0.8-2.1,1.9c0,0.1,0,0.2,0,0.3
	c0,1.5,1.2,2.3,3.4,3.2C426.4,504.8,426.7,503.8,426.8,502.7L426.8,502.7z"/>
<linearGradient id="SVGID_3_" gradientUnits="userSpaceOnUse" x1="435.42" y1="62.15" x2="452.42" y2="62.15" gradientTransform="matrix(1 0 0 -1 0 570)">
	<stop  offset="0" style="stop-color:#F27C38"/>
	<stop  offset="1" style="stop-color:#F45A2A"/>
</linearGradient>
<path class="st5" d="M435.4,507.7c0-7.8,3.5-11.7,8.5-11.7s8.5,4,8.5,11.7s-3.5,12-8.5,12S435.4,515.5,435.4,507.7z M446.6,507.7
	c0-6-1.2-7-2.7-7s-2.7,0.9-2.7,7c0,6.1,1.2,7.2,2.7,7.2S446.6,513.8,446.6,507.7L446.6,507.7z"/>
<linearGradient id="SVGID_4_" gradientUnits="userSpaceOnUse" x1="454.43" y1="62.45" x2="484.13" y2="62.45" gradientTransform="matrix(1 0 0 -1 0 570)">
	<stop  offset="0" style="stop-color:#F27C38"/>
	<stop  offset="1" style="stop-color:#F45A2A"/>
</linearGradient>
<path class="st6" d="M454.4,502.8c0-4.7,2.6-7.4,6-7.4s6,2.7,6,7.4s-2.6,7.5-6,7.5S454.4,507.5,454.4,502.8z M462.3,502.8
	c0-3.2-0.9-4-1.8-4s-1.8,0.9-1.8,4s0.9,4.1,1.8,4.1S462.3,506,462.3,502.8z M473.9,495.4h3.5l-12.5,24.3h-3.5L473.9,495.4z
	 M472.1,512.2c0-4.7,2.6-7.4,6-7.4s6,2.7,6,7.4c0,4.7-2.6,7.5-6,7.5S472.1,516.9,472.1,512.2z M479.9,512.2c0-3.2-0.9-4-1.8-4
	s-1.8,0.9-1.8,4c0,3.1,0.9,4.1,1.8,4.1S479.9,515.3,479.9,512.2z"/>
<path class="st1" d="M176.4,41.9h3.3V34h-2.9v-2.5c1.4-0.2,2.8-0.7,4-1.5h3v11.9h2.7v3.3h-10.1V41.9z"/>
<path class="st1" d="M188.7,43.6l2.2-2.4c0.6,0.6,1.4,1,2.3,1c1.5,0,2.7-1,2.8-4.1c-0.7,0.9-1.7,1.4-2.9,1.5c-2.6,0-4.6-1.4-4.6-4.7
	c-0.1-2.8,2-5.1,4.8-5.2c0.2,0,0.3,0,0.5,0c2.9,0,5.9,2.1,5.9,7.6s-3,8.2-6.3,8.2C191.7,45.5,190,44.9,188.7,43.6z M195.9,35.5
	c-0.3-2.1-1.2-2.6-2-2.6s-1.6,0.5-1.6,2.1s0.8,1.8,1.7,1.8C194.8,36.7,195.5,36.2,195.9,35.5z"/>
<path class="st1" d="M201.2,34.3c0-3.1,1.7-4.9,4-4.9s4,1.8,4,4.9s-1.7,5-4,5S201.2,37.4,201.2,34.3z M206.4,34.3
	c0-2.1-0.6-2.7-1.2-2.7s-1.2,0.6-1.2,2.7s0.6,2.7,1.2,2.7S206.4,36.4,206.4,34.3z M214.2,29.4h2.3l-8.4,16.2h-2.3L214.2,29.4z
	 M213,40.5c0-3.1,1.7-4.9,4-4.9s4,1.8,4,4.9s-1.7,5-4,5S213,43.7,213,40.5z M218.2,40.5c0-2.1-0.6-2.7-1.2-2.7s-1.2,0.6-1.2,2.7
	s0.6,2.7,1.2,2.7S218.2,42.7,218.2,40.5L218.2,40.5z"/>
<polygon class="st1" points="291.3,85.2 289.3,85.2 289.3,38.8 247,38.8 247,36.8 291.3,36.8 "/>
<path class="st1" d="M297.8,84.7c0,4.2-3.4,7.5-7.5,7.5c-4.2,0-7.5-3.4-7.5-7.5s3.4-7.5,7.5-7.5l0,0
	C294.4,77.2,297.8,80.6,297.8,84.7L297.8,84.7z"/>
<path class="st1" d="M298.8,84.7c0-4.7-3.8-8.5-8.5-8.5s-8.5,3.8-8.5,8.5s3.8,8.5,8.5,8.5l0,0C295,93.2,298.8,89.4,298.8,84.7z
	 M283.8,84.7c0-3.6,2.9-6.5,6.5-6.5s6.5,2.9,6.5,6.5s-2.9,6.5-6.5,6.5l0,0C286.7,91.2,283.8,88.3,283.8,84.7z"/>
<polygon class="st1" points="249.9,27.8 232.7,37.8 249.9,47.7 "/>
<linearGradient id="SVGID_5_" gradientUnits="userSpaceOnUse" x1="352.6" y1="89" x2="394.74" y2="89" gradientTransform="matrix(1 0 0 -1 0 570)">
	<stop  offset="0" style="stop-color:#F27C38"/>
	<stop  offset="1" style="stop-color:#F45A2A"/>
</linearGradient>
<polygon class="st7" points="394.8,511.2 352.6,511.2 352.6,450.8 354.6,450.8 354.6,509.2 394.8,509.2 "/>
<linearGradient id="SVGID_6_" gradientUnits="userSpaceOnUse" x1="346.12" y1="118.7" x2="361.16" y2="118.7" gradientTransform="matrix(1 0 0 -1 0 570)">
	<stop  offset="0" style="stop-color:#F27C38"/>
	<stop  offset="1" style="stop-color:#F45A2A"/>
</linearGradient>
<path class="st8" d="M346.1,451.3c0-4.2,3.4-7.5,7.5-7.5s7.5,3.4,7.5,7.5c0,4.2-3.4,7.5-7.5,7.5l0,0
	C349.5,458.8,346.1,455.4,346.1,451.3L346.1,451.3z"/>
<linearGradient id="SVGID_7_" gradientUnits="userSpaceOnUse" x1="345.12" y1="118.701" x2="362.16" y2="118.701" gradientTransform="matrix(1 0 0 -1 0 570)">
	<stop  offset="0" style="stop-color:#F27C38"/>
	<stop  offset="1" style="stop-color:#F45A2A"/>
</linearGradient>
<path class="st9" d="M345.1,451.3c0,4.7,3.8,8.5,8.5,8.5s8.5-3.8,8.5-8.5s-3.8-8.5-8.5-8.5l0,0C348.9,442.7,345.1,446.6,345.1,451.3
	z M360.1,451.3c0,3.6-2.9,6.5-6.5,6.5s-6.5-2.9-6.5-6.5s2.9-6.5,6.5-6.5l0,0C357.2,444.7,360.1,447.7,360.1,451.3z"/>
<linearGradient id="SVGID_8_" gradientUnits="userSpaceOnUse" x1="391.87" y1="59.75" x2="409.13" y2="59.75" gradientTransform="matrix(1 0 0 -1 0 570)">
	<stop  offset="0" style="stop-color:#F27C38"/>
	<stop  offset="1" style="stop-color:#F45A2A"/>
</linearGradient>
<polygon class="st10" points="391.9,520.2 409.1,510.2 391.9,500.3 "/>
<path class="st11" d="M465.4,0.3h3c2.7,0,4.3,0.9,4.3,3.3s-1.6,3.5-4.2,3.5h-2.2v5.1h-0.8L465.4,0.3z M468.3,6.4
	c2.4,0,3.6-0.8,3.6-2.8S470.7,1,468.2,1h-2v5.4H468.3z"/>
<path class="st11" d="M474,7.8c0-2.9,1.8-4.6,3.9-4.6s3.9,1.7,3.9,4.6s-1.8,4.5-3.9,4.5S474,10.7,474,7.8z M480.9,7.8
	c0.1-2.3-1.3-3.8-3-3.8s-3,1.6-3,3.8s1.3,3.8,3,3.8S481,10.1,480.9,7.8L480.9,7.8z"/>
<path class="st11" d="M484.4,3.5h0.7l0.1,1.6l0,0c0.4-1,1.4-1.7,2.5-1.8c0.3,0,0.6,0.1,0.9,0.2l-0.2,0.7c-0.2-0.1-0.5-0.2-0.8-0.2
	c-0.8,0-1.7,0.6-2.4,2.2v5.9h-0.8L484.4,3.5z"/>
<path class="st11" d="M489.2,7.8c0-2.9,1.8-4.6,3.9-4.6c1,0,1.9,0.4,2.5,1.1l-0.5,0.6c-0.5-0.6-1.2-0.9-2-0.9
	c-1.8,0-3.2,1.6-3.2,3.8s1.2,3.8,3.1,3.8c0.9,0,1.7-0.4,2.3-1l0.4,0.6c-0.8,0.7-1.7,1.1-2.8,1.1C490.9,12.4,489.2,10.7,489.2,7.8z"
	/>
<path class="st11" d="M497,7.8c0-2.8,1.8-4.6,3.8-4.6s3.3,1.5,3.3,4c0,0.2,0,0.4,0,0.7h-6.2c0,2.2,1.3,3.8,3.3,3.8
	c0.8,0,1.7-0.3,2.3-0.8l0.3,0.6c-0.8,0.6-1.7,0.8-2.7,0.9C498.8,12.4,497,10.7,497,7.8z M503.3,7.3c0-2.2-1-3.3-2.5-3.3
	s-2.8,1.2-3,3.3H503.3z"/>
<path class="st11" d="M506.4,3.5h0.7l0.1,1.3l0,0c0.7-0.9,1.8-1.5,3-1.5c1.8,0,2.6,1.1,2.6,3.3v5.5H512V6.7c0-1.8-0.6-2.7-2-2.7
	c-1,0-1.8,0.5-2.8,1.6v6.5h-0.8L506.4,3.5L506.4,3.5z"/>
<path class="st11" d="M516.2,9.8V4.2h-1.3V3.6l1.4-0.1l0.1-2.5h0.7v2.5h2.5v0.7H517v5.6c0,1.1,0.3,1.8,1.5,1.8
	c0.4,0,0.7-0.1,1.1-0.3l0.2,0.6c-0.4,0.2-0.9,0.3-1.4,0.3C516.7,12.4,516.2,11.3,516.2,9.8z"/>
<path class="st11" d="M520.6,10c0-1.9,1.7-2.8,5.6-3.3c0-1.3-0.3-2.7-2-2.7c-1,0-2,0.4-2.8,1L521,4.4c0.9-0.7,2.1-1.1,3.2-1.1
	c2,0,2.7,1.5,2.7,3.3v5.5h-0.7l-0.1-1.1H526c-0.8,0.8-1.9,1.2-3.1,1.3c-1.2,0.1-2.4-0.8-2.5-2C520.6,10.2,520.6,10.1,520.6,10z
	 M526.2,10.3v-3c-3.6,0.4-4.8,1.2-4.8,2.6c-0.1,0.9,0.6,1.7,1.5,1.7c0.1,0,0.2,0,0.3,0C524.3,11.6,525.4,11.1,526.2,10.3L526.2,10.3
	z"/>
<path class="st11" d="M527.8,16.1l0.2-0.6c0.3,0.1,0.6,0.2,0.9,0.2c1,0,1.2-0.8,1.2-1.9V3.5h0.8v10.2c0,1.7-0.6,2.5-2,2.5
	C528.5,16.3,528.1,16.2,527.8,16.1z M529.7,0.7c0-0.4,0.3-0.7,0.7-0.7s0.7,0.3,0.7,0.7s-0.3,0.7-0.7,0.7
	C530,1.5,529.7,1.1,529.7,0.7z"/>
<path class="st11" d="M533.4,7.8c0-2.8,1.8-4.6,3.8-4.6s3.3,1.5,3.3,4c0,0.2,0,0.4,0,0.7h-6.2c0,2.2,1.3,3.8,3.3,3.8
	c0.8,0,1.7-0.3,2.3-0.8l0.3,0.6c-0.8,0.6-1.7,0.8-2.7,0.9C535.2,12.4,533.4,10.7,533.4,7.8z M539.7,7.3c0-2.2-1-3.3-2.5-3.3
	s-2.8,1.2-3,3.3H539.7z"/>
<path class="st11" d="M552.1,12.7V11c-0.7,0.8-1.8,1.3-2.9,1.4c-2.2,0-3.6-1.6-3.6-4.5s1.8-4.6,3.8-4.6c0.9,0,1.9,0.4,2.6,1l0,0
	l0.1-0.8h0.7v12.6H552L552.1,12.7z M552.1,10.2V5.1c-0.7-0.7-1.6-1.1-2.5-1.1c-1.7,0-3,1.7-3,3.8s1,3.8,2.8,3.8
	C550.5,11.6,551.5,11.1,552.1,10.2z"/>
<path class="st11" d="M556.1,9.1V3.5h0.8V9c0,1.8,0.6,2.7,2,2.7c1,0,1.8-0.5,2.8-1.8V3.5h0.8v8.6h-0.7l-0.1-1.4l0,0
	c-0.7,1-1.8,1.6-2.9,1.7C556.9,12.4,556.1,11.3,556.1,9.1z"/>
<path class="st11" d="M565,7.8c0-2.8,1.8-4.6,3.8-4.6s3.3,1.5,3.3,4c0,0.2,0,0.4,0,0.7h-6.2c0,2.2,1.3,3.8,3.3,3.8
	c0.8,0,1.7-0.3,2.3-0.8l0.3,0.6c-0.8,0.6-1.7,0.9-2.7,0.9C566.8,12.4,565,10.7,565,7.8z M571.3,7.3c0-2.2-1-3.3-2.5-3.3
	s-2.8,1.2-3,3.3H571.3z"/>
<path class="st11" d="M578.2,9.8V4.2h-1.3V3.6l1.4-0.1l0.1-2.5h0.7v2.5h2.5v0.7H579v5.6c0,1.1,0.3,1.8,1.5,1.8
	c0.4,0,0.7-0.1,1.1-0.3l0.2,0.6c-0.4,0.2-0.9,0.3-1.4,0.3C578.7,12.4,578.2,11.3,578.2,9.8z"/>
<path class="st11" d="M582.7,7.8c0-2.8,1.8-4.6,3.8-4.6s3.3,1.5,3.3,4c0,0.2,0,0.4,0,0.7h-6.2c0,2.2,1.3,3.8,3.3,3.8
	c0.8,0,1.7-0.3,2.3-0.8l0.3,0.6c-0.8,0.6-1.7,0.8-2.7,0.9C584.5,12.4,582.7,10.7,582.7,7.8z M589.1,7.3c0-2.2-1-3.3-2.5-3.3
	s-2.8,1.2-3,3.3H589.1z"/>
<path class="st11" d="M464.6,29.5c0-2.8,1.8-4.6,3.8-4.6c1,0,1.9,0.4,2.6,1.1v-1.6v-3.6h0.8v12.9h-0.7l-0.1-1.1h0
	c-0.7,0.8-1.7,1.3-2.8,1.4C466,34,464.6,32.4,464.6,29.5z M471,31.8v-5.1c-0.7-0.7-1.6-1.1-2.5-1.1c-1.7,0-3,1.7-3,3.9
	s1,3.8,2.9,3.8C469.3,33.2,470.3,32.7,471,31.8z"/>
<path class="st11" d="M474.4,29.5c0-2.8,1.8-4.6,3.8-4.6s3.3,1.5,3.3,4c0,0.2,0,0.4,0,0.6h-6.2c0,2.2,1.3,3.8,3.3,3.8
	c0.8,0,1.7-0.3,2.3-0.8l0.3,0.6c-0.8,0.6-1.7,0.8-2.7,0.8C476.2,34,474.4,32.3,474.4,29.5z M480.7,28.9c0-2.2-1-3.3-2.5-3.3
	s-2.8,1.2-3,3.3H480.7z"/>
<path class="st11" d="M482.7,32.8l0.5-0.6c0.7,0.7,1.7,1.1,2.8,1.1c1.4,0,2-0.8,2-1.7c0-1.1-1.1-1.5-2.1-1.9c-1.3-0.5-2.8-1-2.8-2.5
	c0-1.3,1-2.3,2.8-2.3c0.9,0,1.8,0.3,2.5,0.9l-0.4,0.6c-0.6-0.5-1.3-0.8-2.1-0.8c-1.3,0-1.9,0.8-1.9,1.6c0,1,1,1.4,2,1.8
	c1.4,0.5,2.8,1,2.8,2.6c0,1.3-1,2.4-2.9,2.4C484.7,33.9,483.6,33.5,482.7,32.8z"/>
<path class="st11" d="M490.4,29.5c0-2.9,1.8-4.6,4-4.6c1,0,1.9,0.4,2.5,1.1l-0.5,0.5c-0.5-0.6-1.3-0.9-2.1-0.9
	c-1.8,0-3.1,1.6-3.1,3.9s1.2,3.8,3.1,3.8c0.9,0,1.7-0.4,2.3-1l0.4,0.5c-0.7,0.7-1.7,1.1-2.8,1.1C492.1,34,490.4,32.3,490.4,29.5z"/>
<path class="st11" d="M499.1,30.7v-5.5h0.8v5.4c0,1.8,0.6,2.7,2,2.7c1,0,1.8-0.5,2.8-1.8v-6.4h0.8v8.6h-0.7l-0.1-1.4l0,0
	c-0.7,1-1.8,1.6-3,1.7C499.9,34,499.1,32.9,499.1,30.7z"/>
<path class="st11" d="M509.5,32.9L509.5,32.9l-0.1,0.9h-0.7v-13h0.8v3.7v1.7c0.8-0.8,1.9-1.3,3-1.4c2.3,0,3.5,1.7,3.5,4.4
	c0,2.9-1.8,4.7-3.8,4.7C511.2,33.9,510.2,33.5,509.5,32.9z M515.1,29.3c0-2.1-0.8-3.7-2.7-3.7c-1.1,0.1-2.1,0.6-2.8,1.4v5.1
	c0.7,0.7,1.6,1.1,2.6,1.1C513.8,33.3,515.1,31.6,515.1,29.3z"/>
<path class="st11" d="M518.5,25.1h0.7l0.1,1.6l0,0c0.4-1,1.4-1.7,2.5-1.8c0.3,0,0.6,0,0.9,0.2l-0.2,0.7c-0.3-0.1-0.5-0.1-0.8-0.1
	c-0.8,0-1.7,0.6-2.4,2.2v5.9h-0.8V25.1z"/>
<path class="st11" d="M523.2,31.6c0-1.9,1.7-2.8,5.6-3.3c0-1.3-0.3-2.7-2-2.7c-1,0-2,0.4-2.8,1l-0.4-0.6c0.9-0.7,2.1-1.1,3.2-1.1
	c2,0,2.7,1.5,2.7,3.3v5.5h-0.7l-0.1-1.1h-0.1c-0.9,0.8-1.9,1.3-3.1,1.4c-1.2,0.1-2.4-0.8-2.5-2C523.2,31.9,523.2,31.7,523.2,31.6z
	 M528.8,31.9V29c-3.6,0.4-4.8,1.2-4.8,2.6c-0.1,0.9,0.6,1.7,1.5,1.7c0.1,0,0.2,0,0.3,0C527,33.2,528,32.7,528.8,31.9z"/>
<path class="st11" d="M532.6,25.1h0.7l0.1,1.3h0.1c0.7-0.9,1.8-1.5,3-1.5c1.8,0,2.6,1.1,2.6,3.3v5.5h-0.8v-5.4c0-1.8-0.6-2.7-2-2.7
	c-1,0-1.8,0.5-2.8,1.6v6.5h-0.8L532.6,25.1z"/>
<path class="st11" d="M543.5,37.7l0.2-0.7c0.3,0.1,0.6,0.2,0.9,0.2c1,0,1.2-0.8,1.2-1.9V25.1h0.8v10.2c0,1.7-0.6,2.5-1.9,2.5
	C544.3,37.9,543.9,37.8,543.5,37.7z M545.5,22.3c0-0.4,0.3-0.7,0.7-0.7l0,0c0.4,0,0.7,0.3,0.7,0.7l0,0c0,0.4-0.3,0.7-0.7,0.7l0,0
	C545.9,23.1,545.5,22.8,545.5,22.3C545.5,22.4,545.5,22.3,545.5,22.3L545.5,22.3z"/>
<path class="st11" d="M549.8,30.7v-5.5h0.8v5.4c0,1.8,0.6,2.7,2,2.7c1,0,1.8-0.5,2.8-1.8v-6.4h0.8v8.6h-0.7l-0.1-1.4l0,0
	c-0.7,1-1.8,1.6-3,1.7C550.6,34,549.8,32.9,549.8,30.7z"/>
<path class="st11" d="M558.7,35.5c0.1-0.9,0.5-1.6,1.3-2.1v-0.1c-0.5-0.3-0.8-0.8-0.8-1.4s0.4-1.2,0.9-1.6v-0.1
	c-0.7-0.6-1.1-1.5-1.1-2.4c0-1.7,1.3-3,2.9-3c0,0,0,0,0.1,0c0.4,0,0.8,0.1,1.1,0.2h2.9v0.7h-2c0.6,0.5,1,1.3,1,2.2c0,1.7-1.3,3-3,3
	c-0.5,0-1-0.1-1.4-0.4c-0.4,0.3-0.7,0.7-0.7,1.2c0,0.6,0.4,1.1,1.7,1.1h1.9c1.9,0,2.8,0.6,2.8,2s-1.6,2.9-4.1,2.9
	C560.1,37.9,558.7,37,558.7,35.5z M565.5,35.1c0-1-0.7-1.3-2-1.3h-1.8c-0.4,0-0.7-0.1-1.1-0.1c-0.7,0.4-1.1,1.1-1.1,1.8
	c0,1.1,1,1.8,2.9,1.8S565.5,36.2,565.5,35.1z M564.4,27.9c0.1-1.2-0.8-2.3-2-2.5c-1.2-0.1-2.3,0.8-2.5,2c0,0.1,0,0.3,0,0.4
	c-0.1,1.2,0.8,2.3,2,2.5c1.2,0.1,2.3-0.8,2.5-2C564.4,28.2,564.4,28.1,564.4,27.9z"/>
<path class="st11" d="M567.3,31.6c0-1.9,1.7-2.8,5.6-3.3c0-1.3-0.3-2.7-2-2.7c-1,0-2,0.4-2.8,1l-0.4-0.6c0.9-0.7,2-1.1,3.2-1.1
	c2,0,2.7,1.5,2.7,3.3v5.5H573v-1.1l0,0c-0.9,0.8-2,1.3-3.1,1.4c-1.2,0.1-2.4-0.8-2.5-2C567.3,31.8,567.3,31.7,567.3,31.6z
	 M572.9,31.9V29c-3.6,0.4-4.8,1.2-4.8,2.6c0,0.9,0.7,1.7,1.6,1.7c0.1,0,0.2,0,0.3,0C571.1,33.2,572.1,32.7,572.9,31.9L572.9,31.9z"
	/>
<path class="st11" d="M576.8,25.1h0.7l0.1,1.3l0,0c0.7-0.9,1.8-1.5,3-1.5c1.8,0,2.6,1.1,2.6,3.3v5.5h-0.8v-5.4c0-1.8-0.6-2.7-2-2.7
	c-1,0-1.8,0.5-2.8,1.6v6.5h-0.8V25.1z"/>
<path class="st11" d="M585.6,29.5c0-2.8,1.8-4.6,3.8-4.6c1,0,1.9,0.4,2.6,1.1v-1.6v-3.6h0.8v12.9h-0.7l-0.1-1.1h0
	c-0.7,0.8-1.7,1.3-2.8,1.4C587,34,585.6,32.4,585.6,29.5z M592,31.8v-5.1c-0.7-0.7-1.6-1.1-2.5-1.1c-1.7,0-3,1.7-3,3.9
	s1,3.8,2.8,3.8C590.4,33.2,591.4,32.7,592,31.8z"/>
<path class="st11" d="M595.4,29.5c0-2.9,1.8-4.6,3.9-4.6s3.9,1.7,3.9,4.6s-1.8,4.5-3.9,4.5S595.4,32.3,595.4,29.5z M602.4,29.5
	c0-2.3-1.3-3.9-3.1-3.9s-3,1.6-3,3.9s1.3,3.8,3,3.8S602.4,31.7,602.4,29.5z"/>
<path class="st11" d="M605.2,33.2c0-0.4,0.3-0.8,0.7-0.8l0,0c0.5,0,0.8,0.3,0.9,0.8c0,0.5-0.3,0.8-0.8,0.9
	C605.6,34,605.2,33.7,605.2,33.2L605.2,33.2z"/>
<linearGradient id="SVGID_9_" gradientUnits="userSpaceOnUse" x1="339.71" y1="32.8" x2="346.17" y2="32.8" gradientTransform="matrix(1 0 0 -1 0 570)">
	<stop  offset="0" style="stop-color:#F27C38"/>
	<stop  offset="1" style="stop-color:#F45A2A"/>
</linearGradient>
<path class="st12" d="M339.7,531.3h6.5v0.7h-5.6v4.7h4.8v0.7h-4.8v5.7h-0.8v-11.8H339.7z"/>
<linearGradient id="SVGID_10_" gradientUnits="userSpaceOnUse" x1="347.29" y1="31.2405" x2="354.3712" y2="31.2405" gradientTransform="matrix(1 0 0 -1 0 570)">
	<stop  offset="0" style="stop-color:#F27C38"/>
	<stop  offset="1" style="stop-color:#F45A2A"/>
</linearGradient>
<path class="st13" d="M347.3,538.8c0-2.8,1.8-4.6,3.8-4.6s3.3,1.5,3.3,4c0,0.2,0,0.4,0,0.7h-6.3c0,2.2,1.3,3.8,3.3,3.8
	c0.8,0,1.7-0.3,2.3-0.8l0.3,0.6c-0.8,0.6-1.7,0.9-2.7,0.8C349.1,543.4,347.3,541.7,347.3,538.8z M353.6,538.3c0-2.2-1-3.3-2.5-3.3
	s-2.8,1.2-3,3.3H353.6z"/>
<linearGradient id="SVGID_11_" gradientUnits="userSpaceOnUse" x1="355.62" y1="31.15" x2="361.62" y2="31.15" gradientTransform="matrix(1 0 0 -1 0 570)">
	<stop  offset="0" style="stop-color:#F27C38"/>
	<stop  offset="1" style="stop-color:#F45A2A"/>
</linearGradient>
<path class="st14" d="M355.6,542.2l0.5-0.6c0.7,0.7,1.7,1.1,2.8,1.1c1.4,0,2.1-0.8,2.1-1.7c0-1.1-1.1-1.5-2.1-1.9
	c-1.3-0.5-2.8-1-2.8-2.5c0-1.3,1-2.3,2.8-2.3c0.9,0,1.8,0.3,2.5,0.9l-0.4,0.5c-0.6-0.5-1.3-0.8-2.1-0.8c-1.3,0-2,0.8-2,1.6
	c0,1,1,1.4,2,1.8c1.4,0.5,2.8,1,2.8,2.7c0,1.3-1,2.4-2.9,2.4C357.6,543.3,356.5,542.9,355.6,542.2z"/>
<linearGradient id="SVGID_12_" gradientUnits="userSpaceOnUse" x1="362.48" y1="32.3882" x2="367.39" y2="32.3882" gradientTransform="matrix(1 0 0 -1 0 570)">
	<stop  offset="0" style="stop-color:#F27C38"/>
	<stop  offset="1" style="stop-color:#F45A2A"/>
</linearGradient>
<path class="st15" d="M363.8,540.8v-5.6h-1.4v-0.6l1.4-0.1l0.1-2.5h0.7v2.5h2.5v0.7h-2.5v5.6c0,1.1,0.3,1.8,1.5,1.8
	c0.4,0,0.7-0.1,1.1-0.3l0.2,0.6c-0.4,0.2-0.9,0.3-1.4,0.3C364.3,543.4,363.8,542.3,363.8,540.8z"/>
<linearGradient id="SVGID_13_" gradientUnits="userSpaceOnUse" x1="368.33" y1="31.2405" x2="375.4112" y2="31.2405" gradientTransform="matrix(1 0 0 -1 0 570)">
	<stop  offset="0" style="stop-color:#F27C38"/>
	<stop  offset="1" style="stop-color:#F45A2A"/>
</linearGradient>
<path class="st16" d="M368.3,538.8c0-2.8,1.8-4.6,3.8-4.6s3.3,1.5,3.3,4c0,0.2,0,0.4,0,0.7h-6.2c0,2.2,1.3,3.8,3.3,3.8
	c0.8,0,1.7-0.3,2.3-0.8l0.3,0.6c-0.8,0.6-1.7,0.9-2.7,0.8C370.1,543.4,368.3,541.7,368.3,538.8z M374.6,538.3c0-2.2-1-3.3-2.5-3.3
	s-2.8,1.2-3,3.3H374.6z"/>
<linearGradient id="SVGID_14_" gradientUnits="userSpaceOnUse" x1="375.49" y1="30.839" x2="378.89" y2="30.839" gradientTransform="matrix(1 0 0 -1 0 570)">
	<stop  offset="0" style="stop-color:#F27C38"/>
	<stop  offset="1" style="stop-color:#F45A2A"/>
</linearGradient>
<path class="st17" d="M375.5,547.1l0.2-0.7c0.3,0.1,0.6,0.2,0.9,0.2c1,0,1.1-0.8,1.1-1.9v-10.2h0.8v10.2c0,1.7-0.6,2.5-1.9,2.5
	C376.2,547.3,375.8,547.2,375.5,547.1z M377.4,531.7c0-0.4,0.4-0.7,0.8-0.6c0.3,0,0.6,0.3,0.6,0.6c0,0.4-0.4,0.7-0.8,0.6
	C377.7,532.3,377.5,532.1,377.4,531.7z"/>
<linearGradient id="SVGID_15_" gradientUnits="userSpaceOnUse" x1="381.2467" y1="31.1962" x2="387.63" y2="31.1962" gradientTransform="matrix(1 0 0 -1 0 570)">
	<stop  offset="0" style="stop-color:#F27C38"/>
	<stop  offset="1" style="stop-color:#F45A2A"/>
</linearGradient>
<path class="st18" d="M381.2,541c0-1.9,1.7-2.8,5.6-3.3c0-1.3-0.3-2.7-2-2.7c-1,0-2,0.4-2.8,1l-0.4-0.6c0.9-0.7,2.1-1.1,3.2-1.1
	c2,0,2.7,1.5,2.7,3.3v5.5h-0.7l-0.1-1.1l0,0c-0.8,0.8-1.9,1.2-3.1,1.3s-2.4-0.8-2.5-2C381.2,541.2,381.2,541.1,381.2,541z
	 M386.8,541.3v-2.9c-3.6,0.4-4.8,1.2-4.8,2.6c-0.1,0.9,0.6,1.7,1.5,1.7c0.1,0,0.2,0,0.3,0C385,542.6,386.1,542.1,386.8,541.3
	L386.8,541.3z"/>
<linearGradient id="SVGID_16_" gradientUnits="userSpaceOnUse" x1="393.58" y1="31.2479" x2="400.68" y2="31.2479" gradientTransform="matrix(1 0 0 -1 0 570)">
	<stop  offset="0" style="stop-color:#F27C38"/>
	<stop  offset="1" style="stop-color:#F45A2A"/>
</linearGradient>
<path class="st19" d="M393.6,538.8c0-2.8,1.8-4.6,3.8-4.6s3.3,1.5,3.3,4c0,0.2,0,0.4,0,0.7h-6.2c0,2.2,1.3,3.8,3.3,3.8
	c0.8,0,1.7-0.3,2.3-0.8l0.3,0.6c-0.8,0.6-1.7,0.8-2.7,0.8C395.4,543.4,393.6,541.7,393.6,538.8z M399.9,538.3c0-2.2-1-3.3-2.5-3.3
	s-2.8,1.2-3,3.3H399.9z"/>
<linearGradient id="SVGID_17_" gradientUnits="userSpaceOnUse" x1="403" y1="33.15" x2="404.63" y2="33.15" gradientTransform="matrix(1 0 0 -1 0 570)">
	<stop  offset="0" style="stop-color:#F27C38"/>
	<stop  offset="1" style="stop-color:#F45A2A"/>
</linearGradient>
<path class="st20" d="M403,542v-11.8h0.8v11.9c0,0.4,0.2,0.6,0.4,0.6c0.1,0,0.2,0,0.3,0l0.1,0.7c-0.2,0.1-0.4,0.1-0.6,0.1
	C403.4,543.4,403,542.9,403,542z"/>
<linearGradient id="SVGID_18_" gradientUnits="userSpaceOnUse" x1="411" y1="32.75" x2="419.14" y2="32.75" gradientTransform="matrix(1 0 0 -1 0 570)">
	<stop  offset="0" style="stop-color:#F27C38"/>
	<stop  offset="1" style="stop-color:#F45A2A"/>
</linearGradient>
<path class="st21" d="M411,531.3h2.8c3.6,0,5.4,2.3,5.4,5.9s-1.7,6-5.4,6H411V531.3z M413.7,542.4c3.2,0,4.6-2.2,4.6-5.3
	s-1.4-5.2-4.6-5.2h-1.8v10.5H413.7z"/>
<linearGradient id="SVGID_19_" gradientUnits="userSpaceOnUse" x1="421.17" y1="33.65" x2="424.2" y2="33.65" gradientTransform="matrix(1 0 0 -1 0 570)">
	<stop  offset="0" style="stop-color:#F27C38"/>
	<stop  offset="1" style="stop-color:#F45A2A"/>
</linearGradient>
<path class="st22" d="M421.2,532.4l2.4-2.8l0.6,0.5l-2.6,2.7L421.2,532.4z M421.7,534.5h0.8v8.6h-0.8V534.5z"/>
<linearGradient id="SVGID_20_" gradientUnits="userSpaceOnUse" x1="425.2366" y1="31.1962" x2="431.62" y2="31.1962" gradientTransform="matrix(1 0 0 -1 0 570)">
	<stop  offset="0" style="stop-color:#F27C38"/>
	<stop  offset="1" style="stop-color:#F45A2A"/>
</linearGradient>
<path class="st23" d="M425.2,541c0-1.9,1.7-2.8,5.6-3.3c0-1.3-0.4-2.7-2.1-2.7c-1,0-2,0.4-2.8,1l-0.4-0.6c0.9-0.7,2.1-1.1,3.2-1.1
	c2,0,2.7,1.5,2.7,3.3v5.5h-0.7l-0.1-1.1l0,0c-0.8,0.8-1.9,1.2-3.1,1.3s-2.4-0.8-2.5-2C425.2,541.2,425.2,541.1,425.2,541z
	 M430.8,541.3v-2.9c-3.6,0.4-4.8,1.2-4.8,2.6c-0.1,0.9,0.6,1.7,1.5,1.7c0.1,0,0.2,0,0.3,0C429,542.6,430.1,542.1,430.8,541.3
	L430.8,541.3z"/>
<linearGradient id="SVGID_21_" gradientUnits="userSpaceOnUse" x1="437.63" y1="32.7937" x2="446.23" y2="32.7937" gradientTransform="matrix(1 0 0 -1 0 570)">
	<stop  offset="0" style="stop-color:#F27C38"/>
	<stop  offset="1" style="stop-color:#F45A2A"/>
</linearGradient>
<path class="st24" d="M437.6,537.2c0-3.8,2.1-6.1,5.2-6.1c1.2,0,2.4,0.5,3.2,1.4l-0.5,0.6c-0.7-0.8-1.7-1.2-2.7-1.2
	c-2.7,0-4.4,2.1-4.4,5.4s1.6,5.4,4.3,5.4c1,0.1,1.9-0.3,2.7-0.9V538h-2.8v-0.7h3.6v4.7c-0.9,0.9-2.2,1.4-3.5,1.3
	C439.7,543.4,437.6,541,437.6,537.2z"/>
<linearGradient id="SVGID_22_" gradientUnits="userSpaceOnUse" x1="448.5664" y1="31.186" x2="455" y2="31.186" gradientTransform="matrix(1 0 0 -1 0 570)">
	<stop  offset="0" style="stop-color:#F27C38"/>
	<stop  offset="1" style="stop-color:#F45A2A"/>
</linearGradient>
<path class="st25" d="M448.6,541c0-1.9,1.7-2.8,5.6-3.3c0-1.3-0.3-2.7-2-2.7c-1,0-2,0.4-2.8,1l-0.4-0.6c0.9-0.7,2.1-1.1,3.2-1.1
	c2,0,2.7,1.5,2.7,3.3v5.5h-0.7l-0.1-1.1H454c-0.8,0.8-1.9,1.2-3.1,1.3c-1.2,0.2-2.4-0.7-2.5-2C448.6,541.3,448.6,541.1,448.6,541z
	 M454.1,541.3v-2.9c-3.6,0.4-4.8,1.2-4.8,2.6c-0.1,0.9,0.6,1.7,1.5,1.7c0.1,0,0.2,0,0.3,0C452.3,542.6,453.4,542.1,454.1,541.3
	L454.1,541.3z"/>
<linearGradient id="SVGID_23_" gradientUnits="userSpaceOnUse" x1="458" y1="31.3042" x2="469.45" y2="31.3042" gradientTransform="matrix(1 0 0 -1 0 570)">
	<stop  offset="0" style="stop-color:#F27C38"/>
	<stop  offset="1" style="stop-color:#F45A2A"/>
</linearGradient>
<path class="st26" d="M458,534.5h0.7l0.1,1.3l0,0c0.7-0.9,1.6-1.4,2.7-1.5s2.2,0.7,2.4,1.8c0.7-1,1.8-1.6,2.9-1.8
	c1.7,0,2.6,1.1,2.6,3.3v5.5h-0.8v-5.4c0-1.8-0.6-2.7-1.9-2.7c-0.8,0-1.6,0.5-2.6,1.6v6.5h-0.8v-5.4c0-1.8-0.6-2.7-1.9-2.7
	c-1.1,0.2-2,0.7-2.6,1.6v6.5H458V534.5z"/>
<linearGradient id="SVGID_24_" gradientUnits="userSpaceOnUse" x1="471.92" y1="31.2405" x2="479.0012" y2="31.2405" gradientTransform="matrix(1 0 0 -1 0 570)">
	<stop  offset="0" style="stop-color:#F27C38"/>
	<stop  offset="1" style="stop-color:#F45A2A"/>
</linearGradient>
<path class="st27" d="M471.9,538.8c0-2.8,1.8-4.6,3.8-4.6s3.3,1.5,3.3,4c0,0.2,0,0.4,0,0.7h-6.2c0,2.2,1.3,3.8,3.3,3.8
	c0.8,0,1.7-0.3,2.3-0.8l0.3,0.6c-0.8,0.6-1.7,0.9-2.7,0.8C473.7,543.4,471.9,541.7,471.9,538.8z M478.2,538.3c0-2.2-1-3.3-2.5-3.3
	s-2.8,1.2-3,3.3H478.2z"/>
<linearGradient id="SVGID_25_" gradientUnits="userSpaceOnUse" x1="481.32" y1="31.3" x2="485.44" y2="31.3" gradientTransform="matrix(1 0 0 -1 0 570)">
	<stop  offset="0" style="stop-color:#F27C38"/>
	<stop  offset="1" style="stop-color:#F45A2A"/>
</linearGradient>
<path class="st28" d="M481.3,534.5h0.7l0.1,1.6l0,0c0.4-1,1.4-1.7,2.5-1.8c0.3,0,0.6,0,0.9,0.2l-0.2,0.7c-0.2-0.1-0.5-0.2-0.8-0.2
	c-0.8,0-1.7,0.6-2.4,2.2v5.9h-0.8L481.3,534.5z"/>
<linearGradient id="SVGID_26_" gradientUnits="userSpaceOnUse" x1="303.9" y1="9.2793" x2="307.3" y2="9.2793" gradientTransform="matrix(1 0 0 -1 0 570)">
	<stop  offset="0" style="stop-color:#F27C38"/>
	<stop  offset="1" style="stop-color:#F45A2A"/>
</linearGradient>
<path class="st29" d="M303.9,568.7l0.2-0.7c0.3,0.1,0.6,0.2,0.9,0.2c1,0,1.1-0.8,1.1-1.9v-10.2h0.9v10.2c0,1.7-0.6,2.5-2,2.5
	C304.7,568.9,304.3,568.8,303.9,568.7z M305.8,553.3c0-0.4,0.3-0.7,0.7-0.7c0.4,0,0.7,0.3,0.7,0.7s-0.3,0.7-0.7,0.7
	C306.2,554,305.8,553.7,305.8,553.3z"/>
<linearGradient id="SVGID_27_" gradientUnits="userSpaceOnUse" x1="310.14" y1="9.45" x2="316.52" y2="9.45" gradientTransform="matrix(1 0 0 -1 0 570)">
	<stop  offset="0" style="stop-color:#F27C38"/>
	<stop  offset="1" style="stop-color:#F45A2A"/>
</linearGradient>
<path class="st30" d="M310.1,561.7v-5.5h0.8v5.4c0,1.8,0.6,2.7,2,2.7c1,0,1.8-0.5,2.8-1.8v-6.4h0.8v8.6h-0.7l-0.1-1.4l0,0
	c-0.7,1-1.8,1.6-2.9,1.7C311,565,310.1,563.9,310.1,561.7z"/>
<linearGradient id="SVGID_28_" gradientUnits="userSpaceOnUse" x1="319.07" y1="7.7361" x2="326.74" y2="7.7361" gradientTransform="matrix(1 0 0 -1 0 570)">
	<stop  offset="0" style="stop-color:#F27C38"/>
	<stop  offset="1" style="stop-color:#F45A2A"/>
</linearGradient>
<path class="st31" d="M319.1,566.5c0.1-0.9,0.5-1.6,1.3-2.1v-0.1c-0.5-0.3-0.8-0.8-0.8-1.4c0-0.6,0.4-1.2,0.9-1.6v-0.1
	c-0.7-0.6-1.1-1.5-1.1-2.4c0-1.7,1.3-3,2.9-3c0,0,0,0,0.1,0c0.4,0,0.8,0.1,1.1,0.2h2.9v0.7h-2c0.6,0.5,1,1.3,1,2.2c0,1.7-1.3,3-3,3
	c-0.5,0-1-0.1-1.4-0.4c-0.4,0.3-0.7,0.7-0.7,1.2c0,0.6,0.4,1.1,1.7,1.1h1.9c2,0,2.9,0.6,2.9,2s-1.6,2.9-4.1,2.9
	C320.4,568.9,319.1,568,319.1,566.5z M325.9,566.1c0-1-0.7-1.3-2-1.3H322c-0.4,0-0.7-0.1-1.1-0.1c-0.7,0.4-1.1,1.1-1.1,1.8
	c0,1.1,1,1.8,2.9,1.8S325.9,567.2,325.9,566.1z M324.7,558.9c0.1-1.2-0.8-2.3-2-2.5s-2.3,0.8-2.5,2c0,0.1,0,0.3,0,0.4
	c-0.1,1.2,0.8,2.3,2,2.5s2.3-0.8,2.5-2C324.7,559.2,324.7,559.1,324.7,558.9z"/>
<linearGradient id="SVGID_29_" gradientUnits="userSpaceOnUse" x1="327.6761" y1="9.5962" x2="334.05" y2="9.5962" gradientTransform="matrix(1 0 0 -1 0 570)">
	<stop  offset="0" style="stop-color:#F27C38"/>
	<stop  offset="1" style="stop-color:#F45A2A"/>
</linearGradient>
<path class="st32" d="M327.7,562.6c0-1.9,1.7-2.8,5.6-3.3c0-1.3-0.4-2.7-2.1-2.7c-1,0-2,0.4-2.8,1L328,557c0.9-0.7,2.1-1.1,3.2-1.1
	c2,0,2.7,1.5,2.7,3.3v5.5h-0.7l-0.1-1.1l0,0c-0.8,0.8-1.9,1.2-3.1,1.3s-2.4-0.8-2.5-2C327.7,562.8,327.7,562.7,327.7,562.6z
	 M333.3,562.9V560c-3.6,0.4-4.8,1.2-4.8,2.6c-0.1,0.9,0.6,1.7,1.5,1.7c0.1,0,0.2,0,0.3,0C331.4,564.2,332.5,563.7,333.3,562.9
	L333.3,562.9z"/>
<linearGradient id="SVGID_30_" gradientUnits="userSpaceOnUse" x1="337.12" y1="9.7" x2="343.55" y2="9.7" gradientTransform="matrix(1 0 0 -1 0 570)">
	<stop  offset="0" style="stop-color:#F27C38"/>
	<stop  offset="1" style="stop-color:#F45A2A"/>
</linearGradient>
<path class="st33" d="M337.1,556.1h0.7l0.1,1.3h0.1c0.7-0.9,1.8-1.5,3-1.5c1.8,0,2.6,1.1,2.6,3.3v5.5h-0.8v-5.4c0-1.8-0.6-2.7-2-2.7
	c-1,0-1.8,0.5-2.8,1.6v6.5h-0.8L337.1,556.1z"/>
<linearGradient id="SVGID_31_" gradientUnits="userSpaceOnUse" x1="346" y1="11.6477" x2="353.24" y2="11.6477" gradientTransform="matrix(1 0 0 -1 0 570)">
	<stop  offset="0" style="stop-color:#F27C38"/>
	<stop  offset="1" style="stop-color:#F45A2A"/>
</linearGradient>
<path class="st34" d="M346,560.5c0-2.8,1.8-4.6,3.8-4.6c1,0,1.9,0.4,2.6,1.1v-1.6v-3.6h0.8v12.9h-0.7l-0.1-1.1h-0.1
	c-0.7,0.8-1.7,1.3-2.8,1.3C347.4,565,346,563.4,346,560.5z M352.4,562.8v-5.1c-0.7-0.7-1.6-1.1-2.5-1.1c-1.7,0-3,1.7-3,3.8
	s1,3.8,2.8,3.8C350.8,564.2,351.7,563.7,352.4,562.8L352.4,562.8z"/>
<linearGradient id="SVGID_32_" gradientUnits="userSpaceOnUse" x1="355.77" y1="9.55" x2="363.53" y2="9.55" gradientTransform="matrix(1 0 0 -1 0 570)">
	<stop  offset="0" style="stop-color:#F27C38"/>
	<stop  offset="1" style="stop-color:#F45A2A"/>
</linearGradient>
<path class="st35" d="M355.8,560.5c0-2.9,1.8-4.6,3.9-4.6s3.9,1.7,3.9,4.6s-1.8,4.5-3.9,4.5S355.8,563.3,355.8,560.5z M362.7,560.5
	c0-2.3-1.3-3.8-3.1-3.8s-3,1.6-3,3.8s1.3,3.8,3,3.8S362.7,562.7,362.7,560.5L362.7,560.5z"/>
<linearGradient id="SVGID_33_" gradientUnits="userSpaceOnUse" x1="368.64" y1="9.5" x2="374.7" y2="9.5" gradientTransform="matrix(1 0 0 -1 0 570)">
	<stop  offset="0" style="stop-color:#F27C38"/>
	<stop  offset="1" style="stop-color:#F45A2A"/>
</linearGradient>
<path class="st36" d="M368.6,563.8l0.5-0.6c0.7,0.7,1.7,1.1,2.8,1.1c1.4,0,2-0.8,2-1.7c0-1.1-1.1-1.5-2.1-1.9
	c-1.3-0.5-2.8-1-2.8-2.5c0-1.3,1-2.3,2.8-2.3c0.9,0,1.8,0.3,2.5,0.9l-0.4,0.6c-0.6-0.5-1.3-0.8-2.1-0.8c-1.3,0-1.9,0.8-1.9,1.6
	c0,1,1,1.4,2,1.8c1.4,0.5,2.8,1,2.8,2.7c0,1.3-1,2.4-2.9,2.4C370.6,564.9,369.5,564.5,368.6,563.8z"/>
<linearGradient id="SVGID_34_" gradientUnits="userSpaceOnUse" x1="376.71" y1="11.35" x2="378.15" y2="11.35" gradientTransform="matrix(1 0 0 -1 0 570)">
	<stop  offset="0" style="stop-color:#F27C38"/>
	<stop  offset="1" style="stop-color:#F45A2A"/>
</linearGradient>
<path class="st37" d="M376.7,553.3c0-0.4,0.3-0.7,0.7-0.7s0.7,0.3,0.7,0.7l0,0c0,0.4-0.3,0.7-0.7,0.7S376.7,553.7,376.7,553.3z
	 M377,556.1h0.8v8.6H377V556.1z"/>
<linearGradient id="SVGID_35_" gradientUnits="userSpaceOnUse" x1="381.13" y1="9.7" x2="387.55" y2="9.7" gradientTransform="matrix(1 0 0 -1 0 570)">
	<stop  offset="0" style="stop-color:#F27C38"/>
	<stop  offset="1" style="stop-color:#F45A2A"/>
</linearGradient>
<path class="st38" d="M381.1,556.1h0.7l0.1,1.3l0,0c0.7-0.9,1.8-1.5,3-1.5c1.8,0,2.6,1.1,2.6,3.3v5.5h-0.8v-5.4c0-1.8-0.6-2.7-2-2.7
	c-1,0-1.8,0.5-2.8,1.6v6.5h-0.8L381.1,556.1L381.1,556.1z"/>
<linearGradient id="SVGID_36_" gradientUnits="userSpaceOnUse" x1="393.55" y1="7.85" x2="400.71" y2="7.85" gradientTransform="matrix(1 0 0 -1 0 570)">
	<stop  offset="0" style="stop-color:#F27C38"/>
	<stop  offset="1" style="stop-color:#F45A2A"/>
</linearGradient>
<path class="st39" d="M400,565.3v-1.7c-0.7,0.8-1.8,1.3-2.9,1.3c-2.2,0-3.6-1.6-3.6-4.5s1.8-4.6,3.8-4.6c1,0,1.9,0.4,2.6,1l0,0
	l0.1-0.8h0.7v12.5H400V565.3z M400,562.8v-5.1c-0.7-0.7-1.6-1.1-2.5-1.1c-1.7,0-3,1.7-3,3.8s1,3.8,2.8,3.8
	C398.4,564.2,399.3,563.7,400,562.8z"/>
<linearGradient id="SVGID_37_" gradientUnits="userSpaceOnUse" x1="404" y1="9.45" x2="410.37" y2="9.45" gradientTransform="matrix(1 0 0 -1 0 570)">
	<stop  offset="0" style="stop-color:#F27C38"/>
	<stop  offset="1" style="stop-color:#F45A2A"/>
</linearGradient>
<path class="st40" d="M404,561.7v-5.5h0.8v5.4c0,1.8,0.6,2.7,2,2.7c1,0,1.8-0.5,2.8-1.8v-6.4h0.8v8.6h-0.7l-0.1-1.4l0,0
	c-0.7,1-1.7,1.6-2.9,1.7C404.8,565,404,563.9,404,561.7z"/>
<linearGradient id="SVGID_38_" gradientUnits="userSpaceOnUse" x1="412.9" y1="9.5405" x2="420" y2="9.5405" gradientTransform="matrix(1 0 0 -1 0 570)">
	<stop  offset="0" style="stop-color:#F27C38"/>
	<stop  offset="1" style="stop-color:#F45A2A"/>
</linearGradient>
<path class="st41" d="M412.9,560.5c0-2.8,1.8-4.6,3.8-4.6s3.3,1.5,3.3,4c0,0.2,0,0.4,0,0.7h-6.2c0,2.2,1.3,3.8,3.3,3.8
	c0.8,0,1.7-0.3,2.3-0.8l0.3,0.6c-0.8,0.6-1.7,0.9-2.7,0.8C414.7,565,412.9,563.3,412.9,560.5z M419.2,559.9c0-2.2-1-3.3-2.5-3.3
	s-2.8,1.2-3,3.3H419.2z"/>
<linearGradient id="SVGID_39_" gradientUnits="userSpaceOnUse" x1="424.77" y1="10.7882" x2="429.68" y2="10.7882" gradientTransform="matrix(1 0 0 -1 0 570)">
	<stop  offset="0" style="stop-color:#F27C38"/>
	<stop  offset="1" style="stop-color:#F45A2A"/>
</linearGradient>
<path class="st42" d="M426.1,562.4v-5.6h-1.4v-0.6l1.4-0.1l0.1-2.5h0.7v2.5h2.5v0.7h-2.5v5.6c0,1.1,0.3,1.8,1.5,1.8
	c0.4,0,0.7-0.1,1.1-0.3l0.2,0.6c-0.4,0.2-0.9,0.3-1.4,0.3C426.6,565,426.1,563.9,426.1,562.4z"/>
<linearGradient id="SVGID_40_" gradientUnits="userSpaceOnUse" x1="430.62" y1="9.5405" x2="437.7012" y2="9.5405" gradientTransform="matrix(1 0 0 -1 0 570)">
	<stop  offset="0" style="stop-color:#F27C38"/>
	<stop  offset="1" style="stop-color:#F45A2A"/>
</linearGradient>
<path class="st43" d="M430.6,560.5c0-2.8,1.8-4.6,3.8-4.6s3.3,1.5,3.3,4c0,0.2,0,0.4,0,0.7h-6.2c0,2.2,1.3,3.8,3.2,3.8
	c0.8,0,1.7-0.3,2.3-0.8l0.3,0.6c-0.8,0.6-1.7,0.9-2.7,0.8C432.4,565,430.6,563.3,430.6,560.5z M436.9,559.9c0-2.2-1-3.3-2.5-3.3
	s-2.8,1.2-3,3.3H436.9z"/>
<linearGradient id="SVGID_41_" gradientUnits="userSpaceOnUse" x1="442.91" y1="11.6477" x2="450.15" y2="11.6477" gradientTransform="matrix(1 0 0 -1 0 570)">
	<stop  offset="0" style="stop-color:#F27C38"/>
	<stop  offset="1" style="stop-color:#F45A2A"/>
</linearGradient>
<path class="st44" d="M442.9,560.5c0-2.8,1.8-4.6,3.8-4.6c1,0,1.9,0.4,2.6,1.1v-1.6v-3.6h0.8v12.9h-0.7l-0.1-1.1h-0.1
	c-0.7,0.8-1.7,1.3-2.8,1.3C444.3,565,442.9,563.4,442.9,560.5z M449.3,562.8v-5.1c-0.7-0.7-1.6-1.1-2.5-1.1c-1.7,0-3,1.7-3,3.8
	s1,3.8,2.8,3.8C447.7,564.2,448.7,563.7,449.3,562.8z"/>
<linearGradient id="SVGID_42_" gradientUnits="userSpaceOnUse" x1="452.7" y1="9.55" x2="459.8" y2="9.55" gradientTransform="matrix(1 0 0 -1 0 570)">
	<stop  offset="0" style="stop-color:#F27C38"/>
	<stop  offset="1" style="stop-color:#F45A2A"/>
</linearGradient>
<path class="st45" d="M452.7,560.5c0-2.8,1.8-4.6,3.8-4.6s3.3,1.5,3.3,4c0,0.2,0,0.4,0,0.7h-6.2c0,2.2,1.3,3.8,3.3,3.8
	c0.8,0,1.7-0.3,2.3-0.8l0.3,0.6c-0.8,0.6-1.7,0.8-2.7,0.8C454.5,565,452.7,563.3,452.7,560.5z M459,559.9c0-2.2-1-3.3-2.5-3.3
	s-2.8,1.2-3,3.3H459z"/>
<linearGradient id="SVGID_43_" gradientUnits="userSpaceOnUse" x1="461" y1="9.5" x2="467.05" y2="9.5" gradientTransform="matrix(1 0 0 -1 0 570)">
	<stop  offset="0" style="stop-color:#F27C38"/>
	<stop  offset="1" style="stop-color:#F45A2A"/>
</linearGradient>
<path class="st46" d="M461,563.8l0.5-0.6c0.7,0.7,1.7,1.1,2.8,1.1c1.4,0,2-0.8,2-1.7c0-1.1-1.1-1.5-2.1-1.9c-1.3-0.5-2.8-1-2.8-2.5
	c0-1.3,1-2.3,2.8-2.3c0.9,0,1.8,0.3,2.5,0.9l-0.4,0.6c-0.6-0.5-1.3-0.8-2.1-0.8c-1.3,0-1.9,0.8-1.9,1.6c0,1,1,1.4,2,1.8
	c1.4,0.5,2.8,1,2.8,2.7c0,1.3-1,2.4-2.9,2.4C463,564.9,461.9,564.5,461,563.8z"/>
<linearGradient id="SVGID_44_" gradientUnits="userSpaceOnUse" x1="468.69" y1="9.6421" x2="475.37" y2="9.6421" gradientTransform="matrix(1 0 0 -1 0 570)">
	<stop  offset="0" style="stop-color:#F27C38"/>
	<stop  offset="1" style="stop-color:#F45A2A"/>
</linearGradient>
<path class="st47" d="M468.7,560.5c0-2.9,1.8-4.6,3.9-4.6c1,0,1.9,0.4,2.5,1.1l-0.5,0.5c-0.5-0.6-1.3-0.9-2-0.9
	c-1.8,0-3.1,1.6-3.1,3.8s1.2,3.8,3.1,3.8c0.9,0,1.7-0.4,2.3-1l0.4,0.5c-0.7,0.7-1.7,1.1-2.8,1.1C470.4,565,468.7,563.3,468.7,560.5z
	"/>
<linearGradient id="SVGID_45_" gradientUnits="userSpaceOnUse" x1="477.36" y1="9.45" x2="483.73" y2="9.45" gradientTransform="matrix(1 0 0 -1 0 570)">
	<stop  offset="0" style="stop-color:#F27C38"/>
	<stop  offset="1" style="stop-color:#F45A2A"/>
</linearGradient>
<path class="st48" d="M477.4,561.7v-5.5h0.8v5.4c0,1.8,0.6,2.7,2,2.7c1,0,1.8-0.5,2.8-1.8v-6.4h0.8v8.6H483l-0.1-1.4l0,0
	c-0.7,1-1.7,1.6-2.9,1.7C478.2,565,477.4,563.9,477.4,561.7z"/>
<linearGradient id="SVGID_46_" gradientUnits="userSpaceOnUse" x1="487" y1="11.55" x2="494.25" y2="11.55" gradientTransform="matrix(1 0 0 -1 0 570)">
	<stop  offset="0" style="stop-color:#F27C38"/>
	<stop  offset="1" style="stop-color:#F45A2A"/>
</linearGradient>
<path class="st49" d="M487.8,563.9L487.8,563.9l-0.1,0.9H487v-12.9h0.8v3.7v1.7c0.8-0.8,1.9-1.3,3-1.4c2.3,0,3.5,1.7,3.5,4.4
	c0,2.9-1.8,4.7-3.8,4.7C489.5,564.9,488.5,564.5,487.8,563.9z M493.4,560.3c0-2.1-0.8-3.7-2.7-3.7c-1.1,0.1-2.1,0.6-2.8,1.4v5.1
	c0.7,0.7,1.6,1.1,2.6,1.1C492.1,564.3,493.4,562.7,493.4,560.3z"/>
<linearGradient id="SVGID_47_" gradientUnits="userSpaceOnUse" x1="496.76" y1="9.65" x2="500.89" y2="9.65" gradientTransform="matrix(1 0 0 -1 0 570)">
	<stop  offset="0" style="stop-color:#F27C38"/>
	<stop  offset="1" style="stop-color:#F45A2A"/>
</linearGradient>
<path class="st50" d="M496.8,556.1h0.7l0.1,1.6h0.1c0.4-1,1.4-1.7,2.4-1.8c0.3,0,0.6,0,0.9,0.2l-0.2,0.7c-0.3-0.1-0.5-0.1-0.8-0.1
	c-0.8,0-1.7,0.6-2.4,2.2v5.9h-0.8L496.8,556.1z"/>
<linearGradient id="SVGID_48_" gradientUnits="userSpaceOnUse" x1="501.4739" y1="9.5458" x2="507.85" y2="9.5458" gradientTransform="matrix(1 0 0 -1 0 570)">
	<stop  offset="0" style="stop-color:#F27C38"/>
	<stop  offset="1" style="stop-color:#F45A2A"/>
</linearGradient>
<path class="st51" d="M501.5,562.6c0-1.9,1.7-2.8,5.6-3.3c0-1.3-0.3-2.7-2-2.7c-1,0-2,0.4-2.8,1l-0.4-0.6c0.9-0.7,2.1-1.1,3.2-1.1
	c2,0,2.7,1.5,2.7,3.3v5.5h-0.7l-0.1-1.1h0c-0.8,0.8-1.9,1.2-3,1.4c-1.2,0.1-2.4-0.7-2.5-2C501.5,562.9,501.5,562.7,501.5,562.6z
	 M507.1,562.9V560c-3.6,0.4-4.8,1.2-4.8,2.6c-0.1,0.9,0.6,1.7,1.5,1.7c0.1,0,0.2,0,0.3,0C505.3,564.2,506.3,563.7,507.1,562.9z"/>
<linearGradient id="SVGID_49_" gradientUnits="userSpaceOnUse" x1="510.93" y1="9.7" x2="517.35" y2="9.7" gradientTransform="matrix(1 0 0 -1 0 570)">
	<stop  offset="0" style="stop-color:#F27C38"/>
	<stop  offset="1" style="stop-color:#F45A2A"/>
</linearGradient>
<path class="st52" d="M510.9,556.1h0.7l0.1,1.3l0,0c0.7-0.9,1.8-1.5,3-1.5c1.8,0,2.6,1.1,2.6,3.3v5.5h-0.8v-5.4c0-1.8-0.6-2.7-2-2.7
	c-1,0-1.8,0.5-2.8,1.6v6.5h-0.8L510.9,556.1z"/>
<g>
	<path class="st1" d="M7,20.8h3c2.7,0,4.3,0.9,4.3,3.3c0,2.3-1.6,3.5-4.2,3.5H7.9v5.1H7V20.8z M9.9,26.9c2.4,0,3.6-0.8,3.6-2.8
		c0-2-1.2-2.6-3.7-2.6h-2v5.4H9.9z"/>
	<path class="st1" d="M15.7,28.4c0-2.9,1.8-4.6,3.9-4.6c2.1,0,3.9,1.7,3.9,4.6c0,2.9-1.8,4.5-3.9,4.5C17.5,32.9,15.7,31.2,15.7,28.4
		z M22.6,28.4c0-2.3-1.3-3.9-3.1-3.9c-1.7,0-3,1.6-3,3.9c0,2.3,1.3,3.8,3,3.8C21.3,32.2,22.6,30.6,22.6,28.4z"/>
	<path class="st1" d="M26,24h0.7l0.1,1.6h0.1c0.6-1.1,1.4-1.8,2.4-1.8c0.3,0,0.6,0,0.9,0.2L30,24.7c-0.3-0.1-0.5-0.1-0.8-0.1
		c-0.8,0-1.7,0.6-2.4,2.2v5.9H26V24z"/>
	<path class="st1" d="M30.8,28.4c0-2.9,1.8-4.6,3.9-4.6c1.2,0,1.9,0.5,2.5,1.1l-0.5,0.6c-0.6-0.5-1.2-0.9-2.1-0.9
		c-1.8,0-3.1,1.6-3.1,3.9c0,2.3,1.2,3.8,3.1,3.8c0.9,0,1.7-0.4,2.3-1l0.4,0.6c-0.7,0.6-1.7,1.1-2.8,1.1
		C32.5,32.9,30.8,31.2,30.8,28.4z"/>
	<path class="st1" d="M38.6,28.4c0-2.8,1.8-4.6,3.8-4.6c2.1,0,3.3,1.5,3.3,4c0,0.2,0,0.4,0,0.6h-6.2c0,2.2,1.3,3.7,3.3,3.7
		c0.9,0,1.7-0.3,2.3-0.8l0.3,0.6c-0.7,0.4-1.5,0.8-2.7,0.8C40.4,32.9,38.6,31.2,38.6,28.4z M44.9,27.8c0-2.2-1-3.3-2.5-3.3
		c-1.5,0-2.8,1.2-3,3.3H44.9z"/>
	<path class="st1" d="M48,24h0.7l0.1,1.3h0.1c0.9-0.9,1.8-1.5,3-1.5c1.8,0,2.6,1.1,2.6,3.3v5.5h-0.8v-5.4c0-1.8-0.6-2.7-2-2.7
		c-1,0-1.8,0.5-2.8,1.6v6.5H48V24z"/>
	<path class="st1" d="M57.8,30.3v-5.6h-1.4v-0.6l1.4-0.1l0.1-2.5h0.7V24h2.5v0.7h-2.5v5.6c0,1.1,0.3,1.8,1.5,1.8
		c0.3,0,0.8-0.1,1.1-0.3l0.2,0.6c-0.5,0.2-1,0.3-1.4,0.3C58.3,32.9,57.8,31.8,57.8,30.3z"/>
	<path class="st1" d="M62.2,30.5c0-1.9,1.7-2.8,5.6-3.3c0-1.3-0.3-2.7-2.1-2.7c-1.2,0-2.2,0.6-2.8,1l-0.4-0.6
		c0.6-0.4,1.8-1.1,3.2-1.1c2,0,2.7,1.5,2.7,3.3v5.5h-0.7l-0.1-1.1h-0.1c-0.9,0.7-1.9,1.3-3.1,1.3C63.3,32.9,62.2,32.1,62.2,30.5z
		 M67.8,30.8v-2.9c-3.6,0.4-4.8,1.2-4.8,2.6c0,1.2,0.8,1.7,1.8,1.7S66.7,31.7,67.8,30.8z"/>
	<path class="st1" d="M69.4,36.6l0.2-0.6c0.2,0.1,0.6,0.2,0.9,0.2c1,0,1.2-0.8,1.2-1.9V24h0.8v10.2c0,1.7-0.6,2.5-1.9,2.5
		C70.1,36.8,69.7,36.7,69.4,36.6z M71.3,21.2c0-0.4,0.3-0.7,0.7-0.7c0.4,0,0.7,0.3,0.7,0.7c0,0.4-0.3,0.7-0.7,0.7
		C71.7,21.9,71.3,21.6,71.3,21.2z"/>
	<path class="st1" d="M75.1,28.4c0-2.8,1.8-4.6,3.8-4.6c2.1,0,3.3,1.5,3.3,4c0,0.2,0,0.4,0,0.6h-6.2c0,2.2,1.3,3.7,3.3,3.7
		c0.9,0,1.7-0.3,2.3-0.8l0.3,0.6c-0.7,0.4-1.5,0.8-2.7,0.8C76.8,32.9,75.1,31.2,75.1,28.4z M81.4,27.8c0-2.2-1-3.3-2.5-3.3
		c-1.5,0-2.8,1.2-3,3.3H81.4z"/>
	<path class="st1" d="M93.8,33.2l0-1.7c-0.8,0.7-1.7,1.4-2.9,1.4c-2.2,0-3.6-1.6-3.6-4.5c0-2.8,1.8-4.6,3.8-4.6c1,0,1.8,0.4,2.6,1h0
		l0.1-0.8h0.7v12.5h-0.8V33.2z M93.8,30.8v-5.1c-0.9-0.8-1.7-1.1-2.5-1.1c-1.7,0-3,1.7-3,3.9c0,2.3,1,3.8,2.8,3.8
		C92,32.2,92.8,31.7,93.8,30.8z"/>
	<path class="st1" d="M97.7,29.6V24h0.8v5.4c0,1.8,0.6,2.7,2,2.7c1,0,1.8-0.5,2.8-1.8V24h0.8v8.6h-0.7l-0.1-1.4h0
		c-0.8,1-1.7,1.7-2.9,1.7C98.6,32.9,97.7,31.8,97.7,29.6z"/>
	<path class="st1" d="M106.7,28.4c0-2.8,1.8-4.6,3.8-4.6c2.1,0,3.3,1.5,3.3,4c0,0.2,0,0.4,0,0.6h-6.2c0,2.2,1.3,3.7,3.3,3.7
		c0.9,0,1.7-0.3,2.3-0.8l0.3,0.6c-0.7,0.4-1.5,0.8-2.7,0.8C108.4,32.9,106.7,31.2,106.7,28.4z M113,27.8c0-2.2-1-3.3-2.5-3.3
		c-1.5,0-2.8,1.2-3,3.3H113z"/>
	<path class="st1" d="M119.8,24.7h-1.2v-0.6l1.2-0.1v-1.9c0-1.7,0.8-2.6,2.1-2.6c0.4,0,0.9,0.1,1.3,0.3l-0.2,0.6
		c-0.4-0.2-0.7-0.3-1-0.3c-0.9,0-1.4,0.7-1.4,2V24h2v0.7h-2v8h-0.8V24.7z"/>
	<path class="st1" d="M124.1,21.2c0-0.4,0.3-0.7,0.7-0.7c0.4,0,0.7,0.3,0.7,0.7c0,0.4-0.3,0.7-0.7,0.7
		C124.4,21.9,124.1,21.6,124.1,21.2z M124.4,24h0.8v8.6h-0.8V24z"/>
	<path class="st1" d="M128.5,24h0.7l0.1,1.3h0.1c0.9-0.9,1.8-1.5,3-1.5c1.8,0,2.6,1.1,2.6,3.3v5.5h-0.8v-5.4c0-1.8-0.6-2.7-2-2.7
		c-1,0-1.8,0.5-2.8,1.6v6.5h-0.8V24z"/>
	<path class="st1" d="M137.4,34.4c0-0.8,0.5-1.5,1.3-2.1v-0.1c-0.4-0.3-0.8-0.7-0.8-1.4c0-0.8,0.6-1.3,0.9-1.6v-0.1
		c-0.5-0.5-1.1-1.3-1.1-2.4c0-1.8,1.4-3,3-3c0.5,0,0.9,0.1,1.1,0.2h2.9v0.7h-2c0.6,0.5,1,1.3,1,2.2c0,1.8-1.3,3-3,3
		c-0.5,0-1-0.1-1.4-0.4c-0.4,0.3-0.7,0.7-0.7,1.2c0,0.6,0.4,1.1,1.7,1.1h1.9c1.9,0,2.8,0.6,2.8,2c0,1.5-1.6,2.9-4.1,2.9
		C138.8,36.8,137.4,35.9,137.4,34.4z M144.2,34c0-1-0.7-1.3-2-1.3h-1.9c-0.2,0-0.6,0-1.1-0.1c-0.8,0.5-1.1,1.2-1.1,1.8
		c0,1.1,1,1.8,2.9,1.8C143,36.2,144.2,35.1,144.2,34z M143,26.9c0-1.5-1-2.4-2.2-2.4c-1.2,0-2.3,0.9-2.3,2.4c0,1.5,1,2.4,2.3,2.4
		C142,29.3,143,28.3,143,26.9z"/>
	<path class="st1" d="M146,28.4c0-2.8,1.8-4.6,3.8-4.6c2.1,0,3.3,1.5,3.3,4c0,0.2,0,0.4,0,0.6h-6.2c0,2.2,1.3,3.7,3.3,3.7
		c0.9,0,1.7-0.3,2.3-0.8l0.3,0.6c-0.7,0.4-1.5,0.8-2.7,0.8C147.7,32.9,146,31.2,146,28.4z M152.3,27.8c0-2.2-1-3.3-2.5-3.3
		c-1.5,0-2.8,1.2-3,3.3H152.3z"/>
	<path class="st1" d="M154.3,31.7l0.5-0.6c0.7,0.6,1.5,1.1,2.8,1.1c1.4,0,2.1-0.8,2.1-1.7c0-1.1-1.1-1.5-2.1-1.9
		c-1.3-0.5-2.8-1-2.8-2.5c0-1.3,1-2.3,2.8-2.3c0.9,0,1.8,0.4,2.5,0.9l-0.4,0.6c-0.6-0.4-1.2-0.8-2.1-0.8c-1.3,0-1.9,0.8-1.9,1.6
		c0,1,1,1.4,2,1.7c1.4,0.5,2.8,1,2.8,2.6c0,1.3-1,2.4-2.9,2.4C156.2,32.9,155.1,32.3,154.3,31.7z"/>
	<path class="st1" d="M74.4,54.8l0-1.7c-0.8,0.7-1.7,1.4-2.9,1.4c-2.2,0-3.6-1.6-3.6-4.5c0-2.8,1.8-4.6,3.8-4.6c1,0,1.8,0.4,2.6,1h0
		l0.1-0.8h0.7v12.5h-0.8V54.8z M74.4,52.4v-5.1c-0.9-0.8-1.7-1.1-2.5-1.1c-1.7,0-3,1.7-3,3.9c0,2.3,1,3.8,2.8,3.8
		C72.7,53.8,73.5,53.3,74.4,52.4z"/>
	<path class="st1" d="M78.4,51.2v-5.5h0.8v5.4c0,1.8,0.6,2.7,2,2.7c1,0,1.8-0.5,2.8-1.8v-6.4h0.8v8.6h-0.7L84,52.8h0
		c-0.8,1-1.7,1.7-2.9,1.7C79.2,54.5,78.4,53.4,78.4,51.2z"/>
	<path class="st1" d="M87.3,50c0-2.8,1.8-4.6,3.8-4.6c2.1,0,3.3,1.5,3.3,4c0,0.2,0,0.4,0,0.6h-6.2c0,2.2,1.3,3.7,3.3,3.7
		c0.9,0,1.7-0.3,2.3-0.8l0.3,0.6c-0.7,0.4-1.5,0.8-2.7,0.8C89.1,54.5,87.3,52.8,87.3,50z M93.7,49.4c0-2.2-1-3.3-2.5-3.3
		c-1.5,0-2.8,1.2-3,3.3H93.7z"/>
	<path class="st1" d="M100.6,51.9v-5.6h-1.4v-0.6l1.4-0.1l0.1-2.5h0.7v2.5h2.5v0.7h-2.5v5.6c0,1.1,0.3,1.8,1.5,1.8
		c0.3,0,0.8-0.1,1.1-0.3l0.2,0.6c-0.5,0.2-1,0.3-1.4,0.3C101,54.5,100.6,53.4,100.6,51.9z"/>
	<path class="st1" d="M106,45.6h0.7l0.1,1.6h0.1c0.6-1.1,1.4-1.8,2.4-1.8c0.3,0,0.6,0,0.9,0.2l-0.2,0.7c-0.3-0.1-0.5-0.1-0.8-0.1
		c-0.8,0-1.7,0.6-2.4,2.2v5.9H106V45.6z"/>
	<path class="st1" d="M110.7,52.1c0-1.9,1.7-2.8,5.6-3.3c0-1.3-0.3-2.7-2.1-2.7c-1.2,0-2.2,0.6-2.8,1l-0.4-0.6
		c0.6-0.4,1.8-1.1,3.2-1.1c2,0,2.7,1.5,2.7,3.3v5.5h-0.7l-0.1-1.1h-0.1c-0.9,0.7-1.9,1.3-3.1,1.3C111.8,54.5,110.7,53.7,110.7,52.1z
		 M116.3,52.4v-2.9c-3.6,0.4-4.8,1.2-4.8,2.6c0,1.2,0.8,1.7,1.8,1.7S115.2,53.3,116.3,52.4z"/>
	<path class="st1" d="M120.9,53.4L120.9,53.4l-0.1,0.9h-0.7V41.3h0.8v3.7l0,1.7c0.9-0.7,1.9-1.4,3-1.4c2.3,0,3.5,1.7,3.5,4.4
		c0,2.9-1.8,4.7-3.8,4.7C122.7,54.5,121.7,54.1,120.9,53.4z M126.5,49.8c0-2.1-0.8-3.7-2.7-3.7c-0.9,0-1.8,0.5-2.8,1.4v5.1
		c1,0.8,1.9,1.1,2.6,1.1C125.2,53.8,126.5,52.2,126.5,49.8z"/>
	<path class="st1" d="M129,52.1c0-1.9,1.7-2.8,5.6-3.3c0-1.3-0.3-2.7-2.1-2.7c-1.2,0-2.2,0.6-2.8,1l-0.4-0.6
		c0.6-0.4,1.8-1.1,3.2-1.1c2,0,2.7,1.5,2.7,3.3v5.5h-0.7l-0.1-1.1h-0.1c-0.9,0.7-1.9,1.3-3.1,1.3C130.1,54.5,129,53.7,129,52.1z
		 M134.6,52.4v-2.9c-3.6,0.4-4.8,1.2-4.8,2.6c0,1.2,0.8,1.7,1.8,1.7C132.7,53.8,133.5,53.3,134.6,52.4z"/>
	<path class="st1" d="M136.2,58.2l0.2-0.6c0.2,0.1,0.6,0.2,0.9,0.2c1,0,1.2-0.8,1.2-1.9V45.6h0.8v10.2c0,1.7-0.6,2.5-1.9,2.5
		C136.9,58.4,136.5,58.3,136.2,58.2z M138.2,42.8c0-0.5,0.3-0.7,0.7-0.7c0.4,0,0.7,0.3,0.7,0.7c0,0.4-0.3,0.7-0.7,0.7
		C138.5,43.5,138.2,43.2,138.2,42.8z"/>
	<path class="st1" d="M142,52.1c0-1.9,1.7-2.8,5.6-3.3c0-1.3-0.3-2.7-2.1-2.7c-1.2,0-2.2,0.6-2.8,1l-0.4-0.6
		c0.6-0.4,1.8-1.1,3.2-1.1c2,0,2.7,1.5,2.7,3.3v5.5h-0.7l-0.1-1.1h-0.1c-0.9,0.7-1.9,1.3-3.1,1.3C143.1,54.5,142,53.7,142,52.1z
		 M147.6,52.4v-2.9c-3.6,0.4-4.8,1.2-4.8,2.6c0,1.2,0.8,1.7,1.8,1.7C145.6,53.8,146.5,53.3,147.6,52.4z"/>
	<path class="st1" d="M150.3,53.3l0.5-0.6c0.7,0.6,1.5,1.1,2.8,1.1c1.4,0,2.1-0.8,2.1-1.7c0-1.1-1.1-1.5-2.1-1.9
		c-1.3-0.5-2.8-1-2.8-2.5c0-1.3,1-2.3,2.8-2.3c0.9,0,1.8,0.4,2.5,0.9l-0.4,0.6c-0.6-0.4-1.2-0.8-2.1-0.8c-1.3,0-1.9,0.8-1.9,1.6
		c0,1,1,1.4,2,1.7c1.4,0.5,2.8,1,2.8,2.6c0,1.3-1,2.4-2.9,2.4C152.2,54.5,151.1,53.9,150.3,53.3z"/>
	<path class="st1" d="M158.3,53.7c0-0.5,0.4-0.8,0.8-0.8c0.4,0,0.8,0.3,0.8,0.8c0,0.5-0.4,0.8-0.8,0.8
		C158.6,54.5,158.3,54.2,158.3,53.7z"/>
</g>
</svg>
