<svg xmlns="http://www.w3.org/2000/svg" viewBox="0 0 606.68 568.91"><defs><style>.cls-1{fill:#2d3e82;}.cls-2{fill:#196d9d;}.cls-3{fill:#131a35;}.cls-4{fill:#fff;}.cls-5{fill:#186d9e;}.cls-6{fill:#2c3e82;}.cls-7{fill:#231f20;}</style></defs><title>infografia-ppt</title><g id="Layer_2" data-name="Layer 2"><g id="Layer_1-2" data-name="Layer 1"><path class="cls-1" d="M354,96.06a162.09,162.09,0,1,1-104.31,38.05l104.34,124h0Z"/><path class="cls-2" d="M249.84,134a162.08,162.08,0,0,1,92.82-37.54l11.4,161.69h0Z"/><path class="cls-3" d="M342.82,96.45q5.51-.39,11-.39l.22,162.09h0Z"/><polygon class="cls-3" points="346.39 65.66 344.39 65.66 344.39 18.76 403.03 18.76 403.03 20.76 346.39 20.76 346.39 65.66"/><path class="cls-4" d="M352.91,65.24a7.52,7.52,0,1,1-7.52-7.52A7.52,7.52,0,0,1,352.91,65.24Z"/><path class="cls-3" d="M353.91,65.24a8.52,8.52,0,1,0-8.52,8.51,8.53,8.53,0,0,0,8.52-8.51Zm-15,0a6.52,6.52,0,1,1,6.52,6.51,6.52,6.52,0,0,1-6.52-6.51Z"/><polygon class="cls-3" points="400.11 29.73 417.38 19.76 400.11 9.79 400.11 29.73"/><path class="cls-3" d="M427.71,22.72h3V15.5h-2.64V13.17a9.84,9.84,0,0,0,3.65-1.36h2.78V22.72H437v3h-9.29Z"/><path class="cls-3" d="M438.62,15.72c0-2.86,1.59-4.53,3.7-4.53S446,12.86,446,15.72s-1.58,4.58-3.69,4.58S438.62,18.58,438.62,15.72Zm4.8,0c0-1.93-.53-2.46-1.1-2.46s-1.1.53-1.1,2.46.53,2.51,1.1,2.51S443.42,17.66,443.42,15.72Zm7.08-4.53h2.12L445,26h-2.11Zm-1.1,10.25c0-2.86,1.59-4.53,3.7-4.53s3.7,1.67,3.7,4.53S455.21,26,453.1,26,449.4,24.3,449.4,21.44Zm4.8,0c0-1.93-.53-2.46-1.1-2.46s-1.1.53-1.1,2.46.53,2.51,1.1,2.51S454.2,23.38,454.2,21.44Z"/><path class="cls-1" d="M416.27,513.4c0-2.66,1.58-4.25,3.74-5.4v-.14a6.58,6.58,0,0,1-3-5.4c0-4,3.17-6.48,7.63-6.48,4.25,0,7.13,2.45,7.13,6.33a5.8,5.8,0,0,1-2.92,4.79v.15c2.23,1.18,3.93,3,3.93,6,0,3.67-3.35,6.41-8.35,6.41C419.76,519.67,416.27,517.14,416.27,513.4ZM427,513c0-1.65-1.58-2.3-4.28-3.45a4.93,4.93,0,0,0-1.19,3.09,2.74,2.74,0,0,0,3,2.74A2.2,2.2,0,0,0,427,513Zm-.25-10.29a2.22,2.22,0,0,0-2.3-2.52,2,2,0,0,0-2.09,2.23c0,1.51,1.22,2.3,3.38,3.17A5,5,0,0,0,426.78,502.75Z"/><path class="cls-1" d="M435.42,507.71c0-7.81,3.46-11.73,8.5-11.73s8.49,4,8.49,11.73-3.45,12-8.49,12S435.42,515.53,435.42,507.71Zm11.16,0c0-6-1.22-7-2.66-7s-2.67.94-2.67,7,1.23,7.2,2.67,7.2S446.58,513.76,446.58,507.71Z"/><path class="cls-1" d="M454.43,502.82c0-4.68,2.59-7.42,6.05-7.42s6,2.74,6,7.42-2.6,7.49-6,7.49S454.43,507.5,454.43,502.82Zm7.85,0c0-3.17-.87-4-1.8-4s-1.8.86-1.8,4,.86,4.1,1.8,4.1S462.28,506,462.28,502.82Zm11.59-7.42h3.45L464.8,519.67h-3.46Zm-1.8,16.78c0-4.68,2.59-7.42,6.05-7.42s6,2.74,6,7.42-2.59,7.49-6,7.49S472.07,516.86,472.07,512.18Zm7.85,0c0-3.17-.87-4-1.8-4s-1.8.86-1.8,4,.86,4.1,1.8,4.1S479.92,515.34,479.92,512.18Z"/><path class="cls-2" d="M176.36,41.94h3.26V34.07h-2.88V31.53a10.94,10.94,0,0,0,4-1.49h3v11.9h2.74v3.32H176.36Z"/><path class="cls-2" d="M188.69,43.62l2.16-2.44a3.49,3.49,0,0,0,2.31,1c1.51,0,2.66-1,2.81-4.1a4,4,0,0,1-2.86,1.51c-2.59,0-4.61-1.44-4.61-4.7a5,5,0,0,1,5.28-5.19c2.93,0,5.95,2.11,5.95,7.63s-3,8.16-6.28,8.16A6.62,6.62,0,0,1,188.69,43.62Zm7.18-8.16c-.34-2.13-1.25-2.64-2-2.64s-1.63.51-1.63,2.12.81,1.82,1.68,1.82A2.18,2.18,0,0,0,195.87,35.46Z"/><path class="cls-2" d="M201.22,34.31c0-3.12,1.73-4.94,4-4.94s4,1.82,4,4.94-1.73,5-4,5S201.22,37.43,201.22,34.31Zm5.23,0c0-2.11-.57-2.69-1.2-2.69s-1.2.58-1.2,2.69.58,2.74,1.2,2.74S206.45,36.42,206.45,34.31Zm7.73-4.94h2.31l-8.36,16.17h-2.3ZM213,40.55c0-3.12,1.73-4.94,4-4.94s4,1.82,4,4.94-1.73,5-4,5S213,43.67,213,40.55Zm5.24,0c0-2.11-.58-2.69-1.2-2.69s-1.21.58-1.21,2.69.58,2.74,1.21,2.74S218.22,42.66,218.22,40.55Z"/><polygon class="cls-5" points="291.26 85.16 289.26 85.16 289.26 38.76 247.02 38.76 247.02 36.76 291.26 36.76 291.26 85.16"/><path class="cls-4" d="M297.78,84.73a7.52,7.52,0,1,1-7.51-7.52A7.51,7.51,0,0,1,297.78,84.73Z"/><path class="cls-5" d="M298.78,84.73a8.52,8.52,0,1,0-8.51,8.52,8.53,8.53,0,0,0,8.51-8.52Zm-15,0a6.52,6.52,0,1,1,6.52,6.52,6.53,6.53,0,0,1-6.52-6.52Z"/><polygon class="cls-5" points="249.94 27.79 232.67 37.76 249.94 47.73 249.94 27.79"/><polygon class="cls-6" points="394.78 511.23 352.64 511.23 352.64 450.83 354.64 450.83 354.64 509.23 394.78 509.23 394.78 511.23"/><path class="cls-4" d="M346.12,451.26a7.52,7.52,0,1,1,7.52,7.52A7.51,7.51,0,0,1,346.12,451.26Z"/><path class="cls-6" d="M345.12,451.26a8.52,8.52,0,1,0,8.52-8.52,8.53,8.53,0,0,0-8.52,8.52Zm15,0a6.52,6.52,0,1,1-6.52-6.52,6.53,6.53,0,0,1,6.52,6.52Z"/><polygon class="cls-6" points="391.87 520.21 409.13 510.23 391.87 500.26 391.87 520.21"/><path class="cls-7" d="M465.42.29h3c2.68,0,4.3.86,4.3,3.31s-1.59,3.46-4.23,3.46h-2.23v5.09h-.83Zm2.86,6.07c2.41,0,3.58-.82,3.58-2.76S470.66,1,468.21,1h-2V6.36Z"/><path class="cls-7" d="M474,7.85c0-2.9,1.8-4.56,3.87-4.56S481.8,5,481.8,7.85s-1.8,4.52-3.89,4.52S474,10.71,474,7.85Zm6.93,0C481,5.56,479.66,4,477.91,4s-3,1.56-3,3.85,1.29,3.82,3,3.82S481,10.12,481,7.85Z"/><path class="cls-7" d="M484.39,3.51h.68l.08,1.6h.05a3,3,0,0,1,2.45-1.82,1.82,1.82,0,0,1,.86.18l-.18.73a1.86,1.86,0,0,0-.79-.15c-.77,0-1.69.6-2.36,2.22v5.88h-.79Z"/><path class="cls-7" d="M489.2,7.85c0-2.9,1.83-4.56,3.94-4.56a3.59,3.59,0,0,1,2.54,1.07l-.47.56a2.93,2.93,0,0,0-2-.92C491.39,4,490,5.56,490,7.85s1.25,3.82,3.14,3.82a3.45,3.45,0,0,0,2.3-1l.42.56a4.2,4.2,0,0,1-2.76,1.13C490.89,12.37,489.2,10.71,489.2,7.85Z"/><path class="cls-7" d="M497,7.85c0-2.83,1.84-4.56,3.76-4.56s3.32,1.46,3.32,4a3.55,3.55,0,0,1,0,.65h-6.23c0,2.18,1.31,3.75,3.26,3.75a3.81,3.81,0,0,0,2.32-.78l.33.61a4.79,4.79,0,0,1-2.72.85C498.75,12.37,497,10.68,497,7.85Zm6.32-.56c0-2.21-1-3.31-2.54-3.31s-2.79,1.24-3,3.31Z"/><path class="cls-7" d="M506.38,3.51h.69l.07,1.33h.05a4.26,4.26,0,0,1,3-1.55c1.78,0,2.61,1.09,2.61,3.32v5.54H512V6.72c0-1.84-.57-2.71-2-2.71-1,0-1.76.54-2.82,1.63v6.51h-.8Z"/><path class="cls-7" d="M516.16,9.76V4.2h-1.35V3.58l1.37-.07.1-2.5H517v2.5h2.5V4.2H517V9.83c0,1.1.27,1.84,1.46,1.84a3,3,0,0,0,1.08-.27l.21.64a4.5,4.5,0,0,1-1.4.33C516.65,12.37,516.16,11.31,516.16,9.76Z"/><path class="cls-7" d="M520.57,10c0-1.91,1.73-2.82,5.58-3.26,0-1.31-.34-2.73-2-2.73a4.92,4.92,0,0,0-2.76,1L521,4.41a5.85,5.85,0,0,1,3.23-1.12c2,0,2.73,1.48,2.73,3.34v5.52h-.68L526.19,11h-.06a5.12,5.12,0,0,1-3.06,1.33A2.26,2.26,0,0,1,520.57,10Zm5.58.29V7.35c-3.57.41-4.77,1.24-4.77,2.61a1.64,1.64,0,0,0,1.84,1.73A4.56,4.56,0,0,0,526.15,10.28Z"/><path class="cls-7" d="M527.77,16.06l.2-.65a2.91,2.91,0,0,0,.9.18c1,0,1.15-.79,1.15-1.89V3.51h.81V13.76c0,1.69-.61,2.52-2,2.52A3.17,3.17,0,0,1,527.77,16.06ZM529.71.72a.73.73,0,0,1,1.46,0,.73.73,0,0,1-1.46,0Z"/><path class="cls-7" d="M533.42,7.85c0-2.83,1.84-4.56,3.76-4.56s3.32,1.46,3.32,4a3.55,3.55,0,0,1,0,.65h-6.23c0,2.18,1.31,3.75,3.26,3.75a3.81,3.81,0,0,0,2.32-.78l.33.61a4.79,4.79,0,0,1-2.72.85C535.2,12.37,533.42,10.68,533.42,7.85Zm6.32-.56c0-2.21-1-3.31-2.54-3.31s-2.79,1.24-3,3.31Z"/><path class="cls-7" d="M552.12,12.73l0-1.71a4.21,4.21,0,0,1-2.86,1.35c-2.18,0-3.59-1.6-3.59-4.52s1.79-4.56,3.84-4.56a3.92,3.92,0,0,1,2.57,1h0l.09-.79h.67V16.06h-.8Zm0-2.48V5.11A3.62,3.62,0,0,0,549.6,4c-1.72,0-3,1.67-3,3.85s1,3.82,2.85,3.82A3.91,3.91,0,0,0,552.12,10.25Z"/><path class="cls-7" d="M556.1,9.06V3.51h.79V9c0,1.84.58,2.7,2,2.7,1,0,1.79-.54,2.8-1.77V3.51h.79v8.64h-.67l-.09-1.44h0a3.88,3.88,0,0,1-2.94,1.66C556.93,12.37,556.1,11.29,556.1,9.06Z"/><path class="cls-7" d="M565,7.85c0-2.83,1.83-4.56,3.76-4.56s3.31,1.46,3.31,4a4.72,4.72,0,0,1,0,.65h-6.23c0,2.18,1.31,3.75,3.26,3.75a3.83,3.83,0,0,0,2.32-.78l.32.61a4.74,4.74,0,0,1-2.72.85C566.81,12.37,565,10.68,565,7.85Zm6.32-.56c0-2.21-1-3.31-2.54-3.31s-2.79,1.24-3,3.31Z"/><path class="cls-7" d="M578.24,9.76V4.2h-1.35V3.58l1.37-.07.11-2.5h.68v2.5h2.5V4.2h-2.5V9.83c0,1.1.27,1.84,1.46,1.84a3,3,0,0,0,1.08-.27l.21.64a4.5,4.5,0,0,1-1.4.33C578.73,12.37,578.24,11.31,578.24,9.76Z"/><path class="cls-7" d="M582.74,7.85c0-2.83,1.84-4.56,3.76-4.56s3.32,1.46,3.32,4a3.55,3.55,0,0,1,0,.65h-6.23c0,2.18,1.31,3.75,3.26,3.75a3.81,3.81,0,0,0,2.32-.78l.33.61a4.79,4.79,0,0,1-2.72.85C584.52,12.37,582.74,10.68,582.74,7.85Zm6.32-.56c0-2.21-1-3.31-2.54-3.31s-2.79,1.24-3,3.31Z"/><path class="cls-7" d="M464.61,29.45c0-2.79,1.78-4.56,3.83-4.56A4,4,0,0,1,471.05,26l0-1.59V20.81h.79V33.75h-.69l-.07-1.11H471A4.06,4.06,0,0,1,468.19,34C466,34,464.61,32.37,464.61,29.45ZM471,31.84V26.71a3.66,3.66,0,0,0-2.52-1.11c-1.73,0-3.05,1.67-3.05,3.85s1,3.82,2.85,3.82A3.92,3.92,0,0,0,471,31.84Z"/><path class="cls-7" d="M474.4,29.45c0-2.83,1.84-4.56,3.76-4.56s3.32,1.46,3.32,4a3.55,3.55,0,0,1,0,.65h-6.23c0,2.18,1.31,3.75,3.26,3.75a3.81,3.81,0,0,0,2.32-.78l.33.61a4.79,4.79,0,0,1-2.72.85C476.18,34,474.4,32.28,474.4,29.45Zm6.32-.56c0-2.21-1-3.31-2.54-3.31s-2.79,1.24-3,3.31Z"/><path class="cls-7" d="M482.73,32.78l.47-.59a4,4,0,0,0,2.76,1.1c1.35,0,2.05-.8,2.05-1.72,0-1.08-1.12-1.54-2.11-1.9-1.31-.47-2.75-1-2.75-2.47,0-1.26,1-2.31,2.79-2.31a4,4,0,0,1,2.46.9l-.43.56a3.27,3.27,0,0,0-2.07-.77c-1.33,0-1.94.77-1.94,1.56,0,1,1,1.37,2,1.75,1.35.51,2.83,1,2.83,2.65,0,1.29-1.05,2.43-2.92,2.43A5,5,0,0,1,482.73,32.78Z"/><path class="cls-7" d="M490.38,29.45c0-2.9,1.84-4.56,3.95-4.56A3.57,3.57,0,0,1,496.86,26l-.46.55a3,3,0,0,0-2.06-.91c-1.76,0-3.13,1.56-3.13,3.85s1.24,3.82,3.13,3.82a3.5,3.5,0,0,0,2.31-1l.41.55A4.14,4.14,0,0,1,494.31,34C492.08,34,490.38,32.31,490.38,29.45Z"/><path class="cls-7" d="M499.06,30.66V25.11h.79v5.44c0,1.83.58,2.7,2,2.7,1,0,1.79-.54,2.79-1.77V25.11h.8v8.64h-.67l-.09-1.44h0A3.84,3.84,0,0,1,501.67,34C499.89,34,499.06,32.89,499.06,30.66Z"/><path class="cls-7" d="M509.5,32.87h0l-.09.88h-.66V20.81h.79v3.74l0,1.7a4.94,4.94,0,0,1,3-1.36c2.31,0,3.46,1.73,3.46,4.42,0,2.93-1.78,4.66-3.82,4.66A4.33,4.33,0,0,1,509.5,32.87Zm5.56-3.56c0-2.13-.75-3.71-2.73-3.71A4.52,4.52,0,0,0,509.5,27v5.13a4.16,4.16,0,0,0,2.56,1.12C513.8,33.27,515.06,31.65,515.06,29.31Z"/><path class="cls-7" d="M518.46,25.11h.69l.07,1.6h0a3,3,0,0,1,2.45-1.82,1.84,1.84,0,0,1,.87.18l-.18.72a2,2,0,0,0-.8-.14c-.77,0-1.69.6-2.36,2.22v5.88h-.79Z"/><path class="cls-7" d="M523.18,31.59c0-1.91,1.73-2.82,5.58-3.26,0-1.31-.34-2.73-2-2.73a4.9,4.9,0,0,0-2.76,1l-.36-.59a5.85,5.85,0,0,1,3.23-1.12c2,0,2.73,1.48,2.73,3.34v5.52h-.68l-.07-1.11h-.06A5.12,5.12,0,0,1,525.68,34,2.26,2.26,0,0,1,523.18,31.59Zm5.58.29V29c-3.57.41-4.77,1.24-4.77,2.61a1.64,1.64,0,0,0,1.84,1.73A4.56,4.56,0,0,0,528.76,31.88Z"/><path class="cls-7" d="M532.63,25.11h.68l.07,1.33h.06a4.22,4.22,0,0,1,3-1.55c1.78,0,2.61,1.08,2.61,3.32v5.54h-.79V28.32c0-1.84-.58-2.71-2-2.71-1,0-1.77.54-2.83,1.63v6.51h-.79Z"/><path class="cls-7" d="M543.55,37.66l.2-.65a3,3,0,0,0,.9.18c1,0,1.15-.79,1.15-1.89V25.11h.81V35.36c0,1.69-.61,2.52-1.94,2.52A3.18,3.18,0,0,1,543.55,37.66Zm2-15.34a.7.7,0,0,1,.72-.72.71.71,0,0,1,.74.72.72.72,0,0,1-.74.7A.71.71,0,0,1,545.5,22.32Z"/><path class="cls-7" d="M549.8,30.66V25.11h.79v5.44c0,1.83.58,2.7,2,2.7,1,0,1.79-.54,2.8-1.77V25.11h.79v8.64h-.67l-.09-1.44h0A3.88,3.88,0,0,1,552.41,34C550.63,34,549.8,32.89,549.8,30.66Z"/><path class="cls-7" d="M558.73,35.52A2.69,2.69,0,0,1,560,33.43v-.07a1.54,1.54,0,0,1-.76-1.39,2,2,0,0,1,.94-1.58v-.08a3.2,3.2,0,0,1-1.08-2.37,3,3,0,0,1,3-3.05,3,3,0,0,1,1.13.22h2.94v.67h-2a2.86,2.86,0,0,1,1,2.18,3,3,0,0,1-3,3,3,3,0,0,1-1.44-.36,1.53,1.53,0,0,0-.7,1.24c0,.63.36,1.13,1.65,1.13h1.86c1.94,0,2.84.62,2.84,2s-1.6,2.91-4.09,2.91C560.1,37.91,558.73,37,558.73,35.52Zm6.82-.44c0-.95-.7-1.31-2-1.31H561.7a5.13,5.13,0,0,1-1.08-.14,2.26,2.26,0,0,0-1.14,1.82c0,1.08,1,1.81,2.88,1.81S565.55,36.17,565.55,35.08Zm-1.17-7.14a2.25,2.25,0,1,0-4.48,0,2.25,2.25,0,1,0,4.48,0Z"/><path class="cls-7" d="M567.33,31.59c0-1.91,1.73-2.82,5.58-3.26,0-1.31-.34-2.73-2-2.73a4.86,4.86,0,0,0-2.75,1l-.36-.59A5.82,5.82,0,0,1,571,24.89c2,0,2.74,1.48,2.74,3.34v5.52H573L573,32.64h-.05A5.17,5.17,0,0,1,569.83,34,2.27,2.27,0,0,1,567.33,31.59Zm5.58.29V29c-3.56.41-4.77,1.24-4.77,2.61A1.64,1.64,0,0,0,570,33.29,4.56,4.56,0,0,0,572.91,31.88Z"/><path class="cls-7" d="M576.78,25.11h.69l.07,1.33h.05a4.24,4.24,0,0,1,3-1.55c1.79,0,2.61,1.08,2.61,3.32v5.54h-.79V28.32c0-1.84-.57-2.71-2-2.71-1,0-1.76.54-2.83,1.63v6.51h-.79Z"/><path class="cls-7" d="M585.64,29.45c0-2.79,1.78-4.56,3.83-4.56A4,4,0,0,1,592.08,26l0-1.59V20.81h.79V33.75h-.68l-.08-1.11H592A4.06,4.06,0,0,1,589.22,34C587,34,585.64,32.37,585.64,29.45Zm6.41,2.39V26.71a3.66,3.66,0,0,0-2.52-1.11c-1.73,0-3,1.67-3,3.85s1,3.82,2.85,3.82A3.92,3.92,0,0,0,592.05,31.84Z"/><path class="cls-7" d="M595.43,29.45c0-2.9,1.8-4.56,3.87-4.56s3.89,1.66,3.89,4.56S601.39,34,599.3,34,595.43,32.31,595.43,29.45Zm6.93,0c0-2.29-1.31-3.85-3.06-3.85s-3,1.56-3,3.85,1.29,3.82,3,3.82S602.36,31.72,602.36,29.45Z"/><path class="cls-7" d="M605.15,33.16a.79.79,0,0,1,.77-.83.82.82,0,1,1-.77.83Z"/><path class="cls-2" d="M0,18.29H3c2.68,0,4.3.86,4.3,3.31s-1.58,3.46-4.23,3.46H.83v5.09H0Zm2.86,6.07c2.42,0,3.59-.82,3.59-2.76S5.24,19,2.79,19h-2v5.37Z"/><path class="cls-2" d="M8.62,25.85c0-2.9,1.8-4.56,3.87-4.56s3.89,1.66,3.89,4.56-1.8,4.52-3.89,4.52S8.62,28.71,8.62,25.85Zm6.93,0c0-2.29-1.31-3.85-3.06-3.85s-3,1.56-3,3.85,1.3,3.82,3,3.82S15.55,28.12,15.55,25.85Z"/><path class="cls-2" d="M19,21.51h.69l.07,1.6h.05a3,3,0,0,1,2.45-1.82,1.84,1.84,0,0,1,.87.18l-.18.73a1.9,1.9,0,0,0-.8-.15c-.77,0-1.69.6-2.36,2.22v5.88H19Z"/><path class="cls-2" d="M23.78,25.85c0-2.9,1.83-4.56,3.94-4.56a3.58,3.58,0,0,1,2.54,1.07l-.47.56A2.93,2.93,0,0,0,27.74,22c-1.77,0-3.13,1.56-3.13,3.85s1.24,3.82,3.13,3.82a3.45,3.45,0,0,0,2.3-1l.42.56a4.2,4.2,0,0,1-2.76,1.13C25.47,30.37,23.78,28.71,23.78,25.85Z"/><path class="cls-2" d="M31.55,25.85c0-2.83,1.84-4.56,3.77-4.56s3.31,1.46,3.31,4a3.55,3.55,0,0,1,0,.65H32.36c0,2.18,1.32,3.75,3.26,3.75A3.84,3.84,0,0,0,38,28.91l.32.61a4.77,4.77,0,0,1-2.72.85C33.34,30.37,31.55,28.68,31.55,25.85Zm6.32-.56c0-2.21-1-3.31-2.54-3.31s-2.79,1.24-3,3.31Z"/><path class="cls-2" d="M41,21.51h.68l.07,1.33h.06a4.22,4.22,0,0,1,3-1.55c1.78,0,2.61,1.09,2.61,3.32v5.54h-.79V24.72c0-1.84-.58-2.71-2-2.71-1,0-1.77.54-2.83,1.63v6.51H41Z"/><path class="cls-2" d="M50.74,27.76V22.2H49.39v-.62l1.37-.07.11-2.5h.68v2.5h2.5v.69h-2.5v5.63c0,1.1.27,1.84,1.46,1.84a3,3,0,0,0,1.08-.27l.22.64a4.62,4.62,0,0,1-1.41.33C51.23,30.37,50.74,29.31,50.74,27.76Z"/><path class="cls-2" d="M55.15,28c0-1.91,1.73-2.82,5.58-3.26,0-1.31-.34-2.73-2-2.73a4.86,4.86,0,0,0-2.75,1l-.36-.59a5.82,5.82,0,0,1,3.22-1.12c2,0,2.74,1.48,2.74,3.34v5.52h-.69L60.77,29h-.06a5.12,5.12,0,0,1-3.06,1.33A2.27,2.27,0,0,1,55.15,28Zm5.58.29V25.35C57.17,25.76,56,26.59,56,28a1.64,1.64,0,0,0,1.84,1.73A4.56,4.56,0,0,0,60.73,28.28Z"/><path class="cls-2" d="M62.35,34.06l.2-.65a3,3,0,0,0,.9.18c1,0,1.15-.79,1.15-1.89V21.51h.81V31.76c0,1.69-.61,2.52-1.94,2.52A3.18,3.18,0,0,1,62.35,34.06ZM64.3,18.72a.73.73,0,0,1,1.45,0,.73.73,0,0,1-1.45,0Z"/><path class="cls-2" d="M68,25.85c0-2.83,1.84-4.56,3.77-4.56s3.31,1.46,3.31,4a3.55,3.55,0,0,1,0,.65H68.81c0,2.18,1.32,3.75,3.26,3.75a3.79,3.79,0,0,0,2.32-.78l.33.61a4.79,4.79,0,0,1-2.72.85C69.79,30.37,68,28.68,68,25.85Zm6.32-.56c0-2.21-1-3.31-2.54-3.31s-2.79,1.24-3,3.31Z"/><path class="cls-2" d="M86.71,30.73l0-1.71a4.21,4.21,0,0,1-2.86,1.35c-2.18,0-3.58-1.6-3.58-4.52s1.78-4.56,3.83-4.56a3.92,3.92,0,0,1,2.58,1h0l.09-.79h.67V34.06h-.79Zm0-2.48V23.11A3.66,3.66,0,0,0,84.19,22c-1.73,0-3,1.67-3,3.85s1,3.82,2.85,3.82A4,4,0,0,0,86.71,28.25Z"/><path class="cls-2" d="M90.68,27.06V21.51h.8V27c0,1.84.57,2.7,2,2.7,1,0,1.78-.54,2.79-1.77V21.51H97v8.64h-.67l-.09-1.44h0a3.88,3.88,0,0,1-2.94,1.66C91.51,30.37,90.68,29.29,90.68,27.06Z"/><path class="cls-2" d="M99.61,25.85c0-2.83,1.84-4.56,3.76-4.56s3.32,1.46,3.32,4a3.55,3.55,0,0,1,0,.65h-6.23c0,2.18,1.31,3.75,3.26,3.75a3.81,3.81,0,0,0,2.32-.78l.33.61a4.79,4.79,0,0,1-2.72.85C101.39,30.37,99.61,28.68,99.61,25.85Zm6.32-.56c0-2.21-1-3.31-2.54-3.31s-2.79,1.24-3,3.31Z"/><path class="cls-2" d="M112.75,22.2h-1.19v-.62l1.19-.07V19.58c0-1.71.77-2.59,2.14-2.59a3.17,3.17,0,0,1,1.26.29l-.21.65a2.34,2.34,0,0,0-1-.25c-.92,0-1.35.7-1.35,2v1.87h2v.69h-2v8h-.79Z"/><path class="cls-2" d="M117.05,18.72a.72.72,0,1,1,.72.7A.7.7,0,0,1,117.05,18.72Zm.31,2.79h.79v8.64h-.79Z"/><path class="cls-2" d="M121.48,21.51h.68l.08,1.33h.05a4.22,4.22,0,0,1,3-1.55c1.78,0,2.61,1.09,2.61,3.32v5.54h-.79V24.72c0-1.84-.58-2.71-2-2.71-1,0-1.77.54-2.83,1.63v6.51h-.79Z"/><path class="cls-2" d="M130.33,31.92a2.74,2.74,0,0,1,1.28-2.09v-.07a1.55,1.55,0,0,1-.75-1.39,2,2,0,0,1,.93-1.58v-.08a3.2,3.2,0,0,1-1.08-2.37,3,3,0,0,1,3-3.05,3.05,3.05,0,0,1,1.13.22h2.94v.67h-2a2.86,2.86,0,0,1,.95,2.18,3,3,0,0,1-3,3,3,3,0,0,1-1.44-.36,1.54,1.54,0,0,0-.71,1.24c0,.63.36,1.14,1.66,1.14h1.85c1.95,0,2.85.61,2.85,2s-1.6,2.91-4.09,2.91C131.7,34.31,130.33,33.38,130.33,31.92Zm6.83-.43c0-1-.7-1.32-2-1.32h-1.85a5.13,5.13,0,0,1-1.08-.14,2.24,2.24,0,0,0-1.14,1.82c0,1.08,1,1.81,2.88,1.81S137.16,32.57,137.16,31.49ZM136,24.34a2.25,2.25,0,1,0-4.48,0,2.25,2.25,0,1,0,4.48,0Z"/><path class="cls-2" d="M139.7,27.06V21.51h.79V27c0,1.84.57,2.7,2,2.7,1,0,1.78-.54,2.79-1.77V21.51H146v8.64h-.66l-.09-1.44h0a3.86,3.86,0,0,1-2.93,1.66C140.52,30.37,139.7,29.29,139.7,27.06Z"/><path class="cls-2" d="M148.62,25.85c0-2.83,1.84-4.56,3.77-4.56s3.31,1.46,3.31,4a3.55,3.55,0,0,1,0,.65h-6.23c0,2.18,1.32,3.75,3.26,3.75a3.84,3.84,0,0,0,2.33-.78l.32.61a4.77,4.77,0,0,1-2.72.85C150.41,30.37,148.62,28.68,148.62,25.85Zm6.32-.56c0-2.21-1-3.31-2.54-3.31s-2.79,1.24-3,3.31Z"/><path class="cls-2" d="M157,29.18l.47-.59a4,4,0,0,0,2.75,1.1c1.35,0,2-.8,2-1.72,0-1.08-1.11-1.54-2.1-1.9-1.32-.47-2.76-1-2.76-2.47,0-1.26,1-2.31,2.79-2.31a4,4,0,0,1,2.47.91l-.43.55a3.29,3.29,0,0,0-2.07-.77c-1.34,0-1.95.77-1.95,1.56,0,1,1,1.37,2,1.75,1.35.51,2.82,1,2.82,2.65,0,1.3-1,2.43-2.91,2.43A5,5,0,0,1,157,29.18Z"/><path class="cls-2" d="M77.11,52.33l0-1.71A4.23,4.23,0,0,1,74.29,52c-2.18,0-3.59-1.6-3.59-4.52s1.79-4.56,3.84-4.56a3.92,3.92,0,0,1,2.57,1h0l.09-.79h.67V55.66h-.8Zm0-2.49V44.71a3.64,3.64,0,0,0-2.52-1.11c-1.73,0-3,1.67-3,3.85s1,3.82,2.84,3.82A3.9,3.9,0,0,0,77.11,49.84Z"/><path class="cls-2" d="M81.09,48.66V43.11h.79v5.44c0,1.83.58,2.7,2,2.7,1,0,1.79-.54,2.79-1.77V43.11h.8v8.64h-.67l-.09-1.44h0A3.84,3.84,0,0,1,83.7,52C81.92,52,81.09,50.89,81.09,48.66Z"/><path class="cls-2" d="M90,47.45c0-2.83,1.83-4.56,3.76-4.56s3.31,1.46,3.31,4a4.72,4.72,0,0,1,0,.65H90.83c0,2.18,1.31,3.75,3.26,3.75a3.83,3.83,0,0,0,2.32-.78l.32.61A4.77,4.77,0,0,1,94,52C91.8,52,90,50.28,90,47.45Zm6.32-.56c0-2.21-1-3.31-2.54-3.31s-2.79,1.24-3,3.31Z"/><path class="cls-2" d="M103.23,49.36V43.79h-1.35v-.61l1.37-.07.1-2.5H104v2.5h2.5v.68H104v5.64c0,1.1.27,1.84,1.46,1.84a3,3,0,0,0,1.08-.27l.21.64a4.5,4.5,0,0,1-1.4.33C103.71,52,103.23,50.91,103.23,49.36Z"/><path class="cls-2" d="M108.65,43.11h.68l.07,1.6h.06a3,3,0,0,1,2.45-1.82,1.82,1.82,0,0,1,.86.18l-.18.72a2,2,0,0,0-.79-.14c-.78,0-1.7.6-2.36,2.22v5.88h-.79Z"/><path class="cls-2" d="M113.36,49.59c0-1.91,1.73-2.82,5.58-3.26,0-1.31-.34-2.73-2-2.73a4.86,4.86,0,0,0-2.75,1l-.36-.59A5.82,5.82,0,0,1,117,42.89c2,0,2.74,1.48,2.74,3.34v5.52h-.69L119,50.64h0A5.17,5.17,0,0,1,115.86,52,2.27,2.27,0,0,1,113.36,49.59Zm5.58.29V47c-3.56.41-4.77,1.24-4.77,2.61A1.64,1.64,0,0,0,116,51.29,4.56,4.56,0,0,0,118.94,49.88Z"/><path class="cls-2" d="M123.6,50.87h0l-.09.88h-.67V38.81h.79v3.74l0,1.7a4.94,4.94,0,0,1,3-1.36c2.3,0,3.45,1.73,3.45,4.42,0,2.93-1.78,4.66-3.81,4.66A4.35,4.35,0,0,1,123.6,50.87Zm5.57-3.56c0-2.13-.76-3.71-2.74-3.71A4.54,4.54,0,0,0,123.6,45v5.13a4.2,4.2,0,0,0,2.56,1.12C127.91,51.27,129.17,49.65,129.17,47.31Z"/><path class="cls-2" d="M131.69,49.59c0-1.91,1.72-2.82,5.58-3.26,0-1.31-.34-2.73-2.06-2.73a4.86,4.86,0,0,0-2.75,1L132.1,44a5.85,5.85,0,0,1,3.22-1.12c2,0,2.74,1.48,2.74,3.34v5.52h-.68l-.08-1.11h-.05A5.14,5.14,0,0,1,134.19,52,2.26,2.26,0,0,1,131.69,49.59Zm5.58.29V47c-3.57.41-4.77,1.24-4.77,2.61a1.63,1.63,0,0,0,1.83,1.73A4.58,4.58,0,0,0,137.27,49.88Z"/><path class="cls-2" d="M138.89,55.66l.19-.65a3,3,0,0,0,.9.18c1,0,1.16-.79,1.16-1.89V43.11H142V53.36c0,1.69-.62,2.52-1.95,2.52A3.17,3.17,0,0,1,138.89,55.66Zm1.94-15.34a.73.73,0,0,1,1.46,0,.73.73,0,0,1-1.46,0Z"/><path class="cls-2" d="M144.65,49.59c0-1.91,1.72-2.82,5.58-3.26,0-1.31-.34-2.73-2.06-2.73a4.86,4.86,0,0,0-2.75,1l-.36-.59a5.85,5.85,0,0,1,3.22-1.12c2,0,2.74,1.48,2.74,3.34v5.52h-.68l-.08-1.11h0A5.14,5.14,0,0,1,147.15,52,2.26,2.26,0,0,1,144.65,49.59Zm5.58.29V47c-3.57.41-4.77,1.24-4.77,2.61a1.63,1.63,0,0,0,1.83,1.73A4.58,4.58,0,0,0,150.23,49.88Z"/><path class="cls-2" d="M153,50.78l.46-.59a4,4,0,0,0,2.76,1.1c1.35,0,2-.8,2-1.72,0-1.08-1.12-1.54-2.11-1.9-1.31-.47-2.75-1-2.75-2.47,0-1.26,1-2.31,2.79-2.31a4,4,0,0,1,2.47.9l-.43.56a3.3,3.3,0,0,0-2.08-.77c-1.33,0-1.94.77-1.94,1.56,0,1,1,1.37,2,1.75,1.35.51,2.83,1,2.83,2.65,0,1.29-1,2.43-2.92,2.43A5,5,0,0,1,153,50.78Z"/><path class="cls-2" d="M160.94,51.16a.77.77,0,1,1,1.53,0,.77.77,0,0,1-.76.81A.77.77,0,0,1,160.94,51.16Z"/><path class="cls-1" d="M339.71,531.29h6.46V532h-5.63v4.72h4.77v.72h-4.77v5.7h-.83Z"/><path class="cls-1" d="M347.29,538.85c0-2.83,1.83-4.56,3.76-4.56s3.31,1.46,3.31,4a4.72,4.72,0,0,1,0,.65H348.1c0,2.18,1.31,3.75,3.26,3.75a3.83,3.83,0,0,0,2.32-.78l.32.61a4.77,4.77,0,0,1-2.72.85C349.07,543.37,347.29,541.68,347.29,538.85Zm6.32-.56c0-2.21-1-3.31-2.54-3.31s-2.79,1.24-3,3.31Z"/><path class="cls-1" d="M355.62,542.18l.47-.59a4,4,0,0,0,2.75,1.1c1.35,0,2.06-.8,2.06-1.72,0-1.08-1.12-1.54-2.11-1.9-1.32-.47-2.76-1-2.76-2.47,0-1.26,1-2.31,2.8-2.31a4,4,0,0,1,2.46.91l-.43.55a3.29,3.29,0,0,0-2.07-.77c-1.33,0-2,.77-2,1.56,0,1,1,1.37,2,1.75,1.35.51,2.83,1,2.83,2.65,0,1.3-1,2.43-2.92,2.43A5,5,0,0,1,355.62,542.18Z"/><path class="cls-1" d="M363.83,540.76V535.2h-1.35v-.62l1.37-.07.1-2.5h.69v2.5h2.5v.69h-2.5v5.63c0,1.1.27,1.84,1.46,1.84a3,3,0,0,0,1.08-.27l.21.64a4.5,4.5,0,0,1-1.4.33C364.31,543.37,363.83,542.31,363.83,540.76Z"/><path class="cls-1" d="M368.33,538.85c0-2.83,1.84-4.56,3.76-4.56s3.31,1.46,3.31,4a4.72,4.72,0,0,1,0,.65h-6.23c0,2.18,1.31,3.75,3.26,3.75a3.83,3.83,0,0,0,2.32-.78l.32.61a4.73,4.73,0,0,1-2.71.85C370.11,543.37,368.33,541.68,368.33,538.85Zm6.32-.56c0-2.21-1-3.31-2.54-3.31s-2.79,1.24-3,3.31Z"/><path class="cls-1" d="M375.49,547.06l.2-.65a3,3,0,0,0,.9.18c1,0,1.15-.79,1.15-1.89V534.51h.81v10.25c0,1.69-.61,2.52-1.94,2.52A3.18,3.18,0,0,1,375.49,547.06Zm1.95-15.34a.73.73,0,0,1,1.45,0,.73.73,0,0,1-1.45,0Z"/><path class="cls-1" d="M381.25,541c0-1.91,1.73-2.82,5.58-3.26,0-1.31-.34-2.73-2.05-2.73a4.86,4.86,0,0,0-2.75,1l-.36-.59a5.82,5.82,0,0,1,3.22-1.12c2,0,2.74,1.48,2.74,3.34v5.52h-.69l-.07-1.11h-.05a5.17,5.17,0,0,1-3.07,1.33A2.27,2.27,0,0,1,381.25,541Zm5.58.29v-2.93c-3.56.41-4.77,1.24-4.77,2.61a1.64,1.64,0,0,0,1.84,1.73A4.56,4.56,0,0,0,386.83,541.28Z"/><path class="cls-1" d="M393.58,538.85c0-2.83,1.84-4.56,3.76-4.56s3.32,1.46,3.32,4a3.55,3.55,0,0,1,0,.65h-6.23c0,2.18,1.32,3.75,3.26,3.75a3.79,3.79,0,0,0,2.32-.78l.33.61a4.79,4.79,0,0,1-2.72.85C395.36,543.37,393.58,541.68,393.58,538.85Zm6.32-.56c0-2.21-1-3.31-2.54-3.31s-2.79,1.24-3,3.31Z"/><path class="cls-1" d="M403,542V530.21h.79v11.9c0,.38.16.56.38.56a1.24,1.24,0,0,0,.32,0l.14.65a1.74,1.74,0,0,1-.57.09C403.36,543.37,403,542.94,403,542Z"/><path class="cls-1" d="M411,531.29h2.76c3.65,0,5.38,2.3,5.38,5.89s-1.73,6-5.37,6H411Zm2.67,11.16c3.22,0,4.61-2.18,4.61-5.27s-1.39-5.19-4.61-5.19h-1.84v10.46Z"/><path class="cls-1" d="M421.17,532.4l2.42-2.82.61.52-2.59,2.72Zm.56,2.11h.8v8.64h-.8Z"/><path class="cls-1" d="M425.24,541c0-1.91,1.73-2.82,5.59-3.26,0-1.31-.35-2.73-2.06-2.73a4.86,4.86,0,0,0-2.75,1l-.36-.59a5.85,5.85,0,0,1,3.22-1.12c2,0,2.74,1.48,2.74,3.34v5.52h-.69l-.07-1.11h-.05a5.17,5.17,0,0,1-3.06,1.33A2.27,2.27,0,0,1,425.24,541Zm5.59.29v-2.93c-3.57.41-4.78,1.24-4.78,2.61a1.64,1.64,0,0,0,1.84,1.73A4.6,4.6,0,0,0,430.83,541.28Z"/><path class="cls-1" d="M437.63,537.19c0-3.76,2.1-6.12,5.24-6.12a4.32,4.32,0,0,1,3.24,1.42l-.49.56a3.53,3.53,0,0,0-2.74-1.22c-2.71,0-4.39,2.07-4.39,5.36s1.59,5.42,4.29,5.42a3.8,3.8,0,0,0,2.66-.9V538H442.6v-.7h3.63V542a4.72,4.72,0,0,1-3.51,1.35C439.66,543.37,437.63,541,437.63,537.19Z"/><path class="cls-1" d="M448.57,541c0-1.91,1.73-2.82,5.58-3.26,0-1.31-.34-2.73-2-2.73a4.92,4.92,0,0,0-2.76,1l-.35-.59a5.82,5.82,0,0,1,3.22-1.12c2,0,2.74,1.48,2.74,3.34v5.52h-.69l-.07-1.11h-.06a5.12,5.12,0,0,1-3.06,1.33A2.27,2.27,0,0,1,448.57,541Zm5.58.29v-2.93c-3.56.41-4.77,1.24-4.77,2.61a1.64,1.64,0,0,0,1.84,1.73A4.56,4.56,0,0,0,454.15,541.28Z"/><path class="cls-1" d="M458,534.51h.69l.07,1.33h.05a4,4,0,0,1,2.72-1.55,2.24,2.24,0,0,1,2.39,1.77,4.38,4.38,0,0,1,2.94-1.77c1.73,0,2.59,1.09,2.59,3.32v5.54h-.81v-5.43c0-1.84-.61-2.71-1.92-2.71-.81,0-1.64.54-2.6,1.63v6.51h-.79v-5.43c0-1.84-.61-2.71-1.94-2.71a3.84,3.84,0,0,0-2.6,1.63v6.51H458Z"/><path class="cls-1" d="M471.92,538.85c0-2.83,1.83-4.56,3.76-4.56s3.31,1.46,3.31,4a4.72,4.72,0,0,1,0,.65h-6.23c0,2.18,1.31,3.75,3.26,3.75a3.83,3.83,0,0,0,2.32-.78l.32.61a4.77,4.77,0,0,1-2.72.85C473.7,543.37,471.92,541.68,471.92,538.85Zm6.32-.56c0-2.21-1-3.31-2.54-3.31s-2.79,1.24-3,3.31Z"/><path class="cls-1" d="M481.33,534.51H482l.08,1.6h.05a3,3,0,0,1,2.45-1.82,1.8,1.8,0,0,1,.86.18l-.18.73a1.83,1.83,0,0,0-.79-.15c-.77,0-1.69.6-2.36,2.22v5.88h-.79Z"/><path class="cls-1" d="M303.9,568.66l.2-.65a2.91,2.91,0,0,0,.9.18c1,0,1.15-.79,1.15-1.89V556.11H307v10.25c0,1.69-.61,2.52-1.95,2.52A3.17,3.17,0,0,1,303.9,568.66Zm1.94-15.34a.73.73,0,0,1,1.46,0,.73.73,0,0,1-1.46,0Z"/><path class="cls-1" d="M310.14,561.66v-5.55h.8v5.44c0,1.83.57,2.7,2,2.7,1,0,1.78-.54,2.79-1.77v-6.37h.79v8.64h-.67l-.08-1.44h0a3.88,3.88,0,0,1-2.94,1.66C311,565,310.14,563.89,310.14,561.66Z"/><path class="cls-1" d="M319.07,566.52a2.72,2.72,0,0,1,1.28-2.09v-.07a1.56,1.56,0,0,1-.76-1.39,2,2,0,0,1,.94-1.58v-.08a3.2,3.2,0,0,1-1.08-2.37,3,3,0,0,1,3-3.05,3.07,3.07,0,0,1,1.14.22h2.93v.67h-2a2.86,2.86,0,0,1,1,2.18,3,3,0,0,1-3,3,3.07,3.07,0,0,1-1.44-.36,1.53,1.53,0,0,0-.7,1.24c0,.63.36,1.13,1.66,1.13h1.85c1.95,0,2.85.62,2.85,2s-1.61,2.91-4.09,2.91C320.44,568.91,319.07,568,319.07,566.52Zm6.83-.44c0-1-.71-1.31-2-1.31H322a5.13,5.13,0,0,1-1.08-.14,2.25,2.25,0,0,0-1.13,1.82c0,1.08,1,1.81,2.88,1.81S325.9,567.17,325.9,566.08Zm-1.18-7.14a2.25,2.25,0,1,0-4.48,0,2.25,2.25,0,1,0,4.48,0Z"/><path class="cls-1" d="M327.68,562.59c0-1.91,1.72-2.82,5.58-3.26,0-1.31-.35-2.73-2.06-2.73a4.86,4.86,0,0,0-2.75,1l-.36-.59a5.85,5.85,0,0,1,3.22-1.12c2,0,2.74,1.48,2.74,3.34v5.52h-.69l-.07-1.11h-.05a5.14,5.14,0,0,1-3.06,1.33A2.26,2.26,0,0,1,327.68,562.59Zm5.58.29V560c-3.57.41-4.77,1.24-4.77,2.61a1.63,1.63,0,0,0,1.83,1.73A4.58,4.58,0,0,0,333.26,562.88Z"/><path class="cls-1" d="M337.12,556.11h.69l.07,1.33h.06a4.22,4.22,0,0,1,3-1.55c1.78,0,2.61,1.08,2.61,3.32v5.54h-.79v-5.43c0-1.84-.58-2.71-2-2.71-1,0-1.76.54-2.82,1.63v6.51h-.8Z"/><path class="cls-1" d="M346,560.45c0-2.79,1.78-4.56,3.84-4.56a4,4,0,0,1,2.61,1.07l0-1.59v-3.56h.79v12.94h-.68l-.07-1.11h-.06a4,4,0,0,1-2.81,1.33C347.39,565,346,563.37,346,560.45Zm6.41,2.39v-5.13a3.64,3.64,0,0,0-2.52-1.11c-1.73,0-3,1.67-3,3.85s1,3.82,2.84,3.82A3.9,3.9,0,0,0,352.39,562.84Z"/><path class="cls-1" d="M355.77,560.45c0-2.9,1.8-4.56,3.87-4.56s3.89,1.66,3.89,4.56-1.8,4.52-3.89,4.52S355.77,563.31,355.77,560.45Zm6.93,0c0-2.29-1.31-3.85-3.06-3.85s-3,1.56-3,3.85,1.3,3.82,3,3.82S362.7,562.72,362.7,560.45Z"/><path class="cls-1" d="M368.64,563.78l.47-.59a4,4,0,0,0,2.76,1.1c1.35,0,2.05-.8,2.05-1.72,0-1.08-1.12-1.54-2.11-1.9-1.31-.47-2.75-1-2.75-2.47,0-1.26,1-2.31,2.79-2.31a4,4,0,0,1,2.46.9l-.43.56a3.27,3.27,0,0,0-2.07-.77c-1.33,0-1.94.77-1.94,1.56,0,1,1,1.37,2,1.75,1.35.51,2.83,1,2.83,2.65,0,1.29-1.05,2.43-2.92,2.43A5,5,0,0,1,368.64,563.78Z"/><path class="cls-1" d="M376.71,553.32a.72.72,0,0,1,1.44,0,.72.72,0,0,1-1.44,0Zm.3,2.79h.8v8.64H377Z"/><path class="cls-1" d="M381.13,556.11h.69l.07,1.33h.05a4.26,4.26,0,0,1,3-1.55c1.78,0,2.61,1.08,2.61,3.32v5.54h-.8v-5.43c0-1.84-.57-2.71-2-2.71-1,0-1.76.54-2.82,1.63v6.51h-.8Z"/><path class="cls-1" d="M400,565.33l0-1.71a4.23,4.23,0,0,1-2.87,1.35c-2.17,0-3.58-1.6-3.58-4.52s1.78-4.56,3.83-4.56a3.92,3.92,0,0,1,2.58,1h0l.09-.79h.66v12.55H400Zm0-2.49v-5.13a3.64,3.64,0,0,0-2.52-1.11c-1.73,0-3,1.67-3,3.85s1,3.82,2.84,3.82A3.9,3.9,0,0,0,400,562.84Z"/><path class="cls-1" d="M404,561.66v-5.55h.79v5.44c0,1.83.57,2.7,2,2.7,1,0,1.78-.54,2.79-1.77v-6.37h.79v8.64h-.66l-.09-1.44h0a3.84,3.84,0,0,1-2.93,1.66C404.8,565,404,563.89,404,561.66Z"/><path class="cls-1" d="M412.9,560.45c0-2.83,1.84-4.56,3.77-4.56s3.31,1.46,3.31,4a3.55,3.55,0,0,1,0,.65h-6.23c0,2.18,1.32,3.75,3.26,3.75a3.84,3.84,0,0,0,2.33-.78l.32.61a4.77,4.77,0,0,1-2.72.85C414.69,565,412.9,563.28,412.9,560.45Zm6.32-.56c0-2.21-1-3.31-2.54-3.31s-2.79,1.24-3,3.31Z"/><path class="cls-1" d="M426.12,562.36v-5.57h-1.35v-.61l1.36-.07.11-2.5h.69v2.5h2.5v.68h-2.5v5.64c0,1.1.27,1.84,1.45,1.84a2.91,2.91,0,0,0,1.08-.27l.22.64a4.5,4.5,0,0,1-1.4.33C426.6,565,426.12,563.91,426.12,562.36Z"/><path class="cls-1" d="M430.62,560.45c0-2.83,1.83-4.56,3.76-4.56s3.31,1.46,3.31,4a4.72,4.72,0,0,1,0,.65h-6.23c0,2.18,1.31,3.75,3.25,3.75a3.84,3.84,0,0,0,2.33-.78l.32.61a4.77,4.77,0,0,1-2.72.85C432.4,565,430.62,563.28,430.62,560.45Zm6.32-.56c0-2.21-1-3.31-2.54-3.31s-2.79,1.24-3,3.31Z"/><path class="cls-1" d="M442.91,560.45c0-2.79,1.78-4.56,3.84-4.56a4,4,0,0,1,2.61,1.07l0-1.59v-3.56h.79v12.94h-.68l-.07-1.11h-.06a4,4,0,0,1-2.81,1.33C444.31,565,442.91,563.37,442.91,560.45Zm6.41,2.39v-5.13a3.64,3.64,0,0,0-2.52-1.11c-1.73,0-3,1.67-3,3.85s1,3.82,2.84,3.82A3.92,3.92,0,0,0,449.32,562.84Z"/><path class="cls-1" d="M452.7,560.45c0-2.83,1.84-4.56,3.76-4.56s3.32,1.46,3.32,4a3.55,3.55,0,0,1,0,.65h-6.23c0,2.18,1.32,3.75,3.26,3.75a3.79,3.79,0,0,0,2.32-.78l.33.61a4.79,4.79,0,0,1-2.72.85C454.48,565,452.7,563.28,452.7,560.45Zm6.32-.56c0-2.21-1-3.31-2.54-3.31s-2.79,1.24-3,3.31Z"/><path class="cls-1" d="M461,563.78l.46-.59a4,4,0,0,0,2.76,1.1c1.35,0,2.05-.8,2.05-1.72,0-1.08-1.12-1.54-2.11-1.9-1.31-.47-2.75-1-2.75-2.47,0-1.26,1-2.31,2.79-2.31a4,4,0,0,1,2.47.9l-.44.56a3.25,3.25,0,0,0-2.07-.77c-1.33,0-1.94.77-1.94,1.56,0,1,1,1.37,2,1.75,1.35.51,2.83,1,2.83,2.65,0,1.29-1,2.43-2.92,2.43A5,5,0,0,1,461,563.78Z"/><path class="cls-1" d="M468.69,560.45c0-2.9,1.83-4.56,3.94-4.56a3.59,3.59,0,0,1,2.54,1.07l-.47.55a3,3,0,0,0-2.05-.91c-1.77,0-3.14,1.56-3.14,3.85s1.25,3.82,3.14,3.82a3.45,3.45,0,0,0,2.3-1l.42.55a4.16,4.16,0,0,1-2.76,1.14C470.38,565,468.69,563.31,468.69,560.45Z"/><path class="cls-1" d="M477.36,561.66v-5.55h.79v5.44c0,1.83.58,2.7,2,2.7,1,0,1.78-.54,2.79-1.77v-6.37h.79v8.64H483l-.09-1.44h0A3.88,3.88,0,0,1,480,565C478.19,565,477.36,563.89,477.36,561.66Z"/><path class="cls-1" d="M487.8,563.87h0l-.09.88H487V551.81h.79v3.74l0,1.7a5,5,0,0,1,3-1.36c2.31,0,3.46,1.73,3.46,4.42,0,2.93-1.78,4.66-3.82,4.66A4.35,4.35,0,0,1,487.8,563.87Zm5.56-3.56c0-2.13-.75-3.71-2.73-3.71A4.52,4.52,0,0,0,487.8,558v5.13a4.16,4.16,0,0,0,2.56,1.12C492.1,564.27,493.36,562.65,493.36,560.31Z"/><path class="cls-1" d="M496.76,556.11h.69l.07,1.6h.06a3,3,0,0,1,2.44-1.82,1.84,1.84,0,0,1,.87.18l-.18.72a2,2,0,0,0-.79-.14c-.78,0-1.7.6-2.36,2.22v5.88h-.8Z"/><path class="cls-1" d="M501.48,562.59c0-1.91,1.73-2.82,5.58-3.26,0-1.31-.34-2.73-2.05-2.73a4.92,4.92,0,0,0-2.76,1l-.36-.59a5.88,5.88,0,0,1,3.23-1.12c2,0,2.73,1.48,2.73,3.34v5.52h-.68l-.07-1.11H507A5.12,5.12,0,0,1,504,565,2.26,2.26,0,0,1,501.48,562.59Zm5.58.29V560c-3.56.41-4.77,1.24-4.77,2.61a1.64,1.64,0,0,0,1.84,1.73A4.56,4.56,0,0,0,507.06,562.88Z"/><path class="cls-1" d="M510.93,556.11h.69l.07,1.33h.05a4.22,4.22,0,0,1,3-1.55c1.79,0,2.61,1.08,2.61,3.32v5.54h-.79v-5.43c0-1.84-.58-2.71-2-2.71-1,0-1.76.54-2.83,1.63v6.51h-.79Z"/></g></g></svg>