<svg xmlns="http://www.w3.org/2000/svg" viewBox="0 0 168.3 26.2"><defs><style>.cls-1{font-size:9.9px;font-family:SourceSansPro-Regular, Source Sans Pro;}.cls-1,.cls-3,.cls-4{fill:#fff;}.cls-2{letter-spacing:-0.01em;}.cls-4{font-size:6.48px;font-family:SourceSansPro-Bold, Source Sans Pro;font-weight:700;}.cls-5{letter-spacing:-0.03em;}.cls-6{letter-spacing:-0.01em;}.cls-7{letter-spacing:-0.02em;}.cls-8{fill:#ccc;}.cls-9{fill:gray;}.cls-10{fill:#3a4fa7;}.cls-11{fill:#f2f2f2;}</style></defs><title>menu-mobile</title><g id="Layer_2" data-name="Layer 2"><g id="Layer_1-2" data-name="Layer 1"><g id="titulo"><text class="cls-1" transform="translate(59.37 15.76)">Documen<tspan class="cls-2" x="39.9" y="0">t</tspan><tspan x="43.11" y="0">o</tspan></text></g><path class="cls-3" d="M20.28,1.35,11.66,8,3,1.35A1.55,1.55,0,0,1,4,1.06H19.37A1.52,1.52,0,0,1,20.28,1.35Z"/><path class="cls-3" d="M8.51,6.49,2.67,12.41a1.6,1.6,0,0,1-.32-1V2.67a1.69,1.69,0,0,1,.19-.77Z"/><path class="cls-3" d="M14.42,6.79l5.93,5.94a1.59,1.59,0,0,1-1,.34H4A1.63,1.63,0,0,1,3,12.76l5.89-6,2.75,2.12Z"/><path class="cls-3" d="M21,2.67v8.78a1.66,1.66,0,0,1-.28.91L14.82,6.49l6-4.59A1.58,1.58,0,0,1,21,2.67Z"/><text class="cls-4" transform="translate(0 23.1)">Bandeja</text><text class="cls-4" transform="translate(136.8 24.15)">Es<tspan class="cls-5" x="6.42" y="0">c</tspan><tspan x="9.27" y="0">ónd</tspan><tspan class="cls-6" x="20.28" y="0">e</tspan><tspan class="cls-7" x="23.57" y="0">t</tspan><tspan x="25.94" y="0">e!</tspan></text><path class="cls-3" d="M162,13.69c-1-.14-2.19-.24-3.11-.38-.1,0-.29-.18-.38-.25-.54-.37-1.34-1-1.86-1.36A9.54,9.54,0,0,1,162,13.69Z"/><path class="cls-8" d="M160.71,15.06c-1.51-.33-3.26-.8-4.73-1.12-.82-.18-1.68-.44-2.5-.63a1.57,1.57,0,0,1-.39-.22c.8-.49,1.67-1.07,2.39-1.53a.36.36,0,0,1,.48,0c.7.51,1.55,1,2.25,1.51a1.7,1.7,0,0,0,1.12.42C160.15,13.46,160.51,14.35,160.71,15.06Z"/><path class="cls-3" d="M144,11.72a11.9,11.9,0,0,1,2.3-1.09,6.73,6.73,0,0,1,2,.12l6.6.59.31,0c-.65.47-1.2.91-1.79,1.27-.17.11-.44,0-.66,0l-8.61-.86Z"/><path class="cls-9" d="M163.8,14.3l-3.23-.46.77,1.61-2-.43-5.86-1.28c-.29-.06-.52-.15-.61-.46s-.29-.38-.59-.41q-4.83-.39-9.65-.81a1,1,0,0,1-.18-.05l1.2-.53-2.39-.64v-.06l2.45-.21c.71-.06,1.41-.12,2.12-.16.24,0,.33-.08.37-.33q.73-4.61,1.49-9.2c.05-.29.1-.57.15-.88.65,0,1.29,0,1.92,0,1.57,0,3.14.06,4.7.09.88,0,1.76,0,2.64,0a.9.9,0,0,1,.46.15L161.24,3a.36.36,0,0,1,.16.42c-.4,2.81-.79,5.63-1.19,8.44a.38.38,0,0,0,.22.46l3.09,1.79.3.19ZM155.55,11,157.05.58,148.22.42l-1.62,10Zm4.2.92c.1-.74.21-1.43.3-2.12.3-2.08.59-4.17.89-6.25a.4.4,0,0,0-.19-.45c-.5-.34-1-.71-1.47-1.06L157.46.76,156,11.11Zm-15.57-.22.18,0,8.32.7c.22,0,.48.1.64,0,.57-.3,1.1-.66,1.73-1.06l-.3,0-6.37-.48a7.38,7.38,0,0,0-2-.1A12.17,12.17,0,0,0,144.18,11.74Zm16.34,3.09c-.21-.71-.49-1.25-1.32-1.2a1.75,1.75,0,0,1-1.12-.42c-.69-.52-1.42-1-2.12-1.51a.37.37,0,0,0-.48,0c-.72.47-1.46.92-2.26,1.41a1.53,1.53,0,0,0,.38.22l2.47.55Zm1.11-1.29c-1.37-1.21-3-1.41-4.69-1.72.52.4,1.06.79,1.6,1.16a.88.88,0,0,0,.28.16ZM143.84,11c.39.25.57.24,1-.09Z"/><path class="cls-8" d="M159.88,12.06l-4-.88L157.45.57l1.94,1.35c.52.36,1,.74,1.55,1.09a.4.4,0,0,1,.21.46c-.32,2.14-.63,4.27-1,6.41C160.1,10.59,160,11.3,159.88,12.06Z"/><path class="cls-3" d="M143.84,11l1-.09C144.41,11.24,144.23,11.25,143.84,11Z"/><path class="cls-10" d="M155.27,3.42a.1.1,0,0,0-.07.06s0,.07,0,.07a.1.1,0,0,0,.07-.07S155.3,3.42,155.27,3.42Zm0,.05,0,0v0h0v0h0v0h0l0-.09h0Z"/><path class="cls-10" d="M155.26,3.45h0v0h0s0,0,0,0S155.27,3.45,155.26,3.45Z"/><path class="cls-11" d="M151.16,2.71h0l-.22.61h0c.07,0,.18,0,.28-.32S151.22,2.71,151.16,2.71Z"/><path class="cls-3" d="M148.19.35c-.55,3.36-1.09,6.69-1.64,10l9,.67L157.11.51Zm7.3,3.42a.2.2,0,0,1-.17.16h-6.91c-.07,0-.09-.06-.06-.15l.55-1.52c0-.09.1-.15.18-.15H156c.07,0,.1.06.07.16Z"/><path class="cls-3" d="M156,2.2H149s0,0-.06.06l-.55,1.51s0,.06,0,.06h6.9s.05,0,.07-.06L156,2.26S156,2.2,156,2.2Zm-6.31,1a.44.44,0,0,1-.4.33h-.52l.39-1.09h.52c.16,0,.23.1.17.28a.38.38,0,0,1-.21.22C149.65,3,149.69,3.09,149.64,3.23Zm.35.35c-.28,0-.36-.14-.26-.42l.25-.69h.33L150,3.2c0,.08,0,.12,0,.12s.1,0,.13-.12l.27-.73h.31l-.25.69A.54.54,0,0,1,150,3.58Zm.93,0h-.43l.4-1.09h.44c.23,0,.37.15.23.53A.74.74,0,0,1,150.92,3.56Zm.68,0,.4-1.09h.33l-.29.82h.27l-.1.27Zm.68,0,.4-1.09H153l-.4,1.09Zm.89,0c-.3,0-.42-.18-.27-.57a.78.78,0,0,1,.69-.58.31.31,0,0,1,.31.16l-.22.22a.17.17,0,0,0-.17-.1c-.1,0-.2.09-.28.3s-.08.33.05.32h.05l.07-.18h-.1l.08-.22h.39l-.21.57A1,1,0,0,1,153.17,3.59Zm1,0,.15-.42h-.17l-.16.42h-.32L154,2.47h.33l-.14.4h.17l.15-.4h.32l-.39,1.09Zm1.17-.08a.12.12,0,0,1-.09.08s-.05,0,0-.08a.1.1,0,0,1,.09-.07S155.33,3.44,155.31,3.48Zm.28-.75h-.21l-.3.83h-.34l.3-.83h-.2l.09-.26h.75Z"/><path class="cls-11" d="M149.3,3.1h-.1l-.09.23h.11s.09,0,.12-.12S149.35,3.1,149.3,3.1Z"/><path class="cls-11" d="M149.44,2.7h-.09l-.08.21h.09s.09,0,.12-.11S149.49,2.7,149.44,2.7Z"/></g></g></svg>