<svg xmlns="http://www.w3.org/2000/svg" viewBox="0 0 32.98 32.76"><defs><style>.cls-1{fill:#fff;}</style></defs><title>Asset 129</title><g id="Layer_2" data-name="Layer 2"><g id="Pestañas"><path class="cls-1" d="M12.68,17.23a18.34,18.34,0,0,0-1.84-.12v3A17.26,17.26,0,0,0,12.65,20c.63-.11.95-.64.95-1.4S13.29,17.34,12.68,17.23Z"/><path class="cls-1" d="M12.24,15.22a1.17,1.17,0,0,0,1-1.17c.07-.68-.15-1.18-.69-1.29a14.59,14.59,0,0,0-1.77-.13v2.6C11.34,15.23,11.79,15.26,12.24,15.22Z"/><path class="cls-1" d="M32.54,17.12c.58-.63.58-.87,0-1.47-.84-.9-.84-.9-.2-1.93.46-.74.42-.91-.31-1.4-1-.68-1-.68-.62-1.83.28-.82.16-1.08-.65-1.35-1-.35-1-.37-.91-1.44s.05-1.12-.92-1.3c-1.13-.21-1.13-.21-1.17-1.32,0-.91-.2-1.08-1.12-1.09-1.2,0-1.2,0-1.52-1.14-.24-.87-.41-1-1.3-.73-1.16.31-1.16.31-1.72-.74-.43-.8-.63-.87-1.43-.48-1.1.54-1.1.54-1.89-.41-.51-.61-.7-.63-1.32-.15-1,.79-1,.79-2.06,0-.62-.49-.83-.46-1.32.14-.78,1-.78,1-1.85.44-.85-.43-1-.37-1.48.47-.55,1-.55,1-1.65.75C8.17,1.89,8,2,7.73,2.93S7.42,4,6.35,4,5.14,4,5.17,5.21c0,.85-.11,1-1,1.13C3,6.52,3,6.6,3.11,7.75c.13.95.09,1-.84,1.36s-1,.53-.68,1.49.37,1-.53,1.63S.14,13,.7,13.83s.57.95-.18,1.71-.7.94,0,1.66.72.78.17,1.66-.58,1,.35,1.64.9.62.52,1.56-.37,1.19.72,1.57A1,1,0,0,1,3.09,25c-.19,1.09-.09,1.18,1,1.38s1.06.23,1.11,1.3.17,1.09,1.18,1.09c1.18,0,1.18,0,1.48,1.11.26.91.41,1,1.33.76,1.14-.31,1.14-.31,1.72.77.42.78.62.84,1.43.44,1.09-.54,1.09-.54,1.84.39.54.65.72.68,1.37.17,1-.79,1-.79,2,0,.65.51.87.49,1.37-.14.76-1,.76-1,1.87-.4.8.4,1,.34,1.43-.45.58-1.07.58-1.07,1.7-.78.91.24,1.09.14,1.35-.75.32-1.11.32-1.11,1.48-1.09,1,0,1.08-.09,1.15-1.05.08-1.15.08-1.15,1.22-1.34.9-.16,1-.34.89-1.21-.19-1.14-.18-1.16.91-1.56.83-.3.93-.52.63-1.36-.41-1.14-.41-1.14.62-1.83.7-.47.75-.72.26-1.41C31.7,18,31.7,18,32.54,17.12ZM16.15,19.89a2.79,2.79,0,0,1-2.1,2A3.52,3.52,0,0,1,13,22c-1.61,0-3.22,0-4.87,0V10.74l.43,0h4a5.88,5.88,0,0,1,1,.07c1.37.23,2.09.87,2.27,2a2.63,2.63,0,0,1-1.51,3.07l-.13.09A3,3,0,0,1,16.15,19.89ZM5,9.72c-2.83,4.82-2.59,9.76-.09,14.67-2.41-3-3.54-9.4-.45-14.83C7.1,4.86,12.9,1.64,17.8,2.38,12.13,2.57,7.78,4.9,5,9.72ZM24.65,22H18.3V10.72H21v9.14H24.8C24.75,20.61,24.7,21.31,24.65,22Z"/></g></g></svg>