<svg xmlns="http://www.w3.org/2000/svg" viewBox="0 0 20.1 20.07"><defs><style>.cls-1{fill:#fff;}</style></defs><title>disk</title><g id="Layer_2" data-name="Layer 2"><g id="Pestañas"><path class="cls-1" d="M20.09,6a.82.82,0,0,0-.2-.49Q17.24,2.85,14.55.2A.71.71,0,0,0,14.09,0H1.52A1.43,1.43,0,0,0,0,1.52v17a1.43,1.43,0,0,0,1.59,1.59H18.47a1.45,1.45,0,0,0,1.62-1.6Q20.11,12.25,20.09,6ZM2.91,2.91h10v1h-10Zm0,1.6h10v1h-10Zm0,1.61h10v1h-10Zm7.17,11.07a3.58,3.58,0,1,1,3.55-3.58A3.56,3.56,0,0,1,10.08,17.19Z"/></g></g></svg>