<svg xmlns="http://www.w3.org/2000/svg" viewBox="0 0 203.98 22.3"><defs><style>.cls-1{fill:#fff;}</style></defs><title>facebook</title><g id="Layer_2" data-name="Layer 2"><g id="Pestañas"><path class="cls-1" d="M29.84,10.71c0-3.8,2.24-6.12,5.24-6.12a4.28,4.28,0,0,1,3.24,1.46l-.81,1A3.21,3.21,0,0,0,35.1,5.9c-2.23,0-3.71,1.84-3.71,4.78s1.42,4.84,3.66,4.84a3.57,3.57,0,0,0,2.73-1.33l.83.93A4.56,4.56,0,0,1,35,16.83C32,16.83,29.84,14.56,29.84,10.71Z"/><path class="cls-1" d="M40,12.26c0-2.94,1.91-4.61,4.05-4.61s4.06,1.67,4.06,4.61-1.91,4.57-4.06,4.57S40,15.16,40,12.26Zm6.58,0c0-2-1-3.39-2.53-3.39s-2.52,1.37-2.52,3.39,1,3.35,2.52,3.35S46.59,14.26,46.59,12.26Z"/><path class="cls-1" d="M50.42,7.87h1.22l.13,1.26h0a3.86,3.86,0,0,1,2.72-1.48A2.3,2.3,0,0,1,57,9.32a4.13,4.13,0,0,1,2.88-1.67c1.81,0,2.67,1.19,2.67,3.42v5.55H61V11.27c0-1.64-.52-2.34-1.62-2.34a3.21,3.21,0,0,0-2.19,1.35v6.34H55.73V11.27c0-1.64-.52-2.34-1.64-2.34a3.28,3.28,0,0,0-2.2,1.35v6.34H50.42Z"/><path class="cls-1" d="M65.34,7.87h1.22l.13,1h0a4.59,4.59,0,0,1,2.79-1.22C71.79,7.65,73,9.4,73,12.12c0,3-1.78,4.71-3.78,4.71a4.06,4.06,0,0,1-2.43-1l0,1.54v2.95H65.34Zm6.12,4.25c0-1.93-.65-3.23-2.3-3.23a3.7,3.7,0,0,0-2.34,1.19v4.59a3.43,3.43,0,0,0,2.14.92C70.4,15.59,71.46,14.28,71.46,12.12Z"/><path class="cls-1" d="M74.54,14.35c0-1.91,1.64-2.86,5.36-3.28,0-1.12-.36-2.2-1.8-2.2a4.76,4.76,0,0,0-2.61.94l-.57-1a6.49,6.49,0,0,1,3.43-1.13c2.15,0,3.05,1.42,3.05,3.6v5.37H80.17l-.12-1.05H80a4.64,4.64,0,0,1-2.9,1.26A2.38,2.38,0,0,1,74.54,14.35Zm5.36.12V12C77,12.4,76,13.12,76,14.24s.68,1.4,1.55,1.4A3.52,3.52,0,0,0,79.9,14.47Z"/><path class="cls-1" d="M84.15,7.87h1.22l.13,1.58h0A3,3,0,0,1,88,7.65a2.13,2.13,0,0,1,.94.18l-.29,1.3A2.48,2.48,0,0,0,87.84,9c-.74,0-1.62.54-2.21,2v5.62H84.15Z"/><path class="cls-1" d="M90.65,13.92V9.07h-1.3V8l1.37-.09.18-2.45h1.24V7.87H94.5v1.2H92.14v4.86c0,1.08.34,1.7,1.35,1.7a3.12,3.12,0,0,0,1-.24l.29,1.12a5.48,5.48,0,0,1-1.62.32C91.28,16.83,90.65,15.64,90.65,13.92Z"/><path class="cls-1" d="M96.21,5.11a1,1,0,0,1,2.05,0,1,1,0,0,1-2.05,0Zm.27,2.76H98v8.75H96.48Z"/><path class="cls-1" d="M100.91,7.87h1.22l.13,1.58h0a3,3,0,0,1,2.49-1.8,2.12,2.12,0,0,1,.93.18l-.29,1.3A2.38,2.38,0,0,0,104.6,9c-.74,0-1.62.54-2.22,2v5.62h-1.47Z"/><path class="cls-1" d="M110.1,12.26c0-2.86,1.93-4.61,3.93-4.61,2.23,0,3.49,1.6,3.49,4.11a6.65,6.65,0,0,1,0,.84h-5.91a2.9,2.9,0,0,0,2.92,3,4,4,0,0,0,2.18-.68l.52,1a5.18,5.18,0,0,1-2.88.9C112,16.83,110.1,15.12,110.1,12.26Zm6.13-.72c0-1.77-.8-2.72-2.17-2.72a2.71,2.71,0,0,0-2.52,2.72Z"/><path class="cls-1" d="M119.68,7.87h1.22L121,9.13h0A4.13,4.13,0,0,1,124,7.65c1.84,0,2.66,1.19,2.66,3.42v5.55h-1.47V11.27c0-1.64-.51-2.34-1.66-2.34-.9,0-1.51.47-2.39,1.35v6.34h-1.48Z"/><path class="cls-1" d="M133.27,4.81h6.81V6.07h-5.32v4h4.51v1.26h-4.51v5.3h-1.49Z"/><path class="cls-1" d="M140.87,14.35c0-1.91,1.63-2.86,5.36-3.28,0-1.12-.36-2.2-1.8-2.2a4.73,4.73,0,0,0-2.61.94l-.58-1a6.53,6.53,0,0,1,3.44-1.13c2.15,0,3,1.42,3,3.6v5.37H146.5l-.12-1.05h-.06a4.64,4.64,0,0,1-2.9,1.26A2.37,2.37,0,0,1,140.87,14.35Zm5.36.12V12c-2.92.36-3.92,1.08-3.92,2.2s.68,1.4,1.55,1.4A3.52,3.52,0,0,0,146.23,14.47Z"/><path class="cls-1" d="M149.83,12.26c0-2.94,2-4.61,4.21-4.61a3.62,3.62,0,0,1,2.56,1l-.76,1a2.55,2.55,0,0,0-1.74-.78c-1.59,0-2.74,1.37-2.74,3.39s1.1,3.35,2.7,3.35a3.13,3.13,0,0,0,2.05-.88l.65,1a4.26,4.26,0,0,1-2.82,1.11C151.61,16.83,149.83,15.16,149.83,12.26Z"/><path class="cls-1" d="M157.66,12.26c0-2.86,1.93-4.61,3.92-4.61,2.24,0,3.5,1.6,3.5,4.11a5.08,5.08,0,0,1-.06.84h-5.9a2.9,2.9,0,0,0,2.92,3,4,4,0,0,0,2.17-.68l.53,1a5.21,5.21,0,0,1-2.88.9C159.51,16.83,157.66,15.12,157.66,12.26Zm6.12-.72c0-1.77-.79-2.72-2.16-2.72a2.71,2.71,0,0,0-2.52,2.72Z"/><path class="cls-1" d="M168.6,15.72h0l-.13.9h-1.18V3.8h1.47V7.29l0,1.58a4.31,4.31,0,0,1,2.73-1.22c2.27,0,3.48,1.75,3.48,4.45,0,3-1.78,4.73-3.78,4.73A4,4,0,0,1,168.6,15.72Zm4.76-3.6c0-1.93-.65-3.23-2.31-3.23a3.63,3.63,0,0,0-2.34,1.19v4.59a3.43,3.43,0,0,0,2.15.92C172.3,15.59,173.36,14.28,173.36,12.12Z"/><path class="cls-1" d="M176.54,12.26c0-2.94,1.91-4.61,4.05-4.61s4,1.67,4,4.61-1.91,4.57-4,4.57S176.54,15.16,176.54,12.26Zm6.57,0c0-2-1-3.39-2.52-3.39s-2.52,1.37-2.52,3.39,1,3.35,2.52,3.35S183.11,14.26,183.11,12.26Z"/><path class="cls-1" d="M186.3,12.26c0-2.94,1.91-4.61,4-4.61s4.05,1.67,4.05,4.61-1.91,4.57-4.05,4.57S186.3,15.16,186.3,12.26Zm6.57,0c0-2-1-3.39-2.52-3.39s-2.52,1.37-2.52,3.39,1,3.35,2.52,3.35S192.87,14.26,192.87,12.26Z"/><path class="cls-1" d="M196.7,3.8h1.46v8.68h.05l3.73-4.61h1.64l-2.93,3.51L204,16.62h-1.62L199.8,12.4l-1.64,1.91v2.31H196.7Z"/><path class="cls-1" d="M10.74,5.47a3.87,3.87,0,0,1-.3-2.63A3.7,3.7,0,0,1,14.33,0a3.78,3.78,0,0,1,3.41,3.36,3.71,3.71,0,0,1-2.62,3.9,3.61,3.61,0,0,1-2.68-.2.59.59,0,0,0-.66,0Q9.66,8.47,7.54,9.8a.51.51,0,0,0-.26.59c.06.62,0,1.25,0,1.88a.77.77,0,0,0,.17.51,6.7,6.7,0,0,0,.83.56l3.49,2.24a3.75,3.75,0,0,1,5.6,4.66,3.75,3.75,0,0,1-4.68,1.82,3.7,3.7,0,0,1-2.21-4.59c.11-.32,0-.46-.24-.63q-1.9-1.2-3.79-2.43a.54.54,0,0,0-.7,0A3.7,3.7,0,1,1,4.15,7.66a5.36,5.36,0,0,1,1.57.6.62.62,0,0,0,.75,0c1.31-.86,2.64-1.7,4-2.56C10.53,5.64,10.62,5.56,10.74,5.47Z"/></g></g></svg>