<?xml version="1.0" encoding="utf-8"?>
<!-- Generator: Adobe Illustrator 22.1.0, SVG Export Plug-In . SVG Version: 6.00 Build 0)  -->
<svg version="1.1" id="Layer_1" xmlns="http://www.w3.org/2000/svg" xmlns:xlink="http://www.w3.org/1999/xlink" x="0px" y="0px"
	 viewBox="0 0 55 20" style="enable-background:new 0 0 55 20;" xml:space="preserve">
<style type="text/css">
	.st0{fill:#FFFFFF;}
	.st1{fill:#EFEFEF;}
	.st2{fill:url(#SVGID_1_);}
	.st3{opacity:5.000000e-02;fill:url(#SVGID_2_);enable-background:new    ;}
</style>
<title>gamer-ppt</title>
<path class="st0" d="M37.2,9.9c0-3.5,2.8-6.4,6.3-6.5C47,3.4,50,6.2,50,9.7c0,3.5-2.7,6.4-6.2,6.5C40.2,16.3,37.3,13.5,37.2,9.9
	C37.2,9.9,37.2,9.9,37.2,9.9z"/>
<path class="st1" d="M43.2,4.1c-2.3,0.1-4.3,1.5-5.2,3.6c1.1,4.9,4.2,7,6.8,7.8c3.1-0.8,4.9-4,4.1-7.1C48.3,5.8,45.9,4,43.2,4.1z"/>
<linearGradient id="SVGID_1_" gradientUnits="userSpaceOnUse" x1="0" y1="10" x2="55" y2="10" gradientTransform="matrix(1 0 0 -1 0 20)">
	<stop  offset="0" style="stop-color:#F27C38"/>
	<stop  offset="1" style="stop-color:#F45A2A"/>
</linearGradient>
<path class="st2" d="M45,0H10C4.5,0,0,4.5,0,10l0,0c0,5.5,4.5,10,10,10h35c5.5,0,10-4.5,10-10l0,0C55,4.5,50.5,0,45,0z M43.8,17
	c-3.9,0.1-7.1-2.9-7.3-6.7s2.9-7.1,6.7-7.3s7.1,2.9,7.3,6.7c0,0,0,0.1,0,0.1C50.7,13.7,47.7,16.9,43.8,17z"/>
<linearGradient id="SVGID_2_" gradientUnits="userSpaceOnUse" x1="0" y1="10" x2="55" y2="10" gradientTransform="matrix(1 0 0 -1 0 20)">
	<stop  offset="0" style="stop-color:#FFFFFF"/>
	<stop  offset="1" style="stop-color:#000000"/>
</linearGradient>
<path class="st3" d="M45,0H10C4.5,0,0,4.5,0,10l0,0c0,5.5,4.5,10,10,10h35c5.5,0,10-4.5,10-10l0,0C55,4.5,50.5,0,45,0z M43.8,17
	c-3.9,0.1-7.1-2.9-7.3-6.7s2.9-7.1,6.7-7.3s7.1,2.9,7.3,6.7c0,0,0,0.1,0,0.1C50.7,13.7,47.7,16.9,43.8,17z"/>
<path class="st0" d="M10.4,10c-0.1-2,1.4-3.7,3.5-3.8c2-0.1,3.7,1.4,3.8,3.5c0,0.1,0,0.3,0,0.4c0.1,2-1.4,3.7-3.5,3.8
	s-3.7-1.4-3.8-3.5C10.4,10.3,10.4,10.1,10.4,10z M15.4,10c0-1.3-0.5-2.1-1.4-2.1s-1.3,0.8-1.3,2.1s0.5,2.1,1.4,2.1
	S15.4,11.3,15.4,10L15.4,10z"/>
<path class="st0" d="M19.2,6.2H21l0.1,1h0.1c0.6-0.7,1.5-1.1,2.4-1.1c1.6,0,2.3,1.2,2.3,3v4.7h-2.2V9.4c0-1.1-0.3-1.4-0.9-1.4
	c-0.5,0-1,0.3-1.4,0.7v5.1h-2.2V6.2z"/>
</svg>
