<svg xmlns="http://www.w3.org/2000/svg" viewBox="0 0 171.1 20.07"><defs><style>.cls-1{fill:#fff;}</style></defs><title>iconsprint</title><g id="Layer_2" data-name="Layer 2"><g id="Pestañas"><g id="iconos"><path class="cls-1" d="M20.09,6a.82.82,0,0,0-.2-.49Q17.24,2.85,14.55.2A.71.71,0,0,0,14.09,0H1.52A1.43,1.43,0,0,0,0,1.52v17a1.43,1.43,0,0,0,1.59,1.59H18.47a1.45,1.45,0,0,0,1.62-1.6Q20.11,12.25,20.09,6ZM2.91,2.91h10v1h-10Zm0,1.6h10v1h-10Zm0,1.61h10v1h-10Zm7.17,11.07a3.58,3.58,0,1,1,3.55-3.58A3.56,3.56,0,0,1,10.08,17.19Z"/><path class="cls-1" d="M53.34,12.58v.61H44.56v-.61Z"/><path class="cls-1" d="M53.34,14.47H44.56v-.62h8.78Z"/><path class="cls-1" d="M53.34,15.66H44.56V15h8.78Z"/><path class="cls-1" d="M59.24,5.32a1.48,1.48,0,0,0-1.6-1.58H56.26c0-.7,0-1.39,0-2.06A1.61,1.61,0,0,0,55.11.24a3,3,0,0,0-.59,0Q49,.18,43.4.19a2.43,2.43,0,0,0-.6,0,1.46,1.46,0,0,0-1.11,1.32,17.39,17.39,0,0,0-.11,2.18H40.27a1.47,1.47,0,0,0-1.61,1.6q0,4.27,0,8.55A1.47,1.47,0,0,0,40.3,15.5h1.29c0,.93,0,1.8,0,2.67a1.53,1.53,0,0,0,1.75,1.75H54.52c1.22,0,1.78-.56,1.78-1.77V15.5h1.32a1.49,1.49,0,0,0,1.62-1.6Q59.26,9.61,59.24,5.32ZM54,6a.8.8,0,0,1-.8.79.8.8,0,0,1,0-1.59A.8.8,0,0,1,54,6Zm.77,12.45H43.09V11.13H54.81ZM56,6.76a.8.8,0,0,1,0-1.59.8.8,0,1,1,0,1.59Z"/><path class="cls-1" d="M87.78,20.05V15.73A5.63,5.63,0,0,0,89.61,4.79,5.54,5.54,0,0,0,83.38,6.7l2.29,2.11-.11.13H78V1.29L80.26,3.5A9.83,9.83,0,0,1,87.43.12,9.72,9.72,0,0,1,93.65,2a10,10,0,0,1,3.4,11.75A9.89,9.89,0,0,1,87.78,20.05Z"/><path class="cls-1" d="M126.82,20.05V15.73A5.63,5.63,0,0,1,125,4.79a5.54,5.54,0,0,1,6.23,1.91l-2.29,2.11.11.13h7.61V1.29L134.34,3.5A9.83,9.83,0,0,0,127.17.12,9.72,9.72,0,0,0,121,2a10,10,0,0,0-3.4,11.75A9.89,9.89,0,0,0,126.82,20.05Z"/><path class="cls-1" d="M160.21,8.68l3.22,0V.48h3.65V8.7h3.24l-5,5.06Z"/><path class="cls-1" d="M171.1,17v2.68H160.23V17Z"/></g></g></g></svg>