<svg xmlns="http://www.w3.org/2000/svg" viewBox="0 0 20.6 19.73"><defs><style>.cls-1{fill:#fff;}</style></defs><title>print</title><g id="Layer_2" data-name="Layer 2"><g id="Pestañas"><path class="cls-1" d="M14.69,12.39V13H5.91v-.62Z"/><path class="cls-1" d="M14.69,14.29H5.91v-.62h8.78Z"/><path class="cls-1" d="M14.69,15.48H5.91v-.62h8.78Z"/><path class="cls-1" d="M20.59,5.14A1.47,1.47,0,0,0,19,3.56H17.61c0-.71,0-1.39,0-2.07A1.61,1.61,0,0,0,16.46.06a3.05,3.05,0,0,0-.6-.06H4.75a2.45,2.45,0,0,0-.6.06A1.46,1.46,0,0,0,3,1.38a17.3,17.3,0,0,0-.11,2.18H1.62A1.47,1.47,0,0,0,0,5.16Q0,9.43,0,13.7a1.48,1.48,0,0,0,1.64,1.62H2.94V18A1.53,1.53,0,0,0,4.7,19.73H15.87c1.22,0,1.78-.55,1.78-1.76V15.32H19a1.49,1.49,0,0,0,1.62-1.6Q20.61,9.43,20.59,5.14Zm-5.2.64a.8.8,0,0,1-.8.8.79.79,0,0,1-.79-.8A.79.79,0,0,1,14.59,5,.79.79,0,0,1,15.39,5.78Zm.77,12.45H4.44V10.94H16.16ZM17.37,6.58a.79.79,0,0,1-.79-.8A.79.79,0,0,1,17.37,5a.79.79,0,0,1,.8.79A.8.8,0,0,1,17.37,6.58Z"/></g></g></svg>