<svg xmlns="http://www.w3.org/2000/svg" xmlns:xlink="http://www.w3.org/1999/xlink" viewBox="0 0 214 19.86"><defs><style>.cls-1{fill:#f45a2a;}.cls-2{opacity:0.15;}.cls-3{fill:#fff;}</style></defs><title>search-ppt</title><g id="Layer_2" data-name="Layer 2"><g id="Layer_1-2" data-name="Layer 1"><rect class="cls-1" x="1.03" width="212.97" height="19.86" rx="9.93" ry="9.93"/><image class="cls-2" width="1114" height="116" transform="scale(0.19 0.17)" xlink:href="../../../../Layout/assets/search_grain.png"/><path class="cls-3" d="M34.05,16.18l-1,1-3.77-3.78.17-.2-1.05-1a5.27,5.27,0,0,1-4.52,1.17,5.17,5.17,0,0,1-3.23-2.12,5.27,5.27,0,0,1,7.76-7A5.32,5.32,0,0,1,29,11.58l1,1,.27-.22Zm-9.11-3.5a4.56,4.56,0,1,0-4.52-4.5A4.56,4.56,0,0,0,24.94,12.68Z"/><path class="cls-3" d="M28.83,8.45h-.68a3.28,3.28,0,0,0-.94-2.56A3.13,3.13,0,0,0,24.65,5v-.7A3.86,3.86,0,0,1,28.83,8.45Z"/><path class="cls-3" d="M40.77,4.8H44c2.1,0,3.65.64,3.65,2.51a2.3,2.3,0,0,1-1.42,2.22v.06A2.34,2.34,0,0,1,48.22,12c0,2-1.67,3-3.92,3H40.77ZM43.88,9c1.42,0,2-.57,2-1.44s-.67-1.38-2-1.38H42.58V9Zm.23,4.59c1.5,0,2.35-.55,2.35-1.69s-.82-1.55-2.35-1.55H42.58v3.24Z"/><path class="cls-3" d="M49.86,12.16V7.34h1.8v4.58c0,1.27.36,1.74,1.18,1.74s1.13-.32,1.71-1.07V7.34h1.79V15H54.87l-.14-1.13h0a3.11,3.11,0,0,1-2.47,1.31C50.58,15.2,49.86,14.09,49.86,12.16Z"/><path class="cls-3" d="M57.86,14.14,58.7,13a3.36,3.36,0,0,0,2.12.86c.83,0,1.22-.39,1.22-.92s-.83-.92-1.64-1.23c-1-.38-2.15-1-2.15-2.24S59.32,7.16,61,7.16a4.11,4.11,0,0,1,2.55.92l-.83,1.09a2.85,2.85,0,0,0-1.69-.65c-.76,0-1.12.35-1.12.84s.76.84,1.59,1.14c1.05.39,2.21.89,2.21,2.33s-1,2.37-3,2.37A4.83,4.83,0,0,1,57.86,14.14Z"/><path class="cls-3" d="M64.85,11.19a3.78,3.78,0,0,1,3.85-4A3.3,3.3,0,0,1,71,8l-.88,1.17a1.88,1.88,0,0,0-1.28-.57c-1.23,0-2.09,1-2.09,2.57s.84,2.54,2,2.54a2.54,2.54,0,0,0,1.58-.65l.74,1.19a3.86,3.86,0,0,1-2.5.93C66.46,15.2,64.85,13.73,64.85,11.19Z"/><path class="cls-3" d="M72,13c0-1.64,1.36-2.5,4.51-2.84,0-.81-.36-1.5-1.4-1.5A4.36,4.36,0,0,0,73,9.36l-.66-1.2a6,6,0,0,1,3.16-1c1.91,0,2.86,1.17,2.86,3.31V15H76.83l-.12-.85h-.06a3.73,3.73,0,0,1-2.38,1A2.14,2.14,0,0,1,72,13Zm4.51,0V11.23c-2.09.27-2.78.82-2.78,1.58s.47,1,1.11,1A2.46,2.46,0,0,0,76.52,13Z"/><path class="cls-3" d="M80.47,7.34H82l.12,1.36h.06a2.6,2.6,0,0,1,2.17-1.54,1.93,1.93,0,0,1,.88.15l-.31,1.56a2.8,2.8,0,0,0-.8-.12c-.61,0-1.34.42-1.81,1.58V15h-1.8Z"/></g></g></svg>