<svg xmlns="http://www.w3.org/2000/svg" xmlns:xlink="http://www.w3.org/1999/xlink" viewBox="0 0 214 19.86"><defs><style>.cls-1{fill:#3a4fa7;}.cls-2{opacity:0.15;}.cls-3{fill:#fff;}</style></defs><title>search-wrd</title><g id="Layer_2" data-name="Layer 2"><g id="Layer_1-2" data-name="Layer 1"><rect class="cls-1" x="1.03" width="212.97" height="19.86" rx="9.93" ry="9.93"/><image class="cls-2" width="1114" height="116" transform="scale(0.19 0.17)" xlink:href="../../../../Layout/assets/search_grain.png"/><path class="cls-3" d="M34.05,15.66l-1,1-3.77-3.79.17-.19L28.43,11.6a5.27,5.27,0,1,1,0-8A5.31,5.31,0,0,1,29,11.06l1,1,.27-.23Zm-9.11-3.5a4.56,4.56,0,1,0-4.52-4.5A4.55,4.55,0,0,0,24.94,12.16Z"/><path class="cls-3" d="M28.83,7.94h-.68a3.29,3.29,0,0,0-.94-2.57,3.17,3.17,0,0,0-2.56-.91V3.77A3.85,3.85,0,0,1,28.83,7.94Z"/><path class="cls-3" d="M40.77,4.28H44c2.1,0,3.65.64,3.65,2.52A2.3,2.3,0,0,1,46.27,9v.07a2.33,2.33,0,0,1,1.95,2.42c0,2.05-1.67,3-3.92,3H40.77ZM43.88,8.5c1.42,0,2-.56,2-1.44s-.67-1.37-2-1.37H42.58V8.5Zm.23,4.59c1.5,0,2.35-.54,2.35-1.68s-.82-1.55-2.35-1.55H42.58v3.23Z"/><path class="cls-3" d="M49.86,11.64V6.83h1.8v4.58c0,1.26.36,1.73,1.18,1.73s1.13-.31,1.71-1.06V6.83h1.79V14.5H54.88l-.15-1.13h0a3.12,3.12,0,0,1-2.47,1.32C50.58,14.69,49.86,13.58,49.86,11.64Z"/><path class="cls-3" d="M57.86,13.62l.84-1.15a3.42,3.42,0,0,0,2.12.86c.83,0,1.22-.39,1.22-.92s-.83-.93-1.64-1.24c-1-.37-2.15-.95-2.15-2.23s1.07-2.3,2.79-2.3a4.17,4.17,0,0,1,2.55.92l-.83,1.1A2.8,2.8,0,0,0,61.07,8c-.76,0-1.12.36-1.12.84s.76.85,1.59,1.14c1.05.39,2.21.89,2.21,2.33s-1,2.38-3,2.38A4.84,4.84,0,0,1,57.86,13.62Z"/><path class="cls-3" d="M64.85,10.67a3.79,3.79,0,0,1,3.85-4A3.3,3.3,0,0,1,71,7.5l-.88,1.17a1.86,1.86,0,0,0-1.28-.56c-1.23,0-2.09,1-2.09,2.56s.84,2.55,2,2.55a2.56,2.56,0,0,0,1.58-.66l.74,1.19a3.87,3.87,0,0,1-2.5.94C66.46,14.69,64.85,13.22,64.85,10.67Z"/><path class="cls-3" d="M72,12.44c0-1.64,1.36-2.5,4.51-2.85,0-.81-.36-1.5-1.4-1.5A4.46,4.46,0,0,0,73,8.84l-.66-1.2a6,6,0,0,1,3.16-1c1.91,0,2.86,1.17,2.86,3.31V14.5H76.83l-.12-.84h-.06a3.79,3.79,0,0,1-2.38,1A2.14,2.14,0,0,1,72,12.44Zm4.51,0V10.72c-2.09.26-2.78.81-2.78,1.58s.47,1,1.11,1A2.45,2.45,0,0,0,76.52,12.44Z"/><path class="cls-3" d="M80.47,6.83H82l.12,1.36h.06a2.61,2.61,0,0,1,2.17-1.55,1.92,1.92,0,0,1,.88.16l-.31,1.56a2.48,2.48,0,0,0-.8-.13c-.61,0-1.34.43-1.81,1.58V14.5h-1.8Z"/></g></g></svg>