<svg xmlns="http://www.w3.org/2000/svg" viewBox="0 0 41.06 24.59"><defs><style>.cls-1{fill:#666;}</style></defs><title>Asset 111</title><g id="Layer_2" data-name="Layer 2"><g id="Barra_iconos" data-name="Barra iconos"><path class="cls-1" d="M29.52,0A11.54,11.54,0,0,0,23.8,1.51l0,0c-1.8,1-2.94,2-4.84,2S16.72,3,14.81,2.83a4.18,4.18,0,0,0-3.23,1.53c3.55-.54,3.53,2.5,7,3.5a6.2,6.2,0,0,0,.94.21A7.13,7.13,0,0,0,21,8.14a4.22,4.22,0,0,1-2.73.67c-1.48-.06-3.14-.47-4.72-.47-2.86,0-7.11,2.42-8.75,4.12,0,0,4.47-1.69,8.41-.58a33.65,33.65,0,0,1,5,1.91l.58.29-.51.07a7.91,7.91,0,0,0-3.84,1.51c-1.9,1.7-3.88,4.77-7.76,4.29a5.6,5.6,0,0,0,4.7,2.59c3.47.2,5.52-2.66,7.9-2.59C21.23,20,23.41,22,27,22.8a13,13,0,0,0,2.51.28h.05A11.54,11.54,0,0,0,29.52,0Zm-.89,21.24c-5.36,0,6.91.14,6.91-9.7s-12.27-9.7-6.91-9.7,10.73,4.34,10.73,9.7S34,21.24,28.63,21.24Z"/><path class="cls-1" d="M0,17.63a7.56,7.56,0,0,1,7.56-3.47c4.53.46,6.74-.54,6.74-.54S10.52,18,6.6,17.29C1.7,16.41,0,17.63,0,17.63Z"/><path class="cls-1" d="M14.3,23.76c1.56-1.15,3.4-2.38,6-1.56a16.21,16.21,0,0,0,4.77,1.09s-2.73,2-5.31,1C16.34,23,14.3,23.76,14.3,23.76Z"/><path class="cls-1" d="M.48,7.69A5.94,5.94,0,0,0,4.83,9.87c2.8.07,5.66-3.54,8.17-3.13A13.39,13.39,0,0,0,7.69,5.31C5.11,5.31,3.27,8.1.48,7.69Z"/></g></g></svg>