<svg xmlns="http://www.w3.org/2000/svg" xmlns:xlink="http://www.w3.org/1999/xlink" viewBox="0 0 26.5 22.23"><defs><style>.cls-1{fill:url(#linear-gradient);}.cls-2{fill:#f45a2a;}.cls-3{fill:url(#linear-gradient-2);}.cls-4{fill:url(#linear-gradient-3);}</style><linearGradient id="linear-gradient" y1="11.12" x2="16.66" y2="11.12" gradientUnits="userSpaceOnUse"><stop offset="0" stop-color="#f27c38"/><stop offset="1" stop-color="#f45a2a"/></linearGradient><linearGradient id="linear-gradient-2" x1="18.63" y1="11.22" x2="26.5" y2="11.22" xlink:href="#linear-gradient"/><linearGradient id="linear-gradient-3" x1="18.54" y1="11.17" x2="22.46" y2="11.17" xlink:href="#linear-gradient"/></defs><title>auido-ppt</title><g id="Layer_2" data-name="Layer 2"><g id="Pestañas"><path class="cls-1" d="M16.66,11.14c0,3,0,5.93,0,8.89a2,2,0,0,1-1,1.94,2,2,0,0,1-2.19-.15c-2.37-1.51-4.73-3-7.11-4.49a2.19,2.19,0,0,0-1-.29c-1,0-2,0-3.07,0A2,2,0,0,1,0,14.76V7.45A2,2,0,0,1,2.15,5.26c1,0,2.08,0,3.12,0A2.39,2.39,0,0,0,6.4,4.91c2.39-1.49,4.77-3,7.16-4.51A1.85,1.85,0,0,1,16.4,1a2.77,2.77,0,0,1,.25,1.17C16.66,5.17,16.66,8.16,16.66,11.14Z"/><path class="cls-2" d="M14.83,0V.32a1.41,1.41,0,0,1,1.29.84,2.62,2.62,0,0,1,.21,1c0,2.28,0,4.59,0,6.82v4.58c0,2.11,0,4.3,0,6.45a1.65,1.65,0,0,1-.85,1.66,1.71,1.71,0,0,1-.8.21,1.93,1.93,0,0,1-1.07-.36c-2.15-1.37-4.65-3-7.11-4.49a2.47,2.47,0,0,0-1.19-.34c-.35,0-.74,0-1.23,0H2.24A1.69,1.69,0,0,1,.32,14.76V7.45A1.66,1.66,0,0,1,2.16,5.58h2l1.16,0a2.7,2.7,0,0,0,1.27-.38C8,4.32,9.36,3.43,10.72,2.57l3-1.9a2.12,2.12,0,0,1,1.1-.35V0m0,0a2.39,2.39,0,0,0-1.27.4c-2.39,1.5-4.77,3-7.16,4.51a2.39,2.39,0,0,1-1.13.33c-.38,0-.76,0-1.14,0h-2A2,2,0,0,0,0,7.45v7.31A2,2,0,0,0,2.24,17H4.09c.41,0,.81,0,1.22,0a2.19,2.19,0,0,1,1,.29c2.38,1.48,4.74,3,7.11,4.49a2.32,2.32,0,0,0,1.24.41,1.92,1.92,0,0,0,1-.26,2,2,0,0,0,1-1.94c0-3,0-5.93,0-8.89s0-6,0-9A2.77,2.77,0,0,0,16.4,1a1.71,1.71,0,0,0-1.57-1Z"/><path class="cls-3" d="M26.5,10.89a9.89,9.89,0,0,1-6.11,9.49,2.09,2.09,0,0,1-1.11,0,.84.84,0,0,1-.65-.87.88.88,0,0,1,.64-.93,8,8,0,0,0,2.85-1.77A7.81,7.81,0,0,0,19.67,4a2.52,2.52,0,0,0-.29-.12,1,1,0,0,1-.66-1.31,1,1,0,0,1,1.37-.53,12,12,0,0,1,2.2,1.13A9.65,9.65,0,0,1,26.5,10.89Z"/><path class="cls-2" d="M19.65,2.3h0a1,1,0,0,1,.32.07l.17.08a11.12,11.12,0,0,1,2,1,9.31,9.31,0,0,1,4.07,7.43,10.4,10.4,0,0,1-1.65,5.72,8.62,8.62,0,0,1-4.25,3.46,1.22,1.22,0,0,1-.41.06,2.44,2.44,0,0,1-.52-.06.56.56,0,0,1-.41-.57.58.58,0,0,1,.44-.62,8.29,8.29,0,0,0,3-1.84,7.85,7.85,0,0,0,2.1-3.41,8,8,0,0,0,.22-3.8,8.26,8.26,0,0,0-4.86-6.1l-.16-.06-.13-.05a.73.73,0,0,1-.5-.9.7.7,0,0,1,.64-.43m0-.31a1,1,0,0,0-.93.62,1,1,0,0,0,.66,1.31,2.52,2.52,0,0,1,.29.12,7.81,7.81,0,0,1,2.45,12.78,8,8,0,0,1-2.85,1.77.88.88,0,0,0-.64.93.84.84,0,0,0,.65.87,2.8,2.8,0,0,0,.59.07,1.77,1.77,0,0,0,.52-.08,9.89,9.89,0,0,0,6.11-9.49,9.65,9.65,0,0,0-4.21-7.68,12,12,0,0,0-2.2-1.13A1.19,1.19,0,0,0,19.65,2Z"/><path class="cls-4" d="M22.46,11.21a7,7,0,0,1-2.25,5,.89.89,0,0,1-1.15.18.93.93,0,0,1-.4-1.11,1.32,1.32,0,0,1,.31-.48,5,5,0,0,0,0-7.25c-.31-.33-.57-.72-.31-1.13a2,2,0,0,1,.9-.6.79.79,0,0,1,.61.21A6.85,6.85,0,0,1,22.46,11.21Z"/><path class="cls-2" d="M19.65,6.13a.76.76,0,0,1,.3.15,6.5,6.5,0,0,1,2.19,4.93A6.72,6.72,0,0,1,20,16a.7.7,0,0,1-.46.23.57.57,0,0,1-.31-.1c-.16-.09-.36-.27-.25-.76A1,1,0,0,1,19.2,15a5.6,5.6,0,0,0,1.62-3.84,5.63,5.63,0,0,0-1.63-3.84c-.39-.42-.36-.61-.27-.74a1.39,1.39,0,0,1,.73-.48m0-.32-.09,0a2,2,0,0,0-.9.6c-.26.41,0,.8.31,1.13a5,5,0,0,1,0,7.25,1.32,1.32,0,0,0-.31.48.93.93,0,0,0,.4,1.11,1,1,0,0,0,.47.14,1,1,0,0,0,.68-.32,7,7,0,0,0,2.25-5A6.85,6.85,0,0,0,20.16,6a1,1,0,0,0-.52-.23Z"/></g></g></svg>