<svg xmlns="http://www.w3.org/2000/svg" xmlns:xlink="http://www.w3.org/1999/xlink" viewBox="0 0 39.74 33.34"><defs><style>.cls-1{fill:url(#linear-gradient);}.cls-2{fill:#1f7448;}.cls-3{fill:url(#linear-gradient-2);}.cls-4{fill:url(#linear-gradient-3);}</style><linearGradient id="linear-gradient" y1="16.67" x2="24.99" y2="16.67" gradientUnits="userSpaceOnUse"><stop offset="0" stop-color="#2fb06d"/><stop offset="1" stop-color="#1f7448"/></linearGradient><linearGradient id="linear-gradient-2" x1="27.93" y1="16.83" x2="39.74" y2="16.83" xlink:href="#linear-gradient"/><linearGradient id="linear-gradient-3" x1="27.8" y1="16.76" x2="33.68" y2="16.76" xlink:href="#linear-gradient"/></defs><title>audio-exc</title><g id="Layer_2" data-name="Layer 2"><g id="Pestañas"><path class="cls-1" d="M25,16.7c0,4.45,0,8.9,0,13.34a3,3,0,0,1-4.82,2.68Q14.85,29.33,9.5,26A3.19,3.19,0,0,0,8,25.55c-1.53-.06-3.07,0-4.6,0C1.12,25.5,0,24.37,0,22.13v-11A3,3,0,0,1,3.23,7.89c1.56,0,3.12,0,4.68,0a3.54,3.54,0,0,0,1.68-.5C13.19,5.13,16.75,2.85,20.33.6c1.7-1.06,3.46-.69,4.27.93A4.05,4.05,0,0,1,25,3.29C25,7.76,25,12.23,25,16.7Z"/><path class="cls-2" d="M22.24,0V.48a2.11,2.11,0,0,1,1.93,1.26,3.71,3.71,0,0,1,.32,1.55c0,3.41,0,6.87,0,10.22v6.87c0,3.17,0,6.44,0,9.67a2.48,2.48,0,0,1-1.28,2.48,2.39,2.39,0,0,1-1.2.33,2.94,2.94,0,0,1-1.61-.54c-3.22-2.05-7-4.44-10.66-6.74A3.85,3.85,0,0,0,8,25.07c-.53,0-1.12,0-1.84,0H3.36c-2,0-2.88-.95-2.88-2.92v-11a2.49,2.49,0,0,1,2.75-2.8h3c.69,0,1.24,0,1.74,0a4.07,4.07,0,0,0,1.91-.57C11.93,6.48,14,5.14,16.07,3.85L20.59,1A3.19,3.19,0,0,1,22.24.48V0m0,0a3.67,3.67,0,0,0-1.91.6C16.75,2.85,13.19,5.13,9.59,7.36a3.54,3.54,0,0,1-1.68.5c-.57,0-1.14,0-1.72,0h-3A3,3,0,0,0,0,11.17v11c0,2.24,1.12,3.37,3.36,3.39H6.14c.61,0,1.21,0,1.82,0A3.19,3.19,0,0,1,9.5,26q5.36,3.33,10.67,6.73a3.39,3.39,0,0,0,1.86.62A2.91,2.91,0,0,0,23.46,33,3,3,0,0,0,25,30c0-4.44,0-8.89,0-13.33s0-9,0-13.42a4.05,4.05,0,0,0-.36-1.76A2.59,2.59,0,0,0,22.24,0Z"/><path class="cls-3" d="M39.74,16.34c0,6.62-3.74,12.23-9.16,14.22a3.15,3.15,0,0,1-1.67,0,1.27,1.27,0,0,1-1-1.29,1.33,1.33,0,0,1,1-1.4,11.91,11.91,0,0,0,4.28-2.66A11.71,11.71,0,0,0,29.5,6.05l-.44-.17a1.56,1.56,0,0,1-1-2,1.52,1.52,0,0,1,2.06-.79,18,18,0,0,1,3.3,1.7A14.47,14.47,0,0,1,39.74,16.34Z"/><path class="cls-2" d="M29.46,3.46h0a1.18,1.18,0,0,1,.48.1l.26.11a16.93,16.93,0,0,1,3,1.54,14,14,0,0,1,6.1,11.14,15.65,15.65,0,0,1-2.47,8.58,13,13,0,0,1-6.37,5.18,1.89,1.89,0,0,1-.62.09,3.83,3.83,0,0,1-.79-.09.82.82,0,0,1-.6-.85.86.86,0,0,1,.65-.93,12.32,12.32,0,0,0,4.44-2.77,11.83,11.83,0,0,0,3.16-5.11,12.2,12.2,0,0,0,.32-5.7,12.35,12.35,0,0,0-7.29-9.13l-.24-.1-.2-.08a1.09,1.09,0,0,1-.74-1.35,1,1,0,0,1,.95-.63m0-.48a1.5,1.5,0,0,0-1.39.93,1.56,1.56,0,0,0,1,2l.44.17a11.71,11.71,0,0,1,3.67,19.17,11.91,11.91,0,0,1-4.28,2.66,1.33,1.33,0,0,0-1,1.4,1.27,1.27,0,0,0,1,1.29,3.74,3.74,0,0,0,.89.11,2.5,2.5,0,0,0,.78-.12c5.42-2,9.16-7.6,9.16-14.22A14.47,14.47,0,0,0,33.43,4.82a18,18,0,0,0-3.3-1.7A1.61,1.61,0,0,0,29.46,3Z"/><path class="cls-4" d="M33.68,16.81a10.53,10.53,0,0,1-3.37,7.51,1.34,1.34,0,0,1-1.73.27A1.38,1.38,0,0,1,28,22.93a1.69,1.69,0,0,1,.45-.71,7.55,7.55,0,0,0,0-10.88c-.46-.49-.86-1.09-.46-1.69a2.8,2.8,0,0,1,1.35-.91,1.17,1.17,0,0,1,.91.32A10.31,10.31,0,0,1,33.68,16.81Z"/><path class="cls-2" d="M29.47,9.2a.9.9,0,0,1,.44.22A9.74,9.74,0,0,1,33.2,16.8,10,10,0,0,1,30,24a1,1,0,0,1-.7.35.94.94,0,0,1-.45-.14c-.25-.14-.55-.42-.38-1.14a1.68,1.68,0,0,1,.34-.5,8.43,8.43,0,0,0,2.44-5.76A8.46,8.46,0,0,0,28.78,11c-.59-.63-.55-.91-.41-1.11a2.17,2.17,0,0,1,1.1-.71m0-.48a.3.3,0,0,0-.13,0A2.8,2.8,0,0,0,28,9.65c-.4.6,0,1.2.46,1.69a7.55,7.55,0,0,1,0,10.88,1.69,1.69,0,0,0-.45.71,1.38,1.38,0,0,0,.59,1.66,1.44,1.44,0,0,0,.7.21,1.52,1.52,0,0,0,1-.48,10.53,10.53,0,0,0,3.37-7.51,10.31,10.31,0,0,0-3.45-7.75,1.38,1.38,0,0,0-.78-.34Z"/></g></g></svg>