<svg xmlns="http://www.w3.org/2000/svg" xmlns:xlink="http://www.w3.org/1999/xlink" viewBox="0 0 28.91 24.25"><defs><style>.cls-1{fill:url(#linear-gradient);}.cls-2{fill:#263270;}.cls-3{fill:url(#linear-gradient-2);}.cls-4{fill:url(#linear-gradient-3);}</style><linearGradient id="linear-gradient" y1="12.13" x2="18.18" y2="12.13" gradientUnits="userSpaceOnUse"><stop offset="0" stop-color="#344694"/><stop offset="1" stop-color="#263270"/></linearGradient><linearGradient id="linear-gradient-2" x1="20.32" y1="12.24" x2="28.91" y2="12.24" xlink:href="#linear-gradient"/><linearGradient id="linear-gradient-3" x1="20.23" y1="12.19" x2="24.5" y2="12.19" xlink:href="#linear-gradient"/></defs><title>audio</title><g id="Layer_2" data-name="Layer 2"><g id="Bloques"><path class="cls-1" d="M18.17,12.15c0,3.24,0,6.47,0,9.71A2.16,2.16,0,0,1,17.06,24a2.19,2.19,0,0,1-2.39-.16q-3.87-2.47-7.76-4.9a2.31,2.31,0,0,0-1.12-.32c-1.11-.05-2.23,0-3.35,0A2.19,2.19,0,0,1,0,16.1v-8A2.16,2.16,0,0,1,2.35,5.74c1.13,0,2.27,0,3.4,0A2.75,2.75,0,0,0,7,5.36c2.61-1.63,5.2-3.29,7.81-4.92a2,2,0,0,1,3.1.67,2.94,2.94,0,0,1,.27,1.28C18.18,5.65,18.17,8.9,18.17,12.15Z"/><path class="cls-2" d="M16.18,0V.35a1.51,1.51,0,0,1,1.4.92,2.51,2.51,0,0,1,.23,1.12c0,2.48,0,5,0,7.44,0,.77,0,1.55,0,2.32v2.68c0,2.3,0,4.68,0,7A1.85,1.85,0,0,1,16,23.91a2.11,2.11,0,0,1-1.17-.4C12.52,22,9.79,20.29,7.1,18.61a2.74,2.74,0,0,0-1.3-.37c-.38,0-.81,0-1.33,0h-2A1.85,1.85,0,0,1,.35,16.1v-8a1.81,1.81,0,0,1,2-2H4.51l1.26,0a3.1,3.1,0,0,0,1.39-.42c1.52-.94,3.05-1.91,4.53-2.85L15,.73a2.28,2.28,0,0,1,1.2-.38V0m0,0a2.6,2.6,0,0,0-1.39.44C12.18,2.07,9.59,3.73,7,5.36a2.75,2.75,0,0,1-1.23.36c-.41,0-.83,0-1.24,0H2.35A2.16,2.16,0,0,0,0,8.13v8a2.19,2.19,0,0,0,2.44,2.47h2q.66,0,1.32,0a2.31,2.31,0,0,1,1.12.32q3.9,2.41,7.76,4.9a2.57,2.57,0,0,0,1.36.44,2,2,0,0,0,1-.28,2.16,2.16,0,0,0,1.12-2.11c0-3.24,0-6.47,0-9.71s0-6.5,0-9.76a2.94,2.94,0,0,0-.27-1.28A1.86,1.86,0,0,0,16.18,0Z"/><path class="cls-3" d="M28.91,11.88c0,4.83-2.72,8.91-6.66,10.35a2.29,2.29,0,0,1-1.22,0,.93.93,0,0,1-.71-.94,1,1,0,0,1,.7-1,8.83,8.83,0,0,0,3.11-1.94A8.53,8.53,0,0,0,21.46,4.4l-.32-.12a1.14,1.14,0,0,1-.72-1.44,1.12,1.12,0,0,1,1.5-.57,12.66,12.66,0,0,1,2.4,1.24A10.51,10.51,0,0,1,28.91,11.88Z"/><path class="cls-2" d="M21.43,2.51h0a.85.85,0,0,1,.35.08l.19.08a12.16,12.16,0,0,1,2.15,1.12,10.14,10.14,0,0,1,4.44,8.1,11.47,11.47,0,0,1-1.79,6.25,9.39,9.39,0,0,1-4.64,3.76,1.22,1.22,0,0,1-.45.07,2.34,2.34,0,0,1-.57-.07.59.59,0,0,1-.44-.62.61.61,0,0,1,.47-.67,9.2,9.2,0,0,0,3.23-2,8.73,8.73,0,0,0,2.3-3.72,8.82,8.82,0,0,0,.23-4.15,8.94,8.94,0,0,0-5.3-6.64L21.43,4,21.28,4a.79.79,0,0,1-.54-1,.75.75,0,0,1,.69-.47m0-.34a1.09,1.09,0,0,0-1,.67,1.14,1.14,0,0,0,.72,1.44l.32.12a8.53,8.53,0,0,1,2.67,14A8.83,8.83,0,0,1,21,20.29a1,1,0,0,0-.7,1,.93.93,0,0,0,.71.94,2.75,2.75,0,0,0,.65.08,1.75,1.75,0,0,0,.57-.09c3.94-1.44,6.66-5.52,6.66-10.35a10.51,10.51,0,0,0-4.59-8.37,12.66,12.66,0,0,0-2.4-1.24,1.23,1.23,0,0,0-.49-.1Z"/><path class="cls-4" d="M24.5,12.23a7.62,7.62,0,0,1-2.45,5.46,1,1,0,0,1-1.26.2,1,1,0,0,1-.43-1.21,1.32,1.32,0,0,1,.33-.52,5.49,5.49,0,0,0,0-7.91c-.33-.36-.62-.79-.33-1.23a2.06,2.06,0,0,1,1-.66.81.81,0,0,1,.66.23A7.48,7.48,0,0,1,24.5,12.23Z"/><path class="cls-2" d="M21.44,6.69a.79.79,0,0,1,.32.16,7.06,7.06,0,0,1,2.39,5.38,7.27,7.27,0,0,1-2.34,5.21.73.73,0,0,1-.51.25.65.65,0,0,1-.33-.1c-.18-.1-.4-.3-.27-.83A.92.92,0,0,1,21,16.4a6.14,6.14,0,0,0,1.77-4.19A6.12,6.12,0,0,0,20.93,8c-.42-.46-.39-.66-.29-.81a1.6,1.6,0,0,1,.8-.52m0-.35-.1,0a2.06,2.06,0,0,0-1,.66c-.29.44,0,.87.33,1.23a5.49,5.49,0,0,1,0,7.91,1.32,1.32,0,0,0-.33.52,1,1,0,0,0,.43,1.21,1.06,1.06,0,0,0,.51.15,1.09,1.09,0,0,0,.75-.35,7.62,7.62,0,0,0,2.45-5.46A7.48,7.48,0,0,0,22,6.59a1.05,1.05,0,0,0-.56-.25Z"/></g></g></svg>