<?xml version="1.0" encoding="utf-8"?>
<!-- Generator: Adobe Illustrator 22.1.0, SVG Export Plug-In . SVG Version: 6.00 Build 0)  -->
<svg version="1.1" id="Layer_1" xmlns="http://www.w3.org/2000/svg" xmlns:xlink="http://www.w3.org/1999/xlink" x="0px" y="0px"
	 viewBox="0 0 28.9 24.2" style="enable-background:new 0 0 28.9 24.2;" xml:space="preserve">
<style type="text/css">
	.st0{fill:url(#SVGID_1_);}
	.st1{fill:#1F7448;}
	.st2{fill:url(#SVGID_2_);}
</style>
<title>audio</title>
<linearGradient id="SVGID_1_" gradientUnits="userSpaceOnUse" x1="-7.602411e-03" y1="1066.0054" x2="18.1724" y2="1066.0054" gradientTransform="matrix(1 0 0 1 0 -1054)">
	<stop  offset="0" style="stop-color:#2FB06D"/>
	<stop  offset="1" style="stop-color:#1F7448"/>
</linearGradient>
<path class="st0" d="M18.2,12.1c0,3.2,0,6.5,0,9.7c0.1,0.9-0.3,1.7-1.1,2.1c-0.8,0.4-1.7,0.4-2.4-0.2c-2.6-1.6-5.2-3.3-7.8-4.9
	c-0.3-0.2-0.7-0.3-1.1-0.3c-1.1,0-2.2,0-3.3,0c-1.2,0.2-2.3-0.7-2.5-1.9c0-0.2,0-0.4,0-0.6V8c-0.1-1.2,0.8-2.2,1.9-2.4
	c0.1,0,0.3,0,0.4,0c1.1,0,2.3,0,3.4,0c0.4,0,0.9-0.2,1.2-0.4c2.6-1.6,5.2-3.3,7.8-4.9c0.8-0.7,2.1-0.6,2.8,0.2
	c0.1,0.1,0.2,0.3,0.3,0.4c0.2,0.4,0.3,0.8,0.3,1.3C18.2,5.7,18.2,8.9,18.2,12.1z"/>
<path class="st1" d="M16.2,0v0.3c0.6,0,1.2,0.4,1.4,0.9c0.2,0.4,0.2,0.7,0.2,1.1c0,2.5,0,5,0,7.4c0,0.8,0,1.6,0,2.3v2.7
	c0,2.3,0,4.7,0,7c0.1,1-0.6,1.9-1.6,2.1c-0.1,0-0.1,0-0.2,0c-0.4,0-0.8-0.2-1.2-0.4c-2.3-1.5-5-3.2-7.7-4.9
	c-0.4-0.2-0.8-0.4-1.3-0.4c-0.4,0-0.8,0-1.3,0h-2c-1,0.2-2-0.5-2.1-1.5c0-0.2,0-0.4,0-0.6V8C0.3,7,1,6.1,2,6c0.1,0,0.3,0,0.4,0h2.2
	h1.3c0.5,0,1-0.2,1.4-0.4c1.5-0.9,3-1.9,4.5-2.8L15,0.7c0.4-0.2,0.8-0.4,1.2-0.4V0 M16.2,0c-0.5,0-1,0.2-1.4,0.4
	c-2.6,1.7-5.2,3.3-7.8,5C6.6,5.6,6.2,5.7,5.8,5.7c-0.4,0-0.8,0-1.2,0H2.3C1.2,5.6,0.1,6.5,0,7.7C0,7.8,0,8,0,8.1v8
	c-0.2,1.2,0.7,2.3,1.9,2.5c0.2,0,0.4,0,0.6,0h2c0.4,0,0.9,0,1.3,0s0.8,0.1,1.1,0.3c2.6,1.6,5.2,3.2,7.8,4.9c0.4,0.3,0.9,0.4,1.4,0.4
	c0.4,0,0.7-0.1,1-0.3c0.8-0.4,1.2-1.2,1.1-2.1c0-3.2,0-6.5,0-9.7s0-6.5,0-9.8c0-0.4-0.1-0.9-0.3-1.3C17.6,0.5,16.9,0,16.2,0L16.2,0z
	"/>
<linearGradient id="SVGID_2_" gradientUnits="userSpaceOnUse" x1="20.0882" y1="13.85" x2="27.3701" y2="13.85" gradientTransform="matrix(1 0 0 -1 0 26)">
	<stop  offset="0" style="stop-color:#2FB06D"/>
	<stop  offset="1" style="stop-color:#1F7448"/>
</linearGradient>
<path class="st2" d="M24.9,12.1l2.3-2.3c0.3-0.3,0.3-0.8,0-1.1s-0.8-0.3-1.1,0L23.7,11l-2.3-2.3c-0.3-0.3-0.8-0.3-1.1,0
	s-0.3,0.9,0,1.2l2.3,2.3l-2.3,2.3c-0.3,0.3-0.3,0.8,0,1.1s0.8,0.3,1.1,0l2.3-2.3l2.3,2.3c0.3,0.3,0.8,0.3,1.1,0
	c0.3-0.3,0.3-0.8,0-1.1L24.9,12.1z"/>
</svg>
