<svg xmlns="http://www.w3.org/2000/svg" viewBox="0 0 37.6 32.42"><defs><style>.cls-1{fill:#2fb06d;}.cls-2{fill:#1f7448;}.cls-3{fill:#fff;}</style></defs><title>Asset 107</title><g id="Layer_2" data-name="Layer 2"><g id="Pestañas"><path class="cls-1" d="M10.3,31.93V24.15H.27V.26H37.33V24.09H35.44c-5.95,0-5.4,0-11.34,0a5.55,5.55,0,0,0-2.67.77C17.8,27.1,14.25,29.42,10.3,31.93Z"/><path class="cls-2" d="M10,32.42v-8H0V0H37.6V24.35H31.55c-2.3,0-3.25,0-7.45,0a5.26,5.26,0,0,0-2.53.73c-2.65,1.62-5.27,3.29-8,5.06l-3.09,2ZM.54,23.89h10v7.56l2.67-1.71c2.77-1.77,5.38-3.45,8-5.07a5.83,5.83,0,0,1,2.82-.81c4.2-.05,5.15,0,7.45,0h5.51V.52H.54Z"/><path class="cls-3" d="M18.79,2.64c.91,1.63,1.8,3.17,2.65,4.74a1.52,1.52,0,0,0,1.19.84c1.82.31,3.64.67,5.5,1-.08.09-.13.17-.19.24-1.22,1.23-2.43,2.47-3.65,3.69a1.2,1.2,0,0,0-.41,1.11c.23,1.77.44,3.55.66,5.33a3.75,3.75,0,0,1,0,.42l-.44-.2c-1.57-.76-3.14-1.5-4.7-2.28a1.35,1.35,0,0,0-1.32,0c-1.58.79-3.17,1.54-4.76,2.31-.1.05-.21.08-.35.14,0-.11,0-.19,0-.27l.69-5.62a1,1,0,0,0-.35-.84L9.65,9.52,9.4,9.24l1.66-.31c1.37-.26,2.75-.52,4.12-.76A1.08,1.08,0,0,0,16,7.58c.82-1.47,1.65-2.93,2.48-4.4C18.56,3,18.66,2.87,18.79,2.64Z"/></g></g></svg>