<svg xmlns="http://www.w3.org/2000/svg" viewBox="0 0 42.98 28.18"><defs><style>.cls-1{fill:gray;}.cls-2{fill:#333;}.cls-3{fill:#999;}.cls-4{fill:#b3b3b3;}</style></defs><title>Asset 120</title><g id="Layer_2" data-name="Layer 2"><g id="Barra_iconos" data-name="Barra iconos"><path class="cls-1" d="M6.59,1.14C6.78,0,6.83,0,7.86,0H35.14c1,0,1.08,0,1.27,1.14,1.42,0,2.87,0,4.31,0,2.36,0,2.31-.06,2.24,2.26,0,.74,0,22.05,0,23.54a1,1,0,0,1-1,1.21,5.07,5.07,0,0,1-.87,0H1.91a6.27,6.27,0,0,1-.87,0,1,1,0,0,1-1-1.22c0-2.57.09-5.14.09-7.71S0,14.18,0,11.65C0,10,0,8.39,0,6.76c0-.71.05-1.42,0-2.14S0,3,0,2.23.29,1.14,1.11,1.14C2.92,1.13,4.73,1.14,6.59,1.14Z"/><path class="cls-2" d="M34.51,17.58a4,4,0,0,1,.32,1c0,3.17,0,6.33,0,9.55H8.41c0-.24,0-.49,0-.74,0-2.83,0-5.66,0-8.49a8.69,8.69,0,0,1,.21-1.34l0,0a9.35,9.35,0,0,1,1.54-.26c4.65,0,9.31,0,14,0l10.14,0Z"/><path class="cls-3" d="M34.36,17.69l-.3-.27a2.69,2.69,0,0,0-.61-.14q-12,0-24.05,0c-.32,0-.65.28-1,.43l0,0a4,4,0,0,0-.36,1.17c0,2.71,0,5.41,0,8.12,0,.9-.14,1-1.07.88V1.44H8.14v10c0,1.34.35,1.68,1.67,1.68H33.24c1.31,0,1.63-.32,1.63-1.61v-10H36V27.81c-1,.28-1.19.13-1.19-.84,0-2.73,0-5.46,0-8.19A3.05,3.05,0,0,0,34.36,17.69Z"/><path class="cls-4" d="M.31,5.34c0-1.11,0-2.2,0-3.27a.88.88,0,0,1,.6-.61c1.87,0,3.75,0,5.68,0v3.9Z"/><path class="cls-4" d="M6.62,9.89H.35V6H6.62Z"/><path class="cls-4" d="M6.63,10.54v3.83H.37V10.54Z"/><path class="cls-4" d="M6.61,18.89H.35V15H6.61Z"/><path class="cls-4" d="M6.62,23.36H.36V19.49H6.62Z"/><path class="cls-4" d="M.37,24H6.63v3.47H.37Zm3.69,2.76a.86.86,0,0,0,.85-.9A.88.88,0,0,0,4,24.94a.87.87,0,0,0-.89.86A.9.9,0,0,0,4.06,26.73Z"/><path d="M4.06,26.73a.9.9,0,0,1-1-.93A.87.87,0,0,1,4,24.94a.88.88,0,0,1,.92.89A.86.86,0,0,1,4.06,26.73Z"/><path class="cls-4" d="M11.93,0H27.1c0,.21,0,.39,0,.58,0,3,0,5.94,0,8.91,0,.65-.21.82-.84.82q-6.81,0-13.63,0c-.64,0-.82-.19-.82-.83,0-2.94,0-5.89,0-8.84C11.9.46,11.91.27,11.93,0Z"/><path class="cls-4" d="M42.68,5.37h-6.3V1.43h1.19c1.45,0,2.9,0,4.34,0,.55,0,.79.22.78.78C42.67,3.24,42.68,4.28,42.68,5.37Z"/><path class="cls-4" d="M36.36,9.88V6h6.26V9.88Z"/><path class="cls-4" d="M42.64,14.4H36.37V10.52h6.27Z"/><path class="cls-4" d="M36.36,18.87V15h6.28v3.88Z"/><path class="cls-4" d="M42.63,23.36H36.38V19.49h6.25Z"/><path class="cls-4" d="M42.63,27.47H36.39V24h6.24ZM39,26.73a.89.89,0,0,0,.88-.94.85.85,0,0,0-.89-.85.9.9,0,0,0-.92.9A.87.87,0,0,0,39,26.73Z"/><path d="M39,26.73a.87.87,0,0,1-.93-.89.9.9,0,0,1,.92-.9.85.85,0,0,1,.89.85A.89.89,0,0,1,39,26.73Z"/></g></g></svg>