<svg xmlns="http://www.w3.org/2000/svg" viewBox="0 0 42.86 32.27"><defs><style>.cls-1{fill:#fff;stroke:#4d4d4d;stroke-width:1.5px;}.cls-1,.cls-2{stroke-linejoin:round;}.cls-2{fill:#a0a0a0;stroke:#6d6d6d;stroke-width:0.75px;}</style></defs><title>Asset 113</title><g id="Layer_2" data-name="Layer 2"><g id="Barra_iconos" data-name="Barra iconos"><path class="cls-1" d="M.75,5.3V.8A3.06,3.06,0,0,1,1.07.75H7.91a1.32,1.32,0,0,1,.64.16c2.14,1.43,4.27,2.87,6.5,4.38Z"/><path class="cls-1" d="M42.11,5.2V31.52H.76V5.2Z"/><path class="cls-2" d="M28.68,18.41a7.25,7.25,0,1,1-7.22-7.11A7.14,7.14,0,0,1,28.68,18.41Zm-5.09-3.92a4.57,4.57,0,0,0-5.53.91,4.23,4.23,0,0,0-.58,5Zm-4.31,7.74a4.57,4.57,0,0,0,5.56-1,4.27,4.27,0,0,0,.55-5Z"/></g></g></svg>