<svg xmlns="http://www.w3.org/2000/svg" viewBox="0 0 39.17 39.16"><defs><style>.cls-1{fill:gray;}.cls-2{fill:#ccc;}</style></defs><title>Asset 122</title><g id="Layer_2" data-name="Layer 2"><g id="Barra_iconos" data-name="Barra iconos"><path class="cls-1" d="M19.59,0A19.66,19.66,0,0,1,39.17,19.72,19.59,19.59,0,1,1,0,19.33,19.53,19.53,0,0,1,19.59,0Zm0,1.54a18,18,0,0,0-.1,36.08A18.26,18.26,0,0,0,37.62,19.68,18.12,18.12,0,0,0,19.6,1.54Z"/><path class="cls-2" d="M19.6,1.54a18.12,18.12,0,0,1,18,18.14A18.26,18.26,0,0,1,19.5,37.62a18,18,0,0,1,.1-36.08Zm6.59,18.21a6.66,6.66,0,0,0-6.52-6.85,6.75,6.75,0,0,0-6.77,6.49,6.68,6.68,0,0,0,6.56,6.82A6.58,6.58,0,0,0,26.19,19.75Zm4.5,10.87-1.18-1a14.71,14.71,0,0,1-9.86,4.14v1.49A15.66,15.66,0,0,0,30.69,30.62ZM9.62,9.51a14,14,0,0,1,9-4c1.19,0,.92-.76.82-1.57A15.11,15.11,0,0,0,8.52,8.49Zm10,21.75a11.65,11.65,0,0,0,8.23-3.55l-1-1v.49l-7.23,3ZM19.48,7.94a11.33,11.33,0,0,0-8.13,3.38l1,1.1,0-.53,7.16-3Z"/><path class="cls-1" d="M26.19,19.75a6.58,6.58,0,0,1-6.73,6.46,6.68,6.68,0,0,1-6.56-6.82,6.75,6.75,0,0,1,6.77-6.49A6.66,6.66,0,0,1,26.19,19.75Zm-6.81,4.89a5.08,5.08,0,0,0,.44-10.15,5.16,5.16,0,0,0-5.35,4.94A5.11,5.11,0,0,0,19.38,24.64Z"/><path class="cls-1" d="M30.69,30.62a15.66,15.66,0,0,1-11,4.62V33.75a14.71,14.71,0,0,0,9.86-4.14Z"/><path class="cls-1" d="M9.62,9.51l-1.1-1A15.11,15.11,0,0,1,19.47,4c.1.81.37,1.52-.82,1.57A14,14,0,0,0,9.62,9.51Z"/><path class="cls-1" d="M19.64,31.26v-1l7.23-3v-.49l1,1A11.65,11.65,0,0,1,19.64,31.26Z"/><path class="cls-1" d="M19.48,7.94v1l-7.16,3,0,.53-1-1.1A11.33,11.33,0,0,1,19.48,7.94Z"/><path class="cls-2" d="M19.38,24.64a5.11,5.11,0,0,1-4.91-5.21,5.16,5.16,0,0,1,5.35-4.94,5.08,5.08,0,0,1-.44,10.15ZM16.5,19.4a3.07,3.07,0,0,0,2.9,3.29,3.14,3.14,0,0,0,3.27-2.94,3.05,3.05,0,0,0-2.92-3.25A3,3,0,0,0,16.5,19.4Z"/></g></g></svg>