<svg xmlns="http://www.w3.org/2000/svg" viewBox="0 0 31.66 36.26"><defs><style>.cls-1{fill:#4d4d4d;}.cls-2{fill:#fff;}.cls-3{fill:#333;}</style></defs><title>Asset 123</title><g id="Layer_2" data-name="Layer 2"><g id="Pestañas"><path class="cls-1" d="M0,18.17c0-2.85,0-5.7,0-8.55a.9.9,0,0,1,.51-.91Q7.92,4.47,15.31.18a.87.87,0,0,1,1,0c4.94,2.87,9.9,5.72,14.85,8.6a1.07,1.07,0,0,1,.45.75q0,8.62,0,17.25a1.14,1.14,0,0,1-.45.77q-7.44,4.35-14.91,8.63a1,1,0,0,1-.88,0c-5-2.85-9.95-5.73-14.94-8.58A.84.84,0,0,1,0,26.72q0-4.27,0-8.55Zm16.38-1,.58-.28,9.26-5.35c1.26-.72,2.51-1.46,3.82-2.22l-.86-.52q-6-3.43-11.93-6.87c-.35-.2-.67-.58-1.15-.18a.65.65,0,0,1-.62,0c-.37-.34-.63-.06-.91.1L5.76,6.93,1.68,9.3c.18.13.3.24.44.32l13.31,7.67a.68.68,0,0,0,1-.16Zm-1.11,17.7c0-.27.05-.41.05-.54,0-5.1,0-10.21,0-15.31a.9.9,0,0,0-.57-.87c-4.32-2.48-8.62-5-12.93-7.46-.2-.12-.41-.22-.7-.36,0,.29,0,.49,0,.69,0,5,0,10.06,0,15.09a.91.91,0,0,0,.54.9c2,1.11,3.94,2.26,5.91,3.39ZM30.61,10.28c-.22.11-.33.15-.43.21-4.45,2.57-8.9,5.16-13.36,7.71a.85.85,0,0,0-.43.88V34.84c.19-.09.28-.12.36-.17q6.7-3.87,13.41-7.77a1.2,1.2,0,0,0,.44-.85c0-2.85,0-5.7,0-8.55Z"/><path class="cls-2" d="M15.26,34.86,7.52,30.39c-2-1.13-3.94-2.28-5.91-3.39a.91.91,0,0,1-.54-.9c0-5,0-10.06,0-15.09,0-.2,0-.4.05-.69.29.14.5.24.7.36l12.92,7.46a.9.9,0,0,1,.58.87c0,5.1,0,10.21,0,15.31C15.3,34.45,15.28,34.59,15.26,34.86ZM4.09,24.31l.54.92,1.08-.65-.54-.89ZM6.81,24l1.07-.62-.52-.92-1.08.63Zm3.84-3.44.51.92,1.1-.63-.55-.9Zm3.26-1.88-1.09.63.54.92,1.08-.63ZM9,22.7l1.08-.62-.53-.91-1.08.63ZM2.45,26.49l1.07-.65L3,25l-1.07.62Z"/><path class="cls-2" d="M30.59,10.28V17.5c0,2.85,0,5.7,0,8.55a1.16,1.16,0,0,1-.43.85q-6.69,3.92-13.41,7.77c-.08,0-.17.08-.36.17V19.08a.85.85,0,0,1,.43-.88c4.46-2.55,8.91-5.14,13.36-7.71C30.26,10.43,30.37,10.39,30.59,10.28ZM29.21,26.47l.52-.92-1.09-.61-.52.92ZM18.29,20.19l.52-.93-1.08-.62-.53.91Zm3.8,1-.51.92,1.06.62.54-.9Zm5.46,3.15-1.08-.62-.54.91,1.08.63ZM21,20.53l-1.09-.62-.52.91,1.08.62Zm4.36,2.52-1.09-.64-.51.93,1.09.61Z"/><path class="cls-2" d="M16.39,17.13a.66.66,0,0,1-1,.16L2.1,9.62c-.14-.08-.26-.19-.44-.32L5.74,6.93l8.82-5.11c.28-.16.53-.44.91-.1a.65.65,0,0,0,.62,0c.48-.4.8,0,1.14.18q6,3.42,11.94,6.87l.86.52c-1.31.76-2.56,1.5-3.82,2.22l-9.27,5.35c-.18.1-.38.18-.57.28V15.87h-1v1.19Zm-1.05-14V4.29h1V3.08Zm1,2.59h-1V6.83h1Zm-1,3.68h1V8.19h-1Zm1,4h-1v1.18h1Zm0-2.56h-1v1.17h1Z"/><path class="cls-3" d="M4.1,24.31l1.08-.62.53.89-1.07.65Z"/><path class="cls-3" d="M6.82,24l-.54-.91,1.09-.63.52.92Z"/><path class="cls-3" d="M10.66,20.52l1.06-.61.54.9-1.09.63Z"/><path class="cls-3" d="M13.91,18.64l.53.92-1.07.63-.54-.92Z"/><path class="cls-3" d="M9,22.7l-.53-.9,1.08-.63.53.91Z"/><path class="cls-3" d="M2.45,26.49l-.53-.92L3,25l.53.89Z"/><path class="cls-3" d="M29.21,26.47l-1.08-.61.52-.92,1.09.61Z"/><path class="cls-3" d="M18.3,20.19l-1.09-.64.53-.91,1.08.62Z"/><path class="cls-3" d="M22.1,21.15l1.09.64-.54.9-1.06-.62Z"/><path class="cls-3" d="M27.56,24.3l-.54.92-1.08-.63.54-.91Z"/><path class="cls-3" d="M21,20.53l-.54.91-1.07-.62.52-.91Z"/><path class="cls-3" d="M25.37,23.05l-.52.9-1.08-.61.51-.93Z"/><path class="cls-3" d="M15.35,3.08h1V4.29h-1Z"/><path class="cls-3" d="M16.35,5.67V6.83h-1V5.67Z"/><path class="cls-3" d="M15.33,9.35V8.19h1V9.35Z"/><path class="cls-3" d="M16.4,17.13l-1-.07V15.87h1v1.29Z"/><path class="cls-3" d="M16.36,13.31v1.18h-1V13.31Z"/><path class="cls-3" d="M16.36,10.75v1.17h-1V10.75Z"/></g></g></svg>