<svg xmlns="http://www.w3.org/2000/svg" viewBox="0 0 32.05 32"><defs><style>.cls-1{fill:#f27c38;}.cls-2{fill:#f45a2a;}</style></defs><title>full</title><g id="Layer_2" data-name="Layer 2"><g id="Pestañas"><path class="cls-1" d="M13.56,11.65l-1.82,1.79L3.18,4.83,3,4.9v5.76H.56V.55H10.69V3H4.88Z"/><path class="cls-2" d="M11.74,14a.54.54,0,0,1-.39-.16L3.58,6v4.65a.55.55,0,0,1-.55.55H.56A.55.55,0,0,1,0,10.66V.55A.55.55,0,0,1,.56,0H10.69a.55.55,0,0,1,.55.55V3a.55.55,0,0,1-.55.55H6.22L14,11.26a.51.51,0,0,1,.16.39A.55.55,0,0,1,14,12l-1.82,1.8A.58.58,0,0,1,11.74,14ZM3.18,4.27a.56.56,0,0,1,.4.17l8.16,8.22,1-1L4.49,3.36a.55.55,0,0,1,.39-.94h5.26V1.11h-9v9H2.48V4.9a.56.56,0,0,1,.31-.5l.15-.07A.53.53,0,0,1,3.18,4.27Z"/><path class="cls-1" d="M20.38,13.55l-1.81-1.81L27.29,3H21.37V.55H31.5V10.66H29.05V4.82Z"/><path class="cls-2" d="M20.38,14.1a.59.59,0,0,1-.39-.16l-1.81-1.81a.56.56,0,0,1,0-.78L26,3.55H21.37A.54.54,0,0,1,20.82,3V.55A.55.55,0,0,1,21.37,0H31.5a.55.55,0,0,1,.55.55V10.66a.55.55,0,0,1-.55.55H29.05a.55.55,0,0,1-.55-.55V6.17l-7.72,7.77a.59.59,0,0,1-.39.16Zm-1-2.36,1,1,8.28-8.33a.54.54,0,0,1,.94.38v5.29H31v-9h-9V2.45h5.37a.55.55,0,0,1,.39.94Z"/><path class="cls-1" d="M10.7,29v2.45H.55V21.34H3v5.85l8.66-8.71,1.75,1.85L4.76,29Z"/><path class="cls-2" d="M10.7,32H.55A.55.55,0,0,1,0,31.44V21.34a.55.55,0,0,1,.55-.55H3a.55.55,0,0,1,.55.55v4.51l7.71-7.76a.57.57,0,0,1,.4-.16.54.54,0,0,1,.4.17L13.81,20a.56.56,0,0,1,0,.77L6.09,28.44H10.7a.55.55,0,0,1,.55.55v2.45A.54.54,0,0,1,10.7,32Zm-9.59-1.1h9V29.55H4.76a.56.56,0,0,1-.39-.95l8.27-8.28-1-1.05L3.39,27.58a.54.54,0,0,1-.6.12.53.53,0,0,1-.34-.51v-5.3H1.11Z"/><path class="cls-1" d="M18.49,20.35l1.84-1.85L29,27.23V21.34H31.5V31.45H21.36V29h5.8Z"/><path class="cls-2" d="M31.5,32H21.36a.55.55,0,0,1-.55-.55V29a.56.56,0,0,1,.55-.56h4.46l-7.73-7.73a.56.56,0,0,1,0-.78l1.85-1.85a.52.52,0,0,1,.39-.17h0a.52.52,0,0,1,.39.17l7.75,7.78V21.34a.55.55,0,0,1,.55-.55H31.5a.55.55,0,0,1,.55.55V31.45A.55.55,0,0,1,31.5,32Zm-9.59-1.11h9v-9H29.58v5.33a.56.56,0,0,1-.35.51.54.54,0,0,1-.6-.12l-8.3-8.34-1.06,1.07,8.28,8.28a.56.56,0,0,1-.39.95H21.91Z"/></g></g></svg>