<svg xmlns="http://www.w3.org/2000/svg" viewBox="0 0 33.81 33.81"><defs><style>.cls-1{fill:#4d4d4d;}</style></defs><title>Asset 114</title><g id="Layer_2" data-name="Layer 2"><g id="Barra_iconos" data-name="Barra iconos"><polygon class="cls-1" points="15.02 19.74 18.46 19.74 18.46 19.1 15.45 19.1 15.02 19.74"/><polygon class="cls-1" points="15.23 20.39 14.59 21.25 14.59 21.46 14.8 21.46 14.8 22.54 15.23 22.54 15.23 23.39 16.52 23.39 16.52 24.47 18.03 24.47 18.03 22.11 18.46 21.68 18.46 21.03 18.03 20.39 15.23 20.39"/><polygon class="cls-1" points="24.25 22.11 23.82 22.11 24.04 21.25 23.82 21.03 22.96 21.03 22.54 21.25 22.54 23.61 23.18 24.25 24.9 24.25 24.9 23.82 24.25 23.82 24.25 22.11"/><path class="cls-1" d="M16.9,0A16.91,16.91,0,1,0,33.81,16.9,16.92,16.92,0,0,0,16.9,0Zm0,32.39A15.46,15.46,0,0,1,5.65,27.51l.14-.25,3.43-.65v-1.5H9V23.82H8.58V22.11l1.29-3.87V16.31h.21v1.93l1.29,3.87v1.71h-.43v1.72h.86V23.82h.43V19.74H11.8v-.43l1.72-6V10.94h.21V13.3L15.23,18h3.23v-.65l1.07-1.5v-1.5l-.86-1.29H18l-.65.86-.21,1.71H17L16.74,14l-.86-1.51V11.37h-.43l1.5-3V6.86h.22v1.5l1.07,3H17.6v1.07h1.5V11.37h-.43l1.72-4.94V5.14h.43V6.43l1.82,4.83h-.86v1.29h.43v1.29l-.64.64v1.29l1.07,1.5v3h1.72l1.29-4.51V13.2h.43v2.57l1.72,5.37v1.07h-.65v1.51h-.64v.43l1.29,1.71,1.5-2.57.93,1.46A15.49,15.49,0,0,1,16.9,32.39Z"/></g></g></svg>