<?xml version="1.0" encoding="utf-8"?>
<!-- Generator: Adobe Illustrator 22.1.0, SVG Export Plug-In . SVG Version: 6.00 Build 0)  -->
<svg version="1.1" id="Layer_1" xmlns="http://www.w3.org/2000/svg" xmlns:xlink="http://www.w3.org/1999/xlink" x="0px" y="0px"
	 viewBox="0 0 33.8 33.8" style="enable-background:new 0 0 33.8 33.8;" xml:space="preserve">
<style type="text/css">
	.st0{fill-rule:evenodd;clip-rule:evenodd;fill:#363636;}
</style>
<title>Asset 114</title>
<g>
	<path class="st0" d="M32.8,16.9c0-2.8-0.7-5.5-2-7.8c-0.2-0.4-0.5-0.8-0.8-1.3c-2.8-4-7.3-6.6-12.4-6.8c-0.2,0-0.4,0-0.7,0
		C12.6,1,8.7,2.8,5.8,5.6C2.8,8.5,1,12.5,1,16.9c0,8.8,7.1,15.9,15.9,15.9S32.8,25.7,32.8,16.9z M32,16.9C32,25.2,25.2,32,16.9,32
		S1.8,25.2,1.8,16.9c0-4.4,1.9-8.4,5-11.2l6.6,0.9V20h-0.5v0.8h3.3V20h-0.5V7l0.7,0.1v5.4h1.5V11h1.5v1.5H21V11h1.5v1.5H24V11h1.5
		v1.5H27V11h1.5v1.5H30V9.4C31.2,11.6,32,14.2,32,16.9z"/>
	<polygon class="st0" points="26.9,19.7 23.5,22.3 23.5,25.1 22.9,25.1 22.9,22.3 19.5,19.7 18.6,19.7 18.6,19 27.8,19 27.8,19.7 	
		"/>
	<polygon class="st0" points="19.1,18.1 19.1,17.5 20,16.5 20,13.6 26.4,13.6 26.4,16.5 27.3,17.5 27.3,18.1 	"/>
	<polygon class="st0" points="16.7,21.7 12.4,21.7 14.2,25.1 14.2,27.9 14.9,27.9 14.9,25.1 	"/>
</g>
</svg>
