<svg xmlns="http://www.w3.org/2000/svg" xmlns:xlink="http://www.w3.org/1999/xlink" viewBox="0 0 34.39 31.31"><defs><style>.cls-1{fill:url(#linear-gradient);}.cls-2{fill:#134f2e;}</style><linearGradient id="linear-gradient" x1="0.75" y1="15.55" x2="33.64" y2="15.55" gradientUnits="userSpaceOnUse"><stop offset="0" stop-color="#2fb06d"/><stop offset="1" stop-color="#1f7448"/></linearGradient></defs><title>Asset 112</title><g id="Layer_2" data-name="Layer 2"><g id="Pestañas"><path class="cls-1" d="M17.18,30.34l-5.55-5.52L3.53,16.7A9.33,9.33,0,0,1,10.67.76a9.22,9.22,0,0,1,5.68,2.41C15,4.34,13.76,5.48,12.49,6.63c-.91.81-.85,1.12.28,1.62l5.63,2.51-.53.59c-1.22,1.24-2.46,2.47-3.64,3.74A1,1,0,0,0,14,16c.3.41.68.17,1-.14,1.53-1.56,3.07-3.11,4.59-4.68.59-.61.52-.9-.27-1.26l-5-2.27c-.23-.1-.46-.22-1-.47A4,4,0,0,0,14,6.82c1.51-1.35,3-2.75,4.53-4.06a9.33,9.33,0,0,1,12.31,14c-4.42,4.55-9,9-13.45,13.47Z"/><path class="cls-2" d="M17.09,31.31,15,29.22,11.1,25.35,3,17.23A10.07,10.07,0,0,1,10.71,0a9.84,9.84,0,0,1,6.14,2.59l.35.3c.27-.24.55-.49.83-.72A10.11,10.11,0,0,1,34.36,9.38a10.21,10.21,0,0,1-3,7.88c-3.1,3.19-6.3,6.37-9.4,9.44l-4.06,4a1.31,1.31,0,0,1-.22.17ZM10.14,1.5A8.68,8.68,0,0,0,2.22,6.65a8.58,8.58,0,0,0,1.84,9.52l8.1,8.12,3.89,3.86,1.16,1.16,3.7-3.67c3.1-3.07,6.3-6.25,9.38-9.42a8.77,8.77,0,0,0,2.58-6.74A8.62,8.62,0,0,0,19,3.33C18,4.16,17.06,5,16.12,5.9l-1.3,1.18,1.65.74,3.17,1.43c.29.13,1,.43,1.08,1.08a1.62,1.62,0,0,1-.58,1.38L17,14.88,15.55,16.4a1.6,1.6,0,0,1-1.24.57,1.2,1.2,0,0,1-.89-.52,1.68,1.68,0,0,1,.26-1.87c.86-.92,1.75-1.82,2.63-2.72l.83-.84L12.47,8.94c-.6-.27-1.24-.6-1.35-1.27A1.9,1.9,0,0,1,12,6.07l2.76-2.48.45-.39a8.3,8.3,0,0,0-4.58-1.69Z"/></g></g></svg>