<svg xmlns="http://www.w3.org/2000/svg" viewBox="0 0 19.28 36"><defs><style>.cls-1{fill:#4d4d4d;}</style></defs><title>Asset 112</title><g id="Layer_2" data-name="Layer 2"><g id="Barra_iconos" data-name="Barra iconos"><path class="cls-1" d="M19.28,21.85A1.36,1.36,0,0,0,18,20.47c-2.92-.68-5.83-1.37-8.75-2-.45-.1-.64-.24-.68-.67-.22-2.58-.53-5.14-.72-7.72C7.66,6.88,7,3.72,7.18.53a.19.19,0,0,0,0-.13L7,0c-.15.1-.4.2-.42.31a14.49,14.49,0,0,0-.09,1.74c0,.66.08,1.32.13,2l-1,0V.43c-.73,0-.75.48-.74.87,0,1,.11,1.94.17,2.93l-5,1A16.35,16.35,0,0,0,0,7a.83.83,0,0,0,.43.56c1.12.46,2.25.88,3.39,1.28a.57.57,0,0,1,.46.64c-.15,4.06-.18,8.13-.47,12.19A3.39,3.39,0,0,0,5.5,25.18a1,1,0,0,1,.48,1c0,2.52,0,5,0,7.56,0,.64.22,1,1.09,1a4.6,4.6,0,0,0,.25-1.05c0-1.93,0-3.87,0-5.8V25.79a6.06,6.06,0,0,0,.67.12c.81,0,1,.37,1,1.09-.07,1.5,0,3,0,4.51a.71.71,0,0,0,.33.56c.58.28,1,0,1-.68,0-.85,0-1.71,0-2.56v-2.4l4.25,1c0,2.81,0,5.57,0,8.34,1.11.46,1.37.32,1.37-.73V28.44c0-.9.21-1.16,1.3-1.56v5.37c0,.84,0,.84,1.11,1a6.58,6.58,0,0,0,.22-1.09c0-1.52,0-3,0-4.57,0-.43-.13-.9.53-1.12.1,0,.14-.32.14-.48C19.28,24.57,19.28,23.21,19.28,21.85ZM4.48,6.67a.91.91,0,0,1-1-.85.91.91,0,0,1,1-.85.92.92,0,0,1,1,.85A.92.92,0,0,1,4.48,6.67Z"/></g></g></svg>