<svg xmlns="http://www.w3.org/2000/svg" viewBox="0 0 36.99 36.06"><defs><style>.cls-1{fill:#f45a2a;}.cls-2{fill:#f27c38;}</style></defs><title>Asset 106</title><g id="Layer_2" data-name="Layer 2"><g id="Pestañas"><path class="cls-1" d="M13.62,36V12h9.75V36Z"/><path class="cls-2" d="M23,12.39V35.55H14V12.39H23m.42-.41H13.62V36h9.75V12Z"/><path class="cls-2" d="M0,36V18.6H9.81c0,.24,0,.48,0,.73,0,5.31,0,10.61,0,15.92,0,.66-.19.81-.81.81-2.76,0-5.52,0-8.28,0Z"/><path class="cls-1" d="M9.41,19c0,.1,0,.21,0,.31v4.2c0,3.84,0,7.82,0,11.73,0,.28,0,.34,0,.34s-.05,0-.32,0H9l-3.88,0H.42V19h9m.4-.42H0V36H5.16c1.29,0,2.58,0,3.88,0h0c.6,0,.79-.17.78-.81,0-5.31,0-10.61,0-15.92,0-.25,0-.49,0-.73Z"/><path class="cls-2" d="M27.24,25.16H37V36H27.24Z"/><path class="cls-1" d="M36.57,25.58v10H27.66v-10h8.91m.42-.42H27.24V36H37V25.16Z"/><path class="cls-1" d="M15.36,9.56c.16-1.05.25-1.89.44-2.71a1.26,1.26,0,0,0-.44-1.4c-.64-.55-1.23-1.16-1.84-1.75l.09-.21c.81-.12,1.62-.29,2.43-.35a1.34,1.34,0,0,0,1.29-.93C17.63,1.45,18,.74,18.4,0h.21c.34.67.73,1.32,1,2a1.55,1.55,0,0,0,1.58,1.15,23.6,23.6,0,0,1,2.44.37c-.75.74-1.31,1.38-2,1.92a1.23,1.23,0,0,0-.45,1.39c.19.82.29,1.67.46,2.72-.94-.49-1.7-.85-2.42-1.28a1.25,1.25,0,0,0-1.47,0C17.08,8.72,16.3,9.06,15.36,9.56Z"/><path class="cls-2" d="M18.51.71l0,.1a12,12,0,0,1,.66,1.35,2,2,0,0,0,2,1.42,11.71,11.71,0,0,1,1.52.21l.08,0-.1.1c-.45.46-.84.86-1.27,1.22a1.66,1.66,0,0,0-.59,1.8c.13.55.21,1.11.31,1.76l0,.12L21,8.76c-.58-.3-1.08-.55-1.57-.84a1.79,1.79,0,0,0-1-.3,1.68,1.68,0,0,0-.94.3c-.47.29-1,.54-1.56.83l-.12.07,0-.13c.09-.64.17-1.2.3-1.75a1.65,1.65,0,0,0-.58-1.81c-.44-.37-.86-.79-1.27-1.19l-.13-.12.18,0a15.76,15.76,0,0,1,1.66-.23,1.75,1.75,0,0,0,1.64-1.19c.21-.51.47-1,.72-1.52l.08-.14M18.4,0c-.36.74-.77,1.45-1.07,2.21A1.34,1.34,0,0,1,16,3.14c-.81.06-1.62.23-2.43.35l-.09.21c.61.59,1.2,1.2,1.84,1.75a1.26,1.26,0,0,1,.44,1.4c-.19.82-.28,1.66-.44,2.71.94-.5,1.72-.84,2.43-1.29A1.37,1.37,0,0,1,18.51,8a1.48,1.48,0,0,1,.75.25c.72.43,1.48.79,2.42,1.28-.17-1.05-.27-1.9-.46-2.72a1.23,1.23,0,0,1,.45-1.39c.65-.54,1.21-1.18,2-1.92a23.6,23.6,0,0,0-2.44-.37A1.55,1.55,0,0,1,19.61,2c-.27-.69-.66-1.34-1-2Z"/></g></g></svg>