<?xml version="1.0" encoding="utf-8"?>
<!-- Generator: Adobe Illustrator 22.1.0, SVG Export Plug-In . SVG Version: 6.00 Build 0)  -->
<svg version="1.1" id="Layer_1" xmlns="http://www.w3.org/2000/svg" xmlns:xlink="http://www.w3.org/1999/xlink" x="0px" y="0px"
	 viewBox="0 0 37 36.1" style="enable-background:new 0 0 37 36.1;" xml:space="preserve">
<style type="text/css">
	.st0{fill:#263270;}
	.st1{fill:#344694;}
	.st2{fill:url(#SVGID_1_);}
	.st3{fill:url(#SVGID_2_);}
</style>
<title>Asset 106</title>
<path class="st0" d="M13.6,36V12h9.7v24H13.6z"/>
<path class="st1" d="M23,12.4v23.2h-9V12.4H23 M23.4,12h-9.8v24h9.7L23.4,12L23.4,12z"/>
<linearGradient id="SVGID_1_" gradientUnits="userSpaceOnUse" x1="0" y1="27.33" x2="9.81" y2="27.33">
	<stop  offset="0" style="stop-color:#344694"/>
	<stop  offset="1" style="stop-color:#263270"/>
</linearGradient>
<path class="st2" d="M0,36V18.6h9.8c0,0.2,0,0.5,0,0.7c0,5.3,0,10.6,0,15.9c0,0.7-0.2,0.8-0.8,0.8c-2.8,0-5.5,0-8.3,0L0,36z"/>
<path class="st0" d="M9.4,19c0,0.1,0,0.2,0,0.3v4.2c0,3.8,0,7.8,0,11.7c0,0.3,0,0.3,0,0.3s-0.1,0-0.3,0H9H5.1H0.4V19H9.4 M9.8,18.6
	H0V36h5.2c1.3,0,2.6,0,3.9,0l0,0c0.6,0,0.8-0.2,0.8-0.8c0-5.3,0-10.6,0-15.9C9.8,19,9.8,18.8,9.8,18.6L9.8,18.6z"/>
<linearGradient id="SVGID_2_" gradientUnits="userSpaceOnUse" x1="27.24" y1="30.58" x2="37" y2="30.58">
	<stop  offset="0" style="stop-color:#344694"/>
	<stop  offset="1" style="stop-color:#263270"/>
</linearGradient>
<path class="st3" d="M27.2,25.2H37V36h-9.8V25.2z"/>
<path class="st0" d="M36.6,25.6v10h-8.9v-10L36.6,25.6 M37,25.2h-9.7V36H37L37,25.2L37,25.2z"/>
<path class="st0" d="M15.4,9.6c0.2-1.1,0.2-1.9,0.4-2.7c0.2-0.5,0-1.1-0.4-1.4c-0.6-0.6-1.2-1.2-1.8-1.8l0.1-0.2
	c0.8-0.1,1.6-0.3,2.4-0.3c0.6,0,1.1-0.4,1.3-0.9C17.6,1.5,18,0.7,18.4,0h0.2c0.3,0.7,0.7,1.3,1,2c0.2,0.7,0.8,1.2,1.6,1.2
	c0.8,0.1,1.6,0.2,2.4,0.4c-0.8,0.7-1.3,1.4-2,1.9c-0.4,0.3-0.6,0.9-0.5,1.4c0.2,0.8,0.3,1.7,0.5,2.7c-0.9-0.5-1.7-0.9-2.4-1.3
	c-0.4-0.3-1-0.3-1.5,0C17.1,8.7,16.3,9.1,15.4,9.6z"/>
<path class="st1" d="M18.5,0.7v0.1c0.2,0.4,0.5,0.9,0.7,1.4c0.3,0.9,1.1,1.5,2,1.4c0.5,0,1,0.1,1.5,0.2h0.1l-0.1,0.1
	c-0.5,0.5-0.8,0.9-1.3,1.2c-0.6,0.4-0.8,1.1-0.6,1.8C20.9,7.5,21,8,21.1,8.7v0.1l-0.1,0c-0.6-0.3-1.1-0.6-1.6-0.8
	c-0.3-0.2-0.6-0.3-1-0.3c-0.3,0-0.7,0.1-0.9,0.3c-0.5,0.3-1,0.5-1.6,0.8l-0.1,0.1V8.7C15.9,8,16,7.5,16.1,6.9c0.2-0.7,0-1.4-0.6-1.8
	c-0.4-0.4-0.9-0.8-1.3-1.2l-0.1-0.1h0.2c0.5-0.1,1.1-0.2,1.7-0.2c0.7,0,1.4-0.5,1.6-1.2c0.2-0.5,0.5-1,0.7-1.5l0.1-0.1 M18.4,0
	c-0.4,0.7-0.8,1.5-1.1,2.2c-0.2,0.6-0.7,1-1.3,0.9c-0.8,0.1-1.6,0.2-2.4,0.3l-0.1,0.2c0.6,0.6,1.2,1.2,1.8,1.7
	c0.4,0.3,0.6,0.9,0.4,1.4c-0.2,0.8-0.3,1.7-0.4,2.7c0.9-0.5,1.7-0.8,2.4-1.3C18,8.1,18.2,8,18.5,8c0.3,0,0.5,0.1,0.8,0.2
	C20,8.7,20.7,9,21.7,9.5c-0.2-1.1-0.3-1.9-0.5-2.7c-0.2-0.5,0-1.1,0.5-1.4c0.6-0.5,1.2-1.2,2-1.9c-0.8-0.2-1.6-0.3-2.4-0.4
	c-0.7,0.1-1.4-0.4-1.6-1.1c-0.3-0.7-0.7-1.3-1-2H18.4z"/>
</svg>
