<svg xmlns="http://www.w3.org/2000/svg" viewBox="0 0 40.14 22.14"><defs><style>.cls-1{fill:#f27c38;}.cls-2{fill:#f45a2a;}</style></defs><title>Asset 111</title><g id="Layer_2" data-name="Layer 2"><g id="Pestañas"><path class="cls-1" d="M3.55,6.59V2.24c0-1.17.52-1.71,1.7-1.72,1.8,0,3.61,0,5.42,0,1.19,0,1.69.52,1.7,1.7,0,1.41,0,2.82,0,4.3H15.7c0-1.37,0-2.74,0-4.11S16.14.52,17.55.52q2.58,0,5.16,0c1.31,0,1.8.49,1.81,1.78s0,2.76,0,4.21h3.27c0-1.39,0-2.76,0-4.13S28.28.53,29.61.52q2.63,0,5.25,0c1.25,0,1.74.5,1.75,1.74,0,1.41,0,2.82,0,4.32.55,0,1,0,1.49,0a1.36,1.36,0,0,1,1.52,1.52q0,6,0,12a1.36,1.36,0,0,1-1.54,1.49H2a1.35,1.35,0,0,1-1.5-1.45q0-6.06,0-12.11A1.38,1.38,0,0,1,1.94,6.59C2.44,6.56,2.94,6.59,3.55,6.59Z"/><path class="cls-2" d="M20.56,22.14H2a1.85,1.85,0,0,1-2-2c0-3.75,0-7.71,0-12.11a1.88,1.88,0,0,1,1.9-2c.35,0,.71,0,1.09,0H3V2.24A2,2,0,0,1,5.24,0h5.43a2,2,0,0,1,2.21,2.21c0,1,0,1.95,0,3V6h2.31V2.4C15.19.69,15.85,0,17.55,0h5.17C24.3,0,25,.72,25,2.3V6h2.25V2.37C27.28.75,28,0,29.61,0h5.25a2,2,0,0,1,2.26,2.25V6.07h1a1.86,1.86,0,0,1,2,2c0,3.76,0,7.7,0,12a1.86,1.86,0,0,1-2.05,2Zm-18-15H2a.88.88,0,0,0-.94,1c0,4.4,0,8.36,0,12.1,0,.65.32,1,1,1H38.08c.72,0,1-.3,1-1,0-4.32,0-8.25,0-12,0-.72-.27-1-1-1h-2V6.58c0-.46,0-.92,0-1.36,0-1,0-2,0-2.95S35.83,1,34.85,1c-1.57,0-3.29,0-5.24,0-1.05,0-1.31.27-1.31,1.35s0,1.92,0,2.88V7H24V5.2c0-1,0-1.94,0-2.9S23.74,1,22.71,1c-1.54,0-3.23,0-5.16,0-1.13,0-1.34.22-1.34,1.38,0,.95,0,1.91,0,2.87V7H11.87V5.19c0-1,0-2,0-3S11.58,1,10.66,1C8.74,1,7,1,5.25,1c-.88,0-1.19.31-1.19,1.21V7.1H2.51Z"/></g></g></svg>