<svg xmlns="http://www.w3.org/2000/svg" xmlns:xlink="http://www.w3.org/1999/xlink" viewBox="0 0 30.65 30.47"><defs><style>.cls-1{fill:url(#linear-gradient);}.cls-2{fill:#f45a2a;}.cls-3{fill:url(#linear-gradient-2);}.cls-4{fill:url(#linear-gradient-3);}.cls-5{fill:url(#linear-gradient-4);}.cls-6{fill:url(#linear-gradient-5);}.cls-7{fill:url(#linear-gradient-6);}.cls-8{fill:url(#linear-gradient-7);}.cls-9{fill:url(#linear-gradient-8);}.cls-10{fill:url(#linear-gradient-9);}</style><linearGradient id="linear-gradient" x1="21.53" y1="15.24" x2="30.65" y2="15.24" gradientUnits="userSpaceOnUse"><stop offset="0" stop-color="#f27c38"/><stop offset="1" stop-color="#f45a2a"/></linearGradient><linearGradient id="linear-gradient-2" x1="0" y1="15.24" x2="9.12" y2="15.24" xlink:href="#linear-gradient"/><linearGradient id="linear-gradient-3" x1="21.53" y1="4.55" x2="30.65" y2="4.55" xlink:href="#linear-gradient"/><linearGradient id="linear-gradient-4" x1="0" y1="4.55" x2="9.12" y2="4.55" xlink:href="#linear-gradient"/><linearGradient id="linear-gradient-5" x1="0" y1="25.99" x2="9.12" y2="25.99" xlink:href="#linear-gradient"/><linearGradient id="linear-gradient-6" x1="21.53" y1="25.99" x2="30.65" y2="25.99" xlink:href="#linear-gradient"/><linearGradient id="linear-gradient-7" x1="10.85" y1="15.24" x2="19.8" y2="15.24" xlink:href="#linear-gradient"/><linearGradient id="linear-gradient-8" x1="10.84" y1="4.55" x2="19.8" y2="4.55" xlink:href="#linear-gradient"/><linearGradient id="linear-gradient-9" x1="10.84" y1="25.99" x2="19.8" y2="25.99" xlink:href="#linear-gradient"/></defs><title>Asset 101</title><g id="Layer_2" data-name="Layer 2"><g id="Pestañas"><path class="cls-1" d="M26.09,19.79a4.58,4.58,0,0,1-4.56-4.58,4.69,4.69,0,0,1,4.59-4.53,4.6,4.6,0,0,1,4.53,4.56A4.5,4.5,0,0,1,26.09,19.79Z"/><path class="cls-2" d="M26.1,10.68v.5a4.08,4.08,0,0,1,4,4.06A4,4,0,0,1,29,18.12a4.09,4.09,0,0,1-5.76,0A4,4,0,0,1,22,15.22a4.18,4.18,0,0,1,4.07-4v-.5m0,0a4.69,4.69,0,0,0-4.57,4.53,4.58,4.58,0,0,0,4.56,4.58h0a4.51,4.51,0,0,0,4.56-4.55,4.6,4.6,0,0,0-4.53-4.56Z"/><path class="cls-3" d="M4.56,19.79A4.5,4.5,0,0,1,0,15.25a4.59,4.59,0,0,1,4.53-4.57,4.69,4.69,0,0,1,4.59,4.53A4.58,4.58,0,0,1,4.56,19.79Z"/><path class="cls-2" d="M4.55,10.68v.5a4.17,4.17,0,0,1,4.07,4,4.08,4.08,0,0,1-4.07,4.08,4,4,0,0,1-4-4,4.12,4.12,0,0,1,4-4.06l0-.5m0,0h0A4.59,4.59,0,0,0,0,15.25a4.49,4.49,0,0,0,4.55,4.54h0a4.58,4.58,0,0,0,4.56-4.58,4.69,4.69,0,0,0-4.57-4.53Z"/><path class="cls-4" d="M26.08,0a4.5,4.5,0,0,1,4.57,4.5A4.61,4.61,0,0,1,26.1,9.11a4.7,4.7,0,0,1-4.57-4.57A4.58,4.58,0,0,1,26.08,0Z"/><path class="cls-2" d="M26.09,0V.5a4,4,0,0,1,4.06,4A4.11,4.11,0,0,1,29,7.41a4,4,0,0,1-2.85,1.2,4.09,4.09,0,0,1-2.85-1.23A4.1,4.1,0,0,1,22,4.54a4.06,4.06,0,0,1,4-4V0m0,0h0a4.58,4.58,0,0,0-4.55,4.54A4.69,4.69,0,0,0,26.1,9.11,4.61,4.61,0,0,0,30.65,4.5,4.5,4.5,0,0,0,26.09,0Z"/><path class="cls-5" d="M4.53,0A4.58,4.58,0,0,1,9.12,4.56,4.69,4.69,0,0,1,4.59,9.11,4.61,4.61,0,0,1,0,4.54,4.5,4.5,0,0,1,4.53,0Z"/><path class="cls-2" d="M4.55,0V.5A4.07,4.07,0,0,1,8.62,4.56,4.2,4.2,0,0,1,4.54,8.61a4.12,4.12,0,0,1-4-4.07,4,4,0,0,1,4-4l0-.5m0,0h0A4.5,4.5,0,0,0,0,4.54,4.61,4.61,0,0,0,4.54,9.11h0A4.69,4.69,0,0,0,9.12,4.56,4.58,4.58,0,0,0,4.55,0Z"/><path class="cls-6" d="M4.54,21.51a4.48,4.48,0,1,1,.07,9,4.48,4.48,0,1,1-.07-9Z"/><path class="cls-2" d="M4.56,21.51V22a4,4,0,0,1,4.06,3.84A4,4,0,0,1,4.56,30a4,4,0,1,1,0-8l0-.5m0,0h0a4.48,4.48,0,1,0,0,9h.05a4.48,4.48,0,1,0-.05-9Z"/><path class="cls-7" d="M26.17,21.51a4.48,4.48,0,1,1-.24,9,4.48,4.48,0,1,1,.24-9Z"/><path class="cls-2" d="M26.06,22h.1a4,4,0,1,1-.1,8H26a4,4,0,0,1,.11-8m0-.5a4.48,4.48,0,0,0-.13,9h.13a4.48,4.48,0,1,0,.11-9Z"/><path class="cls-8" d="M19.8,15.29a4.48,4.48,0,1,1-9-.07,4.48,4.48,0,1,1,9,.07Z"/><path class="cls-2" d="M15.27,10.68l.05.5a4,4,0,0,1,4,4.1,4,4,0,0,1-4.09,4,3.93,3.93,0,0,1-3.86-4.07,4.05,4.05,0,0,1,3.92-4v-.5m0,0a4.53,4.53,0,0,0-4.42,4.54,4.44,4.44,0,0,0,4.36,4.57h0a4.47,4.47,0,0,0,4.54-4.5,4.57,4.57,0,0,0-4.48-4.61Z"/><path class="cls-9" d="M10.84,4.53a4.48,4.48,0,1,1,9,0,4.58,4.58,0,0,1-4.55,4.55A4.56,4.56,0,0,1,10.84,4.53Z"/><path class="cls-2" d="M15.26.5a4,4,0,0,1,4,4.06,4.1,4.1,0,0,1-4.05,4.05,4.08,4.08,0,0,1-3.91-4.08,4.05,4.05,0,0,1,1.17-2.89A3.89,3.89,0,0,1,15.25.5h0m0-.5h0a4.45,4.45,0,0,0-4.41,4.53,4.56,4.56,0,0,0,4.41,4.58h0A4.58,4.58,0,0,0,19.8,4.56,4.47,4.47,0,0,0,15.26,0Z"/><path class="cls-10" d="M15.31,21.51a4.48,4.48,0,1,1-4.47,4.36A4.43,4.43,0,0,1,15.31,21.51Z"/><path class="cls-2" d="M15.23,22h.07a4.12,4.12,0,0,1,2.93,1.24A3.81,3.81,0,0,1,19.3,26a3.92,3.92,0,0,1-4.05,4h-.07a3.79,3.79,0,0,1-2.71-1.18,4,4,0,0,1-1.13-2.91A3.9,3.9,0,0,1,15.23,22m0-.5a4.48,4.48,0,0,0-.06,9h.08a4.48,4.48,0,1,0,.06-9Z"/></g></g></svg>