<?xml version="1.0" encoding="utf-8"?>
<!-- Generator: Adobe Illustrator 22.1.0, SVG Export Plug-In . SVG Version: 6.00 Build 0)  -->
<svg version="1.1" id="Layer_1" xmlns="http://www.w3.org/2000/svg" xmlns:xlink="http://www.w3.org/1999/xlink" x="0px" y="0px"
	 viewBox="0 0 30.6 30.5" style="enable-background:new 0 0 30.6 30.5;" xml:space="preserve">
<style type="text/css">
	.st0{fill:url(#SVGID_1_);}
	.st1{fill:#1F7448;}
	.st2{fill:url(#SVGID_2_);}
	.st3{fill:url(#SVGID_3_);}
	.st4{fill:url(#SVGID_4_);}
	.st5{fill:url(#SVGID_5_);}
	.st6{fill:url(#SVGID_6_);}
	.st7{fill:url(#SVGID_7_);}
	.st8{fill:url(#SVGID_8_);}
	.st9{fill:url(#SVGID_9_);}
</style>
<title>Asset 101</title>
<linearGradient id="SVGID_1_" gradientUnits="userSpaceOnUse" x1="21.53" y1="775.3" x2="30.6503" y2="775.3" gradientTransform="matrix(1 0 0 1 0 -760)">
	<stop  offset="0" style="stop-color:#2FB06D"/>
	<stop  offset="1" style="stop-color:#1F7448"/>
</linearGradient>
<path class="st0" d="M26.1,19.8c-2.5,0-4.6-2.1-4.6-4.6c0.1-2.5,2.1-4.5,4.6-4.5s4.5,2.1,4.5,4.6s-2,4.5-4.4,4.6
	C26.2,19.8,26.1,19.8,26.1,19.8z"/>
<g>
	<path class="st1" d="M26.1,10.7v0.5c2.2,0,4,1.8,4,4.1c0,1.1-0.4,2.1-1.1,2.9c-1.6,1.6-4.2,1.6-5.8,0c-0.8-0.8-1.2-1.8-1.2-2.9
		c0.1-2.2,1.9-3.9,4.1-4V10.7 M26.1,10.7c-2.5,0.1-4.5,2-4.6,4.5c0,2.5,2,4.6,4.6,4.6l0,0c2.5,0,4.5-2,4.6-4.5v-0.1
		C30.6,12.8,28.6,10.8,26.1,10.7L26.1,10.7z"/>
</g>
<linearGradient id="SVGID_2_" gradientUnits="userSpaceOnUse" x1="0" y1="775.25" x2="9.1202" y2="775.25" gradientTransform="matrix(1 0 0 1 0 -760)">
	<stop  offset="0" style="stop-color:#2FB06D"/>
	<stop  offset="1" style="stop-color:#1F7448"/>
</linearGradient>
<path class="st2" d="M4.6,19.8c-2.5,0-4.5-2-4.6-4.4v-0.1c0-2.5,2-4.5,4.5-4.6c2.5,0.1,4.5,2,4.6,4.5C9.1,17.7,7.1,19.8,4.6,19.8z"
	/>
<g>
	<path class="st1" d="M4.6,10.7v0.5c2.2,0.1,4,1.8,4.1,4c0,2.2-1.8,4.1-4.1,4.1c-2.2,0-4-1.8-4-4s1.8-4,4-4.1V10.7 M4.6,10.7
		L4.6,10.7c-2.5,0-4.5,2-4.6,4.5c0,2.5,2,4.5,4.4,4.5h0.1l0,0c2.5,0,4.6-2.1,4.6-4.6C9,12.7,7,10.7,4.6,10.7L4.6,10.7z"/>
</g>
<linearGradient id="SVGID_3_" gradientUnits="userSpaceOnUse" x1="21.53" y1="764.55" x2="30.65" y2="764.55" gradientTransform="matrix(1 0 0 1 0 -760)">
	<stop  offset="0" style="stop-color:#2FB06D"/>
	<stop  offset="1" style="stop-color:#1F7448"/>
</linearGradient>
<path class="st3" d="M26.1,0c2.5,0,4.5,1.9,4.6,4.4c0,0,0,0,0,0.1c0,2.5-2,4.6-4.5,4.6C23.6,9,21.6,7,21.5,4.5C21.6,2,23.6,0,26.1,0
	z"/>
<g>
	<path class="st1" d="M26.1,0v0.5c2.2,0,4,1.7,4.1,3.9c0,0,0,0,0,0.1c0,1.1-0.4,2.1-1.1,2.9c-0.8,0.8-1.8,1.2-2.9,1.2
		s-2.1-0.5-2.9-1.2C22.5,6.6,22,5.6,22,4.5c0-2.2,1.8-4,4-4L26.1,0 M26,0L26,0c-2.5,0-4.5,2-4.5,4.5C21.6,7,23.6,9,26.1,9.1
		c2.5,0,4.6-2.1,4.5-4.6c0-2.5-2-4.5-4.5-4.5C26.1,0,26.1,0,26,0L26,0z"/>
</g>
<linearGradient id="SVGID_4_" gradientUnits="userSpaceOnUse" x1="0" y1="764.55" x2="9.1202" y2="764.55" gradientTransform="matrix(1 0 0 1 0 -760)">
	<stop  offset="0" style="stop-color:#2FB06D"/>
	<stop  offset="1" style="stop-color:#1F7448"/>
</linearGradient>
<path class="st4" d="M4.5,0C7,0,9.1,2,9.1,4.6C9,7,7.1,9,4.6,9.1C2.1,9.1,0,7.1,0,4.5C0,2.1,2,0,4.5,0L4.5,0z"/>
<g>
	<path class="st1" d="M4.6,0v0.5c2.2,0,4.1,1.8,4.1,4.1c-0.1,2.2-1.9,4-4.1,4c-2.2-0.1-4-1.9-4-4.1s1.8-4,4-4V0 M4.5,0L4.5,0
		C2.1,0,0,2,0,4.5l0,0C0,7,2,9.1,4.5,9.1l0,0c2.5,0,4.5-2,4.6-4.5C9.1,2,7.1,0,4.5,0L4.5,0z"/>
</g>
<linearGradient id="SVGID_5_" gradientUnits="userSpaceOnUse" x1="0" y1="786" x2="9.12" y2="786" gradientTransform="matrix(1 0 0 1 0 -760)">
	<stop  offset="0" style="stop-color:#2FB06D"/>
	<stop  offset="1" style="stop-color:#1F7448"/>
</linearGradient>
<path class="st5" d="M4.5,21.5C7,21.5,9,23.5,9,26s-2,4.5-4.5,4.5S0,28.5,0,26S2.1,21.5,4.5,21.5z"/>
<g>
	<path class="st1" d="M4.6,21.5V22c2.2,0,4,1.7,4.1,3.8C8.7,28,7,29.9,4.8,30c-0.1,0-0.1,0-0.2,0c-2.2,0-4-1.8-4-4s1.8-4,4-4
		L4.6,21.5 M4.6,21.5L4.6,21.5c-2.5,0-4.5,2-4.5,4.5s2,4.5,4.5,4.5h0.1c2.5,0,4.5-2,4.5-4.5S7,21.5,4.6,21.5z"/>
</g>
<linearGradient id="SVGID_6_" gradientUnits="userSpaceOnUse" x1="21.53" y1="785.9982" x2="30.65" y2="785.9982" gradientTransform="matrix(1 0 0 1 0 -760)">
	<stop  offset="0" style="stop-color:#2FB06D"/>
	<stop  offset="1" style="stop-color:#1F7448"/>
</linearGradient>
<path class="st6" d="M26.2,21.5c2.5,0.1,4.4,2.1,4.4,4.6c-0.1,2.5-2.1,4.4-4.6,4.4s-4.4-2.1-4.4-4.6S23.7,21.4,26.2,21.5L26.2,21.5z
	"/>
<g>
	<path class="st1" d="M26.1,22h0.1c2.2,0,4,1.8,3.9,4c0,2.2-1.8,4-4,4H26c-2.2,0-4-1.8-3.9-4.1S23.9,22,26.1,22 M26.1,21.5
		c-2.5,0-4.5,1.9-4.6,4.4s1.9,4.5,4.4,4.6H26c2.5,0,4.5-2,4.6-4.4s-2-4.5-4.4-4.6H26.1z"/>
</g>
<linearGradient id="SVGID_7_" gradientUnits="userSpaceOnUse" x1="10.85" y1="775.3" x2="19.8" y2="775.3" gradientTransform="matrix(1 0 0 1 0 -760)">
	<stop  offset="0" style="stop-color:#2FB06D"/>
	<stop  offset="1" style="stop-color:#1F7448"/>
</linearGradient>
<path class="st7" d="M19.8,15.3c0,2.5-2,4.5-4.5,4.5s-4.5-2-4.5-4.5s2-4.5,4.5-4.5S19.8,12.8,19.8,15.3z"/>
<g>
	<path class="st1" d="M15.3,10.7l0.1,0.5c2.2,0,4,1.8,4,4v0.1c0,2.2-1.8,4-4,4h-0.1c-2.2,0-3.9-1.8-3.9-4c0,0,0,0,0-0.1
		c0-2.2,1.8-3.9,3.9-4L15.3,10.7 M15.3,10.7c-2.5,0.1-4.4,2.1-4.4,4.5c-0.1,2.5,1.9,4.5,4.3,4.6c0,0,0,0,0.1,0l0,0
		c2.5,0,4.5-1.9,4.5-4.4v-0.1C19.8,12.8,17.8,10.8,15.3,10.7z"/>
</g>
<linearGradient id="SVGID_8_" gradientUnits="userSpaceOnUse" x1="10.84" y1="764.5" x2="19.8" y2="764.5" gradientTransform="matrix(1 0 0 1 0 -760)">
	<stop  offset="0" style="stop-color:#2FB06D"/>
	<stop  offset="1" style="stop-color:#1F7448"/>
</linearGradient>
<path class="st8" d="M10.8,4.5c0-2.5,2-4.5,4.5-4.5s4.5,2,4.5,4.5S17.8,9,15.2,9C12.8,9,10.8,7,10.8,4.5z"/>
<g>
	<path class="st1" d="M15.3,0.5c2.2,0,4,1.8,4,4c0,0,0,0,0,0.1c0,2.2-1.8,4-4.1,4.1c-2.2-0.1-3.9-1.9-3.9-4.1c0-1.1,0.4-2.1,1.2-2.9
		C13.2,0.9,14.2,0.5,15.3,0.5L15.3,0.5 M15.2,0L15.2,0c-2.5,0-4.4,2-4.4,4.5l0,0c0,2.5,1.9,4.5,4.4,4.6l0,0c2.5,0,4.5-2,4.5-4.6
		C19.8,2,17.8,0,15.2,0C15.4,0,15.3,0,15.2,0L15.2,0z"/>
</g>
<linearGradient id="SVGID_9_" gradientUnits="userSpaceOnUse" x1="10.8384" y1="786" x2="19.7984" y2="786" gradientTransform="matrix(1 0 0 1 0 -760)">
	<stop  offset="0" style="stop-color:#2FB06D"/>
	<stop  offset="1" style="stop-color:#1F7448"/>
</linearGradient>
<path class="st9" d="M15.3,21.5c2.5,0,4.5,2,4.5,4.5s-2,4.5-4.5,4.5s-4.5-2-4.5-4.5v-0.1C10.9,23.4,12.9,21.5,15.3,21.5z"/>
<g>
	<path class="st1" d="M15.2,22L15.2,22c1.2,0,2.2,0.5,3,1.2c0.7,0.7,1.1,1.7,1.1,2.8c0,2.2-1.7,4-3.8,4c-0.1,0-0.1,0-0.2,0h-0.1
		c-1,0-2-0.4-2.7-1.2c-0.8-0.8-1.2-1.8-1.1-2.9C11.3,23.8,13.1,22,15.2,22L15.2,22 M15.2,21.5c-2.5,0-4.5,2-4.5,4.5s2,4.5,4.5,4.5
		l0,0h0.1c2.5,0,4.5-2,4.5-4.5S17.8,21.5,15.2,21.5L15.2,21.5z"/>
</g>
</svg>
