<svg xmlns="http://www.w3.org/2000/svg" viewBox="0 0 37.31 32.06"><defs><style>.cls-1{fill:#f27c38;}.cls-2{fill:#f45a2a;}.cls-3{fill:#fff;}</style></defs><title>Asset 104</title><g id="Layer_2" data-name="Layer 2"><g id="Pestañas"><path class="cls-1" d="M27.35,15.28a10.21,10.21,0,0,0-6.7,3.06,15.38,15.38,0,0,1-7.36,3.27c-1.76.37-3.54.66-5.28,1.1a21.71,21.71,0,0,0-2.74,1.07,9.05,9.05,0,0,1,.47-2.13c.55-1.17,1.27-2.26,1.94-3.38.3-.5.64-1,.92-1.48a5.85,5.85,0,0,0,.3-.92,8.56,8.56,0,0,1-5-1A14.17,14.17,0,0,1,0,12.14c1.22-.22,2.37-.37,3.49-.65,2.3-.59,4.59-1.24,6.87-1.91a6.92,6.92,0,0,0,3.42-2.24,12.67,12.67,0,0,1,7.38-4.12c.34-.07.6-.14.8.29C23.7,7.33,25.47,11.13,27.23,15,27.26,15,27.28,15.09,27.35,15.28Z"/><path class="cls-2" d="M22.4,2.61,23.8,2q6.76,14.73,13.51,29.46l-1.53.59C31.31,22.24,26.87,12.45,22.4,2.61Z"/><path class="cls-2" d="M21.42,1.27A1.11,1.11,0,0,1,22.49,0a1.06,1.06,0,0,1,1.14,1c0,.37-.9,1.1-1.42,1C21.86,1.85,21.59,1.43,21.42,1.27Z"/><path class="cls-3" d="M11,11.9l1.14-.5,1.8-.75a1.52,1.52,0,0,1,1.82.3,1.43,1.43,0,0,1,.06,2s0,.05,0,.07,0,0,0,0a1.7,1.7,0,0,1,1.8,1.17,1.69,1.69,0,0,1-.54,2.12,3.78,3.78,0,0,1-.83.53c-.84.42-1.69.82-2.57,1.24Zm4,4c.37-.18.8-.27.79-.72a.91.91,0,0,0-.49-.85c-.36-.17-.63.09-.93.23Zm-1.18-2.54c.48-.14.67-.29.71-.54a.89.89,0,0,0-.37-.75c-.34-.16-.56.09-.85.19Z"/><path class="cls-3" d="M22.32,14l-3.48,1.67L15.89,9.81l1.73-.74,2.32,4.33,1.72-.8Z"/></g></g></svg>