<svg xmlns="http://www.w3.org/2000/svg" viewBox="0 0 202.56 64.82"><defs><style>.cls-1{fill:#fff;}.cls-2{fill:#4d4d4d;}.cls-3{fill:#666;}.cls-4{fill:#686868;}.cls-5{fill:#263270;}.cls-6{fill:#333;}.cls-7{fill:gray;}.cls-8{fill:#1a1a1a;}.cls-9{fill:#b3b3b3;}</style></defs><title>small-icons</title><g id="Layer_2" data-name="Layer 2"><g id="Pestañas"><path class="cls-1" d="M22.82,13.62h4.37v2.93H22.82Z"/><path class="cls-1" d="M18,16.55V13.63h4.38v2.92Z"/><path class="cls-1" d="M13.21,13.62h4.37v2.93H13.21Z"/><path class="cls-1" d="M8.38,13.62h4.37v2.93H8.38Z"/><path class="cls-1" d="M8.38,10.24h4.37v2.93H8.38Z"/><path class="cls-1" d="M27.19,13.2H22.82V10.26h4.37Z"/><path class="cls-1" d="M18,13.19V10.27h4.38v2.92Z"/><path class="cls-1" d="M17.59,10.27v2.92H13.21V10.27Z"/><path class="cls-1" d="M18,19.88V17H22.4v2.9Z"/><path class="cls-1" d="M13.2,19.88V17h4.39v2.9Z"/><path class="cls-1" d="M22.82,19.91V17h4.39v2.61c0,.19-.05.33-.27.33Z"/><path class="cls-2" d="M8.27,6.54V10H27.21V8.67c0-.58,0-1.16,0-1.74,0-.22-.24-.39-1.18-.39Z"/><path class="cls-1" d="M12.78,19.91V17H8.38v2.61c0,.19.06.33.28.33Z"/><path class="cls-3" d="M17.81,20.31H8.88c-.69,0-.88-.2-.88-.89v-12c0-.66.2-.86.87-.86H26.74c.66,0,.86.2.86.87V19.43c0,.7-.18.88-.89.88Zm5-6.69v2.93h4.37V13.62ZM18,16.55h4.38V13.63H18Zm-4.8-2.93v2.93h4.37V13.62Zm14-.42V10.26H22.82V13.2Zm-9.18,0h4.38V10.27H18Zm-.42-2.92H13.21v2.92h4.38ZM18,19.88H22.4V17H18Zm-4.81,0h4.39V17H13.2Zm9.62,0h4.12c.22,0,.27-.14.27-.33V17H22.82Zm-10-6.71V10.26H8.42V13.2Zm0,3.36V13.63H8.42v2.93ZM8.39,9.85h4.39V6.91h-4c-.19,0-.37,0-.37.26C8.39,8.05,8.39,8.93,8.39,9.85Zm14,0V6.93H18V9.84Zm-4.8-2.91H13.2V9.84h4.39ZM8.39,17c0,.87,0,1.71,0,2.54,0,.31.12.41.41.4.93,0,1.85,0,2.78,0h1.2V17ZM27.21,9.84V7.35c0-.4,0-.44-.44-.44H23.1l-.28,0V9.84Z"/><path class="cls-2" d="M75.9,8.94a4.32,4.32,0,0,1-.63,0,.47.47,0,0,1-.34-.2A.4.4,0,0,1,75,8.35c.7-.79,1.42-1.57,2.14-2.34a.36.36,0,0,1,.58,0c.72.77,1.45,1.54,2.15,2.32a.45.45,0,0,1,.09.38.49.49,0,0,1-.34.21,4.57,4.57,0,0,1-.65,0V19.6c0,.54,0,.59-.59.59h-2c-.39,0-.49-.1-.49-.49V8.94ZM76,8.21c.51.09.55.13.55.64v3.82H78.3v-.32c0-1.13,0-2.26,0-3.4a1,1,0,0,1,.07-.52c.07-.13.28-.17.43-.26L77.43,6.71Z"/><path class="cls-2" d="M72.15,15.23V10.79c0-.38.1-.48.47-.48h2.14c.35,0,.46.11.46.47v9c0,.35-.11.45-.45.45H72.61c-.35,0-.46-.1-.46-.46Zm2.36-.34V11H72.86v3.88Z"/><path class="cls-2" d="M68.4,16.29V12.83c0-.37.11-.48.48-.48H71c.37,0,.48.12.48.48q0,3.45,0,6.89c0,.38-.09.47-.48.47h-2.1c-.39,0-.48-.09-.48-.47Zm2.36-.38V13.05H69.1v2.86Z"/><path class="cls-2" d="M64.65,17.31V14.89c0-.38.09-.48.47-.48h2.13c.35,0,.46.11.46.46v4.87c0,.34-.11.45-.44.45H65.08c-.33,0-.43-.1-.43-.43C64.64,18.94,64.65,18.13,64.65,17.31ZM67,15.1H65.35v1.84H67Z"/><path class="cls-1" d="M76,8.21l1.39-1.5L78.8,8.17c-.15.09-.36.13-.43.26A1,1,0,0,0,78.3,9c0,1.14,0,2.27,0,3.4v.32H76.59V8.85C76.59,8.34,76.55,8.3,76,8.21Z"/><path class="cls-1" d="M74.51,14.89H72.86V11h1.65Z"/><path class="cls-1" d="M70.76,15.91H69.1V13.05h1.66Z"/><path class="cls-1" d="M67,15.1v1.84H65.35V15.1Z"/><path class="cls-2" d="M79.61,51.5a7.31,7.31,0,1,1-7.24-7.31A7.3,7.3,0,0,1,79.61,51.5ZM68.7,51.19H72v-3H69.28a.19.19,0,0,0-.14.12A10.94,10.94,0,0,0,68.7,51.19ZM72,51.8H68.72a.49.49,0,0,0,0,.11,12,12,0,0,0,.41,2.73c0,.14.12.16.25.16h2.47l.17,0Zm.59,3,.1,0h2.59c.16,0,.19-.09.22-.21.1-.47.21-.94.29-1.42s.08-.91.13-1.36H72.6Zm3.31-3.57a11.3,11.3,0,0,0-.43-2.86c0-.07-.16-.13-.24-.13H72.8l-.19,0v3Zm3.09,0,0-.06a6.44,6.44,0,0,0-.78-2.82.22.22,0,0,0-.17-.11h-2l.43,3Zm-2.46.6-.43,3H78a.29.29,0,0,0,.33-.21c.16-.41.35-.8.48-1.22A4.83,4.83,0,0,0,79,51.8Zm-8,3-.43-3H65.6a6.34,6.34,0,0,0,.78,2.88.27.27,0,0,0,.18.1Zm0-6.6c-.64,0-1.29,0-2,0a.31.31,0,0,0-.22.18,10.86,10.86,0,0,0-.49,1.23,4.91,4.91,0,0,0-.25,1.57h2.48Zm6.71-.58c-.39-1.27-1.53-2.74-2.61-2.81v2.81ZM72,44.8c-1.23.14-2.35,1.83-2.59,2.83H72ZM69.39,55.37c.41,1.29,1.48,2.7,2.61,2.81V55.37Zm3.22,2.81c1.15-.08,2.28-1.65,2.6-2.8h-2.6Zm1.7-13.11a6.81,6.81,0,0,1,1.51,2.44.3.3,0,0,0,.22.12c.45,0,.89,0,1.33,0h.46A6.83,6.83,0,0,0,74.31,45.07Zm-7.52,2.57h1.85a.2.2,0,0,0,.15-.12,6.79,6.79,0,0,1,1.52-2.44A6.7,6.7,0,0,0,66.79,47.64Zm0,7.72a6.85,6.85,0,0,0,3.49,2.56l-.4-.46a7.2,7.2,0,0,1-1-1.9c0-.08-.13-.19-.2-.19C68,55.35,67.45,55.36,66.79,55.36Zm7.6,2.52a6.61,6.61,0,0,0,3.43-2.52H76a.23.23,0,0,0-.17.13A7.18,7.18,0,0,1,74.39,57.88Z"/><path class="cls-1" d="M68.7,51.19a10.94,10.94,0,0,1,.44-2.86.19.19,0,0,1,.14-.12H72v3Z"/><path class="cls-1" d="M72,51.8v3l-.17,0H69.37c-.13,0-.22,0-.25-.16a12,12,0,0,1-.41-2.73.49.49,0,0,1,0-.11Z"/><path class="cls-1" d="M72.6,54.77v-3h3.33c-.05.45-.07.91-.13,1.36s-.19.95-.29,1.42c0,.12-.06.21-.22.21H72.7Z"/><path class="cls-1" d="M75.91,51.2h-3.3v-3l.19,0h2.44c.08,0,.22.06.24.13A11.3,11.3,0,0,1,75.91,51.2Z"/><path class="cls-1" d="M79,51.2H76.54l-.43-3h2a.22.22,0,0,1,.17.11A6.44,6.44,0,0,1,79,51.14Z"/><path class="cls-1" d="M76.54,51.8H79a4.83,4.83,0,0,1-.25,1.57c-.13.42-.32.81-.48,1.22a.29.29,0,0,1-.33.21H76.11Z"/><path class="cls-1" d="M68.51,54.8h-2a.27.27,0,0,1-.18-.1,6.34,6.34,0,0,1-.78-2.88h2.48Z"/><path class="cls-1" d="M68.51,48.2l-.43,3H65.6a4.91,4.91,0,0,1,.25-1.57,10.86,10.86,0,0,1,.49-1.23.31.31,0,0,1,.22-.18C67.22,48.19,67.87,48.2,68.51,48.2Z"/><path class="cls-1" d="M75.22,47.62H72.61V44.81C73.69,44.88,74.83,46.35,75.22,47.62Z"/><path class="cls-1" d="M72,44.8v2.83H69.41C69.65,46.63,70.77,44.94,72,44.8Z"/><path class="cls-1" d="M69.39,55.37H72v2.81C70.87,58.07,69.8,56.66,69.39,55.37Z"/><path class="cls-1" d="M72.61,58.18v-2.8h2.6C74.89,56.53,73.76,58.1,72.61,58.18Z"/><path class="cls-1" d="M74.31,45.07a6.83,6.83,0,0,1,3.52,2.57h-.46c-.44,0-.88,0-1.33,0a.3.3,0,0,1-.22-.12A6.81,6.81,0,0,0,74.31,45.07Z"/><path class="cls-1" d="M66.79,47.64a6.7,6.7,0,0,1,3.52-2.57,6.79,6.79,0,0,0-1.52,2.44.2.2,0,0,1-.15.12Z"/><path class="cls-1" d="M66.79,55.36c.66,0,1.25,0,1.84,0,.07,0,.16.11.2.19a7.2,7.2,0,0,0,1,1.9l.4.46A6.85,6.85,0,0,1,66.79,55.36Z"/><path class="cls-1" d="M74.39,57.88a7.18,7.18,0,0,0,1.43-2.39.23.23,0,0,1,.17-.13h1.83A6.61,6.61,0,0,1,74.39,57.88Z"/><path class="cls-4" d="M33,23.07a.5.5,0,0,1-.5-.5V4.25a.5.5,0,0,1,1,0V22.57A.5.5,0,0,1,33,23.07Z"/><path class="cls-2" d="M15.57,50a4.64,4.64,0,0,1-.38-.39.39.39,0,0,0-.49-.14,9.6,9.6,0,0,1-1,.17l-.05.65h-.12l0-.64c-.38-.08-.73-.16-1.09-.21a.43.43,0,0,0-.3.11c-.16.14-.31.3-.46.45l-.09-.09.46-.57-.84-.4v-.13l1.55-.57c.12-.59.43-.91.89-.88a.88.88,0,0,1,.83.88l1.56.57v.13l-.84.4.46.57Zm-2.14-.94v-.18h-.38a.62.62,0,0,0,0,.16Zm-1.21-.42c.14.33.18.34.45.11Zm2.12.4,0-.19-.4.06,0,.16Z"/><path class="cls-2" d="M26.22,44.19v14H8.73v-14ZM9.7,57.2H25.23v-12H9.7Z"/><path class="cls-2" d="M24.28,56.19H12.61l3.86-5,2,2,2-3Z"/><path class="cls-4" d="M37.67,26.82H5.9A5.9,5.9,0,0,1,0,20.92V5.9A5.9,5.9,0,0,1,5.9,0H37.67a5.9,5.9,0,0,1,5.89,5.9v15A5.9,5.9,0,0,1,37.67,26.82ZM5.9,1A4.91,4.91,0,0,0,1,5.9v15a4.91,4.91,0,0,0,4.9,4.9H37.67a4.9,4.9,0,0,0,4.89-4.9V5.9A4.9,4.9,0,0,0,37.67,1Z"/><path class="cls-5" d="M40,12.25l-2.32,2.32-2.33-2.32Z"/><path class="cls-4" d="M87,23.07a.5.5,0,0,1-.5-.5V4.25a.5.5,0,0,1,1,0V22.57A.5.5,0,0,1,87,23.07Z"/><path class="cls-4" d="M91.67,26.82H59.9a5.9,5.9,0,0,1-5.9-5.9V5.9A5.9,5.9,0,0,1,59.9,0H91.67a5.9,5.9,0,0,1,5.89,5.9v15A5.9,5.9,0,0,1,91.67,26.82ZM59.9,1A4.91,4.91,0,0,0,55,5.9v15a4.91,4.91,0,0,0,4.9,4.9H91.67a4.9,4.9,0,0,0,4.89-4.9V5.9A4.9,4.9,0,0,0,91.67,1Z"/><path class="cls-5" d="M94,12.25l-2.32,2.32-2.33-2.32Z"/><path class="cls-4" d="M33,61.07a.5.5,0,0,1-.5-.5V42.25a.5.5,0,0,1,1,0V60.57A.5.5,0,0,1,33,61.07Z"/><path class="cls-4" d="M37.67,64.82H5.9A5.9,5.9,0,0,1,0,58.92v-15A5.9,5.9,0,0,1,5.9,38H37.67a5.9,5.9,0,0,1,5.89,5.9v15A5.9,5.9,0,0,1,37.67,64.82ZM5.9,39A4.91,4.91,0,0,0,1,43.9v15a4.91,4.91,0,0,0,4.9,4.9H37.67a4.9,4.9,0,0,0,4.89-4.9v-15A4.9,4.9,0,0,0,37.67,39Z"/><path class="cls-5" d="M40,50.25l-2.32,2.32-2.33-2.32Z"/><path class="cls-4" d="M87,61.07a.5.5,0,0,1-.5-.5V42.25a.5.5,0,0,1,1,0V60.57A.5.5,0,0,1,87,61.07Z"/><path class="cls-4" d="M91.67,64.82H59.9a5.9,5.9,0,0,1-5.9-5.9v-15A5.9,5.9,0,0,1,59.9,38H91.67a5.9,5.9,0,0,1,5.89,5.9v15A5.9,5.9,0,0,1,91.67,64.82ZM59.9,39A4.91,4.91,0,0,0,55,43.9v15a4.91,4.91,0,0,0,4.9,4.9H91.67a4.9,4.9,0,0,0,4.89-4.9v-15A4.9,4.9,0,0,0,91.67,39Z"/><path class="cls-5" d="M94,50.25l-2.32,2.32-2.33-2.32Z"/><path class="cls-4" d="M139,23.07a.5.5,0,0,1-.5-.5V4.25a.5.5,0,0,1,1,0V22.57A.5.5,0,0,1,139,23.07Z"/><path class="cls-4" d="M143.67,26.82H111.9a5.9,5.9,0,0,1-5.9-5.9V5.9A5.9,5.9,0,0,1,111.9,0h31.77a5.9,5.9,0,0,1,5.89,5.9v15A5.9,5.9,0,0,1,143.67,26.82ZM111.9,1A4.91,4.91,0,0,0,107,5.9v15a4.91,4.91,0,0,0,4.9,4.9h31.77a4.9,4.9,0,0,0,4.89-4.9V5.9A4.9,4.9,0,0,0,143.67,1Z"/><path class="cls-5" d="M146,12.25l-2.32,2.32-2.33-2.32Z"/><path class="cls-4" d="M139,61.07a.5.5,0,0,1-.5-.5V42.25a.5.5,0,0,1,1,0V60.57A.5.5,0,0,1,139,61.07Z"/><path class="cls-4" d="M143.67,64.82H111.9a5.9,5.9,0,0,1-5.9-5.9v-15a5.9,5.9,0,0,1,5.9-5.9h31.77a5.9,5.9,0,0,1,5.89,5.9v15A5.9,5.9,0,0,1,143.67,64.82ZM111.9,39a4.91,4.91,0,0,0-4.9,4.9v15a4.91,4.91,0,0,0,4.9,4.9h31.77a4.9,4.9,0,0,0,4.89-4.9v-15a4.9,4.9,0,0,0-4.89-4.9Z"/><path class="cls-5" d="M146,50.25l-2.32,2.32-2.33-2.32Z"/><path class="cls-4" d="M192,23.07a.5.5,0,0,1-.5-.5V4.25a.5.5,0,0,1,1,0V22.57A.5.5,0,0,1,192,23.07Z"/><path class="cls-4" d="M196.67,26.82H164.9a5.9,5.9,0,0,1-5.9-5.9V5.9A5.9,5.9,0,0,1,164.9,0h31.77a5.9,5.9,0,0,1,5.89,5.9v15A5.9,5.9,0,0,1,196.67,26.82ZM164.9,1A4.91,4.91,0,0,0,160,5.9v15a4.91,4.91,0,0,0,4.9,4.9h31.77a4.9,4.9,0,0,0,4.89-4.9V5.9A4.9,4.9,0,0,0,196.67,1Z"/><path class="cls-5" d="M199,12.25l-2.32,2.32-2.33-2.32Z"/><path class="cls-4" d="M192,61.07a.5.5,0,0,1-.5-.5V42.25a.5.5,0,0,1,1,0V60.57A.5.5,0,0,1,192,61.07Z"/><path class="cls-4" d="M196.67,64.82H164.9a5.9,5.9,0,0,1-5.9-5.9v-15a5.9,5.9,0,0,1,5.9-5.9h31.77a5.9,5.9,0,0,1,5.89,5.9v15A5.9,5.9,0,0,1,196.67,64.82ZM164.9,39a4.91,4.91,0,0,0-4.9,4.9v15a4.91,4.91,0,0,0,4.9,4.9h31.77a4.9,4.9,0,0,0,4.89-4.9v-15a4.9,4.9,0,0,0-4.89-4.9Z"/><path class="cls-5" d="M199,50.25l-2.32,2.32-2.33-2.32Z"/><polygon class="cls-1" points="174.98 5.51 182.1 5.51 182.1 7.92 184.63 7.92 184.63 18.61 174.86 18.61 174.98 5.51"/><path class="cls-6" d="M184.73,18.71h-10v-.1l.11-13.2h7.32V7.83h2.53ZM175,18.52h9.58V8H182V5.6h-6.94Z"/><polygon class="cls-3" points="181.93 5.29 184.8 8.03 181.93 8.03 181.93 5.29"/><path class="cls-6" d="M184.8,8.12h-2.87a.09.09,0,0,1-.09-.09V5.29a.09.09,0,0,1,0-.09.11.11,0,0,1,.11,0L184.87,8a.08.08,0,0,1,0,.1A.09.09,0,0,1,184.8,8.12ZM182,7.94h2.55L182,5.51Z"/><polygon class="cls-1" points="172.39 7.23 179.51 7.23 179.51 9.65 182.04 9.65 182.04 20.34 172.27 20.34 172.39 7.23"/><path class="cls-6" d="M182.14,20.43h-10v-.09l.11-13.2h7.32V9.55h2.53Zm-9.77-.19H182V9.74h-2.53V7.33h-6.94Z"/><polygon class="cls-3" points="179.34 7.01 182.22 9.76 179.34 9.76 179.34 7.01"/><path class="cls-6" d="M182.22,9.85h-2.88a.09.09,0,0,1-.09-.09V7a.08.08,0,0,1,.06-.08.09.09,0,0,1,.1,0l2.87,2.75a.08.08,0,0,1,0,.1A.08.08,0,0,1,182.22,9.85Zm-2.78-.19H182l-2.54-2.43Z"/><path class="cls-6" d="M173.5,14.08v-.55h5.93v.55Z"/><path class="cls-6" d="M179.43,15.38v.54H173.5v-.54Z"/><path class="cls-6" d="M173.5,12.24v-.57h5.94v.57Z"/><path class="cls-6" d="M177.35,9.82v.57H173.5V9.82Z"/><polygon class="cls-1" points="172.99 44.49 179.76 44.49 179.76 46.79 182.17 46.79 182.17 56.95 172.88 56.95 172.99 44.49"/><path class="cls-6" d="M182.26,57h-9.47V57l.11-12.55h6.95v2.3h2.41ZM173,56.86h9.11v-10h-2.4v-2.3h-6.6Z"/><polygon class="cls-3" points="179.6 44.28 182.33 46.89 179.6 46.89 179.6 44.28"/><path class="cls-6" d="M182.33,47H179.6a.09.09,0,0,1-.09-.09V44.28a.08.08,0,0,1,.06-.08.08.08,0,0,1,.09,0l2.73,2.6a.1.1,0,0,1,0,.1A.1.1,0,0,1,182.33,47Zm-2.64-.18h2.42l-2.42-2.31Z"/><path class="cls-6" d="M174.05,51v-.51h5.63V51Z"/><path class="cls-6" d="M179.68,52.23v.52h-5.63v-.52Z"/><path class="cls-6" d="M174.05,49.25v-.54h5.64v.54Z"/><path class="cls-6" d="M177.71,47v.54h-3.66V47Z"/><path class="cls-6" d="M182.83,57.08c.12-.51.42-.76.85-.7a.68.68,0,0,1,.6.73.72.72,0,0,1-.65.72,1.15,1.15,0,0,1-.41-.08c-.22-.08-.43-.19-.68-.26.14.25.27.51.42.76a.77.77,0,0,1-.11,1,.7.7,0,0,1-.89.08A.74.74,0,0,1,182.1,58l.17-.07c-.13-.26-.24-.5-.38-.74a.33.33,0,0,0-.16-.12l-1.9-.87a.37.37,0,0,1-.19-.2c0-.17.15-.29.34-.21l1.34.61.22.09-.29-.57-.45-.9c-.13-.24-.12-.35,0-.43s.23,0,.36.22c.29.57.58,1.14.86,1.71a.7.7,0,0,0,.43.41Zm.72.31a.32.32,0,0,0,.3-.3.27.27,0,0,0-.26-.28.32.32,0,0,0-.3.31A.27.27,0,0,0,183.55,57.39ZM182.35,59a.31.31,0,0,0,.29-.3.28.28,0,0,0-.24-.28.33.33,0,0,0-.32.3A.28.28,0,0,0,182.35,59Z"/><path class="cls-7" d="M132.75,57.81h-2.82V44.72h2.82Z"/><path d="M132.9,58h-3.11V44.58h3.11Zm-2.82-.28h2.53V44.87h-2.53Z"/><path class="cls-7" d="M117,57.8h-2.82V46.3H117Z"/><path d="M117.11,57.94H114V46.16h3.11Zm-2.82-.28h2.53V46.45h-2.53Z"/><path class="cls-7" d="M122,46.89h2.83V57.8H122Z"/><path d="M125,58h-3.11V46.74H125Zm-2.82-.29h2.54V47h-2.54Z"/><path class="cls-7" d="M126,47.68h2.82V57.8H126Z"/><path d="M129,58h-3.11V47.54H129Zm-2.82-.29h2.53V47.83h-2.53Z"/><path class="cls-7" d="M118.09,57.8v-8h2.82v8Z"/><path d="M121.06,57.94H118V49.7h3.11Zm-2.83-.29h2.54V50h-2.54Z"/><path class="cls-8" d="M116.2,43.63,119,46.54a.39.39,0,0,0,.21.08c.21,0,.43,0,.64,0a.43.43,0,0,0,.27-.08l2.44-2.23a.43.43,0,0,0,.1-.27.81.81,0,0,1,1.59-.28.43.43,0,0,0,.19.21l1.11.44,1.12.42c.6-.47.82-.49,1.32-.14l2.5-1.84a.35.35,0,0,0,.06-.29.81.81,0,1,1,.85.62c-.05,0-.11,0-.15,0-.33-.21-.54,0-.77.19-.69.5-1.37,1-2.06,1.5a.45.45,0,0,0-.22.41.78.78,0,0,1-.71.79.8.8,0,0,1-.86-.62.37.37,0,0,0-.29-.32l-2-.74a.32.32,0,0,0-.27,0,.89.89,0,0,1-1.21.13l-1.78,1.62c-.16.15-.32.31-.49.45a.64.64,0,0,0-.31.73.68.68,0,0,1-.42.74A.79.79,0,0,1,119,48a.71.71,0,0,1-.29-.81.46.46,0,0,0-.15-.54c-.83-.86-1.65-1.73-2.49-2.59a.49.49,0,0,0-.36-.15.81.81,0,0,1-.66-1.43.8.8,0,0,1,1,0,.82.82,0,0,1,.23,1Z"/><path class="cls-9" d="M125.55,12h6.66c.45,0,.55.1.54.56a7.57,7.57,0,1,1-8.34-7.71l.67,0c.33,0,.46.12.47.46V12Z"/><path d="M125.21,20.09a7.34,7.34,0,0,1-.81-.05,7.69,7.69,0,0,1,0-15.31c.23,0,.46,0,.68,0,.4,0,.59.17.6.58a.43.43,0,0,1,0,.16v6.45h6.53a.73.73,0,0,1,.54.15.75.75,0,0,1,.14.55,7.74,7.74,0,0,1-7.68,7.51ZM125.12,5h0c-.22,0-.44,0-.65,0a7.42,7.42,0,0,0,0,14.77,7.44,7.44,0,0,0,8.19-7.19.62.62,0,0,0-.06-.36c-.05-.05-.15-.07-.35-.07h-6.79V5.28C125.41,5,125.34,5,125.12,5Z"/><path class="cls-9" d="M125.21,20.07a7.34,7.34,0,0,1-.81-.05,7.67,7.67,0,0,1,0-15.27c.23,0,.46,0,.68,0,.39,0,.57.16.58.56a.75.75,0,0,1,0,.15V11.9h6.55a.72.72,0,0,1,.52.14.73.73,0,0,1,.14.54,7.72,7.72,0,0,1-7.66,7.49Zm-.09-15.13h0c-.22,0-.44,0-.65,0a7.44,7.44,0,1,0,8.2,7.6.62.62,0,0,0-.07-.38s-.16-.07-.36-.07h-6.77V5.28C125.43,5,125.36,4.94,125.12,4.94Z"/><path d="M125.21,20.2a7.5,7.5,0,0,1-.82,0,7.82,7.82,0,0,1-6.94-6.61,7.8,7.8,0,0,1,6.94-8.93l.69,0a.63.63,0,0,1,.72.7v6.5h6.41a.81.81,0,0,1,.62.18.83.83,0,0,1,.17.63,7.84,7.84,0,0,1-7.79,7.62Zm-.09-15.13h0l-.64,0a7.36,7.36,0,0,0-5.06,2.79,7.32,7.32,0,1,0,13.11,4.67c0-.22,0-.27,0-.27s0,0-.26,0H125.3v-7C125.29,5.07,125.26,5.07,125.12,5.07Z"/><path d="M132.45,8.15v2.77c0,.46-.08.54-.55.54h-.7c-.4,0-.51-.12-.51-.51,0-1.37,0-2.74,0-4.11,0-.51,0-1,0-1.52s.12-.5.49-.5.55,0,.82,0,.45.12.45.46C132.46,6.24,132.45,7.19,132.45,8.15Z"/><path class="cls-6" d="M128.6,8.85V6.75c0-.37.1-.47.47-.47H130a.36.36,0,0,1,.4.39c0,1.47,0,2.93,0,4.39a.36.36,0,0,1-.4.4H129c-.29,0-.42-.14-.42-.44Z"/><path class="cls-3" d="M128.3,9.57c0,.49,0,1,0,1.46,0,.31-.11.42-.42.43H127c-.33,0-.46-.14-.46-.47,0-1,0-1.93,0-2.89,0-.33.12-.44.44-.44h.89c.32,0,.43.12.43.45C128.31,8.59,128.31,9.08,128.3,9.57Z"/></g></g></svg>