<svg xmlns="http://www.w3.org/2000/svg" viewBox="0 0 33.74 33.75"><defs><style>.cls-1{fill:#999;}.cls-2{fill:#333;}</style></defs><title>Asset 119</title><g id="Layer_2" data-name="Layer 2"><g id="Barra_iconos" data-name="Barra iconos"><path class="cls-1" d="M11.36,18.7a24.39,24.39,0,0,1,2.16-1.82c.65-.45.85-.33,1.25.34a5,5,0,0,0,7.65,1.22c2.07-1.91,4.06-3.92,6-6a5,5,0,0,0-.22-7,5.1,5.1,0,0,0-7-.11c-.89.84-1.74,1.74-2.63,2.6a.81.81,0,0,1-.55.24c-.73-.12-1.46-.35-2.19-.43s-1.45,0-2.27,0c.14-.16.21-.27.31-.37C15.28,6,16.75,4.46,18.24,3A8.83,8.83,0,0,1,31.3,14.87c-2.05,2.25-4.2,4.42-6.45,6.46a8.84,8.84,0,0,1-13.45-2.4S11.39,18.86,11.36,18.7Z"/><path class="cls-2" d="M19.22,23.74a9.85,9.85,0,0,1-1.62-.14,8.94,8.94,0,0,1-6.45-4.54.61.61,0,0,1-.05-.18,1.05,1.05,0,0,0,0-.13l0-.16.12-.1.61-.54a14.26,14.26,0,0,1,1.57-1.3,1.23,1.23,0,0,1,.9-.31c.33.08.54.39.75.73a4.8,4.8,0,0,0,3.46,2.31,4.56,4.56,0,0,0,3.76-1.14c1.95-1.8,3.9-3.75,6-6A4.74,4.74,0,0,0,28,5.72a4.83,4.83,0,0,0-6.65-.11c-.51.48-1,1-1.49,1.46s-.75.77-1.14,1.14a1,1,0,0,1-.79.31c-.33,0-.66-.12-1-.19a9.17,9.17,0,0,0-1.21-.23,12.18,12.18,0,0,0-1.49,0l-.75,0h-.58l.37-.46.11-.15a2.52,2.52,0,0,1,.21-.25l1.17-1.18L18,2.79a9.1,9.1,0,0,1,13.45.36,9,9,0,0,1,0,11.91c-2.14,2.35-4.32,4.53-6.47,6.48A8.65,8.65,0,0,1,19.22,23.74Zm-7.56-4.92a8.43,8.43,0,0,0,6,4.23,8.21,8.21,0,0,0,7-1.93C26.8,19.19,29,17,31.1,14.69a8.49,8.49,0,0,0,0-11.17,8.7,8.7,0,0,0-6.22-3,8.82,8.82,0,0,0-6.43,2.63c-1.09,1.07-2.19,2.18-3.25,3.26L14.12,7.52h.12a13.41,13.41,0,0,1,1.56,0c.43,0,.86.15,1.27.24s.63.14.93.19a.58.58,0,0,0,.32-.16l1.14-1.13c.48-.49,1-1,1.49-1.47a5.39,5.39,0,0,1,7.43.11,5.31,5.31,0,0,1,.24,7.34c-2.09,2.22-4.05,4.18-6,6a5.1,5.1,0,0,1-4.22,1.28,5.35,5.35,0,0,1-3.86-2.57c-.08-.13-.27-.44-.39-.47s-.17,0-.46.22a15.3,15.3,0,0,0-1.52,1.25l-.5.45Z"/><path class="cls-1" d="M20.23,26c-.14.15-.21.25-.3.34-1.49,1.49-3,3-4.48,4.47a8.82,8.82,0,0,1-7.67,2.57A9,9,0,0,1,.38,26,8.84,8.84,0,0,1,3,18.23C4.76,16.47,6.51,14.7,8.28,13a8.84,8.84,0,0,1,13.66,1.25c.16.23.29.47.5.81-.78.65-1.5,1.35-2.32,1.92-.58.4-.78.27-1.12-.33a5,5,0,0,0-7.59-1.4c-1.33,1.14-2.51,2.45-3.76,3.69L5.51,21a4.92,4.92,0,0,0-1.25,5.07,4.82,4.82,0,0,0,3.81,3.5,5,5,0,0,0,4.72-1.45c.82-.82,1.63-1.65,2.46-2.45a.68.68,0,0,1,.55-.2A11,11,0,0,0,20,26,1.76,1.76,0,0,1,20.23,26Z"/><path class="cls-2" d="M9.11,33.75a10.74,10.74,0,0,1-1.37-.09A9.13,9.13,0,0,1,2.81,18l.35-.35c1.61-1.62,3.27-3.29,4.93-4.92a9.26,9.26,0,0,1,7.34-2.7,9.32,9.32,0,0,1,6.74,4c.11.16.2.32.32.51l.19.31.12.21-.18.15-.69.6a17.86,17.86,0,0,1-1.65,1.34,1.1,1.1,0,0,1-.84.26c-.32-.07-.51-.38-.69-.68A4.75,4.75,0,0,0,15.4,14.4a4.62,4.62,0,0,0-3.81,1C10.67,16.21,9.8,17.1,9,18L7.85,19.1l-.23.22c-.63.62-1.28,1.27-1.9,1.92A4.63,4.63,0,0,0,4.53,26a4.51,4.51,0,0,0,3.6,3.3A4.62,4.62,0,0,0,12.59,28c.26-.25.51-.51.76-.76.56-.56,1.13-1.14,1.71-1.69a.93.93,0,0,1,.82-.27,10.76,10.76,0,0,0,4,.46.62.62,0,0,1,.19,0h.13l.56,0-.37.42-.12.14a2.09,2.09,0,0,1-.19.21l-1.3,1.31c-1,1.05-2.11,2.13-3.18,3.18A9.1,9.1,0,0,1,9.11,33.75ZM14.6,10.58a8.67,8.67,0,0,0-6.12,2.58c-1.65,1.62-3.32,3.3-4.93,4.91l-.35.36A8.47,8.47,0,0,0,.66,26a8.65,8.65,0,0,0,7.15,7.11,8.59,8.59,0,0,0,7.44-2.5c1.07-1,2.15-2.12,3.18-3.16l1.16-1.17a11.35,11.35,0,0,1-3.87-.5.48.48,0,0,0-.27.13c-.58.55-1.15,1.13-1.7,1.68l-.76.77a5.25,5.25,0,0,1-5,1.52,5.07,5.07,0,0,1-4-3.69,5.22,5.22,0,0,1,1.32-5.34c.63-.65,1.29-1.3,1.92-1.93l.22-.22,1.11-1.12c.85-.88,1.73-1.78,2.67-2.58a5.15,5.15,0,0,1,4.26-1.16,5.37,5.37,0,0,1,3.75,2.63c.06.1.22.39.33.41s.13,0,.39-.17a17.5,17.5,0,0,0,1.6-1.3l.51-.45L22,14.85c-.11-.18-.2-.34-.3-.48a8.73,8.73,0,0,0-6.33-3.75A6.91,6.91,0,0,0,14.6,10.58Z"/></g></g></svg>