<svg xmlns="http://www.w3.org/2000/svg" viewBox="0 0 16 14.39"><defs><style>.cls-1{fill:#6a696a;}</style></defs><title>text_1</title><g id="Layer_2" data-name="Layer 2"><g id="Footer"><path class="cls-1" d="M0,4.77V3.2H16V4.77Z"/><path class="cls-1" d="M16,9.61v1.57H7.21V9.61Z"/><path class="cls-1" d="M7.18,0V1.57H0V0Z"/><path class="cls-1" d="M0,11.18V9.61l.24,0H5.32c.23,0,.3.06.29.29,0,.43,0,.86,0,1.3Z"/><path class="cls-1" d="M10.38,6.41V8H4.82V6.41Z"/><path class="cls-1" d="M12,8V6.41h4V8Z"/><path class="cls-1" d="M8.82,0h4V1.56h-4Z"/><path class="cls-1" d="M0,8V6.41H3.17V8Z"/><path class="cls-1" d="M12.82,14.38V12.82H16v1.56Z"/><path class="cls-1" d="M16,1.57H14.42V0H16Z"/><path class="cls-1" d="M0,14.39V12.82H1.58v1.57Z"/><path class="cls-1" d="M4.79,12.82v1.56H3.21V12.82Z"/><path class="cls-1" d="M6.42,12.82H8v1.56H6.42Z"/><path class="cls-1" d="M9.62,14.38V12.82h1.56v1.56Z"/></g></g></svg>