<svg xmlns="http://www.w3.org/2000/svg" viewBox="0 0 250 25.1"><defs><style>.cls-1{fill:#f27c38;}.cls-2{fill:#fff;}.cls-3{fill:#a3a3a3;}.cls-4{fill:#757575;}</style></defs><title>Asset 120</title><g id="Layer_2" data-name="Layer 2"><g id="barra_margen" data-name="barra margen"><rect class="cls-1" x="224.9" width="25.1" height="25.1"/><rect class="cls-2" width="224.89" height="25.1"/><path class="cls-3" d="M224.9,1.48V23.62H0V1.48H224.9m0-1.48H0V25.1H224.9Z"/><path class="cls-4" d="M6.49,14.94H8V10.25H6.79V9.72a3.67,3.67,0,0,0,1.34-.47h.63v5.69h1.32v.68H6.49Z"/><path class="cls-4" d="M13.68,13.86H10.83v-.54l2.72-4.07h.91V13.2h.87v.66h-.87v1.76h-.78Zm0-.66V11.36c0-.34,0-.89.05-1.23h0c-.15.31-.33.59-.51.9L11.69,13.2Z"/><path class="cls-4" d="M53.08,14.88h1.45V10.19H53.38V9.66a3.74,3.74,0,0,0,1.34-.47h.63v5.69h1.32v.68H53.08Z"/><path class="cls-4" d="M57.49,14.81l.4-.54A2.17,2.17,0,0,0,59.5,15a1.37,1.37,0,0,0,1.39-1.46,1.28,1.28,0,0,0-1.35-1.4,1.8,1.8,0,0,0-1.09.39L58,12.25l.21-3.06H61.4V9.9H58.94l-.17,1.89a2,2,0,0,1,1-.26,1.83,1.83,0,0,1,2,2,2.08,2.08,0,0,1-2.14,2.16A2.8,2.8,0,0,1,57.49,14.81Z"/><path class="cls-4" d="M99.53,14.94H101V10.25H99.83V9.72a3.74,3.74,0,0,0,1.34-.47h.63v5.69h1.31v.68H99.53Z"/><path class="cls-4" d="M104.17,12.67c0-2.55,1.16-3.54,2.42-3.54a2,2,0,0,1,1.54.68l-.46.51a1.39,1.39,0,0,0-1-.5c-.88,0-1.63.69-1.67,2.7a2.06,2.06,0,0,1,1.48-.79,1.72,1.72,0,0,1,1.82,2,1.93,1.93,0,0,1-1.89,2.05C105.12,15.74,104.17,14.72,104.17,12.67Zm3.3,1c0-.83-.39-1.35-1.18-1.35a1.7,1.7,0,0,0-1.32.84c.1,1.24.59,1.91,1.39,1.91C107,15.09,107.47,14.53,107.47,13.69Z"/><path class="cls-4" d="M146,14.94h1.45V10.25h-1.15V9.72a3.81,3.81,0,0,0,1.34-.47h.63v5.69h1.31v.68H146Z"/><path class="cls-4" d="M153.8,10h-3.17V9.25h4.09v.51a8.76,8.76,0,0,0-1.92,5.86H152A9.35,9.35,0,0,1,153.8,10Z"/><path class="cls-4" d="M192.51,14.94H194V10.25h-1.16V9.72a3.67,3.67,0,0,0,1.34-.47h.63v5.69h1.32v.68h-3.59Z"/><path class="cls-4" d="M197.09,14a2,2,0,0,1,1.19-1.72v0a1.78,1.78,0,0,1-.89-1.46,1.81,1.81,0,0,1,3.6.06,2.06,2.06,0,0,1-.88,1.53v0A1.84,1.84,0,0,1,201.22,14a1.83,1.83,0,0,1-2.05,1.7A1.88,1.88,0,0,1,197.09,14Zm3.34,0c0-.82-.8-1.12-1.72-1.49a1.73,1.73,0,0,0-.89,1.39,1.26,1.26,0,0,0,1.37,1.22A1.13,1.13,0,0,0,200.43,14Zm-.15-3.14a1.06,1.06,0,0,0-1.1-1.13,1,1,0,0,0-1,1c0,.76.7,1.08,1.47,1.37A1.7,1.7,0,0,0,200.28,10.87Z"/><path class="cls-4" d="M46.22,13.92h-.89V11h.89Z"/><path class="cls-4" d="M116,13.92h-.88V11H116Z"/><path class="cls-4" d="M139.2,13.92h-.89V11h.89Z"/><path class="cls-4" d="M162.44,13.92h-.88V11h.88Z"/><path class="cls-4" d="M185.69,13.92h-.89V11h.89Z"/><path class="cls-4" d="M208.93,13.92H208V11h.89Z"/><path class="cls-4" d="M92.71,13.92h-.89V11h.89Z"/><path class="cls-4" d="M69.46,13.92h-.88V11h.88Z"/><path class="cls-4" d="M23,13.92h-.88V11H23Z"/><path class="cls-4" d="M34.6,15.81h-.89V9.06h.89Z"/><path class="cls-4" d="M81.09,15.81H80.2V9.06h.89Z"/><path class="cls-4" d="M127.57,15.81h-.88V9.06h.88Z"/><path class="cls-4" d="M174.06,15.81h-.88V9.06h.88Z"/><path class="cls-4" d="M220.55,15.81h-.88V9.06h.88Z"/></g></g></svg>