<svg xmlns="http://www.w3.org/2000/svg" viewBox="0 0 8.46 837.6"><defs><style>.cls-1{fill:#757575;}</style></defs><title>rule</title><g id="Layer_2" data-name="Layer 2"><g id="barra_margen" data-name="barra margen"><path class="cls-1" d="M2,22.93c2,2,3.23,3.16,4.32,3.16a1.19,1.19,0,0,0,1.32-1.28,2,2,0,0,0-.82-1.43l.5-.5a2.65,2.65,0,0,1,1,2,1.87,1.87,0,0,1-2,2c-1.27,0-2.53-1.15-4.19-2.74,0,.37.06.78.06,1.13v1.95H1.46V22.93Z"/><path class="cls-1" d="M2.35,72.08l.57.44a2.27,2.27,0,0,0-.81,1.72,1.26,1.26,0,0,0,1.24,1.39c.8,0,1.34-.55,1.34-2.15h.67c0,1.43.55,1.91,1.25,1.91a1,1,0,0,0,1.07-1.16A2,2,0,0,0,7,72.8l.55-.47a2.76,2.76,0,0,1,.85,1.93c0,1.17-.63,2-1.71,2a1.67,1.67,0,0,1-1.61-1.22H5a1.74,1.74,0,0,1-1.71,1.46A2,2,0,0,1,1.4,74.29,2.84,2.84,0,0,1,2.35,72.08Z"/><path class="cls-1" d="M3.38,124.15v-3H4L8.26,124v1H4.08v.92h-.7V125H1.52v-.82Zm.7,0H6c.36,0,.94,0,1.3,0v0c-.33-.17-.62-.36-1-.55L4.08,122Z"/><path class="cls-1" d="M2.38,170.49l.57.42a2.3,2.3,0,0,0-.77,1.7,1.45,1.45,0,0,0,1.54,1.47,1.35,1.35,0,0,0,1.48-1.43,1.92,1.92,0,0,0-.41-1.15l.29-.46,3.24.22v3.36H7.57V172l-2-.18a2,2,0,0,1,.27,1A1.94,1.94,0,0,1,3.74,175a2.2,2.2,0,0,1-2.28-2.27A2.92,2.92,0,0,1,2.38,170.49Z"/><path class="cls-1" d="M4.64,219.78c2.7,0,3.75,1.23,3.75,2.56A2.14,2.14,0,0,1,7.67,224l-.54-.49a1.44,1.44,0,0,0,.53-1.1c0-.94-.73-1.73-2.86-1.78a2.2,2.2,0,0,1,.84,1.58,1.82,1.82,0,0,1-2.08,1.91,2,2,0,0,1-2.16-2C1.4,220.78,2.47,219.78,4.64,219.78Zm-1.08,3.49c.88,0,1.43-.41,1.43-1.24a1.8,1.8,0,0,0-.89-1.4c-1.31.1-2,.62-2,1.47C2.08,222.77,2.67,223.27,3.56,223.27Z"/><path class="cls-1" d="M7.51,272.34V269h.75v4.33H7.72c-2-1.59-3.57-1.92-6.2-2v-.9A9.94,9.94,0,0,1,7.51,272.34Z"/><path class="cls-1" d="M3.24,318.18a2.12,2.12,0,0,1,1.82,1.27h0a1.92,1.92,0,0,1,1.56-.94,1.91,1.91,0,0,1-.07,3.81A2.19,2.19,0,0,1,5,321.39h0a1.94,1.94,0,0,1-1.73,1.17,1.94,1.94,0,0,1-1.79-2.17A2,2,0,0,1,3.24,318.18Zm0,3.54c.87,0,1.19-.85,1.58-1.82A1.83,1.83,0,0,0,3.33,319,1.34,1.34,0,0,0,2,320.41,1.19,1.19,0,0,0,3.22,321.72Zm3.33-.15a1.13,1.13,0,0,0,1.19-1.17,1,1,0,0,0-1.08-1.09c-.81,0-1.15.74-1.46,1.55A1.82,1.82,0,0,0,6.55,321.57Z"/><path class="cls-1" d="M2.1,367.55l.55.49a1.48,1.48,0,0,0-.54,1.1c0,.95.74,1.75,2.9,1.78a2.1,2.1,0,0,1-.87-1.58,1.82,1.82,0,0,1,2.08-1.91,2,2,0,0,1,2.17,2c0,1.33-1.08,2.32-3.25,2.32-2.7,0-3.74-1.23-3.74-2.57A2.15,2.15,0,0,1,2.1,367.55Zm3.59,3.35c1.31-.11,2-.63,2-1.48,0-.66-.59-1.17-1.48-1.17s-1.42.41-1.42,1.24A1.79,1.79,0,0,0,5.69,370.9Z"/><path class="cls-1" d="M2.24,414.21v1.54h5v-1.23h.56a4.1,4.1,0,0,0,.5,1.43v.66h-6V418H1.52v-3.79Z"/><path class="cls-1" d="M4.91,419.08c2.26,0,3.48.81,3.48,2.16s-1.22,2.15-3.48,2.15-3.51-.81-3.51-2.15S2.65,419.08,4.91,419.08Zm0,3.47c2,0,2.78-.53,2.78-1.31s-.8-1.31-2.78-1.31-2.82.52-2.82,1.31S2.94,422.55,4.91,422.55Z"/><path class="cls-1" d="M2.24,463.5V465h5v-1.23h.56a4.18,4.18,0,0,0,.5,1.43v.66h-6v1.39H1.52V463.5Z"/><path class="cls-1" d="M2.24,468.74v1.54h5v-1.22h.56a4.12,4.12,0,0,0,.5,1.42v.66h-6v1.4H1.52v-3.8Z"/><path class="cls-1" d="M2.18,512.64v1.54h5V513H7.7a3.92,3.92,0,0,0,.5,1.42v.67h-6v1.39H1.46v-3.8Z"/><path class="cls-1" d="M2,517.48c2,2,3.23,3.16,4.32,3.16a1.19,1.19,0,0,0,1.32-1.28,2,2,0,0,0-.82-1.43l.5-.5a2.65,2.65,0,0,1,1,2,1.87,1.87,0,0,1-2,2c-1.27,0-2.53-1.15-4.19-2.74,0,.37.06.78.06,1.13v2H1.46v-4.34Z"/><path class="cls-1" d="M2.24,561.89v1.54h5v-1.22h.56a4.12,4.12,0,0,0,.5,1.42v.66h-6v1.4H1.52v-3.8Z"/><path class="cls-1" d="M2.35,566.58l.57.44a2.27,2.27,0,0,0-.81,1.72,1.26,1.26,0,0,0,1.24,1.39c.8,0,1.34-.55,1.34-2.15h.67c0,1.43.55,1.91,1.25,1.91a1,1,0,0,0,1.07-1.16A2.06,2.06,0,0,0,7,567.29l.55-.46a2.75,2.75,0,0,1,.85,1.93c0,1.17-.63,2-1.71,2a1.67,1.67,0,0,1-1.61-1.22H5A1.73,1.73,0,0,1,3.32,571a2,2,0,0,1-1.92-2.21A2.82,2.82,0,0,1,2.35,566.58Z"/><path class="cls-1" d="M2.24,611v1.54h5V611.3h.56a4,4,0,0,0,.5,1.42v.67h-6v1.39H1.52V611Z"/><path class="cls-1" d="M3.38,618.6v-3H4l4.31,2.88v1H4.08v.92h-.7v-.92H1.52v-.82Zm.7,0H6c.36,0,.94,0,1.3,0v0c-.33-.17-.62-.36-1-.55l-2.3-1.57Z"/><path class="cls-1" d="M2.3,660.31v1.54h5v-1.23h.56a4,4,0,0,0,.49,1.43v.66h-6v1.39H1.59v-3.79Z"/><path class="cls-1" d="M2.38,665l.57.42a2.3,2.3,0,0,0-.77,1.7,1.45,1.45,0,0,0,1.54,1.47,1.35,1.35,0,0,0,1.48-1.43A1.92,1.92,0,0,0,4.79,666l.29-.46,3.24.22v3.36H7.57v-2.6l-2-.18a2.05,2.05,0,0,1,.27,1,1.94,1.94,0,0,1-2.11,2.09,2.2,2.2,0,0,1-2.28-2.27A2.92,2.92,0,0,1,2.38,665Z"/><path class="cls-1" d="M2.24,709.48V711h5V709.8h.56a4.12,4.12,0,0,0,.5,1.42v.66h-6v1.4H1.52v-3.8Z"/><path class="cls-1" d="M4.64,714.4c2.7,0,3.75,1.22,3.75,2.56a2.12,2.12,0,0,1-.72,1.62l-.54-.48A1.48,1.48,0,0,0,7.66,717c0-.94-.73-1.73-2.86-1.77a2.16,2.16,0,0,1,.84,1.57,1.83,1.83,0,0,1-2.08,1.92,2,2,0,0,1-2.16-2C1.4,715.4,2.47,714.4,4.64,714.4Zm-1.08,3.49c.88,0,1.43-.42,1.43-1.25a1.8,1.8,0,0,0-.89-1.4c-1.31.1-2,.62-2,1.48C2.08,717.38,2.67,717.89,3.56,717.89Z"/><path class="cls-1" d="M2.24,758.7v1.54h5V759h.56a4,4,0,0,0,.5,1.42v.67h-6v1.39H1.52v-3.8Z"/><path class="cls-1" d="M7.51,766.93v-3.35h.75v4.33H7.72c-2-1.59-3.57-1.92-6.2-2V765A9.94,9.94,0,0,1,7.51,766.93Z"/><path class="cls-1" d="M2.24,807.92v1.53h5v-1.22h.56a4,4,0,0,0,.5,1.42v.67h-6v1.39H1.52v-3.79Z"/><path class="cls-1" d="M3.24,812.76A2.13,2.13,0,0,1,5.06,814h0a1.94,1.94,0,0,1,1.56-.94,1.91,1.91,0,0,1-.07,3.81A2.19,2.19,0,0,1,5,816h0a1.94,1.94,0,0,1-1.73,1.17A1.93,1.93,0,0,1,1.4,815,2,2,0,0,1,3.24,812.76Zm0,3.54c.87,0,1.19-.85,1.58-1.82a1.83,1.83,0,0,0-1.47-.94A1.33,1.33,0,0,0,2,815,1.2,1.2,0,0,0,3.22,816.3Zm3.33-.16A1.12,1.12,0,0,0,7.74,815a1,1,0,0,0-1.08-1.08c-.81,0-1.15.73-1.46,1.55A1.81,1.81,0,0,0,6.55,816.14Z"/><path class="cls-1" d="M6.46,12.3v.94H3.32V12.3Z"/><path class="cls-1" d="M7.14,0V.94H0V0Z"/><path class="cls-1" d="M3.32,37.85v-.94H6.46v.94Z"/><path class="cls-1" d="M3.32,62.46v-.94H6.46v.94Z"/><path class="cls-1" d="M3.32,136.28v-.94H6.46v.94Z"/><path class="cls-1" d="M3.32,210.1v-.93H6.46v.93Z"/><path class="cls-1" d="M3.32,259.32v-.94H6.46v.94Z"/><path class="cls-1" d="M3.32,283.93V283H6.46v.94Z"/><path class="cls-1" d="M3.32,333.14v-.94H6.46v.94Z"/><path class="cls-1" d="M3.32,382.36v-.94H6.46v.94Z"/><path class="cls-1" d="M3.32,407V406H6.46V407Z"/><path class="cls-1" d="M3.32,431.57v-.93H6.46v.93Z"/><path class="cls-1" d="M3.32,456.18v-.94H6.46v.94Z"/><path class="cls-1" d="M3.32,480.79v-.94H6.46v.94Z"/><path class="cls-1" d="M3.32,505.4v-.94H6.46v.94Z"/><path class="cls-1" d="M3.32,530v-.93H6.46V530Z"/><path class="cls-1" d="M3.32,603.83v-.94H6.46v.94Z"/><path class="cls-1" d="M3.32,653v-.94H6.46V653Z"/><path class="cls-1" d="M3.32,726.87v-.94H6.46v.94Z"/><path class="cls-1" d="M3.32,751.47v-.93H6.46v.93Z"/><path class="cls-1" d="M3.32,776.08v-.94H6.46v.94Z"/><path class="cls-1" d="M3.32,800.69v-.94H6.46v.94Z"/><path class="cls-1" d="M3.32,825.3v-.94H6.46v.94Z"/><path class="cls-1" d="M3.32,702.26v-.94H6.46v.94Z"/><path class="cls-1" d="M3.32,677.65v-.94H6.46v.94Z"/><path class="cls-1" d="M3.32,628.44v-.94H6.46v.94Z"/><path class="cls-1" d="M3.32,554.61v-.94H6.46v.94Z"/><path class="cls-1" d="M3.32,579.22v-.94H6.46v.94Z"/><path class="cls-1" d="M3.32,357.75v-.94H6.46v.94Z"/><path class="cls-1" d="M3.32,308.53v-.93H6.46v.93Z"/><path class="cls-1" d="M3.32,234.71v-.94H6.46v.94Z"/><path class="cls-1" d="M3.32,160.89V160H6.46v.94Z"/><path class="cls-1" d="M3.32,185.5v-.94H6.46v.94Z"/><path class="cls-1" d="M3.32,87.07v-.94H6.46v.94Z"/><path class="cls-1" d="M3.32,111.67v-.94H6.46v.94Z"/><path class="cls-1" d="M1.32,50.15v-.93H8.46v.93Z"/><path class="cls-1" d="M1.32,99.37v-.94H8.46v.94Z"/><path class="cls-1" d="M1.32,148.58v-.93H8.46v.93Z"/><path class="cls-1" d="M1.32,197.8v-.94H8.46v.94Z"/><path class="cls-1" d="M1.32,394.66v-.94H8.46v.94Z"/><path class="cls-1" d="M1.32,443.88v-.94H8.46v.94Z"/><path class="cls-1" d="M1.32,493.09v-.94H8.46v.94Z"/><path class="cls-1" d="M1.32,542.31v-.94H8.46v.94Z"/><path class="cls-1" d="M1.32,591.52v-.93H8.46v.93Z"/><path class="cls-1" d="M1.32,640.74v-.94H8.46v.94Z"/><path class="cls-1" d="M1.32,690V689H8.46V690Z"/><path class="cls-1" d="M1.32,739.17v-.94H8.46v.94Z"/><path class="cls-1" d="M1.32,788.39v-.94H8.46v.94Z"/><path class="cls-1" d="M1.32,837.6v-.94H8.46v.94Z"/><path class="cls-1" d="M1.32,345.45v-.94H8.46v.94Z"/><path class="cls-1" d="M1.32,247v-.94H8.46V247Z"/><path class="cls-1" d="M1.32,296.23v-.94H8.46v.94Z"/></g></g></svg>