<svg xmlns="http://www.w3.org/2000/svg" viewBox="0 0 749.04 149.97"><defs><style>.cls-1{fill:#fff;}</style></defs><title>budlight-logo-white</title><g id="Layer_2" data-name="Layer 2"><g id="Art"><path class="cls-1" d="M736.34,7.89c3,0,4.81,1.78,4.81,4.81V137.37c0,3-1.78,4.71-4.81,4.71H12.7c-3,0-4.81-1.78-4.81-4.81V12.7c0-3,1.78-4.81,4.81-4.81H736.34m.1-7.89H12.6C5,0,0,5.05,0,12.7V137.37C0,145,5,150,12.6,150H736.44c7.65,0,12.6-4.95,12.6-12.6V12.6C749,5,744.09,0,736.44,0Z"/><path class="cls-1" d="M697.45,51.15v68.46H662V51.15H640.66V30h78.22V51.15Zm-64.24,68.46V30H599V62.77H580.47V30H546.31v89.63h34.16V85H599v34.63ZM499,122.45a95.77,95.77,0,0,0,37.46-7.17V68.53H495.15V86.45h10.71v15.14a26.81,26.81,0,0,1-5.18.46c-13.38,0-17.74-10.75-17.74-27.08,0-17.27,7.16-24.63,18.11-24.63,8.92,0,15.94,3.93,21.13,8.61l15.47-17.84c-10.16-8.94-22.24-13.59-39.12-13.59C468.71,27.52,448,44.69,448,75,448,107.6,467,122.45,499,122.45Zm-94.94-2.84h35.66V30H404.07Zm-7.28,0V97.36H368V30H332.87v89.63Zm318.92-7.4a2,2,0,0,0-.82-1.8,3.69,3.69,0,0,0-1.89-.34h-3.33V117H711v-2.94h1.36L713.9,117h1.59l-1.68-2.94C715,114,715.71,113.47,715.71,112.21ZM711,113V111.1h1.68c.67,0,1.65,0,1.65.89s-.54,1.07-1.31,1.05Zm1.44-5.94a6.42,6.42,0,1,0,6.4,6.4A6.42,6.42,0,0,0,712.46,107.1Zm0,11.62a5.21,5.21,0,1,1,5.19-5.22A5.2,5.2,0,0,1,712.46,118.72ZM164.53,121c28.25,0,41.84-9.87,41.84-34.1V30H173.21V90.35c0,6.49-4.12,9.14-8.92,9.14s-8.92-2.55-8.92-9.14V30h-34V86.85C121.37,109.5,134.58,121,164.53,121Zm96.6-1.35c23.48,0,45.65-13.24,45.65-45.62,0-31.51-19.8-44-43.87-44H216.58V119.6h44.55m-7-70c6.46,0,17.62,1,17.62,24.37,0,23.85-9.79,25.7-17.46,25.7h-3.53V49.57h3.37M85,119.6c16.34,0,29.87-8.1,29.87-26.86,0-11.46-7.48-18.5-15.48-21.56,8.25-3.78,13-10.19,13-18.61,0-14.63-10.8-22.61-27.5-22.61H30.16V119.6H85M73.25,48.39c4.58,0,8,2.57,8,8.67,0,7.16-3.36,9.41-8.16,9.41H63.31V48.39h9.94m1,33.08c4.29,0,8.5,2,8.5,9.52,0,8-4,9.86-8.5,9.86H63.31V81.47h10.9"/></g></g></svg>