<svg xmlns="http://www.w3.org/2000/svg" xmlns:xlink="http://www.w3.org/1999/xlink" viewBox="0 0 116.79 158.24"><defs><style>.cls-1{fill:url(#linear-gradient);}</style><linearGradient id="linear-gradient" y1="79.12" x2="116.79" y2="79.12" gradientUnits="userSpaceOnUse"><stop offset="0" stop-color="#344694"/><stop offset="1" stop-color="#263270"/></linearGradient></defs><title>robot</title><g id="Layer_2" data-name="Layer 2"><g id="Bloques"><path class="cls-1" d="M57.13,21.72c-.94,3-.35,5.37,1.73,7.28,3.85,3.5,5.32,7.59,3.31,12.64C66.16,42.43,70,43,73.78,44c26.73,7.26,44.33,31.75,42.93,59.58-1.34,26.66-21.83,49.35-48.64,53.85A58.16,58.16,0,1,1,52.66,42.2c1-.09,1.89-.25,2.85-.33,4.12-.36,6-3.91,3.86-7.64A14.26,14.26,0,0,0,57,31.37a10.51,10.51,0,0,1-3.22-9.11,3.54,3.54,0,0,0-1.53-2.49A10.57,10.57,0,0,1,47.87,8.42a10.07,10.07,0,0,1,8-8.09A10.33,10.33,0,0,1,67.07,4.38c5,6.45,1,15.94-7.19,17.13C59,21.64,58.17,21.64,57.13,21.72ZM37.2,62.92a14,14,0,0,0-14.4,14,14.21,14.21,0,0,0,28.41.36A14,14,0,0,0,37.2,62.92Zm42.5,0a14.13,14.13,0,0,0,0,28.25A14.24,14.24,0,0,0,94,77,14,14,0,0,0,79.7,62.92Zm-7.38,78.31c-1-7.44-6.89-12.25-14.4-12.25-6.85,0-13.37,6.25-13.36,12.25Z"/></g></g></svg>