<svg xmlns="http://www.w3.org/2000/svg" viewBox="0 0 31.46 31.81"><defs><style>.cls-1{fill:#b3b3b3;stroke:#606060;stroke-miterlimit:10;}</style></defs><title>Asset 124</title><g id="Layer_2" data-name="Layer 2"><g id="Barra_iconos" data-name="Barra iconos"><path class="cls-1" d="M.5,15.88V2.47c0-1.39.56-2,2-2H29c1.38,0,2,.6,2,2Q31,11.73,31,21c0,.94-.25,1.19-1.21,1.19-1.37,0-2.74,0-4.11,0A3.66,3.66,0,0,0,21.77,26c.09,1.39,0,2.79,0,4.18,0,.86-.27,1.13-1.13,1.13H2.32A1.61,1.61,0,0,1,.5,29.49Zm15.38-3.6H6.25c-.88,0-1.41.47-1.4,1.19a1.28,1.28,0,0,0,1.4,1.23H25.17a1.7,1.7,0,0,0,.92-.12,2,2,0,0,0,.78-1.05,1.5,1.5,0,0,0-.54-1,1.52,1.52,0,0,0-.95-.19C22.21,12.27,19.05,12.28,15.88,12.28Zm-.07-3.6h9.3c1.21,0,1.83-.41,1.81-1.2S26.34,6.3,25.14,6.3H6.62a5.29,5.29,0,0,0-.8,0,1.1,1.1,0,0,0-1,1.12,1.18,1.18,0,0,0,1,1.18,4.54,4.54,0,0,0,.74,0Zm-3.9,12c1.87,0,3.73,0,5.59,0a1.29,1.29,0,0,0,1.44-1.17,1.22,1.22,0,0,0-1.38-1.24q-5.65,0-11.31,0c-.89,0-1.42.49-1.4,1.21s.54,1.18,1.41,1.19Z"/><path class="cls-1" d="M24.17,27.77c0-.63,0-1.26,0-1.89,0-.9.43-1.33,1.32-1.33,1.28,0,2.56,0,3.84,0a2,2,0,0,1,.58.22,1.73,1.73,0,0,1-.26.62Q27.37,27.73,25,30a2,2,0,0,1-.62.28,2.41,2.41,0,0,1-.23-.65C24.15,29,24.17,28.4,24.17,27.77Z"/></g></g></svg>