<svg xmlns="http://www.w3.org/2000/svg" viewBox="0 0 252.02 285.56"><defs><style>.cls-1{fill:#fff;}</style></defs><title>budlightdocs-white</title><g id="Layer_2" data-name="Layer 2"><g id="Bloques"><path class="cls-1" d="M107.18,175.94v-4.73q0-23.72,0-47.43c0-3.82.35-4.17,4.19-4.15,3.61,0,7.22.15,10.82.14l116.15-.26c3.5,0,7,.13,10.51.08,2.21,0,3.16.64,3.15,3.1q-.12,43.6,0,87.21c0,3.14-1.66,3.09-3.8,3.1-29.8.13-59.6.32-89.4.32-3.23,0-4,1-3.76,4s.16,5.93.16,8.9c0,3.83-.39,4.22-4.18,4.22-4.57,0-9.13-.06-13.69-.06-19.41,0-38.83,0-58.24.17-3.06,0-4.07-1-4-4,.15-15.49.12-31,.15-46.47,0-3.85.21-4.07,4.23-4.05,8,0,15.91.12,23.87.15C104.55,176.14,105.79,176,107.18,175.94Zm9.61-51.45c.64.81.86,1.16,1.15,1.45q29.81,29.07,59.6,58.17c1.76,1.73,2.77,1.43,4.37-.15q29.61-29.07,59.31-58a8.28,8.28,0,0,0,.92-1.44Zm33.48,56.33a3.41,3.41,0,0,0-.81-.32c-22.17,0-44.35.1-66.52-.06-3.23,0-3.58,1.13-3.55,3.83.12,12.62.07,25.25.08,37.88v3.17h70.8Zm90.41,27.51a6.76,6.76,0,0,0-.81-1.05C226.56,196.84,213.23,186.44,200,176c-1.56-1.23-2.63-1.23-4,.21-4.61,4.66-9.38,9.17-14,13.85-1.6,1.62-2.7,1.81-4.4,0-4.42-4.58-9-9-13.58-13.39a5,5,0,0,0-2.57-1.6c-1.83-.14-6.24,4.78-6.24,6.72,0,8,0,15.91,0,23.86,0,2.11.72,2.72,2.77,2.71C185.31,208.31,212.77,208.33,240.68,208.33Z"/><path class="cls-1" d="M199.94,4c-1.58-.07-2.73-.17-3.88-.18q-69.23,0-138.45-.14c-3.2,0-4.09.78-4.06,4.07.17,14.74,0,29.49,0,44.24,0,2.9-1,3.91-3.91,3.89-14.11-.09-28.23.06-42.34-.09-2.89,0-3.53.84-3.52,3.59q.39,80.84.6,161.68c0,13.15-.11,26.3-.17,39.46v2.28c3.69,0,7.16,0,10.63,0,1.69,0,3.33.09,3.31,2.38s-1.82,2.2-3.43,2.2c-4,0-8.06,0-12.09,0-1.84,0-2.83-.58-2.65-2.57.08-.84,0-1.7,0-2.54q0-103,0-205.94a7.46,7.46,0,0,1,2.25-5.62Q25.95,26,49.52,1.28a4.51,4.51,0,0,1,3-1.19Q127.13,0,201.77,0c2.11,0,2.76.71,2.75,2.74q-.06,35.64,0,71.29c0,10.72.09,21.43.13,32.14,0,.85.26,1.88-.13,2.5-.55.86-1.59,1.94-2.41,1.93s-1.7-1.25-2.11-2.16a7.38,7.38,0,0,1-.1-2.83q0-49,.05-98Z"/><path class="cls-1" d="M41.37,102.23c.73.69,1.41,1,1.68,1.61,4.88,10.45,9.76,20.89,14.51,31.4a12.33,12.33,0,0,1,.94,4.9q.07,37.07,0,74.13-.06,32.46-.29,64.9c0,2.08-.2,4.17-.3,6.39H25.07c-.07-1.08-.19-2.19-.19-3.3q0-71.44.13-142.88c0-2.46,1.3-5,2.35-7.37,4-8.86,8.1-17.66,12.19-26.48C40,104.51,40.64,103.55,41.37,102.23ZM53.85,263.5v-3.89c0-15.37-.05-30.75,0-46.13q.06-33.57.18-67.14c0-7.45,0-7.38-7.43-7.31-2.18,0-3,.57-2.87,2.9.23,3.27.12,6.57.12,9.86q-.09,54.9-.17,109.78a18.37,18.37,0,0,0,.2,1.93Zm-14.57,0V139.18c-2.49,0-4.72.12-6.92,0s-3.1.63-3.1,3.06q0,59.2-.16,118.42c0,.92.11,1.84.18,2.89Zm-10.11,18.1H53.66V268.18H29.17Zm1.9-146.87H52.63c-2.67-7.92-2.67-7.92-10-7.9C33.66,126.87,33.66,126.87,31.07,134.74Zm16.08-12.06-5-10.9-.9.14-4.84,10.76Z"/><path class="cls-1" d="M199.88,262.57c0-12.34,0-24.09.05-35.85a6,6,0,0,1,1.12-3.38,2.61,2.61,0,0,1,2.57,0,4.71,4.71,0,0,1,1.15,3c.11,8.8.11,17.6.13,26.41,0,4-.07,8.06,0,12.09.06,2.36-.91,3.12-3.22,3.11q-35.47-.17-71-.17c-18.46,0-36.91,0-55.37,0a41.9,41.9,0,0,1-7.27-.46c-.92-.16-1.64-1.42-2.44-2.18.8-.79,1.51-2.06,2.44-2.25a28.61,28.61,0,0,1,6-.34H199.88Z"/><path class="cls-1" d="M155.93,31.25A12.08,12.08,0,0,1,168.16,19a12.36,12.36,0,0,1,12.51,12.1c.05,6.42-6,12.33-12.51,12.31A12.53,12.53,0,0,1,155.93,31.25Z"/><path class="cls-1" d="M137.31,55.52c13.89,0,27.79,0,41.69,0,1.79,0,3.28.23,3.3,2.41s-1.4,2.51-3.22,2.51q-41.54-.14-83.07-.19c-1.64,0-3.44.06-3.48-2.22s1.76-2.26,3.4-2.26h41.38Z"/><path class="cls-1" d="M157.53,72.32c7.2,0,14.39,0,21.59,0,1.78,0,3.3.29,3.2,2.48-.08,2-1.59,2.16-3.2,2.15q-21.75-.06-43.5-.07c-1.6,0-3.46.2-3.56-2.08-.12-2.51,1.82-2.39,3.56-2.39h21.91Z"/><path class="cls-1" d="M109.12,207.77c4.66,0,9.32,0,14,0,1.73,0,3.56.24,3.18,2.38-.15.86-2,2-3.08,2-9.22.15-18.44.07-27.66.06-.32,0-.73.13-.94,0-1.07-.72-2.1-1.52-3.13-2.29,1-.68,2-1.9,3-1.94,4.86-.21,9.74-.1,14.62-.1Z"/><path class="cls-1" d="M104,197.24c-3.5,0-7,0-10.5,0-1.56,0-3.36-.13-3-2.16.14-.83,1.86-2,2.88-2,7.1-.17,14.21-.18,21.31,0,1,0,1.92,1.36,2.88,2.09-1,.68-2,1.87-3.05,2C111,197.4,107.5,197.24,104,197.24Z"/></g></g></svg>