<svg xmlns="http://www.w3.org/2000/svg" viewBox="0 0 14.08 35.07"><defs><style>.cls-1{fill:#666;}</style></defs><title>Asset 110</title><g id="Layer_2" data-name="Layer 2"><g id="Barra_iconos" data-name="Barra iconos"><path class="cls-1" d="M0,18.22C0,14.45,0,10.67,0,6.9A6.64,6.64,0,0,1,3.7.9a6.67,6.67,0,0,1,7.18.31,6.76,6.76,0,0,1,3.18,5.88c0,6,0,12.07,0,18.11,0,.74-.39,1.16-1,1.15s-.91-.42-.91-1.15q0-8.94,0-17.88A5.11,5.11,0,1,0,1.93,7c0,6.51,0,13,0,19.54,0,1,0,2,0,3a3.57,3.57,0,0,0,3.54,3.65,3.52,3.52,0,0,0,3.62-3.55c0-6.75,0-13.51,0-20.26a2.06,2.06,0,0,0-4-.79A3.84,3.84,0,0,0,5,9.64q0,7.61,0,15.19a3.94,3.94,0,0,1,0,.77.86.86,0,0,1-.94.74.86.86,0,0,1-.9-.79,3.59,3.59,0,0,1,0-.47q0-7.92,0-15.85A3.75,3.75,0,0,1,5.32,5.61a3.81,3.81,0,0,1,4.33.59A3.9,3.9,0,0,1,11,9.31c0,6.73,0,13.46,0,20.19a5.2,5.2,0,0,1-3.42,5.11,5.22,5.22,0,0,1-5.81-1A5.32,5.32,0,0,1,0,29.42V18.22Z"/></g></g></svg>