<?xml version="1.0" encoding="utf-8"?>
<!-- Generator: Adobe Illustrator 22.1.0, SVG Export Plug-In . SVG Version: 6.00 Build 0)  -->
<svg version="1.1" id="Layer_1" xmlns="http://www.w3.org/2000/svg" xmlns:xlink="http://www.w3.org/1999/xlink" x="0px" y="0px"
	 viewBox="0 0 992.9 643.7" style="enable-background:new 0 0 992.9 643.7;" xml:space="preserve">
<style type="text/css">
	.st0{fill:url(#SVGID_1_);}
	.st1{fill:url(#SVGID_2_);}
	.st2{fill:url(#SVGID_3_);}
	.st3{fill:url(#SVGID_4_);}
	.st4{fill:url(#SVGID_5_);}
	.st5{fill:url(#SVGID_6_);}
	.st6{fill:url(#SVGID_7_);}
	.st7{fill:#FFFFFF;}
	.st8{fill:url(#SVGID_8_);}
	.st9{fill:url(#SVGID_9_);}
	.st10{fill:url(#SVGID_10_);}
	.st11{fill:url(#SVGID_11_);}
	.st12{fill:url(#SVGID_12_);}
	.st13{fill:url(#SVGID_13_);}
	.st14{fill:url(#SVGID_14_);}
	.st15{fill:url(#SVGID_15_);}
	.st16{fill:url(#SVGID_16_);}
	.st17{fill:url(#SVGID_17_);}
	.st18{fill:url(#SVGID_18_);}
	.st19{fill:url(#SVGID_19_);}
	.st20{fill:url(#SVGID_20_);}
	.st21{fill:#196D9D;}
	.st22{fill:#2C3E81;}
</style>
<title>cuponesInfo</title>
<linearGradient id="SVGID_1_" gradientUnits="userSpaceOnUse" x1="162.76" y1="833.63" x2="166.7" y2="833.63" gradientTransform="matrix(1 0 0 1 0 -479.36)">
	<stop  offset="0" style="stop-color:#344694"/>
	<stop  offset="1" style="stop-color:#263270"/>
</linearGradient>
<path class="st0" d="M164.8,349.8c-1,0-2,0.9-2,4.4s0.9,4.5,2,4.5s2-1,2-4.5S165.8,349.8,164.8,349.8z"/>
<linearGradient id="SVGID_2_" gradientUnits="userSpaceOnUse" x1="143.72" y1="839.11" x2="149.55" y2="839.11" gradientTransform="matrix(1 0 0 1 0 -479.36)">
	<stop  offset="0" style="stop-color:#344694"/>
	<stop  offset="1" style="stop-color:#263270"/>
</linearGradient>
<path class="st1" d="M146.7,352c-1.6,0-2.9,1-2.9,7.6s1.3,7.9,2.9,7.9s2.9-1.3,2.9-7.9S148.2,352,146.7,352z"/>
<linearGradient id="SVGID_3_" gradientUnits="userSpaceOnUse" x1="59.86" y1="778.07" x2="247.06" y2="778.07" gradientTransform="matrix(1 0 0 1 0 -479.36)">
	<stop  offset="0" style="stop-color:#344694"/>
	<stop  offset="1" style="stop-color:#263270"/>
</linearGradient>
<path class="st2" d="M246.7,226.5l0.4-98.5l-46-0.4c-5.8,29.9-20.9,45.2-45.8,46.3c-11.2,0.6-22.3-2.9-31.1-9.9
	c-12-9.3-17.3-22.2-18.4-35.6l-45.6-0.2l0.2,98.8l31.7-0.7l0.2,16.9L60.2,242l-0.3,227.6h45.7c2.7-31.1,26.8-46,48.2-45.8
	c25.1,0.2,42.7,17.5,46.9,45.8l45.3,0.2l0.5-228.6l-32.1,1v-17.1L246.7,226.5z M147.1,290.9c0,0.1,0.1,0.2,0.2,0.3l0,0
	c0.1,0,0.1,0.1,0.2,0.1l0.7-0.5c0.6-0.5,1.5-0.7,2.3-0.3c0.8,0.1,1.3,0.9,1.2,1.6c0,0.2-0.1,0.3-0.2,0.5c-0.8,1.8-1.6,3.6-2.3,5.5
	c-0.3,0.7-0.4,1.4-0.5,2.1c0,0.2,0.1,0.7,0.2,0.7c0.3,0.1,0.5,0,0.7-0.2c0.7-0.8,1.4-1.7,1.9-2.7c0.9-2,1.7-4.1,2.5-6.1
	c0.7-1.7,2.1-2.1,3.6-1c0.4,0.3,0.9,0.3,1.3,0c0.3-0.3,0.7-0.5,1.1-0.6c2.4-1.1,4.5,0.2,4.6,2.8c0,3-0.9,5.9-2.6,8.4l-0.5,0.8
	l0.2,0.2c0.6-0.4,1.3-0.9,1.8-1.5c0.5-0.6,0.9-1.3,1.2-2c1-2.3,1.8-4.6,2.8-6.8c0.4-1.1,1.6-1.7,2.7-1.4c0.3,0.1,0.6,0.3,0.8,0.5
	c0.3,0.3,0.8,0.3,1.2,0c0,0,0,0,0,0c0.4-0.3,0.8-0.6,1.3-0.8c1.5-0.8,3.3-0.2,4.1,1.3c0.2,0.4,0.3,0.9,0.3,1.3
	c0.2,1.7-0.1,3.3-0.7,4.9c-0.6,1.4-1.4,2.7-2.1,4.1l-0.2,0.4c1.3-0.3,2.3-1.2,2.8-2.4c0.5-1,0.8-2.2,1.2-3.2
	c0.7-1.6,1.4-3.2,2.2-4.7c0.6-1.1,1.9-1.5,3-1c0.7,0.1,1.2,0.9,1,1.6c0,0,0,0.1,0,0.1c0,0.2-0.1,0.3-0.2,0.4
	c-0.8,1.7-1.5,3.5-2.2,5.3c-0.3,0.8-0.5,1.6-0.6,2.4c0,0.3,0.1,0.5,0.3,0.7c0.3,0,0.5,0,0.7-0.2c0.7-0.7,1.3-1.4,2-2.1
	c0.2-0.3,0.4-0.5,0.7-0.7c0.3-0.1,0.6,0,0.9,0.1c0.2,0.2,0.2,0.5,0,0.7c-1.3,2.3-3,4.2-5.2,5.7c-0.6,0.4-1.4,0.6-2.1,0.7
	c-0.9,0.2-1.8-0.4-2-1.3c0-0.1,0-0.1,0-0.2l-0.3-1.3l-1,0.6c-1.7,1.2-3.8,1.9-5.9,2c-1.2,0.2-2.4-0.3-3.2-1.2
	c-0.1,0.2-0.2,0.5-0.3,0.7c-0.5,1.9-1.1,3.8-1.6,5.7c-0.1,0.7-0.8,1.3-1.5,1.2c-0.2,0-0.3-0.1-0.5-0.1c-1.2-0.2-2-1.5-1.8-2.7
	c0,0,0,0,0,0c0-0.1,0.1-0.2,0.1-0.3c0.4-1.6,0.9-3.1,1.3-4.7c0.1-0.2,0.1-0.5,0.1-0.7c-0.3,0.2-0.7,0.3-1,0.4
	c-1.4,0.8-3,1.3-4.6,1.5c-1.4,0.1-2.7,0.1-3.8-1.4c-0.5,1.7-0.9,3.2-1.3,4.6c-0.2,0.8-0.4,1.5-0.6,2.2c-0.1,0.6-0.7,1-1.3,0.9
	c-1.3,0-2.4-1-2.4-2.3c0,0,0,0,0-0.1c0-0.2,0-0.5,0.1-0.7l1.2-4.2c0.1-0.3,0.1-0.6,0.2-1.1c-0.2,0.2-0.5,0.4-0.8,0.5l-2.4,1.2
	c-0.8,0.4-1.8,0-2.2-0.8c0-0.1,0-0.1-0.1-0.2c-0.3-0.7-0.7-0.7-1.2-0.2c-0.7,0.7-1.7,1.1-2.7,1.1c-1.5,0.2-2.9-0.8-3.2-2.3
	c-0.3-1.4-0.3-2.9,0-4.3c0.4-2.4,1.5-4.7,3.1-6.6c1.1-1.4,2.7-2.3,4.5-2.4C145.4,289.3,146.5,289.9,147.1,290.9z M181.9,286.8
	L181.9,286.8c-0.1-1.6,1.1-2.9,2.7-3c0,0,0.1,0,0.1,0h0.1c1.6,0,2.9,1.3,3,2.9l0,0c-0.1,1.6-1.4,2.9-3,2.9l0,0
	C183.2,289.7,181.9,288.4,181.9,286.8C181.9,286.9,181.9,286.8,181.9,286.8z M133.6,291.4c0.6-1,0.9-2.1,0.8-3.3
	c0-1.3-0.9-2.4-2.2-2.6c-1.4-0.4-2.9-0.1-4.2,0.6c-2.4,1.3-4,3.6-4.5,6.2c-0.2,1.1-1,1.5-1.9,1c-1.2-0.7-1.7-2.1-1.2-3.4l0,0
	c0.2-0.8,0.6-1.5,1.1-2.1c2-2.6,4.9-4.2,8.1-4.5c1.9-0.2,3.8,0.1,5.6,0.6c0.2,0.1,0.5,0.2,0.7,0.3c4.2,1.9,4.6,5.7,2,8.9
	c-1.4,1.6-3.2,2.7-5.3,3.3c-0.6,0.1-1,0.7-0.9,1.3l0,0c0.1,2,0.6,3.9,1.4,5.7c0.8,1.6,2.2,2.8,4,3.2c1.1,0.2,2.3,0,3.3-0.5
	c0.2-0.1,0.4-0.3,0.6-0.3s0.9,0,0.9,0.2c0.1,0.3,0,0.7-0.2,1c-1.7,1.7-3.9,2.7-6.3,2.9c-2.8,0.1-5.3-1.5-6.3-4.1
	c-0.6-1.6-1.1-3.2-1.5-4.9c0-0.2-0.1-0.3-0.1-0.5h-0.3c-0.3,1-0.6,2.1-0.8,3.1c-0.5,2-1.8,2.4-3.4,1.1c-0.7-0.5-1.1-1.5-0.8-2.4
	c1.1-4.6,2.6-9,4.6-13.3c0.3-1.1,1.4-1.7,2.5-1.5c0.4,0,0.8,0,1.2,0c1.3,0.1,1.6,0.5,1.1,1.7l-2.1,5c-0.1,0.4-0.2,0.7-0.3,1.1
	C131,294.4,132.5,293.1,133.6,291.4z M110.6,227l32.9-0.1v13.7h-32.8L110.6,227z M134,372.2h-16.6v-5.4h5.4v-12.9h-4.7v-4.2
	c2.3-0.4,4.5-1.2,6.5-2.4h5v19.5h4.5v5.4H134z M146.7,372.7c-5.5,0-9.3-4.5-9.3-13.1s3.8-12.8,9.3-12.8s9.3,4.3,9.3,12.8
	S152.2,372.7,146.7,372.7L146.7,372.7z M154,328.4c-0.3,0.2-0.5,0.6-0.6,0.9c-2.6,3.9-6,6.9-10.6,8c-5.8,1.5-11.5,1-16.6-2.4
	c-3.6-2.4-6.1-6.1-7-10.3c0-0.2-0.1-0.4-0.1-0.7l0.6,0.3l0.9,0.6c2.9,2,5.9,2.1,8.7,0c2.4-1.7,4.6-3.6,6.9-5.3
	c1.4-1.2,3.1-2.2,4.9-2.7c2.3-0.6,4.7-0.3,6.7,0.9c1.4,0.8,2.6,1.8,3.9,2.7l1,0.7c0.9,0.6,2,0.5,2.8-0.2c0.7-0.5,1.4-1.1,2-1.7
	c2.6-2.2,5.5-3.5,8.9-2.6c1.5,0.4,3,1.1,4.3,2c2.5,1.7,4.8,3.7,7.3,5.5c1.6,1.4,3.7,2,5.8,1.7c1.5-0.3,2.9-1,4.1-2l1.1-0.8
	c-2,6.5-5,11.7-11.8,13.7l0,0C167.6,339.5,159.7,337,154,328.4z M158.2,354.2c0-5.1,2.8-8.1,6.6-8.1s6.6,3,6.6,8.1s-2.8,8.2-6.6,8.2
	S158.2,359.4,158.2,354.2L158.2,354.2z M165.7,372.7l13.7-26.5h3.8l-13.7,26.5H165.7z M184,372.7c-3.8,0-6.6-3.1-6.6-8.2
	s2.8-8.1,6.6-8.1s6.6,3,6.6,8.1S187.8,372.7,184,372.7z M195.5,241.8l-33.3-0.2l-0.3-14.4h33.9L195.5,241.8z"/>
<linearGradient id="SVGID_4_" gradientUnits="userSpaceOnUse" x1="141.1598" y1="776.71" x2="145.6498" y2="776.71" gradientTransform="matrix(1 0 0 1 0 -479.36)">
	<stop  offset="0" style="stop-color:#344694"/>
	<stop  offset="1" style="stop-color:#263270"/>
</linearGradient>
<path class="st3" d="M142.1,302c0.1-0.1,0.2-0.1,0.2-0.2c1.9-2.4,3-5.3,3.4-8.3c-0.1-0.3-0.2-0.7-0.3-1.1c-0.3,0.3-0.7,0.5-1.1,0.7
	c-0.2,0.2-0.4,0.4-0.5,0.6c-0.8,1.8-1.6,3.6-2.3,5.5c-0.2,0.8-0.3,1.7-0.3,2.5c0,0.2,0.1,0.4,0.2,0.6
	C141.6,302.3,141.9,302.2,142.1,302z"/>
<linearGradient id="SVGID_5_" gradientUnits="userSpaceOnUse" x1="155.3" y1="776.93" x2="160.18" y2="776.93" gradientTransform="matrix(1 0 0 1 0 -479.36)">
	<stop  offset="0" style="stop-color:#344694"/>
	<stop  offset="1" style="stop-color:#263270"/>
</linearGradient>
<path class="st4" d="M156.5,302.1c0.1,0,0.1-0.1,0.2-0.2c1.9-2.3,3.1-5.1,3.6-8.1c0-0.4,0-0.9-0.2-1.3c-0.2,0-0.3,0.1-0.4,0.2
	c-0.2,0.1-0.3,0.3-0.4,0.4c-2.1,2.3-3.5,5.3-3.9,8.4c0,0.4,0,0.7,0.1,1.1L156.5,302.1z"/>
<linearGradient id="SVGID_6_" gradientUnits="userSpaceOnUse" x1="182.04" y1="843.93" x2="185.98" y2="843.93" gradientTransform="matrix(1 0 0 1 0 -479.36)">
	<stop  offset="0" style="stop-color:#344694"/>
	<stop  offset="1" style="stop-color:#263270"/>
</linearGradient>
<path class="st5" d="M184,360.1c-1,0-2,0.9-2,4.4s0.9,4.5,2,4.5s2-1,2-4.5S185.1,360.1,184,360.1z"/>
<linearGradient id="SVGID_7_" gradientUnits="userSpaceOnUse" x1="168.49" y1="777.3799" x2="173.52" y2="777.3799" gradientTransform="matrix(1 0 0 1 0 -479.36)">
	<stop  offset="0" style="stop-color:#344694"/>
	<stop  offset="1" style="stop-color:#263270"/>
</linearGradient>
<path class="st6" d="M169.7,302.5c0.1-0.1,0.2-0.1,0.2-0.2c1.9-2.4,3.2-5.2,3.6-8.2c0-0.3-0.1-0.7-0.2-1c-0.3,0.1-0.6,0.2-0.8,0.4
	c-2.3,2.4-3.3,5.3-4,8.5l0.4,0.9C169.2,302.8,169.4,302.6,169.7,302.5z"/>
<polygon class="st7" points="208.4,392.5 204.4,392.5 204.4,391.5 207.4,391.5 207.4,388.5 208.4,388.5 "/>
<path class="st7" d="M197.6,392.5h-6.8v-1h6.8V392.5z M184,392.5h-6.8v-1h6.8L184,392.5z M170.5,392.5h-6.8v-1h6.8V392.5z
	 M156.9,392.5h-6.8v-1h6.8V392.5z M143.4,392.5h-6.8v-1h6.8V392.5z M129.8,392.5H123v-1h6.8L129.8,392.5z M116.3,392.5h-6.8v-1h6.8
	V392.5z"/>
<polygon class="st7" points="102.7,392.5 98.7,392.5 98.7,388.5 99.7,388.5 99.7,391.5 102.7,391.5 "/>
<path class="st7" d="M99.7,381.5h-1v-7h1V381.5z M99.7,367.5h-1v-7h1V367.5z M99.7,353.5h-1v-7h1V353.5z M99.7,339.5h-1v-7h1V339.5z
	 M99.7,325.5h-1v-7h1V325.5z M99.7,311.5h-1v-7h1V311.5z M99.7,297.5h-1v-7h1V297.5z M99.7,283.5h-1v-7h1V283.5z"/>
<polygon class="st7" points="99.7,269.5 98.7,269.5 98.7,265.5 102.7,265.5 102.7,266.5 99.7,266.5 "/>
<path class="st7" d="M197.6,266.5h-6.8v-1h6.8V266.5z M184,266.5h-6.8v-1h6.8L184,266.5z M170.5,266.5h-6.8v-1h6.8V266.5z
	 M156.9,266.5h-6.8v-1h6.8V266.5z M143.4,266.5h-6.8v-1h6.8V266.5z M129.8,266.5H123v-1h6.8L129.8,266.5z M116.3,266.5h-6.8v-1h6.8
	V266.5z"/>
<polygon class="st7" points="208.4,269.5 207.4,269.5 207.4,266.5 204.4,266.5 204.4,265.5 208.4,265.5 "/>
<path class="st7" d="M208.4,381.5h-1v-7h1V381.5z M208.4,367.5h-1v-7h1V367.5z M208.4,353.5h-1v-7h1V353.5z M208.4,339.5h-1v-7h1
	V339.5z M208.4,325.5h-1v-7h1V325.5z M208.4,311.5h-1v-7h1V311.5z M208.4,297.5h-1v-7h1V297.5z M208.4,283.5h-1v-7h1V283.5z"/>
<linearGradient id="SVGID_8_" gradientUnits="userSpaceOnUse" x1="501.28" y1="833.38" x2="505.17" y2="833.38" gradientTransform="matrix(1 0 0 1 0 -479.36)">
	<stop  offset="0" style="stop-color:#344694"/>
	<stop  offset="1" style="stop-color:#263270"/>
</linearGradient>
<path class="st8" d="M503.2,349.6c-1,0-1.9,0.9-1.9,4.4s0.9,4.4,1.9,4.4s1.9-1,1.9-4.4S504.2,349.6,503.2,349.6z"/>
<linearGradient id="SVGID_9_" gradientUnits="userSpaceOnUse" x1="479.79" y1="776.7101" x2="484.27" y2="776.7101" gradientTransform="matrix(1 0 0 1 0 -479.36)">
	<stop  offset="0" style="stop-color:#344694"/>
	<stop  offset="1" style="stop-color:#263270"/>
</linearGradient>
<path class="st9" d="M480.6,302c0.1-0.1,0.2-0.1,0.2-0.2c1.9-2.4,3-5.3,3.4-8.3c-0.1-0.3-0.2-0.7-0.3-1.1c-0.3,0.3-0.7,0.5-1.1,0.7
	c-0.2,0.2-0.4,0.4-0.5,0.6c-0.8,1.8-1.6,3.6-2.3,5.5c-0.2,0.8-0.3,1.7-0.3,2.5c0,0.2,0.1,0.4,0.2,0.6
	C480.2,302.3,480.5,302.2,480.6,302z"/>
<linearGradient id="SVGID_10_" gradientUnits="userSpaceOnUse" x1="493.92" y1="776.93" x2="498.81" y2="776.93" gradientTransform="matrix(1 0 0 1 0 -479.36)">
	<stop  offset="0" style="stop-color:#344694"/>
	<stop  offset="1" style="stop-color:#263270"/>
</linearGradient>
<path class="st10" d="M495,302.1c0.1,0,0.1-0.1,0.2-0.2c1.9-2.3,3.1-5.1,3.6-8.1c0-0.4,0-0.9-0.2-1.3c-0.2,0-0.3,0.1-0.4,0.2
	c-0.2,0.1-0.3,0.3-0.4,0.4c-2.1,2.3-3.5,5.3-3.9,8.4c0,0.4,0,0.7,0.1,1.1L495,302.1z"/>
<linearGradient id="SVGID_11_" gradientUnits="userSpaceOnUse" x1="507.11" y1="777.3799" x2="512.14" y2="777.3799" gradientTransform="matrix(1 0 0 1 0 -479.36)">
	<stop  offset="0" style="stop-color:#344694"/>
	<stop  offset="1" style="stop-color:#263270"/>
</linearGradient>
<path class="st11" d="M508.3,302.5c0.1-0.1,0.2-0.1,0.2-0.2c1.9-2.4,3.2-5.2,3.6-8.2c0-0.3-0.1-0.7-0.2-1c-0.3,0.1-0.6,0.2-0.8,0.4
	c-2.3,2.4-3.3,5.3-4,8.5l0.4,0.9C507.8,302.8,508.1,302.6,508.3,302.5z"/>
<linearGradient id="SVGID_12_" gradientUnits="userSpaceOnUse" x1="520.33" y1="843.48" x2="524.21" y2="843.48" gradientTransform="matrix(1 0 0 1 0 -479.36)">
	<stop  offset="0" style="stop-color:#344694"/>
	<stop  offset="1" style="stop-color:#263270"/>
</linearGradient>
<path class="st12" d="M522.2,359.7c-1,0-1.9,0.9-1.9,4.4s0.9,4.4,1.9,4.4s1.9-1,1.9-4.4S523.3,359.7,522.2,359.7z"/>
<linearGradient id="SVGID_13_" gradientUnits="userSpaceOnUse" x1="399.0301" y1="778.08" x2="586.23" y2="778.08" gradientTransform="matrix(1 0 0 1 0 -479.36)">
	<stop  offset="0" style="stop-color:#344694"/>
	<stop  offset="1" style="stop-color:#263270"/>
</linearGradient>
<path class="st13" d="M585.8,226.5l0.4-98.5l-46-0.4c-5.8,29.9-20.9,45.2-45.8,46.3c-11.2,0.6-22.3-2.9-31.1-9.9
	c-12-9.3-17.3-22.2-18.4-35.6l-45.6-0.2l0.2,98.8l31.7-0.7l0.2,16.9l-32.1-1.2L399,469.6h45.7c2.7-31.1,26.8-46,48.2-45.8
	c25.1,0.2,42.7,17.5,46.9,45.8l45.3,0.2l0.5-228.6l-32.1,1v-17.1L585.8,226.5z M485.6,290.9c0,0.1,0.1,0.2,0.2,0.3l0,0
	c0.1,0,0.1,0.1,0.2,0.1l0.7-0.5c0.6-0.5,1.5-0.7,2.3-0.3c0.8,0.1,1.3,0.9,1.2,1.6c0,0.2-0.1,0.3-0.2,0.5c-0.8,1.8-1.6,3.6-2.3,5.5
	c-0.3,0.7-0.4,1.4-0.5,2.1c0,0.2,0.1,0.7,0.2,0.7c0.3,0.1,0.5,0,0.7-0.2c0.7-0.8,1.4-1.7,1.9-2.7c0.9-2,1.7-4.1,2.5-6.1
	c0.7-1.7,2.1-2.1,3.6-1c0.4,0.3,0.9,0.3,1.3,0c0.3-0.3,0.7-0.5,1.1-0.6c2.4-1.1,4.5,0.2,4.6,2.8c0,3-0.9,5.9-2.6,8.4l-0.5,0.8
	l0.2,0.2c0.6-0.4,1.3-0.9,1.8-1.5c0.5-0.6,0.9-1.3,1.2-2c1-2.3,1.8-4.6,2.8-6.8c0.4-1.1,1.6-1.7,2.7-1.4c0.3,0.1,0.6,0.3,0.8,0.5
	c0.3,0.3,0.8,0.3,1.2,0c0,0,0,0,0,0c0.4-0.3,0.8-0.6,1.3-0.8c1.5-0.8,3.3-0.2,4.1,1.3c0.2,0.4,0.3,0.9,0.3,1.3
	c0.2,1.7-0.1,3.3-0.7,4.9c-0.6,1.4-1.4,2.7-2.1,4.1l-0.2,0.4c1.3-0.3,2.3-1.2,2.8-2.4c0.5-1,0.8-2.2,1.2-3.2
	c0.7-1.6,1.4-3.2,2.2-4.7c0.6-1.1,1.9-1.5,3-1c0.7,0.1,1.2,0.9,1,1.6c0,0,0,0.1,0,0.1c0,0.2-0.1,0.3-0.2,0.4
	c-0.8,1.7-1.5,3.5-2.2,5.3c-0.3,0.8-0.5,1.6-0.6,2.4c0,0.3,0.1,0.5,0.3,0.7c0.3,0,0.5,0,0.7-0.2c0.7-0.7,1.3-1.4,2-2.1
	c0.2-0.3,0.4-0.5,0.7-0.7c0.3-0.1,0.6,0,0.9,0.1c0.2,0.2,0.2,0.5,0,0.7c-1.3,2.3-3,4.2-5.2,5.7c-0.6,0.4-1.4,0.6-2.1,0.7
	c-0.9,0.2-1.8-0.4-2-1.3c0-0.1,0-0.1,0-0.2l-0.3-1.3l-1,0.6c-1.7,1.2-3.8,1.9-5.9,2c-1.2,0.2-2.4-0.3-3.2-1.2
	c-0.1,0.2-0.2,0.5-0.3,0.7c-0.5,1.9-1.1,3.8-1.6,5.7c-0.1,0.7-0.8,1.3-1.5,1.2c-0.2,0-0.3-0.1-0.5-0.1c-1.2-0.2-2-1.5-1.8-2.7
	c0,0,0,0,0,0c0-0.1,0.1-0.2,0.1-0.3c0.4-1.6,0.9-3.1,1.3-4.7c0.1-0.2,0.1-0.5,0.1-0.7c-0.3,0.2-0.7,0.3-1,0.4
	c-1.4,0.8-3,1.3-4.6,1.5c-1.4,0.1-2.7,0.1-3.8-1.4c-0.5,1.7-0.9,3.2-1.3,4.6c-0.2,0.8-0.4,1.5-0.6,2.2c-0.1,0.6-0.7,1-1.3,0.9
	c-1.3,0-2.4-1-2.4-2.3c0,0,0,0,0-0.1c0-0.2,0-0.5,0.1-0.7l1.2-4.2c0.1-0.3,0.1-0.6,0.2-1.1c-0.2,0.2-0.5,0.4-0.8,0.5l-2.4,1.2
	c-0.8,0.4-1.8,0-2.2-0.8c0-0.1,0-0.1-0.1-0.2c-0.3-0.7-0.7-0.7-1.2-0.2c-0.7,0.7-1.7,1.1-2.7,1.1c-1.5,0.2-2.9-0.8-3.2-2.3
	c-0.3-1.4-0.3-2.9,0-4.3c0.4-2.4,1.5-4.7,3.1-6.6c1.1-1.4,2.7-2.3,4.5-2.4C484.3,289.5,485.2,290,485.6,290.9z M520.5,286.8
	L520.5,286.8c-0.1-1.6,1.1-2.9,2.7-3c0,0,0.1,0,0.1,0h0.1c1.6,0,2.9,1.3,3,2.9l0,0c-0.1,1.6-1.4,2.9-3,2.9l0,0
	C521.9,289.7,520.6,288.4,520.5,286.8C520.5,286.9,520.5,286.8,520.5,286.8z M472.2,291.4c0.6-1,0.9-2.1,0.8-3.3
	c0-1.3-0.9-2.4-2.2-2.6c-1.4-0.4-2.9-0.1-4.2,0.6c-2.4,1.3-4,3.6-4.5,6.2c-0.2,1.1-1,1.5-1.9,1c-1.2-0.7-1.7-2.1-1.2-3.4l0,0
	c0.2-0.8,0.6-1.5,1.1-2.1c2-2.6,4.9-4.2,8.1-4.5c1.9-0.2,3.8,0.1,5.6,0.6c0.2,0.1,0.5,0.2,0.7,0.3c4.2,1.9,4.6,5.7,2,8.9
	c-1.4,1.6-3.2,2.7-5.3,3.3c-0.6,0.1-1,0.7-0.9,1.3l0,0c0.1,2,0.6,3.9,1.4,5.7c0.8,1.6,2.2,2.8,4,3.2c1.1,0.2,2.3,0,3.3-0.5
	c0.2-0.1,0.4-0.3,0.6-0.3s0.9,0,0.9,0.2c0.1,0.3,0,0.7-0.2,1c-1.7,1.7-3.9,2.7-6.3,2.9c-2.8,0.1-5.3-1.5-6.3-4.1
	c-0.6-1.6-1.1-3.2-1.5-4.9c0-0.2-0.1-0.3-0.1-0.5h-0.3c-0.3,1-0.6,2.1-0.8,3.1c-0.5,2-1.8,2.4-3.4,1.1c-0.7-0.5-1.1-1.5-0.8-2.4
	c1.1-4.6,2.6-9,4.6-13.3c0.3-1.1,1.4-1.7,2.5-1.5c0.4,0,0.8,0,1.2,0c1.3,0.1,1.6,0.5,1.1,1.7l-2.1,5c-0.1,0.4-0.2,0.7-0.3,1.1
	C469.6,294.4,471.1,293.1,472.2,291.4L472.2,291.4z M449.7,227l32.9-0.1v13.7h-32.8L449.7,227z M472.8,371.7h-16.4v-5.4h5.3v-12.7
	H457v-4.1c2.3-0.3,4.5-1.2,6.5-2.4h4.9v19.2h4.4L472.8,371.7L472.8,371.7z M484.6,372.2c-3.3,0.1-6.5-1.2-8.9-3.5l3-4.2
	c1.3,1.3,3.1,2.1,5,2.3c2.3,0,3.7-1,3.7-3.2c0.1-1.7-1.1-3.1-2.8-3.2c-0.2,0-0.3,0-0.5,0c-1.2,0-2.5,0.4-3.4,1.2l-2.9-1.9l0.6-12.7
	H493v5.6h-8.9l-0.3,3.6c0.7-0.3,1.5-0.4,2.3-0.4c4.3,0,7.9,2.4,7.9,7.6C493.9,369,489.6,372.2,484.6,372.2L484.6,372.2z
	 M492.5,328.4c-0.3,0.2-0.5,0.6-0.6,0.9c-2.6,3.9-6,6.9-10.6,8c-5.8,1.5-11.5,1-16.6-2.4c-3.6-2.4-6.1-6.1-7-10.3
	c0-0.2-0.1-0.4-0.1-0.7l0.6,0.3l0.9,0.6c2.9,2,5.9,2.1,8.7,0c2.4-1.7,4.6-3.6,6.9-5.3c1.4-1.2,3.1-2.2,4.9-2.7
	c2.3-0.6,4.7-0.3,6.7,0.9c1.4,0.8,2.6,1.8,3.9,2.7l1,0.7c0.9,0.6,2,0.5,2.8-0.2c0.7-0.5,1.4-1.1,2-1.7c2.6-2.2,5.5-3.5,8.9-2.6
	c1.5,0.4,3,1.1,4.3,2c2.5,1.7,4.8,3.7,7.3,5.5c1.6,1.4,3.7,2,5.8,1.7c1.5-0.3,2.9-1,4.1-2l1.1-0.8c-2,6.5-5,11.7-11.8,13.7l0,0
	C506.1,339.5,498.3,337,492.5,328.4L492.5,328.4z M496.7,354c0-5.1,2.8-8,6.5-8s6.5,3,6.5,8s-2.8,8.1-6.5,8.1S496.7,359,496.7,354
	L496.7,354z M504.1,372.2l13.5-26.2h3.7l-13.5,26.2H504.1z M522.2,372.2c-3.7,0-6.5-3-6.5-8.1s2.8-8,6.5-8s6.5,3,6.5,8
	S526,372.2,522.2,372.2L522.2,372.2z M534.6,241.8l-33.3-0.2l-0.3-14.4h33.9L534.6,241.8z"/>
<polygon class="st7" points="547.4,392.5 543.4,392.5 543.4,391.5 546.4,391.5 546.4,388.5 547.4,388.5 "/>
<path class="st7" d="M536.6,392.5h-6.8v-1h6.8V392.5z M523.1,392.5h-6.8v-1h6.8V392.5z M509.5,392.5h-6.8v-1h6.8V392.5z M496,392.5
	h-6.8v-1h6.8L496,392.5z M482.4,392.5h-6.8v-1h6.8V392.5z M468.9,392.5h-6.8v-1h6.8V392.5z M455.3,392.5h-6.8v-1h6.8V392.5z"/>
<polygon class="st7" points="441.8,392.5 437.8,392.5 437.8,388.5 438.8,388.5 438.8,391.5 441.8,391.5 "/>
<path class="st7" d="M438.8,381.5h-1v-7h1V381.5z M438.8,367.5h-1v-7h1V367.5z M438.8,353.5h-1v-7h1V353.5z M438.8,339.5h-1v-7h1
	V339.5z M438.8,325.5h-1v-7h1V325.5z M438.8,311.5h-1v-7h1V311.5z M438.8,297.5h-1v-7h1V297.5z M438.8,283.5h-1v-7h1V283.5z"/>
<polygon class="st7" points="438.8,269.5 437.8,269.5 437.8,265.5 441.8,265.5 441.8,266.5 438.8,266.5 "/>
<path class="st7" d="M536.6,266.5h-6.8v-1h6.8V266.5z M523.1,266.5h-6.8v-1h6.8V266.5z M509.5,266.5h-6.8v-1h6.8V266.5z M496,266.5
	h-6.8v-1h6.8L496,266.5z M482.4,266.5h-6.8v-1h6.8V266.5z M468.9,266.5h-6.8v-1h6.8V266.5z M455.3,266.5h-6.8v-1h6.8V266.5z"/>
<polygon class="st7" points="547.4,269.5 546.4,269.5 546.4,266.5 543.4,266.5 543.4,265.5 547.4,265.5 "/>
<path class="st7" d="M547.4,381.5h-1v-7h1V381.5z M547.4,367.5h-1v-7h1V367.5z M547.4,353.5h-1v-7h1V353.5z M547.4,339.5h-1v-7h1
	V339.5z M547.4,325.5h-1v-7h1V325.5z M547.4,311.5h-1v-7h1V311.5z M547.4,297.5h-1v-7h1V297.5z M547.4,283.5h-1v-7h1V283.5z"/>
<linearGradient id="SVGID_14_" gradientUnits="userSpaceOnUse" x1="826.63" y1="777.7101" x2="831.12" y2="777.7101" gradientTransform="matrix(1 0 0 1 0 -479.36)">
	<stop  offset="0" style="stop-color:#344694"/>
	<stop  offset="1" style="stop-color:#263270"/>
</linearGradient>
<path class="st14" d="M827.5,303c0.1-0.1,0.2-0.1,0.2-0.2c1.9-2.4,3-5.3,3.4-8.3c-0.1-0.3-0.2-0.7-0.3-1.1c-0.3,0.3-0.7,0.5-1.1,0.7
	c-0.2,0.2-0.4,0.4-0.5,0.6c-0.8,1.8-1.6,3.6-2.3,5.5c-0.2,0.8-0.3,1.7-0.3,2.5c0,0.2,0.1,0.4,0.2,0.6
	C827.1,303.3,827.3,303.2,827.5,303z"/>
<linearGradient id="SVGID_15_" gradientUnits="userSpaceOnUse" x1="853.96" y1="778.3799" x2="858.99" y2="778.3799" gradientTransform="matrix(1 0 0 1 0 -479.36)">
	<stop  offset="0" style="stop-color:#344694"/>
	<stop  offset="1" style="stop-color:#263270"/>
</linearGradient>
<path class="st15" d="M855.2,303.5c0.1-0.1,0.2-0.1,0.2-0.2c1.9-2.4,3.2-5.2,3.6-8.2c0-0.3-0.1-0.7-0.2-1c-0.3,0.1-0.6,0.2-0.8,0.4
	c-2.3,2.4-3.3,5.3-4,8.5l0.4,0.9C854.7,303.8,854.9,303.6,855.2,303.5z"/>
<linearGradient id="SVGID_16_" gradientUnits="userSpaceOnUse" x1="830.59" y1="840.38" x2="836.08" y2="840.38" gradientTransform="matrix(1 0 0 1 0 -479.36)">
	<stop  offset="0" style="stop-color:#344694"/>
	<stop  offset="1" style="stop-color:#263270"/>
</linearGradient>
<path class="st16" d="M833.3,353.7c-1.5,0-2.7,1-2.7,7.2s1.3,7.4,2.7,7.4s2.7-1.2,2.7-7.4S834.8,353.7,833.3,353.7z"/>
<linearGradient id="SVGID_17_" gradientUnits="userSpaceOnUse" x1="840.76" y1="777.93" x2="845.65" y2="777.93" gradientTransform="matrix(1 0 0 1 0 -479.36)">
	<stop  offset="0" style="stop-color:#344694"/>
	<stop  offset="1" style="stop-color:#263270"/>
</linearGradient>
<path class="st17" d="M841.9,303.1c0.1,0,0.1-0.1,0.2-0.2c1.9-2.3,3.1-5.1,3.6-8.1c0-0.4,0-0.9-0.2-1.3c-0.2,0-0.3,0.1-0.4,0.2
	c-0.2,0.1-0.3,0.3-0.4,0.4c-2.1,2.3-3.5,5.3-3.9,8.4c0,0.4,0,0.7,0.1,1.1L841.9,303.1z"/>
<linearGradient id="SVGID_18_" gradientUnits="userSpaceOnUse" x1="745.8" y1="778.06" x2="933" y2="778.06" gradientTransform="matrix(1 0 0 1 0 -479.36)">
	<stop  offset="0" style="stop-color:#344694"/>
	<stop  offset="1" style="stop-color:#263270"/>
</linearGradient>
<path class="st18" d="M932.6,226.5L933,128l-46-0.4c-5.8,29.9-20.9,45.2-45.8,46.3c-11.2,0.6-22.3-2.9-31.1-9.9
	c-12-9.3-17.3-22.2-18.4-35.6l-45.6-0.2l0.2,98.8l31.7-0.7l0.2,16.9l-32.1-1.2l-0.3,227.6h45.7c2.7-31.1,26.8-46,48.2-45.8
	c25.1,0.2,42.7,17.5,46.9,45.8l45.3,0.2l0.7-228.6l-32.1,1v-17.1L932.6,226.5z M832.5,291.9c0,0.1,0.1,0.2,0.2,0.3l0,0
	c0.1,0,0.1,0.1,0.2,0.1l0.7-0.5c0.6-0.5,1.5-0.7,2.3-0.3c0.8,0.1,1.3,0.9,1.2,1.6c0,0.2-0.1,0.3-0.2,0.5c-0.8,1.8-1.6,3.6-2.3,5.5
	c-0.3,0.7-0.4,1.4-0.5,2.1c0,0.2,0.1,0.7,0.2,0.7c0.3,0.1,0.5,0,0.7-0.2c0.7-0.8,1.4-1.7,1.9-2.7c0.9-2,1.7-4.1,2.5-6.1
	c0.7-1.7,2.1-2.1,3.6-1c0.4,0.3,0.9,0.3,1.3,0c0.3-0.3,0.7-0.5,1.1-0.6c2.4-1.1,4.5,0.2,4.6,2.8c0,3-0.9,5.9-2.6,8.4l-0.5,0.8
	l0.2,0.2c0.6-0.4,1.3-0.9,1.8-1.5c0.5-0.6,0.9-1.3,1.2-2c1-2.3,1.8-4.6,2.8-6.8c0.4-1.1,1.6-1.7,2.7-1.4c0.3,0.1,0.6,0.3,0.8,0.5
	c0.3,0.3,0.8,0.3,1.2,0c0,0,0,0,0,0c0.4-0.3,0.8-0.6,1.3-0.8c1.5-0.8,3.3-0.2,4.1,1.3c0.2,0.4,0.3,0.9,0.3,1.3
	c0.2,1.7-0.1,3.3-0.7,4.9c-0.6,1.4-1.4,2.7-2.1,4.1l-0.2,0.4c1.3-0.3,2.3-1.2,2.8-2.4c0.5-1,0.8-2.2,1.2-3.2
	c0.7-1.6,1.4-3.2,2.2-4.7c0.6-1.1,1.9-1.5,3-1c0.7,0.1,1.2,0.9,1,1.6c0,0,0,0.1,0,0.1c0,0.2-0.1,0.3-0.2,0.4
	c-0.8,1.7-1.5,3.5-2.2,5.3c-0.3,0.8-0.5,1.6-0.6,2.4c0,0.3,0.1,0.5,0.3,0.7c0.3,0,0.5,0,0.7-0.2c0.7-0.7,1.3-1.4,2-2.1
	c0.2-0.3,0.4-0.5,0.7-0.7c0.3-0.1,0.6,0,0.9,0.1c0.2,0.2,0.2,0.5,0,0.7c-1.3,2.3-3,4.2-5.2,5.7c-0.6,0.4-1.4,0.6-2.1,0.7
	c-0.9,0.2-1.8-0.4-2-1.3c0-0.1,0-0.1,0-0.2l-0.3-1.3l-1,0.6c-1.7,1.2-3.8,1.9-5.9,2c-1.2,0.2-2.4-0.3-3.2-1.2
	c-0.1,0.2-0.2,0.5-0.3,0.7c-0.5,1.9-1.1,3.8-1.6,5.7c-0.1,0.7-0.8,1.3-1.5,1.2c-0.2,0-0.3-0.1-0.5-0.1c-1.2-0.2-2-1.5-1.8-2.7
	c0,0,0,0,0,0c0-0.1,0.1-0.2,0.1-0.3c0.4-1.6,0.9-3.1,1.3-4.7c0.1-0.2,0.1-0.5,0.1-0.7c-0.3,0.2-0.7,0.3-1,0.4
	c-1.4,0.8-3,1.3-4.6,1.5c-1.4,0.1-2.7,0.1-3.8-1.4c-0.5,1.7-0.9,3.2-1.3,4.6c-0.2,0.8-0.4,1.5-0.6,2.2c-0.1,0.6-0.7,1-1.3,0.9
	c-1.3,0-2.4-1-2.4-2.3c0,0,0,0,0-0.1c0-0.2,0-0.5,0.1-0.7l1.2-4.2c0.1-0.3,0.1-0.6,0.2-1.1c-0.2,0.2-0.5,0.4-0.8,0.5l-2.4,1.2
	c-0.8,0.4-1.8,0-2.2-0.8c0-0.1,0-0.1-0.1-0.2c-0.3-0.7-0.7-0.7-1.2-0.2c-0.7,0.7-1.7,1.1-2.7,1.1c-1.5,0.2-2.9-0.8-3.2-2.3
	c-0.3-1.4-0.3-2.9,0-4.3c0.4-2.4,1.5-4.7,3.1-6.6c1.1-1.4,2.7-2.3,4.5-2.4C830.8,290.3,831.9,290.9,832.5,291.9z M867.3,287.8
	L867.3,287.8c-0.1-1.6,1.1-2.9,2.7-3c0,0,0.1,0,0.1,0h0.1c1.6,0,2.9,1.3,3,2.9l0,0c-0.1,1.6-1.4,2.9-3,2.9l0,0
	C868.6,290.7,867.3,289.4,867.3,287.8C867.3,287.9,867.3,287.8,867.3,287.8z M819,292.4c0.6-1,0.9-2.1,0.8-3.3
	c0-1.3-0.9-2.4-2.2-2.6c-1.4-0.4-2.9-0.1-4.2,0.6c-2.4,1.3-4,3.6-4.5,6.2c-0.2,1.1-1,1.5-1.9,1c-1.2-0.7-1.7-2.1-1.2-3.4l0,0
	c0.2-0.8,0.6-1.5,1.1-2.1c2-2.6,4.9-4.2,8.1-4.5c1.9-0.2,3.8,0.1,5.6,0.6c0.2,0.1,0.5,0.2,0.7,0.3c4.2,1.9,4.6,5.7,2,8.9
	c-1.4,1.6-3.2,2.7-5.3,3.3c-0.6,0.1-1,0.7-0.9,1.3l0,0c0.1,2,0.6,3.9,1.4,5.7c0.8,1.6,2.2,2.8,4,3.2c1.1,0.2,2.3,0,3.3-0.5
	c0.2-0.1,0.4-0.3,0.6-0.3s0.9,0,0.9,0.2c0.1,0.3,0,0.7-0.2,1c-1.7,1.7-3.9,2.7-6.3,2.9c-2.8,0.1-5.3-1.5-6.3-4.1
	c-0.6-1.6-1.1-3.2-1.5-4.9c0-0.2-0.1-0.3-0.1-0.5h-0.3c-0.3,1-0.6,2.1-0.8,3.1c-0.5,2-1.8,2.4-3.4,1.1c-0.7-0.5-1.1-1.5-0.8-2.4
	c1.1-4.6,2.6-9,4.6-13.3c0.3-1.1,1.4-1.7,2.5-1.5c0.4,0,0.8,0,1.2,0c1.3,0.1,1.6,0.5,1.1,1.7l-2.1,5c-0.1,0.4-0.2,0.7-0.3,1.1
	C816.4,295.4,818,294.1,819,292.4z M796.5,227l32.9-0.1v13.7h-32.8L796.5,227z M812.6,373.2c-3.2,0.1-6.2-1.1-8.5-3.3l2.8-4
	c1.3,1.3,3,2.1,4.8,2.2c2.2,0,3.5-1,3.5-3s-1.3-3-3.2-3c-1.2,0-2.4,0.4-3.3,1.1l-2.7-1.8l0.6-12.1h14v5.3h-8.5l-0.3,3.4
	c0.7-0.3,1.4-0.4,2.2-0.4c4.1,0,7.6,2.3,7.6,7.3C821.5,370.1,817.4,373.2,812.6,373.2L812.6,373.2z M833.3,373.2
	c-5.2,0-8.8-4.3-8.8-12.3s3.6-12.1,8.8-12.1s8.8,4.1,8.8,12.1S838.5,373.2,833.3,373.2L833.3,373.2z M839.4,329.4
	c-0.3,0.2-0.5,0.6-0.6,0.9c-2.6,3.9-6,6.9-10.6,8c-5.8,1.5-11.5,1-16.6-2.4c-3.6-2.4-6.1-6.1-7-10.3c0-0.2-0.1-0.4-0.1-0.7l0.6,0.3
	l0.9,0.6c2.9,2,5.9,2.1,8.7,0c2.4-1.7,4.6-3.6,6.9-5.3c1.4-1.2,3.1-2.2,4.9-2.7c2.3-0.6,4.7-0.3,6.7,0.9c1.4,0.8,2.6,1.8,3.9,2.7
	c0.3,0.2,0.7,0.5,1,0.7c0.9,0.6,2,0.5,2.8-0.2c0.7-0.5,1.4-1.1,2-1.7c2.6-2.2,5.5-3.5,8.9-2.6c1.5,0.4,3,1.1,4.3,2
	c2.5,1.7,4.8,3.7,7.3,5.5c1.6,1.4,3.7,2,5.8,1.7c1.5-0.3,2.9-1,4.1-2l1.1-0.8c-2,6.5-5,11.7-11.8,13.7l0,0
	C853,340.5,845.1,338,839.4,329.4L839.4,329.4z M844.2,355.8c0-4.8,2.7-7.6,6.2-7.6s6.2,2.8,6.2,7.6s-2.7,7.7-6.2,7.7
	S844.2,360.6,844.2,355.8L844.2,355.8z M851.3,373.2l12.9-25h3.6l-12.9,25H851.3z M868.6,373.2c-3.6,0-6.2-2.9-6.2-7.7
	s2.7-7.6,6.2-7.6s6.2,2.8,6.2,7.6S872.2,373.2,868.6,373.2L868.6,373.2z M881.5,241.8l-33.3-0.2l-0.3-14.4h33.9L881.5,241.8z"/>
<linearGradient id="SVGID_19_" gradientUnits="userSpaceOnUse" x1="848.55" y1="835.28" x2="852.26" y2="835.28" gradientTransform="matrix(1 0 0 1 0 -479.36)">
	<stop  offset="0" style="stop-color:#344694"/>
	<stop  offset="1" style="stop-color:#263270"/>
</linearGradient>
<path class="st19" d="M850.4,351.7c-1,0-1.9,0.9-1.9,4.2s0.9,4.2,1.9,4.2s1.9-1,1.9-4.2C852.3,352.5,851.4,351.7,850.4,351.7z"/>
<linearGradient id="SVGID_20_" gradientUnits="userSpaceOnUse" x1="866.74" y1="844.88" x2="870.45" y2="844.88" gradientTransform="matrix(1 0 0 1 0 -479.36)">
	<stop  offset="0" style="stop-color:#344694"/>
	<stop  offset="1" style="stop-color:#263270"/>
</linearGradient>
<path class="st20" d="M868.6,361.3c-1,0-1.9,0.9-1.9,4.2s0.9,4.2,1.9,4.2s1.9-1,1.9-4.2S869.6,361.3,868.6,361.3z"/>
<polygon class="st7" points="894.2,392.5 890.2,392.5 890.2,391.5 893.2,391.5 893.2,388.5 894.2,388.5 "/>
<path class="st7" d="M883.5,392.5h-6.8v-1h6.8V392.5z M870,392.5h-6.8v-1h6.8L870,392.5z M856.4,392.5h-6.8v-1h6.8V392.5z
	 M842.8,392.5H836v-1h6.8L842.8,392.5z M829.3,392.5h-6.8v-1h6.8V392.5z M815.7,392.5h-6.8v-1h6.8V392.5z M802.2,392.5h-6.8v-1h6.8
	V392.5z"/>
<polygon class="st7" points="788.5,392.5 784.5,392.5 784.5,388.5 785.5,388.5 785.5,391.5 788.5,391.5 "/>
<path class="st7" d="M785.5,381.5h-1v-7h1V381.5z M785.5,367.5h-1v-7h1V367.5z M785.5,353.5h-1v-7h1V353.5z M785.5,339.5h-1v-7h1
	V339.5z M785.5,325.5h-1v-7h1V325.5z M785.5,311.5h-1v-7h1V311.5z M785.5,297.5h-1v-7h1V297.5z M785.5,283.5h-1v-7h1V283.5z"/>
<polygon class="st7" points="785.5,269.5 784.5,269.5 784.5,265.5 788.5,265.5 788.5,266.5 785.5,266.5 "/>
<path class="st7" d="M883.5,266.5h-6.8v-1h6.8V266.5z M870,266.5h-6.8v-1h6.8L870,266.5z M856.4,266.5h-6.8v-1h6.8V266.5z
	 M842.8,266.5H836v-1h6.8L842.8,266.5z M829.3,266.5h-6.8v-1h6.8V266.5z M815.7,266.5h-6.8v-1h6.8V266.5z M802.2,266.5h-6.8v-1h6.8
	V266.5z"/>
<polygon class="st7" points="894.2,269.5 893.2,269.5 893.2,266.5 890.2,266.5 890.2,265.5 894.2,265.5 "/>
<path class="st7" d="M894.2,381.5h-1v-7h1V381.5z M894.2,367.5h-1v-7h1V367.5z M894.2,353.5h-1v-7h1V353.5z M894.2,339.5h-1v-7h1
	V339.5z M894.2,325.5h-1v-7h1V325.5z M894.2,311.5h-1v-7h1V311.5z M894.2,297.5h-1v-7h1V297.5z M894.2,283.5h-1v-7h1V283.5z"/>
<path class="st21" d="M77.2,513.6h6.2v-16.6h-5.4V493c2.5-0.4,4.9-1.3,7.1-2.6h4.9v23.3h5.4v5.3H77.2V513.6z"/>
<path class="st21" d="M98.9,515.5l3-4.2c1.6,1.7,3.8,2.7,6.2,2.8c2.9,0,4.8-1.5,4.8-4.5s-1.8-4.4-4.5-4.4c-1.5,0-3,0.5-4.2,1.4
	l-3-1.9l0.8-14.5h16.3v5.6h-10.5l-0.5,5.4c1-0.5,2.1-0.7,3.2-0.7c4.9,0,9.1,2.8,9.1,8.9c0,6.4-4.9,10-10.5,10
	C105.3,519.7,101.6,518.2,98.9,515.5z"/>
<path class="st21" d="M123.4,504.5c0-9.8,4.1-14.8,10.2-14.8s10.2,5,10.2,14.8c0,9.8-4.1,15-10.2,15S123.4,514.3,123.4,504.5z
	 M137.6,504.5c0-7.9-1.7-9.6-4-9.6s-4,1.8-4,9.6s1.8,9.8,4,9.8S137.6,512.4,137.6,504.5z"/>
<path class="st21" d="M147.2,504.5c0-9.8,4.1-14.8,10.3-14.8s10.2,5,10.2,14.8c0,9.8-4.1,15-10.2,15S147.2,514.3,147.2,504.5z
	 M161.5,504.5c0-7.9-1.7-9.6-4-9.6s-4,1.8-4,9.6s1.8,9.8,4,9.8S161.5,512.4,161.5,504.5z"/>
<path class="st21" d="M172.4,496.6h5.4l0.5,2.2h0.2c1.7-1.7,4-2.6,6.4-2.8c5.4,0,8.8,4.5,8.8,11.4c0,7.7-4.6,12.1-9.4,12.1
	c-2-0.1-3.9-0.9-5.3-2.3l0.2,3.6v6.5h-6.6L172.4,496.6z M186.7,507.5c0-4-1.2-6-3.9-6c-1.5,0.1-2.9,0.8-3.8,2v9.2
	c1,0.9,2.2,1.4,3.6,1.5C184.9,514.1,186.7,512.1,186.7,507.5z"/>
<path class="st21" d="M198,510.9v-9.1h-3.1v-4.9l3.4-0.3l0.8-6h5.5v6h5.4v5.2h-5.4v9c0,2.5,1.1,3.6,2.9,3.6c0.7,0,1.5-0.2,2.1-0.5
	l1,4.8c-1.6,0.5-3.3,0.8-5,0.8C200.1,519.5,198,516.1,198,510.9z"/>
<path class="st21" d="M211.9,516.4l3-4.2c1.6,1.4,3.6,2.2,5.8,2.3c2,0,2.9-0.7,2.9-1.9c0-1.5-2.3-2.2-4.6-3.1
	c-2.7-1-5.9-2.9-5.9-6.6c0-4.1,3.4-7,8.6-7c2.9,0,5.7,1,7.9,2.9l-3,4c-1.3-1.1-3-1.8-4.7-1.9c-1.7,0-2.5,0.6-2.5,1.8
	c0,1.4,2.1,2,4.4,2.8c2.9,1,6.1,2.6,6.1,6.7c0,4.1-3.2,7.2-9.2,7.2C217.4,519.5,214.4,518.4,211.9,516.4z"/>
<path class="st21" d="M415.3,516.9l3.1-4.2c1.6,1.8,3.9,2.8,6.3,2.9c2.8,0,4.7-1.2,4.7-3.4c0-2.5-1.5-4.1-7.7-4.1v-4.7
	c5.1,0,6.8-1.5,6.8-3.8c0-2-1.3-3.2-3.5-3.2c-2,0-3.6,1-5.4,2.5l-3.3-4.1c2.4-2.3,5.6-3.6,9-3.7c5.9,0,9.9,2.8,9.9,7.9
	c0,3-1.7,5.1-4.8,6.4v0.2c3.3,0.9,5.7,3.3,5.7,7c0,5.3-4.9,8.3-10.6,8.3C420.6,520.9,417.4,519.3,415.3,516.9z"/>
<path class="st21" d="M439.2,516.9l3-4.2c1.6,1.7,3.8,2.7,6.2,2.8c2.9,0,4.8-1.5,4.8-4.5s-1.9-4.4-4.5-4.4c-1.5,0-3,0.5-4.2,1.5
	l-3-1.9l0.8-14.5h16.3v5.6H448l-0.5,5.4c1-0.5,2.1-0.7,3.2-0.7c4.9,0,9.1,2.8,9.1,8.9c0,6.4-4.9,10-10.5,10
	C445.5,521,441.8,519.6,439.2,516.9z"/>
<path class="st21" d="M463.6,505.9c0-9.8,4.1-14.8,10.3-14.8s10.2,5,10.2,14.8c0,9.8-4.1,15-10.2,15S463.6,515.7,463.6,505.9z
	 M477.9,505.9c0-7.9-1.7-9.6-4-9.6s-4,1.8-4,9.6s1.8,9.8,4,9.8S477.9,513.8,477.9,505.9z"/>
<path class="st21" d="M487.5,505.9c0-9.8,4.1-14.8,10.2-14.8s10.3,5,10.3,14.8c0,9.8-4.1,15-10.3,15S487.5,515.7,487.5,505.9z
	 M501.7,505.9c0-7.9-1.7-9.6-4-9.6s-4,1.8-4,9.6s1.8,9.8,4,9.8S501.7,513.8,501.7,505.9z"/>
<path class="st21" d="M512.6,498h5.4l0.5,2.2h0.2c1.7-1.7,4-2.6,6.4-2.8c5.4,0,8.8,4.5,8.8,11.4c0,7.7-4.6,12.1-9.4,12.1
	c-2-0.1-3.9-0.9-5.3-2.3l0.2,3.6v6.5h-6.6L512.6,498z M527,508.9c0-4-1.2-6-3.9-6c-1.5,0.1-2.9,0.8-3.8,2v9.2c1,0.9,2.2,1.4,3.6,1.4
	C525.1,515.5,527,513.5,527,508.9z"/>
<path class="st21" d="M538.2,512.3v-9.1h-3.1v-4.9l3.4-0.3l0.8-6h5.5v6h5.4v5.2h-5.4v9c0,2.5,1.1,3.6,2.9,3.6c0.7,0,1.4-0.2,2.1-0.5
	l1,4.8c-1.6,0.5-3.3,0.8-5,0.8C540.4,520.9,538.2,517.5,538.2,512.3z"/>
<path class="st21" d="M552.2,517.8l3-4.2c1.6,1.4,3.6,2.2,5.8,2.3c2,0,2.8-0.7,2.8-1.9c0-1.5-2.3-2.2-4.6-3.1
	c-2.7-1-5.9-2.9-5.9-6.6c0-4.2,3.4-7,8.6-7c2.9,0,5.7,1,7.9,2.8l-3,4c-1.3-1.1-3-1.8-4.7-1.9c-1.7,0-2.5,0.6-2.5,1.8
	c0,1.5,2.1,2,4.4,2.9c2.8,1,6,2.6,6,6.7s-3.2,7.2-9.2,7.2C557.6,520.9,554.6,519.8,552.2,517.8z"/>
<path class="st21" d="M762.5,514.7c0-3.5,2.2-5.6,4.9-7v-0.2c-2.2-1.7-3.8-3.8-3.8-6.8c0-4.9,3.8-7.9,9.2-7.9s8.7,3.1,8.7,7.9
	c-0.1,2.6-1.5,4.9-3.8,6.3v0.2c2.8,1.5,5,3.7,5,7.5c0,4.5-4.1,8-10.2,8C766.8,522.5,762.5,519.3,762.5,514.7z M776.5,514.4
	c0-2.5-2.4-3.5-6.1-5c-1.3,1.2-2.1,2.8-2.2,4.6c0,2.5,2,4,4.4,4C774.8,517.9,776.5,516.8,776.5,514.4L776.5,514.4z M776.1,501.1
	c0.2-1.8-1.2-3.5-3-3.7c-0.2,0-0.3,0-0.5,0c-1.7-0.1-3.1,1.1-3.2,2.8c0,0.2,0,0.3,0,0.5c0,2.4,2,3.5,4.9,4.6
	C775.4,504.2,776,502.7,776.1,501.1L776.1,501.1z"/>
<path class="st21" d="M786.1,507.5c0-9.8,4.1-14.8,10.2-14.8s10.3,5,10.3,14.8c0,9.8-4.1,15-10.3,15S786.1,517.3,786.1,507.5z
	 M800.4,507.5c0-7.9-1.7-9.6-4-9.6s-4,1.8-4,9.6s1.8,9.8,4,9.8S800.4,515.4,800.4,507.5z"/>
<path class="st21" d="M810,507.5c0-9.8,4.1-14.8,10.2-14.8s10.2,5,10.2,14.8c0,9.8-4.1,15-10.2,15S810,517.3,810,507.5z
	 M824.2,507.5c0-7.9-1.7-9.6-4-9.6s-4,1.8-4,9.6s1.8,9.8,4,9.8S824.2,515.4,824.2,507.5L824.2,507.5z"/>
<path class="st21" d="M833.8,507.5c0-9.8,4.1-14.8,10.3-14.8s10.2,5,10.2,14.8c0,9.8-4.1,15-10.2,15S833.8,517.3,833.8,507.5z
	 M848,507.5c0-7.9-1.7-9.6-4-9.6s-4,1.8-4,9.6s1.8,9.8,4,9.8S848,515.4,848,507.5z"/>
<path class="st21" d="M858.9,499.6h5.4l0.5,2.2h0.2c1.7-1.7,4-2.6,6.4-2.8c5.4,0,8.8,4.5,8.8,11.4c0,7.7-4.6,12.1-9.4,12.1
	c-2-0.1-3.9-0.9-5.3-2.3l0.2,3.6v6.5h-6.6L858.9,499.6z M873.3,510.5c0-4-1.2-6-3.9-6c-1.5,0.1-2.9,0.8-3.8,2v9.2
	c1,0.9,2.2,1.4,3.6,1.5C871.5,517.1,873.3,515.1,873.3,510.5z"/>
<path class="st21" d="M884.5,513.9v-9.1h-3.1v-4.9l3.4-0.3l0.8-6h5.5v6h5.4v5.2h-5.4v9c0,2.5,1.1,3.6,2.9,3.6c0.7,0,1.5-0.2,2.1-0.5
	l1,4.8c-1.6,0.5-3.3,0.8-5,0.8C886.7,522.5,884.5,519.1,884.5,513.9z"/>
<path class="st21" d="M898.5,519.4l3-4.2c1.6,1.4,3.6,2.2,5.8,2.3c2,0,2.8-0.7,2.8-1.9c0-1.5-2.3-2.2-4.6-3.1
	c-2.7-1-5.9-2.9-5.9-6.6c0-4.1,3.4-7,8.6-7c2.9,0,5.7,1,7.9,2.9l-3,4c-1.3-1.1-3-1.8-4.7-1.9c-1.7,0-2.5,0.6-2.5,1.8
	c0,1.4,2.1,2,4.4,2.8c2.8,1,6.1,2.6,6.1,6.7c0,4.1-3.2,7.2-9.2,7.2C904,522.5,900.9,521.4,898.5,519.4z"/>
<path class="st22" d="M0,24C0,11,8.6,3.5,19.1,3.5c4.6-0.1,9.1,1.8,12.3,5.1l-4.6,5.6c-2-1.7-4-3.1-7.4-3.1
	c-6.1,0-10.3,4.7-10.3,12.6c0,8,3.7,12.7,11,12.7c1.5,0.1,3-0.4,4.2-1.2v-6.7h-6.5v-7.2H32v18c-3.5,3.1-8.1,4.8-12.9,4.7
	C8.4,44,0,37.1,0,24z"/>
<path class="st22" d="M38,35c0-6.2,5-9.7,16.7-10.9c-0.2-2.6-1.4-4.3-4.7-4.3c-2.5,0-5,1-7.9,2.7L39,16.7c3.8-2.4,8.2-3.8,12.7-3.9
	c7.6,0,11.8,4.3,11.8,13.4v17h-7.2l-0.6-3.1h-0.2C53,42.5,50.3,44,46.9,44C41.5,44,38,40.1,38,35z M54.7,34.6v-5.2
	c-6.2,0.8-8.3,2.6-8.3,4.9c0,1.9,1.3,2.8,3.4,2.8S53.2,36.2,54.7,34.6L54.7,34.6z"/>
<path class="st22" d="M71,13.6h7.2l0.6,3.8H79c2.5-2.4,5.5-4.5,9.5-4.5c6.5,0,9.2,4.6,9.2,12v18.5H89V26c0-4.3-1.1-5.6-3.7-5.6
	c-2.2,0-3.6,1-5.5,2.9v20.1H71V13.6z"/>
<path class="st22" d="M104,35c0-6.2,5-9.7,16.7-10.9c-0.2-2.6-1.4-4.3-4.7-4.3c-2.5,0-5,1-7.9,2.7l-3.2-5.8
	c3.8-2.4,8.2-3.8,12.7-3.9c7.6,0,11.8,4.3,11.8,13.4v17h-7.2l-0.6-3.1h-0.2c-2.5,2.3-5.3,3.8-8.6,3.8C107.4,44,104,40.1,104,35z
	 M120.7,34.6v-5.2c-6.2,0.8-8.3,2.6-8.3,4.9c0,1.9,1.3,2.8,3.4,2.8S119.2,36.2,120.7,34.6L120.7,34.6z"/>
<path class="st22" d="M147.4,28.4c0-9.7,6.1-15.6,12.4-15.6c2.8,0,5.4,1.1,7.3,3.2l-0.4-4.6V1.3h8.8v42.1h-7.2l-0.6-2.9h-0.2
	c-2.1,2.2-4.9,3.5-7.9,3.6C152.2,44,147.4,38.2,147.4,28.4z M166.7,34.1V22c-1.3-1.3-3.1-2-4.9-2c-2.8,0-5.3,2.6-5.3,8.3
	c0,5.9,2,8.5,5.4,8.5C163.9,36.8,165.7,35.8,166.7,34.1L166.7,34.1z"/>
<path class="st22" d="M181.6,28.4c0-9.7,6.9-15.6,14-15.6c8.5,0,12.7,6.2,12.7,14.3c0,1.3-0.1,2.6-0.3,3.9h-17.9
	c0.8,4.3,3.8,6.3,7.7,6.3c2.3,0,4.5-0.7,6.4-2l2.9,5.3c-3.1,2.1-6.8,3.3-10.6,3.4C188.2,44,181.6,38.3,181.6,28.4z M200.8,25.2
	c0-3.3-1.4-5.6-5-5.6c-2.8,0-5.2,1.9-5.8,5.6H200.8z"/>
<path class="st22" d="M211.8,39.9l4-5.5c2.7,2,5.2,3.1,7.7,3.1s3.8-1,3.8-2.5c0-2-3-2.9-6.1-4.1c-3.6-1.4-7.9-3.8-7.9-8.8
	c0-5.5,4.5-9.3,11.4-9.3c3.8,0.1,7.5,1.4,10.5,3.8l-4,5.3c-2.2-1.6-4.2-2.5-6.3-2.5c-2.3,0-3.4,0.8-3.4,2.3c0,1.9,2.8,2.6,5.8,3.8
	c3.8,1.4,8,3.5,8,8.9s-4.2,9.6-12.2,9.6C219.1,43.9,215.1,42.5,211.8,39.9z"/>
<path class="st22" d="M239.3,28.4c0-9.9,7.3-15.6,15.5-15.6c3.2,0,6.3,1.1,8.7,3.2l-4.1,5.7c-1.1-1.1-2.5-1.7-4-1.7
	c-4.3,0-7,3.3-7,8.5s2.8,8.5,6.7,8.5c2-0.1,3.8-0.9,5.3-2.2l3.5,5.8c-2.7,2.3-6.2,3.6-9.8,3.5C245.7,44,239.3,38.3,239.3,28.4z"/>
<path class="st22" d="M268.7,32V13.6h8.8v17.3c0,4.3,1.1,5.6,3.7,5.6c2.2,0,3.5-1,5.3-3.3V13.6h8.8v29.8h-7.2l-0.7-4.1h-0.2
	c-2.5,3-5.3,4.9-9.4,4.9C271.5,44,268.7,39.5,268.7,32z"/>
<path class="st22" d="M301.4,28.4c0-9.7,6.9-15.6,14-15.6c8.5,0,12.6,6.2,12.6,14.3c0,1.3-0.1,2.6-0.4,3.9h-17.8
	c0.8,4.3,3.8,6.3,7.7,6.3c2.3,0,4.5-0.7,6.4-2l3,5.4c-3.1,2.1-6.8,3.3-10.6,3.3C307.9,44,301.4,38.3,301.4,28.4z M320.6,25.2
	c0-3.3-1.5-5.6-5-5.6c-2.8,0-5.2,1.9-5.8,5.6H320.6z"/>
<path class="st22" d="M334.2,13.6h7.2l0.6,3.8h0.2c2.5-2.4,5.5-4.5,9.5-4.5c6.5,0,9.2,4.6,9.2,12v18.5h-8.8V26
	c0-4.3-1.1-5.6-3.7-5.6c-2.2,0-3.6,1-5.5,2.9v20.1h-8.8V13.6z"/>
<path class="st22" d="M369.7,32.5V20.5h-4.1v-6.5l4.6-0.4l1-7.9h7.3v7.9h7.1v6.9h-7.1v11.9c0,3.4,1.5,4.7,3.8,4.7
	c1,0,1.9-0.2,2.8-0.6l1.4,6.5c-2.1,0.7-4.3,1-6.6,1C372.6,44,369.7,39.4,369.7,32.5z"/>
<path class="st22" d="M388.7,28.4c0-9.9,7-15.6,14.5-15.6s14.5,5.7,14.5,15.6s-7,15.6-14.5,15.6S388.7,38.3,388.7,28.4z M408.7,28.4
	c0-5.2-1.9-8.5-5.5-8.5s-5.5,3.3-5.5,8.5s1.8,8.5,5.5,8.5S408.6,33.6,408.7,28.4L408.7,28.4z"/>
<path class="st22" d="M434,28.4c0-9.7,6.9-15.6,14-15.6c8.5,0,12.7,6.2,12.7,14.3c0,1.3-0.1,2.6-0.4,3.9h-17.8
	c0.8,4.3,3.8,6.3,7.7,6.3c2.3,0,4.5-0.7,6.4-2l2.9,5.3c-3.1,2.1-6.8,3.3-10.6,3.3C440.5,44,434,38.3,434,28.4z M453.2,25.2
	c0-3.3-1.4-5.6-5-5.6c-2.8,0-5.2,1.9-5.8,5.6H453.2z"/>
<path class="st22" d="M466.8,13.6h7.2l0.6,3.8h0.2c2.5-2.4,5.5-4.5,9.5-4.5c6.5,0,9.2,4.6,9.2,12v18.5h-8.8V26
	c0-4.3-1.1-5.6-3.7-5.6c-2.2,0-3.6,1-5.5,2.9v20.1h-8.8L466.8,13.6z"/>
<path class="st22" d="M511.3,38.4l5-6.1c2.8,2.4,6.4,4.1,9.7,4.1c3.7,0,5.5-1.4,5.5-3.8s-2.2-3.2-5.6-4.7l-5.1-2.2
	c-4-1.6-7.9-5-7.9-10.7c0-6.5,5.8-11.6,13.9-11.6c4.7,0,9.2,1.9,12.6,5.2l-4.5,5.6c-2.6-2-5-3.1-8.1-3.1s-5,1.3-5,3.5
	c0,2.4,2.6,3.2,5.9,4.6l5,2c4.7,1.9,7.7,5.1,7.7,10.6c0,6.5-5.4,12.1-14.8,12.1C520.4,44,515.2,42,511.3,38.4z"/>
<path class="st22" d="M545.8,4.6c0-2.7,2.2-4.6,5.1-4.6s5.2,1.9,5.2,4.6s-2.1,4.6-5.1,4.6S545.8,7.3,545.8,4.6z M546.5,13.6h8.8
	v29.8h-8.8V13.6z"/>
<path class="st22" d="M569.1,27.8l-8.6-14.3h9.5l2.6,4.8c0.8,1.7,1.7,3.4,2.5,5.1h0.2c0.6-1.7,1.4-3.4,2-5.1l2-4.8h9.1L580,28.9
	l9.2,14.5h-9.5l-2.9-4.9c-1-1.7-1.9-3.5-2.8-5.2h-0.2c-0.7,1.7-1.6,3.4-2.3,5.2l-2.3,4.9H560L569.1,27.8z"/>
<path class="st22" d="M606.6,4.2H620c8.6,0,15.5,3.1,15.5,12.6c0,9.2-7,13.3-15.3,13.3h-4.9v13.3h-8.8L606.6,4.2z M619.7,23
	c4.9,0,7.2-2.2,7.2-6.2s-2.6-5.6-7.4-5.6h-4.1V23H619.7z"/>
<path class="st22" d="M638.2,35c0-6.2,5-9.7,16.7-10.9c-0.2-2.6-1.4-4.3-4.7-4.3c-2.5,0-5,1-7.9,2.7l-3.2-5.8
	c3.8-2.4,8.2-3.8,12.8-3.9c7.6,0,11.8,4.3,11.8,13.4v17h-7.2l-0.6-3.1h-0.2c-2.5,2.2-5.3,3.8-8.6,3.8C641.6,44,638.2,40.1,638.2,35z
	 M655,34.7v-5.2c-6.2,0.8-8.3,2.6-8.3,4.9c0,1.9,1.3,2.8,3.4,2.8S653.4,36.2,655,34.7z"/>
<path class="st22" d="M669.5,28.4c0-9.9,7.3-15.6,15.5-15.6c3.2,0,6.3,1.1,8.7,3.2l-4.1,5.7c-1.1-1.1-2.5-1.7-4-1.7
	c-4.3,0-7,3.3-7,8.5s2.8,8.5,6.7,8.5c2-0.1,3.8-0.9,5.3-2.2l3.5,5.8c-2.7,2.3-6.2,3.6-9.8,3.5C675.9,44,669.5,38.3,669.5,28.4z"/>
<path class="st22" d="M699.2,1.3h8.6v24.1h0.2l9.4-11.8h9.6l-10.4,12.2l11.2,17.5h-9.5l-6.7-11.6l-3.8,4.3v7.3h-8.6V1.3z"/>
<path class="st22" d="M744.8,4.2h13.4c8.1,0,14.4,2.2,14.4,9.7c0,3.5-1.9,7.3-5.1,8.5v0.2c4.3,0.9,7.3,4.8,7,9.2
	c0,8-6.7,11.5-15.2,11.5h-14.5V4.2z M757.8,19.9c4.3,0,6.2-1.8,6.2-4.6c0-3.1-2-4.2-6.1-4.2h-4.2v8.8H757.8z M758.7,36.5
	c4.8,0,7.3-1.7,7.3-5.3c0-3.4-2.4-4.8-7.3-4.8h-5v10.1L758.7,36.5z"/>
<path class="st22" d="M780.1,32V13.6h8.8v17.3c0,4.3,1.1,5.6,3.7,5.6c2.2,0,3.5-1,5.3-3.3V13.6h8.8v29.8h-7.2l-0.7-4.1h-0.2
	c-2.5,3-5.3,4.9-9.4,4.9C782.9,44,780.1,39.5,780.1,32z"/>
<path class="st22" d="M812.9,28.4c0-9.7,6.1-15.6,12.4-15.6c2.8,0,5.4,1.1,7.3,3.2l-0.4-4.6V1.3h8.8v42.1h-7.2l-0.6-2.9H833
	c-2.1,2.2-4.9,3.5-7.9,3.6C817.7,44,812.9,38.2,812.9,28.4z M832.2,34.1V22c-1.3-1.3-3.1-2-4.9-2c-2.8,0-5.3,2.6-5.3,8.3
	c0,5.9,2,8.5,5.4,8.5C829.4,36.8,831.2,35.8,832.2,34.1z"/>
<path class="st22" d="M861.6,4.2h8.8v31.7h15.5v7.4h-24.3V4.2z"/>
<path class="st22" d="M891.2,4.6c0-2.7,2.2-4.6,5.1-4.6s5.1,1.9,5.1,4.6s-2.1,4.6-5.1,4.6S891.2,7.3,891.2,4.6z M891.9,13.6h8.8
	v29.8H892L891.9,13.6z"/>
<path class="st22" d="M906.7,48.4c0-2.5,1.5-4.4,4.3-6v-0.2c-1.7-1.1-2.8-3-2.8-5c0.2-2.3,1.4-4.4,3.4-5.6v-0.2
	c-2.5-1.8-4-4.7-4-7.7c0-7.1,5.9-10.7,12.3-10.7c1.6,0,3.1,0.2,4.6,0.7h10.9V20h-4.7c0.7,1.2,1,2.5,1,3.9c0,6.8-5.2,10-11.7,10
	c-1.2,0-2.4-0.2-3.6-0.6c-0.7,0.5-1.1,1.3-1.1,2.2c0,1.5,1.2,2.2,4.5,2.2h4.8c7.3,0,11.3,2.2,11.3,7.6c0,6.2-6.4,10.7-16.6,10.7
	C912.2,56,906.7,53.7,906.7,48.4z M927.4,46.8c0-1.9-1.6-2.3-4.6-2.3h-3.1c-1.4,0.1-2.8-0.1-4.2-0.4c-0.9,0.7-1.5,1.7-1.6,2.9
	c0,2.2,2.6,3.4,6.6,3.4S927.3,48.8,927.4,46.8L927.4,46.8z M923.9,23.6c0-3.1-1.7-4.8-4.1-4.8s-4.1,1.6-4.1,4.8s1.7,5,4.1,5
	S923.9,26.9,923.9,23.6L923.9,23.6z"/>
<path class="st22" d="M940.5,1.3h8.8v10.3l-0.4,5.3c2.2-2,5.2-4.1,9.2-4.1c6.5,0,9.2,4.6,9.2,12v18.5h-8.8V26c0-4.3-1.1-5.6-3.7-5.6
	c-2.2,0-3.6,1-5.5,2.9v20.1h-8.8L940.5,1.3z"/>
<path class="st22" d="M976,32.5V20.5h-4.1v-6.5l4.6-0.4l1-7.9h7.3v7.9h7.2v6.9h-7.1v11.9c0,3.4,1.5,4.7,3.8,4.7c1,0,1.9-0.2,2.8-0.6
	l1.3,6.5c-2.1,0.7-4.4,1.1-6.6,1.1C978.9,44,976,39.4,976,32.5z"/>
<path class="st21" d="M328.8,627.5l1.4-2.2l-2.3-1l0.4-1.1l2.5,0.6l0.2-2.6h1.1l0.2,2.6l2.5-0.6l0.4,1.1l-2.3,1l1.4,2.2l-0.9,0.7
	l-1.7-2.1l-1.7,2.1L328.8,627.5z"/>
<path class="st21" d="M338.6,622.6h2.1l5.7,9.9l1.7,3.3h0.1c-0.1-1.6-0.2-3.4-0.2-5v-8.1h1.9v15.8h-2.1l-5.7-9.9l-1.7-3.2h-0.1
	c0.1,1.6,0.3,3.3,0.3,4.9v8.2h-1.9L338.6,622.6z"/>
<path class="st21" d="M353.1,632.5c0-3.8,2.6-6.1,5.2-6.1c3,0,4.6,2.1,4.6,5.5c0,0.4,0,0.8-0.1,1.1H355c0.1,2.5,1.7,4,3.9,4
	c1,0,2-0.3,2.9-0.9l0.7,1.3c-1.1,0.8-2.5,1.2-3.8,1.2C355.6,638.6,353.1,636.3,353.1,632.5z M361.3,631.5c0-2.3-1.1-3.6-2.9-3.6
	c-1.6,0-3.1,1.3-3.4,3.6H361.3z"/>
<path class="st21" d="M365,632.5c0-3.9,2.6-6.1,5.6-6.1c1.3,0,2.5,0.5,3.4,1.4l-1,1.3c-0.6-0.6-1.5-1-2.3-1c-2.1,0-3.6,1.8-3.6,4.5
	s1.5,4.5,3.6,4.5c1,0,2-0.5,2.7-1.2l0.9,1.3c-1,0.9-2.4,1.5-3.8,1.5C367.4,638.6,365,636.4,365,632.5z"/>
<path class="st21" d="M375.4,632.5c0-3.8,2.6-6.1,5.2-6.1c3,0,4.7,2.1,4.7,5.5c0,0.4,0,0.8-0.1,1.1h-7.9c0.1,2.5,1.7,4,3.9,4
	c1,0,2.1-0.3,2.9-0.9l0.7,1.3c-1.1,0.8-2.5,1.2-3.8,1.2C377.9,638.6,375.4,636.3,375.4,632.5z M383.6,631.5c0-2.3-1.1-3.6-2.9-3.6
	c-1.6,0-3.1,1.3-3.4,3.6H383.6z"/>
<path class="st21" d="M386.9,637l1-1.3c0.9,0.9,2.2,1.4,3.4,1.4c1.5,0,2.3-0.8,2.3-1.8c0-1.2-1.4-1.7-2.7-2.2
	c-1.7-0.6-3.5-1.4-3.5-3.4s1.5-3.3,4-3.3c1.3,0,2.6,0.5,3.6,1.3l-0.9,1.2c-0.7-0.6-1.7-1-2.7-1c-1.5,0-2.1,0.8-2.1,1.7
	c0,1.1,1.3,1.5,2.6,2c1.7,0.6,3.5,1.3,3.5,3.5c0,1.9-1.5,3.5-4.3,3.5C389.7,638.6,388.1,638,386.9,637z"/>
<path class="st21" d="M397.9,623c0-0.8,0.6-1.4,1.4-1.4c0.8,0,1.4,0.6,1.4,1.4c0,0.8-0.6,1.4-1.4,1.4
	C398.5,624.4,397.9,623.8,397.9,623z M398.3,626.7h2v11.7h-2V626.7z"/>
<path class="st21" d="M404.5,634.7v-6.5h-1.7v-1.5l1.8-0.1l0.2-3.3h1.6v3.3h3.1v1.6h-3.1v6.5c0,1.4,0.5,2.3,1.8,2.3
	c0.5,0,0.9-0.1,1.3-0.3l0.4,1.5c-0.7,0.3-1.4,0.4-2.2,0.4C405.3,638.6,404.5,637,404.5,634.7z"/>
<path class="st21" d="M411,635.3c0-2.5,2.2-3.8,7.2-4.4c0-1.5-0.5-2.9-2.4-2.9c-1.3,0.1-2.5,0.5-3.5,1.2l-0.8-1.4
	c1.4-0.9,2.9-1.5,4.6-1.5c2.9,0,4.1,1.9,4.1,4.8v7.2h-1.6l-0.2-1.4h-0.1c-1.1,1-2.4,1.6-3.9,1.7c-1.8,0.1-3.3-1.2-3.4-2.9
	C411,635.5,411,635.4,411,635.3z M418.2,635.5v-3.2c-3.9,0.5-5.2,1.4-5.2,2.9c0,1.3,0.9,1.9,2.1,1.9
	C416.3,636.9,417.4,636.4,418.2,635.5L418.2,635.5z"/>
<path class="st21" d="M422.6,637l1-1.3c0.9,0.9,2.2,1.4,3.4,1.4c1.5,0,2.3-0.8,2.3-1.8c0-1.2-1.4-1.7-2.7-2.2
	c-1.7-0.6-3.5-1.4-3.5-3.4s1.5-3.3,4-3.3c1.3,0,2.6,0.5,3.6,1.3l-0.9,1.2c-0.8-0.6-1.7-1-2.7-1c-1.5,0-2.1,0.8-2.1,1.7
	c0,1.1,1.3,1.5,2.6,2c1.7,0.6,3.5,1.3,3.5,3.5c0,1.9-1.5,3.5-4.3,3.5C425.3,638.6,423.8,638,422.6,637z"/>
<path class="st21" d="M435.8,643.2l0.4-1.5c0.4,0.1,0.7,0.2,1.1,0.2c1.1,0,1.4-0.9,1.4-2.3v-13h2v13c0,2.4-0.9,3.9-3.2,3.9
	C437,643.5,436.4,643.4,435.8,643.2z M438.4,623c0-0.7,0.5-1.4,1.3-1.4c0.7,0,1.4,0.5,1.4,1.3c0,0.7-0.5,1.4-1.3,1.4
	c0,0-0.1,0-0.1,0C439,624.3,438.4,623.8,438.4,623C438.4,623,438.4,623,438.4,623z"/>
<path class="st21" d="M444.5,634v-7.4h2v7.1c0,2.2,0.6,3.1,2.2,3.1c1.2,0,2-0.6,3.1-2v-8.3h2v11.7h-1.6l-0.2-1.8h-0.1
	c-0.9,1.3-2.3,2.1-3.8,2.1C445.6,638.6,444.5,637,444.5,634z"/>
<path class="st21" d="M456.8,640.5c0.1-1.1,0.7-2.1,1.7-2.6v-0.1c-0.6-0.4-1-1.1-1-1.9c0.1-0.9,0.5-1.7,1.3-2.2v-0.1
	c-1.8-1.4-2-4-0.6-5.8c0.8-1,2.1-1.6,3.5-1.5c0.6,0,1.1,0.1,1.6,0.3h4.1v1.5H465c0.6,0.6,1,1.5,1,2.4c-0.1,2.3-2.1,4.1-4.4,4
	c-0.6,0-1.1-0.2-1.6-0.4c-0.4,0.3-0.7,0.8-0.7,1.4c0,0.7,0.5,1.3,2.1,1.3h2.3c2.7,0,4.1,0.8,4.1,2.8c0,2.2-2.3,4-5.9,4
	C458.8,643.7,456.8,642.6,456.8,640.5z M465.6,640c0-1.1-0.8-1.4-2.4-1.4h-2c-0.5,0-1-0.1-1.5-0.2c-0.7,0.4-1.2,1.2-1.2,2
	c0,1.2,1.3,2,3.4,2S465.6,641.2,465.6,640L465.6,640z M464.1,630.5c0.2-1.4-0.8-2.6-2.2-2.7c-1.4-0.2-2.6,0.8-2.7,2.2
	c0,0.2,0,0.4,0,0.5c-0.2,1.4,0.8,2.6,2.2,2.7c1.4,0.2,2.6-0.8,2.7-2.2C464.1,630.9,464.1,630.7,464.1,630.5z"/>
<path class="st21" d="M468.7,635.3c0-2.5,2.2-3.8,7.1-4.4c0-1.5-0.5-2.9-2.4-2.9c-1.3,0.1-2.5,0.5-3.5,1.2l-0.8-1.4
	c1.4-0.9,2.9-1.5,4.6-1.5c2.9,0,4.1,1.9,4.1,4.8v7.2h-1.6l-0.2-1.4h0c-1.1,1-2.4,1.6-3.9,1.7c-1.8,0.1-3.3-1.2-3.4-2.9
	C468.7,635.6,468.7,635.4,468.7,635.3z M475.9,635.5v-3.2c-3.9,0.5-5.2,1.4-5.2,2.9c0,1.3,0.9,1.9,2.1,1.9
	C473.9,636.9,475,636.4,475.9,635.5L475.9,635.5z"/>
<path class="st21" d="M481.5,626.7h1.6l0.2,2.1h0.1c0.6-1.3,1.9-2.3,3.3-2.4c0.4,0,0.9,0.1,1.2,0.2l-0.4,1.7
	c-0.4-0.1-0.7-0.2-1.1-0.2c-1,0-2.2,0.7-3,2.7v7.5h-2L481.5,626.7z"/>
<path class="st21" d="M493.9,635.3c0-2.5,2.2-3.8,7.1-4.4c0-1.5-0.5-2.9-2.4-2.9c-1.3,0.1-2.5,0.5-3.5,1.2l-0.8-1.4
	c1.4-0.9,2.9-1.5,4.6-1.5c2.9,0,4.1,1.9,4.1,4.8v7.2h-1.6l-0.2-1.4h-0.1c-1.1,1-2.4,1.6-3.9,1.7c-1.7,0.1-3.3-1.2-3.4-2.9
	C493.9,635.6,493.9,635.4,493.9,635.3z M501.1,635.5v-3.2c-3.9,0.5-5.2,1.4-5.2,2.9c0,1.3,0.9,1.9,2.1,1.9
	C499.1,636.9,500.3,636.4,501.1,635.5L501.1,635.5z"/>
<path class="st21" d="M506.7,636v-14.8h2v14.9c0,0.6,0.3,0.9,0.5,0.9c0.1,0,0.3,0,0.4,0l0.3,1.5c-0.4,0.1-0.7,0.2-1.1,0.2
	C507.3,638.6,506.7,637.7,506.7,636z"/>
<path class="st21" d="M517.7,626.7h1.6l0.2,1.7h0.1c0.9-1.1,2.2-1.9,3.6-2c1.5-0.1,2.8,0.8,3.2,2.2c1.2-1.3,2.4-2.2,3.8-2.2
	c2.4,0,3.6,1.6,3.6,4.6v7.4h-2v-7.1c0-2.2-0.7-3.1-2.2-3.1c-0.9,0-1.8,0.6-2.9,1.8v8.5h-2v-7.1c0-2.2-0.7-3.1-2.2-3.1
	c-0.9,0-1.8,0.6-2.9,1.8v8.5h-2L517.7,626.7z"/>
<path class="st21" d="M536.7,632.5c0-3.8,2.6-6.1,5.2-6.1c3,0,4.7,2.1,4.7,5.5c0,0.4,0,0.8-0.1,1.1h-7.9c0.1,2.5,1.7,4,3.9,4
	c1,0,2.1-0.3,2.9-0.9l0.7,1.3c-1.1,0.8-2.5,1.2-3.8,1.2C539.2,638.6,536.7,636.3,536.7,632.5z M544.8,631.5c0-2.3-1-3.6-2.9-3.6
	c-1.6,0-3.1,1.3-3.4,3.6H544.8z"/>
<path class="st21" d="M549.5,626.7h1.6l0.2,1.7h0.1c1-1.2,2.4-1.9,3.9-2c2.5,0,3.6,1.6,3.6,4.6v7.4h-2v-7.1c0-2.2-0.7-3.1-2.2-3.1
	c-1.2,0-2,0.6-3.2,1.8v8.5h-2L549.5,626.7z"/>
<path class="st21" d="M561.7,632.5c0-3.9,2.5-6.1,5.4-6.1s5.4,2.2,5.4,6.1s-2.5,6.1-5.4,6.1S561.7,636.4,561.7,632.5z M570.5,632.5
	c0-2.7-1.3-4.5-3.4-4.5s-3.4,1.8-3.4,4.5s1.4,4.5,3.4,4.5S570.5,635.2,570.5,632.5z"/>
<path class="st21" d="M574.3,637l1-1.3c0.9,0.9,2.2,1.4,3.4,1.4c1.5,0,2.3-0.8,2.3-1.8c0-1.2-1.4-1.7-2.7-2.2
	c-1.7-0.6-3.5-1.4-3.5-3.4s1.5-3.3,4-3.3c1.3,0,2.6,0.5,3.6,1.3l-0.9,1.2c-0.7-0.6-1.7-1-2.7-1c-1.5,0-2.1,0.8-2.1,1.7
	c0,1.1,1.3,1.5,2.6,2c1.7,0.6,3.6,1.3,3.6,3.5c0,1.9-1.5,3.5-4.3,3.5C577.1,638.6,575.5,638,574.3,637z"/>
<path class="st21" d="M589.1,636.5l1-1.3c1,1.1,2.4,1.7,3.9,1.8c1.8,0,3.3-1.4,3.4-3.2c0-0.1,0-0.2,0-0.3c0.2-1.7-1.1-3.2-2.8-3.4
	c-0.2,0-0.3,0-0.5,0c-0.9,0-1.9,0.3-2.6,0.9l-1.1-0.7l0.5-7.4h7.7v1.7h-5.9l-0.4,4.5c0.7-0.4,1.5-0.6,2.3-0.6c2.4-0.2,4.6,1.6,4.8,4
	c0,0.3,0,0.5,0,0.8c0.1,2.8-2,5.1-4.8,5.2c-0.1,0-0.2,0-0.4,0C592.2,638.7,590.4,637.9,589.1,636.5z"/>
<path class="st21" d="M605.5,626.7h2l2.2,6.6c0.3,1.2,0.7,2.3,1.1,3.4h0.1c0.3-1.1,0.7-2.3,1.1-3.4l2.2-6.6h1.9l-4.1,11.7h-2.3
	L605.5,626.7z"/>
<path class="st21" d="M617.4,632.5c0-3.8,2.6-6.1,5.2-6.1c3,0,4.7,2.1,4.7,5.5c0,0.4,0,0.8-0.1,1.1h-7.9c0.2,2.5,1.7,4,3.9,4
	c1,0,2-0.3,2.9-0.9l0.7,1.3c-1.1,0.8-2.5,1.2-3.8,1.2C619.9,638.6,617.4,636.3,617.4,632.5z M625.6,631.5c0-2.3-1.1-3.6-2.9-3.6
	c-1.6,0-3.1,1.3-3.4,3.6H625.6z"/>
<path class="st21" d="M629.3,632.5c0-3.9,2.6-6.1,5.6-6.1c1.3,0,2.5,0.5,3.4,1.4l-1,1.3c-0.6-0.6-1.5-1-2.3-1
	c-2.1,0-3.7,1.8-3.7,4.5s1.5,4.5,3.6,4.5c1,0,2-0.5,2.7-1.2l0.9,1.3c-1,0.9-2.4,1.5-3.8,1.5C631.7,638.6,629.3,636.4,629.3,632.5z"
	/>
<path class="st21" d="M639.8,632.5c0-3.8,2.6-6.1,5.2-6.1c3,0,4.7,2.1,4.7,5.5c0,0.4,0,0.8-0.1,1.1h-7.9c0.1,2.5,1.7,4,3.9,4
	c1,0,2.1-0.3,2.9-0.9l0.7,1.3c-1.1,0.8-2.5,1.2-3.8,1.2C642.2,638.6,639.8,636.3,639.8,632.5z M647.9,631.5c0-2.3-1-3.6-2.9-3.6
	c-1.6,0-3.1,1.3-3.4,3.6H647.9z"/>
<path class="st21" d="M651.2,637l1-1.3c0.9,0.9,2.2,1.4,3.4,1.4c1.5,0,2.3-0.8,2.3-1.8c0-1.2-1.4-1.7-2.7-2.2
	c-1.7-0.6-3.5-1.4-3.5-3.4s1.5-3.3,4-3.3c1.3,0,2.6,0.5,3.6,1.3l-0.9,1.2c-0.8-0.6-1.7-1-2.7-1c-1.5,0-2.1,0.8-2.1,1.7
	c0,1.1,1.3,1.5,2.6,2c1.7,0.6,3.5,1.3,3.5,3.5c0,1.9-1.5,3.5-4.3,3.5C654,638.6,652.5,638,651.2,637z"/>
<path class="st21" d="M662.2,637.1c-0.1-0.8,0.5-1.5,1.3-1.5c0.8-0.1,1.5,0.5,1.5,1.3c0,0.1,0,0.2,0,0.2c0.1,0.8-0.5,1.5-1.3,1.5
	c-0.8,0.1-1.5-0.5-1.5-1.3C662.2,637.3,662.2,637.2,662.2,637.1z"/>
</svg>
