<svg xmlns="http://www.w3.org/2000/svg" viewBox="0 0 1185 948"><defs><style>.cls-1{fill:#28346f;}</style></defs><title>cupon</title><g id="Layer_2" data-name="Layer 2"><g id="Layer_1-2" data-name="Layer 1"><path class="cls-1" d="M372,342.94c15.46,0,26.62,5.36,37,14.23a3,3,0,0,1,.15,4.28L405,365.58c-1.22,1.53-2.45,1.38-4-.15-8-6.88-18.82-11.47-29.22-11.47-24.17,0-42.68,20.34-42.68,44.06,0,23.56,18.51,43.9,42.68,43.9,13.31,0,21.11-5.35,29.22-11.47,1.53-1.23,2.76-1.07,3.67-.46l4.59,4.13c1.23.92.92,3.06-.15,4.13A52.49,52.49,0,0,1,372,453.09a55.08,55.08,0,1,1,0-110.15Z"/><path class="cls-1" d="M452.14,388.84c17,0,30.44,14.68,30.44,32,0,17.59-13.46,32.28-30.44,32.28s-30.45-14.69-30.45-32.28C421.69,403.52,435.16,388.84,452.14,388.84Zm0,54.31c11.17,0,19.89-9.95,19.89-22.34,0-12.08-8.72-21.88-19.89-21.88s-19.89,9.8-19.89,21.88C432.25,433.2,441,443.15,452.14,443.15Z"/><path class="cls-1" d="M499.87,393.27a3,3,0,0,1,2.91-2.9h2.9a2.23,2.23,0,0,1,2.45,1.83l1.38,4.75a27.92,27.92,0,0,1,19.89-8.11c9,0,15.6,3.52,19.58,9.94.76-.61,10.55-9.94,22.79-9.94,17.75,0,23.71,11.62,23.71,27.54v32.27a3,3,0,0,1-2.9,2.91h-4.9a3,3,0,0,1-2.9-2.91V416.38c0-11.48-4.9-17.29-13.77-17.29-10,0-16.52,6.58-18.67,8.56a50,50,0,0,1,.77,8.73v32.27a3,3,0,0,1-2.91,2.91h-4.89a3,3,0,0,1-2.91-2.91V416.38c0-11.63-5.2-17.29-14.53-17.29-10.87,0-17.44,8.72-17.44,8.72v40.84a3,3,0,0,1-2.91,2.91h-4.74a3,3,0,0,1-2.91-2.91Z"/><path class="cls-1" d="M616.6,347.38a3,3,0,0,1,2.9-2.91h4.75a3,3,0,0,1,2.9,2.91v45.43s6.28-4,16.37-4c18.36,0,29.38,14.07,29.38,32,0,17.59-12.24,32.28-27.85,32.28-11.47,0-18.81-8.11-18.81-8.11l-.92,4.13a2.78,2.78,0,0,1-2.6,2.45H619.5a3,3,0,0,1-2.9-2.91ZM644,443.45c11.17,0,18.21-10.55,18.21-22.49,0-12.23-6.73-21.87-20-21.87a32.86,32.86,0,0,0-14.84,3.67v30.6S633,443.45,644,443.45Z"/><path class="cls-1" d="M716.19,388.84c17,0,30.44,14.68,30.44,32,0,17.59-13.46,32.28-30.44,32.28s-30.44-14.69-30.44-32.28C685.75,403.52,699.21,388.84,716.19,388.84Zm0,54.31c11.17,0,19.89-9.95,19.89-22.34,0-12.08-8.72-21.88-19.89-21.88s-19.89,9.8-19.89,21.88C696.3,433.2,705,443.15,716.19,443.15Z"/><path class="cls-1" d="M809.82,366.5l-11,8.57c-1.22.92-2.45,1.07-3.52-.15l-2.9-3.22a2.37,2.37,0,0,1,.3-3.36l21.42-20.81h4.13a2.88,2.88,0,0,1,2.75,2.91v98.21a2.88,2.88,0,0,1-2.75,2.91h-5.51a2.9,2.9,0,0,1-2.9-2.91Z"/><path class="cls-1" d="M847.75,397.56a8.71,8.71,0,0,1,8.72-8.72,8.61,8.61,0,0,1,8.72,8.72,8.71,8.71,0,0,1-8.72,8.72A8.82,8.82,0,0,1,847.75,397.56Zm8.72,38.09a8.61,8.61,0,0,1,8.72,8.72,8.71,8.71,0,0,1-8.72,8.72,8.82,8.82,0,0,1-8.72-8.72A8.71,8.71,0,0,1,856.47,435.65Z"/><path class="cls-1" d="M150.38,631.17l46.51-103a2.73,2.73,0,0,1,2.6-1.68H201a2.75,2.75,0,0,1,2.6,1.68l46.2,103a2.7,2.7,0,0,1-2.6,4H241.1a2.79,2.79,0,0,1-2.6-1.68l-11.32-25.24H172.87L161.7,633.46a2.8,2.8,0,0,1-2.6,1.68H153A2.69,2.69,0,0,1,150.38,631.17Zm72.67-32.44c-7.5-16.67-14.84-33.5-22.34-50.18h-1.22l-22.34,50.18Z"/><path class="cls-1" d="M261.9,531a3,3,0,0,1,2.91-2.91h4.74a3,3,0,0,1,2.91,2.91V632.24a3,3,0,0,1-2.91,2.9h-4.74a3,3,0,0,1-2.91-2.9Z"/><path class="cls-1" d="M292.2,538.46a7.27,7.27,0,1,1,7.19,7.19A7.21,7.21,0,0,1,292.2,538.46Zm2.14,38.4a3,3,0,0,1,2.9-2.91H302a3,3,0,0,1,2.9,2.91v55.38a3,3,0,0,1-2.9,2.9h-4.75a3,3,0,0,1-2.9-2.9Z"/><path class="cls-1" d="M330.59,583.13h-7.8a2.9,2.9,0,0,1-2.9-2.91v-3.36a2.81,2.81,0,0,1,2.9-2.91h7.8V557a3,3,0,0,1,2.91-2.91l4.9-.3a2.87,2.87,0,0,1,2.75,2.9V574H358.9a2.81,2.81,0,0,1,2.9,2.91v3.36a2.9,2.9,0,0,1-2.9,2.91H341.15v35.8c0,6.12,1.53,7.34,5.05,7.34,3.82,0,9.18-2.29,11.17-3.36,2.29-1.23,2.9-.31,3.67.91l2.29,3.83c1.07,1.83.62,2.75-1.07,3.82-2.14,1.38-10.4,5.2-17.59,5.2-12.24,0-14.08-7.34-14.08-16.82Z"/><path class="cls-1" d="M399,596.29a50.18,50.18,0,0,1,13,2c.16-11.32-1.22-16.53-9.94-16.53a53.76,53.76,0,0,0-18.36,3.37c-1.53.61-2.45-.15-2.91-1.53l-1.22-3.83c-.61-1.83.31-2.75,1.68-3.36a57.47,57.47,0,0,1,21.27-4c15.6,0,19.43,8,19.43,25.86v34a3,3,0,0,1-2.91,2.9h-2.91c-1.68,0-2.14-.91-2.6-2.29l-1.22-4.13a26.54,26.54,0,0,1-19,7.95c-10.71,0-18.82-7.8-18.82-20C374.5,605,383.22,596.29,399,596.29Zm-4,31.21a21.72,21.72,0,0,0,16.83-8.57V606.84c-1.84-1.07-6.12-2.45-12.85-2.45-8.57,0-14.69,4.29-14.69,12.24C384.29,622.75,388.42,627.5,395,627.5Z"/><path class="cls-1" d="M439.52,626.58c.61-.92,1.68-3.06,2.14-3.83.77-1.22,2.45-1.53,4.13-.46,0,0,6.58,5.36,14.38,5.36,6.28,0,9.95-3.21,9.95-7.35,0-5.35-4.59-7.8-13.47-12.23-8.1-4-17.44-9.34-17.44-19.74,0-6.42,5.21-15.91,19.43-15.91a31.19,31.19,0,0,1,17,4.74,3.69,3.69,0,0,1,.92,4.75l-1.22,2.44a3.36,3.36,0,0,1-4.44,1.38s-6.58-3.67-12.24-3.67c-6.88,0-8.72,3.52-8.72,6.12,0,5.05,5.05,7.34,11.32,10.4,10.56,5,20,9.79,20,20.81,0,8.87-8.56,17.28-21.11,17.28a31.06,31.06,0,0,1-19.89-6.88A3,3,0,0,1,439.52,626.58Z"/><path class="cls-1" d="M554,587.11h-24A3,3,0,0,1,527,584.2v-4.28a3,3,0,0,1,2.91-2.91h24V552.84a2.88,2.88,0,0,1,2.91-2.76h4.28a2.88,2.88,0,0,1,2.91,2.76V577h24.17a2.88,2.88,0,0,1,2.75,2.91v4.28a2.88,2.88,0,0,1-2.75,2.91H564.05v24a2.88,2.88,0,0,1-2.91,2.75h-4.28a2.88,2.88,0,0,1-2.91-2.75Z"/><path class="cls-1" d="M694.39,526.53c15.45,0,26.62,5.35,37,14.22a3,3,0,0,1,.15,4.29l-4.13,4.13c-1.22,1.53-2.45,1.37-4-.16-8-6.88-18.81-11.47-29.22-11.47-24.17,0-42.68,20.35-42.68,44.06,0,23.56,18.51,43.91,42.68,43.91,13.31,0,21.12-5.36,29.22-11.48,1.53-1.22,2.76-1.07,3.68-.46l4.59,4.13c1.22.92.91,3.06-.16,4.13a52.49,52.49,0,0,1-37.17,14.84,55.07,55.07,0,1,1,0-110.14Z"/><path class="cls-1" d="M749.46,531a3,3,0,0,1,2.91-2.91h4.74A3,3,0,0,1,760,531v49.57a31.24,31.24,0,0,1,20.5-8.11c15.14,0,23.71,9.64,23.71,27.54v32.28a3,3,0,0,1-2.91,2.9h-4.89a3,3,0,0,1-2.91-2.9V600c0-11.63-5.2-17.29-13.77-17.29-11.62,0-19.73,8.57-19.73,8.57v41a3,3,0,0,1-2.91,2.9h-4.74a3,3,0,0,1-2.91-2.9Z"/><path class="cls-1" d="M850.74,572.42c16.06,0,27.69,11.93,27.69,28a38.25,38.25,0,0,1-.31,4.13,2.81,2.81,0,0,1-2.75,2.6H831.31C831.92,617.4,841,627,851.81,627A29.13,29.13,0,0,0,867,622.45c2.15-1.23,3.06-2,4.29-.31.91,1.23,1.68,2.3,2.6,3.52,1.07,1.38,1.68,2.29-.61,4-3.68,2.9-11.94,7-22.49,7-18.51,0-30-14.53-30-32.12C820.75,587.26,832.23,572.42,850.74,572.42Zm17.13,26.16c-.46-8.87-7.8-16.83-17.13-16.83a19,19,0,0,0-19.28,16.83Z"/><path class="cls-1" d="M895.25,531a3,3,0,0,1,2.91-2.91h4.74a3,3,0,0,1,2.91,2.91V632.24a3,3,0,0,1-2.91,2.9h-4.74a3,3,0,0,1-2.91-2.9Z"/><path class="cls-1" d="M947.73,596.29a50.18,50.18,0,0,1,13,2c.15-11.32-1.22-16.53-9.94-16.53a53.76,53.76,0,0,0-18.36,3.37c-1.53.61-2.45-.15-2.91-1.53l-1.22-3.83c-.61-1.83.3-2.75,1.68-3.36a57.47,57.47,0,0,1,21.27-4c15.6,0,19.43,8,19.43,25.86v34a3,3,0,0,1-2.91,2.9h-2.91c-1.68,0-2.14-.91-2.6-2.29L961,628.72a26.56,26.56,0,0,1-19,7.95c-10.71,0-18.82-7.8-18.82-20C923.25,605,932,596.29,947.73,596.29Zm-4,31.21a21.72,21.72,0,0,0,16.83-8.57V606.84c-1.84-1.07-6.12-2.45-12.85-2.45-8.57,0-14.69,4.29-14.69,12.24C933,622.75,937.17,627.5,943.75,627.5Z"/><path class="cls-1" d="M988.27,626.58c.61-.92,1.68-3.06,2.14-3.83.77-1.22,2.45-1.53,4.13-.46,0,0,6.58,5.36,14.38,5.36,6.27,0,10-3.21,10-7.35,0-5.35-4.59-7.8-13.47-12.23-8.1-4-17.44-9.34-17.44-19.74,0-6.42,5.21-15.91,19.43-15.91a31.19,31.19,0,0,1,17,4.74,3.69,3.69,0,0,1,.92,4.75l-1.22,2.44a3.36,3.36,0,0,1-4.44,1.38s-6.58-3.67-12.24-3.67c-6.88,0-8.72,3.52-8.72,6.12,0,5.05,5.05,7.34,11.32,10.4,10.56,5,20,9.79,20,20.81,0,8.87-8.56,17.28-21.11,17.28A31.06,31.06,0,0,1,989,629.79,3,3,0,0,1,988.27,626.58Z"/><path class="cls-1" d="M123.22,714.55a3,3,0,0,1,2.91-2.91h13a3,3,0,0,1,2.91,2.91v44.21A36.71,36.71,0,0,1,155.65,756c18.21,0,30.29,14.23,30.29,32.13,0,17.59-12.69,32.13-29.37,32.13a26.84,26.84,0,0,1-20-9.18L135,815.82c-.46,1.68-1.53,2.91-2.91,2.91h-6a3,3,0,0,1-2.91-2.91Zm31.06,89.19c8.11,0,13.92-7,13.92-15.61s-6.27-15.6-14.84-15.6c-7.65,0-11.93,3.52-11.93,3.52v17.74C142.5,797.46,146.17,803.74,154.28,803.74Z"/><path class="cls-1" d="M198.64,760.44a2.9,2.9,0,0,1,2.91-2.9h12.54a2.9,2.9,0,0,1,2.91,2.9v30.14c0,8.11,4.13,13.16,11.17,13.16,6.42,0,11.32-6,12.24-11.48V760.44c0-2.29.92-2.9,3.36-2.9H255.4a2.9,2.9,0,0,1,2.91,2.9v55.38a3,3,0,0,1-2.91,2.91h-5.66a3.12,3.12,0,0,1-2.91-2.3l-1.83-5c-2.76,2.45-8.42,8.88-20.5,8.88-19,0-25.86-14.54-25.86-30.14Z"/><path class="cls-1" d="M302.37,756A36.71,36.71,0,0,1,316,758.76V714.55a3,3,0,0,1,2.91-2.91h13a3,3,0,0,1,2.91,2.91V815.82a3,3,0,0,1-2.91,2.91h-6c-1.38,0-2.45-1.23-2.91-2.91l-1.53-4.74a26.84,26.84,0,0,1-20,9.18c-16.68,0-29.37-14.54-29.37-32.13C272.08,770.23,284.16,756,302.37,756Zm1.37,47.74c8.11,0,11.78-6.28,12.85-10V776.05s-4.28-3.52-11.93-3.52c-8.57,0-14.84,7-14.84,15.6S295.64,803.74,303.74,803.74Z"/><path class="cls-1" d="M353.16,714.55a3,3,0,0,1,2.9-2.91h12.86a3,3,0,0,1,2.9,2.91V815.82a3,3,0,0,1-2.9,2.91H356.06a3,3,0,0,1-2.9-2.91Z"/><path class="cls-1" d="M388.8,725.25a10.45,10.45,0,0,1,10.41-10.55,10.56,10.56,0,1,1,0,21.11A10.45,10.45,0,0,1,388.8,725.25Zm1.38,35.19a2.9,2.9,0,0,1,2.91-2.9h12.69a2.9,2.9,0,0,1,2.91,2.9v55.38a3,3,0,0,1-2.91,2.91H393.09a3,3,0,0,1-2.91-2.91Z"/><path class="cls-1" d="M432.1,797s-4.59-5.2-4.59-14.38A26.64,26.64,0,0,1,454.13,756H482a2.82,2.82,0,0,1,2.91,2.91V764a2.68,2.68,0,0,1-1.69,2.6l-8.56,2.75s6.12,4.75,6.12,15.61c0,12.08-10.1,24-26.16,24-5.82,0-9.8-1.23-12.24-1.23a6.09,6.09,0,0,0-5.66,5.82c0,3.21,2.75,5.2,6.12,5.2h19.58c13.92,0,25.24,7.95,25.24,21.42,0,14.07-11.32,26-33.5,26-22.64,0-31.21-11.16-31.21-20.95,0-9.18,7.65-13.62,9.18-14.54v-.46a16.53,16.53,0,0,1-11.48-16.06C420.62,802.21,432.1,797,432.1,797ZM454,850.86c8.57,0,14.23-3.83,14.23-9.64,0-2.76-2.14-7.5-11.17-7.5a70.67,70.67,0,0,0-9.94.61c-1.84.62-6.58,2.76-6.58,7.5C440.51,847.18,445.71,850.86,454,850.86Zm.62-56.46c6.27,0,10.55-4.59,10.55-11s-4.28-11-10.55-11c-6.12,0-10.71,4.59-10.71,11S448.47,794.4,454.59,794.4Z"/><path class="cls-1" d="M497.73,714.55a3,3,0,0,1,2.9-2.91h13a3,3,0,0,1,2.9,2.91v46.5a28.26,28.26,0,0,1,16.22-5c19.43,0,27.38,15,27.38,30.45v29.37a3,3,0,0,1-2.9,2.91H544.85a2.91,2.91,0,0,1-2.91-2.91V786.3c0-8.42-4.74-13.77-12.09-13.77-7,0-11.78,4.59-13.31,10.86v32.43c0,1.68-.91,2.91-3.21,2.91h-12.7a3,3,0,0,1-2.9-2.91Z"/><path class="cls-1" d="M580,773.6h-5.2a2.88,2.88,0,0,1-2.75-2.91V760.44a2.77,2.77,0,0,1,2.75-2.9H580v-17a3,3,0,0,1,2.91-2.9l12.54-.16a2.88,2.88,0,0,1,2.76,2.91v17.14H611.7a2.81,2.81,0,0,1,2.91,2.9v10.25a2.91,2.91,0,0,1-2.91,2.91H598.24v24.48c0,4.28,2.29,4.89,4.74,4.89a24.81,24.81,0,0,0,7.5-1.68,2.37,2.37,0,0,1,3.36,1.68l3.06,9.64a2.77,2.77,0,0,1-1.68,3.67c-.76.46-10.71,4-18.21,4-11.78,0-17-7.34-17-19.74Z"/><path class="cls-1" d="M626.23,820.26h51.86a2.81,2.81,0,0,1,2.91,2.91v6a2.78,2.78,0,0,1-2.91,2.75H626.23a2.77,2.77,0,0,1-2.9-2.75v-6A2.81,2.81,0,0,1,626.23,820.26Z"/><path class="cls-1" d="M720.93,756c9.49,0,16.83,3.83,22.64,10.87a2.9,2.9,0,0,1-.76,4.28l-7,6.73c-1.38,1.23-2.75.46-3.83-.46a14.39,14.39,0,0,0-10.55-4.89c-8.26,0-15,7-15,15.6s6.57,15.61,14.84,15.61c6.57,0,9.48-3.22,12.23-5.82a2.87,2.87,0,0,1,3.83-.46l6.58,5.66c1.53,1.23,2.14,2.76,1.07,4.29-5.2,8.11-13.31,12.85-24.17,12.85-17.29,0-32.44-13.77-32.44-32.13C688.34,770.08,703.8,756,720.93,756Z"/><path class="cls-1" d="M784.88,756c17.29,0,31.36,14.69,31.36,32,0,17.59-14.07,32.28-31.36,32.28S753.52,805.57,753.52,788C753.52,770.69,767.59,756,784.88,756Zm0,47.74c8.11,0,14.68-7,14.68-15.76s-6.57-15.45-14.68-15.45-14.69,6.88-14.69,15.45S776.62,803.74,784.88,803.74Z"/><path class="cls-1" d="M829.85,760.44a2.9,2.9,0,0,1,2.91-2.9h5.66a2.59,2.59,0,0,1,2.6,1.68l2.14,5.81a27.86,27.86,0,0,1,20.5-9c8.72,0,14.84,3.37,19.89,9.49,2.6-2.75,10.56-9.49,21.57-9.49,19.58,0,26.78,14.54,26.78,30.6v29.22a2.91,2.91,0,0,1-2.91,2.91H916.6a2.91,2.91,0,0,1-2.91-2.91V785.53c0-7.95-3.82-13-11.47-13A15.38,15.38,0,0,0,889.37,779s.15,3.06.15,5.82v31.05a3,3,0,0,1-2.91,2.91H875.14a2.91,2.91,0,0,1-2.91-2.91V785.53c0-7.95-3.52-13-11.32-13-7.65,0-11.32,5.51-12.85,9.64v33.65a3,3,0,0,1-2.91,2.91H832.76a3,3,0,0,1-2.91-2.91Z"/><path class="cls-1" d="M949,714.55a3,3,0,0,1,2.91-2.91h13a3,3,0,0,1,2.91,2.91v44.21A36.71,36.71,0,0,1,981.46,756c18.21,0,30.29,14.23,30.29,32.13,0,17.59-12.69,32.13-29.37,32.13a26.84,26.84,0,0,1-20-9.18l-1.53,4.74c-.46,1.68-1.53,2.91-2.91,2.91h-6a3,3,0,0,1-2.91-2.91Zm31.05,89.19c8.11,0,13.93-7,13.93-15.61s-6.28-15.6-14.84-15.6c-7.65,0-11.94,3.52-11.94,3.52v17.74C968.31,797.46,972,803.74,980.08,803.74Z"/><path class="cls-1" d="M1037.91,742.54l-13.46,2.91a2.53,2.53,0,0,1-3.06-2l-.92-7.5a3.17,3.17,0,0,1,.77-2.75l22-18.51H1054a2.88,2.88,0,0,1,2.75,2.91v98.21a2.88,2.88,0,0,1-2.75,2.91h-13.16a2.91,2.91,0,0,1-2.91-2.91Z"/><path class="cls-1" d="M1180.5,948h-40v-9h40Zm-80,0h-40v-9h40Zm-80,0h-40v-9h40Zm-80,0h-40v-9h40Zm-80,0h-40v-9h40Zm-80,0h-40v-9h40Zm-80,0h-40v-9h40Zm-80,0h-40v-9h40Zm-80,0h-40v-9h40Zm-80,0h-40v-9h40Zm-80,0h-40v-9h40Zm-80,0h-40v-9h40Zm-80,0h-40v-9h40Zm-80,0h-40v-9h40Zm-80,0h-40v-9h40ZM9,919.5H0v-40H9Zm1176-6h-9v-40h9ZM9,839.5H0v-40H9Zm1176-6h-9v-40h9ZM9,759.5H0v-40H9Zm1176-6h-9v-40h9ZM9,679.5H0v-40H9Zm1176-6h-9v-40h9ZM9,599.5H0v-40H9Zm1176-6h-9v-40h9ZM9,519.5H0v-40H9Zm1176-6h-9v-40h9ZM9,439.5H0v-40H9Zm1176-6h-9v-40h9ZM9,359.5H0v-40H9Zm1176-6h-9v-40h9ZM9,279.5H0v-40H9Zm1176-6h-9v-40h9ZM9,199.5H0v-40H9Zm1176-6h-9v-40h9ZM9,119.5H0v-40H9Zm1176-6h-9v-40h9ZM9,39.5H0V0H9.5V9H9Zm1176-6h-9V9h-6.5V0H1185ZM1129.5,9h-40V0h40Zm-80,0h-40V0h40Zm-80,0h-40V0h40Zm-80,0h-40V0h40Zm-80,0h-40V0h40Zm-80,0h-40V0h40Zm-80,0h-40V0h40Zm-80,0h-40V0h40Zm-80,0h-40V0h40Zm-80,0h-40V0h40Zm-80,0h-40V0h40Zm-80,0h-40V0h40Zm-80,0h-40V0h40Zm-80,0h-40V0h40Z"/><path class="cls-1" d="M696.49,236.42c-6.52,21.7-16.88,39.5-39.66,46.1-32.45,9.41-59,1.13-78.28-28-.87,1.16-1.56,2-2.18,2.92-8.85,13-20.19,23.17-35.69,27.08-19.55,4.93-38.66,3.49-55.82-8.16-12.37-8.41-20-20.44-23.73-34.92a19.61,19.61,0,0,1-.26-2.21c.84.51,1.4.82,1.92,1.17,1,.69,2,1.41,3,2.12,9.83,6.91,19.81,7,29.5,0,7.93-5.73,15.5-12,23.21-18,5-4,10.27-7.51,16.56-9.13a29.11,29.11,0,0,1,22.49,2.94c4.56,2.62,8.71,6,13,9,1.16.8,2.28,1.67,3.49,2.38a7.9,7.9,0,0,0,9.41-.48c2.38-1.82,4.59-3.87,6.89-5.79,8.72-7.29,18.47-11.81,30-8.68a48.79,48.79,0,0,1,14.42,6.91c8.42,5.79,16.28,12.4,24.55,18.43,5.75,4.21,12.11,6.95,19.53,5.67,5.27-.92,9.71-3.61,14-6.69C693.93,238.33,695,237.55,696.49,236.42Z"/><path class="cls-1" d="M649.2,167.19a14.49,14.49,0,0,0,9.41-8c1.63-3.5,2.67-7.27,4.21-10.81,2.32-5.33,4.69-10.65,7.32-15.83,1.91-3.78,6-5,10-3.48,3.49,1.34,4.48,3.62,3,7.16C680.66,142.14,678,148,675.67,154a46.23,46.23,0,0,0-2,8.2,2.53,2.53,0,0,0,.85,2.23,2.67,2.67,0,0,0,2.3-.73c2.3-2.31,4.44-4.78,6.67-7.16.78-.84,1.52-1.94,2.5-2.3a3.93,3.93,0,0,1,3,.48c.42.24.54,1.82.17,2.39-4.76,7.37-9.85,14.52-17.44,19.28a18.25,18.25,0,0,1-7.14,2.39c-3.71.48-5.92-1.47-6.76-5.17-.28-1.26-.58-2.51-1-4.24l-3.34,2.16c-6.1,4-12.64,6.61-20,6.82-5.43.15-6.67-.27-10.82-4a18.16,18.16,0,0,0-1,2.3q-2.74,9.66-5.41,19.35c-1,3.51-3.06,4.63-6.58,3.51-5-1.59-7.08-5.14-5.77-10.2,1.37-5.29,3-10.53,4.44-15.8.18-.63.25-1.3.47-2.51-1.4.56-2.36.86-3.24,1.32-4.9,2.5-9.92,4.65-15.45,5.15-4.66.43-9.23.31-12.8-4.61-1.62,5.73-3,10.7-4.43,15.68-.69,2.45-1.35,4.92-2,7.38-.62,2.22-2.14,3.08-4.36,3a8,8,0,0,1-7.76-10.39c1.3-4.67,2.68-9.33,4-14,.28-1,.45-2,.83-3.82-1.31.86-2,1.36-2.67,1.72-2.64,1.35-5.2,3-8,3.88-3.66,1.16-5.95.07-7.68-3.32-1.16-2.28-2.21-2.25-4-.77a14.66,14.66,0,0,1-9.07,3.87c-5.62.18-9.16-2.28-10.81-7.68-1.48-4.82-.81-9.67.14-14.42A48.39,48.39,0,0,1,532,131.78c4-4.7,8.88-7.7,15.24-8,3.65-.17,6.34,1.16,8,4.49a6.5,6.5,0,0,0,.72,1.1c.09.13.28.19.63.41l2.38-1.82a7.78,7.78,0,0,1,7.75-1.22c3.69,1.31,4.75,3.57,3.26,7.2-2.56,6.19-5.31,12.3-7.79,18.53a37.5,37.5,0,0,0-1.83,7.13,2.87,2.87,0,0,0,.8,2.47,2.7,2.7,0,0,0,2.53-.67c2.27-2.87,4.8-5.69,6.34-8.95,3.16-6.69,5.68-13.67,8.58-20.48,2.39-5.62,7.11-7,12.22-3.52a3.16,3.16,0,0,0,4.28-.17,17.05,17.05,0,0,1,3.61-2.19c8.11-3.64,15.15.68,15.59,9.54.51,10.52-3.5,19.62-8.92,28.27-.54.84-1.06,1.7-1.58,2.55l.74.77c2-1.67,4.36-3.1,6-5.07a26.45,26.45,0,0,0,4-6.8c3.24-7.62,6.22-15.35,9.43-23,2.16-5.15,7.48-6.53,11.93-3,1.63,1.29,2.63,1.12,4.11,0a20.31,20.31,0,0,1,4.55-2.66c7.44-3.09,13.76.67,14.77,8.66a32.31,32.31,0,0,1-2.43,16.57c-2,4.78-4.62,9.28-7,13.91C649.68,166.29,649.44,166.74,649.2,167.19Zm-50.08-33.54a8.38,8.38,0,0,0-1.44.63,16.23,16.23,0,0,0-1.57,1.42,50.83,50.83,0,0,0-13,28.39,14.41,14.41,0,0,0,.5,3.68c1.15-.64,2.32-1.28,3.47-2a2.1,2.1,0,0,0,.54-.57,58.62,58.62,0,0,0,12-27.31C599.84,136.68,599.34,135.32,599.12,133.65Zm28.56,32,1.25,3.12c1-.54,1.93-1.05,2.86-1.62a3.15,3.15,0,0,0,.74-.76c6.41-8.2,10.81-17.29,12.11-27.71.13-1.07-.44-2.22-.69-3.33a10.14,10.14,0,0,0-2.85,1.49C633.5,144.87,629.9,154.76,627.68,165.66Zm-77-28.63-1.15-3.65c-1.26.81-2.59,1.53-3.76,2.46a5.66,5.66,0,0,0-1.58,2.1c-2.65,6.11-5.47,12.17-7.75,18.42-.93,2.56-.72,5.55-.89,8.35a6.12,6.12,0,0,0,.73,2.14c.75-.35,1.52-.66,2.25-1a2.52,2.52,0,0,0,.75-.74C545.75,157,549.23,147.73,550.72,137Z"/><path class="cls-1" d="M488.85,160.2c-.94,3.43-2,6.84-2.8,10.3-1.58,6.57-6.2,8.11-11.52,3.78a7.4,7.4,0,0,1-2.86-8,238.65,238.65,0,0,1,15.38-45c1.74-3.72,4.05-5.59,8.19-5,1.31.18,2.65.1,4,.17,4.51.26,5.35,1.56,3.66,5.69-2.28,5.55-4.61,11.08-6.89,16.63-.38.93-.61,1.91-1.14,3.59,6.7-3,11.78-6.66,15.09-12.45a20.1,20.1,0,0,0,2.86-11.13A9.26,9.26,0,0,0,505.4,110a18.93,18.93,0,0,0-14.3,2.17c-8.06,4.75-13.39,11.6-15.13,21-.68,3.72-3.21,4.94-6.6,3.19-3.77-1.95-5.59-6.73-4-11.47a22.63,22.63,0,0,1,3.58-7c7.12-8.67,16.16-14,27.51-15.11a49,49,0,0,1,18.77,2.16,18.42,18.42,0,0,1,2.48.91c14.09,6.52,15.46,19.11,6.5,30.07-4.6,5.63-10.94,8.85-17.74,11.07-2.37.78-3.15,2-3,4.43.43,6.76,1.64,13.32,4.85,19.35,2.9,5.44,7.09,9.38,13.36,10.71,3.93.83,7.49-.38,11-1.75.74-.28,1.45-.92,2.17-.92,1.12,0,3,.14,3.19.73a3.73,3.73,0,0,1-.63,3.42c-6.09,5.35-13,9.32-21.26,9.66C506,193,499,187.46,495,178.66c-2.39-5.19-3.32-11-4.9-16.61-.16-.56-.27-1.14-.41-1.71Z"/><path class="cls-1" d="M682.51,123.76a9.63,9.63,0,0,1-9.74-9.68,9.76,9.76,0,0,1,9.87-9.89,9.79,9.79,0,1,1-.13,19.57Z"/></g></g></svg>