<svg xmlns="http://www.w3.org/2000/svg" xmlns:xlink="http://www.w3.org/1999/xlink" viewBox="0 0 373.93 373"><defs><style>.cls-1{fill:url(#linear-gradient);}.cls-2{fill:url(#linear-gradient-2);}.cls-3{fill:url(#linear-gradient-3);}.cls-4{fill:url(#linear-gradient-4);}</style><linearGradient id="linear-gradient" x1="188.86" y1="212.02" x2="203.36" y2="212.02" gradientUnits="userSpaceOnUse"><stop offset="0" stop-color="#344694"/><stop offset="1" stop-color="#263270"/></linearGradient><linearGradient id="linear-gradient-2" x1="161.7" y1="183.44" x2="175.69" y2="183.44" xlink:href="#linear-gradient"/><linearGradient id="linear-gradient-3" x1="175.58" y1="198.21" x2="190.45" y2="198.21" xlink:href="#linear-gradient"/><linearGradient id="linear-gradient-4" x1="0" y1="186.5" x2="373.93" y2="186.5" xlink:href="#linear-gradient"/></defs><title>cupon</title><g id="Layer_2" data-name="Layer 2"><g id="Layer_1-2" data-name="Layer 1"><path class="cls-1" d="M190.2,215.15a1.14,1.14,0,0,0,.45,0,23.63,23.63,0,0,0,11.92-4.67,4.29,4.29,0,0,0,.79-1.21,4.08,4.08,0,0,0-1.29-.4c-4.68.12-8.72,2-12.65,4.6l-.56,1.31C189.31,214.91,189.75,215,190.2,215.15Z"/><path class="cls-2" d="M173.83,180a2.43,2.43,0,0,0-1.1.15c-2.63,1-5.28,2-7.84,3.2a12.63,12.63,0,0,0-2.76,2.23c-.23.2-.29.57-.43.86.33.12.66.26,1,.36a1.35,1.35,0,0,0,.45,0,23.79,23.79,0,0,0,11.81-5c.19-.37.47-.9.74-1.44C175.07,180.28,174.46,180.1,173.83,180Z"/><path class="cls-3" d="M177.2,201.36a1.29,1.29,0,0,0,.34,0,24.9,24.9,0,0,0,11.78-4.57,7.15,7.15,0,0,0,1.13-1.44,3.53,3.53,0,0,0-.62-.25,6.55,6.55,0,0,0-.89,0,21.53,21.53,0,0,0-12.4,4.6,6,6,0,0,0-1,1.25Z"/><path class="cls-4" d="M304,201.3l69.9-69.36-32.2-32.79c-25.26,17-46.76,17.14-65.15.35a46,46,0,0,1-15-29c-1.94-15.07,3.48-27.93,12.15-38.15L241.59,0,171.84,70l22.94,21.92L183,104,161.17,80.48,0,241.23l32.37,32.3c23.9-20.09,51.47-13.54,66.45,1.69,17.63,17.9,17.84,42.59.82,65.57L131.54,373l162-161.31-23.36-22c3.94-3.93,7.64-7.62,12.15-12.1Zm-79.71,16.16a4.19,4.19,0,0,1-5.93-.11,4.07,4.07,0,0,1,0-5.82,4.12,4.12,0,0,1,5.91,0A4.22,4.22,0,0,1,224.32,217.46Zm43.32-51.68L257,175.93,233.6,152.24l10-10.42Zm-88.85,15.34a1.23,1.23,0,0,0,.07.32l1.26.16a3.3,3.3,0,0,1,2.68,2c.71,1.49.35,2.49-1.18,3.13-2.62,1.09-5.27,2.1-7.88,3.22a15.08,15.08,0,0,0-2.68,1.58c-.28.2-.59.73-.5,1a1.12,1.12,0,0,0,.95.56,21,21,0,0,0,4.58-.78c2.95-1.06,5.8-2.4,8.7-3.57,2.4-1,4.23,0,4.72,2.61a1.33,1.33,0,0,0,1.33,1.23,6.93,6.93,0,0,1,1.74.43c3.51,1.33,4.33,4.74,1.81,7.52-3,3.3-6.92,4.83-11.14,5.79l-1.23.29c0,.16,0,.31,0,.46a18.78,18.78,0,0,0,3.32.29,11.1,11.1,0,0,0,3.23-.85c3.25-1.31,6.46-2.73,9.71-4.06a3.09,3.09,0,0,1,4.47,2.67c.1.88.45,1.13,1.23,1.23a8.8,8.8,0,0,1,2.16.56c3.16,1.31,3.93,4.33,1.84,7a13.71,13.71,0,0,1-5.7,4.24c-2,.83-4.16,1.39-6.25,2.08l-.61.19a6.13,6.13,0,0,0,5.22.41c1.53-.56,3-1.38,4.5-2,2.29-.9,4.59-1.78,6.93-2.55a3.23,3.23,0,0,1,4,2,2,2,0,0,1-1.25,3c-2.52,1-5.08,2-7.57,3.1a19.89,19.89,0,0,0-3.05,1.86,1.08,1.08,0,0,0-.41.92,1.12,1.12,0,0,0,.91.47c1.38,0,2.76-.1,4.14-.14a3.29,3.29,0,0,1,1.44.06,1.69,1.69,0,0,1,.76,1.05c.05.19-.39.7-.67.76-3.63.79-7.3,1.4-11,.55a7.61,7.61,0,0,1-2.86-1.42c-1.25-1-1.33-2.21-.47-3.57l1-1.57L195.4,223a16.27,16.27,0,0,1-8-3.95c-1.68-1.58-1.92-2.08-2.06-4.43a9.53,9.53,0,0,0-1,.38c-2.47,1.38-4.94,2.78-7.41,4.18a1.91,1.91,0,0,1-3-.92,3.28,3.28,0,0,1,1.32-4.79c2-1.17,4-2.26,6.06-3.4a9.64,9.64,0,0,0,.9-.61c-.59-.25-1-.45-1.37-.58a17.89,17.89,0,0,1-6.17-3.08c-1.52-1.27-2.85-2.67-2.45-5.21-2.2,1.23-4.11,2.29-6,3.37-1,.52-1.88,1.06-2.82,1.6a1.64,1.64,0,0,1-2.21-.41,3.4,3.4,0,0,1,.79-5.43c1.79-1,3.6-2,5.39-3,.38-.21.73-.47,1.39-.89-.65-.14-1-.18-1.31-.29a23.36,23.36,0,0,1-3.56-1.23,2.39,2.39,0,0,1-1.31-3.3c.34-1,0-1.33-1-1.42a6.24,6.24,0,0,1-3.87-1.56,4.18,4.18,0,0,1-.94-5.54,12.41,12.41,0,0,1,4.37-4.27,20.36,20.36,0,0,1,9.81-3.53,8.76,8.76,0,0,1,7,2.17,3.28,3.28,0,0,1,1,3.74A3.25,3.25,0,0,0,178.79,181.12Zm52-52.44-9.69,9.65-23.23-23.17,9.55-9.7Zm-77.7,24a9.57,9.57,0,0,1,3.18-1A16.76,16.76,0,0,1,169,155.33a20.67,20.67,0,0,1,5,6.26,8.36,8.36,0,0,1,.47,1c2.27,6.18-1.09,10.36-7.06,11a15.52,15.52,0,0,1-8.62-2,1.58,1.58,0,0,0-2.23.43,19.88,19.88,0,0,0-4.34,7.25,8.16,8.16,0,0,0,.8,7.2,8.06,8.06,0,0,0,3.82,2.79c.31.13.71.15.93.37s.84.93.74,1.17a1.58,1.58,0,0,1-1.22.84,14.58,14.58,0,0,1-9.26-3.47c-3.19-2.94-3.63-6.67-2.2-10.51a47.47,47.47,0,0,1,3.51-6.44c.12-.22.26-.42.39-.63l-.21-.3c-1.31.75-2.64,1.46-3.92,2.25-2.44,1.5-4.29.57-4.59-2.32a3.14,3.14,0,0,1,1.54-3.24,100.93,100.93,0,0,1,18.07-8.87c1.64-.59,2.89-.46,4,.95.34.45.76.82,1.14,1.24,1.27,1.43,1.13,2.07-.61,2.8L158,166c-.4.16-.76.39-1.42.73a12.81,12.81,0,0,0,8.25.79,8.51,8.51,0,0,0,4.19-2.48,3.91,3.91,0,0,0,.43-4.86,8,8,0,0,0-4.93-3.63,12.67,12.67,0,0,0-10.81,1.75c-1.32.91-2.44.52-2.93-1A3.93,3.93,0,0,1,153.05,152.64Zm10.1,104.56c-12.53-6.9-18-17.33-15.06-31.82-.6.08-1.07.13-1.52.22-6.56,1.25-13,.89-18.8-2.58-7.33-4.38-12.63-10.53-14.27-19.16a24.68,24.68,0,0,1,3.34-17.56,8.44,8.44,0,0,1,.59-.74c.1.4.17.66.22.92.1.52.19,1,.28,1.55.88,5,3.83,8,8.83,8.84,4.09.66,8.23,1.06,12.34,1.56a19.28,19.28,0,0,1,7.69,2.22,12.36,12.36,0,0,1,5.86,7.62c.58,2.15.82,4.39,1.22,6.6.11.58.18,1.18.33,1.76a3.36,3.36,0,0,0,3,2.67c1.26.17,2.53.22,3.8.33,4.8.43,9.07,2,11.58,6.38a20.46,20.46,0,0,1,2.24,6.38c.79,4.26,1.17,8.59,1.84,12.88.46,3,1.54,5.7,4.15,7.54A14.25,14.25,0,0,0,187,255l1.89.28C180.38,259.82,172,262,163.15,257.2Z"/></g></g></svg>