<svg xmlns="http://www.w3.org/2000/svg" viewBox="0 0 240 240"><defs><style>.cls-1{fill:#fff;}</style></defs><title>facebook</title><g id="Layer_2" data-name="Layer 2"><g id="Layer_1-2" data-name="Layer 1"><path class="cls-1" d="M128,240H9l-9-9V9L9,0H231l9,9V231l-9,9H165c.16-2,.47-3.95.47-5.92q0-40.47,0-80.94v-6.29h31.18c1.55-12,3-23.69,4.6-35.9H165.49c0-8.13,0-15.76,0-23.39.09-12.72,4.88-17.49,17.55-17.55,6.29,0,12.58,0,19.43,0,0-9.61-.14-18.73.08-27.84.08-3.44-1.15-4.81-4.46-4.92-7.65-.24-15.3-.79-23-.89-21.32-.29-37.81,10.09-43.62,28.27-2.14,6.69-2.79,14-3.25,21.07-.53,8.24-.12,16.55-.12,25.32H97.31v36.14H128Z"/></g></g></svg>