<?xml version="1.0" encoding="utf-8"?>
<!-- Generator: Adobe Illustrator 22.1.0, SVG Export Plug-In . SVG Version: 6.00 Build 0)  -->
<svg version="1.1" id="Layer_1" xmlns="http://www.w3.org/2000/svg" xmlns:xlink="http://www.w3.org/1999/xlink" x="0px" y="0px"
	 viewBox="0 0 1588 566" style="enable-background:new 0 0 1588 566;" xml:space="preserve">
<style type="text/css">
	.st0{fill:url(#SVGID_1_);}
	.st1{fill:#344793;}
	.st2{font-family:'SourceSansPro-Semibold';}
	.st3{font-size:34.322px;}
	.st4{fill:url(#SVGID_2_);}
	.st5{fill:url(#SVGID_3_);}
	.st6{fill:url(#SVGID_4_);}
	.st7{fill:url(#SVGID_5_);}
	.st8{fill:url(#SVGID_6_);}
	.st9{fill:url(#SVGID_7_);}
	.st10{fill:url(#SVGID_8_);}
	.st11{fill:url(#SVGID_9_);}
	.st12{fill:url(#SVGID_10_);}
	.st13{fill:url(#SVGID_11_);}
	.st14{fill:url(#SVGID_12_);}
	.st15{fill:url(#SVGID_13_);}
	.st16{fill:url(#SVGID_14_);}
</style>
<g>
	<g>
		<linearGradient id="SVGID_1_" gradientUnits="userSpaceOnUse" x1="190.6624" y1="223.9546" x2="348.0987" y2="223.9546">
			<stop  offset="0" style="stop-color:#344793"/>
			<stop  offset="1" style="stop-color:#27336F"/>
		</linearGradient>
		<path class="st0" d="M237,126.4c11.6-3,23.4-3.6,35.1-0.2c22,6.2,36.6,20.6,44.3,41.9c9.5,26.4,19,52.9,28.1,79.4
			c13.1,38.3-11.2,79.2-51.3,84.9c-27.8,4-54.5-7.8-65.7-33.9c-13.6-31.5-24.9-64.2-34.7-97.1C185,175,199,146.5,223,132.9
			c3.8-2.1,4.6-4.1,3.7-8.2c-0.6-2.8-0.9-7.5-0.9-7.5l6.1-2.4C231.8,114.8,235.1,121,237,126.4z M313.3,186.2
			c-35,12.4-69.2,24.6-103.6,36.8c0.5,1.9,0.9,3.4,1.4,4.8c7.9,21.9,14.7,44.2,24,65.4c11,25,40.7,36.4,66.3,27.4
			c26.8-9.3,43-36.5,35.7-63.7C330.7,233.3,321.5,210.4,313.3,186.2z M206.5,214.3c16.2-5.7,31.7-11.2,47.3-16.7c0-2.1,0-3.9,0-5.8
			c-12.2-1.4-19.1-19.3-12.8-30.1c-2.3-6.6-4.4-12.4-6.5-18.4c3.2-1.2,5.8-2.1,9.1-3.3c1.3,6.7,5.2,12,5.2,18.8
			c3.5,0.2,7.7,1.9,9.6,6.8c1.6,4.1,3.5,8.2,4.3,12.5c0.5,2.8-0.7,5.9-1.1,8.8c-0.3,2.3-0.6,4.6-1.1,8c17.7-6.3,33.4-11.8,49.3-17.5
			c-7.2-23.1-21-39-44.8-43.2c-21.4-3.9-39.9,3.1-53.2,20.5C198,172.9,197.2,192.9,206.5,214.3z"/>
		<text transform="matrix(1 0 0 1 131.4941 399.5566)"><tspan x="0" y="0" class="st1 st2 st3">Usa el mouse para </tspan><tspan x="-13.9" y="41.2" class="st1 st2 st3">mover la corcholata.</tspan></text>
	</g>
	<g>
		<text transform="matrix(1 0 0 1 1084.3066 400.7275)"><tspan x="0" y="0" class="st1 st2 st3">Si estás en móvil mueve la</tspan><tspan x="18.4" y="41.2" class="st1 st2 st3">corcholata con tu dedo.</tspan></text>
		<g>
			<linearGradient id="SVGID_2_" gradientUnits="userSpaceOnUse" x1="1298.8629" y1="147.8432" x2="1379.4006" y2="147.8432">
				<stop  offset="0" style="stop-color:#344793"/>
				<stop  offset="1" style="stop-color:#27336F"/>
			</linearGradient>
			<path class="st4" d="M1351.3,138.2c-3.2-3-6.6-5.8-9.6-8.9c-3.5-3.6-3.7-8.2-0.9-11.4c2.6-2.9,8.2-3.3,11.5-0.2
				c8.5,8,16.7,16.2,24.7,24.6c3.5,3.7,3,8-0.7,11.7c-7.6,7.7-15.4,15.4-23.1,23.1c-3.7,3.7-8.9,3.9-12.2,0.7c-3.3-3.2-3-8.1,0.8-12
				c3-3.1,6.1-6.1,10.1-10.1c-7,0-12.8,0-18.6,0c-8.5,0-16.9,0-25.4,0c-5.6,0-9-3-9.1-7.8c-0.1-5,3.3-8.3,9.1-8.4
				c12.5-0.1,25.1,0,37.6,0c1.6,0,3.3,0,4.9,0C1350.8,139.1,1351,138.7,1351.3,138.2z"/>
			<linearGradient id="SVGID_3_" gradientUnits="userSpaceOnUse" x1="1140.4938" y1="147.8432" x2="1221.0315" y2="147.8432">
				<stop  offset="0" style="stop-color:#344793"/>
				<stop  offset="1" style="stop-color:#27336F"/>
			</linearGradient>
			<path class="st5" d="M1168.6,157.5c3.2,3,6.6,5.8,9.6,8.9c3.5,3.6,3.7,8.2,0.9,11.4c-2.6,2.9-8.2,3.3-11.5,0.2
				c-8.5-8-16.7-16.2-24.7-24.6c-3.5-3.7-3-8,0.7-11.7c7.6-7.7,15.4-15.4,23.1-23.1c3.7-3.7,8.9-3.9,12.2-0.7c3.3,3.2,3,8.1-0.8,12
				c-3,3.1-6.1,6.1-10.1,10.1c7,0,12.8,0,18.6,0c8.5,0,16.9,0,25.4,0c5.6,0,9,3,9.1,7.8c0.1,5-3.3,8.3-9.1,8.4
				c-12.5,0.1-25.1,0-37.6,0c-1.6,0-3.3,0-4.9,0C1169.1,156.5,1168.9,157,1168.6,157.5z"/>
			<linearGradient id="SVGID_4_" gradientUnits="userSpaceOnUse" x1="1186.5405" y1="223.2197" x2="1361.2523" y2="223.2197">
				<stop  offset="0" style="stop-color:#344793"/>
				<stop  offset="1" style="stop-color:#27336F"/>
			</linearGradient>
			<path class="st6" d="M1241.7,251.8c0-7.7,0-14.5,0-21.3c0-32.6,0-65.3,0-97.9c0-10.7,7.3-18.5,17.7-18.9
				c10.1-0.4,18.4,6.6,18.8,17.3c0.5,15.1,0.2,30.2,0.3,45.2c0,1.6,0,3.2,0,5.1c8.6,0.1,16.4,2.1,23.5,6.3c0.6,0.3,1.4,0.2,2.2,0.2
				c7.9-0.4,15.4,1.3,22.6,4.6c3.3,1.5,7,2.1,10.5,3.1c3.4,1,7,1.6,10.3,3c9.5,3.8,13.6,10.1,13.6,20.3c0,16.2,0.2,32.4,0,48.6
				c-0.4,31-23,58.5-53.3,64.3c-21.6,4.1-40.5-2.2-56.1-17.4c-20-19.5-39.5-39.6-59.2-59.4c-7.9-7.9-8-18.9-0.5-26.4
				c7.4-7.4,18.5-7.2,26.4,0.6c6.9,6.8,13.7,13.6,20.5,20.4C1239.7,250,1240.4,250.6,1241.7,251.8z M1269.2,213.8c0-1.6,0-3.1,0-4.5
				c0-24.7,0-49.5,0-74.2c0-1.2,0-2.5,0-3.7c-0.3-4.7-3.7-8.2-8.2-8.6c-5.1-0.4-9,2.5-9.9,7.4c-0.3,1.7-0.3,3.4-0.3,5.2
				c0,37.7,0,75.5,0,113.2c0,1.5,0.3,3.1-0.2,4.4c-0.9,2.2-1.8,4.7-3.5,6.2c-3.8,3.3-8.5,2.6-12.6-1.4c-7.5-7.4-14.9-14.8-22.4-22.2
				c-2.4-2.4-5.1-3.9-8.6-3.2c-3.7,0.7-6.2,2.8-7.3,6.5c-1.2,3.8,0.1,6.7,2.7,9.4c19.4,19.6,38.8,39.3,58.3,58.8
				c12.3,12.3,27.2,17.9,44.7,16.4c25.9-2.3,47.8-25.5,49.5-51.5c1.2-18.1,0.5-36.3,0.4-54.5c0-2.4-0.9-5.5-2.5-7.1
				c-4.1-4.1-9.7-5.3-15.8-5.9c0,6.5,0,12.5,0,18.5c-3.2,0-6,0-9.2,0c0-6.3,0.1-12.5-0.1-18.6c0-1.2-0.6-2.9-1.5-3.3
				c-5.1-2.6-10.5-4.2-16.7-3.7c0,8.7,0,17.1,0,25.6c-3.3,0-6.2,0-9.3,0c0-8.4,0.1-16.6-0.1-24.7c0-1.2-0.8-2.9-1.8-3.5
				c-4.9-2.7-10.3-3.8-16.4-3.5c0,7.6,0,15.1,0,22.7C1275.2,213.8,1272.4,213.8,1269.2,213.8z"/>
		</g>
	</g>
	<text transform="matrix(1 0 0 1 576.1123 378.9102)"><tspan x="0" y="0" class="st1 st2 st3">Presiona la tecla ENTER</tspan><tspan x="-35.2" y="41.2" class="st1 st2 st3">o usa tu botón en móvil para</tspan><tspan x="-8.7" y="82.4" class="st1 st2 st3"> activar el modo evasión.</tspan></text>
	<g>
		<linearGradient id="SVGID_5_" gradientUnits="userSpaceOnUse" x1="609.2599" y1="156.9615" x2="722.329" y2="156.9615">
			<stop  offset="0" style="stop-color:#344793"/>
			<stop  offset="1" style="stop-color:#27336F"/>
		</linearGradient>
		<path class="st7" d="M722.3,103c0-5.4-2.9-8.7-7.8-8.7c-32.5,0-64.9,0-97.4,0c-4.9,0-7.8,3.2-7.8,8.7c0,20.3,0,40.5,0,60.8
			c0,5.8,2.8,8.9,8,8.9c6.2,0,12.5,0,18.7,0c6,0,8.6,2.9,8.6,9.5c0,9.5,0,18.9,0,28.4c0,6.1,2.7,9.1,8.2,9.1c20.4,0,40.9,0,61.3,0
			c5.4,0,8.2-3.1,8.2-9.1c0-17.9,0-35.7,0-53.6C722.3,139,722.3,121,722.3,103z M717.2,156.7c-0.1,16.3-0.2,32.7-0.3,49
			c0,5.5-2.6,8.3-7.6,8.3c-18.7-0.1-32.9-0.2-51.5-0.4c-5,0-7.5-2.8-7.5-8.4c0-8.7,0.1-17.3,0.2-26c0-6.1-6.8-12.5-12.3-12.5
			c-5.7,0-11.4-0.1-17.1-0.1c-4.7,0-7.3,0.8-7.3-4.5c0.1-18.5,0.2-37.1,0.3-55.6c0-5,2.7-7.9,7.2-7.9c29.7,0.2,59.3,0.4,89,0.6
			c4.5,0,7.1,3,7.1,8C717.4,123.7,717.3,140.2,717.2,156.7z"/>
		<g>
			<linearGradient id="SVGID_6_" gradientUnits="userSpaceOnUse" x1="637.334" y1="133.2311" x2="646.196" y2="133.2311">
				<stop  offset="0" style="stop-color:#344793"/>
				<stop  offset="1" style="stop-color:#27336F"/>
			</linearGradient>
			<path class="st8" d="M637.3,126.5h8.7v3h-5.1v2.1h4.4v3h-4.4v2.4h5.3v3h-8.9V126.5z"/>
			<linearGradient id="SVGID_7_" gradientUnits="userSpaceOnUse" x1="648.7955" y1="133.2311" x2="659.6774" y2="133.2311">
				<stop  offset="0" style="stop-color:#344793"/>
				<stop  offset="1" style="stop-color:#27336F"/>
			</linearGradient>
			<path class="st9" d="M648.8,126.5h3.6l3,6l1.3,3h0.1c-0.2-1.4-0.5-3.5-0.5-5.1v-3.9h3.4v13.4H656l-3-6l-1.3-3h-0.1
				c0.2,1.5,0.5,3.5,0.5,5.1v3.9h-3.4V126.5z"/>
			<linearGradient id="SVGID_8_" gradientUnits="userSpaceOnUse" x1="661.6582" y1="133.2311" x2="672.2924" y2="133.2311">
				<stop  offset="0" style="stop-color:#344793"/>
				<stop  offset="1" style="stop-color:#27336F"/>
			</linearGradient>
			<path class="st10" d="M665.2,129.5h-3.5v-3h10.6v3h-3.5v10.4h-3.5V129.5z"/>
			<linearGradient id="SVGID_9_" gradientUnits="userSpaceOnUse" x1="674.2732" y1="133.2311" x2="683.1351" y2="133.2311">
				<stop  offset="0" style="stop-color:#344793"/>
				<stop  offset="1" style="stop-color:#27336F"/>
			</linearGradient>
			<path class="st11" d="M674.3,126.5h8.7v3h-5.1v2.1h4.4v3h-4.4v2.4h5.3v3h-8.9V126.5z"/>
			<linearGradient id="SVGID_10_" gradientUnits="userSpaceOnUse" x1="685.7346" y1="133.2311" x2="696.9052" y2="133.2311">
				<stop  offset="0" style="stop-color:#344793"/>
				<stop  offset="1" style="stop-color:#27336F"/>
			</linearGradient>
			<path class="st12" d="M685.7,126.5h5.1c2.9,0,5.4,1,5.4,4.3c0,1.9-0.9,3.2-2.2,3.9l2.9,5.2h-4l-2.3-4.5h-1.4v4.5h-3.5V126.5z
				 M690.6,132.6c1.4,0,2.1-0.6,2.1-1.8c0-1.2-0.7-1.5-2.1-1.5h-1.3v3.3H690.6z"/>
		</g>
	</g>
	
		<linearGradient id="SVGID_11_" gradientUnits="userSpaceOnUse" x1="611.5727" y1="103.6705" x2="827.4316" y2="103.6705" gradientTransform="matrix(0.6365 -0.7713 0.7713 0.6365 212.4681 716.3147)">
		<stop  offset="0" style="stop-color:#344793"/>
		<stop  offset="1" style="stop-color:#27336F"/>
	</linearGradient>
	<path class="st13" d="M683.7,311.3c-0.7,0-1.5-0.2-2.1-0.7c-1.4-1.1-1.6-3.2-0.4-4.6l133.2-161.4c1.1-1.4,3.2-1.6,4.6-0.4
		c1.4,1.1,1.6,3.2,0.4,4.6L686.3,310.1C685.6,310.9,684.7,311.3,683.7,311.3z"/>
	<g>
		<linearGradient id="SVGID_12_" gradientUnits="userSpaceOnUse" x1="785.4195" y1="272.6487" x2="876.9449" y2="272.6487">
			<stop  offset="0" style="stop-color:#344793"/>
			<stop  offset="1" style="stop-color:#27336F"/>
		</linearGradient>
		<path class="st14" d="M831.2,318.4c-25.3,0-45.8-20.5-45.8-45.8s20.5-45.8,45.8-45.8c25.3,0,45.8,20.5,45.8,45.8
			C876.9,297.9,856.5,318.4,831.2,318.4z M831.2,235.7c-20.5,0-37,16.5-37,37c0,20.5,16.5,37,37,37c20.5,0,37-16.5,37-37
			C868.1,252.2,851.6,235.7,831.2,235.7z"/>
		<g>
			<linearGradient id="SVGID_13_" gradientUnits="userSpaceOnUse" x1="817.8229" y1="272.6487" x2="828.0555" y2="272.6487">
				<stop  offset="0" style="stop-color:#344793"/>
				<stop  offset="1" style="stop-color:#27336F"/>
			</linearGradient>
			<path class="st15" d="M823.2,288.6h-0.6c-2.6,0-4.8-2-4.8-4.8v-22.2c0-2.6,2-4.8,4.8-4.8h0.6c2.6,0,4.8,2,4.8,4.8v22.2
				C827.8,286.6,825.8,288.6,823.2,288.6z"/>
			<linearGradient id="SVGID_14_" gradientUnits="userSpaceOnUse" x1="834.5931" y1="272.6487" x2="844.8257" y2="272.6487">
				<stop  offset="0" style="stop-color:#344793"/>
				<stop  offset="1" style="stop-color:#27336F"/>
			</linearGradient>
			<path class="st16" d="M840,288.6h-0.6c-2.6,0-4.8-2-4.8-4.8v-22.2c0-2.6,2-4.8,4.8-4.8h0.6c2.6,0,4.8,2,4.8,4.8v22.2
				C844.5,286.6,842.6,288.6,840,288.6z"/>
		</g>
	</g>
</g>
</svg>
