<?xml version="1.0" encoding="utf-8"?>
<!-- Generator: Adobe Illustrator 22.1.0, SVG Export Plug-In . SVG Version: 6.00 Build 0)  -->
<svg version="1.1" id="Layer_1" xmlns="http://www.w3.org/2000/svg" xmlns:xlink="http://www.w3.org/1999/xlink" x="0px" y="0px"
	 viewBox="0 0 1588 566" style="enable-background:new 0 0 1588 566;" xml:space="preserve">
<style type="text/css">
	.st0{fill:url(#SVGID_1_);}
	.st1{enable-background:new    ;}
	.st2{fill:#344793;}
	.st3{fill:url(#SVGID_2_);}
	.st4{fill:url(#SVGID_3_);}
	.st5{fill:url(#SVGID_4_);}
	.st6{fill:url(#SVGID_5_);}
	.st7{fill:url(#SVGID_6_);}
	.st8{fill:url(#SVGID_7_);}
	.st9{fill:url(#SVGID_8_);}
	.st10{fill:url(#SVGID_9_);}
	.st11{fill:url(#SVGID_10_);}
	.st12{fill:url(#SVGID_11_);}
	.st13{fill:url(#SVGID_12_);}
</style>
<linearGradient id="SVGID_1_" gradientUnits="userSpaceOnUse" x1="185.9885" y1="350.0716" x2="344.4022" y2="350.0716" gradientTransform="matrix(1 0 0 -1 0 568)">
	<stop  offset="0" style="stop-color:#344793"/>
	<stop  offset="1" style="stop-color:#27336F"/>
</linearGradient>
<path class="st0" d="M232.7,119.7c11.7-3.1,23.6-3.6,35.3-0.2c22.1,6.3,36.8,20.7,44.6,42.2c9.6,26.6,19.1,53.2,28.2,79.9
	c13.2,38.6-11.2,79.6-51.6,85.4c-27.9,4-54.8-7.9-66.1-34.1c-13.7-31.7-25-64.6-34.9-97.7c-7.9-26.6,6.1-55.1,30.3-68.9
	c3.8-2.2,4.6-4.1,3.7-8.2c-0.6-2.8-0.9-7.6-0.9-7.6l6.1-2.4C227.5,108,230.8,114.2,232.7,119.7z M309.4,179.9
	c-35.3,12.5-69.6,24.7-104.2,37c0.6,1.9,0.9,3.4,1.4,4.8c7.9,22,14.8,44.5,24.2,65.8c11.1,25.1,40.9,36.6,66.6,27.6
	c26.9-9.4,43.3-36.7,35.9-64.1C327,227.2,317.7,204.2,309.4,179.9z M202,208.1c16.2-5.7,31.9-11.3,47.6-16.8c0-2.1,0-4,0-5.8
	c-12.3-1.4-19.2-19.5-12.9-30.2c-2.4-6.6-4.4-12.4-6.6-18.5c3.2-1.2,5.9-2.1,9.1-3.3c1.3,6.8,5.3,12.1,5.2,18.9
	c3.5,0.2,7.7,1.9,9.7,6.8c1.6,4.1,3.5,8.3,4.3,12.6c0.5,2.8-0.7,5.9-1.1,8.9c-0.3,2.3-0.6,4.6-1.1,8.1c17.8-6.3,33.6-11.9,49.6-17.6
	c-7.2-23.3-21.1-39.2-45-43.5c-21.5-3.9-40.1,3.1-53.5,20.6C193.4,166.5,192.7,186.6,202,208.1z"/>
<g class="st1">
	<path class="st2" d="M129.3,384.5v-12.7h4v13c0,4.9,1.8,6.5,4.6,6.5c2.8,0,4.7-1.6,4.7-6.5v-13h3.8v12.7c0,7.4-3.3,10.3-8.5,10.3
		C132.7,394.9,129.3,392,129.3,384.5z"/>
	<path class="st2" d="M149.8,392.5l1.9-2.6c1.5,1.2,3,1.9,4.7,1.9c1.8,0,2.7-0.9,2.7-2c0-1.4-1.8-2-3.6-2.7
		c-2.2-0.8-4.8-2.1-4.8-4.9c0-3,2.4-5.1,6.2-5.1c2.3,0,4.2,1,5.6,2l-1.8,2.4c-1.2-0.9-2.4-1.5-3.7-1.5c-1.7,0-2.5,0.8-2.5,1.9
		c0,1.3,1.7,1.9,3.5,2.5c2.3,0.9,4.9,2,4.9,5.1c0,2.9-2.3,5.2-6.6,5.2C153.9,394.9,151.5,393.9,149.8,392.5z"/>
	<path class="st2" d="M165.5,389.9c0-3.6,3-5.5,10-6.3c-0.1-1.8-0.8-3.3-3.1-3.3c-1.7,0-3.2,0.8-4.8,1.7l-1.5-2.7
		c1.9-1.2,4.3-2.2,7-2.2c4.2,0,6.3,2.6,6.3,7.3v10h-3.3l-0.3-1.9h-0.1c-1.5,1.3-3.2,2.3-5.2,2.3
		C167.5,394.9,165.5,392.9,165.5,389.9z M175.5,389.9v-3.8c-4.6,0.6-6.1,1.8-6.1,3.5c0,1.5,1,2.2,2.5,2.2
		C173.1,391.8,174.2,391.1,175.5,389.9z"/>
	<path class="st2" d="M190,386c0-5.5,3.8-8.9,7.8-8.9c4.6,0,7,3.3,7,8c0,0.8-0.1,1.5-0.2,1.9h-10.8c0.3,3,2.3,4.7,5,4.7
		c1.5,0,2.7-0.4,3.9-1.2l1.3,2.5c-1.6,1.1-3.7,1.8-5.8,1.8C193.7,394.9,190,391.6,190,386z M201.4,384.4c0-2.6-1.1-4.2-3.5-4.2
		c-2,0-3.7,1.5-4.1,4.2H201.4z"/>
	<path class="st2" d="M208.6,390.1v-20h4v20.2c0,1,0.4,1.3,0.9,1.3c0.2,0,0.3,0,0.6-0.1l0.5,3c-0.5,0.2-1.2,0.3-2.1,0.3
		C209.6,394.9,208.6,393,208.6,390.1z"/>
	<path class="st2" d="M224.9,377.5h3.3l0.3,2.3h0.1c1.4-1.5,3.1-2.7,5.2-2.7c2.5,0,3.9,1.1,4.7,3c1.6-1.7,3.3-3,5.5-3
		c3.6,0,5.2,2.5,5.2,6.7v10.6h-4v-10.1c0-2.8-0.8-3.8-2.6-3.8c-1.1,0-2.2,0.7-3.6,2.1v11.8h-4v-10.1c0-2.8-0.8-3.8-2.6-3.8
		c-1,0-2.2,0.7-3.6,2.1v11.8h-4V377.5z"/>
	<path class="st2" d="M252.9,386c0-5.7,3.8-8.9,8-8.9c4.2,0,8.1,3.2,8.1,8.9c0,5.6-3.8,8.9-8.1,8.9
		C256.7,394.9,252.9,391.6,252.9,386z M264.9,386c0-3.4-1.5-5.7-4-5.7s-4,2.2-4,5.7c0,3.4,1.5,5.6,4,5.6S264.9,389.4,264.9,386z"/>
	<path class="st2" d="M272.7,388.1v-10.6h4v10.1c0,2.8,0.8,3.8,2.6,3.8c1.5,0,2.5-0.7,3.8-2.3v-11.6h4v17h-3.2l-0.3-2.5h-0.1
		c-1.5,1.8-3.1,2.9-5.5,2.9C274.3,394.9,272.7,392.4,272.7,388.1z"/>
	<path class="st2" d="M290.4,392.5l1.9-2.6c1.5,1.2,3,1.9,4.7,1.9c1.8,0,2.7-0.9,2.7-2c0-1.4-1.8-2-3.6-2.7
		c-2.2-0.8-4.8-2.1-4.8-4.9c0-3,2.4-5.1,6.2-5.1c2.3,0,4.2,1,5.6,2l-1.8,2.4c-1.2-0.9-2.4-1.5-3.7-1.5c-1.7,0-2.5,0.8-2.5,1.9
		c0,1.3,1.7,1.9,3.5,2.5c2.3,0.9,4.9,2,4.9,5.1c0,2.9-2.3,5.2-6.6,5.2C294.5,394.9,292.1,393.9,290.4,392.5z"/>
	<path class="st2" d="M305.9,386c0-5.5,3.8-8.9,7.8-8.9c4.6,0,7,3.3,7,8c0,0.8-0.1,1.5-0.2,1.9h-10.8c0.3,3,2.3,4.7,5,4.7
		c1.5,0,2.7-0.4,3.9-1.2l1.3,2.5c-1.6,1.1-3.7,1.8-5.8,1.8C309.6,394.9,305.9,391.6,305.9,386z M317.3,384.4c0-2.6-1.1-4.2-3.5-4.2
		c-2,0-3.7,1.5-4.1,4.2H317.3z"/>
	<path class="st2" d="M331.4,377.5h3.3l0.3,1.8h0.1c1.4-1.2,3.2-2.2,5.1-2.2c4.2,0,6.7,3.4,6.7,8.6c0,5.8-3.5,9.2-7.3,9.2
		c-1.5,0-3-0.7-4.4-1.9l0.1,2.8v5.3h-4V377.5z M342.8,385.8c0-3.4-1.1-5.4-3.7-5.4c-1.2,0-2.4,0.6-3.7,1.9v7.9
		c1.2,1,2.4,1.4,3.4,1.4C341,391.6,342.8,389.6,342.8,385.8z"/>
	<path class="st2" d="M349.6,389.9c0-3.6,3-5.5,10-6.3c-0.1-1.8-0.8-3.3-3.1-3.3c-1.7,0-3.2,0.8-4.8,1.7l-1.5-2.7
		c1.9-1.2,4.3-2.2,7-2.2c4.2,0,6.3,2.6,6.3,7.3v10h-3.3l-0.3-1.9h-0.1c-1.5,1.3-3.2,2.3-5.2,2.3
		C351.6,394.9,349.6,392.9,349.6,389.9z M359.5,389.9v-3.8c-4.6,0.6-6.1,1.8-6.1,3.5c0,1.5,1,2.2,2.5,2.2
		C357.2,391.8,358.3,391.1,359.5,389.9z"/>
	<path class="st2" d="M368.3,377.5h3.3l0.3,3h0.1c1.2-2.2,3-3.4,4.8-3.4c0.9,0,1.4,0.1,1.9,0.3l-0.7,3.5c-0.6-0.2-1-0.3-1.8-0.3
		c-1.3,0-3,0.9-4,3.5v10.4h-4V377.5z"/>
	<path class="st2" d="M379.4,389.9c0-3.6,3-5.5,10-6.3c-0.1-1.8-0.8-3.3-3.1-3.3c-1.7,0-3.2,0.8-4.8,1.7l-1.5-2.7
		c1.9-1.2,4.3-2.2,7-2.2c4.2,0,6.3,2.6,6.3,7.3v10H390l-0.3-1.9h-0.1c-1.5,1.3-3.2,2.3-5.2,2.3C381.4,394.9,379.4,392.9,379.4,389.9
		z M389.3,389.9v-3.8c-4.6,0.6-6.1,1.8-6.1,3.5c0,1.5,1,2.2,2.5,2.2C387,391.8,388.1,391.1,389.3,389.9z"/>
</g>
<g class="st1">
	<path class="st2" d="M115.1,418.9h3.3l0.3,2.3h0.1c1.4-1.5,3.1-2.7,5.2-2.7c2.5,0,3.9,1.1,4.7,3c1.6-1.7,3.3-3,5.5-3
		c3.6,0,5.2,2.5,5.2,6.7v10.6h-4v-10.1c0-2.8-0.8-3.8-2.6-3.8c-1.1,0-2.2,0.7-3.6,2.1v11.8h-4v-10.1c0-2.8-0.8-3.8-2.6-3.8
		c-1,0-2.2,0.7-3.6,2.1v11.8h-4V418.9z"/>
	<path class="st2" d="M143.1,427.4c0-5.7,3.8-8.9,8-8.9c4.2,0,8.1,3.2,8.1,8.9c0,5.6-3.8,8.9-8.1,8.9
		C146.9,436.3,143.1,433,143.1,427.4z M155.1,427.4c0-3.4-1.5-5.7-4-5.7s-4,2.2-4,5.7c0,3.4,1.5,5.6,4,5.6S155.1,430.8,155.1,427.4z
		"/>
	<path class="st2" d="M160.8,418.9h4l2.7,8.8c0.4,1.7,1,3.4,1.4,5.1h0.1c0.5-1.7,1-3.5,1.5-5.1l2.7-8.8h3.8l-5.8,17h-4.6
		L160.8,418.9z"/>
	<path class="st2" d="M178.7,427.4c0-5.5,3.8-8.9,7.8-8.9c4.6,0,7,3.3,7,8c0,0.8-0.1,1.5-0.2,1.9h-10.8c0.3,3,2.3,4.7,5,4.7
		c1.5,0,2.7-0.4,3.9-1.2l1.3,2.5c-1.6,1.1-3.7,1.8-5.8,1.8C182.4,436.3,178.7,433,178.7,427.4z M190.1,425.8c0-2.6-1.1-4.2-3.5-4.2
		c-2,0-3.7,1.5-4.1,4.2H190.1z"/>
	<path class="st2" d="M197.3,418.9h3.3l0.3,3h0.1c1.2-2.2,3-3.4,4.8-3.4c0.9,0,1.4,0.1,1.9,0.3l-0.7,3.5c-0.6-0.2-1-0.3-1.8-0.3
		c-1.3,0-3,0.9-4,3.5v10.4h-4V418.9z"/>
	<path class="st2" d="M217.1,431.5v-20h4v20.2c0,1,0.4,1.3,0.9,1.3c0.2,0,0.3,0,0.6-0.1l0.5,3c-0.5,0.2-1.2,0.3-2.1,0.3
		C218.1,436.3,217.1,434.4,217.1,431.5z"/>
	<path class="st2" d="M225.6,431.3c0-3.6,3-5.5,10-6.3c-0.1-1.8-0.8-3.3-3.1-3.3c-1.7,0-3.2,0.8-4.8,1.7l-1.5-2.7
		c1.9-1.2,4.3-2.2,7-2.2c4.2,0,6.3,2.6,6.3,7.3v10h-3.3L236,434h-0.1c-1.5,1.3-3.2,2.3-5.2,2.3C227.6,436.3,225.6,434.3,225.6,431.3
		z M235.5,431.3v-3.8c-4.6,0.6-6.1,1.8-6.1,3.5c0,1.5,1,2.2,2.5,2.2C233.2,433.2,234.3,432.5,235.5,431.3z"/>
	<path class="st2" d="M250.1,427.4c0-5.7,4-8.9,8.5-8.9c2.2,0,3.7,0.8,5,1.9l-1.9,2.6c-0.9-0.8-1.8-1.2-2.8-1.2
		c-2.7,0-4.6,2.2-4.6,5.7c0,3.4,1.9,5.6,4.5,5.6c1.3,0,2.5-0.7,3.5-1.5l1.6,2.6c-1.6,1.4-3.6,2.1-5.5,2.1
		C253.6,436.3,250.1,433,250.1,427.4z"/>
	<path class="st2" d="M265.2,427.4c0-5.7,3.8-8.9,8-8.9c4.2,0,8.1,3.2,8.1,8.9c0,5.6-3.8,8.9-8.1,8.9
		C269,436.3,265.2,433,265.2,427.4z M277.3,427.4c0-3.4-1.5-5.7-4-5.7s-4,2.2-4,5.7c0,3.4,1.5,5.6,4,5.6S277.3,430.8,277.3,427.4z"
		/>
	<path class="st2" d="M285.3,418.9h3.3l0.3,3h0.1c1.2-2.2,3-3.4,4.8-3.4c0.9,0,1.4,0.1,1.9,0.3l-0.7,3.5c-0.6-0.2-1-0.3-1.8-0.3
		c-1.3,0-3,0.9-4,3.5v10.4h-4V418.9z"/>
	<path class="st2" d="M296.7,427.4c0-5.7,4-8.9,8.5-8.9c2.2,0,3.7,0.8,5,1.9l-1.9,2.6c-0.9-0.8-1.8-1.2-2.8-1.2
		c-2.7,0-4.6,2.2-4.6,5.7c0,3.4,1.9,5.6,4.5,5.6c1.3,0,2.5-0.7,3.5-1.5l1.6,2.6c-1.6,1.4-3.6,2.1-5.5,2.1
		C300.2,436.3,296.7,433,296.7,427.4z"/>
	<path class="st2" d="M313.7,411.5h4v6.3l-0.1,3.3c1.4-1.3,3.1-2.6,5.4-2.6c3.6,0,5.2,2.5,5.2,6.7v10.6h-4v-10.1
		c0-2.8-0.8-3.8-2.7-3.8c-1.5,0-2.5,0.7-3.9,2.1v11.8h-4V411.5z"/>
	<path class="st2" d="M331.9,427.4c0-5.7,3.8-8.9,8-8.9c4.2,0,8.1,3.2,8.1,8.9c0,5.6-3.8,8.9-8.1,8.9
		C335.7,436.3,331.9,433,331.9,427.4z M344,427.4c0-3.4-1.5-5.7-4-5.7s-4,2.2-4,5.7c0,3.4,1.5,5.6,4,5.6S344,430.8,344,427.4z"/>
	<path class="st2" d="M352,431.5v-20h4v20.2c0,1,0.4,1.3,0.9,1.3c0.2,0,0.3,0,0.6-0.1l0.5,3c-0.5,0.2-1.2,0.3-2.1,0.3
		C353,436.3,352,434.4,352,431.5z"/>
	<path class="st2" d="M360.4,431.3c0-3.6,3-5.5,10-6.3c-0.1-1.8-0.8-3.3-3.1-3.3c-1.7,0-3.2,0.8-4.8,1.7l-1.5-2.7
		c1.9-1.2,4.3-2.2,7-2.2c4.2,0,6.3,2.6,6.3,7.3v10h-3.3l-0.3-1.9h-0.1c-1.5,1.3-3.2,2.3-5.2,2.3
		C362.5,436.3,360.4,434.3,360.4,431.3z M370.4,431.3v-3.8c-4.6,0.6-6.1,1.8-6.1,3.5c0,1.5,1,2.2,2.5,2.2
		C368.1,433.2,369.1,432.5,370.4,431.3z"/>
	<path class="st2" d="M379.2,430.1V422h-2.4v-3l2.6-0.2l0.5-4.6h3.3v4.6h4.3v3.1h-4.3v8.1c0,2,0.8,3,2.4,3c0.6,0,1.3-0.2,1.8-0.4
		l0.7,2.9c-0.9,0.3-2.1,0.6-3.5,0.6C380.6,436.3,379.2,433.8,379.2,430.1z"/>
	<path class="st2" d="M389.4,431.3c0-3.6,3-5.5,10-6.3c-0.1-1.8-0.8-3.3-3.1-3.3c-1.7,0-3.2,0.8-4.8,1.7l-1.5-2.7
		c1.9-1.2,4.3-2.2,7-2.2c4.2,0,6.3,2.6,6.3,7.3v10h-3.3l-0.3-1.9h-0.1c-1.5,1.3-3.2,2.3-5.2,2.3
		C391.5,436.3,389.4,434.3,389.4,431.3z M399.4,431.3v-3.8c-4.6,0.6-6.1,1.8-6.1,3.5c0,1.5,1,2.2,2.5,2.2
		C397.1,433.2,398.1,432.5,399.4,431.3z"/>
	<path class="st2" d="M407.8,433.6c0-1.6,1.1-2.7,2.6-2.7s2.6,1.1,2.6,2.7s-1.1,2.7-2.6,2.7S407.8,435.1,407.8,433.6z"/>
</g>
<g class="st1">
	<path class="st2" d="M1086.3,392.7l2.3-2.7c1.6,1.5,3.8,2.6,5.9,2.6c2.6,0,3.9-1.1,3.9-2.9c0-1.9-1.5-2.5-3.5-3.3l-3.1-1.3
		c-2.2-0.9-4.6-2.7-4.6-6c0-3.6,3.2-6.4,7.6-6.4c2.6,0,5.2,1.1,6.9,2.9l-2,2.6c-1.5-1.2-3-1.9-4.9-1.9c-2.1,0-3.6,1-3.6,2.7
		c0,1.8,1.7,2.4,3.6,3.2l3.1,1.3c2.7,1.1,4.6,2.8,4.6,6.1c0,3.7-3,6.7-8.1,6.7C1091.5,396.1,1088.5,394.8,1086.3,392.7z"/>
	<path class="st2" d="M1105.9,373.5c0-1.3,1-2.3,2.5-2.3s2.5,0.9,2.5,2.3c0,1.3-1,2.2-2.5,2.2S1105.9,374.8,1105.9,373.5z
		 M1106.4,378.7h4v17h-4V378.7z"/>
	<path class="st2" d="M1121.2,387.2c0-5.5,3.8-8.9,7.8-8.9c4.6,0,7,3.3,7,8c0,0.8-0.1,1.5-0.2,1.9h-10.8c0.3,3,2.3,4.7,5,4.7
		c1.5,0,2.7-0.4,3.9-1.2l1.3,2.5c-1.6,1.1-3.7,1.8-5.8,1.8C1124.9,396.1,1121.2,392.8,1121.2,387.2z M1132.6,385.6
		c0-2.6-1.1-4.2-3.5-4.2c-2,0-3.7,1.5-4.1,4.2H1132.6z"/>
	<path class="st2" d="M1138.1,393.7l1.9-2.6c1.5,1.2,3,1.9,4.7,1.9c1.8,0,2.7-0.9,2.7-2c0-1.4-1.8-2-3.6-2.7
		c-2.2-0.8-4.8-2.1-4.8-4.9c0-3,2.4-5.1,6.2-5.1c2.3,0,4.2,1,5.6,2l-1.8,2.4c-1.2-0.9-2.4-1.5-3.7-1.5c-1.7,0-2.5,0.8-2.5,1.9
		c0,1.3,1.7,1.9,3.5,2.5c2.3,0.9,4.9,2,4.9,5.1c0,2.9-2.3,5.2-6.6,5.2C1142.2,396.1,1139.8,395,1138.1,393.7z"/>
	<path class="st2" d="M1154.6,389.9v-8.1h-2.4v-3l2.6-0.2l0.5-4.6h3.3v4.6h4.3v3.1h-4.3v8.1c0,2,0.8,3,2.4,3c0.6,0,1.3-0.2,1.8-0.4
		l0.7,2.9c-0.9,0.3-2.1,0.6-3.5,0.6C1156,396.1,1154.6,393.6,1154.6,389.9z"/>
	<path class="st2" d="M1164.9,391.1c0-3.6,3-5.5,10-6.3c-0.1-1.8-0.8-3.3-3.1-3.3c-1.7,0-3.2,0.8-4.8,1.7l-1.5-2.7
		c1.9-1.2,4.3-2.2,7-2.2c4.2,0,6.3,2.6,6.3,7.3v10h-3.3l-0.3-1.9h-0.1c-1.5,1.3-3.2,2.3-5.2,2.3
		C1166.9,396.1,1164.9,394,1164.9,391.1z M1174.8,391.1v-3.8c-4.6,0.6-6.1,1.8-6.1,3.5c0,1.5,1,2.2,2.5,2.2
		C1172.5,392.9,1173.6,392.3,1174.8,391.1z M1170.5,373.9l5.1-6l2.8,2.6l-5.9,5.4L1170.5,373.9z"/>
	<path class="st2" d="M1181.9,393.7l1.9-2.6c1.5,1.2,3,1.9,4.7,1.9c1.8,0,2.7-0.9,2.7-2c0-1.4-1.8-2-3.6-2.7
		c-2.2-0.8-4.8-2.1-4.8-4.9c0-3,2.4-5.1,6.2-5.1c2.3,0,4.2,1,5.6,2l-1.8,2.4c-1.2-0.9-2.4-1.5-3.7-1.5c-1.7,0-2.5,0.8-2.5,1.9
		c0,1.3,1.7,1.9,3.5,2.5c2.3,0.9,4.9,2,4.9,5.1c0,2.9-2.3,5.2-6.6,5.2C1186,396.1,1183.5,395,1181.9,393.7z"/>
	<path class="st2" d="M1204.2,387.2c0-5.5,3.8-8.9,7.8-8.9c4.6,0,7,3.3,7,8c0,0.8-0.1,1.5-0.2,1.9h-10.8c0.3,3,2.3,4.7,5,4.7
		c1.5,0,2.7-0.4,3.9-1.2l1.3,2.5c-1.6,1.1-3.7,1.8-5.8,1.8C1207.9,396.1,1204.2,392.8,1204.2,387.2z M1215.6,385.6
		c0-2.6-1.1-4.2-3.5-4.2c-2,0-3.7,1.5-4.1,4.2H1215.6z"/>
	<path class="st2" d="M1222.9,378.7h3.3l0.3,2.3h0.1c1.5-1.5,3.2-2.7,5.6-2.7c3.6,0,5.2,2.5,5.2,6.7v10.6h-4v-10.1
		c0-2.8-0.8-3.8-2.7-3.8c-1.5,0-2.5,0.7-3.9,2.1v11.8h-4V378.7z"/>
	<path class="st2" d="M1249.1,378.7h3.3l0.3,2.3h0.1c1.4-1.5,3.1-2.7,5.2-2.7c2.5,0,3.9,1.1,4.7,3c1.6-1.7,3.3-3,5.5-3
		c3.6,0,5.2,2.5,5.2,6.7v10.6h-4v-10.1c0-2.8-0.8-3.8-2.6-3.8c-1.1,0-2.2,0.7-3.6,2.1v11.8h-4v-10.1c0-2.8-0.8-3.8-2.6-3.8
		c-1,0-2.2,0.7-3.6,2.1v11.8h-4V378.7z"/>
	<path class="st2" d="M1277.1,387.2c0-5.7,3.8-8.9,8-8.9c4.2,0,8.1,3.2,8.1,8.9c0,5.6-3.8,8.9-8.1,8.9
		C1280.9,396.1,1277.1,392.8,1277.1,387.2z M1289.1,387.2c0-3.4-1.5-5.7-4-5.7s-4,2.2-4,5.7c0,3.4,1.5,5.6,4,5.6
		S1289.1,390.6,1289.1,387.2z M1283.1,373.9l5.1-6l2.8,2.6l-5.9,5.4L1283.1,373.9z"/>
	<path class="st2" d="M1294.8,378.7h4l2.7,8.8c0.4,1.7,1,3.4,1.4,5.1h0.1c0.5-1.7,1-3.5,1.5-5.1l2.7-8.8h3.8l-5.8,17h-4.6
		L1294.8,378.7z"/>
	<path class="st2" d="M1313.6,373.5c0-1.3,1-2.3,2.5-2.3s2.5,0.9,2.5,2.3c0,1.3-1,2.2-2.5,2.2S1313.6,374.8,1313.6,373.5z
		 M1314,378.7h4v17h-4V378.7z"/>
	<path class="st2" d="M1323.1,391.3v-20h4v20.2c0,1,0.4,1.3,0.9,1.3c0.2,0,0.3,0,0.6-0.1l0.5,3c-0.5,0.2-1.2,0.3-2.1,0.3
		C1324.1,396.1,1323.1,394.2,1323.1,391.3z"/>
	<path class="st2" d="M1339.3,378.7h3.3l0.3,2.3h0.1c1.4-1.5,3.1-2.7,5.2-2.7c2.5,0,3.9,1.1,4.7,3c1.6-1.7,3.3-3,5.5-3
		c3.6,0,5.2,2.5,5.2,6.7v10.6h-4v-10.1c0-2.8-0.8-3.8-2.6-3.8c-1.1,0-2.2,0.7-3.6,2.1v11.8h-4v-10.1c0-2.8-0.8-3.8-2.6-3.8
		c-1,0-2.2,0.7-3.6,2.1v11.8h-4V378.7z"/>
	<path class="st2" d="M1368.3,389.3v-10.6h4v10.1c0,2.8,0.8,3.8,2.6,3.8c1.5,0,2.5-0.7,3.8-2.3v-11.6h4v17h-3.2l-0.3-2.5h-0.1
		c-1.5,1.8-3.1,2.9-5.5,2.9C1369.9,396.1,1368.3,393.6,1368.3,389.3z"/>
	<path class="st2" d="M1386.5,387.2c0-5.5,3.8-8.9,7.8-8.9c4.6,0,7,3.3,7,8c0,0.8-0.1,1.5-0.2,1.9h-10.8c0.3,3,2.3,4.7,5,4.7
		c1.5,0,2.7-0.4,3.9-1.2l1.3,2.5c-1.6,1.1-3.7,1.8-5.8,1.8C1390.2,396.1,1386.5,392.8,1386.5,387.2z M1397.9,385.6
		c0-2.6-1.1-4.2-3.5-4.2c-2,0-3.7,1.5-4.1,4.2H1397.9z"/>
	<path class="st2" d="M1403,378.7h4l2.7,8.8c0.4,1.7,1,3.4,1.4,5.1h0.1c0.5-1.7,1-3.5,1.5-5.1l2.7-8.8h3.8l-5.8,17h-4.6L1403,378.7z
		"/>
	<path class="st2" d="M1420.9,387.2c0-5.5,3.8-8.9,7.8-8.9c4.6,0,7,3.3,7,8c0,0.8-0.1,1.5-0.2,1.9h-10.8c0.3,3,2.3,4.7,5,4.7
		c1.5,0,2.7-0.4,3.9-1.2l1.3,2.5c-1.6,1.1-3.7,1.8-5.8,1.8C1424.6,396.1,1420.9,392.8,1420.9,387.2z M1432.3,385.6
		c0-2.6-1.1-4.2-3.5-4.2c-2,0-3.7,1.5-4.1,4.2H1432.3z"/>
	<path class="st2" d="M1446.4,391.3v-20h4v20.2c0,1,0.4,1.3,0.9,1.3c0.2,0,0.3,0,0.6-0.1l0.5,3c-0.5,0.2-1.2,0.3-2.1,0.3
		C1447.5,396.1,1446.4,394.2,1446.4,391.3z"/>
	<path class="st2" d="M1454.9,391.1c0-3.6,3-5.5,10-6.3c-0.1-1.8-0.8-3.3-3.1-3.3c-1.7,0-3.2,0.8-4.8,1.7l-1.5-2.7
		c1.9-1.2,4.3-2.2,7-2.2c4.2,0,6.3,2.6,6.3,7.3v10h-3.3l-0.3-1.9h-0.1c-1.5,1.3-3.2,2.3-5.2,2.3
		C1456.9,396.1,1454.9,394,1454.9,391.1z M1464.9,391.1v-3.8c-4.6,0.6-6.1,1.8-6.1,3.5c0,1.5,1,2.2,2.5,2.2
		C1462.6,392.9,1463.6,392.3,1464.9,391.1z"/>
</g>
<g class="st1">
	<path class="st2" d="M1104.9,428.6c0-5.7,4-8.9,8.5-8.9c2.2,0,3.7,0.8,5,1.9l-1.9,2.6c-0.9-0.8-1.8-1.2-2.8-1.2
		c-2.7,0-4.6,2.2-4.6,5.7c0,3.4,1.9,5.6,4.5,5.6c1.3,0,2.5-0.7,3.5-1.5l1.6,2.6c-1.6,1.4-3.6,2.1-5.5,2.1
		C1108.5,437.5,1104.9,434.2,1104.9,428.6z"/>
	<path class="st2" d="M1120.1,428.6c0-5.7,3.8-8.9,8-8.9c4.2,0,8.1,3.2,8.1,8.9c0,5.6-3.8,8.9-8.1,8.9
		C1123.9,437.5,1120.1,434.2,1120.1,428.6z M1132.1,428.6c0-3.4-1.5-5.7-4-5.7s-4,2.2-4,5.7c0,3.4,1.5,5.6,4,5.6
		S1132.1,432,1132.1,428.6z"/>
	<path class="st2" d="M1140.1,420.1h3.3l0.3,3h0.1c1.2-2.2,3-3.4,4.8-3.4c0.9,0,1.4,0.1,1.9,0.3l-0.7,3.5c-0.6-0.2-1-0.3-1.8-0.3
		c-1.3,0-3,0.9-4,3.5V437h-4V420.1z"/>
	<path class="st2" d="M1151.6,428.6c0-5.7,4-8.9,8.5-8.9c2.2,0,3.7,0.8,5,1.9l-1.9,2.6c-0.9-0.8-1.8-1.2-2.8-1.2
		c-2.7,0-4.6,2.2-4.6,5.7c0,3.4,1.9,5.6,4.5,5.6c1.3,0,2.5-0.7,3.5-1.5l1.6,2.6c-1.6,1.4-3.6,2.1-5.5,2.1
		C1155.1,437.5,1151.6,434.2,1151.6,428.6z"/>
	<path class="st2" d="M1168.6,412.7h4v6.3l-0.1,3.3c1.4-1.3,3.1-2.6,5.4-2.6c3.6,0,5.2,2.5,5.2,6.7V437h-4v-10.1
		c0-2.8-0.8-3.8-2.7-3.8c-1.5,0-2.5,0.7-3.9,2.1V437h-4V412.7z"/>
	<path class="st2" d="M1186.8,428.6c0-5.7,3.8-8.9,8-8.9c4.2,0,8.1,3.2,8.1,8.9c0,5.6-3.8,8.9-8.1,8.9
		C1190.6,437.5,1186.8,434.2,1186.8,428.6z M1198.8,428.6c0-3.4-1.5-5.7-4-5.7s-4,2.2-4,5.7c0,3.4,1.5,5.6,4,5.6
		S1198.8,432,1198.8,428.6z"/>
	<path class="st2" d="M1206.8,432.7v-20h4v20.2c0,1,0.4,1.3,0.9,1.3c0.2,0,0.3,0,0.6-0.1l0.5,3c-0.5,0.2-1.2,0.3-2.1,0.3
		C1207.9,437.5,1206.8,435.6,1206.8,432.7z"/>
	<path class="st2" d="M1215.3,432.5c0-3.6,3-5.5,10-6.3c-0.1-1.8-0.8-3.3-3.1-3.3c-1.7,0-3.2,0.8-4.8,1.7l-1.5-2.7
		c1.9-1.2,4.3-2.2,7-2.2c4.2,0,6.3,2.6,6.3,7.3v10h-3.3l-0.3-1.9h-0.1c-1.5,1.3-3.2,2.3-5.2,2.3
		C1217.3,437.5,1215.3,435.4,1215.3,432.5z M1225.3,432.5v-3.8c-4.6,0.6-6.1,1.8-6.1,3.5c0,1.5,1,2.2,2.5,2.2
		C1223,434.3,1224,433.7,1225.3,432.5z"/>
	<path class="st2" d="M1234,431.3v-8.1h-2.4v-3l2.6-0.2l0.5-4.6h3.3v4.6h4.3v3.1h-4.3v8.1c0,2,0.8,3,2.4,3c0.6,0,1.3-0.2,1.8-0.4
		l0.7,2.9c-0.9,0.3-2.1,0.6-3.5,0.6C1235.5,437.5,1234,435,1234,431.3z"/>
	<path class="st2" d="M1244.3,432.5c0-3.6,3-5.5,10-6.3c-0.1-1.8-0.8-3.3-3.1-3.3c-1.7,0-3.2,0.8-4.8,1.7l-1.5-2.7
		c1.9-1.2,4.3-2.2,7-2.2c4.2,0,6.3,2.6,6.3,7.3v10h-3.3l-0.3-1.9h-0.1c-1.5,1.3-3.2,2.3-5.2,2.3
		C1246.3,437.5,1244.3,435.4,1244.3,432.5z M1254.3,432.5v-3.8c-4.6,0.6-6.1,1.8-6.1,3.5c0,1.5,1,2.2,2.5,2.2
		C1252,434.3,1253,433.7,1254.3,432.5z"/>
	<path class="st2" d="M1268.8,428.6c0-5.7,4-8.9,8.5-8.9c2.2,0,3.7,0.8,5,1.9l-1.9,2.6c-0.9-0.8-1.8-1.2-2.8-1.2
		c-2.7,0-4.6,2.2-4.6,5.7c0,3.4,1.9,5.6,4.5,5.6c1.3,0,2.5-0.7,3.5-1.5l1.6,2.6c-1.6,1.4-3.6,2.1-5.5,2.1
		C1272.4,437.5,1268.8,434.2,1268.8,428.6z"/>
	<path class="st2" d="M1283.9,428.6c0-5.7,3.8-8.9,8-8.9c4.2,0,8.1,3.2,8.1,8.9c0,5.6-3.8,8.9-8.1,8.9
		C1287.8,437.5,1283.9,434.2,1283.9,428.6z M1296,428.6c0-3.4-1.5-5.7-4-5.7s-4,2.2-4,5.7c0,3.4,1.5,5.6,4,5.6S1296,432,1296,428.6z
		"/>
	<path class="st2" d="M1304,420.1h3.3l0.3,2.3h0.1c1.5-1.5,3.2-2.7,5.6-2.7c3.6,0,5.2,2.5,5.2,6.7V437h-4v-10.1
		c0-2.8-0.8-3.8-2.7-3.8c-1.5,0-2.5,0.7-3.9,2.1V437h-4V420.1z"/>
	<path class="st2" d="M1330.8,431.3v-8.1h-2.4v-3l2.6-0.2l0.5-4.6h3.3v4.6h4.3v3.1h-4.3v8.1c0,2,0.8,3,2.4,3c0.6,0,1.3-0.2,1.8-0.4
		l0.7,2.9c-0.9,0.3-2.1,0.6-3.5,0.6C1332.3,437.5,1330.8,435,1330.8,431.3z"/>
	<path class="st2" d="M1342.5,430.7v-10.6h4v10.1c0,2.8,0.8,3.8,2.6,3.8c1.5,0,2.5-0.7,3.8-2.3v-11.6h4v17h-3.2l-0.3-2.5h-0.1
		c-1.5,1.8-3.1,2.9-5.5,2.9C1344.1,437.5,1342.5,435,1342.5,430.7z"/>
	<path class="st2" d="M1367.8,428.6c0-5.5,3.5-8.9,7.2-8.9c1.9,0,3.1,0.7,4.5,1.9l-0.1-2.7v-6.1h4V437h-3.3l-0.3-1.8h-0.1
		c-1.2,1.2-3,2.2-4.8,2.2C1370.5,437.5,1367.8,434.2,1367.8,428.6z M1379.2,432.3v-7.9c-1.2-1-2.3-1.4-3.5-1.4c-2.2,0-3.9,2-3.9,5.6
		c0,3.7,1.4,5.6,3.8,5.6C1377,434.2,1378.1,433.6,1379.2,432.3z"/>
	<path class="st2" d="M1387.2,428.6c0-5.5,3.8-8.9,7.8-8.9c4.6,0,7,3.3,7,8c0,0.8-0.1,1.5-0.2,1.9H1391c0.3,3,2.3,4.7,5,4.7
		c1.5,0,2.7-0.4,3.9-1.2l1.3,2.5c-1.6,1.1-3.7,1.8-5.8,1.8C1390.8,437.5,1387.2,434.2,1387.2,428.6z M1398.5,427
		c0-2.6-1.1-4.2-3.5-4.2c-2,0-3.7,1.5-4.1,4.2H1398.5z"/>
	<path class="st2" d="M1404.7,428.6c0-5.5,3.5-8.9,7.2-8.9c1.9,0,3.1,0.7,4.5,1.9l-0.1-2.7v-6.1h4V437h-3.3l-0.3-1.8h-0.1
		c-1.2,1.2-3,2.2-4.8,2.2C1407.5,437.5,1404.7,434.2,1404.7,428.6z M1416.2,432.3v-7.9c-1.2-1-2.3-1.4-3.5-1.4c-2.2,0-3.9,2-3.9,5.6
		c0,3.7,1.4,5.6,3.8,5.6C1414,434.2,1415.1,433.6,1416.2,432.3z"/>
	<path class="st2" d="M1424.1,428.6c0-5.7,3.8-8.9,8-8.9c4.2,0,8.1,3.2,8.1,8.9c0,5.6-3.8,8.9-8.1,8.9
		C1428,437.5,1424.1,434.2,1424.1,428.6z M1436.2,428.6c0-3.4-1.5-5.7-4-5.7s-4,2.2-4,5.7c0,3.4,1.5,5.6,4,5.6
		S1436.2,432,1436.2,428.6z"/>
	<path class="st2" d="M1443.5,434.8c0-1.6,1.1-2.7,2.6-2.7c1.5,0,2.6,1.1,2.6,2.7s-1.1,2.7-2.6,2.7
		C1444.6,437.5,1443.5,436.3,1443.5,434.8z"/>
</g>
<g>
	
		<linearGradient id="SVGID_2_" gradientUnits="userSpaceOnUse" x1="1300.7979" y1="426.6232" x2="1381.8687" y2="426.6232" gradientTransform="matrix(1 0 0 -1 0 568)">
		<stop  offset="0" style="stop-color:#344793"/>
		<stop  offset="1" style="stop-color:#27336F"/>
	</linearGradient>
	<path class="st3" d="M1353.6,131.6c-3.2-3-6.6-5.8-9.7-8.9c-3.6-3.7-3.8-8.2-0.9-11.4c2.6-2.9,8.2-3.4,11.6-0.2
		c8.5,8,16.8,16.3,24.9,24.8c3.5,3.7,3,8.1-0.7,11.8c-7.7,7.8-15.4,15.5-23.2,23.2c-3.7,3.7-9,3.9-12.3,0.7s-3-8.1,0.8-12.1
		c3-3.1,6.2-6.1,10.2-10.1c-7.1,0-12.9,0-18.8,0c-8.5,0-17,0-25.5,0c-5.6,0-9.1-3-9.2-7.8c-0.1-5.1,3.3-8.4,9.2-8.4
		c12.6-0.1,25.2,0,37.9,0c1.6,0,3.3,0,4.9,0C1353.1,132.5,1353.3,132,1353.6,131.6z"/>
	
		<linearGradient id="SVGID_3_" gradientUnits="userSpaceOnUse" x1="1141.5314" y1="426.7768" x2="1222.6022" y2="426.7768" gradientTransform="matrix(1 0 0 -1 0 568)">
		<stop  offset="0" style="stop-color:#344793"/>
		<stop  offset="1" style="stop-color:#27336F"/>
	</linearGradient>
	<path class="st4" d="M1169.8,151c3.2,3,6.6,5.8,9.7,8.9c3.6,3.7,3.8,8.2,0.9,11.4c-2.6,2.9-8.2,3.4-11.6,0.2
		c-8.5-8-16.8-16.3-24.9-24.8c-3.5-3.7-3-8.1,0.7-11.8c7.7-7.8,15.4-15.5,23.2-23.2c3.7-3.7,9-3.9,12.3-0.7c3.3,3.2,3,8.1-0.8,12.1
		c-3,3.1-6.2,6.1-10.2,10.1c7.1,0,12.9,0,18.8,0c8.5,0,17,0,25.5,0c5.6,0,9.1,3,9.2,7.8c0.1,5.1-3.3,8.4-9.2,8.4
		c-12.6,0.1-25.2,0-37.9,0c-1.6,0-3.3,0-4.9,0C1170.4,150,1170.1,150.5,1169.8,151z"/>
	
		<linearGradient id="SVGID_4_" gradientUnits="userSpaceOnUse" x1="1187.9211" y1="350.8512" x2="1363.6888" y2="350.8512" gradientTransform="matrix(1 0 0 -1 0 568)">
		<stop  offset="0" style="stop-color:#344793"/>
		<stop  offset="1" style="stop-color:#27336F"/>
	</linearGradient>
	<path class="st5" d="M1243.4,245.8c0-7.7,0-14.6,0-21.4c0-32.8,0-65.7,0-98.5c0-10.7,7.4-18.6,17.8-19c10.2-0.4,18.5,6.7,18.9,17.4
		c0.5,15.2,0.2,30.3,0.3,45.5c0,1.6,0,3.2,0,5.1c8.6,0.1,16.5,2.1,23.7,6.3c0.6,0.3,1.4,0.2,2.2,0.2c8-0.4,15.5,1.3,22.7,4.7
		c3.3,1.5,7.1,2.1,10.6,3.1s7,1.7,10.3,3c9.5,3.8,13.7,10.1,13.7,20.4c0,16.3,0.2,32.6,0,48.9c-0.4,31.2-23.1,58.9-53.7,64.7
		c-21.7,4.1-40.8-2.3-56.4-17.5c-20.1-19.6-39.7-39.8-59.5-59.8c-7.9-8-8.1-19-0.6-26.6c7.5-7.5,18.6-7.3,26.6,0.6
		c6.9,6.8,13.8,13.7,20.6,20.5C1241.3,244,1242,244.6,1243.4,245.8z M1271,207.6c0-1.6,0-3.1,0-4.6c0-24.9,0-49.8,0-74.7
		c0-1.2,0-2.5,0-3.7c-0.3-4.7-3.7-8.3-8.2-8.6c-5.1-0.4-9.1,2.5-10,7.5c-0.3,1.7-0.3,3.5-0.3,5.2c0,38,0,75.9,0,113.9
		c0,1.5,0.3,3.1-0.2,4.4c-0.9,2.2-1.8,4.7-3.6,6.2c-3.8,3.3-8.6,2.6-12.6-1.4c-7.5-7.4-15-14.9-22.5-22.4c-2.4-2.4-5.2-3.9-8.7-3.3
		c-3.7,0.7-6.2,2.8-7.4,6.5c-1.2,3.8,0.1,6.8,2.8,9.4c19.5,19.7,39,39.5,58.6,59.1c12.4,12.4,27.3,18,44.9,16.5
		c26.1-2.3,48.1-25.6,49.8-51.8c1.2-18.2,0.5-36.6,0.4-54.9c0-2.4-0.9-5.5-2.5-7.1c-4.2-4.1-9.7-5.4-15.9-6c0,6.5,0,12.6,0,18.6
		c-3.2,0-6,0-9.3,0c0-6.4,0.1-12.6-0.1-18.7c0-1.2-0.6-2.9-1.5-3.3c-5.1-2.6-10.5-4.2-16.8-3.7c0,8.7,0,17.2,0,25.7
		c-3.4,0-6.3,0-9.4,0c0-8.5,0.1-16.7-0.1-24.9c0-1.2-0.8-2.9-1.8-3.5c-5-2.7-10.4-3.9-16.5-3.5c0,7.7,0,15.2,0,22.9
		C1277.1,207.6,1274.3,207.6,1271,207.6z"/>
</g>
<g class="st1">
	<path class="st2" d="M576.7,351.1h7.1c5,0,8.7,1.7,8.7,7c0,5-3.7,7.3-8.6,7.3h-3.2v8.3h-4V351.1z M583.6,362.2c3.3,0,5-1.3,5-4.1
		c0-2.8-1.8-3.8-5.1-3.8h-2.8v7.9H583.6z"/>
	<path class="st2" d="M596.4,356.7h3.3l0.3,3h0.1c1.2-2.2,3-3.4,4.8-3.4c0.9,0,1.4,0.1,1.9,0.3l-0.7,3.5c-0.6-0.2-1-0.3-1.8-0.3
		c-1.3,0-3,0.9-4,3.5v10.4h-4V356.7z"/>
	<path class="st2" d="M607.9,365.2c0-5.5,3.8-8.9,7.8-8.9c4.6,0,7,3.3,7,8c0,0.8-0.1,1.5-0.2,1.9h-10.8c0.3,3,2.3,4.7,5,4.7
		c1.5,0,2.7-0.4,3.9-1.2l1.3,2.5c-1.6,1.1-3.7,1.8-5.8,1.8C611.5,374.1,607.9,370.8,607.9,365.2z M619.2,363.6
		c0-2.6-1.1-4.2-3.5-4.2c-2,0-3.7,1.5-4.1,4.2H619.2z"/>
	<path class="st2" d="M624.8,371.8l1.9-2.6c1.5,1.2,3,1.9,4.7,1.9c1.8,0,2.7-0.9,2.7-2c0-1.4-1.8-2-3.6-2.7
		c-2.2-0.8-4.8-2.1-4.8-4.9c0-3,2.4-5.1,6.2-5.1c2.3,0,4.2,1,5.6,2l-1.8,2.4c-1.2-0.9-2.4-1.5-3.7-1.5c-1.7,0-2.5,0.8-2.5,1.9
		c0,1.3,1.7,1.9,3.5,2.5c2.3,0.9,4.9,2,4.9,5.1c0,2.9-2.3,5.2-6.6,5.2C628.9,374.1,626.4,373.1,624.8,371.8z"/>
	<path class="st2" d="M640.9,351.5c0-1.3,1-2.3,2.5-2.3c1.4,0,2.5,0.9,2.5,2.3c0,1.3-1,2.2-2.5,2.2
		C641.9,353.8,640.9,352.8,640.9,351.5z M641.4,356.7h4v17h-4V356.7z"/>
	<path class="st2" d="M649.3,365.2c0-5.7,3.8-8.9,8-8.9c4.2,0,8.1,3.2,8.1,8.9c0,5.6-3.8,8.9-8.1,8.9
		C653.1,374.1,649.3,370.9,649.3,365.2z M661.3,365.2c0-3.4-1.5-5.7-4-5.7s-4,2.2-4,5.7c0,3.4,1.5,5.6,4,5.6
		S661.3,368.6,661.3,365.2z"/>
	<path class="st2" d="M669.4,356.7h3.3l0.3,2.3h0.1c1.5-1.5,3.2-2.7,5.6-2.7c3.6,0,5.2,2.5,5.2,6.7v10.6h-4v-10.1
		c0-2.8-0.8-3.8-2.7-3.8c-1.5,0-2.5,0.7-3.9,2.1v11.8h-4V356.7z"/>
	<path class="st2" d="M687.8,369.1c0-3.6,3-5.5,10-6.3c-0.1-1.8-0.8-3.3-3.1-3.3c-1.7,0-3.2,0.8-4.8,1.7l-1.5-2.7
		c1.9-1.2,4.3-2.2,7-2.2c4.2,0,6.3,2.6,6.3,7.3v10h-3.3l-0.3-1.9H698c-1.5,1.3-3.2,2.3-5.2,2.3C689.8,374.1,687.8,372.1,687.8,369.1
		z M697.8,369.1v-3.8c-4.6,0.6-6.1,1.8-6.1,3.5c0,1.5,1,2.2,2.5,2.2C695.5,371,696.5,370.3,697.8,369.1z"/>
	<path class="st2" d="M713.4,369.3v-20h4v20.2c0,1,0.4,1.3,0.9,1.3c0.2,0,0.3,0,0.6-0.1l0.5,3c-0.5,0.2-1.2,0.3-2.1,0.3
		C714.4,374.1,713.4,372.3,713.4,369.3z"/>
	<path class="st2" d="M721.9,369.1c0-3.6,3-5.5,10-6.3c-0.1-1.8-0.8-3.3-3.1-3.3c-1.7,0-3.2,0.8-4.8,1.7l-1.5-2.7
		c1.9-1.2,4.3-2.2,7-2.2c4.2,0,6.3,2.6,6.3,7.3v10h-3.3l-0.3-1.9h-0.1c-1.5,1.3-3.2,2.3-5.2,2.3
		C723.9,374.1,721.9,372.1,721.9,369.1z M731.8,369.1v-3.8c-4.6,0.6-6.1,1.8-6.1,3.5c0,1.5,1,2.2,2.5,2.2
		C729.5,371,730.6,370.3,731.8,369.1z"/>
	<path class="st2" d="M748.1,368v-8.1h-2.4v-3l2.6-0.2l0.5-4.6h3.3v4.6h4.3v3.1h-4.3v8.1c0,2,0.8,3,2.4,3c0.6,0,1.3-0.2,1.8-0.4
		l0.7,2.9c-0.9,0.3-2.1,0.6-3.5,0.6C749.5,374.1,748.1,371.6,748.1,368z"/>
	<path class="st2" d="M758.3,365.2c0-5.5,3.8-8.9,7.8-8.9c4.6,0,7,3.3,7,8c0,0.8-0.1,1.5-0.2,1.9h-10.8c0.3,3,2.3,4.7,5,4.7
		c1.5,0,2.7-0.4,3.9-1.2l1.3,2.5c-1.6,1.1-3.7,1.8-5.8,1.8C761.9,374.1,758.3,370.8,758.3,365.2z M769.6,363.6
		c0-2.6-1.1-4.2-3.5-4.2c-2,0-3.7,1.5-4.1,4.2H769.6z"/>
	<path class="st2" d="M775.8,365.2c0-5.7,4-8.9,8.5-8.9c2.2,0,3.7,0.8,5,1.9l-1.9,2.6c-0.9-0.8-1.8-1.2-2.8-1.2
		c-2.7,0-4.6,2.2-4.6,5.7c0,3.4,1.9,5.6,4.5,5.6c1.3,0,2.5-0.7,3.5-1.5l1.6,2.6c-1.6,1.4-3.6,2.1-5.5,2.1
		C779.3,374.1,775.8,370.9,775.8,365.2z"/>
	<path class="st2" d="M792.8,369.3v-20h4v20.2c0,1,0.4,1.3,0.9,1.3c0.2,0,0.3,0,0.6-0.1l0.5,3c-0.5,0.2-1.2,0.3-2.1,0.3
		C793.9,374.1,792.8,372.3,792.8,369.3z"/>
	<path class="st2" d="M801.3,369.1c0-3.6,3-5.5,10-6.3c-0.1-1.8-0.8-3.3-3.1-3.3c-1.7,0-3.2,0.8-4.8,1.7l-1.5-2.7
		c1.9-1.2,4.3-2.2,7-2.2c4.2,0,6.3,2.6,6.3,7.3v10H812l-0.3-1.9h-0.1c-1.5,1.3-3.2,2.3-5.2,2.3C803.3,374.1,801.3,372.1,801.3,369.1
		z M811.3,369.1v-3.8c-4.6,0.6-6.1,1.8-6.1,3.5c0,1.5,1,2.2,2.5,2.2C809,371,810,370.3,811.3,369.1z"/>
	<path class="st2" d="M827.3,351.1h13.6v3.4h-9.6v5.8h8.1v3.4h-8.1v6.7h9.9v3.4h-14V351.1z"/>
	<path class="st2" d="M845.8,351.1h4.1l7,12.7l2.3,4.8h0.1c-0.2-2.3-0.5-5.2-0.5-7.7v-9.8h3.8v22.6h-4.1l-7-12.7l-2.3-4.8h-0.1
		c0.2,2.4,0.5,5.1,0.5,7.6v9.9h-3.8V351.1z"/>
	<path class="st2" d="M873.1,354.5h-6.5v-3.4h17.1v3.4h-6.5v19.2h-4V354.5z"/>
	<path class="st2" d="M887.3,351.1h13.6v3.4h-9.6v5.8h8.1v3.4h-8.1v6.7h9.9v3.4h-14V351.1z"/>
	<path class="st2" d="M905.9,351.1h7.6c4.7,0,8.3,1.7,8.3,6.7c0,3.5-1.8,5.5-4.5,6.5l5.4,9.4h-4.5l-4.9-8.8h-3.5v8.8h-4V351.1z
		 M913.1,361.7c3.1,0,4.8-1.3,4.8-3.9c0-2.6-1.7-3.5-4.8-3.5h-3.2v7.4H913.1z"/>
</g>
<g class="st1">
	<path class="st2" d="M539.8,406.6c0-5.7,3.8-8.9,8-8.9c4.2,0,8.1,3.2,8.1,8.9c0,5.6-3.8,8.9-8.1,8.9
		C543.7,415.5,539.8,412.3,539.8,406.6z M551.9,406.6c0-3.4-1.5-5.7-4-5.7s-4,2.2-4,5.7c0,3.4,1.5,5.6,4,5.6S551.9,410,551.9,406.6z
		"/>
	<path class="st2" d="M566.6,408.8v-10.6h4v10.1c0,2.8,0.8,3.8,2.6,3.8c1.5,0,2.5-0.7,3.8-2.3v-11.6h4v17h-3.2l-0.3-2.5h-0.1
		c-1.5,1.8-3.1,2.9-5.5,2.9C568.2,415.5,566.6,413.1,566.6,408.8z"/>
	<path class="st2" d="M584.3,413.2l1.9-2.6c1.5,1.2,3,1.9,4.7,1.9c1.8,0,2.7-0.9,2.7-2c0-1.4-1.8-2-3.6-2.7
		c-2.2-0.8-4.8-2.1-4.8-4.9c0-3,2.4-5.1,6.2-5.1c2.3,0,4.2,1,5.6,2l-1.8,2.4c-1.2-0.9-2.4-1.5-3.7-1.5c-1.7,0-2.5,0.8-2.5,1.9
		c0,1.3,1.7,1.9,3.5,2.5c2.3,0.9,4.9,2,4.9,5.1c0,2.9-2.3,5.2-6.6,5.2C588.4,415.5,586,414.5,584.3,413.2z"/>
	<path class="st2" d="M600,410.5c0-3.6,3-5.5,10-6.3c-0.1-1.8-0.8-3.3-3.1-3.3c-1.7,0-3.2,0.8-4.8,1.7l-1.5-2.7
		c1.9-1.2,4.3-2.2,7-2.2c4.2,0,6.3,2.6,6.3,7.3v10h-3.3l-0.3-1.9h-0.1c-1.5,1.3-3.2,2.3-5.2,2.3C602,415.5,600,413.5,600,410.5z
		 M610,410.5v-3.8c-4.6,0.6-6.1,1.8-6.1,3.5c0,1.5,1,2.2,2.5,2.2C607.6,412.4,608.7,411.7,610,410.5z"/>
	<path class="st2" d="M626.2,409.4v-8.1h-2.4v-3l2.6-0.2l0.5-4.6h3.3v4.6h4.3v3.1h-4.3v8.1c0,2,0.8,3,2.4,3c0.6,0,1.3-0.2,1.8-0.4
		l0.7,2.9c-0.9,0.3-2.1,0.6-3.5,0.6C627.6,415.5,626.2,413,626.2,409.4z"/>
	<path class="st2" d="M637.9,408.8v-10.6h4v10.1c0,2.8,0.8,3.8,2.6,3.8c1.5,0,2.5-0.7,3.8-2.3v-11.6h4v17H649l-0.3-2.5h-0.1
		c-1.5,1.8-3.1,2.9-5.5,2.9C639.5,415.5,637.9,413.1,637.9,408.8z"/>
	<path class="st2" d="M667.8,413.3h-0.1l-0.3,1.8h-3.1v-24.4h4v6.3l-0.1,2.8c1.4-1.2,3.2-2.1,4.9-2.1c4.2,0,6.7,3.4,6.7,8.6
		c0,5.8-3.5,9.2-7.3,9.2C670.8,415.5,669.2,414.7,667.8,413.3z M675.5,406.4c0-3.4-1.1-5.4-3.7-5.4c-1.2,0-2.4,0.6-3.7,1.9v7.9
		c1.2,1,2.4,1.4,3.4,1.4C673.8,412.2,675.5,410.2,675.5,406.4z"/>
	<path class="st2" d="M682.5,406.6c0-5.7,3.8-8.9,8-8.9c4.2,0,8.1,3.2,8.1,8.9c0,5.6-3.8,8.9-8.1,8.9
		C686.3,415.5,682.5,412.3,682.5,406.6z M694.5,406.6c0-3.4-1.5-5.7-4-5.7s-4,2.2-4,5.7c0,3.4,1.5,5.6,4,5.6S694.5,410,694.5,406.6z
		"/>
	<path class="st2" d="M702.4,409.4v-8.1H700v-3l2.6-0.2l0.5-4.6h3.3v4.6h4.3v3.1h-4.3v8.1c0,2,0.8,3,2.4,3c0.6,0,1.3-0.2,1.8-0.4
		l0.7,2.9c-0.9,0.3-2.1,0.6-3.5,0.6C703.8,415.5,702.4,413,702.4,409.4z"/>
	<path class="st2" d="M712.6,406.6c0-5.7,3.8-8.9,8-8.9c4.2,0,8.1,3.2,8.1,8.9c0,5.6-3.8,8.9-8.1,8.9
		C716.4,415.5,712.6,412.3,712.6,406.6z M724.7,406.6c0-3.4-1.5-5.7-4-5.7s-4,2.2-4,5.7c0,3.4,1.5,5.6,4,5.6S724.7,410,724.7,406.6z
		 M718.6,393.3l5.1-6l2.8,2.6l-5.9,5.4L718.6,393.3z"/>
	<path class="st2" d="M732.7,398.1h3.3l0.3,2.3h0.1c1.5-1.5,3.2-2.7,5.6-2.7c3.6,0,5.2,2.5,5.2,6.7v10.6h-4V405
		c0-2.8-0.8-3.8-2.7-3.8c-1.5,0-2.5,0.7-3.9,2.1v11.8h-4V398.1z"/>
	<path class="st2" d="M757.8,406.6c0-5.5,3.8-8.9,7.8-8.9c4.6,0,7,3.3,7,8c0,0.8-0.1,1.5-0.2,1.9h-10.8c0.3,3,2.3,4.7,5,4.7
		c1.5,0,2.7-0.4,3.9-1.2l1.3,2.5c-1.6,1.1-3.7,1.8-5.8,1.8C761.5,415.5,757.8,412.2,757.8,406.6z M769.2,405c0-2.6-1.1-4.2-3.5-4.2
		c-2,0-3.7,1.5-4.1,4.2H769.2z"/>
	<path class="st2" d="M776.4,398.1h3.3l0.3,2.3h0.1c1.5-1.5,3.2-2.7,5.6-2.7c3.6,0,5.2,2.5,5.2,6.7v10.6h-4V405
		c0-2.8-0.8-3.8-2.7-3.8c-1.5,0-2.5,0.7-3.9,2.1v11.8h-4V398.1z"/>
	<path class="st2" d="M802.6,398.1h3.3l0.3,2.3h0.1c1.4-1.5,3.1-2.7,5.2-2.7c2.5,0,3.9,1.1,4.7,3c1.6-1.7,3.3-3,5.5-3
		c3.6,0,5.2,2.5,5.2,6.7v10.6h-4V405c0-2.8-0.8-3.8-2.6-3.8c-1.1,0-2.2,0.7-3.6,2.1v11.8h-4V405c0-2.8-0.8-3.8-2.6-3.8
		c-1,0-2.2,0.7-3.6,2.1v11.8h-4V398.1z"/>
	<path class="st2" d="M830.6,406.6c0-5.7,3.8-8.9,8-8.9c4.2,0,8.1,3.2,8.1,8.9c0,5.6-3.8,8.9-8.1,8.9
		C834.5,415.5,830.6,412.3,830.6,406.6z M842.7,406.6c0-3.4-1.5-5.7-4-5.7s-4,2.2-4,5.7c0,3.4,1.5,5.6,4,5.6S842.7,410,842.7,406.6z
		 M836.7,393.3l5.1-6l2.8,2.6l-5.9,5.4L836.7,393.3z"/>
	<path class="st2" d="M848.4,398.1h4l2.7,8.8c0.4,1.7,1,3.4,1.4,5.1h0.1c0.5-1.7,1-3.5,1.5-5.1l2.7-8.8h3.8l-5.8,17h-4.6
		L848.4,398.1z"/>
	<path class="st2" d="M867.1,392.9c0-1.3,1-2.3,2.5-2.3s2.5,0.9,2.5,2.3c0,1.3-1,2.2-2.5,2.2S867.1,394.2,867.1,392.9z M867.6,398.1
		h4v17h-4V398.1z"/>
	<path class="st2" d="M876.6,410.7v-20h4v20.2c0,1,0.4,1.3,0.9,1.3c0.2,0,0.3,0,0.6-0.1l0.5,3c-0.5,0.2-1.2,0.3-2.1,0.3
		C877.7,415.5,876.6,413.7,876.6,410.7z"/>
	<path class="st2" d="M892.9,398.1h3.3l0.3,1.8h0.1c1.4-1.2,3.2-2.2,5.1-2.2c4.2,0,6.7,3.4,6.7,8.6c0,5.8-3.5,9.2-7.3,9.2
		c-1.5,0-3-0.7-4.4-1.9l0.1,2.8v5.3h-4V398.1z M904.3,406.4c0-3.4-1.1-5.4-3.7-5.4c-1.2,0-2.4,0.6-3.7,1.9v7.9
		c1.2,1,2.4,1.4,3.4,1.4C902.5,412.2,904.3,410.2,904.3,406.4z"/>
	<path class="st2" d="M911.1,410.5c0-3.6,3-5.5,10-6.3c-0.1-1.8-0.8-3.3-3.1-3.3c-1.7,0-3.2,0.8-4.8,1.7l-1.5-2.7
		c1.9-1.2,4.3-2.2,7-2.2c4.2,0,6.3,2.6,6.3,7.3v10h-3.3l-0.3-1.9h-0.1c-1.5,1.3-3.2,2.3-5.2,2.3
		C913.1,415.5,911.1,413.5,911.1,410.5z M921,410.5v-3.8c-4.6,0.6-6.1,1.8-6.1,3.5c0,1.5,1,2.2,2.5,2.2
		C918.7,412.4,919.8,411.7,921,410.5z"/>
	<path class="st2" d="M929.8,398.1h3.3l0.3,3h0.1c1.2-2.2,3-3.4,4.8-3.4c0.9,0,1.4,0.1,1.9,0.3l-0.7,3.5c-0.6-0.2-1-0.3-1.8-0.3
		c-1.3,0-3,0.9-4,3.5v10.4h-4V398.1z"/>
	<path class="st2" d="M940.8,410.5c0-3.6,3-5.5,10-6.3c-0.1-1.8-0.8-3.3-3.1-3.3c-1.7,0-3.2,0.8-4.8,1.7l-1.5-2.7
		c1.9-1.2,4.3-2.2,7-2.2c4.2,0,6.3,2.6,6.3,7.3v10h-3.3l-0.3-1.9h-0.1c-1.5,1.3-3.2,2.3-5.2,2.3
		C942.9,415.5,940.8,413.5,940.8,410.5z M950.8,410.5v-3.8c-4.6,0.6-6.1,1.8-6.1,3.5c0,1.5,1,2.2,2.5,2.2
		C948.5,412.4,949.5,411.7,950.8,410.5z"/>
</g>
<g class="st1">
	<path class="st2" d="M573.6,452c0-3.6,3-5.5,10-6.3c-0.1-1.8-0.8-3.3-3.1-3.3c-1.7,0-3.2,0.8-4.8,1.7l-1.5-2.7
		c1.9-1.2,4.3-2.2,7-2.2c4.2,0,6.3,2.6,6.3,7.3v10h-3.3l-0.3-1.9h-0.1c-1.5,1.3-3.2,2.3-5.2,2.3C575.6,457,573.6,455,573.6,452z
		 M583.5,452v-3.8c-4.6,0.6-6.1,1.8-6.1,3.5c0,1.5,1,2.2,2.5,2.2C581.2,453.9,582.3,453.2,583.5,452z"/>
	<path class="st2" d="M591.2,448.1c0-5.7,4-8.9,8.5-8.9c2.2,0,3.7,0.8,5,1.9l-1.9,2.6c-0.9-0.8-1.8-1.2-2.8-1.2
		c-2.7,0-4.6,2.2-4.6,5.7c0,3.4,1.9,5.6,4.5,5.6c1.3,0,2.5-0.7,3.5-1.5l1.6,2.6c-1.6,1.4-3.6,2.1-5.5,2.1
		C594.7,457,591.2,453.8,591.2,448.1z"/>
	<path class="st2" d="M608.5,450.9v-8.1H606v-3l2.6-0.2l0.5-4.6h3.3v4.6h4.3v3.1h-4.3v8.1c0,2,0.8,3,2.4,3c0.6,0,1.3-0.2,1.8-0.4
		l0.7,2.9c-0.9,0.3-2.1,0.6-3.5,0.6C609.9,457,608.5,454.5,608.5,450.9z"/>
	<path class="st2" d="M619.9,434.4c0-1.3,1-2.3,2.5-2.3c1.4,0,2.5,0.9,2.5,2.3c0,1.3-1,2.2-2.5,2.2
		C620.9,436.7,619.9,435.7,619.9,434.4z M620.3,439.6h4v17h-4V439.6z"/>
	<path class="st2" d="M627.3,439.6h4l2.7,8.8c0.4,1.7,1,3.4,1.4,5.1h0.1c0.5-1.7,1-3.5,1.5-5.1l2.7-8.8h3.8l-5.8,17h-4.6
		L627.3,439.6z"/>
	<path class="st2" d="M644.9,452c0-3.6,3-5.5,10-6.3c-0.1-1.8-0.8-3.3-3.1-3.3c-1.7,0-3.2,0.8-4.8,1.7l-1.5-2.7
		c1.9-1.2,4.3-2.2,7-2.2c4.2,0,6.3,2.6,6.3,7.3v10h-3.3l-0.3-1.9h-0.1c-1.5,1.3-3.2,2.3-5.2,2.3C646.9,457,644.9,455,644.9,452z
		 M654.9,452v-3.8c-4.6,0.6-6.1,1.8-6.1,3.5c0,1.5,1,2.2,2.5,2.2C652.5,453.9,653.6,453.2,654.9,452z"/>
	<path class="st2" d="M663.6,439.6h3.3l0.3,3h0.1c1.2-2.2,3-3.4,4.8-3.4c0.9,0,1.4,0.1,1.9,0.3l-0.7,3.5c-0.6-0.2-1-0.3-1.8-0.3
		c-1.3,0-3,0.9-4,3.5v10.4h-4V439.6z"/>
	<path class="st2" d="M682.3,448.1c0-5.5,3.8-8.9,7.8-8.9c4.6,0,7,3.3,7,8c0,0.8-0.1,1.5-0.2,1.9h-10.8c0.3,3,2.3,4.7,5,4.7
		c1.5,0,2.7-0.4,3.9-1.2l1.3,2.5c-1.6,1.1-3.7,1.8-5.8,1.8C685.9,457,682.3,453.7,682.3,448.1z M693.6,446.5c0-2.6-1.1-4.2-3.5-4.2
		c-2,0-3.7,1.5-4.1,4.2H693.6z"/>
	<path class="st2" d="M700.9,452.2v-20h4v20.2c0,1,0.4,1.3,0.9,1.3c0.2,0,0.3,0,0.6-0.1l0.5,3c-0.5,0.2-1.2,0.3-2.1,0.3
		C701.9,457,700.9,455.2,700.9,452.2z"/>
	<path class="st2" d="M717.1,439.6h3.3l0.3,2.3h0.1c1.4-1.5,3.1-2.7,5.2-2.7c2.5,0,3.9,1.1,4.7,3c1.6-1.7,3.3-3,5.5-3
		c3.6,0,5.2,2.5,5.2,6.7v10.6h-4v-10.1c0-2.8-0.8-3.8-2.6-3.8c-1.1,0-2.2,0.7-3.6,2.1v11.8h-4v-10.1c0-2.8-0.8-3.8-2.6-3.8
		c-1,0-2.2,0.7-3.6,2.1v11.8h-4V439.6z"/>
	<path class="st2" d="M745.1,448.1c0-5.7,3.8-8.9,8-8.9c4.2,0,8.1,3.2,8.1,8.9c0,5.6-3.8,8.9-8.1,8.9
		C749,457,745.1,453.8,745.1,448.1z M757.2,448.1c0-3.4-1.5-5.7-4-5.7s-4,2.2-4,5.7c0,3.4,1.5,5.6,4,5.6S757.2,451.5,757.2,448.1z"
		/>
	<path class="st2" d="M764.2,448.1c0-5.5,3.5-8.9,7.2-8.9c1.9,0,3.1,0.7,4.5,1.9l-0.1-2.7v-6.1h4v24.4h-3.3l-0.3-1.8h-0.1
		c-1.2,1.2-3,2.2-4.8,2.2C766.9,457,764.2,453.7,764.2,448.1z M775.7,451.8v-7.9c-1.2-1-2.3-1.4-3.5-1.4c-2.2,0-3.9,2-3.9,5.6
		c0,3.7,1.4,5.6,3.8,5.6C773.4,453.7,774.5,453.1,775.7,451.8z"/>
	<path class="st2" d="M783.6,448.1c0-5.7,3.8-8.9,8-8.9c4.2,0,8.1,3.2,8.1,8.9c0,5.6-3.8,8.9-8.1,8.9
		C787.4,457,783.6,453.8,783.6,448.1z M795.6,448.1c0-3.4-1.5-5.7-4-5.7s-4,2.2-4,5.7c0,3.4,1.5,5.6,4,5.6S795.6,451.5,795.6,448.1z
		"/>
	<path class="st2" d="M809.4,448.1c0-5.5,3.8-8.9,7.8-8.9c4.6,0,7,3.3,7,8c0,0.8-0.1,1.5-0.2,1.9h-10.8c0.3,3,2.3,4.7,5,4.7
		c1.5,0,2.7-0.4,3.9-1.2l1.3,2.5c-1.6,1.1-3.7,1.8-5.8,1.8C813.1,457,809.4,453.7,809.4,448.1z M820.8,446.5c0-2.6-1.1-4.2-3.5-4.2
		c-2,0-3.7,1.5-4.1,4.2H820.8z"/>
	<path class="st2" d="M825.9,439.6h4l2.7,8.8c0.4,1.7,1,3.4,1.4,5.1h0.1c0.5-1.7,1-3.5,1.5-5.1l2.7-8.8h3.8l-5.8,17h-4.6
		L825.9,439.6z"/>
	<path class="st2" d="M843.5,452c0-3.6,3-5.5,10-6.3c-0.1-1.8-0.8-3.3-3.1-3.3c-1.7,0-3.2,0.8-4.8,1.7l-1.5-2.7
		c1.9-1.2,4.3-2.2,7-2.2c4.2,0,6.3,2.6,6.3,7.3v10h-3.3l-0.3-1.9h-0.1c-1.5,1.3-3.2,2.3-5.2,2.3C845.6,457,843.5,455,843.5,452z
		 M853.5,452v-3.8c-4.6,0.6-6.1,1.8-6.1,3.5c0,1.5,1,2.2,2.5,2.2C851.2,453.9,852.2,453.2,853.5,452z"/>
	<path class="st2" d="M860.6,454.7l1.9-2.6c1.5,1.2,3,1.9,4.7,1.9c1.8,0,2.7-0.9,2.7-2c0-1.4-1.8-2-3.6-2.7
		c-2.2-0.8-4.8-2.1-4.8-4.9c0-3,2.4-5.1,6.2-5.1c2.3,0,4.2,1,5.6,2l-1.8,2.4c-1.2-0.9-2.4-1.5-3.7-1.5c-1.7,0-2.5,0.8-2.5,1.9
		c0,1.3,1.7,1.9,3.5,2.5c2.3,0.9,4.9,2,4.9,5.1c0,2.9-2.3,5.2-6.6,5.2C864.7,457,862.2,456,860.6,454.7z"/>
	<path class="st2" d="M876.7,434.4c0-1.3,1-2.3,2.5-2.3c1.4,0,2.5,0.9,2.5,2.3c0,1.3-1,2.2-2.5,2.2
		C877.7,436.7,876.7,435.7,876.7,434.4z M877.1,439.6h4v17h-4V439.6z"/>
	<path class="st2" d="M885.1,448.1c0-5.7,3.8-8.9,8-8.9c4.2,0,8.1,3.2,8.1,8.9c0,5.6-3.8,8.9-8.1,8.9
		C888.9,457,885.1,453.8,885.1,448.1z M897.1,448.1c0-3.4-1.5-5.7-4-5.7s-4,2.2-4,5.7c0,3.4,1.5,5.6,4,5.6S897.1,451.5,897.1,448.1z
		 M891.1,434.8l5.1-6l2.8,2.6l-5.9,5.4L891.1,434.8z"/>
	<path class="st2" d="M905.1,439.6h3.3l0.3,2.3h0.1c1.5-1.5,3.2-2.7,5.6-2.7c3.6,0,5.2,2.5,5.2,6.7v10.6h-4v-10.1
		c0-2.8-0.8-3.8-2.7-3.8c-1.5,0-2.5,0.7-3.9,2.1v11.8h-4V439.6z"/>
	<path class="st2" d="M924.1,454.3c0-1.6,1.1-2.7,2.6-2.7s2.6,1.1,2.6,2.7s-1.1,2.7-2.6,2.7S924.1,455.9,924.1,454.3z"/>
</g>
<g>
	<g>
		
			<linearGradient id="SVGID_5_" gradientUnits="userSpaceOnUse" x1="607.1" y1="417.55" x2="720.9" y2="417.55" gradientTransform="matrix(1 0 0 -1 0 568)">
			<stop  offset="0" style="stop-color:#344793"/>
			<stop  offset="1" style="stop-color:#27336F"/>
		</linearGradient>
		<path class="st6" d="M720.9,96.1c0-5.5-3-8.8-7.9-8.8c-32.7,0-65.3,0-98,0c-5,0-7.9,3.2-7.9,8.7c0,20.4,0,40.8,0,61.2
			c0,5.8,2.8,9,8,9c6.3,0,12.5,0,18.8,0c6,0,8.7,2.9,8.7,9.6c0,9.5,0,19,0,28.6c0,6.2,2.8,9.2,8.3,9.2c20.6,0,41.1,0,61.7,0
			c5.5,0,8.3-3.1,8.3-9.2c0-18,0-35.9,0-53.9C720.9,132.3,720.9,114.2,720.9,96.1z M715.7,150.1c-0.1,16.4-0.2,32.9-0.3,49.3
			c0,5.5-2.6,8.4-7.6,8.3c-18.8-0.1-33.1-0.2-51.9-0.4c-5,0-7.5-2.8-7.5-8.4c0-8.7,0.1-17.4,0.2-26.1c0-6.1-6.9-12.6-12.4-12.6
			c-5.7,0-11.5-0.1-17.2-0.1c-4.8,0-7.3,0.8-7.3-4.5c0.1-18.6,0.2-37.3,0.3-55.9c0-5,2.7-7.9,7.3-7.9c29.8,0.2,59.7,0.4,89.5,0.6
			c4.5,0,7.2,3.1,7.2,8C715.9,117,715.8,133.6,715.7,150.1z"/>
		<g>
			
				<linearGradient id="SVGID_6_" gradientUnits="userSpaceOnUse" x1="635.4" y1="441.45" x2="644.3145" y2="441.45" gradientTransform="matrix(1 0 0 -1 0 568)">
				<stop  offset="0" style="stop-color:#344793"/>
				<stop  offset="1" style="stop-color:#27336F"/>
			</linearGradient>
			<path class="st7" d="M635.4,119.8h8.7v3H639v2.1h4.4v3H639v2.4h5.3v3h-8.9L635.4,119.8L635.4,119.8z"/>
			
				<linearGradient id="SVGID_7_" gradientUnits="userSpaceOnUse" x1="646.935" y1="441.45" x2="657.8815" y2="441.45" gradientTransform="matrix(1 0 0 -1 0 568)">
				<stop  offset="0" style="stop-color:#344793"/>
				<stop  offset="1" style="stop-color:#27336F"/>
			</linearGradient>
			<path class="st8" d="M646.9,119.8h3.6l3,6l1.3,3h0.1c-0.2-1.5-0.5-3.5-0.5-5.1v-3.9h3.4v13.5h-3.6l-3-6l-1.3-3h-0.1
				c0.2,1.5,0.5,3.5,0.5,5.1v3.9h-3.4V119.8z"/>
			
				<linearGradient id="SVGID_8_" gradientUnits="userSpaceOnUse" x1="659.874" y1="441.45" x2="670.574" y2="441.45" gradientTransform="matrix(1 0 0 -1 0 568)">
				<stop  offset="0" style="stop-color:#344793"/>
				<stop  offset="1" style="stop-color:#27336F"/>
			</linearGradient>
			<path class="st9" d="M663.4,122.8h-3.6v-3h10.7v3H667v10.5h-3.6V122.8z"/>
			
				<linearGradient id="SVGID_9_" gradientUnits="userSpaceOnUse" x1="672.5637" y1="441.45" x2="681.4781" y2="441.45" gradientTransform="matrix(1 0 0 -1 0 568)">
				<stop  offset="0" style="stop-color:#344793"/>
				<stop  offset="1" style="stop-color:#27336F"/>
			</linearGradient>
			<path class="st10" d="M672.6,119.8h8.7v3h-5.1v2.1h4.4v3h-4.4v2.4h5.3v3h-8.9V119.8z"/>
			
				<linearGradient id="SVGID_10_" gradientUnits="userSpaceOnUse" x1="684.093" y1="441.45" x2="695.3298" y2="441.45" gradientTransform="matrix(1 0 0 -1 0 568)">
				<stop  offset="0" style="stop-color:#344793"/>
				<stop  offset="1" style="stop-color:#27336F"/>
			</linearGradient>
			<path class="st11" d="M684.1,119.8h5.1c2.9,0,5.4,1,5.4,4.4c0,1.9-0.9,3.2-2.2,3.9l2.9,5.2h-4l-2.3-4.5h-1.4v4.5H684L684.1,119.8
				L684.1,119.8z M688.9,126c1.4,0,2.2-0.6,2.2-1.8c0-1.2-0.7-1.5-2.2-1.5h-1.3v3.3H688.9z"/>
		</g>
	</g>
	
		<linearGradient id="SVGID_11_" gradientUnits="userSpaceOnUse" x1="769.725" y1="302.65" x2="891" y2="302.65" gradientTransform="matrix(1 0 0 -1 0 568)">
		<stop  offset="0" style="stop-color:#344793"/>
		<stop  offset="1" style="stop-color:#27336F"/>
	</linearGradient>
	<path class="st12" d="M830.7,224c15.9,0,31.9,0,47.8,0c7.5,0,12.5,4.8,12.5,12.4c0,19.4,0,38.9,0,58.3c0,6.9-5.1,12-12,12
		c-32.5,0-64.9,0-97.4,0c-6.8,0-11.8-5-11.8-11.8c-0.1-19.8-0.1-39.7,0-59.5c0-6.3,5.3-11.3,11.8-11.3C798,224,814.3,224,830.7,224z
		 M779.5,230.3c0.4,0.6,0.4,0.8,0.5,0.9c15.5,13.8,31,27.5,46.5,41.3c2.7,2.4,5.1,2.4,7.9-0.1c12.9-11.4,25.8-22.9,38.7-34.4
		c2.7-2.4,5.4-4.8,8.6-7.7C847.3,230.3,813.5,230.3,779.5,230.3z M781.6,300.6c32.7,0,64.9,0,97.5,0c-11-10.5-21.6-20.7-32.4-31
		c-2.7,2.4-5.4,4.7-8,7c-5.5,4.8-11.5,4.8-16.9-0.2c-2.5-2.3-5.1-4.5-7.7-6.8C803.3,279.9,792.6,290.1,781.6,300.6z M809.7,265.5
		c-11.3-10.1-22.4-19.9-33.7-30c0,20.8,0,41.2,0,62.3C787.5,286.8,798.5,276.3,809.7,265.5z M851.2,265.5
		c11.2,10.7,22.1,21.2,33.6,32.3c0-21.1,0-41.5,0-62.2C873.5,245.6,862.4,255.5,851.2,265.5z"/>
	
		<linearGradient id="SVGID_12_" gradientUnits="userSpaceOnUse" x1="616.0168" y1="469.6575" x2="833.1011" y2="469.6575" gradientTransform="matrix(0.6365 -0.7713 -0.7713 -0.6365 650.1627 1078.9945)">
		<stop  offset="0" style="stop-color:#344793"/>
		<stop  offset="1" style="stop-color:#27336F"/>
	</linearGradient>
	<path class="st13" d="M682.1,305.7c-0.7,0-1.5-0.2-2.1-0.8c-1.4-1.2-1.6-3.2-0.4-4.6l134-162.4c1.2-1.4,3.2-1.6,4.6-0.4
		c1.4,1.2,1.6,3.2,0.4,4.6l-134,162.4C684,305.3,683,305.7,682.1,305.7z"/>
</g>
</svg>
