<?xml version="1.0" encoding="utf-8"?>
<!-- Generator: Adobe Illustrator 22.1.0, SVG Export Plug-In . SVG Version: 6.00 Build 0)  -->
<svg version="1.1" id="Layer_1" xmlns="http://www.w3.org/2000/svg" xmlns:xlink="http://www.w3.org/1999/xlink" x="0px" y="0px"
	 viewBox="0 0 100 131" style="enable-background:new 0 0 100 131;" xml:space="preserve">
<style type="text/css">
	.st0{fill:#FFFFFF;}
</style>
<path class="st0" d="M18.7,11.5c0-1.7,0-3,0-4.4C18.8,4.8,19.5,4,21.9,4c0.3,0,0.5,0,0.8,0c17.9,0,35.8,0,53.6,0
	c3.1,0,3.7,0.6,3.7,3.7c0,1.2,0,2.4,0,3.9c3.6,0,7.1,0,10.5,0c3.4,0,4.3,0.8,3.9,4.1c-0.6,5.2-1,10.6-2.5,15.6
	c-2.3,8-7.6,14-14.9,18c-1.2,0.7-1.8,1.5-2.2,2.9c-2.4,8.3-7.6,14.1-15.7,17.2c-0.7,0.3-1.3,1.1-1.8,1.8c-0.5,0.6-0.6,1.7-1.2,2
	c-2.1,1.1-1.7,2.9-1.7,4.6c0,3.5,0,7,0,10.8c1.6,0,2.9,0,4.3,0c0,1.7,0,3.2,0,4.9c4.6,0,9,0,13.7,0c0,6.9,0,13.6,0,20.5
	c2,0,3.8,0,5.7,0c0,3.6,0,7,0,10.5c-19.1,0-38.3,0-57.6,0c0-3.4,0-6.8,0-10.4c1.8,0,3.6,0,5.7,0c0-6.9,0-13.6,0-20.6
	c4.7,0,9.1,0,13.8,0c0-1.8,0-3.3,0-4.9c1.5-0.1,2.7-0.1,4.2-0.2c0.1-0.6,0.2-1.2,0.2-1.8c0-2.8,0-5.6,0-8.4c0-2,0.5-4.2-1.9-5.3
	c-0.1,0-0.1-0.1-0.1-0.2c-0.7-3-3.2-3.7-5.6-4.8c-6.9-3.5-11.5-8.9-13.5-16.5c-0.2-0.7-0.8-1.6-1.5-2C10.4,43.3,5.2,33.2,4.5,20.6
	c-0.1-1.8-0.2-3.5-0.3-5.3c-0.1-3,0.7-3.7,3.7-3.7C11.4,11.5,15,11.5,18.7,11.5z M64.5,41.7c0-8.4-6.5-14.9-15.1-14.9
	c-8.4,0-15.2,6.5-15.2,14.8c0,8.5,6.5,15.1,15.1,15.2C57.8,56.8,64.5,50.2,64.5,41.7z M9.8,17.1c-0.8,11.4,6,23.6,12.7,26.1
	c0-8.7,0-17.3,0-26.1C18.2,17.1,14.1,17.1,9.8,17.1z M76.3,17.1c0,8.9,0,17.5,0,26.2c8.5-4.6,13.2-16.1,12.5-26.2
	C84.7,17.1,80.6,17.1,76.3,17.1z"/>
<path class="st0" d="M28,75.7c-0.5,0.6-0.7,1-1,1.2c-0.4,0.3-0.8,0.5-1.3,0.5c-2.9,0.6-4.5,2.3-5.2,5.2c-0.2,0.8-1,1.4-1.6,2.1
	c-0.6-0.7-1.6-1.4-1.7-2.2c-0.4-3-2.1-4.4-4.9-5c-0.8-0.2-1.4-1-2.1-1.6c0.7-0.6,1.4-1.6,2.2-1.7c2.9-0.4,4.3-2,4.7-4.8
	c0.1-0.8,1.1-1.5,1.7-2.2c0.6,0.7,1.4,1.3,1.6,2c0.7,2.9,2.1,4.6,5.2,5C26.5,74.3,27.2,75.1,28,75.7z"/>
<path class="st0" d="M95,62.4c-0.5,0.6-0.7,1-1,1.2c-0.3,0.2-0.7,0.4-1.1,0.4c-2.9,0.3-4.4,1.9-4.8,4.7c-0.1,0.8-1,1.4-1.5,2.1
	c-0.5-0.7-1.4-1.3-1.5-2.1c-0.5-2.9-2-4.5-5-4.9c-0.6-0.1-1.1-0.8-1.6-1.2c0.5-0.5,1.1-1,1.7-1.4c0.3-0.2,0.8-0.3,1.1-0.4
	c2.1-0.3,3-1.5,3.5-3.5c0.2-1.1,1-2.8,1.7-2.8c1.7-0.2,1.8,1.6,1.9,2.8c0.4,2.7,2.3,3.3,4.4,3.9C93.5,61.4,94.1,61.9,95,62.4z"/>
<path class="st0" d="M61.7,39c-0.8,0.9-1.1,1.5-1.6,1.8c-1.3,1-2.6,1.9-4,2.8c-1,0.6-1.2,1.2-0.8,2.3c0.6,1.6,1.1,3.3,1.6,5
	c0.1,0.6-0.1,1.2-0.2,1.8c-0.6-0.1-1.4,0-1.9-0.3c-1-0.5-2-1.2-2.9-1.9c-1.7-1.5-3.3-1.8-5-0.1c-0.8,0.8-1.8,1.4-2.9,1.9
	c-0.6,0.3-1.6,0.4-2.2,0.1c-0.3-0.1-0.3-1.3-0.2-2c0.3-1.4,0.8-2.9,1.3-4.3c0.6-1.3,0.5-2.2-0.9-3c-1.1-0.6-2.1-1.3-2.9-2.2
	c-0.6-0.6-1-1.5-1.5-2.3c0.8-0.3,1.6-0.8,2.5-0.9c1.1-0.2,2.3-0.2,3.5,0c1.8,0.2,2.6-0.5,2.9-2.2c0.3-1.3,0.7-2.5,1.2-3.7
	c0.3-0.6,1-1.1,1.5-1.6c0.5,0.5,1.1,1,1.3,1.6c0.6,1.5,1,3.1,1.6,4.6c0.3,0.6,1.1,1.2,1.7,1.2c1.8,0.2,3.7,0,5.5,0.1
	C60.1,38,60.8,38.5,61.7,39z"/>
</svg>
