<?xml version="1.0" encoding="utf-8"?>
<!-- Generator: Adobe Illustrator 22.0.1, SVG Export Plug-In . SVG Version: 6.00 Build 0)  -->
<svg version="1.1" id="Layer_1" xmlns="http://www.w3.org/2000/svg" xmlns:xlink="http://www.w3.org/1999/xlink" x="0px" y="0px"
	 viewBox="0 0 412.7 286.5" style="enable-background:new 0 0 412.7 286.5;" xml:space="preserve">
<style type="text/css">
	.st0{fill:#263270;}
	.st1{fill:#1975B2;}
	.st2{fill:#149BE4;}
	.st3{opacity:0.65;fill:#66C3F2;enable-background:new    ;}
	.st4{fill:#FFFFFF;}
</style>
<path class="st0" d="M144.9,214.5c-6.7,1.9-11.2-3.2-17.2-4.4c-0.9,1.4-1.8,2.9-2.8,4.4c-9.8,14.3-24.1,13.4-36.4,7.9
	c-2.9-1.3-3.1-3.8-2-6.5c3.5-8.8,8.6-16,18.4-19.7c-3.1-2.4-5.8-4.5-8.7-6.8c-5.5,4.9-11.2,9.2-18.6,9.7
	c-9.8,0.7-17.6-3.8-24.1-10.6c-2.2-2.3-1-4.8,1-6.8c5.5-5.9,11.6-10.5,19.9-11.5c0.5-0.1,1-0.4,1.8-0.8c-2.6-3.4-5.1-6.6-8.1-10.5
	c-0.9,1.2-1.4,2.2-2.2,3C54,173.6,41.2,172.2,28.5,163c-2.9-2.1-2.8-4.6-1-7.4c7-11,16.6-15.4,30.4-13.4c-1.4-3-2.7-5.6-4.2-8.6
	c-1.2,0.5-2.1,0.9-2.9,1.3c-15.7,7.6-28.4,4.7-39.4-8.9c-6-7.4-5.6-9.6,2.8-14.3c9.8-5.4,19.9-7.6,31.1-1.4
	c-0.8-3.2-1.4-5.7-1.9-7.7c-5.4-0.8-10.6-1-15.5-2.3C12,96.5,1.1,79.6,3.5,63.4c0.6-3.8,3.3-4.3,6.2-4.4c10.8-0.3,21,1.8,29.7,9.8
	c0-5.1,0-9.6,0-14.7c-2.5-0.5-5.2-0.9-7.9-1.6c-22.2-5.1-28-22.1-25.9-41C6,7.9,8.8,7.1,12,7.4c9.7,0.9,18.8,3.4,26,10.3
	c0.4,0.4,0.8,0.6,1.8,1.4c0-4.5,0.1-8.3,0-12.1c-0.1-3,1-5.2,4.2-5.3c3.5-0.1,4.6,2.2,4.5,5.4c-0.1,3.7,0,7.3,0,11.9
	c1.8-1.5,3-2.6,4.3-3.5C60,10,68.3,8,77.1,7.4c3.7-0.3,5.5,1.7,5.8,5.3c2,22.2-7.4,37.2-30.2,40.7c-3.5,0.5-4.5,1.7-4.3,5.1
	c0.3,3.2,0.1,6.4,0.1,10.7c6.9-7,14.5-10.7,23.1-12.7c7.1-1.6,8.9-0.4,9.9,6.9c3,21.3-5.5,34.6-26,40.7c-0.8,0.2-1.6,0.6-2.9,1.1
	c1.9,6.1,3.8,12.1,5.4,17.6c4.2-4.6,7.9-9.4,12.4-13.4c4.6-4.2,6.9-3.5,10.3,1.6c9.9,14.9,7.7,26.9-7.8,40.3c3,4.1,6.1,8.2,9.9,13.3
	c0.7-9.8,5-16.6,11.1-22.4c3.9-3.7,6.1-3.6,9.6,0.3c11.5,12.9,11.6,25.8,0.3,39c-0.4,0.5-0.9,1.1-1.6,2c3.1,2.4,6.2,4.6,9.9,7.5
	c0-2.1,0-3.4,0-4.7c0.1-9,4.4-16,10.5-22.1c2.3-2.3,4.7-1.4,6.8,0.5c10.3,9.3,16.7,22,6.9,37.2c-0.3,0.5-0.5,1-0.7,1.4
	c3.7,2.2,7.4,4.4,10.9,6.4c10.7,0,21.8,0,33.4,0c0-6.3,0.1-11.6-0.1-17c0-0.9-1.3-2-2.3-2.5c-16.4-8.1-28.2-20.4-35-37.5
	c-0.6-1.4-2-2.7-3.4-3.5c-20.1-11.3-30.2-28.6-31-51.5c-0.1-2.6-0.1-5.1,0-7.7c0.4-13.9,10.2-23.4,24.1-23.4c1.5,0,3,0,4.7-0.3
	c-6.1-3.3-10.5-7.9-12.5-14.4c-4.4-14.3,6-28.2,21.3-28.5c9.5-0.2,19.1,0,28.6,0c30.5,0,61,0,91.4,0c11,0,19.5,6,22.4,15.7
	c2.8,9.4-1,19.6-9.4,24.9c-1,0.7-2.1,1.3-4.3,2.6c2.8,0,4.4,0,6,0c12.7,0.1,22.3,8,23.6,20.7c2,20-2.5,38.2-17.7,52.6
	c-2.6,2.4-5.3,5-8.4,6.5c-5.4,2.6-8.2,6.6-10.6,11.8c-6.5,14.2-17.3,24.6-31.3,31.4c-2.6,1.2-3.6,2.6-3.4,5.5
	c0.2,4.5,0.1,9.1,0.1,13.8c11.3,1.2,22.6-0.8,33,1c3.8-2.2,7.4-4.4,11.2-6.6c-0.1-0.3-0.2-0.8-0.5-1.3c-9.4-14.5-4.4-27.1,6.6-37.2
	c2.8-2.6,5.5-2.6,8.1,0.4c6.3,7,10.5,14.9,9.1,26c3.8-2.8,6.9-5.1,10.2-7.5c-1.8-2.4-3.5-4.4-5-6.6c-9.7-13.7-3.4-27.1,5.4-36.1
	c2.6-2.6,5.2-1.3,7.5,0.8c6.3,5.8,10.9,12.6,11.5,22.8c3.8-4.9,6.8-8.9,10-13.1c-2.3-2.2-4.5-4.1-6.5-6.3
	c-11.5-12.4-7.7-26.1,0.6-36.7c2-2.5,4.7-2.3,6.8-0.3c4.8,4.5,9.3,9.4,14,14.2c1.6-5,3.5-11,5.4-17.1c-3.7-1.4-7.1-2.4-10.3-3.8
	C334,94.6,325.9,75,332.2,59.1c1.1-2.7,3.1-3.4,5.8-3c8.8,1.3,16.7,4.5,23.4,10.5c0.7,0.6,1.4,1.3,2.9,2.7c0-4.9,0.2-9-0.1-13
	c-0.1-0.9-1.6-2-2.6-2.4c-1.9-0.6-3.9-0.7-5.8-1.1c-22.4-5.3-27.8-23.3-25.6-41c0.4-3.6,3-4.5,6.3-4.2c9.8,0.9,19,3.4,26.4,10.6
	c0.3,0.3,0.7,0.4,1.6,0.8c0-4.1,0-7.9,0-11.7c0-3,1.1-5.2,4.3-5.2c3.5-0.1,4.5,2.3,4.5,5.4c-0.1,3.7,0,7.4,0,11.7
	c1.1-0.8,1.9-1.3,2.6-1.9c7.5-6.7,16.6-9,26.3-9.6c3.2-0.2,5.1,1.4,5.4,4.7c2.1,22-6.5,37.7-30.4,41.4c-1.2,0.2-2.5,0.4-3.8,0.7
	c0,4.8,0,9.4,0,14.3c0.9-0.6,1.7-1,2.4-1.5c8.4-6.8,18.2-8.3,28.5-7.9c3.6,0.1,5.4,2.1,5.3,5.8c-0.6,22-11,35.6-33.8,37.1
	c-6.6,0.5-6.6,0.4-7.5,7.9c6-2.8,12.2-4.7,18.5-2.7c5.5,1.8,10.8,4.2,15.9,7c3.9,2.1,4.1,4.4,1.7,8.2
	c-10.2,16.4-25.2,20.7-42.6,12.3c-0.6-0.3-1.3-0.6-2.3-1c-1.4,2.8-2.8,5.5-4.3,8.7c13.4-3.3,22.5,2.5,29.8,12.3
	c3.1,4.2,2.8,6.3-1.5,9.2c-13.5,8.9-25.5,9.5-38.8-4.4c-2.5,3.3-5.1,6.6-8,10.4c9,1,15.6,5,21.2,11c3.8,4.1,3.8,6.4-0.5,9.9
	c-12.7,10.4-25.2,12.7-40.6-1.3c-2.7,2.1-5.5,4.2-8.7,6.6c9.5,3.6,14.8,10.5,18.2,19.1c1.7,4.3,0.8,6.2-3.5,8
	c-15.4,6.3-27.4,2.5-36.4-11.5c-0.4-0.6-0.8-1.1-1.1-1.5c-5.7,1.9-11.1,3.7-17.3,5.7c0.9,7.3,1.8,16.1,2.9,24.8
	c1.5,12.6,3.1,25.1,4.6,37.7c0.5,4.3-1.1,6.2-5.5,6.2c-42.3,0-84.6,0-126.9,0c-5,0-6.2-1.9-5.5-7.2c2.5-19.9,4.9-39.8,7.3-59.8
	C145,216.7,144.9,215.7,144.9,214.5z M147.1,102.5c0.1,0,0.2,0,0.4,0c0,10.5-0.6,21.1,0.1,31.6c1.9,29.8,30.2,54.7,60,53.4
	c34-1.5,58.2-27,58.3-61.1c0-20.2,0.1-40.4-0.1-60.6c0-4.3,1.2-6.8,5.6-8.1c6.2-1.8,9.6-7.6,8.9-13.9c-0.8-6.8-6.1-11.7-13.4-11.7
	c-40.3-0.1-80.6,0-120.9,0c-1.3,0-2.6,0.2-3.8,0.5c-6.4,1.8-10.3,7.7-9.5,14.3s6.5,11.7,13.6,11.7c19.1,0.1,38.2,0,57.2,0
	c1.1,0,2.6-0.4,3.3,0.1c1.5,1.1,3.7,2.7,3.8,4.2c0,1.4-2.1,3.2-3.6,4.3c-0.9,0.6-2.5,0.2-3.8,0.2c-17.2,0-34.5,0.1-51.7-0.1
	c-3.6,0-4.6,1.1-4.5,4.6C147.2,82,147.1,92.3,147.1,102.5z M259.3,218.4c-35.4,0-70.5,0-105.6,0c-2.3,19.2-4.6,38.1-6.9,57
	c40,0,79.6,0,119.4,0C263.9,256.3,261.6,237.5,259.3,218.4z M138.2,75.6c-3.4,0-6.2-0.3-9,0.1c-6,0.7-11,5.4-11.6,11.3
	c-1,10.7-0.6,21.3,4.1,31.3c3.8,8.1,9.2,14.8,16.5,19.6c0-10.4,0-20.6,0-30.8C138.2,96.7,138.2,86.4,138.2,75.6z M274.7,137.9
	c0.7-0.5,1.4-0.9,2.1-1.4c15-11.8,19.9-27.8,18.9-46.1c-0.6-11.6-9.1-17.5-21-14.4c0,10.1,0,20.3,0,30.6
	C274.7,117,274.7,127.3,274.7,137.9z M189.3,195.4c0,4.2,0,8.8,0,13.4c11.6,0,22.9,0,34.4,0c0-4.8,0-9.4,0-13.4
	C212.1,195.4,200.9,195.4,189.3,195.4z M72.6,65.7C57,67.7,48,81,52.4,95.4C67.7,92.6,75.8,80.7,72.6,65.7z M340.3,65.6
	c-2.6,16.4,6.8,29.5,20.8,29.5C364.4,80.3,356.1,68.3,340.3,65.6z M375.1,44.7c16.9-2.2,26.6-14,23.2-27.8
	C382.3,18.5,373.6,28.7,375.1,44.7z M14.5,17c-2.4,15,7,26.1,23.3,27.5C39.9,29.3,29.7,17.4,14.5,17z M50.5,44.6
	c14.2-1.3,25.3-9.8,23.3-27.6C58.7,17.4,48.4,29.6,50.5,44.6z M12.7,68.2C13.3,84.3,25.1,95,39.5,92.6C39,76.9,28.7,67.5,12.7,68.2z
	 M373.6,92.8c16.3,0.6,28-10.4,26.3-24.7C384.1,67.5,373.8,77.1,373.6,92.8z M339.1,17.1c-2.4,14.8,7.5,26.4,23.4,27.4
	C364.5,29.4,354,17.1,339.1,17.1z M48.6,125.7c-7.3-11.2-20.8-13.7-30.1-5.5C25.8,131.2,37.9,133.4,48.6,125.7z M364.3,125.7
	c10.3,7.2,23.1,6.4,30.2-6C382.7,112.6,372.5,114.5,364.3,125.7z M98.5,150.5c-8.1,7.5-8.6,17.5-1.3,24.7
	C105.1,167.8,105.6,158.9,98.5,150.5z M315.8,175.2c7.3-7.6,6.7-17.7-1.4-24.6C307.4,159.2,307.9,168.3,315.8,175.2z M126.3,173.9
	c-7.4,8.5-6.8,18,1.3,24.8C134.5,190.4,134.2,181.9,126.3,173.9z M88.6,183.9c-9.3-7.1-18.8-6.4-24.8,1.7
	C72.3,192.5,80.7,192,88.6,183.9z M119.4,205.9c-10.2-4.1-21.2,1-22.4,10.1C107.9,219,114.6,216.1,119.4,205.9z M324.5,183.9
	c7.4,8.2,17,8.7,24.8,1.5C342.2,177.5,333.9,177,324.5,183.9z M286.8,173.9c-8,7.6-8.4,17.7-1.1,24.7
	C293.5,190.9,293.9,182.7,286.8,173.9z M316.4,215.6c-4.6-10.2-13.7-14-22.7-9.5C296.7,214.5,305.5,220.3,316.4,215.6z M352,153.8
	c6.9,8.6,16,10.1,23.5,3.8C368.8,149.2,360.6,147.9,352,153.8z M37.3,158.1c9.9,5.4,17,4.1,23.7-4.3
	C52.3,147.9,43.2,149.4,37.3,158.1z M342.7,141.3c6.1-8.5,4.1-19.1-4.4-23.4C333,127.5,334.4,135.2,342.7,141.3z M70.2,141.5
	c8.6-7,10-16,3.9-23.7C65.9,124.3,64.5,132.2,70.2,141.5z"/>
<path class="st1" d="M147.1,102.5c0-10.2,0.1-20.5-0.1-30.7c-0.1-3.5,0.9-4.6,4.5-4.6c17.2,0.2,34.4,0.1,51.7,0.1
	c1.3,0,2.9,0.4,3.8-0.2c1.5-1.1,3.6-2.8,3.6-4.3c0-1.4-2.2-3.1-3.8-4.2c-0.8-0.5-2.2-0.1-3.3-0.1c-19.1,0-38.2,0-57.2,0
	c-7.1,0-12.8-5.1-13.6-11.7s3.1-12.5,9.5-14.3c1.2-0.3,2.5-0.5,3.8-0.5c40.3,0,80.6-0.1,120.9,0c7.4,0,12.7,4.9,13.4,11.7
	c0.7,6.3-2.6,12-8.9,13.9c-4.4,1.3-5.6,3.8-5.6,8.1c0.1,20.2,0.1,40.4,0.1,60.6c0,34.1-24.3,59.6-58.3,61.1
	c-29.8,1.4-58.1-23.6-60-53.4c-0.7-10.5-0.1-21-0.1-31.6C147.4,102.5,147.2,102.5,147.1,102.5z M168.5,123.1c-0.6,0-1.3,0-1.9,0
	c-1.1,1.8-3.3,3.6-3.3,5.4c0.3,14.7,6.4,26.5,18.3,35.2c2.2,1.6,4.6,1.7,6.4-0.6c1.7-2.3,1.2-4.7-1.1-6.3
	c-9.5-7.1-14.4-16.4-15-28.3C171.9,126.6,169.7,124.9,168.5,123.1z M231,68.2c2.3-1.1,4.9-1.7,6.4-3.4c0.7-0.8-0.3-4.9-0.9-5
	c-3.6-0.5-7.3-0.5-10.9-0.1c-0.5,0.1-1.5,4.2-0.7,5.4C225.9,66.7,228.6,67.1,231,68.2z M208.4,171.9c3-0.1,5.9-0.5,5.8-4.5
	c0-3.8-2.7-4.5-5.9-4.4c-3.2,0-5.8,1.1-5.7,4.7C202.8,171.2,205.4,171.9,208.4,171.9z"/>
<path class="st1" d="M259.3,218.4c2.3,19.1,4.6,37.9,6.9,57c-39.8,0-79.4,0-119.4,0c2.3-18.9,4.5-37.8,6.9-57
	C188.8,218.4,223.8,218.4,259.3,218.4z M206.2,267.1c13.1,0,26.2,0,39.3,0c4.8,0,6.2-1.6,5.6-6.3c-1.1-9.7-2.4-19.5-3.6-29.2
	c-0.4-3.4-2.3-4.9-5.7-4.9c-23.5,0.1-47,0.1-70.4,0c-3.7,0-5.5,1.6-5.9,5.2c-1.1,9.3-2.4,18.6-3.5,27.9c-0.7,6,0.4,7.2,6.7,7.2
	C181.2,267.1,193.7,267.1,206.2,267.1z"/>
<path class="st1" d="M189.3,195.4c11.6,0,22.8,0,34.4,0c0,4,0,8.6,0,13.4c-11.4,0-22.7,0-34.4,0
	C189.3,204.1,189.3,199.5,189.3,195.4z"/>
<path class="st2" d="M72.6,65.7c3.3,14.9-4.9,26.9-20.2,29.7C47.9,81.1,57,67.7,72.6,65.7z"/>
<path class="st2" d="M340.3,65.6c15.8,2.7,24.2,14.7,20.8,29.5C347.1,95.1,337.7,82,340.3,65.6z"/>
<path class="st2" d="M375.1,44.7c-1.5-16,7.2-26.2,23.2-27.8C401.7,30.7,392,42.4,375.1,44.7z"/>
<path class="st2" d="M14.5,17c15.2,0.4,25.4,12.3,23.3,27.5C21.5,43.1,12.1,32,14.5,17z"/>
<path class="st2" d="M50.5,44.6c-2.1-15,8.2-27.3,23.3-27.6C75.8,34.8,64.7,43.3,50.5,44.6z"/>
<path class="st2" d="M12.7,68.2c16-0.7,26.3,8.8,26.7,24.4C25.1,95,13.3,84.3,12.7,68.2z"/>
<path class="st2" d="M373.6,92.8c0.3-15.8,10.6-25.3,26.3-24.7C401.5,82.4,389.9,93.5,373.6,92.8z"/>
<path class="st2" d="M339.1,17.1c14.9,0,25.4,12.3,23.4,27.4C346.6,43.4,336.7,31.9,339.1,17.1z"/>
<path class="st2" d="M48.6,125.7c-10.7,7.7-22.8,5.5-30.1-5.5C27.8,112.1,41.2,114.5,48.6,125.7z"/>
<path class="st2" d="M364.3,125.7c8.2-11.2,18.4-13.2,30.2-6C387.3,132.1,374.6,132.9,364.3,125.7z"/>
<path class="st2" d="M98.5,150.5c7,8.4,6.6,17.3-1.3,24.7C89.9,167.9,90.4,158,98.5,150.5z"/>
<path class="st2" d="M315.8,175.2c-7.9-6.9-8.4-16-1.4-24.6C322.5,157.5,323.1,167.6,315.8,175.2z"/>
<path class="st2" d="M126.3,173.9c7.9,8,8.2,16.5,1.3,24.8C119.5,191.9,118.9,182.4,126.3,173.9z"/>
<path class="st2" d="M88.6,183.9c-7.8,8-16.3,8.5-24.8,1.7C69.7,177.6,79.3,176.9,88.6,183.9z"/>
<path class="st2" d="M119.4,205.9C114.6,216.1,107.9,219,97,216C98.2,206.9,109.3,201.8,119.4,205.9z"/>
<path class="st2" d="M324.5,183.9c9.4-6.9,17.7-6.3,24.8,1.5C341.5,192.5,331.8,192,324.5,183.9z"/>
<path class="st2" d="M286.8,173.9c7.1,8.9,6.7,17.1-1.1,24.7C278.4,191.6,278.8,181.5,286.8,173.9z"/>
<path class="st2" d="M316.4,215.6c-10.9,4.8-19.7-1.1-22.7-9.5C302.7,201.6,311.8,205.4,316.4,215.6z"/>
<path class="st2" d="M352,153.8c8.6-5.9,16.8-4.6,23.5,3.8C368.1,163.9,358.9,162.4,352,153.8z"/>
<path class="st2" d="M37.3,158.1c5.9-8.7,15-10.2,23.7-4.3C54.3,162.2,47.2,163.5,37.3,158.1z"/>
<path class="st2" d="M342.7,141.3c-8.3-6.1-9.7-13.8-4.4-23.4C346.8,122.2,348.7,132.9,342.7,141.3z"/>
<path class="st2" d="M70.2,141.5c-5.7-9.3-4.3-17.2,3.9-23.7C80.2,125.5,78.8,134.5,70.2,141.5z"/>
<path class="st3" d="M168.5,123.1c1.2,1.8,3.3,3.6,3.4,5.4c0.6,11.9,5.5,21.2,15,28.3c2.2,1.7,2.8,4,1.1,6.3
	c-1.8,2.4-4.2,2.3-6.4,0.6c-11.9-8.7-18-20.6-18.3-35.2c0-1.8,2.1-3.6,3.3-5.4C167.2,123.1,167.9,123.1,168.5,123.1z"/>
<path class="st3" d="M231,68.2c-2.5-1.1-5.1-1.5-6.1-3c-0.8-1.2,0.2-5.3,0.7-5.4c3.6-0.5,7.3-0.5,10.9,0.1c0.6,0.1,1.6,4.2,0.9,5
	C235.9,66.5,233.3,67.1,231,68.2z"/>
<path class="st3" d="M208.4,171.9c-3,0.1-5.6-0.6-5.7-4.2c-0.1-3.7,2.5-4.7,5.7-4.7c3.1,0,5.8,0.6,5.9,4.4
	C214.3,171.3,211.5,171.8,208.4,171.9z"/>
<path class="st0" d="M206.2,267.1c-12.5,0-25,0-37.6,0c-6.2,0-7.4-1.2-6.7-7.2c1.1-9.3,2.4-18.6,3.5-27.9c0.4-3.6,2.2-5.2,5.9-5.2
	c23.5,0.1,47,0.1,70.4,0c3.5,0,5.3,1.5,5.7,4.9c1.2,9.7,2.5,19.5,3.6,29.2c0.6,4.7-0.9,6.2-5.6,6.3
	C232.4,267.2,219.3,267.1,206.2,267.1z M241.9,257.9c-1-7.7-1.9-14.9-2.8-22.2c-22,0-43.4,0-65.2,0c-0.9,7.4-1.8,14.6-2.8,22.2
	C194.8,257.9,218,257.9,241.9,257.9z"/>
<path class="st1" d="M241.9,257.9c-23.9,0-47.1,0-70.8,0c0.9-7.6,1.9-14.8,2.8-22.2c21.8,0,43.2,0,65.2,0
	C240,242.9,240.9,250.2,241.9,257.9z"/>
<polygon class="st4" points="170.9,101 162.8,101 162.8,122 177.8,122 177.8,116.8 170.9,116.8 "/>
<rect x="179.4" y="101" class="st4" width="8.4" height="21.1"/>
<path class="st4" d="M240.6,87.8c0-7.4-4.6-10.4-10.3-10.4h-10.9v21.1h10.5C235.3,98.5,240.6,95.3,240.6,87.8z M227.4,93.7V82h0.8
	c1.5,0,4.1,0.2,4.1,5.8c0,5.6-2.3,6.1-4.1,6.1L227.4,93.7L227.4,93.7z"/>
<path class="st4" d="M207.1,98.8c6.6,0,9.9-2.3,9.9-8V77.4h-7.8v14.2c0,1.6-0.9,2.1-2.1,2.1S205,93,205,91.5V77.4h-8v13.3
	C197,96,200.1,98.8,207.1,98.8z"/>
<polygon class="st4" points="235,106 240,106 240,122 248.3,122 248.3,106 253.3,106 253.3,101 235,101 "/>
<path class="st4" d="M252.6,120.3c0-0.2,0-0.3-0.2-0.4c-0.1-0.1-0.3-0.1-0.4-0.1h-0.7v1.7h0.3v-0.7h0.3l0.3,0.7h0.4l-0.4-0.7
	C252.5,120.7,252.6,120.6,252.6,120.3z M252,120.5h-0.5V120h0.4c0.1,0,0.4,0,0.4,0.2C252.3,120.5,252.2,120.5,252,120.5z"/>
<path class="st4" d="M195.5,92.2c0-2.7-1.8-4.3-3.7-5c1.9-0.8,3-2.4,3-4.4c0-3.5-2.5-5.3-6.5-5.3h-12.8v21.1h12.9
	C192.3,98.5,195.5,96.6,195.5,92.2z M183.4,81.7h2.3c1,0,1.9,0.6,1.9,2c0,1.7-0.8,2.2-1.9,2.2h-2.3V81.7z M185.9,94h-2.5v-4.5h2.5
	c1,0,2,0.5,2,2.2C187.9,93.6,187,94,185.9,94z"/>
<path class="st4" d="M251.9,119.1c-0.8,0-1.5,0.6-1.5,1.5c0,0.8,0.6,1.5,1.5,1.5s1.5-0.6,1.5-1.5
	C253.3,119.7,252.7,119.1,251.9,119.1z M251.9,121.8c-0.6,0-1.3-0.5-1.3-1.3c0-0.6,0.5-1.3,1.3-1.3c0.6,0,1.3,0.5,1.3,1.3
	C253.1,121.3,252.5,121.8,251.9,121.8z"/>
<path class="st4" d="M202.2,105.8c2.1,0,3.8,0.9,4.9,2l3.7-4.2c-2.4-2.1-5.2-3.1-9.2-3.1c-7,0-11.8,4-11.8,11.1
	c0,7.7,4.5,11.1,12,11.1c3.2,0,6.2-0.6,8.8-1.7v-10.9h-9.7v4.2h2.5v3.6c-0.2,0.1-0.7,0.1-1.3,0.1c-3.1,0-4.2-2.5-4.2-6.4
	C198,107.5,199.7,105.8,202.2,105.8z"/>
<polygon class="st4" points="225.2,108.7 220.8,108.7 220.8,101 212.9,101 212.9,122 220.8,122 220.8,113.9 225.2,113.9 225.2,122 
	233.2,122 233.2,101 225.2,101 "/>
</svg>
